<svg width="309" height="146" viewBox="0 0 309 146" fill="none" xmlns="http://www.w3.org/2000/svg">
<g clip-path="url(#clip0_2248_12858)" filter="url(#filter0_d_2248_12858)">
<path d="M67.9465 15.3347C67.6847 15.3347 67.4338 15.1882 67.3139 14.9387C66.9376 14.163 66.7903 13.3873 66.8667 12.6388C67.2648 8.8092 73.2363 6.89984 77.599 5.50579C82.2016 4.0358 87.077 3.18961 92.0832 2.99433C92.454 2.96721 92.7976 3.2764 92.8139 3.66695C92.8303 4.05207 92.5249 4.37753 92.1377 4.39381C87.2569 4.58366 82.5125 5.40273 78.0298 6.83475C74.4905 7.96843 68.5627 9.86152 68.2628 12.7852C68.2137 13.2788 68.3173 13.7996 68.5791 14.342C68.7481 14.6892 68.6009 15.1068 68.2519 15.275C68.1537 15.3238 68.0501 15.3455 67.9465 15.3455V15.3347Z" fill="#408F95"/>
<path d="M146.601 19.6144C146.601 19.6144 146.546 19.6144 146.519 19.6144C145.39 19.4842 144.261 19.251 143.165 18.9147C141.709 18.4699 140.624 17.9274 140.166 17.6996L140.013 17.6237C135.045 15.2261 129.919 13.013 124.782 11.0548C120.054 9.25395 116.313 7.82736 111.284 6.57977C105.978 5.26708 100.481 4.45886 94.9516 4.18764C94.5644 4.16594 94.2645 3.84049 94.2863 3.45536C94.3081 3.07023 94.6298 2.7719 95.0225 2.79359C100.645 3.07023 106.229 3.8893 111.628 5.22911C116.743 6.4984 120.512 7.93584 125.289 9.75299C130.464 11.7274 135.628 13.9514 140.629 16.3652L140.798 16.4466C141.267 16.6798 142.243 17.168 143.585 17.5803C144.599 17.8895 145.641 18.1064 146.688 18.2258C147.075 18.2692 147.348 18.6163 147.304 18.996C147.266 19.354 146.961 19.6144 146.606 19.6144H146.601Z" fill="#408F95"/>
<path d="M80.9255 27.7075C80.8164 27.7075 80.7073 27.6804 80.6037 27.6316C79.3985 27.0078 77.5989 26.0531 75.892 25.0333C75.4393 24.7621 74.5941 24.2631 73.5034 23.5308C73.1707 23.3084 72.8108 23.0643 72.44 22.7931C71.1093 21.8492 69.8223 20.824 68.6062 19.75C68.5735 19.7175 68.5408 19.6849 68.5135 19.647C68.4535 19.571 68.3608 19.4571 68.2409 19.3161C67.0084 17.8298 65.8468 16.2839 66.3322 15.1773C66.4849 14.8248 66.8612 14.3962 67.7664 14.3474C68.1591 14.3203 68.4863 14.6186 68.5081 15.0038C68.5299 15.3889 68.2354 15.7198 67.8482 15.7415C67.7337 15.7469 67.6628 15.7632 67.6192 15.774C67.6192 16.0235 67.8755 16.6799 69.3261 18.4265C69.4352 18.5567 69.5224 18.6652 69.5879 18.7465C70.7549 19.7717 71.9873 20.7481 73.258 21.654C73.6234 21.9143 73.9669 22.1476 74.2887 22.37C75.3466 23.0806 76.1701 23.5687 76.6118 23.8345C78.2915 24.8326 80.0584 25.7764 81.2472 26.3894C81.5908 26.5684 81.7271 26.9861 81.5471 27.3332C81.4217 27.5719 81.1763 27.7129 80.9255 27.7129V27.7075Z" fill="#408F95"/>
<path d="M108.885 31.781C102.025 31.781 95.437 31.0107 95.3552 30.9999C91.2161 30.4846 87.0388 29.7252 82.9487 28.7434C82.5724 28.6511 82.338 28.2769 82.4307 27.9026C82.5234 27.5283 82.8996 27.2951 83.2759 27.3873C87.3169 28.3582 91.4397 29.1068 95.5243 29.6113C95.6115 29.6221 104.888 30.707 112.806 30.2839C115.26 30.1537 117.752 29.8553 120.206 29.3889C121.302 29.1827 121.897 29.0363 124.389 28.4342L127.405 27.7019C128.392 27.4632 129.253 27.2462 130.017 27.0564C132.296 26.4868 133.802 26.1071 135.263 26.0041C137.428 25.8522 139.637 26.0366 141.818 26.5574C142.194 26.6441 142.429 27.0239 142.336 27.3981C142.249 27.7724 141.873 28.0057 141.491 27.9134C139.446 27.4307 137.384 27.2571 135.361 27.3981C134.02 27.4903 132.64 27.8375 130.361 28.4125C129.592 28.6078 128.725 28.8247 127.737 29.0634L124.722 29.7957C122.262 30.3924 121.602 30.5551 120.468 30.7666C117.954 31.2385 115.402 31.5477 112.882 31.6833C111.568 31.7539 110.221 31.781 108.885 31.781Z" fill="#408F95"/>
<path d="M148.809 19.6631C148.509 19.6631 148.231 19.4678 148.138 19.1695C148.024 18.8006 148.231 18.4101 148.602 18.2961C150.238 17.7971 158.767 15.2477 165.797 14.2171C169.227 13.7126 171.741 13.6638 174.478 14.0435C175.373 14.1682 176.267 14.3418 177.14 14.5534C177.516 14.6456 177.745 15.0253 177.652 15.3996C177.56 15.7738 177.183 16.0071 176.801 15.9094C175.978 15.7087 175.127 15.546 174.277 15.4267C171.681 15.0633 169.281 15.1121 165.993 15.5948C159.067 16.6146 150.625 19.1315 149.006 19.6305C148.935 19.6522 148.869 19.6631 148.798 19.6631H148.809Z" fill="#408F95"/>
<path d="M169.009 45.0493C168.959 45.0493 168.91 45.0493 168.861 45.033C165.72 44.3604 160.376 41.773 158.424 39.9884C156.738 38.7354 155.391 37.7427 154.246 36.8966C150.282 33.9729 148.64 32.7687 143.432 28.4075C143.138 28.158 143.1 27.7186 143.345 27.4257C143.596 27.1328 144.037 27.0948 144.332 27.3389C149.507 31.6675 151.138 32.8717 155.081 35.7737C156.237 36.6253 157.595 37.6234 159.296 38.8927C159.318 38.909 159.334 38.9253 159.356 38.9415C161.112 40.5688 166.244 43.0423 169.161 43.6661C169.543 43.7475 169.783 44.1163 169.701 44.496C169.63 44.8215 169.341 45.0493 169.014 45.0493H169.009Z" fill="#408F95"/>
<path d="M169.009 45.0493C168.823 45.0493 168.632 44.9734 168.496 44.8269C166.669 42.8904 164.324 39.6304 163.544 35.0957C163.31 33.7396 162.765 30.5664 164.046 26.9592C165.219 23.6667 167.264 21.7627 169.63 19.555C171.708 17.6185 174.069 15.9587 176.654 14.6135C176.998 14.4345 177.423 14.5647 177.603 14.9064C177.783 15.2481 177.652 15.6712 177.309 15.8502C174.838 17.1358 172.581 18.7251 170.596 20.5748C168.272 22.7391 166.435 24.4532 165.377 27.4257C164.215 30.6911 164.717 33.6148 164.935 34.8624C165.655 39.0554 167.831 42.0768 169.527 43.8722C169.794 44.1543 169.778 44.5937 169.494 44.8595C169.358 44.9842 169.183 45.0493 169.014 45.0493H169.009Z" fill="#408F95"/>
<path d="M159.209 23.2272C159.002 23.2272 158.8 23.1404 158.664 22.9668C158.418 22.6685 158.467 22.2291 158.767 21.985C159.961 21.0249 161.27 20.2058 162.655 19.5603C164.324 18.7792 166.097 18.2422 167.923 17.9602C168.305 17.9005 168.665 18.1609 168.725 18.546C168.785 18.9257 168.523 19.2837 168.136 19.3434C166.44 19.6037 164.799 20.1028 163.25 20.8296C161.968 21.4317 160.752 22.1857 159.645 23.0807C159.514 23.1838 159.362 23.238 159.203 23.238L159.209 23.2272Z" fill="#408F95"/>
<path d="M162.083 38.3882C161.936 38.3882 161.783 38.3393 161.652 38.2417C160.136 37.0755 157.442 34.564 156.482 30.8429C156.188 29.693 155.566 27.2954 156.651 24.8491C156.804 24.5073 156.984 24.171 157.186 23.8564C157.398 23.531 157.829 23.4387 158.156 23.6503C158.484 23.8618 158.576 24.2904 158.364 24.6158C158.2 24.8653 158.053 25.1366 157.933 25.4132C157.044 27.4202 157.562 29.4218 157.84 30.5012C158.696 33.8209 161.134 36.0882 162.508 37.1406C162.814 37.3738 162.874 37.8132 162.634 38.1224C162.497 38.3014 162.29 38.3936 162.077 38.3936L162.083 38.3882Z" fill="#408F95"/>
<path d="M92.8902 23.3951C92.743 23.3951 92.5958 23.3951 92.4431 23.3842C89.2528 23.2486 86.9951 21.719 85.9317 20.8185C85.6372 20.569 85.5991 20.1296 85.8499 19.8367C86.1008 19.5438 86.5425 19.5058 86.837 19.7554C87.764 20.5419 89.7327 21.8708 92.4976 21.9902C95.2734 22.1041 97.1602 20.9487 98.4091 20.1785C99.0907 19.7554 99.3525 19.5004 99.4398 19.3865C99.2325 19.1533 98.3382 18.7464 95.437 18.2311C92.8302 17.7701 90.0872 17.6562 87.2842 17.8948C86.897 17.9219 86.5589 17.6453 86.5261 17.2602C86.4934 16.8751 86.777 16.5387 87.1642 16.5062C90.0872 16.2567 92.9557 16.376 95.6824 16.8588C98.3491 17.3307 100.754 17.8786 100.869 19.3214C100.923 19.9778 100.405 20.5907 99.1453 21.3664C97.8965 22.1366 95.846 23.3951 92.8848 23.3951H92.8902Z" fill="#408F95"/>
<path d="M80.5546 24.4096C80.3092 24.4096 80.0692 24.2794 79.9383 24.0516C79.7475 23.7153 79.8729 23.2868 80.211 23.1024C82.3651 21.9144 84.1593 20.3251 85.5499 18.394C86.2861 17.3688 86.9023 16.2514 87.3713 15.0689C87.5131 14.7109 87.9221 14.5374 88.282 14.6784C88.642 14.8194 88.8165 15.2262 88.6747 15.5842C88.1566 16.8698 87.4913 18.0903 86.6896 19.2023C85.1791 21.3069 83.2267 23.0318 80.8927 24.3228C80.7836 24.3825 80.6691 24.4096 80.5546 24.4096Z" fill="#408F95"/>
<path d="M74.1032 10.5503C74.2068 9.94277 74.7849 9.53594 75.3902 9.63901C76.001 9.74207 76.41 10.317 76.3064 10.9191C76.2028 11.5267 75.6247 11.9335 75.0194 11.8304C74.4086 11.7274 73.9996 11.1524 74.1032 10.5503Z" fill="#408F95"/>
<path d="M105.569 36.8803C104.342 36.864 103.148 36.7664 101.97 36.5874C100.356 36.3433 98.7526 35.9419 97.2093 35.394C91.5378 33.387 88.4348 31.6567 83.2977 28.7927C82.9596 28.6028 82.8396 28.1797 83.0305 27.8434C83.2214 27.5071 83.6467 27.3878 83.9848 27.5776C89.231 30.5013 92.1213 32.1123 97.6837 34.0814C99.1453 34.5967 100.656 34.9764 102.183 35.2096C103.295 35.3778 104.424 35.47 105.548 35.4863C106.829 35.4374 107.445 35.2639 107.723 35.1391C107.38 34.9059 106.502 34.4502 104.304 33.7613C103.933 33.6474 103.732 33.2514 103.846 32.888C103.961 32.5192 104.359 32.313 104.724 32.4324C108.258 33.5389 109.452 34.2983 109.289 35.3235C109.081 36.6037 107.064 36.8261 105.564 36.8857L105.569 36.8803Z" fill="#408F95"/>
<path d="M107.712 33.8315C107.276 33.8315 106.862 33.8098 106.469 33.7881C100.836 33.441 96.2876 32.2476 96.0967 32.1934C93.9754 31.6292 91.8485 30.9404 89.7762 30.1484C89.4163 30.0074 89.2364 29.606 89.3727 29.248C89.5145 28.89 89.918 28.711 90.278 28.8466C92.3066 29.6222 94.3844 30.2949 96.4566 30.8481C96.6421 30.897 101.054 32.0578 106.551 32.3941C107.816 32.47 109.179 32.5026 110.777 31.9384C111.644 31.6347 112.468 31.1899 113.22 30.6203C113.531 30.3871 113.967 30.4467 114.202 30.7559C114.436 31.0651 114.376 31.4991 114.066 31.7323C113.199 32.3886 112.25 32.8985 111.246 33.2511C109.943 33.7122 108.76 33.8315 107.707 33.8315H107.712Z" fill="#408F95"/>
<path d="M130.884 36.8798C129.052 36.8798 127.23 36.7008 125.425 36.3428C121.439 35.5455 117.589 33.8422 114.289 31.4176C113.978 31.1897 113.913 30.7504 114.142 30.4412C114.371 30.132 114.813 30.0669 115.124 30.2947C118.259 32.6001 121.913 34.2219 125.698 34.9759C128.544 35.5455 131.451 35.6377 134.341 35.2634C134.232 34.3304 133.916 32.676 133.043 31.4827C132.793 31.1409 132.378 30.5714 131.647 30.1103C131.457 29.9855 131.309 29.915 130.911 29.7198L130.633 29.5841C129.837 29.1882 129.193 28.8573 128.768 28.6349C128.424 28.4559 128.294 28.0328 128.474 27.6911C128.653 27.3493 129.079 27.2191 129.422 27.3981C129.842 27.6205 130.475 27.946 131.26 28.3311L131.533 28.4667C131.953 28.6729 132.144 28.7651 132.405 28.9332C133.36 29.5407 133.894 30.2676 134.178 30.6582C135.536 32.5024 135.765 35.079 135.803 35.8221C135.819 36.1801 135.563 36.4947 135.208 36.549C133.769 36.7714 132.324 36.8853 130.878 36.8853L130.884 36.8798Z" fill="#408F95"/>
<path d="M137.003 14.8521C135.972 14.8521 134.876 14.7816 133.654 14.6514C133.267 14.6081 132.989 14.2663 133.033 13.8812C133.076 13.4961 133.42 13.214 133.807 13.2628C134.985 13.3876 136.032 13.4527 137.014 13.4581C137.401 13.4581 137.712 13.7727 137.712 14.1578C137.712 14.543 137.395 14.8521 137.008 14.8521H137.003Z" fill="#408F95"/>
<path d="M137.624 6.927C137.553 6.927 137.477 6.91615 137.406 6.89445C136.621 6.63409 135.836 6.36829 135.05 6.09708C132.885 5.35395 130.644 4.5837 128.321 4.07381C118.21 2.02884 108.361 1.1501 99.0579 1.46471C98.6761 1.47556 98.3435 1.17723 98.3326 0.792099C98.3217 0.406972 98.6216 0.0815135 99.0088 0.0706649C108.416 -0.24937 118.379 0.634794 128.61 2.70688C131.026 3.23846 133.3 4.01957 135.503 4.77897C136.283 5.04476 137.063 5.31598 137.842 5.57092C138.213 5.69026 138.41 6.08623 138.29 6.44966C138.191 6.74257 137.919 6.93242 137.624 6.93242V6.927Z" fill="#408F95"/>
<path d="M84.061 5.2941C83.7938 5.2941 83.5375 5.14222 83.423 4.88728C83.2649 4.5347 83.423 4.12245 83.772 3.96515C85.5553 3.15692 87.404 2.46261 89.2745 1.89306C91.6903 1.15535 94.1825 0.618344 96.6911 0.292886C97.0783 0.244067 97.4273 0.509858 97.4764 0.894984C97.5255 1.28011 97.2583 1.62727 96.8711 1.67609C94.4443 1.9907 92.023 2.51143 89.6835 3.22744C87.873 3.78072 86.0733 4.45333 84.3501 5.23444C84.2574 5.27783 84.1592 5.29953 84.061 5.29953V5.2941Z" fill="#408F95"/>
<path d="M97.9674 3.3903C97.7383 3.3903 97.5093 3.27639 97.3729 3.07027C97.1657 2.74481 97.2584 2.31086 97.5856 2.10474C97.7329 2.01252 97.951 1.87692 98.2182 1.72504C99.2216 1.16091 100.307 0.732386 101.441 0.444897C102.319 0.2225 103.224 0.0923164 104.135 0.0543462C104.522 0.0380733 104.85 0.336411 104.866 0.721537C104.882 1.10666 104.582 1.43212 104.195 1.4484C103.377 1.48094 102.57 1.60028 101.785 1.79555C100.77 2.05049 99.7997 2.43562 98.9053 2.93466C98.6654 3.07027 98.4745 3.1896 98.3382 3.27097C98.2237 3.34691 98.0928 3.37945 97.9619 3.37945L97.9674 3.3903Z" fill="#408F95"/>
<path d="M107.745 4.00306C107.516 4.00306 107.287 3.88915 107.156 3.68303C106.949 3.35757 107.042 2.92905 107.369 2.7175C107.516 2.62529 107.734 2.48968 108.002 2.3378C109.005 1.77367 110.09 1.34515 111.23 1.05766C112.108 0.835263 113.013 0.70508 113.924 0.66711C114.311 0.645412 114.638 0.949174 114.655 1.3343C114.671 1.71943 114.371 2.04489 113.984 2.06116C113.166 2.0937 112.359 2.21304 111.574 2.40831C110.559 2.66326 109.589 3.04838 108.694 3.54742C108.454 3.68303 108.263 3.80236 108.127 3.88373C108.013 3.95967 107.876 3.99221 107.751 3.99221L107.745 4.00306Z" fill="#408F95"/>
<path d="M116.765 5.27262C116.536 5.27262 116.307 5.15871 116.171 4.95259C115.964 4.62713 116.056 4.19861 116.383 3.98706C116.531 3.89485 116.749 3.75924 117.016 3.60736C118.025 3.04323 119.11 2.61471 120.244 2.32722C121.122 2.10482 122.028 1.97464 122.938 1.93667C123.326 1.9204 123.653 2.21873 123.669 2.60386C123.686 2.98899 123.386 3.31445 122.998 3.33072C122.18 3.36327 121.373 3.4826 120.588 3.67788C119.574 3.93282 118.603 4.31795 117.709 4.81698C117.469 4.95259 117.278 5.07192 117.141 5.15329C117.027 5.22923 116.896 5.26178 116.765 5.26178V5.27262Z" fill="#408F95"/>
<path d="M130.17 34.0705H130.153C127.754 34.0108 125.474 33.4738 123.386 32.4649C122.475 32.0255 121.602 31.4993 120.79 30.8972C120.479 30.664 120.414 30.2301 120.648 29.9209C120.883 29.6117 121.319 29.5466 121.63 29.7798C122.371 30.3331 123.173 30.8159 123.996 31.2119C125.905 32.1286 127.988 32.6222 130.186 32.6764C130.573 32.6873 130.879 33.0073 130.873 33.3924C130.862 33.7721 130.551 34.0759 130.17 34.0759V34.0705Z" fill="#408F95"/>
<path d="M128.904 31.2548C128.823 31.2548 128.741 31.2385 128.664 31.2114L124.667 29.7577C124.302 29.6275 124.116 29.2261 124.247 28.8627C124.378 28.4993 124.787 28.3148 125.147 28.445L129.144 29.8987C129.51 30.0289 129.695 30.4303 129.564 30.7937C129.461 31.0758 129.193 31.2548 128.904 31.2548Z" fill="#408F95"/>
<path d="M138.862 14.7867C138.486 14.7867 138.17 14.4884 138.159 14.1087C138.148 13.7235 138.453 13.4035 138.84 13.3926C141.485 13.3167 142.614 12.8068 142.8 11.5809C142.298 9.90481 141.011 8.54331 138.873 7.4259C138.53 7.2469 138.399 6.8238 138.579 6.48207C138.759 6.14034 139.184 6.01016 139.528 6.18916C142.085 7.52354 143.612 9.2105 144.19 11.3423C144.212 11.4236 144.217 11.5104 144.212 11.5918C143.918 14.6402 140.389 14.7433 138.884 14.7867C138.879 14.7867 138.868 14.7867 138.862 14.7867Z" fill="#408F95"/>
<path d="M167.896 128.67C167.673 128.67 167.455 128.562 167.318 128.367C167.002 127.906 166.828 127.417 166.8 126.918C166.675 124.467 170.078 122.774 172.564 121.537C175.133 120.257 177.92 119.324 180.843 118.76C181.224 118.69 181.59 118.934 181.666 119.313C181.743 119.693 181.492 120.057 181.11 120.133C178.312 120.675 175.651 121.565 173.192 122.785C171.294 123.729 168.125 125.307 168.202 126.848C168.213 127.086 168.305 127.331 168.474 127.575C168.693 127.895 168.611 128.329 168.294 128.546C168.174 128.627 168.033 128.67 167.896 128.67Z" fill="#408F95"/>
<path d="M177.374 134.968C177.309 134.968 177.238 134.957 177.173 134.935C175.869 134.539 174.582 134.084 173.35 133.579C172.81 133.357 172.074 133.053 171.119 132.576C170.252 132.136 169.396 131.653 168.589 131.133C168.551 131.106 168.513 131.078 168.48 131.046C168.442 131.008 168.376 130.954 168.3 130.883C167.384 130.07 166.506 129.202 166.729 128.361C166.795 128.117 167.007 127.688 167.711 127.542C168.087 127.46 168.464 127.699 168.545 128.079C168.611 128.377 168.469 128.67 168.224 128.822C168.371 129.017 168.665 129.337 169.238 129.842C169.303 129.901 169.363 129.95 169.407 129.994C170.16 130.476 170.95 130.927 171.757 131.333C172.663 131.789 173.372 132.082 173.89 132.293C175.078 132.782 176.322 133.226 177.582 133.606C177.952 133.72 178.16 134.111 178.051 134.479C177.958 134.783 177.68 134.973 177.38 134.973L177.374 134.968Z" fill="#408F95"/>
<path d="M183.466 135.364C181.606 135.364 179.736 135.288 177.882 135.13C177.494 135.098 177.211 134.761 177.244 134.376C177.276 133.991 177.62 133.709 178.002 133.742C180.428 133.942 182.882 134.013 185.298 133.942C185.347 133.942 190.822 133.747 195.365 132.798C196.767 132.505 198.179 132.114 199.553 131.626C200.164 131.409 200.497 131.274 201.893 130.699L203.578 130.004C204.052 129.809 204.472 129.63 204.86 129.467C206.081 128.952 206.965 128.578 208.022 128.307C209.462 127.932 210.984 127.759 212.554 127.797C212.941 127.807 213.247 128.128 213.241 128.513C213.23 128.898 212.92 129.202 212.522 129.196C211.082 129.164 209.691 129.321 208.377 129.657C207.417 129.907 206.577 130.259 205.41 130.753C205.018 130.921 204.592 131.1 204.112 131.295L202.427 131.99C201.042 132.559 200.671 132.711 200.022 132.939C198.588 133.443 197.116 133.856 195.654 134.159C190.986 135.13 185.571 135.326 185.342 135.331C184.72 135.347 184.093 135.358 183.471 135.358L183.466 135.364Z" fill="#408F95"/>
<path d="M213.225 124.146C213.225 124.146 213.209 124.146 213.198 124.146C212.805 124.13 212.407 124.092 212.02 124.038C211.098 123.902 210.406 123.68 210.106 123.582L210.024 123.555C206.926 122.606 203.752 121.776 200.595 121.098C197.688 120.474 195.392 119.98 192.371 119.704C189.181 119.411 185.931 119.432 182.708 119.769C182.321 119.807 181.977 119.53 181.939 119.145C181.901 118.76 182.179 118.418 182.566 118.38C185.882 118.038 189.225 118.017 192.502 118.315C195.61 118.597 197.945 119.102 200.895 119.736C204.096 120.425 207.308 121.26 210.444 122.226L210.547 122.258C210.809 122.345 211.425 122.541 212.232 122.66C212.549 122.709 212.87 122.736 213.187 122.752C213.705 122.66 214.223 122.53 214.725 122.362C215.335 122.161 215.766 121.955 215.93 121.879C217.593 121.103 221.421 119.682 224.742 118.727C226.618 118.185 228.058 117.87 229.852 117.843C230.392 117.832 230.943 117.854 231.477 117.903C231.865 117.935 232.148 118.277 232.115 118.662C232.083 119.047 231.739 119.329 231.352 119.297C230.861 119.253 230.365 119.237 229.869 119.243C228.238 119.264 226.897 119.563 225.135 120.072C221.541 121.109 217.888 122.513 216.546 123.137C216.344 123.229 215.859 123.457 215.172 123.685C214.577 123.88 213.967 124.032 213.35 124.141C213.312 124.146 213.274 124.152 213.23 124.152L213.225 124.146Z" fill="#408F95"/>
<path d="M229.389 136.953C229.296 136.953 229.198 136.931 229.105 136.893L221.361 133.482C219.938 132.771 218.558 132.012 217.228 131.214C216.23 130.618 215.226 129.977 214.261 129.327C213.939 129.11 213.858 128.676 214.076 128.356C214.294 128.036 214.73 127.954 215.052 128.171C216.001 128.811 216.977 129.435 217.953 130.021C219.256 130.802 220.609 131.545 221.967 132.223L229.678 135.619C230.032 135.776 230.19 136.188 230.038 136.541C229.923 136.801 229.667 136.959 229.394 136.959L229.389 136.953Z" fill="#408F95"/>
<path d="M229.389 136.953C229.187 136.953 228.991 136.867 228.854 136.704C227.436 135.033 226.335 133.189 225.577 131.225C224.939 129.576 224.437 128.274 224.65 126.566C224.89 124.635 225.904 123.355 227.186 121.733L227.295 121.592C228.347 120.257 229.59 119.064 230.992 118.039C231.303 117.811 231.745 117.876 231.974 118.185C232.203 118.494 232.137 118.934 231.826 119.162C230.528 120.116 229.372 121.223 228.402 122.454L228.293 122.595C227.104 124.103 226.242 125.193 226.046 126.739C225.877 128.101 226.28 129.142 226.891 130.721C227.595 132.538 228.62 134.247 229.934 135.803C230.185 136.096 230.147 136.541 229.852 136.785C229.721 136.894 229.558 136.948 229.4 136.948L229.389 136.953Z" fill="#408F95"/>
<path d="M182.266 131.203C180.657 131.203 179.414 130.601 178.77 130.211C178.443 130.01 178.34 129.576 178.541 129.251C178.743 128.925 179.174 128.822 179.507 129.023C180.085 129.375 181.284 129.945 182.822 129.777C184.36 129.609 185.309 128.8 185.942 128.263C186.034 128.187 186.105 128.117 186.165 128.063C185.789 127.976 185.14 127.922 184.218 127.9C182.681 127.862 181.099 128.041 179.518 128.421C179.141 128.513 178.76 128.28 178.667 127.905C178.574 127.531 178.809 127.151 179.185 127.059C180.886 126.647 182.593 126.457 184.251 126.495C186.029 126.538 187.518 126.658 187.763 127.688C187.91 128.318 187.387 128.865 186.852 129.321C186.182 129.891 184.938 130.943 182.975 131.16C182.73 131.187 182.495 131.198 182.266 131.198V131.203Z" fill="#408F95"/>
<path d="M176.055 132.825C175.848 132.825 175.64 132.733 175.498 132.554C175.259 132.25 175.319 131.811 175.624 131.572C176.736 130.715 177.609 129.663 178.225 128.453C178.552 127.813 178.798 127.13 178.961 126.419C179.049 126.045 179.425 125.812 179.801 125.898C180.178 125.985 180.412 126.36 180.325 126.734C180.134 127.553 179.85 128.339 179.474 129.083C178.765 130.482 177.756 131.692 176.48 132.679C176.355 132.777 176.202 132.825 176.049 132.825H176.055Z" fill="#408F95"/>
<path d="M171.774 126.408C171.774 126.408 171.763 126.408 171.752 126.408C171.005 126.397 170.399 125.779 170.41 125.036C170.421 124.287 171.021 123.69 171.79 123.701C172.155 123.701 172.493 123.853 172.744 124.114C172.995 124.374 173.132 124.716 173.126 125.074C173.115 125.811 172.504 126.408 171.768 126.408H171.774ZM171.73 125.052C171.73 125.052 171.746 125.09 171.774 125.095C171.795 125.095 171.817 125.074 171.817 125.052H171.73ZM171.73 125.052H171.817C171.817 125.052 171.79 124.992 171.774 125.009C171.752 125.009 171.73 125.025 171.73 125.052Z" fill="#408F95"/>
<path d="M189.661 138C188.685 138 187.708 137.908 186.749 137.723C183.242 137.056 181.273 136.324 178.012 135.109C177.647 134.973 177.467 134.572 177.603 134.208C177.74 133.845 178.143 133.666 178.509 133.801C181.813 135.033 183.629 135.705 187.016 136.351C187.894 136.519 188.766 136.6 189.683 136.6C190.332 136.6 190.986 136.552 191.629 136.465C192.028 136.41 192.393 136.286 192.606 136.183C192.333 135.933 191.651 135.478 190.255 134.881C189.901 134.729 189.732 134.317 189.89 133.964C190.043 133.612 190.457 133.443 190.811 133.601C193.953 134.94 194.242 135.798 194.111 136.454C193.904 137.479 192.311 137.783 191.831 137.848C191.117 137.946 190.364 137.994 189.672 138H189.661Z" fill="#408F95"/>
<path d="M204.047 135.782C203.796 135.782 203.545 135.776 203.294 135.765C200.862 135.657 198.424 134.995 196.248 133.856C195.905 133.677 195.774 133.254 195.954 132.912C196.134 132.57 196.559 132.44 196.903 132.619C198.899 133.661 201.129 134.268 203.36 134.366C204.936 134.436 206.512 134.263 208.044 133.851C207.848 133.254 207.532 132.592 207.101 132.164C206.926 131.99 206.67 131.73 206.25 131.551C206.125 131.496 206.032 131.469 205.819 131.399L205.645 131.344C205.143 131.187 204.739 131.052 204.467 130.959C204.101 130.835 203.905 130.439 204.03 130.07C204.156 129.706 204.554 129.511 204.925 129.636C205.187 129.728 205.585 129.858 206.07 130.016L206.245 130.07C206.534 130.162 206.654 130.2 206.823 130.276C207.477 130.563 207.897 130.981 208.099 131.182C209.113 132.196 209.495 133.742 209.587 134.192C209.658 134.545 209.457 134.892 209.113 135C207.466 135.521 205.765 135.782 204.052 135.782H204.047Z" fill="#408F95"/>
<path d="M206.119 122.411C205.748 122.411 205.437 122.118 205.416 121.744C205.399 121.358 205.699 121.033 206.086 121.011C206.774 120.979 207.379 120.925 207.941 120.838C208.322 120.783 208.682 121.044 208.737 121.424C208.791 121.803 208.53 122.161 208.148 122.215C207.537 122.308 206.883 122.367 206.152 122.4C206.141 122.4 206.13 122.4 206.119 122.4V122.411Z" fill="#408F95"/>
<path d="M208.044 122.232C207.679 122.232 207.368 121.949 207.346 121.581C207.319 121.196 207.613 120.865 208.001 120.838C209.806 120.724 210.711 120.138 210.787 119.644C210.858 119.189 210.231 118.424 208.688 117.811C208.328 117.67 208.153 117.263 208.295 116.905C208.437 116.547 208.846 116.373 209.206 116.514C211.267 117.328 212.38 118.576 212.172 119.861C211.96 121.196 210.433 122.08 208.088 122.226C208.072 122.226 208.055 122.226 208.044 122.226V122.232Z" fill="#408F95"/>
<path d="M184.742 117.827C184.42 117.827 184.131 117.605 184.06 117.285C183.973 116.91 184.213 116.536 184.589 116.449C190.452 115.131 196.368 114.757 202.182 115.337C203.812 115.5 205.459 115.739 207.073 116.053C207.455 116.129 207.701 116.493 207.63 116.872C207.553 117.252 207.188 117.496 206.806 117.426C205.236 117.122 203.632 116.889 202.04 116.726C196.379 116.162 190.61 116.525 184.9 117.811C184.845 117.822 184.796 117.827 184.747 117.827H184.742Z" fill="#408F95"/>
<path d="M176.371 121.391C176.142 121.391 175.918 121.277 175.782 121.076C175.569 120.751 175.662 120.322 175.984 120.111C176.96 119.476 177.985 118.896 179.032 118.397C180.03 117.914 181.077 117.491 182.135 117.138C182.381 117.057 182.593 116.986 182.741 116.943C183.106 116.829 183.504 117.035 183.619 117.399C183.733 117.768 183.526 118.158 183.16 118.272C183.019 118.315 182.822 118.38 182.588 118.456C181.584 118.793 180.597 119.194 179.648 119.65C178.656 120.127 177.685 120.675 176.758 121.277C176.638 121.353 176.507 121.391 176.376 121.391H176.371Z" fill="#408F95"/>
<path d="M187.092 117.984C186.983 117.984 186.88 117.941 186.803 117.854C186.661 117.697 186.678 117.453 186.836 117.312C186.912 117.246 187.027 117.149 187.169 117.035C187.703 116.617 188.292 116.276 188.925 116.01C189.41 115.804 189.928 115.646 190.451 115.543C190.659 115.5 190.866 115.635 190.904 115.847C190.942 116.059 190.811 116.259 190.599 116.297C190.124 116.389 189.661 116.53 189.224 116.715C188.657 116.954 188.123 117.268 187.643 117.637C187.518 117.735 187.414 117.827 187.343 117.887C187.272 117.952 187.179 117.984 187.087 117.984H187.092Z" fill="#408F95"/>
<path d="M190.746 117.87C190.621 117.87 190.495 117.805 190.419 117.691C190.304 117.512 190.353 117.274 190.533 117.16C190.615 117.106 190.735 117.03 190.882 116.943C191.433 116.612 192.028 116.303 192.633 116.037C193.107 115.826 193.587 115.641 194.073 115.478C194.274 115.413 194.492 115.522 194.563 115.722C194.629 115.923 194.52 116.14 194.318 116.211C193.86 116.363 193.396 116.542 192.949 116.742C192.371 116.997 191.809 117.29 191.28 117.605C191.139 117.686 191.024 117.762 190.948 117.811C190.882 117.854 190.811 117.87 190.741 117.87H190.746Z" fill="#408F95"/>
<path d="M195.365 117.876C195.245 117.876 195.131 117.821 195.054 117.718C194.929 117.55 194.961 117.306 195.136 117.181C195.218 117.122 195.332 117.035 195.48 116.937C196.025 116.568 196.614 116.248 197.236 115.977C197.715 115.771 198.212 115.592 198.713 115.456C198.921 115.397 199.133 115.521 199.188 115.728C199.242 115.934 199.122 116.145 198.915 116.199C198.452 116.324 197.988 116.487 197.541 116.682C196.963 116.932 196.418 117.23 195.91 117.572C195.774 117.664 195.665 117.74 195.594 117.794C195.523 117.843 195.447 117.87 195.365 117.87V117.876Z" fill="#408F95"/>
<path d="M204.292 132.728C204.292 132.728 204.254 132.728 204.238 132.728L201.124 132.299C200.911 132.272 200.764 132.077 200.797 131.865C200.824 131.654 201.026 131.507 201.233 131.54L204.347 131.968C204.559 131.995 204.707 132.191 204.674 132.402C204.647 132.592 204.483 132.733 204.292 132.733V132.728Z" fill="#408F95"/>
<path d="M224.317 132.093C224.214 132.093 224.105 132.066 224.006 132.001C223.068 131.409 222.234 130.682 221.536 129.842C220.598 128.719 219.72 127.661 219.835 126.272C219.955 124.857 221.04 123.956 222.19 123.002C223.134 122.221 224.197 121.602 225.359 121.174C225.659 121.06 225.991 121.212 226.106 121.51C226.22 121.808 226.068 122.139 225.768 122.253C224.732 122.638 223.777 123.191 222.938 123.886C221.896 124.748 221.072 125.432 220.991 126.37C220.914 127.287 221.58 128.09 222.425 129.104C223.047 129.853 223.788 130.498 224.628 131.03C224.901 131.198 224.977 131.556 224.808 131.827C224.699 132.001 224.508 132.093 224.317 132.093Z" fill="#408F95"/>
<path d="M241.49 108.47C241.174 108.47 240.89 108.259 240.808 107.939C240.672 107.396 240.677 106.881 240.83 106.403C241.572 104.06 245.356 103.653 248.116 103.36C250.973 103.051 253.913 103.143 256.847 103.626C257.228 103.691 257.49 104.049 257.425 104.429C257.359 104.809 257.005 105.069 256.618 105.004C253.809 104.537 250.995 104.456 248.268 104.749C246.163 104.977 242.635 105.357 242.172 106.827C242.101 107.054 242.101 107.315 242.172 107.602C242.264 107.976 242.035 108.356 241.659 108.448C241.604 108.465 241.544 108.47 241.49 108.47Z" fill="#408F95"/>
<path d="M248.165 117.653C248.018 117.653 247.865 117.605 247.739 117.512C246.654 116.693 245.613 115.82 244.631 114.914C244.2 114.518 243.611 113.976 242.891 113.2C242.232 112.49 241.604 111.741 241.026 110.971C240.999 110.933 240.977 110.895 240.955 110.851C240.934 110.803 240.895 110.732 240.846 110.64C240.268 109.56 239.75 108.443 240.257 107.727C240.405 107.521 240.754 107.195 241.463 107.298C241.844 107.353 242.112 107.711 242.057 108.09C242.013 108.394 241.779 108.622 241.495 108.676C241.561 108.91 241.73 109.311 242.09 109.989C242.133 110.065 242.166 110.135 242.193 110.184C242.733 110.9 243.317 111.595 243.928 112.251C244.609 112.989 245.176 113.509 245.591 113.889C246.534 114.762 247.549 115.603 248.596 116.4C248.906 116.634 248.961 117.073 248.727 117.377C248.59 117.556 248.378 117.653 248.17 117.653H248.165Z" fill="#408F95"/>
<path d="M283.138 124.439C283.05 124.439 282.963 124.423 282.876 124.39C281.54 123.859 280.176 123.522 278.829 123.387C277.842 123.289 276.926 123.327 275.661 123.387C275.236 123.408 274.772 123.425 274.259 123.446L272.433 123.511C270.938 123.566 270.54 123.582 269.853 123.566C268.332 123.539 266.81 123.414 265.332 123.191C260.62 122.486 255.472 120.788 255.254 120.712C252.92 119.926 250.592 118.988 248.334 117.935C247.985 117.772 247.832 117.355 247.996 117.008C248.159 116.66 248.579 116.509 248.928 116.671C251.137 117.707 253.411 118.619 255.696 119.389C255.745 119.405 260.942 121.119 265.534 121.808C266.952 122.02 268.413 122.139 269.869 122.166C270.518 122.177 270.873 122.166 272.378 122.112L274.21 122.047C274.717 122.031 275.176 122.009 275.601 121.987C276.926 121.927 277.886 121.884 278.971 121.993C280.449 122.139 281.938 122.508 283.399 123.088C283.759 123.229 283.934 123.636 283.792 123.994C283.683 124.265 283.421 124.434 283.138 124.434V124.439Z" fill="#408F95"/>
<path d="M304.296 121.7C304.193 121.7 304.095 121.678 303.997 121.635C303.555 121.423 303.091 121.233 302.628 121.071C301.09 120.523 299.732 120.338 297.9 120.203C294.17 119.926 290.249 119.98 288.776 120.1C288.553 120.116 288.013 120.165 287.293 120.138C286.671 120.116 286.044 120.046 285.428 119.932C285.379 119.921 285.33 119.91 285.286 119.888C284.921 119.736 284.566 119.563 284.223 119.378C283.405 118.934 282.837 118.483 282.592 118.288L282.521 118.234C279.947 116.27 277.264 114.393 274.543 112.663C272.04 111.068 270.06 109.81 267.322 108.503C264.432 107.125 261.378 106.018 258.243 105.21C257.866 105.112 257.643 104.733 257.741 104.358C257.839 103.984 258.221 103.762 258.597 103.859C261.825 104.689 264.967 105.828 267.933 107.244C270.747 108.589 272.76 109.864 275.301 111.486C278.055 113.238 280.776 115.137 283.377 117.127L283.465 117.192C283.683 117.361 284.184 117.762 284.899 118.152C285.177 118.304 285.466 118.445 285.76 118.57C286.278 118.662 286.813 118.722 287.342 118.738C287.98 118.76 288.46 118.722 288.64 118.706C290.472 118.554 294.557 118.554 298.003 118.809C299.956 118.955 301.412 119.151 303.102 119.753C303.615 119.932 304.117 120.143 304.602 120.371C304.951 120.539 305.098 120.951 304.935 121.304C304.815 121.554 304.564 121.7 304.302 121.7H304.296Z" fill="#408F95"/>
<path d="M296.225 137.55C296.051 137.55 295.871 137.484 295.735 137.349L289.671 131.469C288.585 130.308 287.56 129.12 286.589 127.911C285.859 126.999 285.15 126.061 284.468 125.112C284.244 124.797 284.321 124.363 284.632 124.141C284.948 123.918 285.384 123.994 285.608 124.303C286.273 125.231 286.966 126.153 287.68 127.043C288.629 128.225 289.632 129.386 290.668 130.498L296.705 136.356C296.984 136.627 296.989 137.067 296.716 137.343C296.58 137.484 296.395 137.555 296.215 137.555L296.225 137.55Z" fill="#408F95"/>
<path d="M296.226 137.55C295.937 137.55 295.669 137.371 295.566 137.089C294.824 135.033 294.437 132.918 294.415 130.813C294.393 129.045 294.382 127.651 295.179 126.126C296.084 124.401 297.48 123.55 299.247 122.476L299.399 122.384C300.85 121.499 302.437 120.81 304.111 120.333C304.482 120.225 304.875 120.442 304.978 120.811C305.087 121.179 304.869 121.57 304.498 121.673C302.944 122.112 301.477 122.752 300.136 123.571L299.983 123.664C298.336 124.667 297.147 125.389 296.427 126.772C295.789 127.987 295.806 129.104 295.822 130.797C295.844 132.744 296.204 134.702 296.891 136.617C297.022 136.98 296.831 137.382 296.466 137.512C296.389 137.539 296.307 137.555 296.231 137.555L296.226 137.55Z" fill="#408F95"/>
<path d="M256.012 116.172C255.543 116.172 255.036 116.118 254.502 115.988C252.593 115.511 251.426 114.312 250.897 113.634C250.657 113.33 250.712 112.891 251.017 112.652C251.322 112.413 251.764 112.468 252.004 112.771C252.424 113.303 253.346 114.252 254.845 114.626C256.345 115.001 257.523 114.572 258.297 114.29C258.412 114.247 258.505 114.214 258.581 114.176C258.259 113.965 257.665 113.688 256.809 113.352C255.385 112.788 253.842 112.402 252.222 112.213C251.835 112.169 251.562 111.822 251.606 111.437C251.65 111.052 251.999 110.775 252.386 110.824C254.125 111.03 255.794 111.442 257.332 112.055C258.984 112.712 260.337 113.341 260.206 114.388C260.13 115.028 259.443 115.359 258.777 115.597C258.183 115.814 257.218 116.167 256.007 116.167L256.012 116.172Z" fill="#408F95"/>
<path d="M247.679 115.191C247.379 115.191 247.101 115.001 247.009 114.702C246.894 114.334 247.096 113.943 247.467 113.829C248.808 113.412 249.997 112.728 251 111.806C251.529 111.318 252.004 110.764 252.407 110.157C252.62 109.837 253.056 109.745 253.378 109.956C253.7 110.168 253.793 110.602 253.58 110.922C253.116 111.621 252.571 112.262 251.96 112.826C250.804 113.889 249.435 114.675 247.892 115.158C247.821 115.18 247.75 115.191 247.679 115.191Z" fill="#408F95"/>
<path d="M246.147 107.732C245.978 107.732 245.814 107.7 245.656 107.64C244.958 107.369 244.609 106.582 244.882 105.888C245.155 105.194 245.945 104.846 246.643 105.118C247.341 105.389 247.69 106.175 247.418 106.87C247.287 107.206 247.031 107.472 246.698 107.618C246.523 107.694 246.338 107.732 246.153 107.732H246.147ZM246.103 106.365C246.093 106.387 246.103 106.414 246.131 106.42C246.147 106.425 246.18 106.414 246.185 106.392L246.103 106.36V106.365ZM246.103 106.365L246.185 106.398C246.185 106.398 246.185 106.349 246.158 106.344C246.136 106.338 246.109 106.349 246.103 106.371V106.365Z" fill="#408F95"/>
<path d="M261.52 125.443C261.067 125.443 260.653 125.367 260.451 125.323C259.753 125.172 259.061 124.971 258.395 124.721C257.474 124.385 256.585 123.951 255.745 123.447C252.691 121.608 251.104 120.235 248.47 117.968C248.176 117.713 248.143 117.274 248.399 116.981C248.656 116.688 249.097 116.655 249.392 116.91C252.058 119.205 253.525 120.474 256.476 122.253C257.239 122.714 258.052 123.105 258.886 123.414C259.491 123.636 260.124 123.821 260.757 123.962C261.149 124.049 261.536 124.06 261.771 124.032C261.607 123.702 261.122 123.04 260.026 121.998C259.748 121.733 259.737 121.288 260.004 121.011C260.271 120.734 260.718 120.724 260.997 120.989C263.467 123.338 263.44 124.239 263.085 124.808C262.769 125.313 262.12 125.448 261.531 125.448L261.52 125.443Z" fill="#408F95"/>
<path d="M277.69 128.643C277.69 128.643 277.668 128.643 277.657 128.643C275.677 128.545 273.752 128.111 271.936 127.346C269.695 126.403 267.644 124.938 266.003 123.115C265.747 122.828 265.768 122.389 266.057 122.128C266.347 121.868 266.788 121.895 267.05 122.182C268.555 123.853 270.437 125.193 272.487 126.061C273.943 126.674 275.475 127.059 277.057 127.2C277.079 126.663 277.046 125.909 276.762 125.296C276.659 125.074 276.506 124.743 276.184 124.423C276.086 124.33 276.01 124.271 275.835 124.135L275.688 124.021C275.274 123.701 274.941 123.43 274.723 123.251C274.423 123.007 274.379 122.568 274.625 122.269C274.87 121.971 275.312 121.927 275.612 122.172C275.825 122.345 276.152 122.611 276.555 122.92L276.697 123.034C276.937 123.218 277.035 123.3 277.166 123.425C277.679 123.924 277.924 124.461 278.044 124.716C278.638 126.012 278.458 127.596 278.388 128.052C278.333 128.393 278.039 128.643 277.695 128.643H277.69Z" fill="#408F95"/>
<path d="M281.376 116.352C281.327 116.352 281.278 116.352 281.229 116.335C280.629 116.211 279.991 116.037 279.293 115.815C278.922 115.695 278.72 115.305 278.84 114.936C278.96 114.567 279.353 114.366 279.723 114.486C280.378 114.692 280.967 114.854 281.523 114.968C281.905 115.05 282.145 115.419 282.063 115.798C281.992 116.129 281.703 116.352 281.376 116.352Z" fill="#408F95"/>
<path d="M283.339 116.677C282.696 116.677 281.97 116.563 281.174 116.324C280.803 116.216 280.591 115.825 280.705 115.456C280.814 115.087 281.207 114.876 281.578 114.99C283.312 115.505 284.364 115.272 284.61 114.838C284.839 114.437 284.517 113.498 283.285 112.397C282.996 112.137 282.974 111.697 283.23 111.41C283.492 111.122 283.934 111.101 284.223 111.356C285.869 112.831 286.475 114.388 285.831 115.521C285.4 116.281 284.517 116.677 283.339 116.677Z" fill="#408F95"/>
<path d="M282.019 111.469C281.894 111.469 281.769 111.437 281.654 111.366C280.285 110.536 278.867 109.761 277.433 109.061C272.323 106.571 266.794 104.911 260.986 104.136C260.604 104.087 260.331 103.734 260.386 103.349C260.44 102.969 260.789 102.698 261.177 102.753C267.132 103.55 272.809 105.253 278.055 107.808C279.527 108.524 280.989 109.321 282.39 110.178C282.723 110.379 282.827 110.808 282.625 111.139C282.494 111.355 282.259 111.475 282.025 111.475L282.019 111.469Z" fill="#408F95"/>
<path d="M251.982 104.581C251.661 104.581 251.372 104.364 251.301 104.038C251.213 103.664 251.453 103.29 251.83 103.203C252.964 102.948 254.131 102.758 255.287 102.65C256.394 102.547 257.518 102.509 258.635 102.547C258.897 102.552 259.115 102.563 259.274 102.574C259.661 102.595 259.955 102.921 259.939 103.306C259.922 103.691 259.584 103.984 259.203 103.968C259.055 103.962 258.848 103.952 258.597 103.941C257.539 103.908 256.47 103.941 255.423 104.044C254.322 104.147 253.22 104.32 252.146 104.564C252.091 104.575 252.042 104.581 251.988 104.581H251.982Z" fill="#408F95"/>
<path d="M263.113 105.085C262.96 105.085 262.813 104.993 262.753 104.841C262.676 104.64 262.774 104.418 262.976 104.342C263.074 104.304 263.216 104.255 263.385 104.201C264.029 103.995 264.705 103.876 265.392 103.848C265.921 103.827 266.461 103.854 266.99 103.941C267.203 103.973 267.344 104.174 267.312 104.38C267.279 104.592 267.077 104.727 266.87 104.7C266.396 104.624 265.91 104.597 265.436 104.619C264.819 104.646 264.209 104.754 263.631 104.939C263.478 104.988 263.353 105.036 263.265 105.069C263.222 105.085 263.173 105.096 263.129 105.096L263.113 105.085Z" fill="#408F95"/>
<path d="M266.581 106.246C266.401 106.246 266.243 106.121 266.205 105.942C266.161 105.736 266.292 105.53 266.499 105.487C266.592 105.465 266.734 105.438 266.903 105.405C267.535 105.286 268.195 105.204 268.866 105.161C269.384 105.129 269.902 105.118 270.409 105.134C270.622 105.139 270.791 105.318 270.786 105.53C270.78 105.741 270.589 105.893 270.387 105.904C269.902 105.888 269.411 105.899 268.915 105.926C268.282 105.964 267.65 106.045 267.05 106.159C266.892 106.192 266.755 106.219 266.668 106.235C266.641 106.241 266.614 106.246 266.586 106.246H266.581Z" fill="#408F95"/>
<path d="M270.905 107.852C270.736 107.852 270.584 107.743 270.535 107.575C270.475 107.369 270.595 107.157 270.796 107.098C270.894 107.071 271.031 107.033 271.205 106.989C271.843 106.832 272.509 106.734 273.185 106.702C273.708 106.675 274.237 106.68 274.75 106.729C274.963 106.745 275.121 106.935 275.099 107.147C275.077 107.358 274.886 107.515 274.679 107.494C274.199 107.45 273.708 107.445 273.223 107.472C272.596 107.505 271.974 107.597 271.385 107.743C271.227 107.781 271.096 107.819 271.009 107.841C270.971 107.852 270.938 107.857 270.9 107.857L270.905 107.852Z" fill="#408F95"/>
<path d="M274.068 124.868C274.008 124.868 273.943 124.852 273.883 124.819L271.118 123.338C270.933 123.235 270.862 123.002 270.96 122.817C271.064 122.633 271.298 122.563 271.483 122.66L274.248 124.141C274.434 124.244 274.505 124.477 274.407 124.662C274.336 124.792 274.205 124.862 274.068 124.862V124.868Z" fill="#408F95"/>
<path d="M293.133 131.231C292.959 131.231 292.784 131.155 292.67 131.003C291.999 130.124 291.47 129.153 291.11 128.122C290.625 126.75 290.172 125.448 290.767 124.19C291.377 122.904 292.708 122.432 294.121 121.939C295.277 121.532 296.493 121.326 297.731 121.32C298.052 121.32 298.309 121.575 298.309 121.895C298.309 122.215 298.052 122.47 297.731 122.476C296.624 122.476 295.538 122.666 294.508 123.029C293.226 123.479 292.217 123.832 291.814 124.683C291.421 125.519 291.765 126.501 292.201 127.748C292.523 128.665 292.992 129.527 293.592 130.314C293.788 130.569 293.733 130.927 293.483 131.122C293.379 131.203 293.253 131.241 293.133 131.241V131.231Z" fill="#408F95"/>
<path d="M163.365 61.5171C163.119 61.5171 162.874 61.3977 162.726 61.1808C162.301 60.5678 162.072 59.9223 162.039 59.2606C161.87 55.9626 166.566 53.6301 169.99 51.9269C173.573 50.1477 177.456 48.8459 181.524 48.0593C181.944 47.978 182.348 48.2492 182.43 48.6669C182.511 49.0845 182.239 49.4859 181.819 49.5673C177.887 50.3267 174.135 51.5851 170.683 53.2992C167.984 54.6445 163.468 56.8901 163.583 59.1846C163.599 59.5535 163.741 59.9332 164.003 60.3129C164.243 60.6654 164.155 61.1428 163.801 61.3815C163.67 61.4737 163.517 61.5171 163.365 61.5171Z" fill="#408F95"/>
<path d="M176.627 70.3319C176.551 70.3319 176.475 70.3211 176.404 70.2994C174.588 69.7515 172.794 69.1115 171.07 68.4063C170.318 68.0971 169.287 67.674 167.962 67.0068C166.751 66.3993 165.568 65.7213 164.433 64.9944C164.39 64.9673 164.352 64.9347 164.313 64.9022C164.259 64.8479 164.166 64.7666 164.057 64.6689C162.819 63.5732 161.636 62.4124 161.919 61.3438C161.996 61.0509 162.258 60.5302 163.13 60.3458C163.545 60.259 163.959 60.5193 164.046 60.937C164.134 61.3384 163.883 61.7344 163.49 61.8375C163.637 62.1087 164.057 62.6023 165.082 63.519C165.181 63.6058 165.262 63.6817 165.328 63.736C166.397 64.4194 167.515 65.0541 168.654 65.629C169.925 66.2691 170.923 66.6814 171.654 66.9797C173.328 67.6686 175.078 68.287 176.845 68.824C177.254 68.9487 177.483 69.3772 177.358 69.7841C177.254 70.115 176.949 70.3319 176.616 70.3319H176.627Z" fill="#408F95"/>
<path d="M185.151 70.8849C182.555 70.8849 179.943 70.7764 177.353 70.5594C176.927 70.5215 176.611 70.1526 176.649 69.7295C176.682 69.3064 177.058 68.9918 177.483 69.0298C180.892 69.3173 184.333 69.4095 187.72 69.3118C187.79 69.3118 195.469 69.0352 201.849 67.7062C203.823 67.294 205.808 66.7407 207.739 66.0627C208.601 65.7589 209.064 65.5691 211.016 64.7663L213.383 63.7953C214.043 63.5241 214.632 63.2746 215.177 63.0467C216.884 62.3253 218.117 61.81 219.584 61.4249C221.58 60.9041 223.69 60.6709 225.871 60.7197C226.297 60.7306 226.635 61.0831 226.624 61.5062C226.613 61.9293 226.242 62.2548 225.833 62.2548C223.799 62.206 221.83 62.4284 219.976 62.9111C218.618 63.2637 217.43 63.7682 215.783 64.4571C215.237 64.6903 214.643 64.9398 213.978 65.211L211.611 66.182C209.68 66.9794 209.162 67.1909 208.257 67.5055C206.261 68.2053 204.211 68.7802 202.166 69.2033C195.649 70.5594 187.845 70.8361 187.763 70.8415C186.896 70.8686 186.024 70.8795 185.146 70.8795L185.151 70.8849Z" fill="#408F95"/>
<path d="M226.82 55.1869C226.82 55.1869 226.798 55.1869 226.787 55.1869C226.242 55.1652 225.697 55.1164 225.162 55.035C223.886 54.8506 222.926 54.5414 222.517 54.4058L222.397 54.3679C218.051 53.0335 213.607 51.8781 209.178 50.9234C205.105 50.0447 201.882 49.3558 197.639 48.9652C193.162 48.5584 188.592 48.5855 184.066 49.052C183.64 49.1008 183.258 48.7917 183.215 48.3686C183.171 47.9455 183.477 47.5658 183.902 47.5224C188.526 47.045 193.195 47.0179 197.775 47.4302C202.111 47.8261 205.372 48.5259 209.5 49.4154C213.972 50.3756 218.466 51.5472 222.85 52.8924L222.992 52.9358C223.363 53.0552 224.235 53.3372 225.38 53.5054C225.839 53.5705 226.302 53.6193 226.766 53.6356C227.513 53.5054 228.254 53.321 228.974 53.0823C229.836 52.7948 230.452 52.5073 230.687 52.3988C233.004 51.3194 238.354 49.3341 242.989 47.9997C245.602 47.2457 247.598 46.8064 250.084 46.7738C250.837 46.763 251.595 46.7901 252.337 46.8552C252.762 46.8931 253.078 47.2674 253.04 47.6905C253.002 48.1136 252.631 48.4282 252.2 48.3903C251.508 48.3306 250.804 48.3089 250.101 48.3143C247.794 48.3469 245.902 48.7645 243.415 49.4805C238.37 50.9343 233.239 52.9087 231.357 53.782C231.079 53.9122 230.403 54.2268 229.454 54.5414C228.631 54.8126 227.785 55.0242 226.935 55.1706C226.891 55.1761 226.847 55.1815 226.804 55.1815L226.82 55.1869Z" fill="#408F95"/>
<path d="M249.452 73.1145C249.348 73.1145 249.239 73.0928 249.141 73.0494L238.3 68.276C236.326 67.2887 234.395 66.2256 232.53 65.1136C231.129 64.2728 229.732 63.3832 228.385 62.472C228.031 62.2333 227.944 61.7559 228.184 61.4034C228.424 61.0508 228.904 60.9586 229.258 61.2027C230.583 62.0977 231.952 62.971 233.332 63.7955C235.164 64.8912 237.056 65.9327 238.965 66.8873L249.768 71.6445C250.161 71.8181 250.335 72.2683 250.161 72.6588C250.035 72.9463 249.752 73.1145 249.452 73.1145Z" fill="#408F95"/>
<path d="M249.452 73.1145C249.234 73.1145 249.015 73.0223 248.863 72.8433C246.894 70.5217 245.362 67.9614 244.309 65.233C243.426 62.9493 242.733 61.1485 243.022 58.8106C243.355 56.1635 244.756 54.3898 246.529 52.1441L246.681 51.9488C248.143 50.0991 249.866 48.4393 251.818 47.0127C252.162 46.7632 252.647 46.8337 252.898 47.1754C253.149 47.5172 253.078 47.9999 252.735 48.2494C250.897 49.5947 249.272 51.1569 247.898 52.8981L247.745 53.0934C246.054 55.2305 244.833 56.7765 244.555 59.0004C244.309 60.9532 244.882 62.434 245.749 64.6797C246.741 67.2508 248.187 69.6646 250.046 71.8506C250.319 72.1761 250.281 72.6589 249.953 72.9355C249.806 73.0548 249.632 73.1145 249.457 73.1145H249.452Z" fill="#408F95"/>
<path d="M183.477 65.0645C181.273 65.0645 179.572 64.2401 178.694 63.703C178.329 63.4806 178.22 63.0087 178.443 62.6453C178.667 62.2819 179.141 62.168 179.507 62.3958C180.341 62.9057 182.07 63.7247 184.278 63.4806C186.492 63.2366 187.856 62.0757 188.761 61.3109C189.05 61.0668 189.225 60.8878 189.328 60.7685C188.963 60.6275 188.112 60.4864 186.22 60.4376C184.055 60.3888 181.819 60.6329 179.583 61.1753C179.168 61.2784 178.749 61.0234 178.65 60.6112C178.547 60.1989 178.803 59.7813 179.218 59.6836C181.584 59.1086 183.957 58.8483 186.258 58.9025C188.57 58.9568 190.67 59.1141 190.981 60.4105C191.128 61.0289 190.779 61.631 189.77 62.488C188.788 63.3233 187.141 64.7174 184.453 65.0157C184.12 65.0537 183.793 65.07 183.482 65.07L183.477 65.0645Z" fill="#408F95"/>
<path d="M174.778 67.3377C174.549 67.3377 174.32 67.2346 174.168 67.0393C173.906 66.703 173.966 66.2203 174.304 65.9599C175.885 64.7394 177.129 63.2477 178.007 61.5228C178.47 60.6115 178.825 59.6351 179.059 58.6316C179.158 58.2194 179.572 57.959 179.986 58.0567C180.401 58.1543 180.663 58.5665 180.564 58.9788C180.303 60.1071 179.905 61.1973 179.387 62.2171C178.41 64.1482 177.02 65.8134 175.253 67.1749C175.111 67.2834 174.948 67.3377 174.778 67.3377Z" fill="#408F95"/>
<path d="M168.791 58.3495C168.791 58.3495 168.774 58.3495 168.763 58.3495C167.831 58.3386 167.078 57.5684 167.095 56.6408C167.106 55.7187 167.864 54.981 168.791 54.981C168.796 54.981 168.807 54.981 168.813 54.981C169.745 54.9918 170.498 55.7621 170.481 56.6896C170.47 57.6118 169.712 58.3495 168.785 58.3495H168.791ZM168.791 56.516C168.709 56.516 168.644 56.5811 168.644 56.6625C168.644 56.7113 168.665 56.7493 168.687 56.7656C168.709 56.7873 168.742 56.809 168.791 56.809C168.867 56.809 168.938 56.7439 168.943 56.6625C168.943 56.5811 168.878 56.516 168.796 56.5106L168.791 56.516Z" fill="#408F95"/>
<path d="M193.833 74.5791C192.48 74.5791 191.122 74.4489 189.792 74.1994C184.9 73.2664 182.152 72.2466 177.593 70.5488C177.194 70.4024 176.993 69.9576 177.14 69.5616C177.293 69.1656 177.734 68.9649 178.132 69.1114C182.768 70.8363 185.32 71.7856 190.081 72.6914C191.313 72.9247 192.578 73.044 193.827 73.044H193.849C194.765 73.044 195.692 72.9789 196.603 72.8488C197.372 72.7403 198.032 72.4745 198.266 72.2955C198.043 72.0026 197.154 71.2703 194.733 70.2342C194.34 70.0661 194.16 69.6159 194.329 69.2253C194.498 68.8348 194.951 68.6558 195.343 68.8239C199.624 70.6519 199.995 71.7964 199.837 72.5884C199.57 73.9228 197.274 74.3133 196.821 74.3784C195.84 74.514 194.842 74.5845 193.855 74.59H193.827L193.833 74.5791Z" fill="#408F95"/>
<path d="M213.972 71.4709C213.623 71.4709 213.274 71.4655 212.925 71.4492C209.549 71.2973 206.168 70.3806 203.153 68.8021C202.776 68.6069 202.629 68.1404 202.831 67.7661C203.027 67.3918 203.496 67.2454 203.872 67.4461C206.692 68.9215 209.849 69.7731 212.996 69.9195C215.303 70.0226 217.599 69.7568 219.829 69.133C219.605 68.3899 219.164 67.2508 218.395 66.4805C218.155 66.2419 217.762 65.8459 217.141 65.5747C216.977 65.5042 216.852 65.4608 216.513 65.3577L216.273 65.2818C215.575 65.0594 215.008 64.8695 214.632 64.7393C214.228 64.6037 214.016 64.1644 214.152 63.763C214.294 63.3616 214.73 63.15 215.134 63.2856C215.505 63.4104 216.055 63.6002 216.742 63.8172L216.982 63.8931C217.348 64.0071 217.528 64.0667 217.773 64.1698C218.657 64.5603 219.202 65.1028 219.491 65.3903C220.871 66.768 221.394 68.8835 221.52 69.4965C221.601 69.8816 221.372 70.2667 220.996 70.386C218.711 71.1075 216.35 71.4763 213.978 71.4763L213.972 71.4709Z" fill="#408F95"/>
<path d="M216.873 52.7516C216.464 52.7516 216.121 52.4315 216.099 52.0193C216.077 51.5962 216.41 51.2382 216.835 51.2165C217.8 51.1731 218.657 51.0917 219.453 50.9778C219.873 50.9127 220.271 51.2056 220.331 51.6233C220.396 52.041 220.102 52.4369 219.682 52.4966C218.837 52.6214 217.926 52.7082 216.906 52.7516C216.895 52.7516 216.884 52.7516 216.868 52.7516H216.873Z" fill="#408F95"/>
<path d="M219.567 52.5021C219.164 52.5021 218.826 52.1875 218.798 51.7807C218.771 51.3576 219.093 50.9887 219.518 50.9616C222.174 50.7935 223.488 49.9147 223.614 49.1174C223.723 48.4285 222.986 47.2894 220.543 46.3293C220.145 46.1719 219.954 45.7272 220.107 45.3312C220.265 44.9352 220.712 44.7399 221.11 44.8972C223.897 45.9929 225.402 47.6636 225.135 49.356C224.857 51.1189 222.79 52.2906 219.611 52.4967C219.594 52.4967 219.578 52.4967 219.562 52.4967L219.567 52.5021Z" fill="#408F95"/>
<path d="M186.945 46.3346C186.591 46.3346 186.274 46.0905 186.192 45.7379C186.1 45.3256 186.362 44.9134 186.776 44.8212C194.962 42.9823 203.223 42.4616 211.338 43.2698C213.618 43.4977 215.913 43.834 218.171 44.2679C218.591 44.3493 218.864 44.7507 218.782 45.1683C218.7 45.586 218.297 45.8572 217.877 45.7759C215.668 45.3473 213.421 45.0165 211.185 44.7941C203.24 44.0021 195.142 44.512 187.12 46.3183C187.06 46.3291 187.005 46.34 186.951 46.34L186.945 46.3346Z" fill="#408F95"/>
<path d="M175.226 51.3247C174.975 51.3247 174.724 51.2 174.577 50.9776C174.342 50.625 174.44 50.1476 174.8 49.9144C176.158 49.0302 177.587 48.2274 179.043 47.5277C180.439 46.8551 181.89 46.2693 183.362 45.7757C183.706 45.6617 184 45.5695 184.207 45.5044C184.611 45.3743 185.047 45.6021 185.173 46.0089C185.298 46.4157 185.075 46.8442 184.666 46.969C184.469 47.0287 184.191 47.1209 183.858 47.2294C182.446 47.7013 181.055 48.2708 179.719 48.9109C178.318 49.5835 176.949 50.3538 175.651 51.2C175.52 51.2868 175.373 51.3247 175.231 51.3247H175.226Z" fill="#408F95"/>
<path d="M190.042 47.3759C189.884 47.3759 189.721 47.3108 189.606 47.1807C189.394 46.942 189.415 46.5786 189.655 46.367C189.764 46.2694 189.922 46.1338 190.124 45.9765C190.871 45.3906 191.7 44.9079 192.589 44.5336C193.276 44.2461 193.996 44.0237 194.738 43.8772C195.049 43.8122 195.354 44.0183 195.42 44.3329C195.48 44.6475 195.278 44.9458 194.961 45.0109C194.302 45.1411 193.658 45.3364 193.042 45.5968C192.246 45.9331 191.504 46.367 190.839 46.8877C190.659 47.0288 190.517 47.1481 190.419 47.2349C190.31 47.3325 190.173 47.3814 190.037 47.3814L190.042 47.3759Z" fill="#408F95"/>
<path d="M195.354 46.6436C195.163 46.6436 194.978 46.5514 194.863 46.3778C194.689 46.1121 194.771 45.754 195.038 45.5805C195.152 45.5045 195.321 45.4015 195.529 45.2767C196.303 44.8102 197.127 44.3817 197.988 44.002C198.648 43.7091 199.33 43.4433 200.006 43.2209C200.311 43.1178 200.639 43.2806 200.742 43.5843C200.846 43.8881 200.682 44.2135 200.377 44.3166C199.733 44.5281 199.09 44.7831 198.463 45.0597C197.65 45.4232 196.865 45.8246 196.134 46.2694C195.938 46.3887 195.78 46.4863 195.67 46.5568C195.572 46.6165 195.463 46.6491 195.36 46.6491L195.354 46.6436Z" fill="#408F95"/>
<path d="M201.816 46.6546C201.636 46.6546 201.462 46.5732 201.347 46.4214C201.157 46.1664 201.211 45.803 201.467 45.6131C201.582 45.5318 201.746 45.4124 201.947 45.2714C202.711 44.7561 203.54 44.3059 204.412 43.9262C205.088 43.6333 205.786 43.3892 206.485 43.1993C206.795 43.1179 207.112 43.2969 207.199 43.6007C207.286 43.9099 207.101 44.2245 206.795 44.3113C206.146 44.4903 205.503 44.7181 204.881 44.9839C204.074 45.3311 203.311 45.7542 202.607 46.2261C202.416 46.3508 202.269 46.4647 202.165 46.5407C202.062 46.6166 201.942 46.6546 201.822 46.6546H201.816Z" fill="#408F95"/>
<path d="M214.31 67.4459C214.31 67.4459 214.256 67.4459 214.228 67.4405L209.871 66.8384C209.555 66.795 209.331 66.5021 209.375 66.1875C209.418 65.8729 209.713 65.6505 210.029 65.6939L214.386 66.296C214.703 66.3394 214.926 66.6323 214.883 66.9469C214.845 67.2344 214.594 67.4459 214.31 67.4459Z" fill="#408F95"/>
<path d="M242.351 66.2851C242.248 66.2851 242.139 66.258 242.041 66.1929C240.748 65.3738 239.597 64.3758 238.632 63.2149C237.356 61.6799 236.151 60.2316 236.304 58.3873C236.462 56.4996 237.951 55.2683 239.521 53.9611C240.819 52.8816 242.286 52.0354 243.884 51.4388C244.184 51.3249 244.516 51.4767 244.631 51.7751C244.745 52.0734 244.593 52.4043 244.293 52.5182C242.815 53.0715 241.463 53.8526 240.263 54.8452C238.763 56.0928 237.58 57.0746 237.46 58.4795C237.345 59.8573 238.305 61.0127 239.521 62.4772C240.41 63.5458 241.463 64.4625 242.657 65.2165C242.93 65.3847 243.006 65.7427 242.837 66.0139C242.728 66.1875 242.537 66.2797 242.346 66.2797L242.351 66.2851Z" fill="#408F95"/>
<path d="M70.406 78.1533C70.1224 78.1533 69.8552 77.9798 69.7516 77.7031C69.5498 77.1824 69.5007 76.6671 69.5934 76.1735C70.057 73.7596 73.7653 72.9189 76.4702 72.3005C79.2732 71.6604 82.2017 71.4109 85.1738 71.5465C85.561 71.5628 85.8609 71.8937 85.8445 72.2788C85.8282 72.6639 85.501 72.9514 85.1083 72.946C82.2617 72.8104 79.4641 73.0545 76.7865 73.662C74.7196 74.1339 71.2622 74.9205 70.9731 76.4338C70.9295 76.6671 70.9622 76.9274 71.0658 77.2041C71.2022 77.5621 71.0222 77.9689 70.6568 78.1045C70.575 78.1371 70.4932 78.1479 70.406 78.1479V78.1533Z" fill="#408F95"/>
<path d="M78.1171 86.496C77.9972 86.496 77.8717 86.4635 77.7627 86.3984C76.5902 85.7095 75.4504 84.9609 74.3707 84.1798C73.9017 83.8381 73.2527 83.3716 72.4402 82.6773C71.6985 82.0481 70.9896 81.3755 70.3242 80.6812C70.2915 80.6486 70.2643 80.6106 70.237 80.5727C70.2097 80.5293 70.1606 80.4588 70.1006 80.3774C69.4026 79.3685 68.7537 78.3216 69.1736 77.5568C69.2935 77.3344 69.5989 76.9655 70.3188 76.9926C70.706 77.0035 71.0114 77.3235 71.0005 77.7086C70.9896 78.0124 70.7878 78.2673 70.5097 78.3541C70.6024 78.5819 70.815 78.9562 71.2513 79.5854C71.3004 79.656 71.344 79.7211 71.3767 79.7699C71.993 80.4154 72.6583 81.0392 73.3454 81.6196C74.1198 82.2759 74.736 82.7261 75.1887 83.0516C76.2303 83.8056 77.3319 84.527 78.4662 85.1942C78.7988 85.3895 78.9079 85.818 78.7116 86.1489C78.5807 86.3713 78.3462 86.4906 78.1062 86.4906L78.1171 86.496Z" fill="#408F95"/>
<path d="M96.9696 90.0112C96.6097 90.0112 96.2552 90.0058 95.9008 89.995C91.1345 89.8431 85.8283 88.7582 85.6048 88.7094C83.1889 88.1995 80.773 87.5432 78.4063 86.7566C78.0409 86.6319 77.8391 86.2413 77.9646 85.8725C78.09 85.509 78.4826 85.3083 78.8534 85.4331C81.1657 86.2034 83.5379 86.8434 85.8938 87.3425C85.9429 87.3533 91.309 88.449 95.9498 88.6009C97.3841 88.6497 98.851 88.6009 100.296 88.449C100.945 88.3839 101.3 88.3297 102.794 88.0964L104.593 87.8198C105.095 87.7439 105.548 87.6679 105.962 87.6028C107.271 87.3913 108.22 87.234 109.311 87.2177C110.794 87.1906 112.321 87.3859 113.837 87.7873C114.213 87.8849 114.431 88.27 114.333 88.6443C114.235 89.0186 113.848 89.2355 113.472 89.1379C112.081 88.7691 110.69 88.5901 109.332 88.6118C108.34 88.628 107.435 88.7745 106.186 88.9806C105.766 89.0511 105.308 89.1216 104.801 89.203L103.007 89.4796C101.523 89.7075 101.12 89.7726 100.438 89.8376C99.2873 89.9516 98.1257 90.0112 96.9751 90.0112H96.9696Z" fill="#408F95"/>
<path d="M116.329 84.4404C116.046 84.4404 115.757 84.4296 115.473 84.4133C115.424 84.4133 115.375 84.4025 115.331 84.3862C114.955 84.2777 114.579 84.1475 114.213 84.0011C113.346 83.6539 112.73 83.2742 112.463 83.1115L112.392 83.0681C109.605 81.4137 106.72 79.8677 103.814 78.4628C101.136 77.1719 99.0256 76.1521 96.1516 75.1757C93.1195 74.1451 89.9566 73.402 86.7445 72.9626C86.3628 72.9084 86.0901 72.5612 86.1446 72.1761C86.1992 71.7964 86.5482 71.5197 86.9354 71.5794C90.2401 72.0242 93.4904 72.789 96.6097 73.8522C99.56 74.8557 101.709 75.8917 104.424 77.2044C107.369 78.6256 110.292 80.1932 113.112 81.8639L113.204 81.9181C113.439 82.0646 113.99 82.4009 114.742 82.7047C115.037 82.824 115.342 82.9271 115.647 83.0193C116.176 83.0518 116.711 83.0464 117.234 83.003C117.878 82.9488 118.347 82.8565 118.521 82.8186C120.321 82.4551 124.378 81.9778 127.83 81.8259C129.783 81.7446 131.255 81.7717 133 82.1677C133.529 82.287 134.053 82.4389 134.565 82.607C134.931 82.7318 135.127 83.1278 135.007 83.4912C134.882 83.8546 134.484 84.0499 134.118 83.9306C133.655 83.7733 133.175 83.6377 132.689 83.5292C131.097 83.1657 129.728 83.1386 127.89 83.22C124.155 83.3827 120.267 83.8872 118.816 84.1801C118.603 84.2235 118.074 84.332 117.349 84.3916C117.011 84.4187 116.667 84.435 116.329 84.435V84.4404Z" fill="#408F95"/>
<path d="M128.185 100.653C128.038 100.653 127.885 100.605 127.759 100.507L121.046 95.3702C119.836 94.345 118.674 93.2818 117.567 92.1915C116.738 91.3725 115.915 90.5208 115.129 89.6584C114.868 89.3709 114.889 88.9315 115.178 88.6711C115.468 88.4108 115.909 88.4325 116.171 88.72C116.94 89.5662 117.742 90.3961 118.554 91.1989C119.634 92.262 120.774 93.3035 121.93 94.2853L128.616 99.4004C128.921 99.6337 128.981 100.073 128.747 100.382C128.61 100.561 128.397 100.653 128.19 100.653H128.185Z" fill="#408F95"/>
<path d="M128.19 100.654C127.934 100.654 127.683 100.513 127.563 100.269C126.581 98.3104 125.949 96.26 125.676 94.1716C125.447 92.4196 125.267 91.0364 125.883 89.4254C126.576 87.6082 127.863 86.5993 129.493 85.3246L129.635 85.2161C130.971 84.1692 132.466 83.3013 134.074 82.6287C134.434 82.4768 134.843 82.645 134.99 83.003C135.138 83.361 134.974 83.7678 134.614 83.9143C133.125 84.5326 131.74 85.3408 130.502 86.3064L130.361 86.4149C128.845 87.6028 127.748 88.4598 127.192 89.9135C126.701 91.1937 126.849 92.3057 127.067 93.9818C127.318 95.9128 127.907 97.8168 128.817 99.6339C128.992 99.9811 128.85 100.399 128.501 100.572C128.403 100.621 128.294 100.648 128.19 100.648V100.654Z" fill="#408F95"/>
<path d="M85.0974 84.1528C84.841 84.1528 84.5738 84.1365 84.3012 84.1039C82.3488 83.8544 81.0455 82.7967 80.4402 82.1892C80.1675 81.9125 80.1675 81.4731 80.4456 81.2019C80.7237 80.9307 81.1655 80.9307 81.4381 81.2074C81.918 81.6901 82.9433 82.5255 84.4811 82.7207C86.0135 82.9214 87.1315 82.3573 87.8731 81.983C87.9822 81.9288 88.0694 81.88 88.1403 81.842C87.7968 81.6684 87.1751 81.4677 86.2862 81.2291C84.8029 80.8331 83.2268 80.6324 81.5963 80.6324C81.2091 80.6324 80.8928 80.3178 80.8928 79.9326C80.8928 79.5475 81.2091 79.2329 81.5963 79.2329C83.3523 79.2329 85.0483 79.4499 86.6516 79.8784C88.3694 80.3395 89.7873 80.8005 89.7818 81.8637C89.7818 82.5038 89.1656 82.8997 88.5057 83.2306C87.8295 83.5669 86.657 84.1582 85.0974 84.1582V84.1528Z" fill="#408F95"/>
<path d="M77.3428 84.1095C77.0756 84.1095 76.8192 83.9576 76.6993 83.6973C76.5411 83.3447 76.6993 82.9324 77.0537 82.7751C78.3353 82.2001 79.4369 81.3865 80.3203 80.3559C80.7893 79.808 81.1929 79.2005 81.5201 78.555C81.6946 78.2078 82.1145 78.0722 82.4635 78.2458C82.8125 78.4194 82.9489 78.8371 82.7743 79.1842C82.3981 79.9328 81.9291 80.6325 81.3892 81.2672C80.3694 82.4605 79.1042 83.3989 77.6263 84.0553C77.5336 84.0987 77.4355 84.1149 77.3373 84.1149L77.3428 84.1095Z" fill="#408F95"/>
<path d="M74.8669 76.8842C74.7524 76.8842 74.6378 76.8679 74.5233 76.8408C73.798 76.6564 73.3563 75.9132 73.5472 75.1918C73.6399 74.8392 73.858 74.5463 74.1743 74.3673C74.4906 74.1829 74.856 74.1341 75.205 74.2209C75.5595 74.3131 75.8539 74.53 76.0394 74.8447C76.2248 75.1538 76.2739 75.5227 76.1866 75.8698C76.0939 76.217 75.8758 76.5153 75.5595 76.6943C75.3468 76.8191 75.1123 76.8842 74.8723 76.8842H74.8669ZM74.8669 75.4901C74.8669 75.4901 74.8287 75.5064 74.8232 75.5227C74.8232 75.5444 74.8342 75.5715 74.856 75.5769C74.8832 75.5824 74.9051 75.5661 74.9105 75.5444C74.916 75.5227 74.9051 75.4956 74.8778 75.4901C74.8778 75.4901 74.8778 75.4901 74.8723 75.4901H74.8669Z" fill="#408F95"/>
<path d="M91.8323 92.7017C91.6087 92.7017 91.4233 92.6854 91.3033 92.6746C90.5944 92.6041 89.88 92.4847 89.1874 92.3166C88.2385 92.0887 87.3005 91.7633 86.4062 91.3619C83.1614 89.8919 81.4218 88.7148 78.5369 86.7675C78.2152 86.5505 78.1334 86.1166 78.3515 85.7965C78.5697 85.4765 79.0059 85.3951 79.3277 85.6121C82.2453 87.5811 83.854 88.666 86.9897 90.0926C87.8023 90.4614 88.6584 90.7544 89.5201 90.9605C90.1472 91.1124 90.7962 91.2208 91.4397 91.2859C91.8378 91.3239 92.225 91.2914 92.454 91.2426C92.2522 90.9334 91.6905 90.3313 90.4799 89.4254C90.169 89.1922 90.109 88.7582 90.3381 88.449C90.5726 88.1398 91.0089 88.0802 91.3197 88.308C94.0518 90.3475 94.1282 91.248 93.8446 91.8555C93.512 92.5715 92.5085 92.7017 91.8269 92.7017H91.8323Z" fill="#408F95"/>
<path d="M107.609 94.0086C106.028 94.0086 104.468 93.7862 102.947 93.3468C100.607 92.6688 98.3984 91.4537 96.5551 89.8373C96.2661 89.5824 96.2388 89.143 96.4952 88.8501C96.7515 88.5626 97.1932 88.5355 97.4877 88.7904C99.1782 90.2712 101.201 91.3832 103.345 92.007C104.866 92.4464 106.437 92.6471 108.018 92.6091C107.98 92.0775 107.855 91.3236 107.506 90.7486C107.38 90.5425 107.189 90.2278 106.824 89.9512C106.715 89.8698 106.633 89.821 106.442 89.7071L106.284 89.6149C105.837 89.3437 105.471 89.1159 105.231 88.964C104.904 88.7579 104.812 88.3239 105.019 87.9985C105.226 87.673 105.662 87.5808 105.99 87.7869C106.224 87.9388 106.573 88.1558 107.015 88.4215L107.167 88.5138C107.424 88.6711 107.533 88.7362 107.68 88.8446C108.253 89.2786 108.558 89.7831 108.705 90.0271C109.452 91.253 109.452 92.8424 109.436 93.298C109.425 93.656 109.142 93.9435 108.782 93.9706C108.389 93.9977 108.002 94.0086 107.609 94.0086Z" fill="#408F95"/>
<path d="M110.947 81.3321C110.947 81.3321 110.903 81.3321 110.881 81.3321C110.265 81.2779 109.616 81.1802 108.896 81.0446C108.514 80.9687 108.269 80.6053 108.34 80.2255C108.416 79.8458 108.787 79.6018 109.163 79.6723C109.84 79.8025 110.439 79.8892 111.007 79.9435C111.394 79.976 111.677 80.3178 111.645 80.7029C111.612 81.0663 111.306 81.3375 110.947 81.3375V81.3321Z" fill="#408F95"/>
<path d="M112.304 81.4625C111.846 81.4625 111.35 81.4191 110.821 81.3269C110.439 81.2618 110.183 80.8984 110.254 80.5187C110.319 80.139 110.685 79.884 111.067 79.9546C112.85 80.2692 113.864 79.9112 114.06 79.4555C114.24 79.0324 113.815 78.1374 112.457 77.1827C112.141 76.9603 112.065 76.5264 112.288 76.2118C112.512 75.8972 112.948 75.8212 113.264 76.0436C115.075 77.3183 115.855 78.7938 115.353 79.9925C114.949 80.9526 113.848 81.4679 112.304 81.4679V81.4625Z" fill="#408F95"/>
<path d="M111.007 76.4123C110.908 76.4123 110.81 76.3907 110.712 76.3473C109.256 75.6801 107.756 75.078 106.246 74.5518C100.88 72.675 95.1863 71.6715 89.3294 71.5739C88.9422 71.5684 88.6313 71.2484 88.6368 70.8633C88.6422 70.4782 88.9749 70.169 89.3512 70.1744C95.3608 70.272 101.201 71.3026 106.709 73.2283C108.258 73.7707 109.801 74.3891 111.296 75.0725C111.65 75.2353 111.803 75.6475 111.639 76.0001C111.519 76.255 111.268 76.4069 111.001 76.4069L111.007 76.4123Z" fill="#408F95"/>
<path d="M80.3693 73.0712C80.0803 73.0712 79.8076 72.8922 79.7095 72.6047C79.5786 72.2413 79.7695 71.8399 80.1348 71.7151C81.231 71.3246 82.3653 71.0099 83.505 70.7659C84.5903 70.5326 85.7082 70.3699 86.8207 70.2722C87.0825 70.2505 87.3006 70.2343 87.4533 70.2234C87.8459 70.1963 88.1731 70.4892 88.2004 70.8743C88.2222 71.2595 87.9332 71.5903 87.546 71.6175C87.3988 71.6283 87.1915 71.6392 86.9461 71.6609C85.8936 71.7531 84.8357 71.9104 83.805 72.1328C82.7252 72.3606 81.6509 72.6644 80.6093 73.0332C80.5329 73.0603 80.4511 73.0712 80.3748 73.0712H80.3693Z" fill="#408F95"/>
<path d="M91.516 72.2737C91.3797 72.2737 91.2433 72.1978 91.1725 72.0676C91.0743 71.8778 91.1452 71.6499 91.336 71.5469C91.4288 71.4981 91.5596 71.433 91.7287 71.357C92.3449 71.0804 92.9993 70.8797 93.681 70.7712C94.2045 70.6844 94.739 70.6573 95.2789 70.679C95.4915 70.6898 95.6551 70.8688 95.6497 71.0804C95.6388 71.2919 95.4643 71.4547 95.2461 71.4492C94.7662 71.4275 94.2809 71.4547 93.8064 71.5306C93.1957 71.6282 92.6067 71.8072 92.0504 72.0568C91.9032 72.1219 91.7832 72.1815 91.7014 72.2249C91.6414 72.2575 91.5815 72.2683 91.5215 72.2683L91.516 72.2737Z" fill="#408F95"/>
<path d="M95.099 73.0167C94.9408 73.0167 94.7881 72.9191 94.7336 72.7564C94.6627 72.5557 94.7718 72.3387 94.9735 72.2682C95.0662 72.2356 95.2026 72.1922 95.3662 72.138C95.9824 71.9481 96.6259 71.7854 97.2858 71.6661C97.7929 71.5739 98.311 71.5033 98.8182 71.46C99.0254 71.4383 99.2163 71.601 99.2381 71.8125C99.2544 72.0241 99.0963 72.2085 98.8836 72.2302C98.4037 72.2736 97.9129 72.3387 97.4276 72.4255C96.8004 72.5394 96.1842 72.6913 95.6007 72.8703C95.4425 72.9191 95.3171 72.9625 95.2298 72.9896C95.1862 73.0059 95.148 73.0113 95.1044 73.0113L95.099 73.0167Z" fill="#408F95"/>
<path d="M99.5817 74.1125C99.429 74.1125 99.2872 74.0258 99.2273 73.8793C99.1455 73.684 99.2382 73.4562 99.4345 73.3748C99.5272 73.3369 99.6635 73.2826 99.8271 73.223C100.443 72.9951 101.092 72.8216 101.758 72.7022C102.276 72.6154 102.799 72.5612 103.317 72.5449C103.53 72.5449 103.71 72.7076 103.715 72.9192C103.721 73.1307 103.552 73.3097 103.339 73.3152C102.859 73.3314 102.368 73.3803 101.889 73.4616C101.267 73.5701 100.667 73.7328 100.094 73.9444C99.9417 73.9986 99.8162 74.0529 99.7344 74.0854C99.6853 74.1071 99.6363 74.118 99.5872 74.118L99.5817 74.1125Z" fill="#408F95"/>
<path d="M104.73 90.6405C104.681 90.6405 104.632 90.6297 104.588 90.6134L101.665 89.4635C101.469 89.3875 101.37 89.1597 101.447 88.9644C101.523 88.7692 101.752 88.6715 101.949 88.7475L104.872 89.8974C105.068 89.9733 105.166 90.2012 105.09 90.3964C105.03 90.5483 104.882 90.6405 104.73 90.6405Z" fill="#408F95"/>
<path d="M124.384 94.7355C124.231 94.7355 124.078 94.6759 123.964 94.5565C123.189 93.7592 122.557 92.8587 122.077 91.8769C121.433 90.5697 120.828 89.3329 121.275 88.0094C121.728 86.6587 122.998 86.0404 124.345 85.384C125.447 84.847 126.625 84.4998 127.857 84.348C128.179 84.31 128.463 84.5324 128.501 84.8524C128.539 85.167 128.316 85.4545 127.994 85.4925C126.898 85.6227 125.84 85.9373 124.858 86.4146C123.642 87.0113 122.677 87.4778 122.377 88.3728C122.082 89.2461 122.54 90.1845 123.124 91.367C123.549 92.2403 124.116 93.0431 124.804 93.7537C125.027 93.9815 125.016 94.3504 124.787 94.5674C124.673 94.6759 124.531 94.7301 124.384 94.7301V94.7355Z" fill="#408F95"/>
<path d="M21.2491 12.7741C21.1401 12.7741 21.031 12.747 20.9274 12.6982C18.397 11.3963 15.7466 10.4579 13.0581 9.90464C10.9804 9.47612 7.51203 8.76011 6.61222 10.0186C6.47588 10.2138 6.39408 10.4633 6.37227 10.7563C6.345 11.1414 6.00689 11.4289 5.62515 11.4072C5.23796 11.3801 4.94348 11.0492 4.97075 10.664C5.00892 10.1053 5.17797 9.61716 5.467 9.21033C6.89579 7.20876 10.6205 7.97901 13.3417 8.53772C16.1557 9.11812 18.9205 10.0999 21.5709 11.4614C21.9144 11.6404 22.0508 12.0581 21.8708 12.3998C21.7454 12.6385 21.5 12.7795 21.2491 12.7795V12.7741Z" fill="#408F95"/>
<path d="M9.1916 22.1854C8.96801 22.1854 8.74987 22.0823 8.61354 21.8871C7.8337 20.7751 7.11385 19.6251 6.45945 18.4643C6.17587 17.9599 5.78323 17.2655 5.33605 16.3C4.92704 15.4213 4.56167 14.5154 4.24537 13.6041C4.22901 13.5607 4.2181 13.5173 4.21265 13.4685C4.2072 13.4143 4.19084 13.3329 4.17447 13.2299C3.96179 12.0257 3.8091 10.8052 4.51259 10.279C4.71436 10.1271 5.15063 9.92102 5.79413 10.2411C6.14315 10.4092 6.28494 10.8323 6.11588 11.174C5.97955 11.4453 5.68506 11.5971 5.40149 11.5592C5.39603 11.8033 5.42876 12.2372 5.55964 12.9858C5.576 13.0726 5.5869 13.1485 5.59781 13.2082C5.89229 14.0544 6.2304 14.8951 6.61214 15.7088C7.03751 16.6255 7.41379 17.2872 7.68646 17.7754C8.31905 18.8928 9.01709 20.0048 9.76966 21.0843C9.99324 21.3989 9.91144 21.8382 9.59515 22.0552C9.47517 22.142 9.33338 22.18 9.19705 22.18L9.1916 22.1854Z" fill="#408F95"/>
<path d="M40.3795 39.3264C40.2213 39.3264 40.0632 39.2721 39.9323 39.1636C38.8253 38.2524 37.631 37.5147 36.393 36.9722C35.4878 36.5762 34.6043 36.3376 33.3773 36.0067C32.9683 35.8928 32.5211 35.7734 32.0249 35.6324L30.2689 35.1388C28.8292 34.732 28.442 34.6235 27.7876 34.4011C26.3479 33.9129 24.9409 33.3271 23.5994 32.6653C19.3294 30.5553 14.9612 27.3658 14.7758 27.2301C12.7962 25.7656 10.8712 24.1654 9.04973 22.473C8.76616 22.2072 8.7498 21.7679 9.01701 21.4858C9.28423 21.2037 9.72595 21.1875 10.0095 21.4533C11.7928 23.1077 13.6742 24.6753 15.6102 26.1073C15.6538 26.1399 20.071 29.3565 24.2265 31.4123C25.5135 32.0469 26.8605 32.6056 28.2402 33.0776C28.8565 33.2837 29.2 33.3813 30.6452 33.7881L32.4012 34.2818C32.892 34.4228 33.3337 34.5421 33.7427 34.6506C35.0242 34.9978 35.9459 35.2527 36.9493 35.6867C38.3126 36.2779 39.616 37.0861 40.8212 38.0788C41.1211 38.3229 41.1593 38.7622 40.9139 39.0606C40.7776 39.2287 40.5758 39.3155 40.374 39.3155L40.3795 39.3264Z" fill="#408F95"/>
<path d="M61.3643 43.183C61.1898 43.183 61.0207 43.1179 60.8844 42.9931C60.5245 42.6568 60.1482 42.3368 59.7555 42.0384C58.4631 41.0512 57.2252 40.46 55.5237 39.7711C52.0553 38.3716 48.3143 37.2216 46.8746 36.8853C46.6619 36.8365 46.133 36.7118 45.4513 36.4677C44.8623 36.2561 44.2897 36.0012 43.7389 35.7028C43.6953 35.6811 43.6571 35.654 43.6189 35.6215C43.3245 35.3665 43.0354 35.0953 42.7628 34.8078C42.1247 34.1352 41.7157 33.5331 41.5466 33.2727L41.4976 33.2022C39.6598 30.5497 37.6802 27.9406 35.6243 25.4617C33.7265 23.1781 32.2377 21.3772 30.04 19.2997C27.7168 17.1083 25.1537 15.1176 22.4161 13.3926C22.0889 13.1865 21.9908 12.7526 22.198 12.4271C22.4052 12.1016 22.8415 12.004 23.1687 12.2101C25.9827 13.9839 28.6221 16.0288 31.0107 18.2854C33.2684 20.4225 34.7899 22.2505 36.7095 24.5667C38.7981 27.0836 40.7995 29.7198 42.6591 32.4103L42.7191 32.4971C42.8718 32.7249 43.2317 33.2565 43.788 33.8477C44.0061 34.081 44.2406 34.3034 44.4806 34.5095C44.9441 34.759 45.4349 34.976 45.9312 35.155C46.5365 35.3719 47 35.4804 47.18 35.5238C48.9687 35.9415 52.857 37.1837 56.0581 38.4801C57.8687 39.2124 59.1938 39.847 60.6172 40.9319C61.048 41.2628 61.4624 41.6153 61.8551 41.9788C62.1387 42.2446 62.1496 42.6839 61.8823 42.966C61.746 43.1124 61.5606 43.183 61.3697 43.183H61.3643Z" fill="#408F95"/>
<path d="M48.7887 55.7996C48.5378 55.7996 48.2924 55.664 48.167 55.4253L44.2133 47.9777C43.5425 46.5403 42.9317 45.0974 42.3809 43.6491C41.9665 42.5643 41.5793 41.4523 41.2303 40.3349C41.1158 39.966 41.3175 39.5755 41.6884 39.4615C42.0592 39.3476 42.4518 39.5483 42.5664 39.9172C42.9099 41.0075 43.2917 42.0978 43.6952 43.1555C44.2351 44.5713 44.8295 45.987 45.473 47.3594L49.4104 54.7744C49.5903 55.1161 49.4594 55.5392 49.1159 55.7182C49.0123 55.7725 48.8977 55.7996 48.7887 55.7996Z" fill="#408F95"/>
<path d="M48.7832 55.7998C48.4069 55.7998 48.0961 55.5015 48.0797 55.1218C48.0088 52.9358 48.2924 50.8094 48.9196 48.797C49.4485 47.1101 49.863 45.7757 51.0955 44.5715C52.4861 43.2046 54.0785 42.8249 56.0962 42.3421L56.2707 42.2987C57.9231 41.9027 59.6464 41.7291 61.386 41.7888C61.7732 41.7997 62.0786 42.1251 62.0622 42.5102C62.0513 42.8954 61.735 43.2046 61.3369 43.1829C59.7227 43.1286 58.1303 43.2859 56.5979 43.6548L56.4234 43.6982C54.5475 44.1484 53.195 44.4739 52.0771 45.5696C51.0955 46.5297 50.7628 47.5983 50.2611 49.2147C49.6776 51.0752 49.4158 53.0497 49.4867 55.0784C49.4976 55.4635 49.1977 55.789 48.805 55.7998C48.7996 55.7998 48.7887 55.7998 48.7832 55.7998Z" fill="#408F95"/>
<path d="M19.1003 23.4602C18.1787 23.4602 16.8645 23.3355 15.5229 22.5001C13.8542 21.4641 13.1125 19.9615 12.818 19.1587C12.6872 18.7953 12.8726 18.3939 13.2379 18.2637C13.6033 18.1335 14.0069 18.318 14.1378 18.6814C14.3723 19.316 14.9558 20.504 16.27 21.3176C17.5788 22.1313 18.8331 22.0824 19.662 22.0499C19.782 22.0499 19.8802 22.0391 19.962 22.0282C19.7166 21.7299 19.2421 21.2851 18.5332 20.6992C17.3498 19.7229 16.0028 18.8875 14.5195 18.2149C14.165 18.0522 14.0123 17.6399 14.1759 17.2874C14.3341 16.9348 14.754 16.7829 15.1085 16.9456C16.7009 17.6725 18.1569 18.5729 19.433 19.6252C20.8018 20.7535 21.8979 21.7678 21.4508 22.7279C21.1781 23.3138 20.4255 23.4168 19.7166 23.444C19.5421 23.4494 19.3348 23.4602 19.1058 23.4602H19.1003Z" fill="#408F95"/>
<path d="M9.57883 19.6901C9.54611 19.6901 9.51884 19.6901 9.48612 19.6901C9.09893 19.6901 8.78809 19.3701 8.78809 18.9849C8.78809 18.5998 9.10438 18.2906 9.49157 18.2906C9.51884 18.2906 9.55156 18.2906 9.57883 18.2906C10.9531 18.2906 12.2673 18.0086 13.4835 17.4444C14.1379 17.1407 14.7596 16.7555 15.3322 16.3053C15.6375 16.0612 16.0793 16.1101 16.3192 16.4138C16.5592 16.7176 16.5155 17.1569 16.2102 17.3956C15.5503 17.9218 14.8359 18.3611 14.0779 18.7137C12.6764 19.3592 11.1658 19.6901 9.58428 19.6901H9.57883Z" fill="#408F95"/>
<path d="M10.5333 12.1558C10.2333 12.1558 9.92794 12.0581 9.67708 11.852C9.39351 11.6242 9.219 11.2987 9.18082 10.9407C9.14265 10.5827 9.25172 10.2301 9.48076 9.94808C9.7098 9.66602 10.037 9.49244 10.3969 9.45447C10.7569 9.4165 11.1113 9.51956 11.3949 9.75281C11.6785 9.98063 11.853 10.3061 11.8912 10.6641C11.9293 11.0221 11.8203 11.3747 11.5912 11.6567C11.324 11.9876 10.9314 12.1558 10.5333 12.1558ZM10.5333 10.7617C10.5333 10.7617 10.506 10.7617 10.5005 10.778C10.4896 10.7943 10.4896 10.8268 10.506 10.8377C10.5224 10.8539 10.5551 10.8485 10.566 10.8322C10.5769 10.816 10.5769 10.7834 10.5605 10.7726C10.5551 10.7672 10.5442 10.7617 10.5333 10.7617Z" fill="#408F95"/>
<path d="M20.1148 33.7932C19.3895 33.7932 18.5933 33.3755 18.2988 33.2019C17.6826 32.8439 17.0882 32.4425 16.5265 32.0032C15.7576 31.4011 15.0377 30.7176 14.3942 29.9799C12.0602 27.2949 10.9695 25.5103 9.1644 22.5432C8.96263 22.2123 9.07169 21.7837 9.3989 21.583C9.73155 21.3823 10.1624 21.4908 10.3641 21.8163C12.191 24.8159 13.1999 26.4704 15.4576 29.0632C16.0411 29.7358 16.6955 30.3542 17.3936 30.902C17.9007 31.3034 18.4461 31.6669 19.0078 31.9923C19.3568 32.193 19.7167 32.3232 19.9512 32.372C19.8967 32.0086 19.6404 31.2275 18.9151 29.9039C18.7297 29.5676 18.8551 29.1391 19.1986 28.9547C19.5368 28.7703 19.9676 28.895 20.153 29.2368C21.7836 32.2256 21.4782 33.0717 20.9655 33.5111C20.7256 33.7118 20.4311 33.7878 20.1203 33.7878L20.1148 33.7932Z" fill="#408F95"/>
<path d="M33.8955 41.6585C33.8137 41.6585 33.7319 41.6422 33.6501 41.6151C31.796 40.9208 30.1 39.9173 28.6112 38.6317C26.768 37.0478 25.2683 35.0245 24.2703 32.7951C24.1122 32.4426 24.2703 32.0303 24.6248 31.873C24.9793 31.7157 25.3937 31.873 25.5519 32.2256C26.468 34.276 27.8423 36.1257 29.5274 37.574C30.7217 38.6046 32.0632 39.4345 33.5247 40.0583C33.7101 39.5538 33.9119 38.827 33.8356 38.1544C33.8083 37.9157 33.7647 37.5523 33.552 37.1454C33.4865 37.0261 33.432 36.9502 33.3066 36.7657L33.203 36.6139C32.9085 36.1799 32.674 35.8219 32.5213 35.5832C32.3141 35.2578 32.4068 34.8238 32.734 34.6177C33.0612 34.4116 33.492 34.5038 33.7047 34.8293C33.8519 35.0625 34.081 35.4097 34.37 35.8328L34.4736 35.9846C34.6427 36.2342 34.7136 36.3372 34.7954 36.5C35.1335 37.1346 35.1989 37.715 35.2316 37.9971C35.3952 39.4128 34.7354 40.8611 34.5281 41.2733C34.4082 41.5174 34.1573 41.6585 33.901 41.6585H33.8955Z" fill="#408F95"/>
<path d="M41.1975 31.0921C41.0775 31.0921 40.9575 31.065 40.8485 30.9999C40.314 30.6961 39.7632 30.3381 39.1634 29.915C38.8471 29.6926 38.7762 29.2533 38.9998 28.9387C39.2234 28.6241 39.6651 28.5535 39.9814 28.7759C40.5376 29.1719 41.0502 29.5028 41.5465 29.7849C41.8846 29.9747 41.9991 30.4032 41.8083 30.7395C41.6774 30.9619 41.4429 31.0921 41.1975 31.0921Z" fill="#408F95"/>
<path d="M43.9623 32.1714C43.0571 32.1714 41.9609 31.7646 40.7994 30.9672C40.4776 30.7502 40.4013 30.3109 40.6194 29.9963C40.8375 29.6762 41.2793 29.6003 41.5956 29.8173C43.0843 30.837 44.1587 30.9401 44.524 30.5984C44.8621 30.2838 44.8512 29.2965 44.0169 27.8699C43.8205 27.5391 43.9351 27.1105 44.2732 26.9153C44.6058 26.72 45.0367 26.8339 45.233 27.1702C46.3455 29.0796 46.4382 30.7448 45.4784 31.6236C45.0803 31.987 44.5622 32.1714 43.9623 32.1714Z" fill="#408F95"/>
<path d="M43.319 26.6442C43.1227 26.6442 42.9263 26.5629 42.7846 26.4001C41.7375 25.1905 40.6305 24.0189 39.4798 22.9177C35.3898 18.9851 30.6344 15.7197 25.3501 13.2028C25.001 13.0346 24.8538 12.617 25.0174 12.2698C25.1865 11.9226 25.6009 11.7762 25.9554 11.9389C31.3761 14.5155 36.2568 17.8731 40.456 21.9088C41.6339 23.0425 42.7791 24.2467 43.848 25.4889C44.0988 25.7818 44.0661 26.2211 43.7716 26.4761C43.6407 26.59 43.4771 26.6442 43.3135 26.6442H43.319Z" fill="#408F95"/>
<path d="M23.9539 12.541C23.8721 12.541 23.7849 12.5248 23.7031 12.4922C23.5667 12.438 23.3704 12.3675 23.1359 12.2861C22.1379 11.9335 21.1127 11.6406 20.082 11.4128C19.0022 11.1741 17.9006 11.006 16.7991 10.9083C16.4119 10.8758 16.1283 10.534 16.161 10.1489C16.1937 9.76379 16.5318 9.48173 16.9245 9.51427C18.0861 9.61734 19.2476 9.79634 20.3874 10.0459C21.4726 10.2845 22.5524 10.5937 23.6049 10.968C23.8503 11.0548 24.0575 11.1307 24.2048 11.1904C24.5647 11.326 24.7501 11.7328 24.6083 12.0908C24.4993 12.3675 24.2375 12.541 23.9539 12.541Z" fill="#408F95"/>
<path d="M30.9451 15.5732C30.8852 15.5732 30.8252 15.5569 30.7706 15.5298C30.3398 15.3128 29.8926 15.1392 29.4291 15.009C28.8347 14.8463 28.2184 14.7649 27.6131 14.7595C27.4495 14.7595 27.3132 14.7595 27.2259 14.7704C27.0023 14.7812 26.8278 14.6185 26.8169 14.4069C26.806 14.1954 26.9696 14.011 27.1823 14.0001C27.2859 13.9947 27.4386 13.9893 27.6186 13.9893C28.2948 13.9893 28.9765 14.0815 29.6363 14.2659C30.1489 14.4069 30.6507 14.6022 31.1251 14.8409C31.316 14.9385 31.3923 15.1718 31.2942 15.3562C31.2233 15.4918 31.0924 15.5677 30.9506 15.5677L30.9451 15.5732Z" fill="#408F95"/>
<path d="M33.8792 17.7807C33.8355 17.7807 33.7919 17.7752 33.7483 17.759C33.2902 17.5962 32.8212 17.4552 32.3413 17.3305C31.7251 17.1731 31.1034 17.0592 30.4926 16.9779C30.329 16.9562 30.1981 16.9453 30.1054 16.9345C29.8927 16.9128 29.7346 16.7284 29.7564 16.5168C29.7782 16.3053 29.9691 16.1534 30.1763 16.1697C30.2745 16.1805 30.4163 16.1913 30.5853 16.213C31.2234 16.2944 31.8778 16.4192 32.5267 16.5819C33.0284 16.7067 33.5247 16.8585 34.0046 17.0321C34.2064 17.1026 34.31 17.325 34.2391 17.5257C34.1846 17.683 34.0319 17.7807 33.8737 17.7807H33.8792Z" fill="#408F95"/>
<path d="M37.5055 20.6123C37.4565 20.6123 37.4074 20.6015 37.3528 20.5798C36.9057 20.3899 36.4421 20.238 35.9731 20.1133C35.3624 19.956 34.7461 19.8529 34.1408 19.8095C33.9772 19.7987 33.8463 19.7933 33.7536 19.7878C33.5409 19.7824 33.3719 19.6034 33.3773 19.3919C33.3828 19.1803 33.5573 19.0176 33.7754 19.0176C33.8736 19.0176 34.0208 19.0284 34.1953 19.0393C34.8497 19.0881 35.5151 19.1966 36.1695 19.3702C36.6712 19.5003 37.1729 19.6685 37.6528 19.8746C37.8491 19.956 37.9418 20.1838 37.86 20.3791C37.8 20.5255 37.6528 20.6123 37.5055 20.6123Z" fill="#408F95"/>
<path d="M31.5179 36.9447C31.4143 36.9447 31.3161 36.9068 31.2398 36.8254L29.0639 34.5689C28.9167 34.417 28.9221 34.1729 29.0748 34.0265C29.2275 33.88 29.4729 33.8854 29.6201 34.0373L31.796 36.2938C31.9433 36.4457 31.9378 36.6898 31.7851 36.8363C31.7088 36.9068 31.6161 36.9447 31.5179 36.9447Z" fill="#408F95"/>
<path d="M47.7581 48.835C47.5181 48.835 47.2945 48.6886 47.2127 48.4499C46.8419 47.403 46.6456 46.3236 46.6183 45.2333C46.5856 43.7741 46.5474 42.4018 47.5072 41.382C48.4834 40.346 49.8958 40.308 51.3955 40.2646C52.6225 40.2321 53.8386 40.4056 55.022 40.7799C55.3274 40.8775 55.4964 41.203 55.3983 41.5068C55.3001 41.8105 54.9729 41.9787 54.6675 41.881C53.615 41.5447 52.5189 41.3929 51.4282 41.42C50.0703 41.4579 49.0015 41.4851 48.3525 42.174C47.7199 42.8466 47.7472 43.888 47.7744 45.2061C47.7963 46.1771 47.9762 47.1426 48.3034 48.0702C48.407 48.3685 48.2489 48.6994 47.9489 48.8025C47.8835 48.8242 47.8181 48.835 47.7581 48.835Z" fill="#408F95"/>
</g>
<defs>
<filter id="filter0_d_2248_12858" x="0" y="0" width="309" height="146" filterUnits="userSpaceOnUse" color-interpolation-filters="sRGB">
<feFlood flood-opacity="0" result="BackgroundImageFix"/>
<feColorMatrix in="SourceAlpha" type="matrix" values="0 0 0 0 0 0 0 0 0 0 0 0 0 0 0 0 0 0 127 0" result="hardAlpha"/>
<feOffset dy="4"/>
<feGaussianBlur stdDeviation="2"/>
<feComposite in2="hardAlpha" operator="out"/>
<feColorMatrix type="matrix" values="0 0 0 0 0 0 0 0 0 0 0 0 0 0 0 0 0 0 0.25 0"/>
<feBlend mode="normal" in2="BackgroundImageFix" result="effect1_dropShadow_2248_12858"/>
<feBlend mode="normal" in="SourceGraphic" in2="effect1_dropShadow_2248_12858" result="shape"/>
</filter>
<clipPath id="clip0_2248_12858">
<rect width="301" height="138" fill="white" transform="translate(4)"/>
</clipPath>
</defs>
</svg>
