<svg width="301" height="137" viewBox="0 0 301 137" fill="none" xmlns="http://www.w3.org/2000/svg">
<g clip-path="url(#clip0_2638_34217)">
<path d="M237.054 15.2234C237.315 15.2234 237.566 15.078 237.686 14.8303C238.062 14.0603 238.21 13.2902 238.133 12.5471C237.735 8.74526 231.764 6.84974 227.401 5.46579C222.798 4.00645 217.923 3.16639 212.917 2.97253C212.546 2.94561 212.202 3.25255 212.186 3.64027C212.17 4.02261 212.475 4.34571 212.862 4.36186C217.743 4.55034 222.488 5.36348 226.97 6.78512C230.509 7.91058 236.437 9.78995 236.737 12.6925C236.786 13.1825 236.683 13.6995 236.421 14.238C236.252 14.5826 236.399 14.9973 236.748 15.1642C236.846 15.2127 236.95 15.2342 237.054 15.2342V15.2234Z" fill="#408F95"/>
<path d="M158.399 19.4722C158.399 19.4722 158.454 19.4722 158.481 19.4722C159.61 19.343 160.739 19.1114 161.835 18.7776C163.291 18.336 164.376 17.7975 164.834 17.5713L164.987 17.4959C169.955 15.1158 175.081 12.9187 180.218 10.9747C184.946 9.18687 188.687 7.77061 193.716 6.53206C199.022 5.22888 204.519 4.42652 210.048 4.15727C210.436 4.13573 210.736 3.81263 210.714 3.43029C210.692 3.04796 210.37 2.75178 209.978 2.77332C204.355 3.04796 198.771 3.86109 193.372 5.19119C188.257 6.45128 184.488 7.87831 179.711 9.68229C174.536 11.6424 169.372 13.8503 164.371 16.2466L164.202 16.3274C163.733 16.5589 162.757 17.0436 161.415 17.4529C160.401 17.7598 159.359 17.9752 158.312 18.0937C157.925 18.1367 157.652 18.4814 157.696 18.8583C157.734 19.2138 158.039 19.4722 158.394 19.4722H158.399Z" fill="#408F95"/>
<path d="M224.075 27.5067C224.184 27.5067 224.293 27.4797 224.396 27.4313C225.601 26.812 227.401 25.8642 229.108 24.8519C229.561 24.5826 230.406 24.0872 231.497 23.3602C231.829 23.1394 232.189 22.8971 232.56 22.6279C233.891 21.6909 235.178 20.6731 236.394 19.6069C236.426 19.5746 236.459 19.5422 236.486 19.5046C236.546 19.4292 236.639 19.3161 236.759 19.1761C237.992 17.7006 239.153 16.1658 238.668 15.0673C238.515 14.7173 238.139 14.2919 237.234 14.2434C236.841 14.2165 236.514 14.5126 236.492 14.895C236.47 15.2773 236.765 15.6058 237.152 15.6273C237.266 15.6327 237.337 15.6489 237.381 15.6597C237.381 15.9074 237.125 16.559 235.674 18.2929C235.565 18.4222 235.478 18.5299 235.412 18.6106C234.245 19.6284 233.013 20.5977 231.742 21.497C231.377 21.7555 231.033 21.987 230.711 22.2078C229.653 22.9133 228.83 23.3979 228.388 23.6618C226.709 24.6526 224.942 25.5896 223.753 26.1981C223.409 26.3758 223.273 26.7905 223.453 27.1351C223.578 27.372 223.824 27.5121 224.075 27.5121V27.5067Z" fill="#408F95"/>
<path d="M196.115 31.5508C202.976 31.5508 209.563 30.7861 209.645 30.7754C213.784 30.2638 217.961 29.5099 222.052 28.5352C222.428 28.4437 222.662 28.0721 222.57 27.7005C222.477 27.329 222.101 27.0974 221.724 27.189C217.683 28.1529 213.561 28.896 209.476 29.3968C209.389 29.4076 200.113 30.4846 192.194 30.0646C189.74 29.9353 187.248 29.6391 184.794 29.176C183.698 28.9714 183.103 28.826 180.611 28.2283L177.595 27.5013C176.608 27.2643 175.747 27.0489 174.983 26.8605C172.704 26.295 171.199 25.9181 169.737 25.8158C167.572 25.665 165.363 25.8481 163.182 26.3651C162.806 26.4512 162.571 26.8282 162.664 27.1997C162.751 27.5713 163.128 27.8028 163.509 27.7113C165.554 27.232 167.616 27.0597 169.639 27.1997C170.98 27.2913 172.36 27.6359 174.64 28.2067C175.409 28.4006 176.276 28.616 177.263 28.8529L180.279 29.5799C182.738 30.1723 183.398 30.3338 184.532 30.5438C187.046 31.0123 189.598 31.3193 192.118 31.4539C193.432 31.5239 194.779 31.5508 196.115 31.5508Z" fill="#408F95"/>
<path d="M156.191 19.5207C156.491 19.5207 156.769 19.3268 156.862 19.0306C156.976 18.6645 156.769 18.2767 156.398 18.1637C154.762 17.6682 146.233 15.1373 139.203 14.1141C135.773 13.6133 133.259 13.5649 130.522 13.9418C129.627 14.0657 128.733 14.238 127.86 14.448C127.484 14.5396 127.255 14.9165 127.348 15.2881C127.44 15.6596 127.817 15.8912 128.199 15.7943C129.022 15.595 129.873 15.4335 130.723 15.315C133.319 14.9542 135.719 15.0027 139.007 15.4819C145.933 16.4943 154.375 18.993 155.994 19.4884C156.065 19.5099 156.131 19.5207 156.202 19.5207H156.191Z" fill="#408F95"/>
<path d="M135.991 44.7225C136.04 44.7225 136.089 44.7225 136.138 44.7064C139.28 44.0386 144.624 41.47 146.576 39.6983C148.261 38.4544 149.608 37.4689 150.754 36.6289C154.718 33.7263 156.36 32.5309 161.568 28.2013C161.862 27.9536 161.9 27.5174 161.655 27.2266C161.404 26.9359 160.962 26.8982 160.668 27.1405C155.493 31.4377 153.862 32.6332 149.919 35.5142C148.763 36.3596 147.405 37.3505 145.704 38.6106C145.682 38.6267 145.666 38.6429 145.644 38.659C143.888 40.2745 138.756 42.7301 135.838 43.3494C135.457 43.4301 135.217 43.7963 135.299 44.1733C135.369 44.4964 135.659 44.7225 135.986 44.7225H135.991Z" fill="#408F95"/>
<path d="M135.991 44.7225C136.177 44.7225 136.368 44.6471 136.504 44.5017C138.331 42.5793 140.676 39.3429 141.456 34.841C141.69 33.4948 142.235 30.3446 140.954 26.7635C139.781 23.4948 137.736 21.6047 135.37 19.413C133.292 17.4905 130.931 15.8427 128.346 14.5072C128.002 14.3295 127.577 14.4588 127.397 14.798C127.217 15.1373 127.348 15.5573 127.691 15.735C130.162 17.0113 132.419 18.5891 134.404 20.4254C136.728 22.574 138.565 24.2756 139.623 27.2266C140.785 30.4684 140.283 33.3709 140.065 34.6095C139.345 38.7721 137.169 41.7715 135.473 43.554C135.206 43.834 135.222 44.2702 135.506 44.534C135.642 44.6579 135.817 44.7225 135.986 44.7225H135.991Z" fill="#408F95"/>
<path d="M145.791 23.0586C145.998 23.0586 146.2 22.9725 146.336 22.8002C146.582 22.504 146.533 22.0678 146.233 21.8255C145.039 20.8723 143.73 20.0592 142.345 19.4184C140.676 18.6429 138.903 18.1098 137.077 17.8298C136.695 17.7706 136.335 18.029 136.275 18.4114C136.215 18.7883 136.477 19.1437 136.864 19.203C138.56 19.4615 140.201 19.9569 141.75 20.6785C143.032 21.2762 144.248 22.0247 145.355 22.9132C145.486 23.0156 145.638 23.0694 145.797 23.0694L145.791 23.0586Z" fill="#408F95"/>
<path d="M142.917 38.1098C143.064 38.1098 143.217 38.0613 143.348 37.9644C144.864 36.8066 147.558 34.3133 148.518 30.6192C148.812 29.4776 149.434 27.0974 148.348 24.6688C148.196 24.3295 148.016 23.9957 147.814 23.6833C147.601 23.3602 147.171 23.2687 146.843 23.4787C146.516 23.6887 146.423 24.1141 146.636 24.4372C146.8 24.6849 146.947 24.9542 147.067 25.2288C147.956 27.2213 147.438 29.2083 147.16 30.28C146.303 33.5756 143.866 35.8265 142.492 36.8712C142.186 37.1028 142.126 37.5389 142.366 37.8459C142.502 38.0236 142.71 38.1151 142.922 38.1151L142.917 38.1098Z" fill="#408F95"/>
<path d="M212.11 23.2256C212.257 23.2256 212.404 23.2256 212.557 23.2148C215.747 23.0802 218.005 21.5616 219.069 20.6677C219.363 20.42 219.401 19.9838 219.15 19.693C218.899 19.4022 218.458 19.3645 218.163 19.6122C217.236 20.3931 215.268 21.7124 212.503 21.8309C209.727 21.944 207.84 20.797 206.591 20.0323C205.91 19.6122 205.648 19.3592 205.56 19.2461C205.768 19.0145 206.662 18.6106 209.563 18.0991C212.17 17.6413 214.913 17.5283 217.716 17.7652C218.103 17.7921 218.441 17.5175 218.474 17.1351C218.507 16.7528 218.223 16.4189 217.836 16.3866C214.913 16.1389 212.045 16.2574 209.318 16.7367C206.651 17.2051 204.246 17.749 204.132 19.1814C204.077 19.833 204.595 20.4415 205.855 21.2116C207.104 21.9763 209.154 23.2256 212.115 23.2256H212.11Z" fill="#408F95"/>
<path d="M224.445 24.2325C224.691 24.2325 224.931 24.1033 225.061 23.8771C225.252 23.5433 225.127 23.1178 224.789 22.9348C222.635 21.7554 220.84 20.1776 219.45 18.2606C218.714 17.2428 218.097 16.1335 217.628 14.9596C217.487 14.6041 217.078 14.4318 216.718 14.5718C216.358 14.7118 216.183 15.1157 216.325 15.4711C216.843 16.7474 217.508 17.959 218.31 19.0629C219.821 21.1523 221.773 22.8647 224.107 24.1464C224.216 24.2056 224.331 24.2325 224.445 24.2325Z" fill="#408F95"/>
<path d="M230.897 10.4739C230.793 9.87075 230.215 9.46687 229.61 9.56919C228.999 9.6715 228.59 10.2423 228.693 10.84C228.797 11.4432 229.375 11.847 229.98 11.7447C230.591 11.6424 231 11.0716 230.897 10.4739Z" fill="#408F95"/>
<path d="M199.431 36.6127C200.658 36.5966 201.852 36.4996 203.03 36.3219C204.644 36.0796 206.248 35.6811 207.791 35.1372C213.462 33.1448 216.565 31.427 221.703 28.5837C222.041 28.3952 222.161 27.9752 221.97 27.6413C221.779 27.3074 221.354 27.189 221.015 27.3774C215.769 30.2799 212.879 31.8793 207.317 33.8341C205.855 34.3456 204.344 34.7226 202.817 34.9541C201.705 35.1211 200.576 35.2126 199.453 35.2288C198.171 35.1803 197.555 35.008 197.277 34.8841C197.62 34.6526 198.498 34.2002 200.696 33.5163C201.067 33.4033 201.269 33.0101 201.154 32.6494C201.04 32.2832 200.642 32.0785 200.276 32.197C196.742 33.2956 195.548 34.0495 195.712 35.0672C195.919 36.3381 197.937 36.5589 199.436 36.6181L199.431 36.6127Z" fill="#408F95"/>
<path d="M197.288 33.5863C197.724 33.5863 198.138 33.5648 198.531 33.5432C204.164 33.1986 208.712 32.0139 208.903 31.9601C211.025 31.4 213.151 30.7161 215.224 29.9299C215.584 29.7899 215.764 29.3914 215.627 29.036C215.486 28.6806 215.082 28.5029 214.722 28.6375C212.693 29.4076 210.616 30.0753 208.543 30.6246C208.358 30.673 203.946 31.8254 198.449 32.1593C197.184 32.2347 195.821 32.267 194.223 31.707C193.356 31.4054 192.532 30.9638 191.78 30.3984C191.469 30.1668 191.033 30.2261 190.798 30.533C190.564 30.84 190.624 31.2708 190.934 31.5023C191.801 32.1539 192.75 32.6601 193.754 33.0101C195.057 33.4679 196.24 33.5863 197.293 33.5863H197.288Z" fill="#408F95"/>
<path d="M174.116 36.6127C175.948 36.6127 177.77 36.435 179.575 36.0796C183.561 35.288 187.411 33.5971 190.711 31.19C191.022 30.9638 191.087 30.5276 190.858 30.2207C190.629 29.9137 190.187 29.8491 189.876 30.0753C186.741 32.3639 183.087 33.974 179.302 34.7225C176.456 35.288 173.549 35.3795 170.659 35.0079C170.768 34.0817 171.084 32.4393 171.957 31.2546C172.207 30.9153 172.622 30.3499 173.353 29.8922C173.543 29.7683 173.691 29.6983 174.089 29.5045L174.367 29.3698C175.163 28.9767 175.807 28.6483 176.232 28.4275C176.576 28.2498 176.706 27.8297 176.526 27.4905C176.347 27.1512 175.921 27.022 175.578 27.1997C175.158 27.4205 174.525 27.7436 173.74 28.1259L173.467 28.2605C173.047 28.4652 172.856 28.5567 172.595 28.7236C171.64 29.3268 171.106 30.0484 170.822 30.4361C169.464 32.267 169.235 34.8249 169.197 35.5626C169.181 35.918 169.437 36.2303 169.792 36.2842C171.231 36.505 172.676 36.6181 174.122 36.6181L174.116 36.6127Z" fill="#408F95"/>
<path d="M167.997 14.7442C169.028 14.7442 170.124 14.6741 171.345 14.5449C171.733 14.5018 172.011 14.1626 171.967 13.7802C171.924 13.3979 171.58 13.1179 171.193 13.1663C170.015 13.2902 168.968 13.3548 167.986 13.3602C167.599 13.3602 167.288 13.6725 167.288 14.0549C167.288 14.4372 167.604 14.7442 167.992 14.7442H167.997Z" fill="#408F95"/>
<path d="M167.375 6.87673C167.446 6.87673 167.523 6.86596 167.594 6.84442C168.379 6.58594 169.164 6.32208 169.95 6.05282C172.114 5.31508 174.356 4.55041 176.679 4.04422C186.79 2.01407 196.638 1.1417 205.942 1.45403C206.324 1.4648 206.656 1.16862 206.667 0.786286C206.678 0.403951 206.378 0.0808503 205.991 0.0700803C196.584 -0.247635 186.621 0.630121 176.39 2.68719C173.974 3.21493 171.7 3.99037 169.497 4.74427C168.717 5.00813 167.937 5.27738 167.157 5.53048C166.787 5.64895 166.59 6.04206 166.71 6.40285C166.808 6.69364 167.081 6.88212 167.375 6.88212V6.87673Z" fill="#408F95"/>
<path d="M220.939 5.25581C221.206 5.25581 221.462 5.10503 221.577 4.85193C221.735 4.50191 221.577 4.09265 221.228 3.93648C219.444 3.13411 217.596 2.44483 215.725 1.87941C213.309 1.14705 210.817 0.61393 208.309 0.29083C207.921 0.242364 207.572 0.50623 207.523 0.888565C207.474 1.2709 207.741 1.61554 208.129 1.66401C210.555 1.97634 212.977 2.4933 215.316 3.20412C217.127 3.75339 218.926 4.42113 220.65 5.19657C220.742 5.23965 220.841 5.26119 220.939 5.26119V5.25581Z" fill="#408F95"/>
<path d="M207.033 3.36563C207.262 3.36563 207.491 3.25255 207.627 3.04792C207.834 2.72482 207.742 2.29402 207.414 2.08939C207.267 1.99784 207.049 1.86322 206.782 1.71244C205.778 1.1524 204.693 0.726979 203.559 0.441574C202.681 0.220789 201.776 0.0915484 200.865 0.0538533C200.478 0.0376983 200.15 0.333874 200.134 0.716209C200.118 1.09854 200.418 1.42165 200.805 1.4378C201.623 1.47011 202.43 1.58858 203.215 1.78244C204.23 2.03554 205.2 2.41787 206.095 2.91329C206.335 3.04792 206.525 3.16639 206.662 3.24716C206.776 3.32255 206.907 3.35486 207.038 3.35486L207.033 3.36563Z" fill="#408F95"/>
<path d="M197.255 3.97418C197.484 3.97418 197.713 3.8611 197.844 3.65647C198.051 3.33337 197.958 2.90795 197.631 2.69794C197.484 2.60639 197.266 2.47176 196.999 2.32098C195.995 1.76094 194.91 1.33553 193.77 1.05012C192.892 0.829337 191.987 0.700097 191.076 0.662402C190.689 0.640862 190.362 0.942423 190.345 1.32476C190.329 1.70709 190.629 2.03019 191.016 2.04635C191.834 2.07866 192.641 2.19713 193.427 2.39099C194.441 2.64409 195.412 3.02642 196.306 3.52184C196.546 3.65647 196.737 3.77494 196.873 3.85571C196.988 3.9311 197.124 3.96341 197.249 3.96341L197.255 3.97418Z" fill="#408F95"/>
<path d="M188.235 5.23423C188.464 5.23423 188.693 5.12114 188.829 4.91651C189.036 4.59341 188.944 4.16799 188.617 3.95798C188.469 3.86643 188.251 3.73181 187.984 3.58103C186.975 3.02099 185.89 2.59557 184.756 2.31017C183.878 2.08938 182.972 1.96014 182.062 1.92244C181.674 1.90629 181.347 2.20247 181.331 2.5848C181.314 2.96714 181.614 3.29024 182.002 3.30639C182.82 3.3387 183.627 3.45717 184.412 3.65103C185.426 3.90413 186.397 4.28646 187.291 4.78188C187.531 4.91651 187.722 5.03498 187.859 5.11575C187.973 5.19114 188.104 5.22345 188.235 5.22345V5.23423Z" fill="#408F95"/>
<path d="M174.831 33.8233H174.847C177.246 33.764 179.526 33.2309 181.615 32.2293C182.525 31.7931 183.398 31.2708 184.21 30.673C184.521 30.4415 184.587 30.0107 184.352 29.7037C184.118 29.3968 183.681 29.3322 183.371 29.5637C182.629 30.113 181.827 30.5923 181.004 30.9854C179.095 31.8954 177.012 32.3855 174.814 32.4393C174.427 32.4501 174.122 32.7678 174.127 33.1502C174.138 33.5271 174.449 33.8287 174.831 33.8287V33.8233Z" fill="#408F95"/>
<path d="M176.096 31.0285C176.178 31.0285 176.259 31.0123 176.336 30.9854L180.333 29.5422C180.698 29.413 180.884 29.0145 180.753 28.6537C180.622 28.2929 180.213 28.1098 179.853 28.239L175.856 29.6822C175.49 29.8114 175.305 30.2099 175.436 30.5707C175.54 30.8508 175.807 31.0285 176.096 31.0285Z" fill="#408F95"/>
<path d="M166.138 14.6796C166.514 14.6796 166.83 14.3834 166.841 14.0064C166.852 13.6241 166.547 13.3064 166.159 13.2956C163.514 13.2202 162.386 12.714 162.2 11.497C162.702 9.83306 163.989 8.48142 166.127 7.37211C166.47 7.1944 166.601 6.77437 166.421 6.43512C166.241 6.09586 165.816 5.96662 165.472 6.14433C162.915 7.46904 161.388 9.14378 160.81 11.2601C160.788 11.3409 160.782 11.427 160.788 11.5078C161.082 14.5342 164.611 14.6365 166.116 14.6796C166.121 14.6796 166.132 14.6796 166.138 14.6796Z" fill="#408F95"/>
<path d="M137.104 127.738C137.328 127.738 137.546 127.63 137.682 127.436C137.998 126.978 138.173 126.494 138.2 125.998C138.326 123.564 134.923 121.884 132.436 120.656C129.867 119.386 127.081 118.459 124.158 117.899C123.776 117.829 123.411 118.072 123.334 118.449C123.258 118.826 123.509 119.186 123.891 119.262C126.688 119.8 129.349 120.683 131.809 121.895C133.707 122.832 136.875 124.399 136.799 125.928C136.788 126.165 136.695 126.408 136.526 126.65C136.308 126.968 136.39 127.399 136.706 127.614C136.826 127.695 136.968 127.738 137.104 127.738Z" fill="#408F95"/>
<path d="M127.626 133.99C127.691 133.99 127.762 133.979 127.828 133.957C129.131 133.564 130.418 133.112 131.65 132.611C132.19 132.39 132.927 132.089 133.881 131.615C134.748 131.179 135.604 130.7 136.411 130.183C136.449 130.156 136.488 130.129 136.52 130.096C136.559 130.059 136.624 130.005 136.7 129.935C137.617 129.127 138.495 128.266 138.271 127.431C138.205 127.189 137.993 126.763 137.289 126.618C136.913 126.537 136.537 126.774 136.455 127.151C136.389 127.447 136.531 127.738 136.777 127.889C136.629 128.082 136.335 128.4 135.762 128.901C135.697 128.96 135.637 129.009 135.593 129.052C134.841 129.531 134.05 129.978 133.243 130.382C132.338 130.834 131.629 131.125 131.111 131.335C129.922 131.82 128.678 132.261 127.419 132.638C127.048 132.751 126.841 133.139 126.95 133.505C127.042 133.807 127.321 133.995 127.62 133.995L127.626 133.99Z" fill="#408F95"/>
<path d="M121.534 134.383C123.394 134.383 125.265 134.307 127.119 134.151C127.506 134.119 127.789 133.785 127.757 133.403C127.724 133.02 127.38 132.74 126.999 132.773C124.572 132.972 122.118 133.042 119.702 132.972C119.653 132.972 114.178 132.778 109.635 131.836C108.234 131.545 106.821 131.157 105.447 130.673C104.836 130.457 104.503 130.323 103.107 129.752L101.422 129.062C100.948 128.869 100.528 128.691 100.141 128.529C98.9192 128.018 98.0357 127.646 96.9778 127.377C95.5381 127.005 94.0166 126.833 92.446 126.871C92.0588 126.882 91.7534 127.199 91.7589 127.582C91.7698 127.964 92.0806 128.266 92.4787 128.26C93.9184 128.228 95.309 128.384 96.6233 128.718C97.5831 128.966 98.4229 129.316 99.5899 129.806C99.9826 129.973 100.408 130.15 100.888 130.344L102.573 131.033C103.958 131.599 104.329 131.75 104.978 131.976C106.412 132.477 107.885 132.886 109.346 133.187C114.014 134.151 119.429 134.345 119.658 134.351C120.28 134.367 120.907 134.377 121.529 134.377L121.534 134.383Z" fill="#408F95"/>
<path d="M91.7753 123.247C91.7753 123.247 91.7917 123.247 91.8026 123.247C92.1953 123.231 92.5933 123.193 92.9805 123.139C93.9021 123.004 94.5947 122.784 94.8947 122.687L94.9765 122.66C98.074 121.717 101.248 120.893 104.405 120.22C107.312 119.601 109.608 119.111 112.629 118.836C115.819 118.546 119.07 118.567 122.293 118.901C122.68 118.939 123.023 118.664 123.061 118.282C123.1 117.899 122.821 117.56 122.434 117.522C119.119 117.183 115.776 117.162 112.498 117.458C109.39 117.738 107.056 118.239 104.105 118.869C100.904 119.553 97.6923 120.382 94.5566 121.34L94.4529 121.373C94.1912 121.459 93.575 121.653 92.7679 121.771C92.4516 121.82 92.1298 121.847 91.8135 121.863C91.2954 121.771 90.7774 121.642 90.2756 121.475C89.6649 121.276 89.2341 121.071 89.0704 120.996C87.4072 120.226 83.5789 118.815 80.2578 117.867C78.3818 117.329 76.9421 117.016 75.1479 116.989C74.6081 116.979 74.0573 117 73.5228 117.049C73.1356 117.081 72.8521 117.42 72.8848 117.802C72.9175 118.185 73.2611 118.465 73.6483 118.432C74.1391 118.389 74.6353 118.373 75.1316 118.379C76.7621 118.4 78.1037 118.696 79.8651 119.203C83.4589 120.231 87.1127 121.626 88.4542 122.245C88.656 122.337 89.1413 122.563 89.8285 122.789C90.4229 122.983 91.0337 123.134 91.6499 123.241C91.6881 123.247 91.7262 123.252 91.7699 123.252L91.7753 123.247Z" fill="#408F95"/>
<path d="M75.6112 135.961C75.7039 135.961 75.8021 135.939 75.8948 135.901L83.6386 132.514C85.062 131.809 86.4417 131.055 87.7723 130.263C88.7703 129.671 89.7737 129.036 90.7389 128.389C91.0607 128.174 91.1425 127.743 90.9243 127.425C90.7062 127.108 90.2699 127.027 89.9482 127.242C88.9993 127.878 88.0232 128.497 87.047 129.079C85.7436 129.854 84.3912 130.592 83.0333 131.265L75.3222 134.636C74.9677 134.792 74.8096 135.201 74.9623 135.551C75.0768 135.81 75.3331 135.966 75.6058 135.966L75.6112 135.961Z" fill="#408F95"/>
<path d="M75.6113 135.961C75.8131 135.961 76.0094 135.875 76.1457 135.713C77.5636 134.054 78.6652 132.223 79.4232 130.274C80.0613 128.637 80.563 127.345 80.3503 125.648C80.1104 123.731 79.096 122.46 77.8145 120.85L77.7054 120.71C76.6529 119.386 75.4095 118.201 74.008 117.183C73.6972 116.957 73.2554 117.022 73.0264 117.329C72.7973 117.635 72.8628 118.072 73.1736 118.298C74.4716 119.246 75.6277 120.344 76.5984 121.567L76.7074 121.707C77.8963 123.204 78.7579 124.286 78.9542 125.821C79.1233 127.172 78.7197 128.206 78.109 129.773C77.4055 131.577 76.3802 133.274 75.066 134.819C74.8151 135.11 74.8533 135.551 75.1478 135.794C75.2787 135.901 75.4422 135.955 75.6004 135.955L75.6113 135.961Z" fill="#408F95"/>
<path d="M122.734 130.253C124.343 130.253 125.586 129.655 126.23 129.267C126.557 129.068 126.661 128.637 126.459 128.314C126.257 127.991 125.826 127.889 125.494 128.088C124.916 128.438 123.716 129.003 122.178 128.836C120.64 128.669 119.691 127.867 119.059 127.334C118.966 127.259 118.895 127.189 118.835 127.135C119.211 127.048 119.86 126.995 120.782 126.973C122.32 126.935 123.901 127.113 125.483 127.49C125.859 127.582 126.241 127.35 126.333 126.978C126.426 126.607 126.192 126.23 125.815 126.138C124.114 125.729 122.407 125.541 120.749 125.578C118.971 125.621 117.483 125.74 117.237 126.763C117.09 127.388 117.613 127.932 118.148 128.384C118.819 128.949 120.062 129.994 122.025 130.209C122.271 130.236 122.505 130.247 122.734 130.247V130.253Z" fill="#408F95"/>
<path d="M128.946 131.863C129.153 131.863 129.36 131.771 129.502 131.593C129.742 131.292 129.682 130.856 129.376 130.619C128.264 129.768 127.391 128.723 126.775 127.522C126.448 126.887 126.202 126.208 126.039 125.503C125.952 125.131 125.575 124.9 125.199 124.986C124.823 125.072 124.588 125.444 124.676 125.815C124.866 126.628 125.15 127.409 125.526 128.147C126.235 129.536 127.244 130.737 128.52 131.717C128.646 131.814 128.798 131.863 128.951 131.863H128.946Z" fill="#408F95"/>
<path d="M133.226 125.492C133.226 125.492 133.237 125.492 133.248 125.492C133.995 125.481 134.601 124.868 134.59 124.13C134.579 123.387 133.979 122.794 133.21 122.805C132.845 122.805 132.507 122.956 132.256 123.214C132.005 123.473 131.868 123.812 131.874 124.167C131.885 124.9 132.496 125.492 133.232 125.492H133.226ZM133.27 124.146C133.27 124.146 133.254 124.184 133.226 124.189C133.205 124.189 133.183 124.167 133.183 124.146H133.27ZM133.27 124.146H133.183C133.183 124.146 133.21 124.087 133.226 124.103C133.248 124.103 133.27 124.119 133.27 124.146Z" fill="#408F95"/>
<path d="M115.339 137C116.316 137 117.292 136.908 118.252 136.725C121.758 136.063 123.727 135.336 126.988 134.13C127.353 133.995 127.533 133.597 127.397 133.236C127.261 132.875 126.857 132.697 126.492 132.832C123.187 134.054 121.371 134.722 117.984 135.363C117.106 135.53 116.234 135.611 115.318 135.611C114.669 135.611 114.014 135.562 113.371 135.476C112.973 135.422 112.607 135.298 112.395 135.196C112.667 134.948 113.349 134.496 114.745 133.904C115.099 133.753 115.269 133.344 115.11 132.994C114.958 132.644 114.543 132.477 114.189 132.633C111.048 133.963 110.759 134.814 110.889 135.465C111.097 136.483 112.689 136.785 113.169 136.849C113.883 136.946 114.636 136.995 115.329 137H115.339Z" fill="#408F95"/>
<path d="M100.953 134.798C101.204 134.798 101.455 134.792 101.706 134.781C104.138 134.674 106.576 134.017 108.752 132.886C109.095 132.708 109.226 132.288 109.046 131.949C108.866 131.61 108.441 131.48 108.097 131.658C106.101 132.692 103.871 133.295 101.641 133.392C100.065 133.462 98.4885 133.29 96.9561 132.88C97.1524 132.288 97.4687 131.631 97.8995 131.206C98.074 131.033 98.3303 130.775 98.7502 130.597C98.8757 130.543 98.9684 130.516 99.1811 130.446L99.3556 130.393C99.8573 130.236 100.261 130.102 100.533 130.01C100.899 129.886 101.095 129.493 100.97 129.127C100.844 128.766 100.446 128.572 100.075 128.696C99.8137 128.788 99.4156 128.917 98.9302 129.073L98.7557 129.127C98.4667 129.219 98.3467 129.256 98.1776 129.332C97.5232 129.617 97.1033 130.032 96.9015 130.231C95.8872 131.238 95.5055 132.773 95.4128 133.22C95.3419 133.57 95.5436 133.914 95.8872 134.022C97.5341 134.539 99.2356 134.798 100.948 134.798H100.953Z" fill="#408F95"/>
<path d="M98.8808 121.523C99.2517 121.523 99.5625 121.233 99.5843 120.861C99.6007 120.479 99.3007 120.156 98.9135 120.134C98.2264 120.102 97.6211 120.048 97.0594 119.962C96.6777 119.908 96.3177 120.166 96.2632 120.543C96.2087 120.92 96.4704 121.276 96.8522 121.33C97.4629 121.421 98.1174 121.48 98.8481 121.513C98.859 121.513 98.8699 121.513 98.8808 121.513V121.523Z" fill="#408F95"/>
<path d="M96.956 121.346C97.3214 121.346 97.6322 121.066 97.654 120.7C97.6813 120.317 97.3868 119.989 96.9996 119.962C95.1945 119.849 94.2893 119.267 94.2129 118.777C94.142 118.325 94.7692 117.565 96.3125 116.957C96.6724 116.817 96.8469 116.413 96.7051 116.058C96.5633 115.702 96.1543 115.53 95.7944 115.67C93.733 116.478 92.6205 117.716 92.8278 118.993C93.0404 120.317 94.5674 121.195 96.9124 121.34C96.9287 121.34 96.9451 121.34 96.956 121.34V121.346Z" fill="#408F95"/>
<path d="M120.258 116.973C120.58 116.973 120.869 116.752 120.94 116.435C121.027 116.063 120.787 115.692 120.411 115.605C114.549 114.297 108.632 113.925 102.818 114.501C101.188 114.663 99.541 114.9 97.9268 115.212C97.545 115.288 97.2996 115.648 97.3705 116.025C97.4469 116.402 97.8122 116.645 98.194 116.575C99.7645 116.273 101.368 116.042 102.96 115.88C108.621 115.32 114.391 115.681 120.1 116.957C120.155 116.968 120.204 116.973 120.253 116.973H120.258Z" fill="#408F95"/>
<path d="M128.63 120.511C128.859 120.511 129.082 120.398 129.218 120.199C129.431 119.876 129.338 119.45 129.017 119.24C128.041 118.61 127.015 118.034 125.968 117.539C124.97 117.059 123.923 116.639 122.865 116.289C122.62 116.208 122.407 116.138 122.26 116.095C121.895 115.982 121.496 116.187 121.382 116.548C121.267 116.914 121.475 117.302 121.84 117.415C121.982 117.458 122.178 117.522 122.413 117.598C123.416 117.932 124.403 118.33 125.352 118.782C126.345 119.256 127.315 119.8 128.242 120.398C128.362 120.473 128.493 120.511 128.624 120.511H128.63Z" fill="#408F95"/>
<path d="M117.908 117.129C118.017 117.129 118.121 117.086 118.197 117C118.339 116.844 118.323 116.602 118.164 116.462C118.088 116.397 117.973 116.3 117.832 116.187C117.297 115.772 116.708 115.433 116.076 115.169C115.59 114.965 115.072 114.808 114.549 114.706C114.342 114.663 114.134 114.798 114.096 115.008C114.058 115.218 114.189 115.417 114.402 115.455C114.876 115.546 115.339 115.686 115.776 115.869C116.343 116.106 116.877 116.418 117.357 116.785C117.483 116.882 117.586 116.973 117.657 117.032C117.728 117.097 117.821 117.129 117.913 117.129H117.908Z" fill="#408F95"/>
<path d="M114.254 117.016C114.38 117.016 114.505 116.952 114.581 116.839C114.696 116.661 114.647 116.424 114.467 116.311C114.385 116.257 114.265 116.182 114.118 116.095C113.567 115.767 112.973 115.46 112.367 115.196C111.893 114.986 111.413 114.803 110.928 114.641C110.726 114.577 110.508 114.685 110.437 114.884C110.371 115.083 110.481 115.298 110.682 115.368C111.14 115.519 111.604 115.697 112.051 115.896C112.629 116.149 113.191 116.44 113.72 116.752C113.862 116.833 113.976 116.909 114.052 116.957C114.118 117 114.189 117.016 114.26 117.016H114.254Z" fill="#408F95"/>
<path d="M109.635 117.022C109.755 117.022 109.869 116.968 109.946 116.865C110.071 116.698 110.039 116.456 109.864 116.332C109.782 116.273 109.668 116.187 109.52 116.09C108.975 115.724 108.386 115.406 107.764 115.137C107.285 114.932 106.788 114.755 106.287 114.62C106.079 114.561 105.867 114.685 105.812 114.889C105.758 115.094 105.878 115.304 106.085 115.358C106.548 115.481 107.012 115.643 107.459 115.837C108.037 116.085 108.582 116.381 109.09 116.72C109.226 116.812 109.335 116.887 109.406 116.941C109.477 116.989 109.553 117.016 109.635 117.016V117.022Z" fill="#408F95"/>
<path d="M100.708 131.766C100.708 131.766 100.746 131.766 100.762 131.766L103.876 131.34C104.089 131.313 104.236 131.12 104.203 130.91C104.176 130.7 103.974 130.554 103.767 130.586L100.653 131.012C100.441 131.039 100.293 131.233 100.326 131.443C100.353 131.631 100.517 131.771 100.708 131.771V131.766Z" fill="#408F95"/>
<path d="M80.683 131.136C80.7866 131.136 80.8957 131.109 80.9938 131.044C81.9318 130.457 82.7662 129.736 83.4642 128.901C84.4022 127.786 85.2802 126.736 85.1657 125.358C85.0457 123.952 83.9605 123.058 82.8098 122.11C81.8664 121.335 80.803 120.721 79.6414 120.296C79.3415 120.183 79.0088 120.333 78.8943 120.63C78.7798 120.926 78.9325 121.254 79.2324 121.367C80.2685 121.75 81.2229 122.299 82.0627 122.988C83.1043 123.844 83.9278 124.523 84.0096 125.455C84.0859 126.365 83.4206 127.162 82.5753 128.169C81.9536 128.912 81.212 129.552 80.3721 130.08C80.0995 130.247 80.0231 130.603 80.1922 130.872C80.3013 131.044 80.4921 131.136 80.683 131.136Z" fill="#408F95"/>
<path d="M63.5102 107.684C63.8265 107.684 64.11 107.474 64.1918 107.156C64.3282 106.618 64.3227 106.106 64.17 105.632C63.4284 103.306 59.6437 102.902 56.8843 102.611C54.0267 102.304 51.0873 102.396 48.1534 102.875C47.7717 102.94 47.5099 103.295 47.5753 103.672C47.6408 104.049 47.9952 104.308 48.3824 104.243C51.1909 103.78 54.0049 103.699 56.7316 103.99C58.8366 104.216 62.3649 104.593 62.8285 106.052C62.8994 106.279 62.8994 106.537 62.8285 106.822C62.7358 107.194 62.9648 107.571 63.3411 107.662C63.3956 107.679 63.4556 107.684 63.5102 107.684Z" fill="#408F95"/>
<path d="M56.8352 116.801C56.9824 116.801 57.1351 116.752 57.2605 116.661C58.3458 115.848 59.3874 114.981 60.369 114.081C60.7998 113.688 61.3888 113.15 62.1086 112.38C62.7685 111.674 63.3956 110.931 63.9737 110.167C64.0009 110.129 64.0227 110.091 64.0445 110.048C64.0664 110 64.1045 109.93 64.1536 109.838C64.7317 108.766 65.2497 107.657 64.7426 106.946C64.5953 106.742 64.2463 106.419 63.5374 106.521C63.1556 106.575 62.8884 106.93 62.943 107.307C62.9866 107.609 63.2211 107.835 63.5047 107.889C63.4392 108.12 63.2702 108.519 62.9102 109.192C62.8666 109.267 62.8339 109.337 62.8066 109.386C62.2667 110.097 61.6832 110.786 61.0725 111.437C60.3908 112.17 59.8236 112.687 59.4092 113.064C58.4657 113.931 57.4514 114.765 56.4044 115.557C56.0935 115.788 56.039 116.225 56.2735 116.526C56.4098 116.704 56.6225 116.801 56.8297 116.801H56.8352Z" fill="#408F95"/>
<path d="M21.8625 123.538C21.9497 123.538 22.037 123.521 22.1242 123.489C23.4603 122.961 24.8237 122.627 26.1706 122.493C27.1577 122.396 28.0739 122.434 29.3391 122.493C29.7644 122.514 30.228 122.531 30.7406 122.552L32.5675 122.617C34.0617 122.671 34.4598 122.687 35.1469 122.671C36.6684 122.644 38.1899 122.52 39.6678 122.299C44.3795 121.599 49.5275 119.913 49.7456 119.838C52.0797 119.057 54.4083 118.126 56.666 117.081C57.015 116.919 57.1677 116.505 57.0041 116.16C56.8405 115.815 56.4206 115.665 56.0716 115.826C53.863 116.855 51.5889 117.759 49.3039 118.524C49.2548 118.54 44.0578 120.242 39.466 120.926C38.0481 121.136 36.5866 121.254 35.1306 121.281C34.4816 121.292 34.1271 121.281 32.622 121.227L30.7897 121.163C30.2825 121.147 29.8244 121.125 29.399 121.103C28.0739 121.044 27.1141 121.001 26.0289 121.109C24.551 121.254 23.0622 121.62 21.6007 122.197C21.2408 122.337 21.0663 122.741 21.2081 123.096C21.3171 123.365 21.5789 123.532 21.8625 123.532V123.538Z" fill="#408F95"/>
<path d="M0.703537 120.818C0.807152 120.818 0.905304 120.797 1.00347 120.753C1.44519 120.543 1.90873 120.355 2.37227 120.193C3.91013 119.65 5.26802 119.466 7.10035 119.332C10.8305 119.057 14.7515 119.111 16.2239 119.23C16.4475 119.246 16.9874 119.294 17.7072 119.267C18.3289 119.246 18.956 119.176 19.5723 119.063C19.6213 119.052 19.6704 119.041 19.7141 119.019C20.0794 118.869 20.4339 118.696 20.7775 118.513C21.5955 118.072 22.1626 117.625 22.408 117.431L22.4789 117.377C25.0529 115.428 27.736 113.564 30.4572 111.847C32.9603 110.263 34.9399 109.014 37.6775 107.716C40.5678 106.349 43.6217 105.25 46.7574 104.448C47.1337 104.351 47.3573 103.974 47.2591 103.602C47.161 103.231 46.7792 103.01 46.403 103.107C43.1745 103.931 40.0334 105.062 37.0667 106.467C34.2528 107.803 32.2405 109.068 29.6992 110.678C26.9453 112.417 24.224 114.302 21.6227 116.279L21.5355 116.343C21.3173 116.51 20.8156 116.909 20.1012 117.296C19.8231 117.447 19.5341 117.587 19.2396 117.711C18.7215 117.802 18.1871 117.862 17.6581 117.878C17.0201 117.899 16.5402 117.862 16.3602 117.846C14.5279 117.695 10.4433 117.695 6.99674 117.948C5.04443 118.093 3.58838 118.287 1.89783 118.885C1.38521 119.063 0.883499 119.273 0.398148 119.499C0.0491295 119.666 -0.0981369 120.075 0.065464 120.425C0.18544 120.673 0.436314 120.818 0.698078 120.818H0.703537Z" fill="#408F95"/>
<path d="M8.77451 136.553C8.94902 136.553 9.12896 136.488 9.26529 136.354L15.3295 130.516C16.4147 129.364 17.4399 128.185 18.4106 126.984C19.1414 126.079 19.8503 125.148 20.532 124.205C20.7556 123.893 20.6793 123.462 20.3684 123.241C20.0521 123.021 19.6158 123.096 19.3922 123.403C18.7269 124.324 18.0344 125.239 17.32 126.122C16.3711 127.296 15.3677 128.449 14.3315 129.553L8.29461 135.368C8.01648 135.638 8.01102 136.074 8.28369 136.348C8.42002 136.488 8.60543 136.558 8.78539 136.558L8.77451 136.553Z" fill="#408F95"/>
<path d="M8.77438 136.553C9.06341 136.553 9.33061 136.375 9.43422 136.095C10.1759 134.054 10.5631 131.954 10.5849 129.865C10.6067 128.109 10.6176 126.725 9.82143 125.212C8.91616 123.5 7.52008 122.654 5.75318 121.588L5.60051 121.497C4.1499 120.619 2.56296 119.935 0.888766 119.461C0.517936 119.353 0.12531 119.569 0.0216951 119.935C-0.0873728 120.301 0.130733 120.689 0.501563 120.791C2.05578 121.227 3.52274 121.863 4.86428 122.676L5.01699 122.767C6.66391 123.764 7.85276 124.48 8.57261 125.853C9.21066 127.059 9.19429 128.169 9.17793 129.849C9.15612 131.782 8.79618 133.726 8.10905 135.627C7.97817 135.988 8.16906 136.386 8.53443 136.515C8.61078 136.542 8.69258 136.558 8.76893 136.558L8.77438 136.553Z" fill="#408F95"/>
<path d="M48.9879 115.331C49.4569 115.331 49.9641 115.277 50.4985 115.148C52.4072 114.674 53.5742 113.484 54.1032 112.811C54.3432 112.509 54.2886 112.073 53.9832 111.836C53.6778 111.599 53.2361 111.653 52.9962 111.954C52.5763 112.482 51.6546 113.424 50.1549 113.796C48.6553 114.168 47.4773 113.742 46.7029 113.462C46.5884 113.419 46.4957 113.387 46.4194 113.349C46.7411 113.139 47.3355 112.864 48.1917 112.531C49.6151 111.97 51.1584 111.588 52.778 111.4C53.1652 111.357 53.4379 111.012 53.3943 110.63C53.3506 110.247 53.0016 109.973 52.6144 110.021C50.8748 110.226 49.206 110.635 47.6682 111.244C46.0158 111.895 44.6634 112.52 44.7943 113.559C44.8706 114.194 45.5577 114.523 46.223 114.76C46.8175 114.975 47.7827 115.325 48.9934 115.325L48.9879 115.331Z" fill="#408F95"/>
<path d="M57.3206 114.356C57.6206 114.356 57.8987 114.168 57.9914 113.871C58.1059 113.505 57.9041 113.118 57.5333 113.004C56.1918 112.59 55.0029 111.911 53.9995 110.996C53.4705 110.511 52.9961 109.962 52.5925 109.359C52.3799 109.041 51.9436 108.95 51.6218 109.16C51.3001 109.37 51.2074 109.8 51.4201 110.118C51.8836 110.813 52.4289 111.448 53.0397 112.008C54.1958 113.064 55.5646 113.845 57.1079 114.324C57.1788 114.345 57.2497 114.356 57.3206 114.356Z" fill="#408F95"/>
<path d="M58.8529 106.952C59.022 106.952 59.1856 106.919 59.3437 106.86C60.0418 106.591 60.3908 105.81 60.1181 105.121C59.8455 104.431 59.0547 104.087 58.3567 104.356C57.6587 104.625 57.3096 105.406 57.5823 106.095C57.7132 106.429 57.9695 106.693 58.3022 106.839C58.4767 106.914 58.6621 106.952 58.8475 106.952H58.8529ZM58.8966 105.595C58.9075 105.616 58.8966 105.643 58.8693 105.649C58.8529 105.654 58.8202 105.643 58.8148 105.622L58.8966 105.589V105.595ZM58.8966 105.595L58.8148 105.627C58.8148 105.627 58.8148 105.579 58.842 105.573C58.8639 105.568 58.8911 105.579 58.8966 105.6V105.595Z" fill="#408F95"/>
<path d="M43.4797 124.534C43.9323 124.534 44.3467 124.458 44.5485 124.415C45.2465 124.264 45.9391 124.065 46.6045 123.817C47.5261 123.484 48.415 123.053 49.2548 122.552C52.3087 120.727 53.8956 119.364 56.5296 117.113C56.8241 116.86 56.8568 116.424 56.6005 116.133C56.3442 115.842 55.9025 115.81 55.608 116.063C52.9413 118.341 51.4743 119.601 48.524 121.367C47.7606 121.825 46.948 122.213 46.1136 122.52C45.5083 122.741 44.8757 122.924 44.2431 123.064C43.8505 123.15 43.4633 123.161 43.2288 123.134C43.3924 122.805 43.8777 122.148 44.9739 121.114C45.252 120.85 45.2629 120.409 44.9957 120.134C44.7285 119.86 44.2813 119.849 44.0032 120.113C41.5328 122.444 41.5601 123.338 41.9145 123.904C42.2308 124.404 42.8798 124.539 43.4688 124.539L43.4797 124.534Z" fill="#408F95"/>
<path d="M27.3104 127.711C27.3104 127.711 27.3323 127.711 27.3432 127.711C29.3227 127.614 31.2478 127.183 33.0638 126.424C35.3051 125.487 37.3556 124.033 38.9971 122.224C39.2534 121.938 39.2316 121.502 38.9425 121.244C38.6535 120.985 38.2118 121.012 37.95 121.297C36.4449 122.956 34.5635 124.286 32.513 125.148C31.0569 125.756 29.5245 126.138 27.943 126.279C27.9212 125.745 27.9539 124.997 28.2375 124.388C28.3411 124.168 28.4938 123.839 28.8156 123.521C28.9137 123.43 28.9901 123.371 29.1646 123.236L29.3118 123.123C29.7263 122.805 30.059 122.536 30.2771 122.358C30.577 122.116 30.6206 121.68 30.3752 121.384C30.1298 121.087 29.6881 121.044 29.3882 121.287C29.1755 121.459 28.8483 121.723 28.4447 122.03L28.303 122.143C28.063 122.326 27.9648 122.407 27.834 122.531C27.3213 123.026 27.0759 123.559 26.956 123.812C26.3616 125.099 26.5415 126.672 26.6124 127.124C26.6669 127.463 26.9614 127.711 27.305 127.711H27.3104Z" fill="#408F95"/>
<path d="M23.6239 115.508C23.673 115.508 23.7221 115.508 23.7711 115.492C24.371 115.368 25.0091 115.196 25.7071 114.975C26.0779 114.857 26.2797 114.469 26.1597 114.103C26.0397 113.737 25.6471 113.538 25.2763 113.656C24.6219 113.861 24.0329 114.022 23.4767 114.135C23.0949 114.216 22.855 114.582 22.9368 114.959C23.0077 115.288 23.2967 115.508 23.6239 115.508Z" fill="#408F95"/>
<path d="M21.6607 115.832C22.3042 115.832 23.0295 115.718 23.8256 115.482C24.1965 115.374 24.4092 114.986 24.2946 114.62C24.1856 114.254 23.7929 114.044 23.4221 114.157C21.6879 114.668 20.6354 114.437 20.39 114.006C20.161 113.608 20.4827 112.676 21.7152 111.583C22.0042 111.324 22.026 110.888 21.7697 110.603C21.5079 110.317 21.0663 110.296 20.7772 110.549C19.1303 112.014 18.525 113.559 19.1685 114.685C19.5993 115.438 20.4827 115.832 21.6607 115.832Z" fill="#408F95"/>
<path d="M22.9806 110.662C23.106 110.662 23.2314 110.63 23.3459 110.56C24.7147 109.736 26.1326 108.966 27.5669 108.271C32.6767 105.799 38.2064 104.152 44.0143 103.381C44.396 103.333 44.6687 102.983 44.6141 102.601C44.5596 102.224 44.2106 101.954 43.8234 102.008C37.8683 102.8 32.1913 104.491 26.9452 107.027C25.4727 107.738 24.0112 108.53 22.6097 109.38C22.2771 109.58 22.1734 110.005 22.3752 110.333C22.5061 110.549 22.7406 110.667 22.9751 110.667L22.9806 110.662Z" fill="#408F95"/>
<path d="M53.0177 103.823C53.3394 103.823 53.6285 103.608 53.6994 103.284C53.7866 102.913 53.5467 102.541 53.1704 102.455C52.0361 102.202 50.869 102.014 49.7129 101.906C48.6059 101.804 47.4825 101.766 46.3646 101.804C46.1028 101.809 45.8846 101.82 45.7265 101.831C45.3393 101.852 45.0448 102.175 45.0612 102.558C45.0775 102.94 45.4157 103.231 45.7974 103.214C45.9446 103.209 46.1519 103.198 46.4027 103.188C47.4607 103.155 48.5295 103.188 49.5766 103.29C50.6782 103.392 51.7798 103.565 52.8541 103.807C52.9086 103.818 52.9577 103.823 53.0122 103.823H53.0177Z" fill="#408F95"/>
<path d="M41.8877 104.324C42.0404 104.324 42.1876 104.232 42.2476 104.081C42.3239 103.882 42.2258 103.661 42.024 103.586C41.9258 103.548 41.784 103.5 41.615 103.446C40.9715 103.241 40.2953 103.123 39.6081 103.096C39.0792 103.074 38.5393 103.101 38.0103 103.188C37.7976 103.22 37.6558 103.419 37.6886 103.624C37.7213 103.834 37.9231 103.968 38.1303 103.941C38.6047 103.866 39.0901 103.839 39.5645 103.861C40.1808 103.888 40.7915 103.995 41.3696 104.178C41.5223 104.227 41.6477 104.275 41.735 104.308C41.7786 104.324 41.8277 104.335 41.8713 104.335L41.8877 104.324Z" fill="#408F95"/>
<path d="M38.419 105.476C38.599 105.476 38.7572 105.352 38.7953 105.175C38.839 104.97 38.7081 104.765 38.5008 104.722C38.4081 104.701 38.2664 104.674 38.0973 104.642C37.4647 104.523 36.8048 104.442 36.1341 104.399C35.616 104.367 35.0979 104.356 34.5908 104.372C34.3781 104.378 34.209 104.555 34.2145 104.765C34.2199 104.975 34.4108 105.126 34.6126 105.137C35.0979 105.121 35.5887 105.132 36.085 105.158C36.7176 105.196 37.3502 105.277 37.9501 105.39C38.1082 105.422 38.2445 105.449 38.3318 105.465C38.3591 105.471 38.3863 105.476 38.4136 105.476H38.419Z" fill="#408F95"/>
<path d="M34.0946 107.07C34.2637 107.07 34.4164 106.962 34.4655 106.796C34.5255 106.591 34.4055 106.381 34.2037 106.322C34.1055 106.295 33.9692 106.257 33.7947 106.214C33.1567 106.058 32.4914 105.961 31.8151 105.929C31.2916 105.902 30.7626 105.907 30.25 105.955C30.0373 105.972 29.8792 106.16 29.901 106.37C29.9228 106.58 30.1137 106.736 30.3209 106.715C30.8008 106.672 31.2916 106.666 31.777 106.693C32.4041 106.726 33.0258 106.817 33.6147 106.962C33.7729 107 33.9038 107.038 33.991 107.059C34.0292 107.07 34.0619 107.076 34.1001 107.076L34.0946 107.07Z" fill="#408F95"/>
<path d="M30.9314 123.963C30.9913 123.963 31.0568 123.947 31.1168 123.914L33.8816 122.444C34.0671 122.342 34.138 122.11 34.0398 121.927C33.9362 121.744 33.7017 121.674 33.5163 121.771L30.7514 123.241C30.566 123.344 30.4951 123.575 30.5933 123.758C30.6641 123.888 30.795 123.958 30.9314 123.958V123.963Z" fill="#408F95"/>
<path d="M11.8663 130.28C12.0408 130.28 12.2153 130.204 12.3298 130.053C13.0006 129.181 13.5296 128.217 13.8895 127.194C14.3748 125.831 14.8275 124.539 14.2331 123.29C13.6223 122.014 12.2916 121.545 10.8792 121.055C9.72309 120.651 8.50698 120.446 7.26906 120.441C6.94731 120.441 6.691 120.694 6.691 121.012C6.691 121.33 6.94731 121.583 7.26906 121.588C8.3761 121.588 9.46131 121.777 10.492 122.137C11.7736 122.584 12.7824 122.934 13.186 123.78C13.5786 124.609 13.2351 125.584 12.7988 126.822C12.4771 127.732 12.008 128.589 11.4082 129.369C11.2118 129.623 11.2664 129.978 11.5172 130.172C11.6209 130.253 11.7463 130.29 11.8663 130.29V130.28Z" fill="#408F95"/>
<path d="M141.635 61.0714C141.881 61.0714 142.126 60.9529 142.273 60.7375C142.699 60.129 142.928 59.4882 142.96 58.8313C143.129 55.5572 138.434 53.2416 135.009 51.5507C131.426 49.7844 127.544 48.492 123.475 47.7112C123.056 47.6304 122.652 47.8997 122.57 48.3143C122.488 48.729 122.761 49.1275 123.181 49.2082C127.113 49.9621 130.865 51.2115 134.317 52.9131C137.016 54.2486 141.532 56.478 141.417 58.7559C141.401 59.122 141.259 59.499 140.997 59.8759C140.757 60.226 140.844 60.6999 141.199 60.9368C141.33 61.0283 141.483 61.0714 141.635 61.0714Z" fill="#408F95"/>
<path d="M128.373 69.8221C128.449 69.8221 128.525 69.8113 128.596 69.7898C130.412 69.2459 132.206 68.6104 133.93 67.9104C134.682 67.6034 135.713 67.1834 137.038 66.5211C138.249 65.9179 139.432 65.2448 140.567 64.5232C140.61 64.4963 140.648 64.464 140.687 64.4317C140.741 64.3778 140.834 64.297 140.943 64.2001C142.181 63.1123 143.364 61.96 143.081 60.8991C143.004 60.6083 142.742 60.0914 141.87 59.9083C141.455 59.8221 141.041 60.0806 140.954 60.4952C140.866 60.8937 141.117 61.2868 141.51 61.3891C141.363 61.6584 140.943 62.1484 139.918 63.0585C139.819 63.1447 139.738 63.22 139.672 63.2739C138.603 63.9524 137.485 64.5825 136.346 65.1533C135.075 65.7887 134.077 66.198 133.346 66.4941C131.672 67.178 129.922 67.7919 128.155 68.325C127.746 68.4489 127.517 68.8743 127.642 69.2782C127.746 69.6067 128.051 69.8221 128.384 69.8221H128.373Z" fill="#408F95"/>
<path d="M119.849 70.3713C122.445 70.3713 125.057 70.2637 127.647 70.0483C128.073 70.0106 128.389 69.6444 128.351 69.2243C128.318 68.8043 127.942 68.492 127.517 68.5297C124.108 68.8151 120.667 68.9066 117.28 68.8097C117.21 68.8097 109.531 68.5351 103.151 67.2157C101.177 66.8065 99.1916 66.2572 97.2611 65.5841C96.3995 65.2825 95.9359 65.094 93.9836 64.2971L91.6168 63.3331C90.957 63.0639 90.368 62.8162 89.8227 62.59C88.1158 61.8738 86.8833 61.3622 85.4163 60.9799C83.4204 60.4629 81.3099 60.2314 79.1286 60.2798C78.7032 60.2906 78.3651 60.6406 78.376 61.0607C78.3869 61.4807 78.7577 61.8038 79.1667 61.8038C81.2008 61.7553 83.1695 61.9761 85.0237 62.4554C86.3816 62.8054 87.5704 63.3062 89.2173 63.9901C89.7627 64.2217 90.3571 64.4694 91.0224 64.7386L93.3892 65.7026C95.3197 66.4941 95.8378 66.7042 96.743 67.0165C98.739 67.7112 100.789 68.282 102.834 68.702C109.351 70.0483 117.155 70.3229 117.237 70.3283C118.104 70.3552 118.976 70.366 119.854 70.366L119.849 70.3713Z" fill="#408F95"/>
<path d="M78.1796 54.7871C78.1796 54.7871 78.2014 54.7871 78.2123 54.7871C78.7577 54.7656 79.303 54.7171 79.8374 54.6364C81.1135 54.4533 82.0733 54.1463 82.4823 54.0117L82.6023 53.974C86.9486 52.6493 91.3932 51.5023 95.8213 50.5545C99.895 49.6821 103.118 48.9982 107.361 48.6105C111.838 48.2067 116.408 48.2336 120.934 48.6967C121.36 48.7452 121.741 48.4382 121.785 48.0182C121.829 47.5981 121.523 47.2212 121.098 47.1781C116.473 46.7042 111.805 46.6773 107.224 47.0866C102.889 47.4797 99.6278 48.1743 95.4996 49.0575C91.0278 50.0106 86.5342 51.1738 82.1497 52.5093L82.0079 52.5524C81.637 52.6708 80.7645 52.9508 79.6193 53.1178C79.1612 53.1824 78.6977 53.2309 78.2341 53.247C77.487 53.1178 76.7453 52.9347 76.0255 52.6977C75.1639 52.4123 74.5476 52.1269 74.3131 52.0192C71.9954 50.9476 66.6457 48.9767 62.0103 47.652C59.3981 46.9035 57.4022 46.4673 54.9154 46.435C54.1628 46.4242 53.4048 46.4511 52.6632 46.5158C52.2378 46.5535 51.9215 46.925 51.9597 47.345C51.9979 47.7651 52.3687 48.0774 52.7995 48.0397C53.4921 47.9805 54.1956 47.9589 54.8991 47.9643C57.2058 47.9966 59.0982 48.4113 61.5849 49.1221C66.6293 50.5653 71.7609 52.5254 73.6424 53.3924C73.9205 53.5217 74.5967 53.834 75.5456 54.1463C76.3691 54.4156 77.2143 54.6256 78.0651 54.771C78.1087 54.7764 78.1523 54.7817 78.196 54.7817L78.1796 54.7871Z" fill="#408F95"/>
<path d="M55.5483 72.5846C55.652 72.5846 55.761 72.563 55.8592 72.52L66.7005 67.7812C68.6746 66.8011 70.6052 65.7456 72.4702 64.6417C73.8717 63.807 75.2678 62.9239 76.6148 62.0192C76.9693 61.7823 77.0565 61.3084 76.8166 60.9584C76.5766 60.6083 76.0967 60.5168 75.7423 60.7591C74.4171 61.6476 73.0483 62.5146 71.6686 63.3331C69.8362 64.4209 67.9439 65.4548 66.0352 66.4026L55.232 71.1252C54.8394 71.2976 54.6649 71.7445 54.8394 72.1322C54.9648 72.4176 55.2484 72.5846 55.5483 72.5846Z" fill="#408F95"/>
<path d="M55.5483 72.5846C55.7664 72.5846 55.9845 72.493 56.1372 72.3153C58.1059 70.0105 59.6383 67.4688 60.6908 64.7601C61.5743 62.4931 62.2669 60.7052 61.9778 58.3843C61.6452 55.7564 60.2436 53.9955 58.4713 51.7661L58.3186 51.5723C56.8571 49.736 55.1338 48.0882 53.1815 46.6719C52.8379 46.4242 52.3526 46.4942 52.1017 46.8335C51.8509 47.1727 51.9218 47.652 52.2653 47.8997C54.1031 49.2352 55.7282 50.786 57.1025 52.5146L57.2552 52.7085C58.9457 54.8302 60.1673 56.3649 60.4454 58.5728C60.6908 60.5114 60.1182 61.9815 59.2511 64.2109C58.2586 66.7634 56.8135 69.1597 54.9539 71.3299C54.6812 71.653 54.7193 72.1322 55.0466 72.4069C55.1938 72.5253 55.3683 72.5846 55.5428 72.5846H55.5483Z" fill="#408F95"/>
<path d="M121.523 64.5932C123.726 64.5932 125.428 63.7747 126.306 63.2416C126.671 63.0208 126.78 62.5523 126.557 62.1915C126.333 61.8307 125.859 61.7176 125.493 61.9438C124.659 62.45 122.93 63.2631 120.721 63.0208C118.507 62.7785 117.144 61.6261 116.239 60.8668C115.95 60.6245 115.775 60.4467 115.672 60.3283C116.037 60.1883 116.888 60.0483 118.78 59.9998C120.945 59.9513 123.181 60.1937 125.417 60.7322C125.831 60.8345 126.251 60.5814 126.349 60.1721C126.453 59.7629 126.197 59.3482 125.782 59.2513C123.415 58.6805 121.043 58.422 118.742 58.4758C116.43 58.5297 114.33 58.6859 114.019 59.9729C113.872 60.5868 114.221 61.1845 115.23 62.0353C116.211 62.8646 117.858 64.2486 120.547 64.5447C120.88 64.5824 121.207 64.5986 121.518 64.5986L121.523 64.5932Z" fill="#408F95"/>
<path d="M130.222 66.8495C130.451 66.8495 130.68 66.7472 130.832 66.5534C131.094 66.2195 131.034 65.7402 130.696 65.4818C129.115 64.2701 127.871 62.7892 126.993 61.0768C126.53 60.1721 126.175 59.2028 125.941 58.2066C125.842 57.7973 125.428 57.5389 125.014 57.6358C124.599 57.7327 124.337 58.142 124.436 58.5513C124.697 59.6713 125.095 60.7537 125.613 61.7661C126.59 63.6832 127.98 65.3364 129.747 66.688C129.889 66.7957 130.052 66.8495 130.222 66.8495Z" fill="#408F95"/>
<path d="M136.21 57.9265C136.21 57.9265 136.226 57.9265 136.237 57.9265C137.169 57.9158 137.922 57.1511 137.905 56.2303C137.895 55.3148 137.137 54.5825 136.21 54.5825C136.204 54.5825 136.193 54.5825 136.188 54.5825C135.255 54.5932 134.503 55.3579 134.519 56.2787C134.53 57.1942 135.288 57.9265 136.215 57.9265H136.21ZM136.21 56.1064C136.291 56.1064 136.357 56.171 136.357 56.2518C136.357 56.3003 136.335 56.338 136.313 56.3541C136.291 56.3757 136.259 56.3972 136.21 56.3972C136.133 56.3972 136.062 56.3326 136.057 56.2518C136.057 56.171 136.122 56.1064 136.204 56.101L136.21 56.1064Z" fill="#408F95"/>
<path d="M111.167 74.0385C112.52 74.0385 113.878 73.9093 115.208 73.6616C120.1 72.7354 122.848 71.723 127.407 70.0375C127.806 69.8921 128.007 69.4505 127.86 69.0574C127.707 68.6643 127.266 68.465 126.868 68.6104C122.232 70.3229 119.68 71.2652 114.919 72.1645C113.687 72.3961 112.422 72.5146 111.173 72.5146H111.151C110.235 72.5146 109.308 72.45 108.397 72.3207C107.628 72.213 106.968 71.9491 106.734 71.7714C106.957 71.4807 107.846 70.7537 110.267 69.7251C110.66 69.5582 110.84 69.1112 110.671 68.7235C110.502 68.3358 110.049 68.1581 109.657 68.325C105.376 70.1398 105.005 71.276 105.163 72.0622C105.43 73.3869 107.726 73.7747 108.179 73.8393C109.16 73.9739 110.158 74.0439 111.145 74.0493H111.173L111.167 74.0385Z" fill="#408F95"/>
<path d="M91.0279 70.9529C91.3769 70.9529 91.7259 70.9475 92.0749 70.9314C95.4506 70.7806 98.8317 69.8705 101.847 68.3035C102.224 68.1096 102.371 67.6465 102.169 67.275C101.973 66.9034 101.504 66.758 101.128 66.9572C98.3081 68.422 95.1506 69.2674 92.004 69.4128C89.6972 69.5151 87.4014 69.2513 85.1709 68.632C85.3945 67.8942 85.8362 66.7634 86.6052 65.9987C86.8451 65.7618 87.2378 65.3687 87.8594 65.0994C88.023 65.0294 88.1485 64.9863 88.4866 64.884L88.7265 64.8086C89.4246 64.5878 89.9917 64.3994 90.368 64.2701C90.7716 64.1355 90.9842 63.6993 90.8479 63.3008C90.7061 62.9023 90.2698 62.6923 89.8663 62.8269C89.4955 62.9508 88.9447 63.1393 88.2575 63.3547L88.0176 63.4301C87.6522 63.5432 87.4722 63.6024 87.2268 63.7047C86.3434 64.0924 85.7981 64.6309 85.509 64.9163C84.1293 66.2841 83.6058 68.3843 83.4804 68.9928C83.3986 69.3751 83.6276 69.7574 84.0039 69.8759C86.2889 70.5921 88.6502 70.9583 91.0224 70.9583L91.0279 70.9529Z" fill="#408F95"/>
<path d="M88.1269 52.3693C88.5359 52.3693 88.8795 52.0515 88.9013 51.6423C88.9231 51.2222 88.5905 50.8668 88.1651 50.8453C87.1999 50.8022 86.3437 50.7214 85.5475 50.6084C85.1276 50.5437 84.7295 50.8345 84.6695 51.2492C84.6041 51.6638 84.8985 52.0569 85.3184 52.1162C86.1637 52.24 87.0744 52.3262 88.0942 52.3693C88.1051 52.3693 88.116 52.3693 88.1324 52.3693H88.1269Z" fill="#408F95"/>
<path d="M85.4326 52.1215C85.8361 52.1215 86.1742 51.8092 86.2015 51.4053C86.2288 50.9853 85.907 50.6191 85.4817 50.5922C82.8259 50.4253 81.5116 49.5529 81.3862 48.7613C81.2771 48.0774 82.0133 46.9466 84.4564 45.9934C84.8545 45.8372 85.0454 45.3957 84.8927 45.0026C84.7346 44.6095 84.2874 44.4156 83.8893 44.5718C81.1026 45.6595 79.5975 47.3181 79.8647 48.9982C80.1428 50.7484 82.2096 51.9115 85.389 52.1162C85.4053 52.1162 85.4217 52.1162 85.438 52.1162L85.4326 52.1215Z" fill="#408F95"/>
<path d="M118.055 45.9988C118.409 45.9988 118.726 45.7565 118.808 45.4064C118.9 44.9972 118.638 44.5879 118.224 44.4964C110.038 42.6708 101.777 42.1539 93.6619 42.9562C91.3824 43.1824 89.0865 43.5163 86.8288 43.9471C86.4089 44.0279 86.1362 44.4264 86.218 44.841C86.2998 45.2556 86.7034 45.5249 87.1233 45.4441C89.3319 45.0187 91.5787 44.6902 93.8146 44.4694C101.76 43.6832 109.858 44.1894 117.88 45.9826C117.94 45.9934 117.995 46.0042 118.049 46.0042L118.055 45.9988Z" fill="#408F95"/>
<path d="M129.774 50.953C130.025 50.953 130.276 50.8291 130.423 50.6084C130.658 50.2583 130.559 49.7845 130.199 49.5529C128.842 48.6751 127.413 47.8782 125.957 47.1835C124.561 46.5158 123.11 45.9342 121.638 45.4441C121.294 45.331 121 45.2395 120.792 45.1749C120.389 45.0456 119.953 45.2718 119.827 45.6757C119.702 46.0796 119.925 46.505 120.334 46.6288C120.531 46.6881 120.809 46.7796 121.141 46.8873C122.554 47.3558 123.944 47.9212 125.28 48.5567C126.682 49.2244 128.051 49.9891 129.349 50.8291C129.48 50.9153 129.627 50.953 129.769 50.953H129.774Z" fill="#408F95"/>
<path d="M114.958 47.0327C115.116 47.0327 115.279 46.9681 115.394 46.8388C115.606 46.6019 115.585 46.2411 115.345 46.0311C115.236 45.9341 115.078 45.7995 114.876 45.6434C114.129 45.0618 113.3 44.5825 112.411 44.2109C111.724 43.9255 111.004 43.7047 110.262 43.5594C109.951 43.4947 109.646 43.6994 109.58 44.0117C109.52 44.324 109.722 44.6202 110.039 44.6848C110.698 44.8141 111.342 45.0079 111.958 45.2664C112.754 45.6003 113.496 46.0311 114.161 46.548C114.341 46.688 114.483 46.8065 114.581 46.8927C114.69 46.9896 114.827 47.0381 114.963 47.0381L114.958 47.0327Z" fill="#408F95"/>
<path d="M109.646 46.3057C109.836 46.3057 110.022 46.2142 110.136 46.0419C110.311 45.778 110.229 45.4226 109.962 45.2503C109.847 45.1749 109.678 45.0726 109.471 44.9487C108.697 44.4856 107.873 44.0602 107.012 43.6832C106.352 43.3925 105.67 43.1286 104.994 42.9078C104.688 42.8055 104.361 42.967 104.258 43.2686C104.154 43.5702 104.318 43.8933 104.623 43.9956C105.267 44.2056 105.91 44.4587 106.537 44.7333C107.35 45.0941 108.135 45.4926 108.866 45.9342C109.062 46.0526 109.22 46.1496 109.329 46.2196C109.427 46.2788 109.537 46.3111 109.64 46.3111L109.646 46.3057Z" fill="#408F95"/>
<path d="M103.184 46.3165C103.364 46.3165 103.538 46.2357 103.653 46.0849C103.843 45.8318 103.789 45.471 103.533 45.2826C103.418 45.2018 103.254 45.0833 103.053 44.9433C102.289 44.4317 101.46 43.9848 100.588 43.6078C99.9115 43.317 99.2135 43.0747 98.5155 42.8862C98.2046 42.8055 97.8883 42.9832 97.8011 43.2847C97.7138 43.5917 97.8992 43.904 98.2046 43.9902C98.8536 44.1679 99.4971 44.394 100.119 44.6579C100.926 45.0025 101.689 45.4226 102.393 45.8911C102.584 46.0149 102.731 46.128 102.835 46.2034C102.938 46.2788 103.058 46.3165 103.178 46.3165H103.184Z" fill="#408F95"/>
<path d="M90.6896 66.9573C90.6896 66.9573 90.7441 66.9573 90.7714 66.9519L95.1287 66.3541C95.445 66.3111 95.6686 66.0203 95.6249 65.7079C95.5813 65.3956 95.2868 65.1748 94.9705 65.2179L90.6133 65.8156C90.297 65.8587 90.0734 66.1495 90.117 66.4618C90.1552 66.7472 90.406 66.9573 90.6896 66.9573Z" fill="#408F95"/>
<path d="M62.6485 65.8048C62.7522 65.8048 62.8612 65.7779 62.9594 65.7133C64.2518 64.9001 65.4025 63.9093 66.3678 62.7569C67.6439 61.2329 68.8491 59.7951 68.6964 57.9642C68.5382 56.0903 67.0494 54.8679 65.4789 53.5701C64.181 52.4985 62.714 51.6584 61.1161 51.0661C60.8162 50.953 60.4836 51.1037 60.369 51.3999C60.2545 51.6961 60.4072 52.0246 60.7071 52.1377C62.185 52.6869 63.5375 53.4624 64.7372 54.4478C66.2369 55.6864 67.4203 56.6611 67.5402 58.0558C67.6548 59.4236 66.695 60.5706 65.4789 62.0245C64.59 63.0854 63.5374 63.9955 62.3432 64.744C62.0705 64.9109 61.9941 65.2663 62.1632 65.5356C62.2723 65.7079 62.4631 65.7994 62.654 65.7994L62.6485 65.8048Z" fill="#408F95"/>
<path d="M234.594 77.5872C234.878 77.5872 235.145 77.4149 235.248 77.1402C235.45 76.6233 235.499 76.1117 235.407 75.6217C234.943 73.2253 231.235 72.3907 228.53 71.7768C225.727 71.1413 222.798 70.8936 219.826 71.0283C219.439 71.0444 219.139 71.3729 219.155 71.7552C219.172 72.1376 219.499 72.423 219.892 72.4176C222.738 72.283 225.536 72.5253 228.214 73.1284C230.28 73.5969 233.738 74.3777 234.027 75.8802C234.07 76.1117 234.038 76.3702 233.934 76.6448C233.798 77.0002 233.978 77.4041 234.343 77.5387C234.425 77.5711 234.507 77.5818 234.594 77.5818V77.5872Z" fill="#408F95"/>
<path d="M226.883 85.8694C227.003 85.8694 227.129 85.837 227.238 85.7724C228.41 85.0885 229.55 84.3454 230.63 83.57C231.099 83.2307 231.748 82.7676 232.56 82.0783C233.302 81.4536 234.011 80.7859 234.676 80.0966C234.709 80.0643 234.736 80.0266 234.763 79.9889C234.791 79.9458 234.84 79.8758 234.9 79.7951C235.598 78.7934 236.247 77.7541 235.827 76.9949C235.707 76.7741 235.401 76.4079 234.681 76.4348C234.294 76.4456 233.989 76.7633 234 77.1456C234.011 77.4472 234.212 77.7003 234.491 77.7865C234.398 78.0126 234.185 78.3842 233.749 79.0088C233.7 79.0789 233.656 79.1435 233.623 79.1919C233.007 79.8328 232.342 80.452 231.655 81.0282C230.88 81.6798 230.264 82.1268 229.812 82.4499C228.77 83.1984 227.668 83.9146 226.534 84.5769C226.201 84.7708 226.092 85.1962 226.289 85.5247C226.42 85.7455 226.654 85.864 226.894 85.864L226.883 85.8694Z" fill="#408F95"/>
<path d="M208.031 89.3588C208.391 89.3588 208.745 89.3534 209.1 89.3427C213.866 89.1919 219.172 88.1149 219.396 88.0664C221.812 87.5602 224.227 86.9086 226.594 86.1278C226.96 86.004 227.161 85.6162 227.036 85.2501C226.911 84.8893 226.518 84.69 226.147 84.8139C223.835 85.5785 221.463 86.214 219.107 86.7094C219.058 86.7202 213.691 87.8079 209.051 87.9587C207.616 88.0072 206.149 87.9587 204.704 87.8079C204.055 87.7433 203.701 87.6895 202.207 87.4579L200.407 87.1833C199.905 87.1079 199.453 87.0325 199.038 86.9679C197.729 86.7579 196.781 86.6017 195.69 86.5855C194.207 86.5586 192.68 86.7525 191.164 87.151C190.787 87.2479 190.569 87.6302 190.667 88.0018C190.765 88.3734 191.153 88.5888 191.529 88.4918C192.92 88.1257 194.31 87.948 195.668 87.9695C196.661 87.9856 197.566 88.131 198.815 88.3357C199.235 88.4057 199.693 88.4757 200.2 88.5565L201.994 88.8311C203.477 89.0573 203.881 89.1219 204.563 89.1865C205.713 89.2996 206.875 89.3588 208.025 89.3588H208.031Z" fill="#408F95"/>
<path d="M188.671 83.8284C188.955 83.8284 189.244 83.8176 189.527 83.8015C189.577 83.8015 189.626 83.7907 189.669 83.7745C190.046 83.6668 190.422 83.5376 190.787 83.3922C191.654 83.0476 192.271 82.6706 192.538 82.5091L192.609 82.466C195.395 80.8236 198.28 79.2888 201.187 77.8941C203.864 76.6125 205.975 75.6001 208.849 74.6308C211.881 73.6076 215.044 72.8699 218.256 72.4337C218.638 72.3799 218.91 72.0352 218.856 71.6529C218.801 71.2759 218.452 71.0013 218.065 71.0605C214.76 71.5021 211.51 72.2614 208.391 73.3169C205.44 74.3131 203.292 75.3416 200.576 76.6448C197.631 78.0557 194.708 79.6119 191.889 81.2705L191.796 81.3244C191.562 81.4698 191.011 81.8036 190.258 82.1052C189.964 82.2237 189.658 82.326 189.353 82.4175C188.824 82.4498 188.29 82.4444 187.766 82.4014C187.123 82.3475 186.654 82.256 186.479 82.2183C184.679 81.8575 180.622 81.3836 177.17 81.2328C175.218 81.152 173.745 81.179 172 81.5721C171.471 81.6905 170.948 81.8413 170.435 82.0083C170.07 82.1321 169.873 82.5252 169.993 82.886C170.119 83.2468 170.517 83.4407 170.882 83.3222C171.346 83.166 171.826 83.0314 172.311 82.9237C173.904 82.5629 175.272 82.536 177.11 82.6168C180.846 82.7783 184.734 83.2791 186.185 83.5699C186.397 83.613 186.926 83.7207 187.652 83.7799C187.99 83.8069 188.333 83.823 188.671 83.823V83.8284Z" fill="#408F95"/>
<path d="M176.815 99.9242C176.963 99.9242 177.115 99.8757 177.241 99.7788L183.954 94.6792C185.165 93.6614 186.326 92.606 187.433 91.5236C188.262 90.7105 189.086 89.865 189.871 89.0088C190.133 88.7234 190.111 88.2872 189.822 88.0287C189.533 87.7702 189.091 87.7918 188.829 88.0772C188.06 88.9172 187.259 89.7411 186.446 90.5381C185.366 91.5936 184.227 92.6275 183.07 93.6022L176.385 98.6803C176.079 98.9118 176.019 99.348 176.254 99.6549C176.39 99.8327 176.603 99.9242 176.81 99.9242H176.815Z" fill="#408F95"/>
<path d="M176.81 99.9242C177.066 99.9242 177.317 99.7842 177.437 99.5419C178.419 97.5979 179.051 95.5624 179.324 93.4891C179.553 91.7498 179.733 90.3766 179.117 88.7773C178.424 86.9733 177.137 85.9717 175.507 84.7062L175.365 84.5985C174.029 83.5592 172.535 82.6976 170.926 82.0298C170.566 81.8791 170.157 82.046 170.01 82.4014C169.863 82.7568 170.026 83.1607 170.386 83.3061C171.875 83.92 173.26 84.7223 174.498 85.6809L174.64 85.7886C176.156 86.9679 177.252 87.8187 177.808 89.2619C178.299 90.5328 178.152 91.6367 177.934 93.3007C177.683 95.2177 177.094 97.1079 176.183 98.9118C176.008 99.2565 176.15 99.6711 176.499 99.8434C176.597 99.8919 176.707 99.9188 176.81 99.9188V99.9242Z" fill="#408F95"/>
<path d="M219.903 83.543C220.159 83.543 220.426 83.5269 220.699 83.4945C222.651 83.2468 223.955 82.1968 224.56 81.5936C224.833 81.319 224.833 80.8828 224.554 80.6136C224.276 80.3443 223.835 80.3443 223.562 80.619C223.082 81.0982 222.057 81.9275 220.519 82.1214C218.986 82.3206 217.869 81.7606 217.127 81.389C217.018 81.3352 216.931 81.2867 216.86 81.249C217.203 81.0767 217.825 80.8774 218.714 80.6405C220.197 80.2474 221.773 80.0481 223.404 80.0481C223.791 80.0481 224.107 79.7358 224.107 79.3535C224.107 78.9711 223.791 78.6588 223.404 78.6588C221.648 78.6588 219.952 78.8742 218.348 79.2996C216.631 79.7573 215.213 80.2151 215.218 81.2705C215.218 81.906 215.834 82.2991 216.494 82.6276C217.17 82.9614 218.343 83.5484 219.903 83.5484V83.543Z" fill="#408F95"/>
<path d="M227.657 83.4999C227.925 83.4999 228.181 83.3492 228.301 83.0907C228.459 82.7406 228.301 82.3314 227.947 82.1752C226.665 81.6044 225.563 80.7967 224.68 79.7735C224.211 79.2296 223.807 78.6265 223.48 77.9857C223.306 77.641 222.886 77.5064 222.537 77.6787C222.188 77.8511 222.051 78.2657 222.226 78.6103C222.602 79.3535 223.071 80.0481 223.611 80.6782C224.631 81.8629 225.896 82.7945 227.374 83.4461C227.467 83.4892 227.565 83.5053 227.663 83.5053L227.657 83.4999Z" fill="#408F95"/>
<path d="M230.133 76.3271C230.248 76.3271 230.362 76.311 230.477 76.284C231.202 76.101 231.644 75.3632 231.453 74.647C231.36 74.297 231.142 74.0062 230.826 73.8285C230.51 73.6454 230.144 73.5969 229.795 73.6831C229.441 73.7746 229.146 73.99 228.961 74.3024C228.775 74.6093 228.726 74.9755 228.814 75.3201C228.906 75.6648 229.124 75.9609 229.441 76.1386C229.653 76.2625 229.888 76.3271 230.128 76.3271H230.133ZM230.133 74.9432C230.133 74.9432 230.172 74.9593 230.177 74.9755C230.177 74.997 230.166 75.0239 230.144 75.0293C230.117 75.0347 230.095 75.0186 230.09 74.997C230.084 74.9755 230.095 74.9486 230.122 74.9432C230.122 74.9432 230.122 74.9432 230.128 74.9432H230.133Z" fill="#408F95"/>
<path d="M213.168 92.0298C213.391 92.0298 213.577 92.0137 213.697 92.0029C214.406 91.9329 215.12 91.8144 215.813 91.6475C216.761 91.4213 217.699 91.0982 218.594 90.6997C221.839 89.2404 223.578 88.0718 226.463 86.1386C226.785 85.9232 226.867 85.4924 226.648 85.1747C226.43 84.857 225.994 84.7762 225.672 84.9916C222.755 86.9464 221.146 88.0234 218.01 89.4396C217.198 89.8058 216.342 90.0966 215.48 90.3012C214.853 90.452 214.204 90.5597 213.56 90.6243C213.162 90.662 212.775 90.6297 212.546 90.5812C212.748 90.2743 213.309 89.6766 214.52 88.7773C214.831 88.5457 214.891 88.1149 214.662 87.808C214.427 87.501 213.991 87.4418 213.68 87.668C210.948 89.6927 210.872 90.5866 211.155 91.1897C211.488 91.9006 212.491 92.0298 213.173 92.0298H213.168Z" fill="#408F95"/>
<path d="M197.391 93.3276C198.973 93.3276 200.532 93.1068 202.054 92.6706C204.393 91.9975 206.602 90.7912 208.445 89.1865C208.734 88.9334 208.762 88.4972 208.505 88.2064C208.249 87.921 207.807 87.8941 207.513 88.1472C205.822 89.6173 203.799 90.7212 201.656 91.3405C200.134 91.7767 198.564 91.9759 196.982 91.9382C197.02 91.4105 197.146 90.662 197.495 90.0912C197.62 89.8866 197.811 89.5742 198.177 89.2996C198.286 89.2188 198.367 89.1704 198.558 89.0573L198.716 88.9657C199.164 88.6965 199.529 88.4703 199.769 88.3195C200.096 88.1149 200.189 87.6841 199.982 87.361C199.774 87.0379 199.338 86.9463 199.011 87.151C198.776 87.3018 198.427 87.5172 197.986 87.781L197.833 87.8726C197.577 88.0287 197.468 88.0934 197.32 88.2011C196.748 88.6319 196.442 89.1327 196.295 89.375C195.548 90.592 195.548 92.1698 195.564 92.6221C195.575 92.9776 195.859 93.263 196.219 93.2899C196.611 93.3168 196.999 93.3276 197.391 93.3276Z" fill="#408F95"/>
<path d="M194.053 80.7428C194.053 80.7428 194.097 80.7428 194.119 80.7428C194.735 80.6889 195.384 80.592 196.104 80.4574C196.486 80.382 196.731 80.0212 196.66 79.6442C196.584 79.2673 196.213 79.025 195.837 79.095C195.16 79.2242 194.561 79.3104 193.993 79.3642C193.606 79.3965 193.323 79.7358 193.355 80.1181C193.388 80.4789 193.694 80.7482 194.053 80.7482V80.7428Z" fill="#408F95"/>
<path d="M192.696 80.872C193.154 80.872 193.65 80.829 194.179 80.7374C194.561 80.6728 194.817 80.312 194.747 79.935C194.681 79.5581 194.316 79.305 193.934 79.375C192.151 79.6873 191.136 79.3319 190.94 78.8796C190.76 78.4596 191.185 77.571 192.543 76.6233C192.86 76.4025 192.936 75.9717 192.712 75.6593C192.489 75.347 192.053 75.2716 191.736 75.4924C189.926 76.7579 189.146 78.2226 189.648 79.4127C190.051 80.3658 191.153 80.8774 192.696 80.8774V80.872Z" fill="#408F95"/>
<path d="M193.994 75.8586C194.092 75.8586 194.19 75.8371 194.288 75.794C195.744 75.1316 197.244 74.5339 198.755 74.0115C204.121 72.1483 209.814 71.1521 215.671 71.0552C216.058 71.0498 216.369 70.7321 216.364 70.3497C216.358 69.9674 216.026 69.6605 215.649 69.6658C209.64 69.7628 203.799 70.7859 198.291 72.6976C196.742 73.2361 195.199 73.85 193.705 74.5285C193.35 74.6901 193.198 75.0993 193.361 75.4493C193.481 75.7024 193.732 75.8532 193.999 75.8532L193.994 75.8586Z" fill="#408F95"/>
<path d="M224.631 72.5414C224.92 72.5414 225.193 72.3637 225.291 72.0783C225.422 71.7175 225.231 71.319 224.865 71.1952C223.769 70.8075 222.635 70.4951 221.495 70.2528C220.41 70.0213 219.292 69.8597 218.18 69.7628C217.918 69.7412 217.7 69.7251 217.547 69.7143C217.154 69.6874 216.827 69.9782 216.8 70.3605C216.778 70.7428 217.067 71.0713 217.454 71.0983C217.601 71.109 217.809 71.1198 218.054 71.1413C219.107 71.2329 220.165 71.389 221.195 71.6098C222.275 71.836 223.349 72.1376 224.391 72.5037C224.467 72.5307 224.549 72.5414 224.625 72.5414H224.631Z" fill="#408F95"/>
<path d="M213.484 71.7499C213.62 71.7499 213.757 71.6745 213.828 71.5452C213.926 71.3568 213.855 71.1306 213.664 71.0283C213.571 70.9798 213.44 70.9152 213.271 70.8398C212.655 70.5652 212.001 70.3659 211.319 70.2582C210.795 70.1721 210.261 70.1451 209.721 70.1667C209.508 70.1774 209.345 70.3551 209.35 70.5652C209.361 70.7752 209.536 70.9367 209.754 70.9313C210.234 70.9098 210.719 70.9367 211.194 71.0121C211.804 71.109 212.393 71.2868 212.95 71.5345C213.097 71.5991 213.217 71.6583 213.299 71.7014C213.359 71.7337 213.419 71.7445 213.479 71.7445L213.484 71.7499Z" fill="#408F95"/>
<path d="M209.901 72.4876C210.059 72.4876 210.212 72.3907 210.266 72.2291C210.337 72.0299 210.228 71.8145 210.026 71.7445C209.934 71.7122 209.797 71.6691 209.634 71.6152C209.018 71.4268 208.374 71.2652 207.714 71.1467C207.207 71.0552 206.689 70.9852 206.182 70.9421C205.975 70.9206 205.784 71.0821 205.762 71.2921C205.746 71.5022 205.904 71.6852 206.116 71.7068C206.596 71.7499 207.087 71.8145 207.572 71.9006C208.2 72.0137 208.816 72.1645 209.399 72.3422C209.557 72.3907 209.683 72.4338 209.77 72.4607C209.814 72.4768 209.852 72.4822 209.896 72.4822L209.901 72.4876Z" fill="#408F95"/>
<path d="M205.419 73.5754C205.571 73.5754 205.713 73.4892 205.773 73.3438C205.855 73.15 205.762 72.9238 205.566 72.843C205.473 72.8053 205.337 72.7515 205.173 72.6922C204.557 72.4661 203.908 72.2937 203.243 72.1753C202.725 72.0891 202.201 72.0353 201.683 72.0191C201.47 72.0191 201.29 72.1806 201.285 72.3907C201.279 72.6007 201.448 72.7784 201.661 72.7838C202.141 72.7999 202.632 72.8484 203.112 72.9292C203.733 73.0369 204.333 73.1984 204.906 73.4084C205.059 73.4623 205.184 73.5161 205.266 73.5484C205.315 73.57 205.364 73.5808 205.413 73.5808L205.419 73.5754Z" fill="#408F95"/>
<path d="M200.271 89.9835C200.32 89.9835 200.369 89.9727 200.413 89.9565L203.336 88.8149C203.532 88.7395 203.63 88.5133 203.554 88.3195C203.477 88.1256 203.248 88.0287 203.052 88.1041L200.129 89.2457C199.933 89.3211 199.834 89.5473 199.911 89.7411C199.971 89.8919 200.118 89.9835 200.271 89.9835Z" fill="#408F95"/>
<path d="M180.616 94.0491C180.769 94.0491 180.922 93.9899 181.036 93.8714C181.811 93.0798 182.443 92.1859 182.923 91.2112C183.567 89.9135 184.172 88.6857 183.725 87.3717C183.272 86.0309 182.002 85.417 180.655 84.7654C179.553 84.2323 178.375 83.8876 177.143 83.7369C176.821 83.6992 176.537 83.9199 176.499 84.2377C176.461 84.55 176.684 84.8354 177.006 84.8731C178.102 85.0023 179.16 85.3147 180.142 85.7885C181.358 86.3809 182.323 86.844 182.623 87.7325C182.918 88.5995 182.46 89.5311 181.876 90.7051C181.451 91.572 180.884 92.369 180.196 93.0745C179.973 93.3006 179.984 93.6668 180.213 93.8822C180.327 93.9899 180.469 94.0438 180.616 94.0438V94.0491Z" fill="#408F95"/>
<path d="M283.751 12.6817C283.86 12.6817 283.969 12.6548 284.072 12.6063C286.603 11.3139 289.253 10.3823 291.942 9.83303C294.019 9.40761 297.488 8.69679 298.388 9.94611C298.524 10.14 298.606 10.3877 298.627 10.6785C298.655 11.0608 298.993 11.3462 299.375 11.3247C299.762 11.2977 300.056 10.9693 300.029 10.5869C299.991 10.0323 299.822 9.54762 299.533 9.14375C298.104 7.15668 294.379 7.92135 291.658 8.476C288.844 9.0522 286.079 10.0269 283.429 11.3785C283.085 11.5562 282.949 11.9709 283.129 12.3101C283.254 12.5471 283.5 12.6871 283.751 12.6871V12.6817Z" fill="#408F95"/>
<path d="M295.808 22.0247C296.032 22.0247 296.25 21.9224 296.386 21.7285C297.166 20.6246 297.886 19.483 298.54 18.3306C298.824 17.8298 299.217 17.1405 299.664 16.182C300.073 15.3096 300.438 14.4103 300.754 13.5056C300.771 13.4625 300.782 13.4194 300.787 13.371C300.793 13.3171 300.809 13.2364 300.825 13.134C301.038 11.9386 301.191 10.7269 300.487 10.2046C300.285 10.0538 299.849 9.84918 299.206 10.1669C298.857 10.3338 298.715 10.7539 298.884 11.0931C299.02 11.3624 299.315 11.5132 299.598 11.4755C299.604 11.7178 299.571 12.1486 299.44 12.8917C299.424 12.9779 299.413 13.0533 299.402 13.1125C299.107 13.9526 298.769 14.7872 298.388 15.595C297.962 16.5051 297.586 17.162 297.313 17.6467C296.681 18.756 295.983 19.8599 295.23 20.9315C295.007 21.2439 295.088 21.68 295.405 21.8954C295.525 21.9816 295.666 22.0193 295.803 22.0193L295.808 22.0247Z" fill="#408F95"/>
<path d="M264.62 39.0413C264.778 39.0413 264.937 38.9875 265.067 38.8798C266.175 37.9751 267.369 37.2427 268.607 36.7042C269.512 36.3111 270.395 36.0742 271.622 35.7457C272.031 35.6326 272.479 35.5141 272.975 35.3741L274.731 34.8841C276.171 34.4802 276.558 34.3725 277.212 34.1517C278.652 33.6671 280.059 33.0855 281.4 32.4285C285.67 30.3337 290.039 27.1674 290.224 27.0327C292.204 25.5788 294.129 23.9902 295.95 22.3101C296.234 22.0462 296.25 21.61 295.983 21.33C295.716 21.05 295.274 21.0338 294.99 21.2977C293.207 22.9401 291.326 24.4964 289.39 25.918C289.346 25.9504 284.929 29.1437 280.773 31.1846C279.486 31.8146 278.139 32.3693 276.76 32.8378C276.143 33.0424 275.8 33.1393 274.355 33.5432L272.599 34.0332C272.108 34.1733 271.666 34.2917 271.257 34.3994C269.976 34.7441 269.054 34.9972 268.05 35.428C266.687 36.0149 265.384 36.8173 264.179 37.8028C263.879 38.0451 263.84 38.4813 264.086 38.7774C264.222 38.9444 264.424 39.0305 264.626 39.0305L264.62 39.0413Z" fill="#408F95"/>
<path d="M243.636 42.87C243.81 42.87 243.979 42.8054 244.116 42.6816C244.476 42.3477 244.852 42.03 245.244 41.7338C246.537 40.7537 247.775 40.1668 249.476 39.4829C252.945 38.0935 256.686 36.9519 258.125 36.618C258.338 36.5696 258.867 36.4457 259.549 36.2034C260.138 35.9934 260.71 35.7403 261.261 35.4441C261.305 35.4226 261.343 35.3956 261.381 35.3633C261.676 35.1102 261.965 34.841 262.237 34.5556C262.875 33.8878 263.284 33.2901 263.453 33.0316L263.502 32.9616C265.34 30.3283 267.32 27.7382 269.376 25.2772C271.274 23.0101 272.762 21.2223 274.96 19.1598C277.283 16.9843 279.846 15.008 282.584 13.2956C282.911 13.0909 283.009 12.6601 282.802 12.337C282.595 12.0139 282.158 11.917 281.831 12.1216C279.017 13.8825 276.378 15.9127 273.989 18.1528C271.732 20.2745 270.21 22.0893 268.291 24.3887C266.202 26.8873 264.2 29.5044 262.341 32.1754L262.281 32.2616C262.128 32.4877 261.768 33.0155 261.212 33.6024C260.994 33.834 260.759 34.0548 260.519 34.2594C260.056 34.5071 259.565 34.7225 259.069 34.9002C258.463 35.1156 258 35.2233 257.82 35.2664C256.031 35.681 252.143 36.9142 248.942 38.2012C247.131 38.9282 245.806 39.5583 244.383 40.6353C243.952 40.9637 243.538 41.3138 243.145 41.6746C242.861 41.9384 242.85 42.3746 243.118 42.6546C243.254 42.8 243.439 42.87 243.63 42.87H243.636Z" fill="#408F95"/>
<path d="M256.211 55.3956C256.462 55.3956 256.707 55.2609 256.833 55.024L260.786 47.6304C261.457 46.2034 262.068 44.7709 262.619 43.3331C263.033 42.2561 263.42 41.1522 263.769 40.0429C263.884 39.6767 263.682 39.289 263.311 39.1759C262.94 39.0628 262.548 39.2621 262.433 39.6283C262.09 40.7106 261.708 41.793 261.304 42.8431C260.764 44.2486 260.17 45.6541 259.526 47.0165L255.589 54.3778C255.409 54.7171 255.54 55.1371 255.884 55.3148C255.987 55.3686 256.102 55.3956 256.211 55.3956Z" fill="#408F95"/>
<path d="M256.217 55.3956C256.593 55.3956 256.904 55.0994 256.92 54.7225C256.991 52.5523 256.707 50.4414 256.08 48.4435C255.551 46.7688 255.137 45.4441 253.904 44.2486C252.514 42.8916 250.921 42.5147 248.904 42.0354L248.729 41.9923C247.077 41.5992 245.353 41.4269 243.614 41.4861C243.227 41.4969 242.921 41.82 242.938 42.2023C242.948 42.5847 243.265 42.8916 243.663 42.8701C245.277 42.8162 246.869 42.9724 248.402 43.3386L248.576 43.3816C250.452 43.8286 251.805 44.1517 252.923 45.2395C253.904 46.1926 254.237 47.2535 254.739 48.8582C255.322 50.7053 255.584 52.6654 255.513 54.6794C255.502 55.0617 255.802 55.3848 256.195 55.3956C256.2 55.3956 256.211 55.3956 256.217 55.3956Z" fill="#408F95"/>
<path d="M285.899 23.2902C286.821 23.2902 288.135 23.1663 289.477 22.337C291.146 21.3085 291.887 19.8168 292.182 19.0199C292.313 18.6591 292.127 18.2606 291.762 18.1313C291.396 18.0021 290.993 18.1852 290.862 18.546C290.628 19.176 290.044 20.3553 288.73 21.1631C287.421 21.9708 286.167 21.9224 285.338 21.8901C285.218 21.8901 285.12 21.8793 285.038 21.8685C285.283 21.5724 285.758 21.1308 286.467 20.5492C287.65 19.5799 288.997 18.7506 290.48 18.0829C290.835 17.9213 290.987 17.5121 290.824 17.162C290.666 16.812 290.246 16.6612 289.891 16.8228C288.299 17.5444 286.843 18.4383 285.567 19.483C284.198 20.603 283.102 21.61 283.549 22.5632C283.822 23.1448 284.574 23.2471 285.283 23.274C285.458 23.2794 285.665 23.2902 285.894 23.2902H285.899Z" fill="#408F95"/>
<path d="M295.421 19.5476C295.454 19.5476 295.481 19.5476 295.514 19.5476C295.901 19.5476 296.212 19.2298 296.212 18.8475C296.212 18.4652 295.896 18.1582 295.508 18.1582C295.481 18.1582 295.448 18.1582 295.421 18.1582C294.047 18.1582 292.733 17.8782 291.517 17.3182C290.862 17.0166 290.24 16.6343 289.668 16.1873C289.362 15.945 288.921 15.9935 288.681 16.295C288.441 16.5966 288.484 17.0328 288.79 17.2697C289.45 17.792 290.164 18.2282 290.922 18.5783C292.324 19.2191 293.834 19.5476 295.416 19.5476H295.421Z" fill="#408F95"/>
<path d="M294.467 12.0678C294.767 12.0678 295.072 11.9709 295.323 11.7662C295.606 11.5401 295.781 11.217 295.819 10.8615C295.857 10.5061 295.748 10.1561 295.519 9.87609C295.29 9.59607 294.963 9.42375 294.603 9.38606C294.243 9.34836 293.889 9.45068 293.605 9.68223C293.322 9.9084 293.147 10.2315 293.109 10.5869C293.071 10.9423 293.18 11.2923 293.409 11.5724C293.676 11.9009 294.069 12.0678 294.467 12.0678ZM294.467 10.6838C294.467 10.6838 294.494 10.6838 294.499 10.7C294.51 10.7162 294.51 10.7485 294.494 10.7592C294.478 10.7754 294.445 10.77 294.434 10.7538C294.423 10.7377 294.423 10.7054 294.439 10.6946C294.445 10.6892 294.456 10.6838 294.467 10.6838Z" fill="#408F95"/>
<path d="M284.885 33.5486C285.61 33.5486 286.406 33.1339 286.701 32.9616C287.317 32.6062 287.912 32.2077 288.473 31.7715C289.242 31.1738 289.962 30.4953 290.606 29.7629C292.94 27.0973 294.03 25.3257 295.835 22.3801C296.037 22.0516 295.928 21.6262 295.601 21.4269C295.268 21.2277 294.837 21.3354 294.636 21.6585C292.809 24.6364 291.8 26.2788 289.542 28.8528C288.959 29.5206 288.304 30.1345 287.606 30.6784C287.099 31.0769 286.554 31.4377 285.992 31.7608C285.643 31.96 285.283 32.0892 285.049 32.1377C285.103 31.7769 285.359 31.0015 286.085 29.6875C286.27 29.3537 286.145 28.9282 285.801 28.7451C285.463 28.5621 285.032 28.6859 284.847 29.0252C283.216 31.9923 283.522 32.8324 284.034 33.2686C284.274 33.4678 284.569 33.5432 284.879 33.5432L284.885 33.5486Z" fill="#408F95"/>
<path d="M271.104 41.3568C271.186 41.3568 271.268 41.3407 271.35 41.3138C273.204 40.6245 274.9 39.6283 276.389 38.352C278.232 36.7796 279.732 34.771 280.73 32.5577C280.888 32.2077 280.73 31.7984 280.375 31.6423C280.021 31.4861 279.606 31.6423 279.448 31.9923C278.532 34.0278 277.158 35.8641 275.473 37.3019C274.278 38.3251 272.937 39.149 271.475 39.7683C271.29 39.2675 271.088 38.5459 271.164 37.8781C271.192 37.6412 271.235 37.2804 271.448 36.8765C271.513 36.758 271.568 36.6827 271.693 36.4996L271.797 36.3488C272.092 35.918 272.326 35.5626 272.479 35.3256C272.686 35.0025 272.593 34.5717 272.266 34.3671C271.939 34.1625 271.508 34.254 271.295 34.5771C271.148 34.8087 270.919 35.1533 270.63 35.5733L270.526 35.7241C270.357 35.9718 270.286 36.0741 270.205 36.2357C269.867 36.8657 269.801 37.4419 269.768 37.722C269.605 39.1274 270.265 40.5652 270.472 40.9745C270.592 41.2168 270.843 41.3568 271.099 41.3568H271.104Z" fill="#408F95"/>
<path d="M263.802 30.8669C263.922 30.8669 264.042 30.84 264.151 30.7753C264.685 30.4738 265.236 30.1184 265.836 29.6983C266.152 29.4775 266.223 29.0414 266 28.729C265.776 28.4167 265.334 28.3467 265.018 28.5675C264.462 28.9606 263.949 29.2891 263.453 29.5691C263.115 29.7576 263 30.183 263.191 30.5168C263.322 30.7376 263.557 30.8669 263.802 30.8669Z" fill="#408F95"/>
<path d="M261.037 31.9385C261.942 31.9385 263.039 31.5346 264.2 30.743C264.522 30.5276 264.598 30.0914 264.38 29.7791C264.162 29.4614 263.72 29.386 263.404 29.6014C261.915 30.6138 260.841 30.7161 260.475 30.3768C260.137 30.0645 260.148 29.0844 260.983 27.6682C261.179 27.3397 261.064 26.9143 260.726 26.7204C260.394 26.5266 259.963 26.6396 259.767 26.9735C258.654 28.869 258.561 30.5222 259.521 31.3946C259.919 31.7554 260.437 31.9385 261.037 31.9385Z" fill="#408F95"/>
<path d="M261.681 26.4511C261.877 26.4511 262.074 26.3704 262.215 26.2088C263.262 25.008 264.37 23.8448 265.52 22.7516C269.61 18.8475 274.366 15.6057 279.65 13.1071C279.999 12.9402 280.146 12.5255 279.983 12.1809C279.814 11.8362 279.399 11.6908 279.045 11.8524C273.624 14.4103 268.743 17.7436 264.544 21.75C263.366 22.8755 262.221 24.071 261.152 25.3041C260.901 25.5949 260.934 26.0311 261.228 26.2842C261.359 26.3973 261.523 26.4511 261.686 26.4511H261.681Z" fill="#408F95"/>
<path d="M281.046 12.4501C281.128 12.4501 281.215 12.434 281.297 12.4017C281.433 12.3478 281.629 12.2778 281.864 12.197C282.862 11.847 283.887 11.5562 284.918 11.33C285.998 11.0931 287.099 10.9262 288.201 10.8292C288.588 10.7969 288.871 10.4577 288.839 10.0753C288.806 9.693 288.468 9.41298 288.075 9.44529C286.914 9.5476 285.752 9.72531 284.612 9.97302C283.527 10.21 282.447 10.5169 281.395 10.8885C281.149 10.9746 280.942 11.05 280.795 11.1093C280.435 11.2439 280.25 11.6478 280.391 12.0032C280.501 12.2778 280.762 12.4501 281.046 12.4501Z" fill="#408F95"/>
<path d="M274.054 15.4604C274.114 15.4604 274.174 15.4442 274.229 15.4173C274.66 15.2019 275.107 15.0296 275.57 14.9003C276.165 14.7388 276.781 14.658 277.386 14.6526C277.55 14.6526 277.686 14.6526 277.774 14.6634C277.997 14.6741 278.172 14.5126 278.183 14.3026C278.193 14.0926 278.03 13.9095 277.817 13.8987C277.714 13.8933 277.561 13.8879 277.381 13.8879C276.705 13.8879 276.023 13.9795 275.363 14.1626C274.851 14.3026 274.349 14.4964 273.874 14.7334C273.684 14.8303 273.607 15.0619 273.705 15.245C273.776 15.3796 273.907 15.455 274.049 15.455L274.054 15.4604Z" fill="#408F95"/>
<path d="M271.121 17.652C271.164 17.652 271.208 17.6467 271.252 17.6305C271.71 17.469 272.179 17.3289 272.659 17.2051C273.275 17.0489 273.897 16.9358 274.507 16.8551C274.671 16.8335 274.802 16.8228 274.895 16.812C275.107 16.7904 275.265 16.6074 275.244 16.3973C275.222 16.1873 275.031 16.0365 274.824 16.0527C274.726 16.0635 274.584 16.0742 274.415 16.0958C273.777 16.1766 273.122 16.3004 272.473 16.462C271.972 16.5858 271.475 16.7366 270.995 16.9089C270.794 16.9789 270.69 17.1997 270.761 17.399C270.815 17.5551 270.968 17.652 271.126 17.652H271.121Z" fill="#408F95"/>
<path d="M267.494 20.463C267.543 20.463 267.592 20.4522 267.647 20.4307C268.094 20.2422 268.558 20.0914 269.027 19.9676C269.637 19.8114 270.254 19.7091 270.859 19.666C271.023 19.6553 271.153 19.6499 271.246 19.6445C271.459 19.6391 271.628 19.4614 271.622 19.2514C271.617 19.0414 271.442 18.8798 271.224 18.8798C271.126 18.8798 270.979 18.8906 270.804 18.9014C270.15 18.9498 269.485 19.0575 268.83 19.2298C268.329 19.3591 267.827 19.526 267.347 19.7307C267.151 19.8114 267.058 20.0376 267.14 20.2315C267.2 20.3769 267.347 20.463 267.494 20.463Z" fill="#408F95"/>
<path d="M273.482 36.6773C273.585 36.6773 273.684 36.6396 273.76 36.5588L275.936 34.3186C276.083 34.1679 276.078 33.9255 275.925 33.7801C275.772 33.6347 275.527 33.6401 275.38 33.7909L273.204 36.0311C273.056 36.1819 273.062 36.4242 273.215 36.5696C273.291 36.6396 273.384 36.6773 273.482 36.6773Z" fill="#408F95"/>
<path d="M257.242 48.4813C257.482 48.4813 257.705 48.3359 257.787 48.0989C258.158 47.0596 258.354 45.988 258.382 44.9056C258.414 43.457 258.453 42.0946 257.493 41.0823C256.517 40.0537 255.104 40.016 253.605 39.9729C252.377 39.9406 251.161 40.113 249.978 40.4845C249.673 40.5814 249.504 40.9045 249.602 41.2061C249.7 41.5077 250.027 41.6746 250.332 41.5777C251.385 41.2438 252.481 41.093 253.572 41.12C254.93 41.1576 255.999 41.1846 256.647 41.8685C257.28 42.5362 257.253 43.5701 257.226 44.8787C257.204 45.8426 257.024 46.8011 256.697 47.722C256.593 48.0181 256.751 48.3466 257.051 48.4489C257.116 48.4705 257.182 48.4813 257.242 48.4813Z" fill="#408F95"/>
</g>
<defs>
<clipPath id="clip0_2638_34217">
<rect width="301" height="137" fill="white" transform="matrix(-1 0 0 1 301 0)"/>
</clipPath>
</defs>
</svg>
