<svg width="120" height="55" viewBox="0 0 120 55" fill="none" xmlns="http://www.w3.org/2000/svg">
<g clip-path="url(#clip0_2638_39515)">
<path d="M94.5071 6.11159C94.6114 6.11159 94.7114 6.05322 94.7593 5.95377C94.9093 5.64463 94.968 5.33548 94.9375 5.03714C94.7788 3.51087 92.3982 2.74989 90.6589 2.19429C88.8239 1.60843 86.8803 1.27118 84.8844 1.19335C84.7366 1.18254 84.5996 1.30577 84.5931 1.46142C84.5866 1.61491 84.7083 1.74462 84.8627 1.75111C86.8085 1.82678 88.7 2.15322 90.4871 2.72395C91.8981 3.17578 94.2614 3.93027 94.381 5.09551C94.4005 5.29224 94.3592 5.49978 94.2549 5.71597C94.1875 5.85433 94.2462 6.02079 94.3853 6.08781C94.4244 6.10727 94.4657 6.11591 94.5071 6.11591V6.11159Z" fill="#408F95"/>
<path d="M63.1492 7.8173C63.1492 7.8173 63.1709 7.8173 63.1818 7.8173C63.6318 7.76542 64.0819 7.67246 64.5189 7.53842C65.0993 7.36115 65.532 7.14496 65.7146 7.05416L65.7755 7.0239C67.7561 6.06835 69.7998 5.18631 71.8478 4.40588C73.7327 3.68814 75.2242 3.11957 77.2287 2.62234C79.3441 2.09917 81.5356 1.77705 83.7402 1.66896C83.8945 1.66031 84.0141 1.5306 84.0054 1.37711C83.9967 1.22361 83.8684 1.10471 83.7119 1.11336C81.4704 1.22361 79.2441 1.55006 77.0917 2.08404C75.0524 2.58991 73.5501 3.16281 71.6456 3.88703C69.5824 4.67395 67.5235 5.56031 65.5298 6.52234L65.4624 6.55477C65.2755 6.64773 64.8863 6.8423 64.3515 7.0066C63.9471 7.12983 63.5318 7.2163 63.1144 7.26386C62.96 7.28116 62.8513 7.41952 62.8687 7.57085C62.8839 7.71353 63.0057 7.8173 63.147 7.8173H63.1492Z" fill="#408F95"/>
<path d="M89.3324 11.0428C89.3759 11.0428 89.4193 11.032 89.4606 11.0126C89.9411 10.7639 90.6586 10.3835 91.3391 9.97702C91.5195 9.86893 91.8565 9.67004 92.2913 9.37819C92.424 9.28955 92.5674 9.19227 92.7153 9.08417C93.2458 8.70801 93.7589 8.29942 94.2437 7.87137C94.2567 7.8584 94.2698 7.84543 94.2806 7.83029C94.3046 7.80003 94.3415 7.75463 94.3893 7.69842C94.8807 7.10607 95.3438 6.48994 95.1503 6.04892C95.0894 5.90839 94.9394 5.73761 94.5785 5.71815C94.422 5.70734 94.2915 5.82624 94.2828 5.97974C94.2741 6.13323 94.3915 6.2651 94.5459 6.27375C94.5915 6.27591 94.6198 6.2824 94.6372 6.28672C94.6372 6.38617 94.535 6.64775 93.9567 7.34387C93.9132 7.39576 93.8784 7.439 93.8523 7.47142C93.3871 7.88002 92.8957 8.26915 92.3892 8.63018C92.2435 8.73395 92.1065 8.82691 91.9783 8.91555C91.5565 9.19875 91.2282 9.39332 91.0521 9.49925C90.3825 9.89703 89.6781 10.2732 89.2041 10.5175C89.0671 10.5888 89.0128 10.7553 89.0845 10.8937C89.1345 10.9888 89.2324 11.045 89.3324 11.045V11.0428Z" fill="#408F95"/>
<path d="M78.1856 12.6664C80.9206 12.6664 83.5469 12.3594 83.5795 12.3551C85.2297 12.1497 86.895 11.847 88.5256 11.4558C88.6756 11.419 88.7691 11.2698 88.7322 11.1207C88.6952 10.9715 88.5452 10.8785 88.3952 10.9153C86.7842 11.3023 85.1405 11.6006 83.5121 11.8016C83.4773 11.806 79.7792 12.2383 76.6224 12.0697C75.644 12.0178 74.6504 11.8989 73.6721 11.713C73.2351 11.6309 72.9981 11.5725 72.0046 11.3325L70.8023 11.0407C70.4088 10.9456 70.0653 10.8591 69.7609 10.7834C68.8521 10.5564 68.252 10.4051 67.6694 10.364C66.8063 10.3035 65.9257 10.377 65.0561 10.5845C64.9061 10.6191 64.8126 10.7704 64.8496 10.9196C64.8843 11.0688 65.0344 11.1617 65.1866 11.125C66.0018 10.9326 66.8237 10.8634 67.6302 10.9196C68.1651 10.9564 68.7151 11.0947 69.6239 11.3239C69.9305 11.4017 70.2761 11.4882 70.6697 11.5833L71.8719 11.8752C72.8525 12.113 73.1155 12.1778 73.5677 12.2621C74.57 12.4502 75.5875 12.5734 76.5919 12.6275C77.1159 12.6556 77.6529 12.6664 78.1856 12.6664Z" fill="#408F95"/>
<path d="M62.2688 7.83678C62.3884 7.83678 62.4993 7.75895 62.5363 7.64005C62.5819 7.49304 62.4993 7.33738 62.3515 7.29199C61.6992 7.09309 58.2989 6.07702 55.4965 5.66626C54.129 5.46521 53.1267 5.44575 52.0353 5.59708C51.6788 5.64681 51.3222 5.71599 50.9743 5.8003C50.8243 5.83705 50.733 5.98838 50.77 6.13755C50.8069 6.28672 50.957 6.37968 51.1091 6.34077C51.4374 6.26078 51.7766 6.19592 52.1158 6.14836C53.1506 6.00351 54.1072 6.02297 55.4182 6.21538C58.1793 6.62181 61.5449 7.62491 62.1906 7.8238C62.2188 7.83245 62.2449 7.83678 62.2732 7.83678H62.2688Z" fill="#408F95"/>
<path d="M54.216 17.9543C54.2355 17.9543 54.2551 17.9543 54.2747 17.9478C55.5269 17.6798 57.6576 16.6486 58.4359 15.9373C59.1077 15.4379 59.6447 15.0423 60.1013 14.705C61.6818 13.5398 62.3363 13.0599 64.4125 11.3217C64.5299 11.2223 64.5451 11.0472 64.4473 10.9304C64.3473 10.8137 64.1712 10.7985 64.0538 10.8958C61.9906 12.621 61.3405 13.1009 59.7686 14.2575C59.3077 14.5969 58.7664 14.9947 58.088 15.5006C58.0793 15.5071 58.0728 15.5136 58.0641 15.5201C57.3641 16.1686 55.3182 17.1544 54.1551 17.403C54.0029 17.4355 53.9072 17.5825 53.9398 17.7338C53.9681 17.8635 54.0833 17.9543 54.2138 17.9543H54.216Z" fill="#408F95"/>
<path d="M54.2163 17.9543C54.2903 17.9543 54.3663 17.9241 54.4207 17.8657C55.149 17.0939 56.0839 15.7946 56.3948 13.9873C56.4883 13.4468 56.7057 12.1822 56.1948 10.7445C55.7273 9.43226 54.9121 8.67344 53.9685 7.79357C53.1402 7.02178 52.1988 6.36025 51.1682 5.82411C51.0313 5.75277 50.8617 5.80465 50.7899 5.94085C50.7182 6.07704 50.7704 6.24567 50.9073 6.31701C51.8922 6.82937 52.7923 7.4628 53.5837 8.2C54.5098 9.06258 55.2425 9.74573 55.6643 10.9304C56.1274 12.2319 55.9274 13.3971 55.8404 13.8943C55.5534 15.5655 54.6859 16.7696 54.0098 17.4852C53.9033 17.5976 53.9098 17.7727 54.0228 17.8787C54.0772 17.9284 54.1468 17.9543 54.2142 17.9543H54.2163Z" fill="#408F95"/>
<path d="M58.1234 9.2571C58.2061 9.2571 58.2865 9.22251 58.3409 9.15333C58.4387 9.03443 58.4191 8.85932 58.2995 8.76204C57.8234 8.37939 57.3016 8.05294 56.7494 7.79568C56.0841 7.48437 55.3775 7.27035 54.6492 7.15793C54.497 7.13415 54.3535 7.23792 54.3296 7.39141C54.3057 7.54274 54.4101 7.68543 54.5644 7.70921C55.2406 7.81298 55.895 8.01187 56.5124 8.30156C57.0233 8.54153 57.5082 8.84202 57.9495 9.19873C58.0017 9.23981 58.0626 9.26143 58.1256 9.26143L58.1234 9.2571Z" fill="#408F95"/>
<path d="M56.9771 15.2995C57.0358 15.2995 57.0967 15.2801 57.1489 15.2412C57.7533 14.7764 58.8273 13.7754 59.21 12.2924C59.3274 11.8341 59.5752 10.8785 59.1426 9.90351C59.0817 9.76731 59.0099 9.63327 58.9295 9.50789C58.8447 9.37817 58.673 9.34142 58.5425 9.42574C58.4121 9.51005 58.3751 9.68084 58.4599 9.81055C58.5251 9.90999 58.5838 10.0181 58.6316 10.1283C58.986 10.9282 58.7795 11.726 58.6686 12.1562C58.3273 13.4792 57.3554 14.3829 56.8076 14.8023C56.6858 14.8953 56.6619 15.0704 56.7576 15.1936C56.8119 15.2649 56.8945 15.3017 56.9793 15.3017L56.9771 15.2995Z" fill="#408F95"/>
<path d="M84.5626 9.32412C84.6213 9.32412 84.68 9.32412 84.7408 9.3198C86.0127 9.26575 86.9128 8.65611 87.3367 8.29724C87.4541 8.19779 87.4693 8.02268 87.3693 7.90594C87.2693 7.7892 87.0932 7.77406 86.9758 7.87351C86.6062 8.18698 85.8214 8.71664 84.7191 8.7642C83.6125 8.8096 82.8602 8.34912 82.3624 8.04214C82.0906 7.87351 81.9862 7.7719 81.9515 7.7265C82.0341 7.63354 82.3906 7.4714 83.5473 7.26603C84.5865 7.08227 85.6801 7.03687 86.7975 7.13199C86.9519 7.1428 87.0867 7.03254 87.0997 6.87905C87.1128 6.72556 86.9997 6.59152 86.8454 6.57855C85.6801 6.47911 84.5365 6.52667 83.4494 6.71907C82.3863 6.90716 81.4275 7.1255 81.3818 7.70056C81.3601 7.96215 81.5666 8.20644 82.0689 8.51558C82.5667 8.82257 83.3842 9.32412 84.5647 9.32412H84.5626Z" fill="#408F95"/>
<path d="M89.4804 9.72842C89.5782 9.72842 89.6739 9.67653 89.7261 9.58573C89.8021 9.4517 89.7521 9.28091 89.6173 9.20741C88.7586 8.73396 88.0433 8.10053 87.4889 7.33091C87.1954 6.92232 86.9497 6.47697 86.7627 6.00569C86.7062 5.863 86.5432 5.79382 86.3997 5.85003C86.2562 5.90624 86.1866 6.06838 86.2431 6.21106C86.4497 6.72343 86.7149 7.20985 87.0345 7.65303C87.6367 8.49183 88.4151 9.1793 89.3456 9.69383C89.3891 9.71761 89.4347 9.72842 89.4804 9.72842Z" fill="#408F95"/>
<path d="M92.0522 4.20482C92.0109 3.96269 91.7804 3.80055 91.5391 3.84163C91.2956 3.8827 91.1326 4.11186 91.1739 4.35183C91.2152 4.59396 91.4456 4.75609 91.6869 4.71502C91.9304 4.67394 92.0935 4.44479 92.0522 4.20482Z" fill="#408F95"/>
<path d="M79.5075 14.6985C79.9967 14.6921 80.4728 14.6531 80.9424 14.5818C81.586 14.4845 82.2251 14.3245 82.8404 14.1062C85.1015 13.3063 86.3386 12.6167 88.3866 11.4752C88.5214 11.3995 88.5692 11.2309 88.4931 11.0969C88.417 10.9628 88.2474 10.9153 88.1126 10.9909C86.0211 12.1562 84.8689 12.7983 82.6513 13.583C82.0686 13.7884 81.4664 13.9397 80.8576 14.0327C80.4141 14.0997 79.9641 14.1365 79.5162 14.1429C79.0053 14.1235 78.7596 14.0543 78.6487 14.0046C78.7857 13.9116 79.1357 13.73 80.0119 13.4555C80.1597 13.4101 80.2402 13.2523 80.1945 13.1074C80.1489 12.9604 79.9902 12.8783 79.8445 12.9258C78.4357 13.3668 77.9595 13.6695 78.0248 14.0781C78.1074 14.5883 78.9118 14.6769 79.5097 14.7007L79.5075 14.6985Z" fill="#408F95"/>
<path d="M78.6527 13.4836C78.8267 13.4836 78.9919 13.4749 79.1484 13.4663C81.3943 13.3279 83.2075 12.8523 83.2836 12.8307C84.1293 12.6059 84.9772 12.3313 85.8034 12.0157C85.9469 11.9595 86.0186 11.7995 85.9643 11.6568C85.9077 11.5141 85.7469 11.4428 85.6034 11.4968C84.7946 11.806 83.9663 12.074 83.1401 12.2945C83.0662 12.314 81.3073 12.7766 79.1158 12.9107C78.6114 12.9409 78.0679 12.9539 77.4309 12.7291C77.0852 12.608 76.7569 12.4307 76.4569 12.2037C76.333 12.1108 76.159 12.1346 76.0655 12.2578C75.9721 12.381 75.996 12.554 76.1199 12.6469C76.4656 12.9085 76.8439 13.1117 77.2439 13.2522C77.7635 13.436 78.2353 13.4836 78.6549 13.4836H78.6527Z" fill="#408F95"/>
<path d="M69.4155 14.6986C70.146 14.6986 70.8722 14.6272 71.5918 14.4845C73.1811 14.1667 74.716 13.4879 76.0314 12.5216C76.1553 12.4308 76.1814 12.2557 76.0901 12.1324C75.9987 12.0092 75.8226 11.9833 75.6987 12.0741C74.4486 12.9929 72.9919 13.6393 71.4831 13.9398C70.3482 14.1667 69.1894 14.2035 68.0372 14.0543C68.0806 13.6825 68.2067 13.0231 68.5546 12.5475C68.6546 12.4113 68.8198 12.1843 69.1112 12.0006C69.1873 11.9508 69.246 11.9227 69.4047 11.8449L69.5155 11.7909C69.833 11.633 70.0895 11.5012 70.2591 11.4125C70.3961 11.3412 70.4482 11.1726 70.3765 11.0364C70.3047 10.9002 70.1352 10.8483 69.9982 10.9196C69.8308 11.0083 69.5786 11.138 69.2655 11.2915L69.1568 11.3455C68.9894 11.4277 68.9133 11.4644 68.809 11.5314C68.4285 11.7736 68.2154 12.0633 68.1024 12.2189C67.561 12.9539 67.4697 13.9808 67.4545 14.277C67.448 14.4197 67.5502 14.5451 67.6915 14.5667C68.2654 14.6553 68.8416 14.7007 69.4177 14.7007L69.4155 14.6986Z" fill="#408F95"/>
<path d="M66.976 5.91919C67.3869 5.91919 67.8239 5.89108 68.3109 5.8392C68.4653 5.8219 68.5761 5.68571 68.5588 5.53221C68.5414 5.37872 68.4044 5.2663 68.25 5.28576C67.7804 5.33548 67.363 5.36143 66.9717 5.36359C66.8173 5.36359 66.6934 5.48898 66.6934 5.64247C66.6934 5.79596 66.8195 5.91919 66.9738 5.91919H66.976Z" fill="#408F95"/>
<path d="M66.728 2.76072C66.7563 2.76072 66.7867 2.7564 66.815 2.74775C67.128 2.64398 67.4411 2.53805 67.7542 2.42996C68.6173 2.13378 69.5109 1.8268 70.437 1.62358C74.4678 0.808558 78.3943 0.458336 82.1033 0.583724C82.2555 0.588048 82.3881 0.469145 82.3925 0.315653C82.3968 0.16216 82.2772 0.0324483 82.1229 0.0281246C78.3725 -0.0994254 74.4004 0.252959 70.3218 1.07879C69.3587 1.29065 68.4521 1.60196 67.5737 1.90462C67.2628 2.01055 66.9519 2.11865 66.641 2.22026C66.4932 2.26782 66.4149 2.42563 66.4628 2.57048C66.5019 2.68722 66.6106 2.76288 66.728 2.76288V2.76072Z" fill="#408F95"/>
<path d="M88.0825 2.10998C88.189 2.10998 88.2912 2.04945 88.3368 1.94784C88.3999 1.80732 88.3368 1.64302 88.1977 1.58033C87.4868 1.25821 86.7497 0.981489 86.004 0.754493C85.0409 0.460479 84.0473 0.246455 83.0472 0.116743C82.8929 0.0972862 82.7537 0.203218 82.7342 0.35671C82.7146 0.510202 82.8211 0.648562 82.9755 0.668018C83.943 0.793407 84.9083 1.00095 85.841 1.28631C86.5628 1.50682 87.2802 1.77489 87.9672 2.0862C88.0042 2.1035 88.0433 2.11214 88.0825 2.11214V2.10998Z" fill="#408F95"/>
<path d="M82.5384 1.35116C82.6297 1.35116 82.721 1.30576 82.7754 1.22361C82.858 1.0939 82.821 0.920951 82.6906 0.8388C82.6319 0.802049 82.5449 0.748002 82.4384 0.68747C82.0384 0.462636 81.6057 0.291849 81.1535 0.17727C80.8035 0.0886333 80.4426 0.0367485 80.0795 0.0216155C79.9251 0.0151299 79.7947 0.134032 79.7882 0.287525C79.7816 0.441017 79.9012 0.570729 80.0556 0.577215C80.3817 0.590186 80.7035 0.637747 81.0165 0.715574C81.4209 0.817182 81.8079 0.970674 82.1645 1.16957C82.2601 1.22361 82.3362 1.27117 82.3906 1.3036C82.4362 1.33387 82.4884 1.34684 82.5406 1.34684L82.5384 1.35116Z" fill="#408F95"/>
<path d="M78.6402 1.59549C78.7315 1.59549 78.8228 1.55009 78.875 1.46794C78.9576 1.33822 78.9207 1.16744 78.7902 1.08312C78.7315 1.04637 78.6445 0.992326 78.538 0.931793C78.138 0.706959 77.7053 0.536172 77.2509 0.421593C76.9009 0.332957 76.54 0.281072 76.1769 0.265939C76.0226 0.257292 75.8921 0.378356 75.8856 0.531848C75.8791 0.685341 75.9986 0.815053 76.153 0.821538C76.4791 0.834509 76.8009 0.88207 77.114 0.959898C77.5184 1.06151 77.9053 1.215 78.2619 1.41389C78.3576 1.46794 78.4336 1.5155 78.488 1.54792C78.5337 1.57819 78.588 1.59116 78.638 1.59116L78.6402 1.59549Z" fill="#408F95"/>
<path d="M75.0443 2.10135C75.1356 2.10135 75.2269 2.05595 75.2812 1.9738C75.3639 1.84408 75.3269 1.6733 75.1965 1.58898C75.1378 1.55223 75.0508 1.49819 74.9443 1.43765C74.542 1.21282 74.1094 1.04203 73.6572 0.927453C73.3072 0.838816 72.9462 0.786932 72.5832 0.771799C72.4288 0.765313 72.2984 0.884216 72.2918 1.03771C72.2853 1.1912 72.4049 1.32091 72.5593 1.3274C72.8854 1.34037 73.2071 1.38793 73.5202 1.46576C73.9246 1.56736 74.3116 1.72086 74.6681 1.91975C74.7638 1.9738 74.8399 2.02136 74.8943 2.05378C74.9399 2.08405 74.9921 2.09702 75.0443 2.09702V2.10135Z" fill="#408F95"/>
<path d="M69.7005 13.5787H69.7071C70.6637 13.5549 71.5725 13.3409 72.4051 12.9388C72.7682 12.7637 73.1161 12.554 73.44 12.314C73.5639 12.2211 73.59 12.0481 73.4965 11.9249C73.4031 11.8017 73.2291 11.7757 73.1052 11.8687C72.8095 12.0892 72.4899 12.2816 72.1616 12.4394C71.4007 12.8048 70.5702 13.0015 69.694 13.0231C69.5397 13.0274 69.4179 13.155 69.4201 13.3085C69.4244 13.4598 69.5484 13.5809 69.7005 13.5809V13.5787Z" fill="#408F95"/>
<path d="M70.2047 12.4567C70.2373 12.4567 70.2699 12.4502 70.3004 12.4394L71.894 11.86C72.0397 11.8082 72.1136 11.6482 72.0614 11.5033C72.0092 11.3585 71.8462 11.285 71.7027 11.3369L70.1091 11.9162C69.9634 11.9681 69.8895 12.1281 69.9417 12.273C69.983 12.3854 70.0895 12.4567 70.2047 12.4567Z" fill="#408F95"/>
<path d="M66.2351 5.89324C66.3851 5.89324 66.5112 5.77434 66.5155 5.62301C66.5199 5.46951 66.3981 5.34196 66.2437 5.33764C65.1893 5.30738 64.7393 5.10416 64.6653 4.61558C64.8654 3.94756 65.3784 3.40493 66.2307 2.95959C66.3677 2.88825 66.4199 2.71962 66.3481 2.58343C66.2764 2.44723 66.1068 2.39534 65.9698 2.46668C64.9502 2.9985 64.3414 3.67084 64.1109 4.52046C64.1022 4.55288 64.1001 4.58747 64.1023 4.6199C64.2197 5.83487 65.6263 5.87595 66.2264 5.89324C66.2285 5.89324 66.2329 5.89324 66.2351 5.89324Z" fill="#408F95"/>
<path d="M54.6593 51.2816C54.7485 51.2816 54.8354 51.2383 54.8898 51.1605C55.0159 50.9768 55.0854 50.7822 55.0963 50.5833C55.1463 49.6061 53.7897 48.9316 52.7983 48.4387C51.7743 47.9285 50.6633 47.5567 49.498 47.3319C49.3458 47.3038 49.2001 47.401 49.1697 47.5524C49.1392 47.7037 49.2393 47.8485 49.3915 47.8788C50.5068 48.095 51.5677 48.4495 52.5483 48.936C53.3048 49.3121 54.568 49.9412 54.5376 50.5552C54.5332 50.6503 54.4963 50.7476 54.4289 50.8449C54.3419 50.9724 54.3745 51.1454 54.5006 51.2319C54.5484 51.2643 54.605 51.2816 54.6593 51.2816Z" fill="#408F95"/>
<path d="M50.8808 53.7915C50.9068 53.7915 50.9351 53.7872 50.9612 53.7785C51.4808 53.6207 51.9939 53.4391 52.4853 53.2381C52.7005 53.1494 52.994 53.0284 53.3745 52.8381C53.7201 52.663 54.0615 52.4706 54.3833 52.2631C54.3985 52.2522 54.4137 52.2414 54.4267 52.2285C54.442 52.2133 54.468 52.1917 54.4985 52.1636C54.8637 51.8393 55.2138 51.4934 55.1246 51.1583C55.0985 51.0611 55.0137 50.8903 54.7333 50.8319C54.5833 50.7995 54.4333 50.8946 54.4006 51.0459C54.3746 51.1648 54.4311 51.2816 54.5289 51.3421C54.4702 51.4199 54.3528 51.5475 54.1245 51.7485C54.0984 51.7723 54.0745 51.7918 54.0571 51.8091C53.7571 52.0015 53.4419 52.1809 53.1201 52.343C52.7592 52.5246 52.4766 52.6414 52.27 52.7257C51.7961 52.9203 51.3004 53.0975 50.7981 53.2489C50.6503 53.2943 50.5677 53.4499 50.6112 53.5969C50.6481 53.718 50.759 53.7937 50.8786 53.7937L50.8808 53.7915Z" fill="#408F95"/>
<path d="M48.4519 53.9493C49.1933 53.9493 49.939 53.919 50.6782 53.8563C50.8326 53.8434 50.9456 53.7093 50.9326 53.5558C50.9195 53.4023 50.7826 53.2899 50.6304 53.3029C49.6629 53.3829 48.6845 53.411 47.7214 53.3829C47.7018 53.3829 45.519 53.3051 43.708 52.9267C43.1493 52.81 42.5862 52.6543 42.0383 52.4598C41.7948 52.3733 41.6622 52.3193 41.1056 52.0901L40.4338 51.8134C40.2446 51.7355 40.0772 51.6642 39.9229 51.5993C39.4359 51.394 39.0837 51.2448 38.6619 51.1367C38.0879 50.9875 37.4814 50.9184 36.8552 50.9335C36.7008 50.9378 36.5791 51.0654 36.5813 51.2189C36.5856 51.3724 36.7095 51.4934 36.8683 51.4913C37.4422 51.4783 37.9966 51.541 38.5206 51.675C38.9032 51.7745 39.238 51.915 39.7033 52.1117C39.8598 52.1787 40.0294 52.2501 40.2207 52.3279L40.8925 52.6046C41.4448 52.8316 41.5926 52.8921 41.8513 52.9829C42.4231 53.184 43.0101 53.3483 43.5928 53.4694C45.4538 53.8563 47.6127 53.9342 47.704 53.9363C47.9519 53.9428 48.2019 53.9471 48.4497 53.9471L48.4519 53.9493Z" fill="#408F95"/>
<path d="M36.5882 49.4786C36.5882 49.4786 36.5948 49.4786 36.5991 49.4786C36.7556 49.4721 36.9144 49.457 37.0687 49.4353C37.4361 49.3813 37.7123 49.2927 37.8318 49.2537L37.8644 49.2429C39.0993 48.8646 40.3647 48.5338 41.6235 48.2636C42.7823 48.015 43.6976 47.8183 44.902 47.708C46.1739 47.5913 47.4697 47.5999 48.7546 47.7339C48.9089 47.7491 49.0459 47.6388 49.0611 47.4853C49.0763 47.3318 48.9654 47.1956 48.8111 47.1805C47.4892 47.0443 46.1565 47.0357 44.8499 47.1546C43.6106 47.267 42.6801 47.468 41.5039 47.721C40.2277 47.9955 38.9471 48.3285 37.697 48.7133L37.6557 48.7262C37.5514 48.7608 37.3057 48.8387 36.9839 48.8862C36.8578 48.9057 36.7296 48.9165 36.6035 48.923C36.3969 48.8862 36.1904 48.8343 35.9904 48.7673C35.7469 48.6873 35.5751 48.6052 35.5099 48.5749C34.8468 48.2658 33.3206 47.6994 31.9965 47.3189C31.2486 47.1027 30.6747 46.9773 29.9594 46.9665C29.7441 46.9622 29.5246 46.9708 29.3115 46.9903C29.1571 47.0032 29.0441 47.1394 29.0571 47.2929C29.0702 47.4464 29.2071 47.5588 29.3615 47.5459C29.5572 47.5286 29.755 47.5221 29.9529 47.5242C30.6029 47.5329 31.1377 47.6518 31.84 47.855C33.2727 48.2679 34.7294 48.8278 35.2642 49.0765C35.3446 49.1132 35.5381 49.204 35.8121 49.2948C36.0491 49.3726 36.2926 49.4332 36.5382 49.4764C36.5534 49.4786 36.5687 49.4807 36.5861 49.4807L36.5882 49.4786Z" fill="#408F95"/>
<path d="M30.1443 54.5827C30.1813 54.5827 30.2204 54.5741 30.2574 54.559L33.3446 53.1991C33.912 52.9159 34.4621 52.6133 34.9926 52.2955C35.3904 52.0577 35.7905 51.8026 36.1753 51.5432C36.3036 51.4567 36.3362 51.2837 36.2492 51.1562C36.1622 51.0286 35.9883 50.9962 35.86 51.0827C35.4817 51.3378 35.0926 51.5864 34.7034 51.8199C34.1838 52.1312 33.6446 52.4274 33.1033 52.6976L30.0291 54.0509C29.8878 54.1136 29.8247 54.2779 29.8856 54.4184C29.9312 54.5222 30.0334 54.5849 30.1421 54.5849L30.1443 54.5827Z" fill="#408F95"/>
<path d="M30.1437 54.5828C30.2241 54.5828 30.3024 54.5482 30.3567 54.4833C30.922 53.8175 31.3612 53.0824 31.6634 52.2998C31.9177 51.6426 32.1178 51.1238 32.033 50.4428C31.9373 49.6732 31.5329 49.163 31.022 48.5166L30.9785 48.4604C30.5589 47.9285 30.0632 47.4529 29.5045 47.0443C29.3805 46.9535 29.2044 46.9795 29.1131 47.1027C29.0218 47.2259 29.0479 47.401 29.1718 47.4918C29.6893 47.8723 30.1502 48.3134 30.5372 48.8041L30.5807 48.8603C31.0546 49.4613 31.3981 49.8958 31.4764 50.512C31.5438 51.0546 31.3829 51.4697 31.1394 52.0988C30.8589 52.823 30.4502 53.504 29.9263 54.1244C29.8262 54.2412 29.8415 54.4185 29.9589 54.5157C30.011 54.559 30.0763 54.5806 30.1393 54.5806L30.1437 54.5828Z" fill="#408F95"/>
<path d="M48.931 52.2912C49.5724 52.2912 50.068 52.0512 50.3246 51.8956C50.455 51.8156 50.4964 51.6426 50.4159 51.5129C50.3355 51.3832 50.1637 51.3421 50.0311 51.4221C49.8006 51.5626 49.3223 51.7896 48.7092 51.7226C48.0961 51.6556 47.7178 51.3335 47.4656 51.1194C47.4287 51.0892 47.4004 51.0611 47.3765 51.0395C47.5265 51.0049 47.7852 50.9832 48.1527 50.9746C48.7658 50.9595 49.3962 51.0308 50.0267 51.1821C50.1768 51.2189 50.3289 51.1259 50.3659 50.9768C50.4029 50.8276 50.3094 50.6763 50.1594 50.6395C49.481 50.4752 48.8005 50.3995 48.1396 50.4147C47.4309 50.432 46.8373 50.4795 46.7395 50.8903C46.6808 51.1411 46.8895 51.3594 47.1026 51.541C47.37 51.768 47.8657 52.1874 48.6484 52.2739C48.7462 52.2847 48.8397 52.289 48.931 52.289V52.2912Z" fill="#408F95"/>
<path d="M51.4069 52.9375C51.4895 52.9375 51.5721 52.9008 51.6286 52.8294C51.7243 52.7084 51.7004 52.5333 51.5786 52.4381C51.1351 52.0966 50.7872 51.6772 50.5416 51.1951C50.4111 50.94 50.3133 50.6676 50.2481 50.3844C50.2133 50.2352 50.0633 50.1423 49.9133 50.1768C49.7632 50.2114 49.6698 50.3606 49.7045 50.5098C49.7806 50.8362 49.8937 51.1497 50.0437 51.4459C50.3263 52.0036 50.7285 52.4857 51.2373 52.8792C51.2873 52.9181 51.3482 52.9375 51.409 52.9375H51.4069Z" fill="#408F95"/>
<path d="M53.1136 50.3801C53.1136 50.3801 53.118 50.3801 53.1223 50.3801C53.4202 50.3758 53.6615 50.1293 53.6572 49.8331C53.6528 49.5348 53.4137 49.297 53.1071 49.3013C52.9615 49.3013 52.8267 49.3619 52.7266 49.4656C52.6266 49.5694 52.5723 49.7056 52.5745 49.8483C52.5788 50.1423 52.8223 50.3801 53.1158 50.3801H53.1136ZM53.131 49.8396C53.131 49.8396 53.1245 49.8548 53.1136 49.8569C53.1049 49.8569 53.0962 49.8483 53.0962 49.8396H53.131ZM53.131 49.8396H53.0962C53.0962 49.8396 53.1071 49.8159 53.1136 49.8223C53.1223 49.8223 53.131 49.8288 53.131 49.8396Z" fill="#408F95"/>
<path d="M45.9825 55C46.3717 55 46.7609 54.9633 47.1435 54.8897C48.5415 54.6238 49.3263 54.332 50.6264 53.8477C50.7721 53.7937 50.8438 53.6337 50.7895 53.4889C50.7351 53.344 50.5742 53.2727 50.4286 53.3267C49.1111 53.8175 48.3871 54.0855 47.037 54.3428C46.6869 54.4098 46.3391 54.4422 45.9738 54.4422C45.7151 54.4422 45.4542 54.4228 45.1977 54.3882C45.039 54.3666 44.8933 54.3169 44.8085 54.2758C44.9172 54.1763 45.189 53.9947 45.7455 53.7569C45.8869 53.6964 45.9543 53.5321 45.8912 53.3916C45.8303 53.2511 45.6651 53.184 45.5238 53.2467C44.2715 53.7807 44.1563 54.1223 44.2085 54.3839C44.2911 54.7925 44.9259 54.9135 45.1172 54.9395C45.402 54.9784 45.7021 54.9978 45.9782 55H45.9825Z" fill="#408F95"/>
<path d="M40.2473 54.1158C40.3473 54.1158 40.4473 54.1136 40.5473 54.1093C41.517 54.0661 42.4888 53.8023 43.3563 53.3483C43.4933 53.277 43.5454 53.1083 43.4737 52.9722C43.4019 52.836 43.2324 52.7841 43.0954 52.8554C42.2997 53.2705 41.4105 53.5126 40.5212 53.5515C39.8929 53.5796 39.2646 53.5105 38.6537 53.3462C38.7319 53.1083 38.8581 52.8446 39.0298 52.6738C39.0994 52.6046 39.2016 52.5009 39.369 52.4295C39.419 52.4079 39.4559 52.3971 39.5407 52.369L39.6103 52.3474C39.8103 52.2847 39.9712 52.2306 40.0799 52.1939C40.2256 52.1442 40.3038 51.9863 40.2538 51.8393C40.2038 51.6945 40.0451 51.6167 39.8973 51.6664C39.7929 51.7031 39.6342 51.755 39.4407 51.8177L39.3711 51.8393C39.2559 51.8761 39.2081 51.8912 39.1407 51.9215C38.8798 52.0361 38.7124 52.2025 38.6319 52.2825C38.2276 52.6868 38.0754 53.3029 38.0384 53.4824C38.0101 53.6229 38.0906 53.7612 38.2276 53.8045C38.8841 54.012 39.5625 54.1158 40.2451 54.1158H40.2473Z" fill="#408F95"/>
<path d="M39.4214 48.7868C39.5693 48.7868 39.6932 48.67 39.7019 48.5209C39.7084 48.3674 39.5888 48.2377 39.4345 48.229C39.1605 48.216 38.9192 48.1944 38.6953 48.1598C38.5431 48.1382 38.3996 48.242 38.3779 48.3933C38.3561 48.5446 38.4605 48.6873 38.6127 48.7089C38.8562 48.7457 39.1171 48.7695 39.4084 48.7824C39.4127 48.7824 39.4171 48.7824 39.4214 48.7824V48.7868Z" fill="#408F95"/>
<path d="M38.6536 48.7154C38.7993 48.7154 38.9232 48.603 38.9319 48.456C38.9428 48.3025 38.8254 48.1706 38.671 48.1598C37.9514 48.1144 37.5905 47.881 37.5601 47.6842C37.5318 47.5026 37.7818 47.1978 38.3971 46.9535C38.5406 46.8973 38.6102 46.7352 38.5536 46.5925C38.4971 46.4498 38.334 46.3806 38.1905 46.4368C37.3687 46.7611 36.9252 47.2583 37.0078 47.7707C37.0926 48.3025 37.7014 48.6549 38.6362 48.7133C38.6428 48.7133 38.6493 48.7133 38.6536 48.7133V48.7154Z" fill="#408F95"/>
<path d="M47.9437 46.96C48.072 46.96 48.1872 46.8714 48.2155 46.7438C48.2503 46.5947 48.1546 46.4455 48.0046 46.4109C45.6675 45.8856 43.3085 45.7364 40.9909 45.9677C40.3409 46.0326 39.6843 46.1277 39.0408 46.2531C38.8886 46.2833 38.7907 46.4282 38.819 46.5795C38.8494 46.7309 38.9951 46.8281 39.1473 46.8C39.7734 46.679 40.4126 46.586 41.0475 46.5212C43.3042 46.2963 45.6044 46.4412 47.8807 46.9535C47.9024 46.9579 47.922 46.96 47.9416 46.96H47.9437Z" fill="#408F95"/>
<path d="M51.2811 48.3803C51.3724 48.3803 51.4615 48.3349 51.5159 48.2549C51.6006 48.1252 51.5637 47.9544 51.4354 47.8701C51.0463 47.6172 50.6375 47.3859 50.2201 47.187C49.8222 46.9946 49.4048 46.826 48.983 46.6854C48.8852 46.653 48.8004 46.6249 48.7417 46.6076C48.596 46.5622 48.4373 46.6444 48.3917 46.7892C48.346 46.9362 48.4286 47.0919 48.5743 47.1373C48.6308 47.1546 48.7091 47.1805 48.8026 47.2108C49.2026 47.3448 49.5961 47.5048 49.9744 47.6864C50.3701 47.8766 50.7571 48.095 51.1267 48.3349C51.1745 48.3652 51.2267 48.3803 51.2789 48.3803H51.2811Z" fill="#408F95"/>
<path d="M47.0063 47.0227C47.0498 47.0227 47.0911 47.0054 47.1215 46.9708C47.1781 46.9081 47.1715 46.8108 47.1085 46.7546C47.0781 46.7287 47.0324 46.6898 46.9759 46.6444C46.7628 46.4779 46.528 46.3417 46.2758 46.2358C46.0823 46.1536 45.8758 46.0909 45.6671 46.0499C45.5844 46.0326 45.5018 46.0866 45.4866 46.1709C45.4714 46.2552 45.5236 46.3352 45.6084 46.3504C45.7975 46.3871 45.9823 46.4433 46.1562 46.5168C46.3823 46.6119 46.5954 46.7373 46.7867 46.8843C46.8367 46.9232 46.878 46.96 46.9063 46.9838C46.9346 47.0097 46.9715 47.0227 47.0085 47.0227H47.0063Z" fill="#408F95"/>
<path d="M45.5501 46.9773C45.6001 46.9773 45.6501 46.9514 45.6805 46.906C45.7262 46.8346 45.7066 46.7395 45.6349 46.6941C45.6023 46.6725 45.5544 46.6422 45.4957 46.6076C45.2761 46.4758 45.0392 46.3525 44.7978 46.2466C44.6087 46.1623 44.4174 46.0888 44.2239 46.0239C44.1434 45.998 44.0565 46.0412 44.0282 46.1212C44.0021 46.2012 44.0456 46.2877 44.126 46.3158C44.3087 46.3763 44.4934 46.4477 44.6717 46.5277C44.9022 46.6293 45.1261 46.746 45.337 46.8714C45.3935 46.9038 45.4392 46.9341 45.4696 46.9535C45.4957 46.9708 45.524 46.9773 45.5522 46.9773H45.5501Z" fill="#408F95"/>
<path d="M43.7082 46.9795C43.756 46.9795 43.8017 46.9579 43.8321 46.9168C43.8821 46.8498 43.8691 46.7525 43.7995 46.7028C43.7669 46.679 43.7213 46.6444 43.6626 46.6055C43.4451 46.4585 43.2103 46.3309 42.9625 46.2228C42.7712 46.1407 42.5733 46.0693 42.3733 46.0153C42.2907 45.9915 42.2059 46.0412 42.1842 46.1234C42.1624 46.2055 42.2103 46.2899 42.2929 46.3115C42.4777 46.3612 42.6625 46.426 42.8407 46.5039C43.0712 46.6033 43.2886 46.7222 43.4908 46.8584C43.5452 46.8952 43.5886 46.9254 43.6169 46.9471C43.6452 46.9665 43.6756 46.9773 43.7082 46.9773V46.9795Z" fill="#408F95"/>
<path d="M40.1495 52.8987C40.1495 52.8987 40.1647 52.8987 40.1712 52.8987L41.4127 52.7279C41.4974 52.7171 41.5562 52.6392 41.5431 52.5549C41.5322 52.4706 41.4518 52.4122 41.3692 52.4252L40.1278 52.596C40.043 52.6068 39.9843 52.6846 39.9973 52.7689C40.0082 52.8446 40.0734 52.9008 40.1495 52.9008V52.8987Z" fill="#408F95"/>
<path d="M32.1659 52.6457C32.2072 52.6457 32.2507 52.6349 32.2898 52.609C32.6638 52.3733 32.9964 52.0837 33.2747 51.7486C33.6486 51.3011 33.9987 50.8795 33.953 50.3261C33.9052 49.7618 33.4725 49.4029 33.0138 49.0225C32.6377 48.7111 32.2137 48.4647 31.7506 48.2939C31.6311 48.2485 31.4984 48.309 31.4528 48.4279C31.4071 48.5468 31.468 48.6787 31.5876 48.7241C32.0007 48.8776 32.3811 49.0981 32.7159 49.3748C33.1312 49.7186 33.4595 49.991 33.4921 50.365C33.5225 50.7303 33.2573 51.0503 32.9203 51.4546C32.6725 51.7529 32.3768 52.0102 32.042 52.222C31.9333 52.289 31.9028 52.4317 31.9702 52.5398C32.0137 52.609 32.0898 52.6457 32.1659 52.6457Z" fill="#408F95"/>
<path d="M25.3201 43.2308C25.4462 43.2308 25.5593 43.1465 25.5919 43.019C25.6463 42.8028 25.6441 42.5974 25.5832 42.4072C25.2875 41.4732 23.7787 41.3111 22.6786 41.1944C21.5394 41.0711 20.3675 41.1079 19.1978 41.3003C19.0457 41.3262 18.9413 41.4689 18.9674 41.6203C18.9935 41.7716 19.1348 41.8753 19.2892 41.8494C20.4088 41.6635 21.5307 41.6311 22.6177 41.7478C23.4569 41.8386 24.8636 41.9899 25.0484 42.5758C25.0766 42.6666 25.0766 42.7704 25.0484 42.8849C25.0114 43.0341 25.1027 43.1854 25.2527 43.2222C25.2745 43.2287 25.2984 43.2308 25.3201 43.2308Z" fill="#408F95"/>
<path d="M22.6589 46.8909C22.7176 46.8909 22.7785 46.8714 22.8285 46.8347C23.2611 46.5082 23.6764 46.1602 24.0677 45.7991C24.2395 45.6413 24.4743 45.4251 24.7613 45.116C25.0243 44.8328 25.2744 44.5345 25.5048 44.2275C25.5157 44.2123 25.5244 44.1972 25.5331 44.1799C25.5418 44.1604 25.557 44.1323 25.5766 44.0956C25.807 43.6654 26.0136 43.22 25.8114 42.9347C25.7527 42.8525 25.6135 42.7228 25.3309 42.7639C25.1787 42.7855 25.0722 42.9282 25.0939 43.0795C25.1113 43.2006 25.2048 43.2914 25.3178 43.313C25.2918 43.406 25.2244 43.5659 25.0809 43.8362C25.0635 43.8664 25.0504 43.8945 25.0396 43.914C24.8243 44.1994 24.5917 44.4761 24.3482 44.7377C24.0764 45.0317 23.8503 45.2392 23.6851 45.3906C23.309 45.7386 22.9046 46.0737 22.4872 46.3915C22.3632 46.4845 22.3415 46.6596 22.435 46.7806C22.4893 46.852 22.5741 46.8909 22.6567 46.8909H22.6589Z" fill="#408F95"/>
<path d="M8.71677 49.5954C8.75156 49.5954 8.78634 49.5889 8.82113 49.5759C9.35378 49.364 9.89731 49.23 10.4343 49.1759C10.8278 49.137 11.1931 49.1522 11.6975 49.1759C11.8671 49.1846 12.0519 49.1911 12.2562 49.1997L12.9845 49.2257C13.5803 49.2473 13.739 49.2538 14.0129 49.2473C14.6195 49.2365 15.2261 49.1868 15.8152 49.0981C17.6937 48.8171 19.746 48.1404 19.833 48.1101C20.7635 47.7967 21.6919 47.4227 22.5919 47.0033C22.7311 46.9384 22.792 46.772 22.7267 46.6336C22.6615 46.4952 22.4941 46.4347 22.355 46.4996C21.4744 46.9125 20.5678 47.2757 19.6569 47.5827C19.6373 47.5891 17.5654 48.2723 15.7348 48.5468C15.1695 48.6312 14.5869 48.6787 14.0064 48.6895C13.7477 48.6939 13.6063 48.6895 13.0063 48.6679L12.2758 48.642C12.0736 48.6355 11.891 48.6268 11.7214 48.6182C11.1931 48.5944 10.8104 48.5771 10.3778 48.6203C9.78861 48.6787 9.19507 48.8257 8.61241 49.057C8.46891 49.1133 8.39935 49.2754 8.45588 49.4181C8.49936 49.5262 8.60372 49.5932 8.71677 49.5932V49.5954Z" fill="#408F95"/>
<path d="M0.28101 48.5036C0.322319 48.5036 0.36145 48.495 0.400583 48.4777C0.576687 48.3934 0.761488 48.3177 0.946287 48.2528C1.55939 48.0345 2.10074 47.961 2.83124 47.907C4.31833 47.7967 5.88151 47.8183 6.46852 47.8659C6.55766 47.8724 6.7729 47.8918 7.05988 47.881C7.30773 47.8724 7.55775 47.8443 7.80342 47.7989C7.82299 47.7945 7.84256 47.7902 7.85995 47.7816C8.00562 47.721 8.14694 47.6518 8.28391 47.5783C8.61002 47.4011 8.83613 47.2216 8.93396 47.1438L8.96222 47.1222C9.9884 46.3396 11.0581 45.5916 12.1429 44.902C13.1409 44.2664 13.9301 43.7648 15.0215 43.2438C16.1737 42.6947 17.3912 42.2537 18.6414 41.9316C18.7914 41.8926 18.8805 41.7413 18.8414 41.5921C18.8022 41.443 18.6501 41.3543 18.5 41.3933C17.213 41.724 15.9607 42.178 14.778 42.7423C13.6561 43.2784 12.8539 43.7864 11.8407 44.4328C10.7428 45.1311 9.65794 45.8878 8.62089 46.6812L8.5861 46.7071C8.49913 46.7741 8.29912 46.9341 8.01431 47.0898C7.90343 47.1503 7.78821 47.2065 7.67081 47.2562C7.46427 47.293 7.2512 47.3168 7.04031 47.3232C6.78594 47.3319 6.59462 47.3168 6.52287 47.3103C5.79237 47.2497 4.16397 47.2497 2.78993 47.3513C2.0116 47.4097 1.43111 47.4875 0.757141 47.7275C0.552774 47.7989 0.352757 47.8832 0.15926 47.974C0.0201168 48.041 -0.0385933 48.2053 0.0266304 48.3458C0.074461 48.4453 0.174477 48.5036 0.278833 48.5036H0.28101Z" fill="#408F95"/>
<path d="M3.49865 54.8206C3.56822 54.8206 3.63995 54.7947 3.69431 54.7406L6.11192 52.3971C6.54456 51.9345 6.9533 51.4611 7.34029 50.979C7.63163 50.6158 7.91426 50.2418 8.18603 49.8634C8.27517 49.738 8.24473 49.5651 8.12081 49.4765C7.99471 49.3878 7.82077 49.4181 7.73163 49.5413C7.46639 49.911 7.19028 50.2785 6.90547 50.6331C6.52718 51.1043 6.12715 51.567 5.71406 52.0102L3.30732 54.345C3.19644 54.4531 3.19426 54.6282 3.30297 54.7384C3.35732 54.7947 3.43124 54.8228 3.50298 54.8228L3.49865 54.8206Z" fill="#408F95"/>
<path d="M3.4983 54.8206C3.61353 54.8206 3.72005 54.7493 3.76136 54.6368C4.05704 53.8175 4.21141 52.9744 4.22011 52.1356C4.2288 51.4308 4.23315 50.8752 3.91573 50.2677C3.55482 49.5802 2.99825 49.2408 2.29384 48.8128L2.23297 48.776C1.65465 48.4236 1.02199 48.1491 0.354534 47.9588C0.206694 47.9156 0.0501657 48.0021 0.00885773 48.1491C-0.0346246 48.2961 0.0523276 48.4518 0.200167 48.4928C0.819788 48.6679 1.40462 48.923 1.93945 49.2495L2.00034 49.2862C2.65692 49.6862 3.13088 49.9737 3.41786 50.525C3.67223 51.0092 3.66571 51.4546 3.65918 52.1291C3.65049 52.9052 3.50699 53.6856 3.23305 54.4488C3.18087 54.5936 3.25697 54.7536 3.40264 54.8055C3.43308 54.8163 3.46569 54.8228 3.49612 54.8228L3.4983 54.8206Z" fill="#408F95"/>
<path d="M19.5299 46.3007C19.7169 46.3007 19.9191 46.2791 20.1321 46.2272C20.8931 46.0369 21.3583 45.5592 21.5692 45.2889C21.6649 45.1679 21.6431 44.9928 21.5214 44.8976C21.3996 44.8025 21.2235 44.8241 21.1279 44.9452C20.9605 45.1571 20.593 45.5354 19.9952 45.6846C19.3973 45.8337 18.9277 45.6629 18.6189 45.5505C18.5733 45.5332 18.5363 45.5203 18.5059 45.5051C18.6342 45.4208 18.8711 45.3106 19.2125 45.1765C19.7799 44.9517 20.3952 44.7982 21.0409 44.7225C21.1953 44.7052 21.304 44.5669 21.2866 44.4134C21.2692 44.2599 21.13 44.1496 20.9757 44.1691C20.2821 44.2512 19.6169 44.4156 19.0038 44.6598C18.345 44.9214 17.8058 45.1722 17.858 45.5894C17.8884 45.8445 18.1624 45.9764 18.4276 46.0715C18.6646 46.158 19.0494 46.2985 19.5321 46.2985L19.5299 46.3007Z" fill="#408F95"/>
<path d="M22.8526 45.9094C22.9722 45.9094 23.0831 45.8337 23.12 45.7148C23.1657 45.5678 23.0853 45.4121 22.9374 45.3668C22.4026 45.2003 21.9286 44.9279 21.5286 44.5604C21.3177 44.3658 21.1286 44.1453 20.9677 43.9032C20.8829 43.7756 20.7089 43.7389 20.5807 43.8232C20.4524 43.9075 20.4154 44.0804 20.5002 44.208C20.685 44.4869 20.9024 44.742 21.1459 44.9668C21.6069 45.3905 22.1526 45.704 22.7678 45.8964C22.7961 45.9051 22.8244 45.9094 22.8526 45.9094Z" fill="#408F95"/>
<path d="M23.4635 42.9368C23.5309 42.9368 23.5961 42.9238 23.6592 42.9C23.9374 42.7919 24.0766 42.4785 23.9679 42.2017C23.8592 41.925 23.5439 41.7867 23.2656 41.8948C22.9874 42.0029 22.8482 42.3163 22.9569 42.593C23.0091 42.7271 23.1113 42.833 23.2439 42.8914C23.3135 42.9216 23.3874 42.9368 23.4613 42.9368H23.4635ZM23.4809 42.392C23.4852 42.4006 23.4809 42.4114 23.47 42.4136C23.4635 42.4158 23.4504 42.4114 23.4483 42.4028L23.4809 42.3898V42.392ZM23.4809 42.392L23.4483 42.405C23.4483 42.405 23.4483 42.3855 23.4591 42.3833C23.4678 42.3812 23.4787 42.3855 23.4809 42.3942V42.392Z" fill="#408F95"/>
<path d="M17.3349 49.9953C17.5154 49.9953 17.6806 49.965 17.761 49.9477C18.0393 49.8872 18.3154 49.8072 18.5807 49.7078C18.9481 49.5737 19.3025 49.4008 19.6373 49.1997C20.8548 48.4668 21.4875 47.9199 22.5376 47.0162C22.655 46.9146 22.668 46.7395 22.5658 46.6228C22.4636 46.506 22.2875 46.4931 22.1701 46.5947C21.107 47.5091 20.5222 48.015 19.346 48.7241C19.0416 48.9079 18.7176 49.0635 18.385 49.1868C18.1437 49.2754 17.8915 49.3489 17.6393 49.4051C17.4828 49.4397 17.3284 49.444 17.2349 49.4332C17.3001 49.3013 17.4936 49.0376 17.9306 48.6225C18.0415 48.5166 18.0459 48.3393 17.9393 48.229C17.8328 48.1188 17.6545 48.1145 17.5436 48.2204C16.5588 49.1565 16.5696 49.5154 16.7109 49.7423C16.837 49.9434 17.0958 49.9975 17.3306 49.9975L17.3349 49.9953Z" fill="#408F95"/>
<path d="M10.888 51.2708C10.888 51.2708 10.8967 51.2708 10.901 51.2708C11.6902 51.2319 12.4577 51.0589 13.1817 50.7541C14.0752 50.3779 14.8927 49.7942 15.5471 49.0678C15.6493 48.9532 15.6406 48.7781 15.5254 48.6744C15.4101 48.5706 15.234 48.5814 15.1297 48.696C14.5296 49.3618 13.7796 49.8958 12.9621 50.2417C12.3816 50.486 11.7707 50.6395 11.1402 50.6957C11.1315 50.4817 11.1445 50.1812 11.2576 49.9369C11.2989 49.8483 11.3598 49.7164 11.488 49.5888C11.5272 49.5521 11.5576 49.5283 11.6272 49.4743L11.6859 49.4289C11.8511 49.3013 11.9837 49.1932 12.0707 49.1219C12.1903 49.0246 12.2077 48.8495 12.1098 48.7306C12.012 48.6117 11.8359 48.5944 11.7163 48.6917C11.6315 48.7608 11.5011 48.8668 11.3402 48.99L11.2837 49.0354C11.188 49.1089 11.1489 49.1413 11.0967 49.1911C10.8923 49.3899 10.7945 49.604 10.7467 49.7056C10.5097 50.2223 10.5814 50.8535 10.6097 51.0351C10.6314 51.1713 10.7488 51.2708 10.8858 51.2708H10.888Z" fill="#408F95"/>
<path d="M9.4186 46.372C9.43817 46.372 9.45774 46.372 9.4773 46.3655C9.71646 46.3158 9.97083 46.2466 10.2491 46.158C10.397 46.1104 10.4774 45.9548 10.4296 45.8078C10.3817 45.6608 10.2252 45.5808 10.0774 45.6283C9.81646 45.7105 9.58166 45.7754 9.3599 45.8208C9.20771 45.8532 9.11205 46.0002 9.14466 46.1515C9.17292 46.2834 9.28815 46.372 9.4186 46.372Z" fill="#408F95"/>
<path d="M8.63578 46.5018C8.89232 46.5018 9.18147 46.4564 9.49889 46.3612C9.64673 46.318 9.73153 46.1623 9.68587 46.0153C9.64239 45.8683 9.48585 45.784 9.33801 45.8294C8.64664 46.0348 8.22704 45.9418 8.12921 45.7689C8.03789 45.6089 8.16616 45.2349 8.65751 44.796C8.77274 44.6923 8.78143 44.5172 8.67925 44.4026C8.57489 44.288 8.3988 44.2794 8.28357 44.381C7.62699 44.969 7.38566 45.5894 7.64221 46.0413C7.81396 46.3439 8.16617 46.5018 8.63578 46.5018Z" fill="#408F95"/>
<path d="M9.1616 44.4263C9.21161 44.4263 9.26161 44.4134 9.30726 44.3853C9.85297 44.0545 10.4182 43.7453 10.99 43.4665C13.0272 42.4742 15.2317 41.8126 17.5471 41.5035C17.6993 41.484 17.808 41.3435 17.7863 41.19C17.7646 41.0387 17.6254 40.9306 17.4711 40.9522C15.0969 41.27 12.8337 41.9488 10.7422 42.9671C10.1552 43.2524 9.57251 43.5702 9.01377 43.9118C8.88114 43.9918 8.83983 44.1626 8.92027 44.2945C8.97245 44.3809 9.06594 44.4285 9.15943 44.4285L9.1616 44.4263Z" fill="#408F95"/>
<path d="M21.1371 41.6808C21.2654 41.6808 21.3806 41.5943 21.4089 41.4646C21.4437 41.3154 21.348 41.1662 21.198 41.1316C20.7458 41.03 20.2805 40.9544 19.8196 40.9111C19.3782 40.8701 18.9304 40.8549 18.4847 40.8701C18.3803 40.8722 18.2934 40.8765 18.2303 40.8809C18.076 40.8895 17.9586 41.0192 17.9651 41.1727C17.9716 41.3262 18.1064 41.443 18.2586 41.4365C18.3173 41.4343 18.3999 41.43 18.4999 41.4257C18.9217 41.4127 19.3478 41.4257 19.7652 41.4667C20.2044 41.5078 20.6436 41.577 21.0719 41.6743C21.0936 41.6786 21.1132 41.6808 21.1349 41.6808H21.1371Z" fill="#408F95"/>
<path d="M16.6997 41.8818C16.7606 41.8818 16.8193 41.845 16.8432 41.7845C16.8736 41.7045 16.8345 41.6159 16.7541 41.5856C16.7149 41.5705 16.6584 41.551 16.591 41.5294C16.3345 41.4473 16.0649 41.3997 15.7909 41.3889C15.5801 41.3802 15.3648 41.391 15.1539 41.4256C15.0691 41.4386 15.0126 41.5186 15.0257 41.6007C15.0387 41.6851 15.1191 41.7391 15.2018 41.7283C15.3909 41.698 15.5844 41.6872 15.7736 41.6959C16.0192 41.7067 16.2627 41.7499 16.4932 41.8234C16.5541 41.8429 16.6041 41.8623 16.6388 41.8753C16.6562 41.8818 16.6758 41.8861 16.6932 41.8861L16.6997 41.8818Z" fill="#408F95"/>
<path d="M15.3173 42.3445C15.3891 42.3445 15.4521 42.2948 15.4674 42.2234C15.4848 42.1413 15.4326 42.0591 15.35 42.0418C15.313 42.0332 15.2565 42.0224 15.1891 42.0094C14.9369 41.9618 14.6738 41.9294 14.4064 41.9121C14.1999 41.8991 13.9933 41.8948 13.7911 41.9013C13.7063 41.9035 13.6389 41.9748 13.6411 42.0591C13.6433 42.1434 13.7194 42.204 13.7998 42.2083C13.9933 42.2018 14.189 42.2061 14.3868 42.2169C14.639 42.2321 14.8912 42.2645 15.1304 42.3099C15.1934 42.3229 15.2478 42.3337 15.2826 42.3402C15.2934 42.3423 15.3043 42.3445 15.3152 42.3445H15.3173Z" fill="#408F95"/>
<path d="M13.5931 42.9844C13.6605 42.9844 13.7213 42.9411 13.7409 42.8741C13.7648 42.792 13.717 42.7077 13.6365 42.6839C13.5974 42.6731 13.5431 42.6579 13.4735 42.6406C13.2191 42.5779 12.9539 42.539 12.6843 42.5261C12.4756 42.5153 12.2647 42.5174 12.0603 42.5369C11.9755 42.5434 11.9125 42.619 11.9212 42.7033C11.9299 42.7876 12.006 42.8503 12.0886 42.8417C12.2799 42.8244 12.4756 42.8222 12.6691 42.833C12.9191 42.846 13.1669 42.8828 13.4017 42.9411C13.4648 42.9563 13.517 42.9714 13.5518 42.9801C13.567 42.9844 13.58 42.9865 13.5952 42.9865L13.5931 42.9844Z" fill="#408F95"/>
<path d="M12.332 49.7661C12.3559 49.7661 12.382 49.7596 12.4059 49.7467L13.5082 49.1565C13.5821 49.1154 13.6104 49.0224 13.5713 48.9489C13.5299 48.8754 13.4365 48.8473 13.3625 48.8862L12.2603 49.4764C12.1863 49.5175 12.1581 49.6105 12.1972 49.684C12.2255 49.7358 12.2777 49.7639 12.332 49.7639V49.7661Z" fill="#408F95"/>
<path d="M4.73167 52.302C4.80124 52.302 4.87081 52.2718 4.91646 52.2112C5.18388 51.861 5.39478 51.474 5.53827 51.0633C5.73176 50.5163 5.91222 49.9975 5.67524 49.4959C5.43174 48.9836 4.90125 48.7955 4.33816 48.5987C3.87724 48.4366 3.39242 48.3545 2.8989 48.3523C2.77062 48.3523 2.66844 48.4539 2.66844 48.5815C2.66844 48.709 2.77062 48.8106 2.8989 48.8128C3.34024 48.8128 3.77288 48.8884 4.18379 49.0333C4.69471 49.2127 5.09692 49.3532 5.2578 49.6927C5.41434 50.0256 5.27738 50.4169 5.10345 50.9141C4.97517 51.2795 4.78819 51.6232 4.54904 51.9367C4.47077 52.0383 4.49251 52.181 4.59252 52.2588C4.63383 52.2912 4.68384 52.3063 4.73167 52.3063V52.302Z" fill="#408F95"/>
<path d="M56.465 24.5177C56.5629 24.5177 56.6607 24.4701 56.7194 24.3837C56.889 24.1394 56.9803 23.8821 56.9933 23.6184C57.0607 22.304 55.1888 21.3744 53.8235 20.6955C52.3951 19.9864 50.8471 19.4676 49.2253 19.1541C49.0578 19.1217 48.897 19.2298 48.8643 19.3963C48.8317 19.5627 48.9404 19.7227 49.1078 19.7551C50.6754 20.0578 52.1712 20.5593 53.5474 21.2425C54.6236 21.7786 56.4237 22.6736 56.3781 23.5881C56.3715 23.7351 56.315 23.8864 56.2107 24.0378C56.115 24.1783 56.1498 24.3685 56.2911 24.4637C56.3433 24.5004 56.4042 24.5177 56.465 24.5177Z" fill="#408F95"/>
<path d="M51.1781 28.0307C51.2085 28.0307 51.239 28.0264 51.2672 28.0177C51.9912 27.7994 52.7065 27.5443 53.3935 27.2632C53.6935 27.14 54.1044 26.9714 54.6327 26.7055C55.1154 26.4633 55.5872 26.1931 56.0394 25.9034C56.0568 25.8926 56.072 25.8796 56.0872 25.8667C56.109 25.8451 56.1459 25.8126 56.1894 25.7737C56.6829 25.337 57.1547 24.8744 57.0417 24.4485C57.0112 24.3318 56.9069 24.1242 56.559 24.0507C56.3938 24.0161 56.2285 24.1199 56.1937 24.2864C56.159 24.4463 56.259 24.6041 56.4155 24.6452C56.3568 24.7533 56.1894 24.95 55.7807 25.3154C55.7415 25.35 55.7089 25.3803 55.6828 25.4019C55.2567 25.6743 54.811 25.9272 54.3566 26.1564C53.8501 26.4115 53.4522 26.5758 53.1609 26.6947C52.4934 26.9692 51.7955 27.2157 51.0911 27.4297C50.9281 27.4794 50.8367 27.6502 50.8867 27.8124C50.9281 27.9442 51.0498 28.0307 51.1824 28.0307H51.1781Z" fill="#408F95"/>
<path d="M47.7802 28.2512C48.8151 28.2512 49.8565 28.208 50.8892 28.1215C51.0588 28.1064 51.1849 27.9594 51.1697 27.7908C51.1566 27.6221 51.0066 27.4968 50.837 27.5119C49.4782 27.6265 48.1063 27.6632 46.7562 27.6243C46.7279 27.6243 43.6668 27.5141 41.1231 26.9844C40.3361 26.8201 39.5447 26.5996 38.7751 26.3293C38.4315 26.2083 38.2467 26.1326 37.4684 25.8127L36.5248 25.4257C36.2618 25.3176 36.027 25.2182 35.8096 25.1274C35.1291 24.8398 34.6377 24.6344 34.0529 24.481C33.2572 24.2734 32.4158 24.1805 31.5461 24.1999C31.3766 24.2042 31.2418 24.3448 31.2461 24.5134C31.2505 24.682 31.3983 24.8117 31.5614 24.8117C32.3723 24.7923 33.1572 24.8809 33.8963 25.0733C34.4377 25.2138 34.9117 25.4149 35.5682 25.6894C35.7856 25.7824 36.0226 25.8818 36.2879 25.9899L37.2314 26.3769C38.0011 26.6947 38.2076 26.779 38.5685 26.9044C39.3642 27.1833 40.1817 27.4124 40.997 27.5811C43.5951 28.1215 46.7062 28.2318 46.7388 28.234C47.0845 28.2448 47.4324 28.2491 47.7824 28.2491L47.7802 28.2512Z" fill="#408F95"/>
<path d="M31.1679 21.9948C31.1679 21.9948 31.1766 21.9948 31.1809 21.9948C31.3983 21.9861 31.6157 21.9667 31.8288 21.9343C32.3375 21.8608 32.7202 21.7375 32.8832 21.6835L32.9311 21.6683C34.6638 21.1365 36.4357 20.676 38.2011 20.2956C39.8252 19.9453 41.1101 19.6708 42.8015 19.5151C44.5865 19.353 46.4084 19.3638 48.2129 19.5497C48.3825 19.5692 48.5347 19.4459 48.5521 19.2773C48.5695 19.1087 48.4477 18.9574 48.2781 18.9401C46.4345 18.7498 44.5734 18.739 42.7472 18.9033C41.0188 19.0611 39.7187 19.34 38.0729 19.6946C36.2901 20.0772 34.4986 20.5442 32.7506 21.0803L32.6941 21.0976C32.5463 21.1452 32.1984 21.2576 31.7418 21.3246C31.5592 21.3506 31.3744 21.37 31.1896 21.3765C30.8918 21.3246 30.5961 21.2511 30.3091 21.156C29.9656 21.0414 29.7199 20.9268 29.6264 20.8836C28.7024 20.4534 26.5696 19.6621 24.7216 19.1303C23.6802 18.8298 22.8845 18.6547 21.8931 18.6417C21.5931 18.6374 21.2909 18.6482 20.9952 18.6742C20.8256 18.6893 20.6995 18.8385 20.7148 19.0071C20.73 19.1757 20.8778 19.3011 21.0496 19.286C21.3257 19.2622 21.6061 19.2535 21.8866 19.2557C22.8062 19.2687 23.5607 19.4351 24.5521 19.7205C26.5631 20.2999 28.6089 21.0868 29.359 21.4349C29.4699 21.4867 29.7395 21.6121 30.1178 21.7375C30.4461 21.8456 30.7831 21.9299 31.1222 21.9883C31.1396 21.9905 31.157 21.9926 31.1744 21.9926L31.1679 21.9948Z" fill="#408F95"/>
<path d="M22.1448 29.1398C22.1862 29.1398 22.2296 29.1311 22.2688 29.1138L26.5909 27.2114C27.3779 26.8179 28.1476 26.3942 28.8911 25.951C29.4499 25.6159 30.0064 25.2614 30.5434 24.8982C30.6848 24.8031 30.7195 24.6128 30.6239 24.4723C30.5282 24.3318 30.3369 24.295 30.1956 24.3923C29.6673 24.749 29.1216 25.0971 28.5715 25.4257C27.841 25.8624 27.0866 26.2775 26.3257 26.658L22.0187 28.5539C21.8622 28.6231 21.7926 28.8025 21.8622 28.9582C21.9122 29.0728 22.0253 29.1398 22.1448 29.1398Z" fill="#408F95"/>
<path d="M22.1445 29.1397C22.2315 29.1397 22.3185 29.103 22.3793 29.0316C23.1642 28.1064 23.7751 27.086 24.1947 25.9986C24.5469 25.0884 24.823 24.3707 24.7078 23.4389C24.5752 22.3839 24.0164 21.677 23.3099 20.782L23.249 20.7041C22.6663 19.9669 21.9793 19.3054 21.201 18.7368C21.064 18.6374 20.8705 18.6655 20.7705 18.8017C20.6705 18.9379 20.6988 19.1303 20.8357 19.2298C21.5684 19.7659 22.2163 20.3885 22.7642 21.0825L22.825 21.1603C23.499 22.0121 23.986 22.6282 24.0969 23.5146C24.1947 24.2928 23.9664 24.883 23.6208 25.778C23.2251 26.8028 22.6489 27.7648 21.9076 28.636C21.7989 28.7657 21.8141 28.9581 21.9445 29.0684C22.0032 29.116 22.0728 29.1397 22.1424 29.1397H22.1445Z" fill="#408F95"/>
<path d="M48.4471 25.9316C49.3255 25.9316 50.0038 25.603 50.3538 25.3889C50.4995 25.3003 50.543 25.1122 50.4538 24.9674C50.3647 24.8225 50.1756 24.7771 50.0299 24.8679C49.6973 25.0712 49.0081 25.3976 48.1275 25.3003C47.2449 25.203 46.7013 24.7404 46.3404 24.4356C46.2252 24.3383 46.1556 24.2669 46.1143 24.2194C46.26 24.1632 46.5991 24.107 47.3536 24.0875C48.2167 24.068 49.1081 24.1653 49.9994 24.3815C50.1647 24.4226 50.3321 24.321 50.3712 24.1567C50.4125 23.9924 50.3103 23.8259 50.1451 23.787C49.2016 23.5578 48.2558 23.4541 47.3383 23.4757C46.4165 23.4973 45.5795 23.56 45.4556 24.0767C45.3969 24.3231 45.536 24.5631 45.9382 24.9047C46.3296 25.2376 46.9861 25.7932 48.058 25.9121C48.1906 25.9273 48.321 25.9337 48.445 25.9337L48.4471 25.9316Z" fill="#408F95"/>
<path d="M51.9152 26.8374C52.0065 26.8374 52.0979 26.7963 52.1587 26.7185C52.2631 26.5844 52.2392 26.392 52.1044 26.2883C51.4739 25.8018 50.9782 25.2073 50.6282 24.5199C50.4434 24.1567 50.302 23.7675 50.2086 23.3676C50.1694 23.2033 50.0042 23.0995 49.839 23.1384C49.6737 23.1773 49.5694 23.3416 49.6085 23.5059C49.7129 23.9556 49.8716 24.3901 50.0781 24.7966C50.4673 25.5662 51.0217 26.2299 51.7261 26.7725C51.7826 26.8158 51.8478 26.8374 51.9152 26.8374Z" fill="#408F95"/>
<path d="M54.3023 23.2552C54.3023 23.2552 54.3088 23.2552 54.3131 23.2552C54.6849 23.2509 54.9849 22.9439 54.9784 22.5742C54.9741 22.2067 54.6719 21.9127 54.3023 21.9127C54.3001 21.9127 54.2957 21.9127 54.2936 21.9127C53.9218 21.917 53.6218 22.224 53.6283 22.5936C53.6326 22.9612 53.9348 23.2552 54.3044 23.2552H54.3023ZM54.3023 22.5245C54.3349 22.5245 54.361 22.5504 54.361 22.5828C54.361 22.6023 54.3523 22.6174 54.3436 22.6239C54.3349 22.6326 54.3218 22.6412 54.3023 22.6412C54.2718 22.6412 54.2436 22.6153 54.2414 22.5828C54.2414 22.5504 54.2675 22.5245 54.3001 22.5223L54.3023 22.5245Z" fill="#408F95"/>
<path d="M44.319 29.7235C44.8582 29.7235 45.3996 29.6716 45.93 29.5721C47.8802 29.2003 48.976 28.7939 50.7935 28.1172C50.9522 28.0588 51.0327 27.8815 50.974 27.7237C50.9131 27.5659 50.737 27.4859 50.5783 27.5443C48.7303 28.2318 47.7128 28.6101 45.8148 28.9711C45.3235 29.0641 44.8191 29.1116 44.3212 29.1116H44.3125C43.9472 29.1116 43.5777 29.0857 43.2146 29.0338C42.908 28.9906 42.645 28.8847 42.5515 28.8133C42.6406 28.6966 42.995 28.4047 43.9603 27.9918C44.1168 27.9248 44.1886 27.7453 44.1212 27.5897C44.0538 27.434 43.8733 27.3627 43.7168 27.4297C42.0101 28.1583 41.8623 28.6144 41.9253 28.9301C42.0319 29.4619 42.9472 29.6175 43.1276 29.6435C43.519 29.6975 43.9168 29.7256 44.3103 29.7278H44.3212L44.319 29.7235Z" fill="#408F95"/>
<path d="M36.2897 28.4847C36.4289 28.4847 36.568 28.4825 36.7072 28.4761C38.0529 28.4155 39.4009 28.0502 40.6032 27.4211C40.7532 27.3432 40.8119 27.1573 40.7314 27.0082C40.6532 26.859 40.4662 26.8006 40.3162 26.8806C39.1922 27.4686 37.9334 27.808 36.6789 27.8664C35.7593 27.9075 34.844 27.8016 33.9548 27.5529C34.0439 27.2568 34.22 26.8028 34.5265 26.4958C34.6222 26.4007 34.7787 26.2429 35.0266 26.1348C35.0918 26.1067 35.1418 26.0894 35.2766 26.0483L35.3723 26.018C35.6506 25.9294 35.8767 25.8537 36.0267 25.8018C36.1876 25.7478 36.2724 25.5727 36.218 25.4127C36.1615 25.2527 35.9875 25.1684 35.8267 25.2225C35.6788 25.2722 35.4592 25.3478 35.1853 25.4343L35.0896 25.4646C34.944 25.51 34.8722 25.5338 34.7744 25.5748C34.4222 25.7305 34.2048 25.9467 34.0895 26.0613C33.5395 26.6104 33.3308 27.4535 33.2808 27.6978C33.2482 27.8513 33.3395 28.0048 33.4895 28.0523C34.4004 28.3399 35.3418 28.4869 36.2876 28.4869L36.2897 28.4847Z" fill="#408F95"/>
<path d="M35.1333 21.0241C35.2963 21.0241 35.4333 20.8966 35.442 20.7323C35.4507 20.5637 35.3181 20.421 35.1485 20.4123C34.7637 20.395 34.4223 20.3626 34.1049 20.3172C33.9375 20.2913 33.7788 20.408 33.7549 20.5745C33.7288 20.7409 33.8462 20.8988 34.0136 20.9225C34.3506 20.9723 34.7136 21.0068 35.1202 21.0241C35.1246 21.0241 35.1289 21.0241 35.1354 21.0241H35.1333Z" fill="#408F95"/>
<path d="M34.059 20.9247C34.2199 20.9247 34.3547 20.7993 34.3656 20.6372C34.3764 20.4686 34.2482 20.3215 34.0786 20.3107C33.0198 20.2437 32.4958 19.8935 32.4458 19.5757C32.4023 19.3011 32.6959 18.8472 33.6699 18.4645C33.8286 18.4018 33.9047 18.2245 33.8438 18.0667C33.7807 17.9089 33.6025 17.8311 33.4437 17.8938C32.3328 18.3305 31.7327 18.9963 31.8393 19.6708C31.9501 20.3734 32.7741 20.8404 34.0416 20.9225C34.0482 20.9225 34.0547 20.9225 34.0612 20.9225L34.059 20.9247Z" fill="#408F95"/>
<path d="M47.0646 18.4666C47.2059 18.4666 47.332 18.3694 47.3646 18.2288C47.4016 18.0645 47.2972 17.9002 47.132 17.8635C43.8687 17.1306 40.5749 16.9231 37.3398 17.2452C36.431 17.336 35.5157 17.47 34.6156 17.643C34.4482 17.6754 34.3395 17.8354 34.3721 18.0018C34.4048 18.1683 34.5656 18.2764 34.7331 18.244C35.6136 18.0732 36.5093 17.9413 37.4007 17.8527C40.5684 17.537 43.7969 17.7403 46.995 18.4602C47.0189 18.4645 47.0407 18.4688 47.0624 18.4688L47.0646 18.4666Z" fill="#408F95"/>
<path d="M51.7364 20.4556C51.8364 20.4556 51.9365 20.4058 51.9952 20.3172C52.0886 20.1767 52.0495 19.9864 51.906 19.8935C51.3647 19.5411 50.7951 19.2211 50.2146 18.9423C49.658 18.6742 49.0797 18.4407 48.4927 18.244C48.3557 18.1986 48.2383 18.1618 48.1557 18.1359C47.9948 18.084 47.8209 18.1748 47.7709 18.3369C47.7209 18.4991 47.81 18.6699 47.9731 18.7196C48.0513 18.7434 48.1622 18.7801 48.2948 18.8234C48.8579 19.0114 49.4123 19.2384 49.945 19.4935C50.5037 19.7616 51.0494 20.0686 51.5669 20.4058C51.619 20.4404 51.6777 20.4556 51.7343 20.4556H51.7364Z" fill="#408F95"/>
<path d="M45.8293 18.8817C45.8923 18.8817 45.9576 18.8558 46.0032 18.8039C46.088 18.7088 46.0793 18.5639 45.9837 18.4796C45.9402 18.4407 45.8771 18.3867 45.7967 18.324C45.4988 18.0905 45.1684 17.8981 44.814 17.7489C44.54 17.6343 44.2531 17.5457 43.9574 17.4873C43.8335 17.4614 43.7117 17.5435 43.6856 17.6689C43.6617 17.7943 43.7421 17.9132 43.8682 17.9392C44.1313 17.991 44.3879 18.0689 44.6335 18.1726C44.951 18.3067 45.2466 18.4796 45.5119 18.6872C45.5836 18.7434 45.6401 18.7909 45.6793 18.8255C45.7228 18.8644 45.7771 18.8839 45.8315 18.8839L45.8293 18.8817Z" fill="#408F95"/>
<path d="M43.7119 18.5898C43.788 18.5898 43.862 18.5531 43.9076 18.4839C43.9772 18.378 43.9446 18.2353 43.838 18.1661C43.7924 18.1359 43.725 18.0948 43.6424 18.0451C43.3336 17.8591 43.0054 17.6884 42.6618 17.537C42.3988 17.4203 42.127 17.3144 41.8574 17.2257C41.7357 17.1846 41.6052 17.2495 41.5639 17.3706C41.5226 17.4916 41.5878 17.6213 41.7096 17.6624C41.9661 17.7467 42.2227 17.8483 42.4727 17.9586C42.7966 18.1034 43.1097 18.2634 43.401 18.4407C43.4793 18.4882 43.5424 18.5272 43.5858 18.5553C43.625 18.579 43.6685 18.592 43.7098 18.592L43.7119 18.5898Z" fill="#408F95"/>
<path d="M41.1357 18.5942C41.2075 18.5942 41.277 18.5618 41.3227 18.5013C41.3988 18.3997 41.377 18.2548 41.2749 18.1791C41.2292 18.1467 41.164 18.0992 41.0835 18.0429C40.7792 17.8376 40.4487 17.6581 40.1008 17.5068C39.8313 17.3901 39.553 17.2928 39.2747 17.2171C39.1508 17.1847 39.0247 17.256 38.9899 17.3771C38.9551 17.5003 39.029 17.6257 39.1508 17.6603C39.4095 17.7316 39.666 17.8224 39.9139 17.9284C40.2356 18.0667 40.54 18.2353 40.8205 18.4234C40.8966 18.4732 40.9553 18.5186 40.9966 18.5488C41.0379 18.5791 41.0857 18.5942 41.1335 18.5942H41.1357Z" fill="#408F95"/>
<path d="M36.1553 26.8806C36.1553 26.8806 36.177 26.8806 36.1879 26.8785L37.925 26.6385C38.0511 26.6212 38.1402 26.5044 38.1228 26.3791C38.1054 26.2537 37.988 26.165 37.8619 26.1823L36.1248 26.4223C35.9987 26.4396 35.9096 26.5563 35.927 26.6817C35.9422 26.7963 36.0422 26.8806 36.1553 26.8806Z" fill="#408F95"/>
<path d="M24.9753 26.418C25.0166 26.418 25.0601 26.4072 25.0992 26.3812C25.6145 26.0548 26.0732 25.657 26.458 25.1943C26.9668 24.5825 27.4472 24.0053 27.3864 23.2703C27.3233 22.518 26.7298 22.0272 26.1036 21.5062C25.5862 21.076 25.0014 20.7387 24.3644 20.5009C24.2448 20.4555 24.1122 20.5161 24.0665 20.635C24.0209 20.7539 24.0817 20.8857 24.2013 20.9311C24.7905 21.1517 25.3297 21.463 25.808 21.8586C26.4059 22.3558 26.8776 22.7471 26.9255 23.307C26.9711 23.8562 26.5885 24.3166 26.1036 24.9003C25.7493 25.3262 25.3297 25.6916 24.8535 25.9921C24.7448 26.0591 24.7144 26.2018 24.7818 26.3099C24.8253 26.379 24.9014 26.4158 24.9775 26.4158L24.9753 26.418Z" fill="#408F95"/>
<path d="M93.5262 31.1481C93.6393 31.1481 93.7458 31.079 93.7871 30.9687C93.8676 30.7612 93.8871 30.5558 93.8502 30.3591C93.6654 29.397 92.187 29.0619 91.1086 28.8155C89.9911 28.5604 88.8236 28.4609 87.6388 28.515C87.4844 28.5215 87.3648 28.6534 87.3713 28.8068C87.3779 28.9603 87.5083 29.0749 87.6648 29.0728C88.7997 29.0187 89.915 29.116 90.9825 29.3581C91.8065 29.5462 93.1849 29.8597 93.3001 30.4628C93.3175 30.5558 93.3045 30.6596 93.2632 30.7698C93.2088 30.9125 93.2806 31.0746 93.4262 31.1287C93.4588 31.1417 93.4915 31.146 93.5262 31.146V31.1481Z" fill="#408F95"/>
<path d="M90.4518 34.4731C90.4997 34.4731 90.5497 34.4601 90.5931 34.4342C91.0606 34.1596 91.515 33.8613 91.9454 33.55C92.1324 33.4138 92.3911 33.2279 92.7151 32.9511C93.0108 32.7004 93.2934 32.4323 93.5586 32.1556C93.5717 32.1426 93.5825 32.1275 93.5934 32.1123C93.6043 32.095 93.6239 32.0669 93.6478 32.0345C93.9261 31.6324 94.1848 31.2152 94.0174 30.9103C93.9695 30.8217 93.8478 30.6747 93.5608 30.6855C93.4064 30.6898 93.2847 30.8174 93.289 30.9709C93.2934 31.0919 93.3738 31.1935 93.4847 31.2281C93.4478 31.3189 93.363 31.4681 93.189 31.7189C93.1695 31.747 93.1521 31.7729 93.139 31.7924C92.8934 32.0496 92.6281 32.2983 92.3542 32.5296C92.0454 32.7912 91.7998 32.9706 91.6193 33.1003C91.2041 33.4008 90.7649 33.6883 90.3127 33.9542C90.1801 34.0321 90.1366 34.2029 90.2148 34.3347C90.267 34.4234 90.3605 34.4709 90.4562 34.4709L90.4518 34.4731Z" fill="#408F95"/>
<path d="M82.9357 35.874C83.0792 35.874 83.2205 35.8718 83.3618 35.8675C85.262 35.807 87.3774 35.3746 87.4665 35.3552C88.4297 35.1519 89.3928 34.8904 90.3364 34.5769C90.482 34.5272 90.5625 34.3715 90.5125 34.2245C90.4625 34.0797 90.3059 33.9997 90.1581 34.0494C89.2363 34.3564 88.2905 34.6115 87.3513 34.8104C87.3317 34.8147 85.1924 35.2514 83.3423 35.3119C82.7705 35.3314 82.1856 35.3119 81.6095 35.2514C81.3508 35.2254 81.2095 35.2038 80.6137 35.1109L79.8963 35.0006C79.6963 34.9703 79.5158 34.9401 79.3506 34.9141C78.8288 34.8298 78.4505 34.7671 78.0157 34.7606C77.4243 34.7498 76.8156 34.8277 76.2112 34.9876C76.0612 35.0266 75.9742 35.1801 76.0133 35.3292C76.0525 35.4784 76.2068 35.5649 76.3568 35.5259C76.9112 35.3789 77.4656 35.3076 78.007 35.3162C78.4027 35.3227 78.7636 35.3811 79.2615 35.4633C79.4289 35.4914 79.6115 35.5195 79.8137 35.5519L80.529 35.6621C81.1203 35.7529 81.2812 35.7789 81.553 35.8048C82.0117 35.8502 82.4748 35.874 82.9335 35.874H82.9357Z" fill="#408F95"/>
<path d="M75.2174 33.6537C75.3305 33.6537 75.4457 33.6494 75.5588 33.6429C75.5783 33.6429 75.5979 33.6386 75.6153 33.6321C75.7653 33.5889 75.9153 33.537 76.061 33.4786C76.4067 33.3403 76.6524 33.1889 76.7589 33.1241L76.7871 33.1068C77.8981 32.4474 79.0482 31.8313 80.207 31.2714C81.2745 30.7568 82.1159 30.3504 83.2616 29.9613C84.4705 29.5505 85.7314 29.2543 87.012 29.0792C87.1642 29.0576 87.2729 28.9192 87.2511 28.7658C87.2294 28.6144 87.0903 28.5042 86.9359 28.528C85.6184 28.7052 84.3226 29.01 83.079 29.4338C81.9028 29.8337 81.0462 30.2466 79.9635 30.7698C78.7895 31.3362 77.6242 31.961 76.5002 32.6268L76.4632 32.6485C76.3697 32.7068 76.1501 32.8409 75.8501 32.9619C75.7327 33.0095 75.611 33.0506 75.4892 33.0873C75.2783 33.1003 75.0653 33.0981 74.8565 33.0808C74.6 33.0592 74.413 33.0225 74.3434 33.0073C73.626 32.8625 72.0085 32.6722 70.6322 32.6117C69.8539 32.5793 69.2669 32.5901 68.5712 32.7479C68.3603 32.7955 68.1516 32.856 67.9472 32.923C67.8015 32.9727 67.7233 33.1306 67.7711 33.2754C67.8211 33.4202 67.9798 33.4981 68.1255 33.4505C68.3103 33.3878 68.5016 33.3338 68.6951 33.2905C69.33 33.1457 69.8757 33.1349 70.6083 33.1673C72.0976 33.2322 73.6477 33.4332 74.226 33.55C74.3108 33.5673 74.5217 33.6105 74.8109 33.6343C74.9457 33.6451 75.0826 33.6516 75.2174 33.6516V33.6537Z" fill="#408F95"/>
<path d="M70.4918 40.1156C70.5505 40.1156 70.6114 40.0961 70.6614 40.0572L73.3377 38.0099C73.8204 37.6013 74.2835 37.1776 74.7248 36.7431C75.0553 36.4166 75.3836 36.0772 75.6966 35.7335C75.801 35.6189 75.7923 35.4438 75.6771 35.34C75.5618 35.2362 75.3857 35.2449 75.2814 35.3595C74.9748 35.6967 74.6552 36.0275 74.3313 36.3474C73.9008 36.7712 73.4464 37.1862 72.9855 37.5775L70.3201 39.6162C70.1983 39.7091 70.1744 39.8842 70.2679 40.0075C70.3222 40.0788 70.407 40.1156 70.4896 40.1156H70.4918Z" fill="#408F95"/>
<path d="M70.4888 40.1156C70.591 40.1156 70.691 40.0594 70.7388 39.9621C71.1302 39.1817 71.3824 38.3645 71.4911 37.5322C71.5824 36.8339 71.6541 36.2826 71.4085 35.6405C71.1323 34.9163 70.6193 34.5142 69.9692 34.0062L69.9127 33.9629C69.38 33.5457 68.7843 33.1998 68.1429 32.9317C67.9995 32.8712 67.8364 32.9382 67.7777 33.0809C67.719 33.2236 67.7842 33.3857 67.9277 33.4441C68.5212 33.6905 69.0735 34.0127 69.567 34.3975L69.6235 34.4407C70.2279 34.9141 70.6649 35.2557 70.8867 35.8351C71.0823 36.3453 71.0236 36.7885 70.9367 37.4565C70.8367 38.2261 70.6019 38.9849 70.2388 39.7092C70.1692 39.8475 70.2257 40.014 70.3649 40.0832C70.404 40.1026 70.4475 40.1134 70.4888 40.1134V40.1156Z" fill="#408F95"/>
<path d="M87.6685 33.5392C87.7707 33.5392 87.8772 33.5327 87.9859 33.5197C88.7642 33.4203 89.2839 32.9987 89.5252 32.7566C89.6339 32.6463 89.6339 32.4712 89.523 32.3631C89.4121 32.255 89.236 32.255 89.1273 32.3653C88.936 32.5577 88.5273 32.8906 87.9142 32.9684C87.3032 33.0484 86.8576 32.8236 86.5619 32.6744C86.5184 32.6528 86.4836 32.6334 86.4553 32.6182C86.5923 32.549 86.8402 32.4691 87.1945 32.3739C87.7859 32.2161 88.4142 32.1361 89.0643 32.1361C89.2186 32.1361 89.3447 32.0107 89.3447 31.8572C89.3447 31.7038 89.2186 31.5784 89.0643 31.5784C88.3642 31.5784 87.6881 31.6648 87.0489 31.8356C86.364 32.0194 85.7988 32.2031 85.8009 32.6269C85.8009 32.882 86.0466 33.0398 86.3097 33.1717C86.5793 33.3057 87.0467 33.5413 87.6685 33.5413V33.5392Z" fill="#408F95"/>
<path d="M90.761 33.5219C90.8675 33.5219 90.9697 33.4613 91.0175 33.3576C91.0806 33.2171 91.0175 33.0527 90.8762 32.9901C90.3653 32.7609 89.9261 32.4366 89.5739 32.0259C89.387 31.8075 89.2261 31.5654 89.0956 31.3081C89.0261 31.1698 88.8587 31.1157 88.7195 31.1849C88.5804 31.2541 88.526 31.4205 88.5956 31.5589C88.7456 31.8572 88.9326 32.1361 89.1478 32.3891C89.5544 32.8647 90.0588 33.2387 90.6479 33.5003C90.6849 33.5176 90.724 33.524 90.7632 33.524L90.761 33.5219Z" fill="#408F95"/>
<path d="M91.7472 30.6423C91.7928 30.6423 91.8385 30.6358 91.8841 30.625C92.1733 30.5515 92.3494 30.2553 92.2733 29.9678C92.2363 29.8273 92.1494 29.7105 92.0233 29.6392C91.8972 29.5657 91.7515 29.5462 91.6124 29.5808C91.471 29.6176 91.3536 29.704 91.2797 29.8294C91.2058 29.9527 91.1862 30.0997 91.221 30.238C91.258 30.3764 91.3449 30.4953 91.471 30.5666C91.5558 30.6163 91.6493 30.6423 91.745 30.6423H91.7472ZM91.7472 30.0867C91.7472 30.0867 91.7624 30.0932 91.7645 30.0997C91.7645 30.1083 91.7602 30.1191 91.7515 30.1213C91.7406 30.1234 91.7319 30.117 91.7298 30.1083C91.7276 30.0997 91.7319 30.0888 91.7428 30.0867C91.7428 30.0867 91.7428 30.0867 91.745 30.0867H91.7472Z" fill="#408F95"/>
<path d="M84.9842 36.9463C85.0733 36.9463 85.1472 36.9398 85.1951 36.9355C85.4777 36.9074 85.7625 36.8598 86.0386 36.7928C86.4169 36.702 86.7909 36.5723 87.1474 36.4123C88.441 35.8264 89.1346 35.3573 90.2847 34.5812C90.4129 34.4947 90.4455 34.3218 90.3586 34.1942C90.2716 34.0667 90.0977 34.0342 89.9694 34.1207C88.8063 34.9055 88.1649 35.3378 86.9148 35.9064C86.5908 36.0534 86.2495 36.1702 85.906 36.2523C85.656 36.3128 85.3973 36.3561 85.1407 36.382C84.982 36.3971 84.8276 36.3842 84.7363 36.3647C84.8168 36.2415 85.0407 36.0015 85.5234 35.6405C85.6473 35.5475 85.6712 35.3746 85.5799 35.2514C85.4864 35.1281 85.3125 35.1044 85.1885 35.1952C84.0993 36.008 84.0689 36.3669 84.1819 36.609C84.3145 36.8944 84.7146 36.9463 84.9863 36.9463H84.9842Z" fill="#408F95"/>
<path d="M78.6944 37.4673C79.3249 37.4673 79.9467 37.3786 80.5532 37.2035C81.4859 36.9333 82.3665 36.449 83.1013 35.8048C83.2165 35.7032 83.2274 35.5281 83.1252 35.4113C83.023 35.2968 82.8469 35.286 82.7295 35.3876C82.0556 35.9777 81.249 36.4209 80.3945 36.6695C79.788 36.8447 79.1618 36.9246 78.5313 36.9095C78.5465 36.6976 78.5965 36.3971 78.7357 36.168C78.7857 36.0858 78.8618 35.9605 79.0075 35.8502C79.0509 35.8178 79.0835 35.7983 79.1596 35.7529L79.2227 35.7162C79.401 35.6081 79.5466 35.5173 79.6423 35.4567C79.7727 35.3746 79.8097 35.2016 79.7271 35.0719C79.6445 34.9422 79.4705 34.9055 79.3401 34.9876C79.2466 35.0481 79.1075 35.1346 78.9314 35.2406L78.8705 35.2773C78.7683 35.34 78.7248 35.3659 78.6661 35.4092C78.4378 35.5821 78.3161 35.7832 78.2574 35.8805C77.9595 36.369 77.9595 37.0025 77.9661 37.1841C77.9704 37.3268 78.0835 37.4413 78.227 37.4521C78.3835 37.4629 78.5378 37.4673 78.6944 37.4673Z" fill="#408F95"/>
<path d="M77.3641 32.415C77.3641 32.415 77.3815 32.415 77.3902 32.415C77.6359 32.3934 77.8946 32.3545 78.1816 32.3004C78.3338 32.2702 78.4316 32.1253 78.4033 31.974C78.3729 31.8227 78.2251 31.7254 78.0751 31.7535C77.8055 31.8054 77.5663 31.84 77.3402 31.8616C77.1858 31.8746 77.0728 32.0107 77.0858 32.1642C77.0989 32.3091 77.2206 32.4172 77.3641 32.4172V32.415Z" fill="#408F95"/>
<path d="M76.8224 32.4669C77.005 32.4669 77.2028 32.4496 77.4137 32.4129C77.5659 32.3869 77.6681 32.2421 77.6398 32.0907C77.6137 31.9394 77.4681 31.8378 77.3159 31.8659C76.605 31.9913 76.2006 31.8486 76.1223 31.667C76.0506 31.4984 76.2201 31.1417 76.7615 30.7612C76.8876 30.6726 76.918 30.4996 76.8289 30.3742C76.7397 30.2488 76.5658 30.2186 76.4397 30.3072C75.7179 30.8152 75.407 31.4033 75.607 31.881C75.7679 32.2637 76.2071 32.4691 76.8224 32.4691V32.4669Z" fill="#408F95"/>
<path d="M77.3396 30.4542C77.3787 30.4542 77.4179 30.4455 77.457 30.4282C78.0375 30.1623 78.6354 29.9224 79.2376 29.7127C81.3769 28.9647 83.6467 28.5647 85.9817 28.5258C86.136 28.5236 86.26 28.3961 86.2578 28.2426C86.2556 28.0891 86.123 27.9659 85.973 27.968C83.5771 28.007 81.2486 28.4177 79.0528 29.1852C78.4353 29.4014 77.8201 29.6478 77.2244 29.9202C77.083 29.9851 77.0222 30.1494 77.0874 30.2899C77.1352 30.3915 77.2352 30.452 77.3418 30.452L77.3396 30.4542Z" fill="#408F95"/>
<path d="M89.5535 29.1225C89.6687 29.1225 89.7774 29.0511 89.8166 28.9366C89.8687 28.7917 89.7926 28.6317 89.647 28.582C89.21 28.4264 88.7578 28.301 88.3034 28.2037C87.8707 28.1107 87.425 28.0459 86.9815 28.007C86.8772 27.9983 86.7902 27.9918 86.7293 27.9875C86.5728 27.9767 86.4423 28.0934 86.4315 28.2469C86.4228 28.4004 86.538 28.5323 86.6924 28.5431C86.7511 28.5474 86.8337 28.5518 86.9315 28.5604C87.3511 28.5972 87.7729 28.6598 88.1838 28.7485C88.6143 28.8393 89.0426 28.9603 89.4578 29.1074C89.4883 29.1182 89.5209 29.1225 89.5513 29.1225H89.5535Z" fill="#408F95"/>
<path d="M85.1101 28.8047C85.1645 28.8047 85.2188 28.7744 85.2471 28.7225C85.2862 28.6469 85.258 28.5561 85.1819 28.515C85.1449 28.4955 85.0927 28.4696 85.0253 28.4393C84.7797 28.3291 84.5188 28.2491 84.247 28.2058C84.0383 28.1713 83.8252 28.1604 83.61 28.1691C83.5252 28.1734 83.46 28.2448 83.4622 28.3291C83.4665 28.4134 83.5361 28.4782 83.623 28.4761C83.8144 28.4674 84.0079 28.4782 84.197 28.5085C84.4405 28.5474 84.6753 28.6188 84.8971 28.7182C84.9558 28.7442 85.0036 28.7679 85.0362 28.7852C85.0601 28.7982 85.084 28.8025 85.108 28.8025L85.1101 28.8047Z" fill="#408F95"/>
<path d="M83.6816 29.1008C83.7447 29.1008 83.8056 29.0619 83.8273 28.9971C83.8556 28.9171 83.8121 28.8306 83.7316 28.8025C83.6947 28.7895 83.6403 28.7722 83.5751 28.7506C83.3294 28.675 83.0729 28.6101 82.8098 28.5625C82.6076 28.5258 82.4011 28.4977 82.1989 28.4804C82.1163 28.4717 82.0402 28.5366 82.0315 28.6209C82.025 28.7052 82.088 28.7787 82.1728 28.7874C82.3641 28.8047 82.5598 28.8306 82.7533 28.8652C83.0033 28.9106 83.249 28.9711 83.4816 29.0425C83.5447 29.0619 83.5947 29.0792 83.6295 29.09C83.6469 29.0965 83.6621 29.0987 83.6795 29.0987L83.6816 29.1008Z" fill="#408F95"/>
<path d="M81.8947 29.5376C81.9555 29.5376 82.0121 29.503 82.036 29.4446C82.0686 29.3668 82.0316 29.276 81.9534 29.2435C81.9164 29.2284 81.8621 29.2068 81.7968 29.183C81.5512 29.0922 81.2924 29.023 81.0272 28.9755C80.8207 28.9409 80.612 28.9193 80.4054 28.9128C80.3206 28.9128 80.2489 28.9776 80.2467 29.0619C80.2445 29.1463 80.3119 29.2176 80.3967 29.2198C80.588 29.2263 80.7837 29.2457 80.975 29.2781C81.2229 29.3214 81.462 29.3862 81.6903 29.4705C81.7512 29.4922 81.8012 29.5138 81.8338 29.5267C81.8534 29.5354 81.8729 29.5397 81.8925 29.5397L81.8947 29.5376Z" fill="#408F95"/>
<path d="M79.842 36.1248C79.8616 36.1248 79.8811 36.1204 79.8985 36.1139L81.0638 35.6556C81.1421 35.6254 81.1812 35.5346 81.1508 35.4567C81.1204 35.3789 81.0291 35.34 80.9508 35.3703L79.7855 35.8286C79.7072 35.8588 79.6681 35.9496 79.6985 36.0275C79.7224 36.088 79.7811 36.1248 79.842 36.1248Z" fill="#408F95"/>
<path d="M72.0069 37.7569C72.0678 37.7569 72.1287 37.7332 72.1743 37.6856C72.4831 37.3678 72.7353 37.0089 72.9266 36.6176C73.1831 36.0966 73.4245 35.6037 73.2462 35.0762C73.0657 34.5379 72.5592 34.2915 72.0222 34.0299C71.583 33.8159 71.1134 33.6775 70.622 33.617C70.4938 33.6018 70.3807 33.6905 70.3655 33.818C70.3503 33.9434 70.4394 34.058 70.5677 34.0731C71.0047 34.125 71.4264 34.2504 71.8178 34.4406C72.3026 34.6785 72.6874 34.8644 72.807 35.2211C72.9244 35.5691 72.7418 35.9431 72.5092 36.4144C72.3396 36.7625 72.1135 37.0824 71.8395 37.3656C71.7504 37.4564 71.7547 37.6035 71.846 37.6899C71.8917 37.7332 71.9482 37.7548 72.0069 37.7548V37.7569Z" fill="#408F95"/>
<path d="M113.124 5.09122C113.167 5.09122 113.211 5.08041 113.252 5.06096C114.261 4.54211 115.318 4.16811 116.389 3.9476C117.218 3.77681 118.6 3.49144 118.959 3.99299C119.014 4.07082 119.046 4.17027 119.055 4.28701C119.066 4.4405 119.2 4.55508 119.353 4.54643C119.507 4.53562 119.624 4.40375 119.614 4.25026C119.598 4.02758 119.531 3.83302 119.416 3.67088C118.846 2.87315 117.361 3.18013 116.276 3.40281C115.154 3.63412 114.052 4.02542 112.996 4.56805C112.859 4.63939 112.804 4.80586 112.876 4.94205C112.926 5.03718 113.024 5.09338 113.124 5.09338V5.09122Z" fill="#408F95"/>
<path d="M117.931 8.84204C118.02 8.84204 118.107 8.80097 118.161 8.72314C118.472 8.27996 118.759 7.82164 119.02 7.359C119.133 7.15795 119.29 6.88123 119.468 6.49642C119.631 6.1462 119.777 5.78517 119.903 5.42197C119.909 5.40468 119.914 5.38738 119.916 5.36793C119.918 5.34631 119.924 5.31388 119.931 5.2728C120.016 4.79287 120.077 4.30645 119.796 4.09675C119.716 4.03622 119.542 3.95407 119.285 4.08162C119.146 4.14863 119.09 4.31726 119.157 4.45346C119.211 4.56155 119.329 4.62208 119.442 4.60695C119.444 4.70423 119.431 4.87718 119.379 5.17552C119.372 5.21011 119.368 5.24038 119.363 5.26416C119.246 5.60141 119.111 5.9365 118.959 6.26078C118.79 6.62613 118.64 6.88988 118.531 7.08445C118.279 7.52979 118 7.97297 117.7 8.40318C117.611 8.52857 117.644 8.70368 117.77 8.79016C117.818 8.82475 117.874 8.83988 117.929 8.83988L117.931 8.84204Z" fill="#408F95"/>
<path d="M105.497 15.6736C105.56 15.6736 105.623 15.652 105.675 15.6087C106.117 15.2455 106.593 14.9515 107.086 14.7353C107.447 14.5775 107.799 14.4824 108.288 14.3505C108.451 14.3051 108.63 14.2576 108.828 14.2013L109.528 14.0046C110.102 13.8425 110.256 13.7992 110.517 13.7106C111.091 13.516 111.652 13.2825 112.187 13.0188C113.889 12.1778 115.63 10.9067 115.704 10.8526C116.494 10.2689 117.261 9.63116 117.987 8.95666C118.1 8.85073 118.107 8.67562 118 8.5632C117.894 8.45078 117.718 8.4443 117.604 8.55023C116.894 9.2096 116.143 9.83438 115.372 10.4051C115.354 10.4181 113.593 11.7001 111.937 12.5194C111.424 12.7723 110.886 12.995 110.336 13.1831C110.091 13.2653 109.954 13.3042 109.378 13.4663L108.678 13.663C108.482 13.7192 108.306 13.7668 108.143 13.81C107.632 13.9484 107.264 14.05 106.864 14.223C106.321 14.4586 105.801 14.7807 105.321 15.1763C105.201 15.2736 105.186 15.4487 105.284 15.5676C105.338 15.6347 105.419 15.6692 105.499 15.6692L105.497 15.6736Z" fill="#408F95"/>
<path d="M97.1313 17.2106C97.2009 17.2106 97.2683 17.1847 97.3226 17.135C97.4661 17.0009 97.6161 16.8734 97.7727 16.7545C98.2879 16.361 98.7814 16.1254 99.4598 15.8508C100.842 15.293 102.334 14.8347 102.908 14.7007C102.993 14.6812 103.204 14.6315 103.475 14.5342C103.71 14.4499 103.938 14.3483 104.158 14.2294C104.175 14.2208 104.191 14.21 104.206 14.197C104.323 14.0954 104.438 13.9873 104.547 13.8727C104.802 13.6046 104.965 13.3647 105.032 13.2609L105.052 13.2328C105.784 12.1756 106.573 11.1358 107.393 10.1478C108.15 9.23767 108.743 8.51993 109.619 7.69193C110.546 6.81854 111.567 6.02514 112.659 5.33766C112.789 5.25551 112.828 5.08256 112.746 4.95285C112.663 4.82314 112.489 4.78423 112.359 4.86638C111.237 5.57331 110.185 6.38833 109.232 7.28766C108.332 8.13944 107.726 8.86799 106.96 9.7911C106.128 10.7942 105.33 11.8449 104.588 12.9172L104.565 12.9517C104.504 13.0425 104.36 13.2544 104.138 13.4901C104.051 13.583 103.958 13.6717 103.862 13.7538C103.678 13.8532 103.482 13.9397 103.284 14.0111C103.043 14.0975 102.858 14.1408 102.786 14.1581C102.073 14.3245 100.523 14.8196 99.2467 15.3363C98.5249 15.6281 97.9966 15.8811 97.4291 16.3134C97.2574 16.4453 97.0922 16.5858 96.9356 16.7307C96.8226 16.8366 96.8182 17.0117 96.9247 17.1241C96.9791 17.1825 97.053 17.2106 97.1291 17.2106H97.1313Z" fill="#408F95"/>
<path d="M102.145 22.2391C102.245 22.2391 102.343 22.1851 102.393 22.09L103.969 19.1217C104.236 18.5488 104.48 17.9738 104.699 17.3966C104.865 16.9642 105.019 16.521 105.158 16.0757C105.204 15.9287 105.123 15.773 104.976 15.7276C104.828 15.6822 104.671 15.7622 104.625 15.9092C104.489 16.3437 104.336 16.7783 104.175 17.1998C103.96 17.7641 103.723 18.3283 103.467 18.8753L101.897 21.8305C101.825 21.9667 101.877 22.1354 102.014 22.2067C102.056 22.2283 102.101 22.2391 102.145 22.2391Z" fill="#408F95"/>
<path d="M102.147 22.2391C102.297 22.2391 102.421 22.1202 102.427 21.9689C102.456 21.0977 102.343 20.2502 102.093 19.4482C101.882 18.7758 101.716 18.244 101.225 17.7641C100.671 17.2193 100.036 17.0679 99.2315 16.8755L99.1619 16.8582C98.5031 16.7004 97.8161 16.6312 97.1226 16.655C96.9682 16.6593 96.8465 16.7891 96.853 16.9426C96.8573 17.096 96.9834 17.2193 97.1421 17.2106C97.7857 17.189 98.4205 17.2517 99.0314 17.3987L99.101 17.416C99.8489 17.5954 100.388 17.7251 100.834 18.1618C101.225 18.5445 101.358 18.9704 101.558 19.6146C101.79 20.3561 101.895 21.1431 101.866 21.9516C101.862 22.1051 101.982 22.2348 102.138 22.2391C102.14 22.2391 102.145 22.2391 102.147 22.2391Z" fill="#408F95"/>
<path d="M113.981 9.35007C114.348 9.35007 114.872 9.30034 115.407 8.96742C116.072 8.5545 116.368 7.95566 116.485 7.63571C116.537 7.49086 116.464 7.33088 116.318 7.279C116.172 7.22712 116.011 7.30062 115.959 7.44546C115.866 7.6984 115.633 8.17185 115.109 8.49613C114.587 8.82041 114.087 8.80095 113.757 8.78798C113.709 8.78798 113.67 8.78366 113.637 8.77933C113.735 8.66043 113.924 8.48316 114.207 8.24968C114.679 7.86054 115.216 7.52761 115.807 7.25954C115.948 7.19469 116.009 7.03039 115.944 6.88986C115.881 6.74934 115.713 6.68881 115.572 6.75367C114.937 7.04336 114.357 7.40223 113.848 7.82163C113.302 8.2713 112.865 8.67557 113.044 9.05822C113.152 9.2917 113.452 9.33277 113.735 9.34358C113.805 9.34574 113.887 9.35007 113.978 9.35007H113.981Z" fill="#408F95"/>
<path d="M117.777 7.84759C117.79 7.84759 117.8 7.84759 117.814 7.84759C117.968 7.84759 118.092 7.72004 118.092 7.56655C118.092 7.41306 117.966 7.28983 117.811 7.28983C117.8 7.28983 117.787 7.28983 117.777 7.28983C117.229 7.28983 116.705 7.17742 116.22 6.95258C115.959 6.83152 115.711 6.67802 115.483 6.49859C115.361 6.40131 115.185 6.42076 115.089 6.54183C114.994 6.66289 115.011 6.838 115.133 6.93312C115.396 7.14283 115.681 7.31794 115.983 7.45846C116.542 7.71572 117.144 7.84759 117.774 7.84759H117.777Z" fill="#408F95"/>
<path d="M117.396 4.84475C117.516 4.84475 117.638 4.80584 117.738 4.72369C117.851 4.63289 117.92 4.50318 117.935 4.36049C117.951 4.21781 117.907 4.07729 117.816 3.96487C117.725 3.85245 117.594 3.78328 117.451 3.76814C117.307 3.75301 117.166 3.79408 117.053 3.88704C116.94 3.97784 116.87 4.10755 116.855 4.25024C116.84 4.39292 116.883 4.53344 116.975 4.64586C117.081 4.77773 117.238 4.84475 117.396 4.84475ZM117.396 4.28915C117.396 4.28915 117.407 4.28915 117.409 4.29564C117.414 4.30212 117.414 4.31509 117.407 4.31942C117.401 4.3259 117.388 4.32374 117.383 4.31726C117.379 4.31077 117.379 4.2978 117.385 4.29348C117.388 4.29131 117.392 4.28915 117.396 4.28915Z" fill="#408F95"/>
<path d="M113.576 13.4684C113.865 13.4684 114.183 13.302 114.3 13.2328C114.546 13.0901 114.783 12.9301 115.007 12.755C115.313 12.515 115.6 12.2426 115.857 11.9486C116.787 10.8785 117.222 10.1673 117.942 8.98472C118.022 8.85284 117.979 8.68206 117.848 8.60207C117.716 8.52208 117.544 8.56532 117.464 8.69503C116.735 9.89054 116.333 10.5499 115.433 11.5833C115.2 11.8514 114.939 12.0978 114.661 12.3162C114.459 12.4761 114.242 12.621 114.018 12.7507C113.878 12.8307 113.735 12.8826 113.642 12.902C113.663 12.7572 113.765 12.4459 114.055 11.9184C114.129 11.7843 114.079 11.6135 113.942 11.54C113.807 11.4665 113.635 11.5163 113.561 11.6525C112.911 12.8436 113.033 13.1809 113.237 13.356C113.333 13.436 113.45 13.4663 113.574 13.4663L113.576 13.4684Z" fill="#408F95"/>
<path d="M108.082 16.6031C108.114 16.6031 108.147 16.5967 108.179 16.5859C108.919 16.3091 109.595 15.9092 110.188 15.3968C110.923 14.7656 111.521 13.9592 111.919 13.0707C111.982 12.9301 111.919 12.7658 111.778 12.7031C111.636 12.6405 111.471 12.7031 111.408 12.8437C111.043 13.6609 110.495 14.398 109.823 14.9753C109.347 15.386 108.812 15.7168 108.229 15.9654C108.156 15.7643 108.075 15.4747 108.106 15.2066C108.116 15.1115 108.134 14.9666 108.219 14.8045C108.245 14.7569 108.266 14.7267 108.316 14.6531L108.358 14.5926C108.475 14.4197 108.569 14.277 108.629 14.1819C108.712 14.0521 108.675 13.8792 108.545 13.797C108.414 13.7149 108.242 13.7516 108.158 13.8814C108.099 13.9743 108.008 14.1127 107.892 14.2813L107.851 14.3418C107.784 14.4413 107.755 14.4824 107.723 14.5472C107.588 14.8002 107.562 15.0315 107.549 15.1439C107.484 15.7081 107.747 16.2854 107.829 16.4497C107.877 16.5469 107.977 16.6031 108.079 16.6031H108.082Z" fill="#408F95"/>
<path d="M105.171 12.3918C105.218 12.3918 105.266 12.381 105.31 12.3551C105.523 12.234 105.742 12.0913 105.982 11.9227C106.108 11.8341 106.136 11.659 106.047 11.5336C105.958 11.4082 105.782 11.3801 105.655 11.4687C105.434 11.6265 105.229 11.7584 105.031 11.8708C104.897 11.9465 104.851 12.1173 104.927 12.2513C104.979 12.3399 105.073 12.3918 105.171 12.3918Z" fill="#408F95"/>
<path d="M104.069 12.822C104.43 12.822 104.867 12.6599 105.33 12.3421C105.458 12.2556 105.489 12.0805 105.402 11.9551C105.315 11.8276 105.139 11.7973 105.013 11.8838C104.419 12.2902 103.991 12.3313 103.845 12.1951C103.71 12.0697 103.715 11.6762 104.047 11.1077C104.126 10.9758 104.08 10.805 103.945 10.7272C103.813 10.6494 103.641 10.6948 103.563 10.8288C103.119 11.5898 103.082 12.2535 103.465 12.6037C103.623 12.7485 103.83 12.822 104.069 12.822Z" fill="#408F95"/>
<path d="M104.326 10.6191C104.404 10.6191 104.482 10.5867 104.539 10.5219C104.956 10.0398 105.397 9.57279 105.856 9.13394C107.487 7.56658 109.383 6.26514 111.489 5.26204C111.628 5.19502 111.687 5.02855 111.622 4.8902C111.554 4.75184 111.389 4.69347 111.248 4.75832C109.087 5.78521 107.141 7.1234 105.467 8.73183C104.997 9.18366 104.541 9.66359 104.115 10.1587C104.015 10.2754 104.028 10.4505 104.145 10.5521C104.197 10.5975 104.262 10.6191 104.328 10.6191H104.326Z" fill="#408F95"/>
<path d="M112.045 4.99823C112.078 4.99823 112.113 4.99175 112.146 4.97878C112.2 4.95716 112.278 4.92905 112.372 4.89662C112.769 4.7561 113.178 4.63936 113.589 4.54856C114.02 4.45344 114.459 4.38642 114.898 4.34751C115.052 4.33454 115.165 4.19834 115.152 4.04485C115.139 3.89136 115.004 3.77894 114.848 3.79191C114.385 3.83299 113.922 3.90433 113.467 4.00377C113.035 4.0989 112.604 4.22212 112.185 4.37129C112.087 4.40588 112.004 4.43615 111.945 4.45993C111.802 4.51397 111.728 4.67611 111.785 4.8188C111.828 4.92905 111.932 4.99823 112.045 4.99823Z" fill="#408F95"/>
<path d="M109.258 6.20676C109.282 6.20676 109.306 6.20028 109.328 6.18947C109.5 6.103 109.678 6.03382 109.863 5.98193C110.1 5.91707 110.345 5.88465 110.587 5.88248C110.652 5.88248 110.706 5.88248 110.741 5.88681C110.83 5.89113 110.9 5.82628 110.904 5.74196C110.908 5.65765 110.843 5.58415 110.758 5.57982C110.717 5.57766 110.656 5.5755 110.584 5.5755C110.315 5.5755 110.043 5.61225 109.78 5.68576C109.576 5.74196 109.376 5.81979 109.187 5.91491C109.11 5.95383 109.08 6.04679 109.119 6.12029C109.147 6.17434 109.2 6.2046 109.256 6.2046L109.258 6.20676Z" fill="#408F95"/>
<path d="M108.089 7.08664C108.106 7.08664 108.124 7.08448 108.141 7.07799C108.324 7.01314 108.511 6.95693 108.702 6.90721C108.948 6.84451 109.196 6.79911 109.439 6.76669C109.504 6.75804 109.556 6.75371 109.593 6.74939C109.678 6.74074 109.741 6.66724 109.733 6.58293C109.724 6.49861 109.648 6.43808 109.565 6.44457C109.526 6.44889 109.47 6.45321 109.402 6.46186C109.148 6.49429 108.887 6.54401 108.628 6.60887C108.428 6.65859 108.23 6.71912 108.039 6.7883C107.959 6.81641 107.917 6.90505 107.945 6.98503C107.967 7.04773 108.028 7.08664 108.091 7.08664H108.089Z" fill="#408F95"/>
<path d="M106.643 8.21512C106.663 8.21512 106.682 8.21079 106.704 8.20215C106.882 8.12648 107.067 8.06595 107.254 8.01623C107.498 7.95353 107.743 7.91246 107.985 7.89516C108.05 7.89084 108.102 7.88868 108.139 7.88651C108.224 7.88435 108.291 7.81301 108.289 7.7287C108.287 7.64438 108.217 7.57953 108.13 7.57953C108.091 7.57953 108.032 7.58385 107.963 7.58818C107.702 7.60763 107.437 7.65087 107.176 7.72005C106.976 7.77193 106.776 7.83895 106.585 7.9211C106.506 7.95353 106.469 8.04433 106.502 8.12216C106.526 8.18053 106.585 8.21512 106.643 8.21512Z" fill="#408F95"/>
<path d="M109.03 14.7245C109.071 14.7245 109.11 14.7093 109.141 14.6769L110.008 13.7776C110.067 13.717 110.065 13.6198 110.004 13.5614C109.943 13.503 109.845 13.5052 109.786 13.5657L108.919 14.465C108.86 14.5256 108.862 14.6229 108.923 14.6812C108.954 14.7093 108.991 14.7245 109.03 14.7245Z" fill="#408F95"/>
<path d="M102.555 19.4633C102.651 19.4633 102.74 19.4049 102.773 19.3098C102.921 18.8926 102.999 18.4624 103.01 18.0278C103.023 17.4463 103.038 16.8993 102.655 16.4929C102.266 16.08 101.703 16.0649 101.105 16.0476C100.616 16.0346 100.131 16.1038 99.6594 16.2529C99.5377 16.2918 99.4703 16.4216 99.5094 16.5426C99.5485 16.6637 99.679 16.7307 99.8007 16.6918C100.22 16.5578 100.657 16.4972 101.092 16.508C101.634 16.5232 102.06 16.534 102.318 16.8085C102.571 17.0766 102.56 17.4917 102.549 18.017C102.54 18.404 102.468 18.7888 102.338 19.1585C102.297 19.2774 102.36 19.4093 102.479 19.4503C102.505 19.459 102.531 19.4633 102.555 19.4633Z" fill="#408F95"/>
</g>
<defs>
<clipPath id="clip0_2638_39515">
<rect width="120" height="55" fill="white" transform="matrix(-1 0 0 1 120 0)"/>
</clipPath>
</defs>
</svg>
