<svg width="377" height="121" viewBox="0 0 377 121" fill="none" xmlns="http://www.w3.org/2000/svg">
<g clip-path="url(#clip0_1754_12158)">
<path d="M25.0479 7.07947C24.8896 7.07947 24.7312 7.03997 24.5808 6.96886C20.9071 5.07271 17.0593 3.7059 13.156 2.90004C10.1395 2.27589 5.10403 1.233 3.79766 3.06595C3.59973 3.35037 3.48097 3.7138 3.4493 4.14044C3.40971 4.70138 2.91883 5.12012 2.36462 5.08851C1.80248 5.04901 1.37494 4.56707 1.41453 4.00613C1.46995 3.19236 1.71539 2.4813 2.13501 1.88876C4.20937 -1.02658 9.61694 0.0953124 13.5677 0.909078C17.6531 1.75445 21.6672 3.18446 25.515 5.16752C26.0138 5.42824 26.2118 6.03659 25.9505 6.53433C25.7684 6.88196 25.4121 7.08737 25.0479 7.08737V7.07947Z" fill="#DDF0F1"/>
<path d="M7.54262 20.7871C7.21801 20.7871 6.90131 20.637 6.70337 20.3526C5.57119 18.7329 4.52609 17.058 3.57601 15.3673C3.1643 14.6325 2.59425 13.6212 1.94503 12.2149C1.35122 10.935 0.820758 9.61559 0.36155 8.28829C0.337798 8.22508 0.321963 8.16188 0.314046 8.09077C0.306129 8.01177 0.282376 7.89326 0.258624 7.74314C-0.0501537 5.9892 -0.27184 4.21156 0.749502 3.4452C1.04245 3.22398 1.67584 2.92376 2.61009 3.38989C3.1168 3.63481 3.32265 4.25106 3.07721 4.7488C2.87928 5.14384 2.45174 5.36505 2.04004 5.30975C2.03212 5.66528 2.07962 6.29733 2.26964 7.38762C2.29339 7.51403 2.30923 7.62463 2.32506 7.71154C2.7526 8.94404 3.24348 10.1686 3.79769 11.3537C4.41525 12.6889 4.96155 13.6528 5.35742 14.3639C6.27584 15.9914 7.28926 17.611 8.38186 19.1833C8.70647 19.6415 8.58771 20.2814 8.1285 20.5975C7.95432 20.7239 7.74847 20.7792 7.55053 20.7792L7.54262 20.7871Z" fill="#DDF0F1"/>
<path d="M52.8222 45.753C52.5926 45.753 52.363 45.674 52.1729 45.516C50.5657 44.1887 48.8318 43.1142 47.0346 42.3242C45.7203 41.7474 44.4377 41.3998 42.6562 40.9179C42.0624 40.7519 41.4132 40.5781 40.6927 40.3727L38.1433 39.6538C36.0531 39.0612 35.491 38.9032 34.5409 38.5793C32.4507 37.8682 30.408 37.0149 28.4604 36.0511C22.2611 32.9777 15.9192 28.3322 15.65 28.1346C12.776 26.0015 9.9812 23.6708 7.33679 21.2058C6.92509 20.8187 6.90134 20.1787 7.28929 19.7679C7.67724 19.357 8.31855 19.3333 8.73025 19.7205C11.3192 22.1302 14.0507 24.4134 16.8614 26.4992C16.9247 26.5466 23.3378 31.2317 29.3709 34.226C31.2394 35.1504 33.195 35.9642 35.1981 36.6515C36.0927 36.9517 36.5915 37.094 38.6896 37.6865L41.239 38.4055C41.9516 38.6109 42.5929 38.7847 43.1867 38.9427C45.0473 39.4483 46.3853 39.8197 47.8421 40.4517C49.8215 41.3129 51.7137 42.4901 53.4635 43.9359C53.8989 44.2914 53.9543 44.9314 53.5981 45.3659C53.4001 45.6108 53.1072 45.7373 52.8142 45.7373L52.8222 45.753Z" fill="#DDF0F1"/>
<path d="M83.2882 51.3704C83.0349 51.3704 82.7894 51.2756 82.5915 51.0938C82.0689 50.604 81.5226 50.1379 80.9526 49.7033C79.0762 48.2654 77.2789 47.4042 74.8087 46.4009C69.7732 44.3625 64.3419 42.6876 62.2517 42.1977C61.943 42.1266 61.175 41.9449 60.1853 41.5894C59.3302 41.2813 58.4989 40.9099 57.6992 40.4754C57.6359 40.4438 57.5805 40.4043 57.5251 40.3569C57.0975 39.9856 56.6779 39.5905 56.282 39.1718C55.3557 38.1921 54.7619 37.3151 54.5164 36.9359L54.4452 36.8332C51.777 32.9698 48.903 29.1696 45.9182 25.559C43.1629 22.2328 41.0015 19.6098 37.8108 16.5839C34.438 13.392 30.7168 10.4925 26.7423 7.98009C26.2672 7.67987 26.1247 7.04782 26.4256 6.57378C26.7264 6.09974 27.3598 5.95753 27.8349 6.25776C31.9202 8.84126 35.7522 11.8198 39.2201 15.1065C42.4979 18.2193 44.7068 20.8818 47.4937 24.2554C50.5261 27.9213 53.4318 31.761 56.1316 35.6797L56.2187 35.8061C56.4404 36.1379 56.9629 36.9122 57.7705 37.7734C58.0872 38.1131 58.4276 38.437 58.776 38.7373C59.449 39.1007 60.1615 39.4167 60.882 39.6774C61.7609 39.9935 62.4338 40.1515 62.6951 40.2147C65.292 40.823 70.9371 42.6323 75.5846 44.5205C78.2132 45.5871 80.1371 46.5115 82.2035 48.0916C82.829 48.5735 83.4307 49.0871 84.0008 49.6164C84.4125 50.0036 84.4283 50.6435 84.0404 51.0543C83.8424 51.2677 83.5732 51.3704 83.2961 51.3704H83.2882Z" fill="#DDF0F1"/>
<path d="M65.0307 69.7474C64.6665 69.7474 64.3103 69.5499 64.1282 69.2023L58.3881 58.3547C57.4142 56.261 56.5275 54.1595 55.7278 52.05C55.1261 50.4699 54.564 48.8502 54.0572 47.2227C53.891 46.6855 54.1839 46.1166 54.7223 45.9507C55.2607 45.7848 55.8307 46.0771 55.997 46.6144C56.4958 48.2024 57.05 49.7904 57.6359 51.331C58.4197 53.3931 59.2827 55.4552 60.217 57.454L65.9333 68.2542C66.1946 68.7519 66.0046 69.3682 65.5058 69.6289C65.3554 69.7079 65.1891 69.7474 65.0307 69.7474Z" fill="#DDF0F1"/>
<path d="M65.0229 69.7473C64.4766 69.7473 64.0253 69.3128 64.0015 68.7597C63.8986 65.5758 64.3103 62.4787 65.2208 59.5476C65.9888 57.0905 66.5905 55.1469 68.3799 53.393C70.3988 51.402 72.7107 50.849 75.6401 50.1458L75.8934 50.0826C78.2924 49.5059 80.7943 49.253 83.32 49.3399C83.8821 49.3558 84.3255 49.8298 84.3017 50.3907C84.2859 50.9517 83.8267 51.402 83.2487 51.3704C80.9052 51.2914 78.5933 51.5205 76.3685 52.0578L76.1151 52.121C73.3916 52.7767 71.428 53.2508 69.805 54.8467C68.3799 56.2451 67.8969 57.8015 67.1685 60.1559C66.3213 62.8658 65.9413 65.7417 66.0442 68.6965C66.0601 69.2574 65.6246 69.7315 65.0546 69.7473C65.0466 69.7473 65.0308 69.7473 65.0229 69.7473Z" fill="#DDF0F1"/>
<path d="M21.9285 22.6438C20.5905 22.6438 18.6824 22.462 16.7347 21.2453C14.312 19.7363 13.2352 17.5479 12.8077 16.3786C12.6177 15.8492 12.8869 15.2646 13.4173 15.075C13.9478 14.8853 14.5337 15.154 14.7237 15.6833C15.0641 16.6077 15.9113 18.3379 17.8194 19.523C19.7196 20.7081 21.5406 20.637 22.744 20.5896C22.9182 20.5896 23.0607 20.5738 23.1795 20.558C22.8232 20.1235 22.1344 19.4756 21.1051 18.6223C19.387 17.2002 17.4314 15.9835 15.2779 15.0038C14.7633 14.7668 14.5416 14.1664 14.7791 13.6528C15.0087 13.1393 15.6184 12.9181 16.133 13.1551C18.4449 14.2138 20.5588 15.5253 22.4115 17.058C24.3987 18.7013 25.9901 20.1788 25.3409 21.5772C24.945 22.4304 23.8524 22.5806 22.8232 22.6201C22.5698 22.628 22.269 22.6438 21.9364 22.6438H21.9285Z" fill="#DDF0F1"/>
<path d="M8.10481 17.1527C8.0573 17.1527 8.01772 17.1527 7.97021 17.1527C7.40808 17.1527 6.95679 16.6866 6.95679 16.1256C6.95679 15.5647 7.416 15.1143 7.97813 15.1143C8.01772 15.1143 8.06522 15.1143 8.10481 15.1143C10.1 15.1143 12.0081 14.7035 13.7737 13.8818C14.7237 13.4394 15.6263 12.8785 16.4576 12.2227C16.901 11.8672 17.5423 11.9383 17.8907 12.3807C18.2391 12.8232 18.1757 13.4631 17.7323 13.8107C16.7743 14.5771 15.7372 15.2171 14.6366 15.7306C12.6019 16.6708 10.4088 17.1527 8.11273 17.1527H8.10481Z" fill="#DDF0F1"/>
<path d="M9.49024 6.17888C9.05479 6.17888 8.61141 6.03666 8.24722 5.73644C7.83551 5.40461 7.58216 4.93058 7.52673 4.40913C7.47131 3.88769 7.62966 3.37415 7.96219 2.96332C8.29472 2.55248 8.76976 2.29966 9.29231 2.24436C9.81486 2.18906 10.3295 2.33917 10.7412 2.67889C11.1529 3.01072 11.4063 3.48476 11.4617 4.0062C11.5171 4.52764 11.3587 5.04118 11.0262 5.45202C10.6383 5.93396 10.0682 6.17888 9.49024 6.17888ZM9.49024 4.14841C9.49024 4.14841 9.45066 4.14841 9.44274 4.17212C9.42691 4.19582 9.42691 4.24322 9.45066 4.25902C9.47441 4.28272 9.52191 4.27482 9.53775 4.25112C9.55358 4.22742 9.55358 4.18002 9.52983 4.16421C9.52191 4.15631 9.50608 4.14841 9.49024 4.14841Z" fill="#DDF0F1"/>
<path d="M23.4012 37.6945C22.3482 37.6945 21.1922 37.0862 20.7647 36.8334C19.87 36.3119 19.007 35.7273 18.1915 35.0873C17.0752 34.2104 16.0301 33.2149 15.0958 32.1404C11.7072 28.2296 10.1237 25.6303 7.50306 21.3086C7.21012 20.8267 7.36846 20.2025 7.84351 19.9102C8.32647 19.6179 8.95194 19.7759 9.24488 20.2499C11.8972 24.619 13.3619 27.0287 16.6397 30.8052C17.4869 31.7849 18.437 32.6855 19.4504 33.4835C20.1867 34.0682 20.9784 34.5975 21.7939 35.0715C22.3006 35.3639 22.8232 35.5535 23.1636 35.6246C23.0845 35.0952 22.7124 33.9575 21.6593 32.0298C21.3901 31.5399 21.5722 30.9158 22.071 30.6472C22.5619 30.3786 23.1874 30.5603 23.4566 31.058C25.8239 35.4113 25.3805 36.6438 24.6363 37.2837C24.2879 37.576 23.8604 37.6866 23.4091 37.6866L23.4012 37.6945Z" fill="#DDF0F1"/>
<path d="M43.4084 49.1504C43.2897 49.1504 43.1709 49.1267 43.0522 49.0872C40.3602 48.0759 37.8979 46.6143 35.7365 44.7419C33.0604 42.4349 30.8831 39.488 29.4343 36.2408C29.2046 35.7273 29.4343 35.1268 29.9489 34.8977C30.4635 34.6686 31.0652 34.8977 31.2948 35.4112C32.625 38.3977 34.6201 41.0918 37.0666 43.2013C38.8005 44.7024 40.7482 45.9112 42.8701 46.8197C43.1392 46.085 43.4322 45.0263 43.3213 44.0466C43.2818 43.699 43.2184 43.1697 42.9096 42.5771C42.8146 42.4033 42.7355 42.2927 42.5534 42.0241L42.4029 41.8028C41.9754 41.1708 41.6349 40.6493 41.4133 40.3017C41.1124 39.8277 41.247 39.1956 41.722 38.8954C42.1971 38.5952 42.8225 38.7295 43.1313 39.2035C43.3451 39.5433 43.6776 40.0489 44.0972 40.6651L44.2477 40.8864C44.4931 41.2498 44.596 41.3999 44.7148 41.6369C45.2057 42.5613 45.3007 43.4067 45.3482 43.8175C45.5857 45.8796 44.6277 47.989 44.3269 48.5895C44.1527 48.945 43.7885 49.1504 43.4164 49.1504H43.4084Z" fill="#DDF0F1"/>
<path d="M54.0098 33.7599C53.8356 33.7599 53.6614 33.7204 53.5031 33.6256C52.7272 33.1831 51.9275 32.6617 51.0566 32.0454C50.5974 31.7215 50.4945 31.0816 50.8191 30.6233C51.1437 30.1651 51.785 30.0624 52.2442 30.3863C53.0518 30.963 53.796 31.445 54.5165 31.8558C55.0074 32.1323 55.1736 32.7565 54.8965 33.2463C54.7065 33.5703 54.3661 33.7599 54.0098 33.7599Z" fill="#DDF0F1"/>
<path d="M58.0238 35.3321C56.7095 35.3321 55.1181 34.7395 53.4317 33.5781C52.9646 33.2621 52.8538 32.6221 53.1705 32.1639C53.4872 31.6978 54.1285 31.5872 54.5877 31.9032C56.7491 33.3885 58.3088 33.5386 58.8393 33.0409C59.3302 32.5826 59.3143 31.1447 58.103 29.0669C57.818 28.5849 57.9842 27.9608 58.4751 27.6764C58.9581 27.3919 59.5835 27.5578 59.8686 28.0477C61.4837 30.8287 61.6183 33.2542 60.2248 34.5341C59.6469 35.0634 58.8947 35.3321 58.0238 35.3321Z" fill="#DDF0F1"/>
<path d="M57.0896 27.2814C56.8046 27.2814 56.5196 27.1629 56.3137 26.9259C54.7936 25.164 53.1863 23.4575 51.5158 21.8537C45.5777 16.1257 38.6738 11.3695 31.0018 7.70362C30.4951 7.4587 30.2813 6.85035 30.5189 6.34471C30.7643 5.83907 31.366 5.62575 31.8806 5.86277C39.7505 9.61557 46.8366 14.5061 52.933 20.3841C54.6431 22.0354 56.3058 23.7893 57.8576 25.5986C58.2218 26.0252 58.1743 26.6651 57.7467 27.0365C57.5567 27.2024 57.3192 27.2814 57.0817 27.2814H57.0896Z" fill="#DDF0F1"/>
<path d="M28.975 6.73967C28.8563 6.73967 28.7296 6.71597 28.6108 6.66856C28.4129 6.58956 28.1279 6.48685 27.7874 6.36834C26.3385 5.8548 24.8501 5.42816 23.3537 5.09634C21.786 4.74871 20.1867 4.50379 18.5874 4.36158C18.0253 4.31417 17.6136 3.81643 17.6611 3.25549C17.7086 2.69454 18.1995 2.28371 18.7695 2.33111C20.4559 2.48123 22.1423 2.74195 23.7971 3.10538C25.3726 3.453 26.9403 3.90334 28.4683 4.44848C28.8246 4.57489 29.1255 4.6855 29.3392 4.77241C29.8618 4.96992 30.131 5.56247 29.9251 6.08391C29.7668 6.48685 29.3867 6.73967 28.975 6.73967Z" fill="#DDF0F1"/>
<path d="M39.1251 11.1561C39.038 11.1561 38.9509 11.1324 38.8717 11.0929C38.2462 10.7769 37.597 10.5241 36.924 10.3344C36.061 10.0974 35.1664 9.97891 34.2875 9.97101C34.05 9.97101 33.8521 9.97101 33.7254 9.98681C33.4008 10.0026 33.1474 9.76559 33.1316 9.45747C33.1158 9.14934 33.3533 8.88072 33.6621 8.86492C33.8125 8.85702 34.0342 8.84912 34.2955 8.84912C35.2772 8.84912 36.2669 8.98343 37.2249 9.25205C37.9691 9.45747 38.6975 9.74189 39.3863 10.0895C39.6634 10.2317 39.7743 10.5715 39.6318 10.8401C39.5289 11.0376 39.3388 11.1482 39.133 11.1482L39.1251 11.1561Z" fill="#DDF0F1"/>
<path d="M43.3847 14.3717C43.3214 14.3717 43.258 14.3638 43.1947 14.3401C42.5296 14.103 41.8487 13.8976 41.152 13.7159C40.2573 13.4868 39.3548 13.3209 38.468 13.2024C38.2305 13.1708 38.0405 13.155 37.9059 13.1392C37.5971 13.1076 37.3675 12.8389 37.3992 12.5308C37.4308 12.2227 37.7079 12.0015 38.0088 12.0252C38.1513 12.041 38.3572 12.0568 38.6026 12.0884C39.5289 12.2069 40.479 12.3886 41.4212 12.6256C42.1496 12.8073 42.8701 13.0286 43.5668 13.2814C43.8597 13.3841 44.0102 13.708 43.9073 14.0003C43.8281 14.2295 43.6064 14.3717 43.3768 14.3717H43.3847Z" fill="#DDF0F1"/>
<path d="M48.6497 18.4959C48.5784 18.4959 48.5071 18.4801 48.428 18.4485C47.7787 18.172 47.1058 17.9507 46.4249 17.769C45.5381 17.5399 44.6435 17.3898 43.7646 17.3266C43.5271 17.3108 43.3371 17.3029 43.2025 17.295C42.8937 17.2871 42.6483 17.0264 42.6562 16.7182C42.6641 16.4101 42.9175 16.1731 43.2342 16.1731C43.3767 16.1731 43.5904 16.1889 43.8438 16.2047C44.7939 16.2758 45.7598 16.4338 46.7099 16.6866C47.4383 16.8763 48.1667 17.1212 48.8634 17.4214C49.1484 17.5399 49.283 17.8717 49.1643 18.1562C49.0772 18.3695 48.8634 18.4959 48.6497 18.4959Z" fill="#DDF0F1"/>
<path d="M39.9564 42.2846C39.8059 42.2846 39.6634 42.2293 39.5526 42.1108L36.3935 38.8241C36.1798 38.6029 36.1877 38.2474 36.4094 38.0341C36.6311 37.8208 36.9873 37.8287 37.2011 38.0499L40.3601 41.3365C40.5739 41.5578 40.566 41.9133 40.3443 42.1266C40.2335 42.2293 40.0989 42.2846 39.9564 42.2846Z" fill="#DDF0F1"/>
<path d="M63.5343 59.6029C63.1859 59.6029 62.8613 59.3896 62.7425 59.0419C62.2041 57.5171 61.9191 55.9449 61.8795 54.3569C61.832 52.2316 61.7766 50.2327 63.1701 48.7474C64.5873 47.2384 66.6379 47.1831 68.8152 47.1199C70.5966 47.0725 72.3621 47.3253 74.0802 47.8704C74.5236 48.0126 74.769 48.4867 74.6265 48.9291C74.484 49.3716 74.009 49.6165 73.5656 49.4743C72.0375 48.9844 70.4461 48.7632 68.8627 48.8027C66.8912 48.858 65.3394 48.8975 64.3973 49.9009C63.4788 50.8806 63.5184 52.3975 63.558 54.3173C63.5897 55.7316 63.851 57.1379 64.326 58.4889C64.4764 58.9234 64.2468 59.4054 63.8114 59.5555C63.7164 59.5871 63.6213 59.6029 63.5343 59.6029Z" fill="#DDF0F1"/>
<path d="M85.8284 22.3252C85.4484 22.3252 85.0842 22.1119 84.91 21.7485C84.3637 20.6187 84.1499 19.4889 84.2608 18.3986C84.8387 12.8208 93.5083 10.0397 99.8422 8.00928C106.524 5.86821 113.603 4.63571 120.871 4.35129C121.409 4.31179 121.908 4.76212 121.932 5.33097C121.955 5.89191 121.512 6.36595 120.95 6.38965C113.864 6.66618 106.976 7.85917 100.468 9.94494C95.3293 11.5962 86.7231 14.3535 86.2876 18.6119C86.2164 19.3309 86.3668 20.0894 86.7468 20.8794C86.9923 21.3851 86.7785 21.9934 86.2718 22.2383C86.1293 22.3094 85.9788 22.341 85.8284 22.341V22.3252Z" fill="#DDF0F1"/>
<path d="M200.021 28.5589C200.021 28.5589 199.942 28.5589 199.902 28.5589C198.263 28.3692 196.624 28.0295 195.033 27.5397C192.919 26.8918 191.343 26.1018 190.678 25.7699L190.457 25.6593C183.244 22.1672 175.801 18.9438 168.343 16.0917C161.479 13.4686 156.048 11.3908 148.748 9.57364C141.044 7.66168 133.063 6.48449 125.035 6.08946C124.473 6.05785 124.038 5.58382 124.069 5.02287C124.101 4.46193 124.568 4.02739 125.138 4.05899C133.301 4.46193 141.408 5.65492 149.247 7.60638C156.673 9.45513 162.144 11.5488 169.08 14.1955C176.593 17.0713 184.091 20.3106 191.351 23.8264L191.597 23.9449C192.278 24.2846 193.695 24.9957 195.642 25.5961C197.115 26.0465 198.627 26.3625 200.147 26.5363C200.71 26.5995 201.105 27.1051 201.042 27.6582C200.987 28.1796 200.543 28.5589 200.029 28.5589H200.021Z" fill="#DDF0F1"/>
<path d="M104.672 40.3468C104.513 40.3468 104.355 40.3073 104.205 40.2362C102.455 39.3276 99.8421 37.9371 97.3639 36.4518C96.7068 36.0567 95.4796 35.3299 93.8961 34.2633C93.4132 33.9393 92.8906 33.5838 92.3522 33.1888C90.4204 31.8141 88.5519 30.3209 86.7863 28.7565C86.7388 28.7091 86.6913 28.6617 86.6517 28.6064C86.5646 28.4958 86.43 28.3299 86.2559 28.1245C84.4665 25.9597 82.7801 23.708 83.4848 22.0963C83.7065 21.5828 84.2528 20.9586 85.567 20.8875C86.1371 20.848 86.6121 21.2825 86.6438 21.8435C86.6755 22.4044 86.2479 22.8864 85.6858 22.918C85.5195 22.9259 85.4166 22.9496 85.3533 22.9654C85.3533 23.3288 85.7254 24.2848 87.8314 26.8288C87.9898 27.0184 88.1164 27.1764 88.2114 27.2949C89.9058 28.7881 91.6951 30.2102 93.5398 31.5297C94.0703 31.9089 94.5691 32.2486 95.0362 32.5725C96.5722 33.6075 97.7677 34.3186 98.409 34.7057C100.848 36.1594 103.413 37.5341 105.139 38.4269C105.638 38.6876 105.836 39.296 105.574 39.8016C105.392 40.1492 105.036 40.3547 104.672 40.3547V40.3468Z" fill="#DDF0F1"/>
<path d="M145.264 46.2801C135.304 46.2801 125.74 45.1582 125.621 45.1424C119.612 44.3919 113.547 43.2858 107.609 41.8558C107.063 41.7215 106.722 41.1763 106.857 40.6312C106.991 40.086 107.538 39.7463 108.084 39.8806C113.951 41.2948 119.936 42.3851 125.866 43.1199C125.993 43.1357 139.461 44.7158 150.957 44.0995C154.519 43.9099 158.138 43.4754 161.701 42.7959C163.292 42.4957 164.155 42.2824 167.773 41.4054L172.151 40.3388C173.585 39.9912 174.835 39.6752 175.944 39.3987C179.253 38.5691 181.439 38.0161 183.56 37.8659C186.704 37.6447 189.91 37.9133 193.077 38.6718C193.623 38.7982 193.964 39.3513 193.829 39.8964C193.703 40.4416 193.156 40.7813 192.602 40.647C189.633 39.9438 186.64 39.691 183.703 39.8964C181.755 40.0307 179.752 40.5364 176.443 41.3738C175.326 41.6583 174.067 41.9743 172.634 42.3219L168.256 43.3885C164.685 44.2576 163.727 44.4946 162.081 44.8027C158.431 45.4901 154.725 45.9404 151.067 46.1379C149.159 46.2406 147.204 46.2801 145.264 46.2801Z" fill="#DDF0F1"/>
<path d="M203.227 28.63C202.792 28.63 202.388 28.3456 202.254 27.9111C202.087 27.3738 202.388 26.805 202.927 26.6391C205.302 25.9122 217.685 22.1989 227.89 20.6978C232.87 19.963 236.52 19.8919 240.494 20.445C241.793 20.6267 243.091 20.8795 244.358 21.1876C244.904 21.3219 245.237 21.875 245.102 22.4201C244.968 22.9653 244.422 23.305 243.867 23.1628C242.672 22.8705 241.437 22.6335 240.202 22.4596C236.433 21.9303 232.949 22.0014 228.175 22.7046C218.12 24.1899 205.864 27.8558 203.512 28.5826C203.409 28.6142 203.314 28.63 203.212 28.63H203.227Z" fill="#DDF0F1"/>
<path d="M232.553 65.6051C232.482 65.6051 232.411 65.6051 232.34 65.5814C227.779 64.6017 220.02 60.8331 217.186 58.2338C214.739 56.4087 212.784 54.9629 211.121 53.7304C205.365 49.472 202.982 47.718 195.421 41.3659C194.993 41.0025 194.938 40.3625 195.294 39.9359C195.658 39.5093 196.3 39.454 196.727 39.8095C204.241 46.1142 206.608 47.8681 212.332 52.095C214.011 53.3354 215.982 54.7891 218.452 56.6378C218.484 56.6615 218.508 56.6852 218.54 56.7089C221.089 59.0791 228.539 62.6818 232.775 63.5904C233.329 63.7089 233.678 64.2461 233.559 64.7992C233.456 65.2732 233.036 65.6051 232.561 65.6051H232.553Z" fill="#DDF0F1"/>
<path d="M232.553 65.6051C232.284 65.6051 232.007 65.4945 231.809 65.2812C229.157 62.4606 225.752 57.7123 224.62 51.1074C224.28 49.1323 223.488 44.5104 225.348 39.2565C227.051 34.4608 230.02 31.6877 233.456 28.4721C236.472 25.6516 239.901 23.234 243.653 21.2746C244.152 21.0139 244.77 21.2035 245.031 21.7013C245.292 22.199 245.102 22.8153 244.604 23.076C241.017 24.9484 237.739 27.2633 234.857 29.9574C231.484 33.1098 228.816 35.6064 227.28 39.9359C225.594 44.6921 226.322 48.9505 226.639 50.7677C227.684 56.8749 230.843 61.2755 233.305 63.8906C233.693 64.3015 233.67 64.9414 233.258 65.3286C233.06 65.5103 232.807 65.6051 232.561 65.6051H232.553Z" fill="#DDF0F1"/>
<path d="M218.326 33.8209C218.025 33.8209 217.732 33.6945 217.534 33.4416C217.178 33.0071 217.249 32.3672 217.684 32.0116C219.418 30.6132 221.318 29.4202 223.329 28.48C225.752 27.3424 228.325 26.5602 230.978 26.1494C231.532 26.0624 232.054 26.4417 232.141 27.0026C232.229 27.5557 231.849 28.0771 231.286 28.164C228.824 28.5432 226.441 29.2701 224.192 30.3288C222.332 31.2058 220.566 32.3039 218.959 33.6076C218.769 33.7577 218.547 33.8367 218.318 33.8367L218.326 33.8209Z" fill="#DDF0F1"/>
<path d="M222.498 55.9031C222.284 55.9031 222.063 55.832 221.873 55.6898C219.672 53.9911 215.76 50.3331 214.367 44.9133C213.939 43.2384 213.037 39.7463 214.612 36.1831C214.834 35.6853 215.095 35.1955 215.388 34.7373C215.697 34.2632 216.323 34.1289 216.798 34.437C217.273 34.7452 217.407 35.3693 217.098 35.8434C216.861 36.2068 216.647 36.6018 216.473 37.0048C215.182 39.928 215.935 42.8433 216.338 44.4155C217.581 49.2507 221.121 52.5532 223.116 54.0859C223.559 54.4257 223.646 55.0656 223.298 55.5159C223.1 55.7767 222.799 55.911 222.49 55.911L222.498 55.9031Z" fill="#DDF0F1"/>
<path d="M122.043 34.0657C121.829 34.0657 121.615 34.0657 121.393 34.0499C116.762 33.8523 113.484 31.6244 111.94 30.3129C111.512 29.9494 111.457 29.3095 111.821 28.8828C112.185 28.4562 112.827 28.4009 113.254 28.7643C114.6 29.9099 117.458 31.8456 121.472 32.0194C125.502 32.1853 128.242 30.5025 130.055 29.3806C131.045 28.7643 131.425 28.393 131.551 28.2271C131.25 27.8874 129.952 27.2948 125.74 26.5443C121.955 25.8727 117.973 25.7068 113.903 26.0544C113.341 26.0939 112.85 25.691 112.803 25.13C112.755 24.5691 113.167 24.0793 113.729 24.0319C117.973 23.6684 122.138 23.8422 126.096 24.5454C129.968 25.2328 133.459 26.0307 133.626 28.1323C133.705 29.0883 132.953 29.981 131.124 31.1108C129.311 32.2327 126.334 34.0657 122.035 34.0657H122.043Z" fill="#DDF0F1"/>
<path d="M104.133 35.5432C103.777 35.5432 103.429 35.3536 103.239 35.0218C102.961 34.5319 103.144 33.9078 103.634 33.6391C106.762 31.9089 109.367 29.594 111.386 26.7814C112.454 25.2882 113.349 23.6606 114.03 21.9383C114.236 21.4169 114.83 21.164 115.352 21.3695C115.875 21.5749 116.128 22.1674 115.922 22.6889C115.17 24.5613 114.204 26.339 113.04 27.9586C110.847 31.024 108.013 33.5364 104.624 35.4168C104.466 35.5037 104.299 35.5432 104.133 35.5432Z" fill="#DDF0F1"/>
<path d="M94.7669 15.3569C94.9174 14.472 95.7566 13.8795 96.6354 14.0296C97.5222 14.1797 98.116 15.0172 97.9656 15.8941C97.8151 16.779 96.9759 17.3716 96.0971 17.2214C95.2103 17.0713 94.6165 16.2339 94.7669 15.3569Z" fill="#DDF0F1"/>
<path d="M140.45 53.7067C138.669 53.683 136.935 53.5408 135.225 53.2801C132.881 52.9246 130.554 52.3399 128.313 51.542C120.079 48.6187 115.574 46.0984 108.116 41.9269C107.625 41.6504 107.451 41.0341 107.728 40.5443C108.005 40.0545 108.622 39.8806 109.113 40.1572C116.73 44.4156 120.926 46.7621 129.002 49.63C131.124 50.3806 133.317 50.9336 135.534 51.2734C137.149 51.5183 138.788 51.6526 140.419 51.6763C142.279 51.6052 143.174 51.3524 143.578 51.1706C143.079 50.8309 141.804 50.1673 138.613 49.1639C138.075 48.998 137.782 48.4212 137.948 47.8919C138.115 47.3546 138.693 47.0544 139.223 47.2282C144.354 48.84 146.087 49.946 145.85 51.4393C145.549 53.3038 142.62 53.6277 140.442 53.7146L140.45 53.7067Z" fill="#DDF0F1"/>
<path d="M143.562 49.2666C142.929 49.2666 142.327 49.235 141.757 49.2034C133.578 48.6978 126.975 46.9596 126.698 46.8806C123.618 46.0589 120.53 45.0556 117.522 43.9021C116.999 43.6967 116.738 43.112 116.936 42.5906C117.142 42.0691 117.727 41.8084 118.25 42.0059C121.195 43.1357 124.212 44.1154 127.22 44.9213C127.49 44.9924 133.895 46.6831 141.876 47.1729C143.712 47.2835 145.692 47.3309 148.011 46.5093C149.27 46.0668 150.466 45.419 151.558 44.5894C152.01 44.2497 152.643 44.3366 152.984 44.7869C153.324 45.2373 153.237 45.8693 152.786 46.2091C151.527 47.165 150.149 47.9077 148.692 48.4212C146.8 49.0928 145.082 49.2666 143.554 49.2666H143.562Z" fill="#DDF0F1"/>
<path d="M177.203 53.7068C174.543 53.7068 171.898 53.446 169.277 52.9246C163.49 51.7632 157.9 49.2824 153.11 45.7508C152.659 45.419 152.564 44.7791 152.896 44.3287C153.229 43.8784 153.87 43.7836 154.322 44.1154C158.874 47.4732 164.179 49.8355 169.673 50.9336C173.806 51.7632 178.026 51.8975 182.222 51.3524C182.064 49.9935 181.605 47.5838 180.338 45.8456C179.974 45.3479 179.372 44.5183 178.311 43.8468C178.034 43.6651 177.82 43.5624 177.242 43.2779L176.839 43.0804C175.683 42.5037 174.748 42.0217 174.131 41.6978C173.632 41.4371 173.442 40.8208 173.703 40.3231C173.965 39.8254 174.582 39.6357 175.081 39.8965C175.691 40.2204 176.609 40.6944 177.749 41.2554L178.145 41.4529C178.755 41.7531 179.032 41.8874 179.412 42.1323C180.797 43.0172 181.573 44.0759 181.985 44.6447C183.956 47.331 184.289 51.0838 184.344 52.1661C184.368 52.6876 183.996 53.1458 183.481 53.2248C181.391 53.5488 179.293 53.7147 177.195 53.7147L177.203 53.7068Z" fill="#DDF0F1"/>
<path d="M186.086 21.6222C184.59 21.6222 182.998 21.5195 181.225 21.3299C180.663 21.2667 180.259 20.7689 180.322 20.208C180.386 19.647 180.884 19.2362 181.446 19.3073C183.157 19.489 184.677 19.5838 186.102 19.5917C186.664 19.5917 187.115 20.05 187.115 20.6109C187.115 21.1719 186.656 21.6222 186.094 21.6222H186.086Z" fill="#DDF0F1"/>
<path d="M186.989 10.0794C186.886 10.0794 186.775 10.0636 186.672 10.032C185.532 9.65273 184.392 9.2656 183.252 8.87057C180.109 7.78818 176.855 6.6663 173.482 5.92364C158.803 2.9451 144.504 1.66519 130.997 2.12343C130.443 2.13923 129.96 1.7047 129.944 1.14375C129.928 0.582808 130.364 0.108769 130.926 0.0929682C144.583 -0.373169 159.048 0.914634 173.901 3.93268C177.409 4.70694 180.71 5.84463 183.909 6.95072C185.041 7.33785 186.173 7.73288 187.305 8.10421C187.844 8.27802 188.129 8.85477 187.955 9.38411C187.812 9.81075 187.416 10.0873 186.989 10.0873V10.0794Z" fill="#DDF0F1"/>
<path d="M109.224 7.70124C108.836 7.70124 108.464 7.48003 108.298 7.1087C108.068 6.59516 108.298 5.99471 108.805 5.76559C111.394 4.58839 114.078 3.57711 116.793 2.74755C120.301 1.67306 123.919 0.890898 127.561 0.41686C128.123 0.345755 128.63 0.732886 128.701 1.29383C128.772 1.85478 128.384 2.36042 127.822 2.43152C124.299 2.88976 120.784 3.64822 117.387 4.6911C114.759 5.49697 112.146 6.47665 109.644 7.61434C109.509 7.67754 109.367 7.70915 109.224 7.70915V7.70124Z" fill="#DDF0F1"/>
<path d="M129.413 4.92817C129.081 4.92817 128.748 4.76226 128.55 4.46204C128.25 3.988 128.384 3.35595 128.859 3.05572C129.073 2.92141 129.39 2.7239 129.778 2.50268C131.234 1.68101 132.81 1.05686 134.457 0.63813C135.731 0.314204 137.046 0.124589 138.368 0.0692847C138.93 0.0455828 139.405 0.480118 139.429 1.04106C139.453 1.60201 139.017 2.07605 138.455 2.09975C137.267 2.14715 136.096 2.32096 134.956 2.60539C133.483 2.97672 132.074 3.53766 130.775 4.26452C130.427 4.46204 130.15 4.63585 129.952 4.75436C129.786 4.86497 129.596 4.91237 129.406 4.91237L129.413 4.92817Z" fill="#DDF0F1"/>
<path d="M143.609 5.82093C143.277 5.82093 142.944 5.65502 142.754 5.35479C142.453 4.88076 142.588 4.25661 143.063 3.94848C143.277 3.81417 143.594 3.61666 143.981 3.39544C145.438 2.57377 147.014 1.94962 148.669 1.53089C149.943 1.20696 151.258 1.01735 152.58 0.962043C153.142 0.93044 153.617 1.37288 153.641 1.93382C153.664 2.49477 153.229 2.9688 152.667 2.99251C151.479 3.03991 150.307 3.21372 149.167 3.49815C147.695 3.86948 146.285 4.43042 144.987 5.15728C144.639 5.35479 144.362 5.52861 144.164 5.64712C143.997 5.75773 143.799 5.80513 143.617 5.80513L143.609 5.82093Z" fill="#DDF0F1"/>
<path d="M156.705 7.66963C156.372 7.66963 156.04 7.50372 155.842 7.20349C155.541 6.72945 155.675 6.1053 156.15 5.79718C156.364 5.66287 156.681 5.46535 157.069 5.24413C158.534 4.42247 160.109 3.79832 161.756 3.37959C163.031 3.05566 164.345 2.86604 165.667 2.81074C166.229 2.78704 166.704 3.22157 166.728 3.78252C166.752 4.34346 166.316 4.8175 165.754 4.8412C164.567 4.88861 163.395 5.06242 162.255 5.34684C160.782 5.71817 159.373 6.27912 158.074 7.00598C157.726 7.20349 157.449 7.37731 157.251 7.49582C157.085 7.60642 156.895 7.65383 156.705 7.65383V7.66963Z" fill="#DDF0F1"/>
<path d="M176.166 49.6142H176.142C172.658 49.5273 169.349 48.7452 166.316 47.2756C164.994 46.6357 163.727 45.8693 162.548 44.9924C162.096 44.6526 162.001 44.0206 162.342 43.5703C162.682 43.1199 163.316 43.0251 163.767 43.3648C164.844 44.1707 166.008 44.8739 167.203 45.4506C169.974 46.7858 172.999 47.5048 176.189 47.5838C176.751 47.5996 177.195 48.0657 177.187 48.6267C177.171 49.1797 176.72 49.6221 176.166 49.6221V49.6142Z" fill="#DDF0F1"/>
<path d="M174.329 45.5136C174.21 45.5136 174.091 45.4899 173.981 45.4504L168.177 43.333C167.647 43.1434 167.377 42.5588 167.567 42.0294C167.757 41.5001 168.351 41.2315 168.874 41.4211L174.677 43.5384C175.208 43.7281 175.477 44.3127 175.287 44.8421C175.136 45.2529 174.749 45.5136 174.329 45.5136Z" fill="#DDF0F1"/>
<path d="M188.786 21.5274C188.24 21.5274 187.78 21.0928 187.765 20.5398C187.749 19.9788 188.192 19.5127 188.754 19.4969C192.594 19.3863 194.233 18.6436 194.502 16.8581C193.774 14.4168 191.905 12.4337 188.802 10.8062C188.303 10.5455 188.113 9.92923 188.374 9.43149C188.635 8.93375 189.253 8.74414 189.752 9.00486C193.465 10.9484 195.682 13.4055 196.521 16.5105C196.553 16.629 196.561 16.7554 196.553 16.8739C196.125 21.314 191.003 21.4642 188.818 21.5274C188.81 21.5274 188.794 21.5274 188.786 21.5274Z" fill="#DDF0F1"/>
<path d="M246.308 27.1151C245.952 27.1151 245.595 26.9413 245.382 26.6253C244.764 25.7325 244.432 24.7924 244.384 23.8285C244.139 19.0249 250.956 15.6276 255.928 13.1468C261.129 10.5554 266.767 8.65927 272.673 7.51367C273.283 7.39516 273.868 7.7902 273.987 8.39855C274.106 9.0069 273.71 9.59154 273.1 9.71005C267.392 10.8161 261.945 12.6491 256.933 15.1457C253.014 17.105 246.458 20.3759 246.625 23.7179C246.649 24.2551 246.854 24.8082 247.234 25.3612C247.583 25.8747 247.456 26.57 246.941 26.9176C246.751 27.0519 246.53 27.1151 246.308 27.1151Z" fill="#DDF0F1"/>
<path d="M265.563 39.9536C265.452 39.9536 265.341 39.9378 265.238 39.9062C262.602 39.1083 259.997 38.176 257.495 37.1489C256.403 36.6986 254.906 36.0823 252.982 35.1105C251.225 34.2257 249.507 33.2381 247.86 32.1794C247.796 32.1399 247.741 32.0925 247.686 32.0451C247.606 31.9661 247.472 31.8476 247.314 31.7054C245.516 30.1094 243.798 28.4187 244.21 26.8623C244.321 26.4356 244.701 25.6772 245.968 25.4085C246.569 25.2821 247.171 25.6614 247.298 26.2697C247.424 26.8544 247.06 27.4311 246.49 27.5812C246.704 27.9763 247.314 28.6952 248.802 30.0304C248.944 30.1568 249.063 30.2674 249.158 30.3464C250.71 31.3419 252.333 32.2663 253.988 33.1038C255.833 34.036 257.281 34.6365 258.342 35.071C260.773 36.0744 263.315 36.9751 265.88 37.7572C266.474 37.939 266.806 38.5631 266.624 39.1556C266.474 39.6376 266.03 39.9536 265.547 39.9536H265.563Z" fill="#DDF0F1"/>
<path d="M277.938 40.7596C274.169 40.7596 270.377 40.6016 266.616 40.2856C265.998 40.2302 265.539 39.693 265.595 39.0768C265.642 38.4605 266.188 38.0023 266.806 38.0576C271.754 38.4763 276.75 38.6106 281.667 38.4684C281.77 38.4684 292.918 38.0655 302.181 36.1298C305.047 35.5294 307.929 34.7235 310.732 33.7359C311.983 33.2935 312.656 33.017 315.49 31.8477L318.926 30.4335C319.884 30.0384 320.739 29.675 321.531 29.3432C324.009 28.2924 325.798 27.5418 327.928 26.9809C330.826 26.2224 333.89 25.8827 337.057 25.9538C337.674 25.9696 338.165 26.4831 338.15 27.0994C338.134 27.7156 337.595 28.1897 337.002 28.1897C334.048 28.1186 331.19 28.4425 328.498 29.1457C326.527 29.6592 324.801 30.394 322.41 31.3973C321.618 31.7371 320.755 32.1005 319.789 32.4955L316.353 33.9097C313.55 35.0711 312.798 35.3793 311.484 35.8375C308.586 36.8567 305.609 37.6941 302.64 38.3104C293.179 40.2856 281.849 40.6885 281.73 40.6964C280.471 40.7359 279.205 40.7517 277.93 40.7517L277.938 40.7596Z" fill="#DDF0F1"/>
<path d="M338.435 17.895C338.435 17.895 338.403 17.895 338.387 17.895C337.596 17.8634 336.804 17.7923 336.028 17.6737C334.175 17.4051 332.782 16.9548 332.188 16.7573L332.014 16.702C325.704 14.7584 319.251 13.0756 312.822 11.6851C306.908 10.4052 302.229 9.40178 296.069 8.83293C289.569 8.24038 282.934 8.27989 276.362 8.95935C275.745 9.03045 275.191 8.58011 275.127 7.96386C275.064 7.34761 275.507 6.79457 276.125 6.73137C282.839 6.03611 289.616 5.99661 296.267 6.59706C302.561 7.1738 307.296 8.19298 313.289 9.48869C319.781 10.8871 326.305 12.5936 332.671 14.553L332.877 14.6162C333.415 14.79 334.682 15.2008 336.345 15.4458C337.01 15.5406 337.683 15.6117 338.356 15.6354C339.44 15.4458 340.517 15.1771 341.562 14.8295C342.813 14.4108 343.708 13.992 344.048 13.834C347.413 12.2618 355.18 9.37018 361.91 7.42662C365.702 6.32843 368.6 5.68849 372.21 5.64108C373.303 5.62528 374.403 5.66478 375.48 5.75959C376.098 5.81489 376.557 6.36004 376.502 6.97628C376.446 7.59253 375.908 8.05077 375.282 7.99547C374.277 7.90856 373.255 7.87696 372.234 7.88486C368.885 7.93226 366.138 8.54061 362.527 9.5835C355.204 11.7009 347.754 14.5767 345.022 15.8487C344.618 16.0383 343.636 16.4966 342.259 16.9548C341.063 17.3498 339.836 17.6579 338.601 17.8713C338.538 17.8792 338.474 17.8871 338.411 17.8871L338.435 17.895Z" fill="#DDF0F1"/>
<path d="M371.292 44.0067C371.141 44.0067 370.983 43.9751 370.84 43.9119L355.101 36.9594C352.235 35.5215 349.432 33.9729 346.724 32.3533C344.689 31.1287 342.662 29.833 340.707 28.5057C340.192 28.1581 340.066 27.4628 340.414 26.9493C340.762 26.4357 341.459 26.3014 341.974 26.6569C343.898 27.9605 345.885 29.2325 347.888 30.4334C350.548 32.0294 353.295 33.5463 356.067 34.9368L371.751 41.8657C372.321 42.1185 372.574 42.7742 372.321 43.3431C372.139 43.7618 371.727 44.0067 371.292 44.0067Z" fill="#DDF0F1"/>
<path d="M371.292 44.0067C370.975 44.0067 370.659 43.8724 370.437 43.6117C367.579 40.2302 365.354 36.5011 363.826 32.5271C362.543 29.201 361.538 26.5779 361.957 23.1728C362.44 19.3173 364.475 16.7338 367.048 13.4629L367.27 13.1785C369.392 10.4844 371.894 8.06676 374.728 5.9889C375.227 5.62547 375.931 5.72818 376.296 6.22592C376.66 6.72366 376.557 7.42681 376.058 7.79024C373.39 9.7496 371.031 12.025 369.035 14.5611L368.814 14.8455C366.359 17.9584 364.586 20.21 364.182 23.4493C363.826 26.2935 364.657 28.4504 365.916 31.7213C367.357 35.4662 369.455 38.9819 372.155 42.1659C372.551 42.6399 372.495 43.3431 372.02 43.746C371.807 43.9198 371.553 44.0067 371.3 44.0067H371.292Z" fill="#DDF0F1"/>
<path d="M275.507 32.2822C272.309 32.2822 269.838 31.0813 268.564 30.2992C268.033 29.9752 267.875 29.2879 268.2 28.7585C268.524 28.2292 269.213 28.0633 269.743 28.3951C270.955 29.1378 273.465 30.3308 276.671 29.9752C279.886 29.6197 281.865 27.929 283.179 26.815C283.599 26.4594 283.852 26.1987 284.003 26.0249C283.472 25.8195 282.237 25.6141 279.49 25.543C276.347 25.4719 273.1 25.8274 269.854 26.6175C269.253 26.7676 268.643 26.3962 268.5 25.7958C268.35 25.1953 268.722 24.587 269.324 24.4448C272.76 23.6073 276.204 23.2281 279.545 23.3071C282.902 23.3861 285.95 23.6152 286.402 25.5035C286.615 26.4041 286.109 27.2811 284.644 28.5294C283.219 29.7461 280.828 31.7766 276.925 32.2111C276.442 32.2664 275.967 32.2901 275.515 32.2901L275.507 32.2822Z" fill="#DDF0F1"/>
<path d="M262.879 35.5926C262.547 35.5926 262.214 35.4424 261.992 35.158C261.612 34.6682 261.699 33.965 262.19 33.5858C264.486 31.8082 266.292 29.6355 267.566 27.1231C268.239 25.7958 268.754 24.3737 269.094 22.912C269.237 22.3116 269.839 21.9324 270.44 22.0746C271.042 22.2168 271.422 22.8172 271.28 23.4177C270.899 25.061 270.322 26.649 269.569 28.1344C268.152 30.947 266.133 33.3725 263.568 35.3555C263.362 35.5136 263.125 35.5926 262.879 35.5926Z" fill="#DDF0F1"/>
<path d="M254.186 22.5013C254.186 22.5013 254.162 22.5013 254.146 22.5013C252.792 22.4855 251.7 21.3636 251.724 20.0126C251.739 18.6695 252.84 17.595 254.186 17.595C254.194 17.595 254.21 17.595 254.217 17.595C255.571 17.6108 256.664 18.7327 256.64 20.0837C256.624 21.4268 255.524 22.5013 254.178 22.5013H254.186ZM254.186 19.8309C254.067 19.8309 253.972 19.9257 253.972 20.0442C253.972 20.1153 254.004 20.1706 254.035 20.1943C254.067 20.2259 254.115 20.2575 254.186 20.2575C254.297 20.2575 254.4 20.1627 254.408 20.0442C254.408 19.9257 254.313 19.8308 254.194 19.8229L254.186 19.8309Z" fill="#DDF0F1"/>
<path d="M290.542 46.1399C288.579 46.1399 286.607 45.9502 284.676 45.5868C277.574 44.2279 273.583 42.7426 266.964 40.2697C266.386 40.0564 266.093 39.4085 266.307 38.8318C266.529 38.255 267.17 37.9627 267.748 38.176C274.478 40.6884 278.183 42.071 285.095 43.3904C286.884 43.7302 288.721 43.904 290.534 43.904H290.566C291.896 43.904 293.242 43.8092 294.564 43.6196C295.681 43.4615 296.639 43.0744 296.979 42.8137C296.655 42.3871 295.364 41.3205 291.849 39.8114C291.279 39.5665 291.017 38.9108 291.263 38.3419C291.508 37.7731 292.165 37.5124 292.735 37.7573C298.951 40.4198 299.489 42.0868 299.259 43.2403C298.871 45.1839 295.538 45.7527 294.881 45.8475C293.456 46.045 292.007 46.1478 290.574 46.1557H290.534L290.542 46.1399Z" fill="#DDF0F1"/>
<path d="M319.781 41.6129C319.275 41.6129 318.768 41.605 318.261 41.5813C313.36 41.36 308.452 40.0248 304.073 37.7257C303.527 37.4413 303.313 36.7619 303.606 36.2167C303.891 35.6716 304.572 35.4583 305.118 35.7506C309.212 37.8996 313.796 39.14 318.364 39.3533C321.713 39.5034 325.046 39.1163 328.285 38.2077C327.96 37.1253 327.319 35.4662 326.202 34.3443C325.854 33.9966 325.284 33.4199 324.381 33.0249C324.144 32.9222 323.962 32.859 323.471 32.7088L323.123 32.5982C322.109 32.2743 321.286 31.9978 320.739 31.8082C320.154 31.6107 319.845 30.9707 320.043 30.3861C320.249 29.8014 320.882 29.4933 321.468 29.6908C322.006 29.8725 322.806 30.149 323.803 30.4651L324.152 30.5757C324.682 30.7416 324.944 30.8285 325.3 30.9786C326.582 31.5475 327.374 32.3375 327.794 32.7562C329.797 34.763 330.557 37.8443 330.739 38.737C330.858 39.298 330.525 39.8589 329.979 40.0327C326.662 41.0835 323.233 41.6208 319.789 41.6208L319.781 41.6129Z" fill="#DDF0F1"/>
<path d="M323.993 14.3477C323.4 14.3477 322.901 13.8815 322.869 13.2811C322.837 12.6648 323.32 12.1434 323.938 12.1118C325.339 12.0486 326.582 11.9301 327.738 11.7642C328.348 11.6694 328.926 12.096 329.013 12.7043C329.108 13.3127 328.681 13.8894 328.071 13.9763C326.844 14.1581 325.521 14.2845 324.041 14.3477C324.025 14.3477 324.009 14.3477 323.986 14.3477H323.993Z" fill="#DDF0F1"/>
<path d="M327.905 13.9844C327.319 13.9844 326.828 13.5261 326.788 12.9336C326.749 12.3173 327.216 11.7801 327.833 11.7406C331.689 11.4957 333.597 10.2158 333.779 9.05439C333.938 8.051 332.869 6.39187 329.322 4.99346C328.744 4.76434 328.467 4.11649 328.688 3.53974C328.918 2.96299 329.567 2.67857 330.145 2.90769C334.191 4.50362 336.376 6.93701 335.988 9.40201C335.584 11.9697 332.584 13.6763 327.968 13.9765C327.944 13.9765 327.92 13.9765 327.897 13.9765L327.905 13.9844Z" fill="#DDF0F1"/>
<path d="M280.543 5.00125C280.028 5.00125 279.569 4.64572 279.45 4.13218C279.316 3.53173 279.696 2.93128 280.297 2.79697C292.181 0.118657 304.176 -0.639804 315.957 0.53739C319.267 0.869216 322.6 1.35906 325.878 1.99111C326.487 2.10962 326.883 2.69426 326.764 3.30261C326.646 3.91096 326.06 4.30599 325.45 4.18748C322.244 3.56333 318.982 3.0814 315.736 2.75747C304.2 1.60398 292.443 2.34664 280.796 4.97755C280.709 4.99335 280.63 5.00915 280.551 5.00915L280.543 5.00125Z" fill="#DDF0F1"/>
<path d="M263.528 12.2698C263.164 12.2698 262.8 12.0881 262.586 11.7642C262.246 11.2506 262.388 10.5554 262.911 10.2156C264.882 8.92782 266.957 7.75853 269.07 6.73935C271.097 5.75967 273.203 4.9064 275.341 4.18744C275.84 4.02153 276.267 3.88722 276.568 3.79241C277.154 3.6028 277.788 3.93462 277.97 4.52717C278.152 5.11972 277.827 5.74387 277.233 5.92558C276.948 6.01249 276.544 6.1468 276.062 6.30481C274.011 6.99217 271.992 7.82173 270.052 8.75401C268.017 9.73369 266.03 10.8556 264.146 12.0881C263.956 12.2145 263.742 12.2698 263.536 12.2698H263.528Z" fill="#DDF0F1"/>
<path d="M285.04 6.51819C284.81 6.51819 284.573 6.42339 284.406 6.23377C284.098 5.88614 284.129 5.3568 284.478 5.04868C284.636 4.90647 284.866 4.70895 285.159 4.47983C286.243 3.62656 287.447 2.9234 288.737 2.37826C289.735 1.95953 290.78 1.6356 291.857 1.42228C292.308 1.32748 292.751 1.6277 292.846 2.08594C292.933 2.54418 292.64 2.97871 292.181 3.07352C291.223 3.26313 290.289 3.54755 289.394 3.92678C288.238 4.41662 287.162 5.04868 286.196 5.80714C285.934 6.01255 285.729 6.18637 285.586 6.31278C285.428 6.45499 285.23 6.52609 285.032 6.52609L285.04 6.51819Z" fill="#DDF0F1"/>
<path d="M292.751 5.45152C292.474 5.45152 292.205 5.31721 292.039 5.06439C291.785 4.67726 291.904 4.15582 292.292 3.903C292.458 3.79239 292.704 3.64228 293.005 3.46056C294.129 2.78111 295.325 2.15696 296.575 1.60391C297.533 1.17728 298.523 0.790148 299.505 0.466222C299.948 0.31611 300.423 0.553127 300.574 0.995563C300.724 1.438 300.487 1.91203 300.043 2.06215C299.109 2.37027 298.175 2.7416 297.264 3.14454C296.085 3.67388 294.944 4.25853 293.884 4.90638C293.599 5.08019 293.369 5.2224 293.211 5.32511C293.068 5.41202 292.91 5.45942 292.759 5.45942L292.751 5.45152Z" fill="#DDF0F1"/>
<path d="M302.134 5.46729C301.872 5.46729 301.619 5.34878 301.453 5.12756C301.176 4.75623 301.255 4.22689 301.627 3.95036C301.793 3.83185 302.031 3.65804 302.324 3.45263C303.432 2.70207 304.635 2.04632 305.902 1.49327C306.884 1.06664 307.897 0.711107 308.911 0.434585C309.362 0.316076 309.821 0.576795 309.948 1.01923C310.075 1.46957 309.806 1.92781 309.362 2.05422C308.42 2.31494 307.486 2.64676 306.583 3.03389C305.411 3.53953 304.303 4.15578 303.282 4.84314C303.004 5.02485 302.791 5.19077 302.64 5.30138C302.49 5.41199 302.316 5.46729 302.141 5.46729H302.134Z" fill="#DDF0F1"/>
<path d="M320.272 35.7505C320.272 35.7505 320.193 35.7505 320.153 35.7426L313.828 34.8656C313.368 34.8024 313.044 34.3757 313.107 33.9175C313.17 33.4593 313.598 33.1354 314.057 33.1986L320.383 34.0755C320.842 34.1387 321.167 34.5654 321.104 35.0236C321.048 35.4423 320.684 35.7505 320.272 35.7505Z" fill="#DDF0F1"/>
<path d="M360.984 34.0598C360.833 34.0598 360.675 34.0203 360.532 33.9255C358.656 32.7325 356.985 31.2788 355.584 29.5881C353.731 27.3522 351.981 25.2427 352.203 22.5565C352.433 19.8071 354.594 18.0136 356.874 16.1096C358.759 14.5374 360.888 13.3049 363.208 12.4358C363.644 12.2699 364.127 12.4911 364.293 12.9256C364.459 13.3602 364.238 13.8421 363.802 14.008C361.656 14.8139 359.693 15.9516 357.951 17.3974C355.774 19.2145 354.056 20.6445 353.882 22.6908C353.715 24.6976 355.109 26.3804 356.874 28.5136C358.165 30.07 359.693 31.4052 361.427 32.5034C361.823 32.7483 361.934 33.2698 361.688 33.6648C361.53 33.9176 361.253 34.0519 360.976 34.0519L360.984 34.0598Z" fill="#DDF0F1"/>
<path d="M1.98209 81.3692C1.57038 81.3692 1.18243 81.1164 1.032 80.7134C0.73906 79.955 0.667803 79.2044 0.802399 78.4854C1.47538 74.9697 6.8592 73.7451 10.7862 72.8444C14.8558 71.9121 19.1074 71.5487 23.4224 71.7462C23.9845 71.7699 24.42 72.2519 24.3962 72.8128C24.3725 73.3737 23.8974 73.7925 23.3274 73.7846C19.1945 73.5871 15.1329 73.9426 11.2454 74.8275C8.24474 75.5148 3.22512 76.6604 2.8055 78.8647C2.74216 79.2044 2.78967 79.5836 2.9401 79.9866C3.13803 80.508 2.87676 81.1006 2.34629 81.2981C2.22753 81.3455 2.10877 81.3613 1.98209 81.3613V81.3692Z" fill="#DDF0F1"/>
<path d="M13.1773 93.5205C13.0031 93.5205 12.821 93.4731 12.6627 93.3783C10.9604 92.3749 9.30571 91.2846 7.73807 90.1469C7.05717 89.6492 6.11501 88.9697 4.93532 87.9584C3.85855 87.042 2.82929 86.0623 1.86337 85.051C1.81587 85.0036 1.77628 84.9483 1.73669 84.893C1.69711 84.8298 1.62585 84.7271 1.53876 84.6086C0.525333 83.139 -0.416833 81.6142 0.192806 80.5002C0.366988 80.1763 0.81036 79.6391 1.85546 79.6786C2.41759 79.6944 2.86096 80.1605 2.84513 80.7215C2.82929 81.1639 2.53635 81.5352 2.13256 81.6616C2.26716 81.9935 2.57594 82.5386 3.20933 83.4551C3.28058 83.5578 3.34392 83.6526 3.39143 83.7237C4.28609 84.6639 5.25202 85.5724 6.24961 86.4178C7.37387 87.3738 8.26853 88.0295 8.92567 88.5036C10.4379 89.6018 12.0372 90.6526 13.684 91.6243C14.167 91.9088 14.3253 92.5329 14.0403 93.0148C13.8503 93.3388 13.5098 93.5126 13.1615 93.5126L13.1773 93.5205Z" fill="#DDF0F1"/>
<path d="M40.5477 98.6401C40.0252 98.6401 39.5106 98.6323 38.9959 98.6164C32.0761 98.3952 24.3725 96.8151 24.0479 96.744C20.5405 96.0013 17.0331 95.0454 13.597 93.8998C13.0665 93.7181 12.7735 93.1492 12.9556 92.612C13.1377 92.0826 13.7078 91.7903 14.2462 91.972C17.6031 93.0939 21.0472 94.0262 24.4675 94.753C24.5388 94.7688 32.3295 96.3648 39.0672 96.586C41.1494 96.6571 43.2792 96.586 45.3773 96.3648C46.3195 96.27 46.8341 96.191 49.0035 95.8512L51.6162 95.4483C52.3446 95.3377 53.0018 95.2271 53.6035 95.1323C55.5037 94.8241 56.8813 94.595 58.4648 94.5713C60.6183 94.5318 62.8352 94.8162 65.0362 95.4009C65.5825 95.5431 65.8992 96.104 65.7567 96.6492C65.6142 97.1943 65.052 97.5104 64.5057 97.3681C62.4868 96.8309 60.4679 96.5702 58.4964 96.6018C57.0555 96.6255 55.7412 96.8388 53.9281 97.139C53.3185 97.2417 52.6534 97.3444 51.9171 97.463L49.3123 97.8659C47.1587 98.1977 46.5728 98.2925 45.5832 98.3873C43.9126 98.5532 42.2262 98.6401 40.5556 98.6401H40.5477Z" fill="#DDF0F1"/>
<path d="M68.6545 90.5262C68.2428 90.5262 67.8231 90.5104 67.4114 90.4867C67.3402 90.4867 67.2689 90.4709 67.2056 90.4472C66.6593 90.2892 66.113 90.0996 65.5825 89.8862C64.3237 89.3806 63.429 88.8276 63.041 88.5905L62.9381 88.5273C58.8923 86.1176 54.704 83.866 50.4841 81.8197C46.5966 79.9393 43.5326 78.454 39.3601 77.0319C34.9581 75.5308 30.366 74.4484 25.7026 73.8084C25.1484 73.7294 24.7526 73.2238 24.8317 72.6629C24.9109 72.1098 25.4176 71.7069 25.9798 71.7938C30.7777 72.4416 35.4965 73.5556 40.0252 75.1042C44.3085 76.5658 47.4279 78.0748 51.3708 79.9867C55.6462 82.0567 59.8899 84.34 63.9832 86.7734L64.1178 86.8524C64.4582 87.0657 65.2579 87.5556 66.3505 87.998C66.778 88.1718 67.2214 88.3219 67.6648 88.4562C68.4328 88.5036 69.2087 88.4957 69.9687 88.4325C70.903 88.3535 71.5839 88.2192 71.8372 88.1639C74.45 87.6346 80.3405 86.9393 85.3522 86.7181C88.1866 86.5996 90.3243 86.6391 92.8579 87.2158C93.6259 87.3896 94.386 87.6109 95.1302 87.8558C95.6607 88.0375 95.9457 88.6142 95.7715 89.1436C95.5894 89.6729 95.0114 89.9573 94.481 89.7835C93.808 89.5544 93.1113 89.3569 92.4066 89.1989C90.0947 88.6695 88.1075 88.63 85.4393 88.7485C80.0159 88.9856 74.3708 89.7203 72.2648 90.147C71.956 90.2102 71.188 90.3682 70.135 90.4551C69.6441 90.4946 69.1453 90.5183 68.6545 90.5183V90.5262Z" fill="#DDF0F1"/>
<path d="M85.8669 114.141C85.6532 114.141 85.4315 114.07 85.2494 113.928L75.5031 106.446C73.7454 104.953 72.059 103.404 70.4518 101.816C69.2483 100.623 68.0528 99.3826 66.9127 98.1264C66.5327 97.7077 66.5643 97.0677 66.984 96.6885C67.4036 96.3093 68.0449 96.3409 68.4249 96.7596C69.5413 97.9921 70.7051 99.2009 71.8848 100.37C73.4525 101.919 75.1072 103.436 76.7857 104.866L86.4924 112.316C86.9358 112.656 87.0229 113.296 86.6824 113.746C86.4845 114.007 86.1757 114.141 85.8748 114.141H85.8669Z" fill="#DDF0F1"/>
<path d="M85.8748 114.141C85.5027 114.141 85.1385 113.936 84.9643 113.58C83.5392 110.728 82.6208 107.742 82.2249 104.7C81.8924 102.148 81.6311 100.133 82.5258 97.7869C83.5313 95.1402 85.3998 93.6706 87.7671 91.814L87.973 91.656C89.9127 90.1312 92.0821 88.8671 94.4177 87.8874C94.9403 87.6662 95.534 87.9111 95.7478 88.4325C95.9616 88.954 95.7241 89.5465 95.2015 89.7598C93.0401 90.6605 91.0291 91.8377 89.2318 93.244L89.026 93.402C86.8249 95.1323 85.2335 96.3806 84.426 98.4979C83.7134 100.362 83.9272 101.982 84.2439 104.423C84.6081 107.236 85.4631 110.009 86.7853 112.656C87.0387 113.161 86.8328 113.77 86.3261 114.023C86.1836 114.094 86.0253 114.133 85.8748 114.133V114.141Z" fill="#DDF0F1"/>
<path d="M23.3115 90.1073C22.9394 90.1073 22.5515 90.0836 22.1556 90.0362C19.3212 89.6727 17.4289 88.1321 16.5501 87.2472C16.1542 86.8443 16.1542 86.2044 16.558 85.8093C16.9618 85.4143 17.6031 85.4143 17.999 85.8172C18.6957 86.5204 20.1842 87.7371 22.4169 88.0215C24.6416 88.3138 26.2647 87.4922 27.3415 86.947C27.4998 86.868 27.6265 86.7969 27.7294 86.7416C27.2306 86.4888 26.328 86.1965 25.0375 85.8488C22.884 85.2721 20.5959 84.9798 18.2286 84.9798C17.6664 84.9798 17.2072 84.5215 17.2072 83.9606C17.2072 83.3996 17.6664 82.9414 18.2286 82.9414C20.778 82.9414 23.2403 83.2574 25.568 83.8816C28.0619 84.5531 30.1205 85.2247 30.1126 86.7732C30.1126 87.7055 29.2179 88.2822 28.2599 88.7642C27.2781 89.254 25.5759 90.1152 23.3115 90.1152V90.1073Z" fill="#DDF0F1"/>
<path d="M12.0531 90.0442C11.6651 90.0442 11.293 89.823 11.1188 89.4438C10.8892 88.9302 11.1188 88.3298 11.6335 88.1007C13.494 87.2632 15.0933 86.0781 16.376 84.577C17.0569 83.779 17.6427 82.8941 18.1178 81.954C18.3711 81.4483 18.9808 81.2508 19.4875 81.5036C19.9942 81.7564 20.1921 82.3648 19.9388 82.8704C19.3925 83.9607 18.7116 84.9799 17.9278 85.9043C16.4472 87.6424 14.6104 89.0092 12.4648 89.9652C12.3302 90.0284 12.1877 90.0521 12.0452 90.0521L12.0531 90.0442Z" fill="#DDF0F1"/>
<path d="M8.4586 79.5205C8.29233 79.5205 8.12608 79.4968 7.95981 79.4572C6.9068 79.1886 6.26548 78.1062 6.54259 77.0555C6.67719 76.5419 6.99388 76.1153 7.45309 75.8546C7.9123 75.5859 8.44277 75.5148 8.94948 75.6412C9.46411 75.7756 9.89165 76.0916 10.1608 76.5498C10.43 77.0001 10.5013 77.5374 10.3746 78.043C10.24 78.5487 9.92332 78.9832 9.46411 79.2439C9.15533 79.4256 8.81489 79.5205 8.46652 79.5205H8.4586ZM8.4586 77.49C8.4586 77.49 8.40318 77.5137 8.39526 77.5374C8.39526 77.569 8.41109 77.6085 8.44276 77.6164C8.48235 77.6243 8.51402 77.6006 8.52194 77.569C8.52986 77.5374 8.51402 77.4979 8.47444 77.49C8.47444 77.49 8.47444 77.49 8.46652 77.49H8.4586Z" fill="#DDF0F1"/>
<path d="M33.0895 102.559C32.7649 102.559 32.4957 102.535 32.3215 102.519C31.2923 102.417 30.2551 102.243 29.2496 101.998C27.872 101.666 26.5102 101.192 25.2117 100.607C20.5009 98.4663 17.9752 96.7519 13.7869 93.9155C13.3198 93.5995 13.2011 92.9675 13.5178 92.5013C13.8344 92.0352 14.4678 91.9167 14.935 92.2327C19.1708 95.1006 21.5064 96.6808 26.0589 98.7586C27.2386 99.2959 28.4816 99.7225 29.7326 100.023C30.6431 100.244 31.5852 100.402 32.5195 100.497C33.0974 100.552 33.6596 100.505 33.9921 100.434C33.6992 99.9832 32.8837 99.1063 31.126 97.7869C30.6747 97.4471 30.5876 96.8151 30.9202 96.3647C31.2606 95.9144 31.894 95.8275 32.3453 96.1593C36.3119 99.13 36.4227 100.441 36.011 101.326C35.5281 102.369 34.0713 102.559 33.0816 102.559H33.0895Z" fill="#DDF0F1"/>
<path d="M55.9944 104.463C53.6984 104.463 51.434 104.139 49.225 103.499C45.8285 102.511 42.6219 100.742 39.9459 98.3871C39.5262 98.0158 39.4867 97.3758 39.8588 96.9492C40.2309 96.5305 40.8722 96.491 41.2997 96.8623C43.7541 99.0192 46.6915 100.639 49.803 101.547C52.012 102.187 54.2922 102.48 56.5882 102.424C56.5328 101.65 56.3507 100.552 55.844 99.7144C55.6619 99.4142 55.3848 98.956 54.8543 98.553C54.6959 98.4345 54.5772 98.3634 54.3001 98.1975L54.0705 98.0632C53.4212 97.6682 52.8908 97.3363 52.5424 97.1151C52.0674 96.8149 51.9328 96.1828 52.2336 95.7088C52.5345 95.2348 53.1679 95.1005 53.6429 95.4007C53.9834 95.6219 54.4901 95.9379 55.1314 96.3251L55.3531 96.4594C55.7252 96.6885 55.8835 96.7833 56.0973 96.9413C56.9286 97.5734 57.372 98.3081 57.5858 98.6637C58.6705 100.449 58.6705 102.764 58.6467 103.428C58.6309 103.949 58.2192 104.368 57.6966 104.407C57.1266 104.447 56.5645 104.463 55.9944 104.463Z" fill="#DDF0F1"/>
<path d="M60.84 85.999C60.84 85.999 60.7767 85.999 60.745 85.999C59.8504 85.92 58.9082 85.7777 57.8631 85.5802C57.3089 85.4696 56.9526 84.9403 57.0555 84.3872C57.1664 83.8342 57.7048 83.4787 58.2511 83.5814C59.2328 83.771 60.1037 83.8974 60.9271 83.9764C61.4893 84.0238 61.901 84.5215 61.8535 85.0825C61.806 85.6118 61.3626 86.0069 60.84 86.0069V85.999Z" fill="#DDF0F1"/>
<path d="M62.8114 86.1887C62.1464 86.1887 61.4259 86.1255 60.6579 85.9912C60.1037 85.8964 59.7316 85.3671 59.8345 84.814C59.9295 84.261 60.46 83.8896 61.0142 83.9923C63.6032 84.4506 65.0758 83.9291 65.3608 83.2655C65.6221 82.6492 65.0046 81.3456 63.0331 79.9551C62.5739 79.6312 62.4631 78.9991 62.7877 78.5409C63.1123 78.0827 63.7457 77.9721 64.2049 78.296C66.8335 80.1526 67.9657 82.3016 67.2373 84.0476C66.6514 85.4461 65.0521 86.1966 62.8114 86.1966V86.1887Z" fill="#DDF0F1"/>
<path d="M60.927 78.8331C60.7845 78.8331 60.642 78.8015 60.4995 78.7383C58.3856 77.7666 56.2083 76.8896 54.0152 76.1232C46.2245 73.3896 37.9587 71.928 29.4554 71.7858C28.8933 71.7779 28.442 71.3117 28.4499 70.7508C28.4578 70.1899 28.9408 69.7395 29.4871 69.7474C38.2121 69.8896 46.6916 71.3908 54.6881 74.1955C56.9367 74.9855 59.1773 75.8862 61.3467 76.8817C61.8613 77.1187 62.083 77.7192 61.8455 78.2327C61.6713 78.604 61.3071 78.8252 60.9191 78.8252L60.927 78.8331Z" fill="#DDF0F1"/>
<path d="M16.4472 73.9663C16.0276 73.9663 15.6317 73.7056 15.4892 73.2868C15.2992 72.7575 15.5763 72.1728 16.1068 71.9911C17.6982 71.4223 19.345 70.964 20.9997 70.6085C22.5753 70.2688 24.1983 70.0318 25.8135 69.8896C26.1935 69.858 26.5102 69.8343 26.7319 69.8185C27.302 69.779 27.777 70.2056 27.8166 70.7665C27.8483 71.3275 27.4286 71.8094 26.8665 71.8489C26.6527 71.8647 26.3519 71.8805 25.9956 71.9121C24.4675 72.0464 22.9316 72.2755 21.4352 72.5995C19.8675 72.9313 18.3078 73.3737 16.7956 73.911C16.6848 73.9505 16.566 73.9663 16.4552 73.9663H16.4472Z" fill="#DDF0F1"/>
<path d="M32.6303 72.8051C32.4324 72.8051 32.2345 72.6945 32.1316 72.5049C31.989 72.2283 32.092 71.8965 32.3691 71.7464C32.5037 71.6753 32.6937 71.5805 32.9391 71.4699C33.8338 71.0669 34.7839 70.7746 35.7735 70.6166C36.5336 70.4902 37.3095 70.4507 38.0933 70.4823C38.4021 70.4981 38.6396 70.7588 38.6317 71.0669C38.6159 71.3751 38.3625 71.6121 38.0458 71.6042C37.3491 71.5726 36.6445 71.6121 35.9556 71.7227C35.0689 71.8649 34.2138 72.1256 33.4063 72.489C33.1925 72.5839 33.0183 72.6708 32.8995 72.734C32.8125 72.7814 32.7254 72.7972 32.6383 72.7972L32.6303 72.8051Z" fill="#DDF0F1"/>
<path d="M37.8319 73.8873C37.6023 73.8873 37.3806 73.745 37.3015 73.508C37.1985 73.2157 37.3569 72.8997 37.6498 72.797C37.7844 72.7496 37.9824 72.6864 38.2199 72.6074C39.1145 72.3308 40.0488 72.0938 41.0068 71.92C41.7431 71.7857 42.4953 71.683 43.2316 71.6198C43.5324 71.5882 43.8096 71.8252 43.8412 72.1333C43.865 72.4414 43.6354 72.7101 43.3266 72.7417C42.6299 72.8049 41.9173 72.8997 41.2127 73.0261C40.3022 73.192 39.4075 73.4132 38.5603 73.6739C38.3307 73.745 38.1486 73.8082 38.0219 73.8477C37.9586 73.8714 37.9032 73.8794 37.8399 73.8794L37.8319 73.8873Z" fill="#DDF0F1"/>
<path d="M44.34 75.4832C44.1184 75.4832 43.9125 75.3568 43.8254 75.1435C43.7066 74.8591 43.8412 74.5273 44.1263 74.4087C44.2609 74.3534 44.4588 74.2744 44.6963 74.1875C45.591 73.8557 46.5332 73.6029 47.4991 73.4291C48.2512 73.3027 49.0113 73.2237 49.7634 73.2C50.0722 73.2 50.3335 73.437 50.3414 73.7451C50.3493 74.0532 50.1039 74.3139 49.7951 74.3218C49.0984 74.3455 48.3858 74.4166 47.6891 74.5351C46.7865 74.6932 45.9156 74.9302 45.0843 75.2383C44.8626 75.3173 44.6805 75.3963 44.5617 75.4437C44.4905 75.4753 44.4192 75.4911 44.348 75.4911L44.34 75.4832Z" fill="#DDF0F1"/>
<path d="M51.8141 99.5566C51.7429 99.5566 51.6716 99.5408 51.6083 99.5171L47.3646 97.8421C47.0795 97.7315 46.937 97.3997 47.0479 97.1153C47.1587 96.8309 47.4912 96.6887 47.7763 96.7993L52.02 98.4742C52.305 98.5848 52.4475 98.9166 52.3367 99.2011C52.2496 99.4223 52.0358 99.5566 51.8141 99.5566Z" fill="#DDF0F1"/>
<path d="M80.3485 105.521C80.1268 105.521 79.9051 105.434 79.7388 105.261C78.6146 104.099 77.6962 102.788 76.9994 101.358C76.0652 99.4537 75.1863 97.6523 75.8356 95.7246C76.4927 93.7573 78.3375 92.8566 80.293 91.9007C81.8924 91.1185 83.6025 90.6129 85.3918 90.3916C85.859 90.3363 86.2707 90.6603 86.3261 91.1264C86.3815 91.5846 86.0569 92.0034 85.5898 92.0587C83.9984 92.2483 82.4624 92.7065 81.0373 93.4018C79.2717 94.2709 77.8703 94.9503 77.4349 96.2539C77.0073 97.5259 77.6724 98.8927 78.5196 100.615C79.1371 101.887 79.9605 103.056 80.9581 104.091C81.2827 104.423 81.2669 104.96 80.9344 105.276C80.7681 105.434 80.5622 105.513 80.3485 105.513V105.521Z" fill="#DDF0F1"/>
<path d="M96.5714 89.5529C96.2468 89.5529 95.9301 89.3949 95.7322 89.1105C95.2729 88.4389 95.0196 87.7279 94.98 87.001C94.7979 83.4299 99.7383 80.9649 103.349 79.1636C107.078 77.2991 111.124 75.9401 115.367 75.1185C115.921 75.0158 116.452 75.3713 116.563 75.9243C116.674 76.4774 116.309 77.0067 115.755 77.1173C111.694 77.9074 107.83 79.2031 104.259 80.9807C101.504 82.3555 96.9039 84.6545 97.0148 86.8983C97.0306 87.246 97.1652 87.6015 97.4106 87.957C97.7273 88.4231 97.6086 89.0552 97.1493 89.3712C96.9752 89.4897 96.7693 89.5529 96.5714 89.5529Z" fill="#DDF0F1"/>
<path d="M110.332 98.7256C110.237 98.7256 110.134 98.7098 110.039 98.6782C108.147 98.1014 106.278 97.4378 104.489 96.703C103.705 96.3791 102.636 95.9367 101.251 95.2414C99.9917 94.6015 98.7487 93.8983 97.5769 93.1399C97.5215 93.1003 97.4661 93.0608 97.4186 93.0134C97.3631 92.9581 97.2681 92.8791 97.1573 92.7764C95.8272 91.5913 94.5525 90.3272 94.8771 89.1026C94.9721 88.7471 95.2809 88.123 96.3022 87.9096C96.8485 87.7911 97.3948 88.1387 97.5136 88.6918C97.6086 89.1263 97.4027 89.553 97.0465 89.7742C97.2602 90.0586 97.6878 90.5247 98.5191 91.2595C98.6141 91.3464 98.7012 91.4175 98.7645 91.4807C99.8571 92.1839 101.005 92.8396 102.177 93.4322C103.491 94.0958 104.52 94.5225 105.273 94.8306C106.999 95.5416 108.804 96.1895 110.633 96.7425C111.171 96.9085 111.472 97.4773 111.314 98.0145C111.179 98.457 110.775 98.7335 110.34 98.7335L110.332 98.7256Z" fill="#DDF0F1"/>
<path d="M119.176 99.3023C116.476 99.3023 113.76 99.1917 111.068 98.9625C110.506 98.9151 110.094 98.4253 110.142 97.8644C110.189 97.3034 110.688 96.8926 111.242 96.94C114.766 97.2323 118.329 97.335 121.836 97.2323C121.907 97.2323 129.856 96.9479 136.451 95.5653C138.486 95.1386 140.537 94.5698 142.532 93.8587C143.419 93.5427 143.902 93.3452 145.928 92.5077L148.375 91.4964C149.064 91.212 149.673 90.9513 150.236 90.7143C152.009 89.9637 153.292 89.4186 154.828 89.0235C156.918 88.4784 159.127 88.2256 161.407 88.2809C161.969 88.2967 162.412 88.7628 162.405 89.3238C162.389 89.8847 161.937 90.3271 161.359 90.3192C159.269 90.2718 157.25 90.501 155.342 90.9908C153.949 91.3542 152.73 91.8678 151.035 92.5867C150.465 92.8317 149.848 93.0924 149.151 93.3768L146.704 94.3881C144.693 95.2176 144.155 95.4389 143.213 95.7707C141.131 96.5054 138.993 97.1059 136.871 97.5483C130.094 98.9625 122.232 99.247 121.899 99.2549C120.997 99.2786 120.086 99.2944 119.184 99.2944L119.176 99.3023Z" fill="#DDF0F1"/>
<path d="M162.381 82.9638C162.381 82.9638 162.357 82.9638 162.341 82.9638C161.771 82.9401 161.193 82.8848 160.631 82.8058C159.293 82.6083 158.287 82.2844 157.852 82.1422L157.733 82.1026C153.236 80.72 148.628 79.5112 144.044 78.5237C139.824 77.6151 136.491 76.8961 132.105 76.4932C127.473 76.0666 122.754 76.0982 118.075 76.588C117.513 76.6433 117.014 76.2404 116.959 75.6794C116.903 75.1185 117.307 74.6208 117.869 74.5655C122.683 74.0677 127.536 74.0361 132.295 74.4706C136.808 74.8815 140.196 75.6162 144.48 76.5406C149.127 77.544 153.79 78.7607 158.343 80.167L158.493 80.2144C158.873 80.3408 159.768 80.6252 160.94 80.799C161.399 80.8702 161.866 80.9097 162.325 80.9334C163.077 80.799 163.83 80.6094 164.558 80.3645C165.445 80.0722 166.07 79.772 166.308 79.6614C168.723 78.5316 174.281 76.4616 179.102 75.0711C181.826 74.281 183.916 73.8228 186.521 73.7833C187.305 73.7675 188.104 73.7991 188.88 73.8702C189.442 73.9176 189.854 74.4153 189.807 74.9763C189.759 75.5372 189.26 75.9481 188.698 75.9006C187.986 75.8374 187.265 75.8137 186.545 75.8216C184.177 75.8533 182.23 76.2878 179.672 77.0304C174.455 78.5395 169.15 80.5857 167.202 81.4943C166.909 81.6286 166.205 81.9604 165.207 82.2923C164.344 82.5767 163.458 82.7979 162.563 82.9559C162.507 82.9638 162.452 82.9717 162.389 82.9717L162.381 82.9638Z" fill="#DDF0F1"/>
<path d="M185.848 101.617C185.713 101.617 185.571 101.586 185.436 101.53L174.194 96.5609C172.127 95.526 170.124 94.4199 168.192 93.2585C166.743 92.3894 165.286 91.4571 163.885 90.5091C163.418 90.193 163.299 89.561 163.616 89.0948C163.933 88.6287 164.566 88.5102 165.033 88.8262C166.411 89.7585 167.828 90.6671 169.245 91.5203C171.137 92.658 173.101 93.7404 175.072 94.728L186.268 99.6738C186.782 99.9029 187.012 100.503 186.79 101.017C186.624 101.396 186.252 101.625 185.856 101.625L185.848 101.617Z" fill="#DDF0F1"/>
<path d="M185.848 101.617C185.555 101.617 185.27 101.491 185.072 101.254C183.013 98.8205 181.414 96.1343 180.313 93.2743C179.387 90.8725 178.659 88.9763 178.968 86.4876C179.316 83.675 180.789 81.8105 182.649 79.4482L182.807 79.2428C184.335 77.2992 186.141 75.5611 188.175 74.0678C188.627 73.736 189.268 73.8308 189.601 74.2812C189.933 74.7315 189.838 75.3714 189.387 75.7033C187.502 77.0938 185.824 78.7055 184.415 80.499L184.256 80.7044C182.53 82.9007 181.279 84.4888 180.994 86.7404C180.749 88.7235 181.335 90.2404 182.222 92.5395C183.243 95.1862 184.731 97.6749 186.639 99.9424C187.004 100.369 186.948 101.017 186.521 101.372C186.331 101.53 186.093 101.609 185.864 101.609L185.848 101.617Z" fill="#DDF0F1"/>
<path d="M117.434 93.2426C115.098 93.2426 113.293 92.3656 112.359 91.7968C111.884 91.5045 111.733 90.8724 112.026 90.3984C112.319 89.9243 112.945 89.7742 113.428 90.0665C114.267 90.5801 116.009 91.4097 118.241 91.1647C120.474 90.9198 121.852 89.7426 122.77 88.9605C122.905 88.8499 123.008 88.7471 123.095 88.6681C122.548 88.5417 121.606 88.4627 120.268 88.4311C118.036 88.3758 115.739 88.6365 113.443 89.1896C112.897 89.3239 112.343 88.9842 112.208 88.439C112.074 87.8939 112.414 87.3408 112.96 87.2065C115.431 86.6061 117.909 86.3295 120.316 86.3848C122.897 86.4481 125.058 86.6219 125.415 88.123C125.628 89.0395 124.868 89.8374 124.092 90.5011C123.118 91.3306 121.313 92.8634 118.463 93.1794C118.107 93.2189 117.766 93.2347 117.434 93.2347V93.2426Z" fill="#DDF0F1"/>
<path d="M108.416 95.6048C108.115 95.6048 107.814 95.4704 107.608 95.2097C107.26 94.7673 107.347 94.1273 107.79 93.7797C109.405 92.5314 110.672 90.9987 111.567 89.2369C112.042 88.3046 112.398 87.3091 112.636 86.2741C112.762 85.729 113.309 85.3892 113.855 85.5157C114.401 85.6421 114.742 86.1872 114.615 86.7324C114.338 87.9253 113.926 89.0709 113.38 90.1533C112.351 92.1917 110.886 93.9535 109.033 95.3914C108.851 95.5337 108.63 95.6048 108.408 95.6048H108.416Z" fill="#DDF0F1"/>
<path d="M102.201 86.2583C102.201 86.2583 102.185 86.2583 102.169 86.2583C101.084 86.2425 100.206 85.3418 100.221 84.2594C100.237 83.1691 101.108 82.3001 102.224 82.3159C102.755 82.3159 103.246 82.5371 103.61 82.9163C103.974 83.2956 104.172 83.7933 104.164 84.3147C104.148 85.3892 103.262 86.2583 102.193 86.2583H102.201ZM102.137 84.2831C102.137 84.2831 102.161 84.3384 102.201 84.3463C102.232 84.3463 102.264 84.3147 102.264 84.2831H102.137ZM102.137 84.2831H102.264C102.264 84.2831 102.225 84.1962 102.201 84.2199C102.169 84.2199 102.137 84.2436 102.137 84.2831Z" fill="#DDF0F1"/>
<path d="M128.17 103.142C126.753 103.142 125.335 103.008 123.942 102.739C118.851 101.767 115.993 100.701 111.258 98.931C110.728 98.7335 110.466 98.1489 110.664 97.6195C110.862 97.0902 111.448 96.8295 111.979 97.027C116.777 98.8204 119.413 99.8001 124.33 100.74C125.605 100.985 126.871 101.104 128.201 101.104C129.144 101.104 130.094 101.033 131.028 100.906C131.606 100.827 132.136 100.645 132.445 100.495C132.049 100.132 131.06 99.4683 129.033 98.5992C128.518 98.378 128.273 97.7775 128.502 97.264C128.724 96.7504 129.326 96.5055 129.84 96.7346C134.401 98.6861 134.82 99.9344 134.63 100.89C134.329 102.384 132.018 102.826 131.321 102.921C130.284 103.063 129.191 103.134 128.186 103.142H128.17Z" fill="#DDF0F1"/>
<path d="M149.056 99.9106C148.692 99.9106 148.327 99.9027 147.963 99.8869C144.432 99.7289 140.893 98.765 137.734 97.1059C137.235 96.8452 137.045 96.2289 137.306 95.7312C137.568 95.2334 138.185 95.0438 138.684 95.3045C141.582 96.8215 144.82 97.7063 148.058 97.8485C150.346 97.9513 152.634 97.6984 154.859 97.098C154.574 96.2289 154.115 95.265 153.49 94.6409C153.236 94.3881 152.864 94.0088 152.254 93.7481C152.072 93.6691 151.938 93.6296 151.629 93.5269L151.376 93.4479C150.647 93.2188 150.061 93.0212 149.665 92.8869C149.135 92.7052 148.85 92.1285 149.032 91.5912C149.214 91.0619 149.792 90.7775 150.33 90.9592C150.711 91.0935 151.288 91.2831 151.993 91.5122L152.246 91.5912C152.666 91.7255 152.84 91.7808 153.086 91.8915C154.036 92.3102 154.645 92.9185 154.938 93.2109C156.411 94.6883 156.965 96.94 157.1 97.5957C157.203 98.1093 156.91 98.6149 156.411 98.7729C154.02 99.5314 151.55 99.9106 149.064 99.9106H149.056Z" fill="#DDF0F1"/>
<path d="M152.064 80.4356C151.526 80.4356 151.075 80.009 151.043 79.4638C151.019 78.9029 151.455 78.4289 152.017 78.3973C153.014 78.3498 153.893 78.2708 154.709 78.1444C155.263 78.0654 155.785 78.4447 155.865 78.9977C155.944 79.5508 155.564 80.0722 155.01 80.1512C154.123 80.2855 153.173 80.3724 152.112 80.4198C152.096 80.4198 152.08 80.4198 152.064 80.4198V80.4356Z" fill="#DDF0F1"/>
<path d="M154.859 80.175C154.329 80.175 153.877 79.7642 153.846 79.2269C153.806 78.666 154.234 78.184 154.796 78.1445C157.417 77.9786 158.731 77.1254 158.842 76.4064C158.945 75.7427 158.034 74.6288 155.793 73.736C155.271 73.5306 155.018 72.938 155.223 72.4166C155.429 71.8951 156.023 71.6423 156.546 71.8477C159.538 73.0328 161.154 74.85 160.853 76.7224C160.544 78.666 158.327 79.9538 154.923 80.1671C154.899 80.1671 154.875 80.1671 154.859 80.1671V80.175Z" fill="#DDF0F1"/>
<path d="M121.028 73.7596C120.561 73.7596 120.141 73.4357 120.038 72.9695C119.912 72.4244 120.26 71.8793 120.806 71.7528C129.318 69.833 137.908 69.2879 146.348 70.1332C148.715 70.3702 151.106 70.7179 153.45 71.1761C154.004 71.2867 154.36 71.8161 154.257 72.3691C154.147 72.9221 153.616 73.2777 153.062 73.175C150.782 72.7325 148.454 72.3928 146.142 72.1558C137.924 71.3341 129.547 71.8635 121.258 73.7359C121.179 73.7517 121.107 73.7596 121.036 73.7596H121.028Z" fill="#DDF0F1"/>
<path d="M108.875 78.9503C108.543 78.9503 108.218 78.7844 108.02 78.492C107.711 78.018 107.846 77.3938 108.313 77.0857C109.73 76.1613 111.219 75.316 112.739 74.5891C114.188 73.886 115.708 73.2697 117.244 72.7562C117.6 72.6377 117.909 72.535 118.123 72.4718C118.653 72.3058 119.231 72.6061 119.397 73.1354C119.564 73.6726 119.263 74.2415 118.732 74.4074C118.526 74.4706 118.241 74.5654 117.901 74.676C116.444 75.1659 115.011 75.7505 113.633 76.4142C112.193 77.1094 110.783 77.9074 109.437 78.7844C109.263 78.895 109.073 78.9503 108.883 78.9503H108.875Z" fill="#DDF0F1"/>
<path d="M124.441 73.9887C124.282 73.9887 124.132 73.9255 124.021 73.7991C123.815 73.57 123.839 73.2144 124.069 73.009C124.179 72.9142 124.346 72.772 124.551 72.6061C125.327 71.9977 126.182 71.5 127.101 71.1129C127.806 70.8126 128.558 70.5835 129.318 70.4334C129.619 70.3702 129.919 70.5677 129.975 70.8759C130.03 71.184 129.84 71.4763 129.532 71.5316C128.843 71.6659 128.17 71.8713 127.536 72.1399C126.713 72.4876 125.937 72.9458 125.24 73.483C125.058 73.6253 124.908 73.7596 124.805 73.8465C124.702 73.9413 124.567 73.9887 124.433 73.9887H124.441Z" fill="#DDF0F1"/>
<path d="M129.745 73.8227C129.563 73.8227 129.381 73.7279 129.27 73.562C129.104 73.3013 129.175 72.9537 129.436 72.7877C129.555 72.7087 129.729 72.5981 129.943 72.4717C130.743 71.9898 131.606 71.5394 132.485 71.1523C133.173 70.8442 133.87 70.5756 134.575 70.3385C134.868 70.2437 135.184 70.4017 135.287 70.6941C135.382 70.9864 135.224 71.3024 134.931 71.4051C134.266 71.6263 133.593 71.8871 132.944 72.1794C132.105 72.5507 131.289 72.9773 130.521 73.4356C130.315 73.5541 130.149 73.6647 130.038 73.7358C129.943 73.799 129.84 73.8227 129.737 73.8227H129.745Z" fill="#DDF0F1"/>
<path d="M136.451 73.8306C136.277 73.8306 136.111 73.7516 136 73.6015C135.818 73.3566 135.865 73.001 136.119 72.8193C136.238 72.7324 136.404 72.606 136.618 72.4638C137.409 71.9266 138.264 71.4604 139.167 71.0654C139.864 70.7652 140.584 70.5044 141.313 70.3069C141.613 70.22 141.922 70.4017 142.001 70.702C142.081 71.0022 141.906 71.3103 141.606 71.3893C140.933 71.571 140.26 71.808 139.61 72.0925C138.771 72.4559 137.979 72.8904 137.243 73.3882C137.045 73.5225 136.887 73.6331 136.784 73.7121C136.681 73.7832 136.57 73.8227 136.451 73.8227V73.8306Z" fill="#DDF0F1"/>
<path d="M149.412 95.4627C149.412 95.4627 149.357 95.4627 149.333 95.4627L144.812 94.8385C144.503 94.799 144.289 94.5146 144.337 94.2065C144.377 93.8983 144.669 93.685 144.97 93.7324L149.491 94.3566C149.8 94.3961 150.014 94.6805 149.966 94.9886C149.927 95.2651 149.689 95.4706 149.412 95.4706V95.4627Z" fill="#DDF0F1"/>
<path d="M178.485 94.5383C178.334 94.5383 178.176 94.4988 178.033 94.4039C176.672 93.5428 175.46 92.4841 174.447 91.2595C173.085 89.6241 171.81 88.0834 171.977 86.0609C172.151 83.9988 173.726 82.6873 175.397 81.2968C176.767 80.1591 178.31 79.2584 179.997 78.6343C180.432 78.4684 180.915 78.6896 181.082 79.1241C181.248 79.5586 181.026 80.0406 180.591 80.2065C179.086 80.7675 177.701 81.5733 176.482 82.5846C174.969 83.8408 173.774 84.8363 173.655 86.2031C173.544 87.5383 174.51 88.7076 175.737 90.185C176.64 91.2753 177.717 92.2155 178.936 92.9897C179.332 93.2346 179.443 93.7561 179.197 94.1511C179.039 94.4039 178.762 94.5383 178.485 94.5383Z" fill="#DDF0F1"/>
<path d="M190.899 78.3959C190.44 78.3959 190.028 78.0877 189.909 77.6216C189.711 76.8315 189.719 76.081 189.941 75.3857C191.018 71.9726 196.512 71.3801 200.519 70.9535C204.667 70.5031 208.935 70.6374 213.194 71.3406C213.748 71.4354 214.128 71.9568 214.033 72.5099C213.938 73.0629 213.424 73.4422 212.862 73.3473C208.784 72.6679 204.699 72.5494 200.74 72.976C197.684 73.3078 192.562 73.8609 191.889 76.002C191.786 76.3338 191.786 76.713 191.889 77.1317C192.023 77.6769 191.691 78.2299 191.144 78.3642C191.065 78.3879 190.978 78.3959 190.899 78.3959Z" fill="#DDF0F1"/>
<path d="M200.59 91.7716C200.376 91.7716 200.154 91.7005 199.972 91.5662C198.397 90.3732 196.884 89.1012 195.459 87.7818C194.834 87.205 193.979 86.415 192.934 85.2852C191.976 84.2502 191.065 83.1599 190.226 82.038C190.186 81.9827 190.155 81.9274 190.123 81.8642C190.091 81.7931 190.036 81.6904 189.965 81.5561C189.125 79.9839 188.373 78.3563 189.11 77.3135C189.323 77.0132 189.83 76.5392 190.859 76.6893C191.414 76.7683 191.801 77.2898 191.722 77.8428C191.659 78.2852 191.319 78.6171 190.907 78.6961C191.002 79.0358 191.247 79.6204 191.77 80.608C191.833 80.7186 191.881 80.8213 191.92 80.8924C192.704 81.9353 193.551 82.9466 194.438 83.9026C195.428 84.9771 196.251 85.7355 196.853 86.2886C198.223 87.5606 199.695 88.7852 201.215 89.9466C201.667 90.2863 201.746 90.9262 201.405 91.3687C201.207 91.6294 200.899 91.7716 200.598 91.7716H200.59Z" fill="#DDF0F1"/>
<path d="M251.364 101.655C251.237 101.655 251.111 101.632 250.984 101.584C249.044 100.81 247.065 100.32 245.109 100.123C243.676 99.9803 242.346 100.036 240.509 100.123C239.892 100.154 239.219 100.178 238.475 100.209L235.822 100.304C233.653 100.383 233.075 100.407 232.077 100.383C229.868 100.344 227.659 100.162 225.514 99.8381C218.673 98.811 211.199 96.3381 210.882 96.2275C207.494 95.0819 204.113 93.7151 200.835 92.1824C200.329 91.9454 200.107 91.337 200.344 90.8314C200.582 90.3257 201.192 90.1045 201.698 90.3415C204.905 91.8506 208.206 93.1779 211.524 94.2998C211.595 94.3235 219.14 96.8201 225.807 97.8234C227.865 98.1316 229.987 98.3054 232.101 98.3449C233.043 98.3607 233.558 98.3449 235.743 98.2659L238.403 98.1711C239.14 98.1474 239.805 98.1158 240.422 98.0842C242.346 97.9973 243.74 97.934 245.315 98.0921C247.461 98.3054 249.622 98.8426 251.744 99.688C252.267 99.8934 252.52 100.486 252.314 101.007C252.156 101.402 251.776 101.647 251.364 101.647V101.655Z" fill="#DDF0F1"/>
<path d="M282.083 97.6654C281.933 97.6654 281.791 97.6338 281.648 97.5706C281.007 97.2624 280.334 96.9859 279.661 96.7489C277.428 95.9509 275.457 95.6823 272.796 95.4848C267.381 95.0819 261.688 95.1609 259.551 95.3347C259.226 95.3584 258.442 95.4295 257.397 95.39C256.494 95.3584 255.584 95.2557 254.689 95.0898C254.618 95.074 254.547 95.0582 254.483 95.0266C253.953 94.8053 253.438 94.5525 252.94 94.2839C251.752 93.6361 250.929 92.9803 250.572 92.6959L250.469 92.6169C246.732 89.7568 242.837 87.0232 238.886 84.5029C235.252 82.1801 232.378 80.3472 228.404 78.4431C224.207 76.4364 219.774 74.8247 215.221 73.6475C214.675 73.5052 214.35 72.9522 214.493 72.4071C214.635 71.8619 215.189 71.538 215.736 71.6802C220.423 72.889 224.983 74.5481 229.29 76.6102C233.376 78.5696 236.297 80.4262 239.987 82.7885C243.985 85.3404 247.936 88.1056 251.712 91.0051L251.839 91.1C252.156 91.3449 252.884 91.9295 253.921 92.4984C254.325 92.7196 254.745 92.925 255.172 93.1067C255.924 93.241 256.7 93.3279 257.468 93.3516C258.395 93.3832 259.091 93.3279 259.353 93.3042C262.013 93.083 267.943 93.083 272.947 93.4543C275.781 93.6677 277.895 93.9521 280.35 94.8291C281.094 95.0898 281.822 95.3979 282.527 95.7297C283.034 95.9746 283.247 96.5751 283.01 97.0886C282.836 97.4521 282.471 97.6654 282.091 97.6654H282.083Z" fill="#DDF0F1"/>
<path d="M270.366 120.751C270.112 120.751 269.851 120.656 269.653 120.459L260.849 111.895C259.274 110.204 257.785 108.474 256.376 106.712C255.315 105.384 254.286 104.018 253.296 102.635C252.971 102.177 253.082 101.545 253.533 101.221C253.993 100.897 254.626 101.007 254.951 101.458C255.917 102.809 256.922 104.152 257.959 105.448C259.337 107.17 260.794 108.861 262.298 110.48L271.062 119.013C271.466 119.408 271.474 120.048 271.078 120.451C270.88 120.656 270.611 120.759 270.35 120.759L270.366 120.751Z" fill="#DDF0F1"/>
<path d="M270.366 120.751C269.946 120.751 269.558 120.49 269.408 120.08C268.331 117.085 267.769 114.004 267.737 110.939C267.705 108.363 267.69 106.333 268.846 104.112C270.16 101.6 272.187 100.36 274.752 98.7953L274.974 98.661C277.08 97.3732 279.384 96.3698 281.814 95.6745C282.353 95.5165 282.923 95.8326 283.073 96.3698C283.231 96.9071 282.915 97.4759 282.376 97.626C280.12 98.266 277.99 99.1982 276.042 100.391L275.821 100.526C273.43 101.987 271.704 103.038 270.659 105.053C269.732 106.822 269.756 108.45 269.78 110.915C269.811 113.751 270.334 116.603 271.332 119.392C271.522 119.922 271.244 120.506 270.714 120.696C270.603 120.735 270.484 120.759 270.374 120.759L270.366 120.751Z" fill="#DDF0F1"/>
<path d="M211.983 89.6148C211.302 89.6148 210.566 89.5358 209.79 89.3462C207.019 88.6509 205.324 86.9049 204.556 85.9173C204.208 85.4749 204.287 84.8349 204.731 84.4873C205.174 84.1397 205.815 84.2187 206.164 84.6611C206.773 85.4354 208.111 86.818 210.289 87.3631C212.466 87.9083 214.176 87.2841 215.3 86.8733C215.467 86.8101 215.601 86.7627 215.712 86.7074C215.245 86.3993 214.382 85.9963 213.139 85.5065C211.072 84.6848 208.832 84.1239 206.48 83.8473C205.918 83.7841 205.522 83.2785 205.586 82.7176C205.649 82.1566 206.156 81.7537 206.718 81.8248C209.244 82.125 211.666 82.7255 213.899 83.6182C216.298 84.5742 218.261 85.4907 218.071 87.0155C217.961 87.9478 216.963 88.4297 215.997 88.7773C215.134 89.0934 213.733 89.6069 211.975 89.6069L211.983 89.6148Z" fill="#DDF0F1"/>
<path d="M199.885 88.1846C199.45 88.1846 199.046 87.9081 198.911 87.4735C198.745 86.9363 199.038 86.3674 199.576 86.2015C201.524 85.5932 203.25 84.5977 204.707 83.2546C205.475 82.5435 206.164 81.7377 206.749 80.8528C207.058 80.3867 207.692 80.2524 208.159 80.5605C208.626 80.8686 208.76 81.5007 208.452 81.9668C207.779 82.986 206.987 83.9182 206.1 84.7399C204.422 86.2884 202.435 87.434 200.194 88.1372C200.091 88.1688 199.988 88.1846 199.885 88.1846Z" fill="#DDF0F1"/>
<path d="M197.66 77.3212C197.415 77.3212 197.177 77.2738 196.948 77.1869C195.934 76.7919 195.428 75.6463 195.823 74.635C196.219 73.6237 197.367 73.1181 198.381 73.5131C199.394 73.9081 199.901 75.0537 199.505 76.065C199.315 76.5549 198.943 76.942 198.46 77.1553C198.207 77.2659 197.937 77.3212 197.668 77.3212H197.66ZM197.597 75.3303C197.581 75.3619 197.597 75.4014 197.637 75.4093C197.66 75.4172 197.708 75.4014 197.716 75.3698L197.597 75.3224V75.3303ZM197.597 75.3303L197.716 75.3777C197.716 75.3777 197.716 75.3066 197.676 75.2987C197.644 75.2908 197.605 75.3066 197.597 75.3382V75.3303Z" fill="#DDF0F1"/>
<path d="M219.979 103.117C219.322 103.117 218.721 103.006 218.428 102.943C217.414 102.722 216.409 102.43 215.443 102.066C214.105 101.576 212.814 100.944 211.595 100.21C207.161 97.5312 204.857 95.5323 201.033 92.2299C200.606 91.8585 200.558 91.2186 200.93 90.792C201.302 90.3653 201.944 90.3179 202.371 90.6892C206.243 94.0312 208.373 95.88 212.656 98.4714C213.764 99.1429 214.944 99.7118 216.155 100.162C217.034 100.486 217.953 100.755 218.871 100.96C219.441 101.086 220.003 101.102 220.344 101.063C220.106 100.581 219.402 99.617 217.81 98.1C217.406 97.7129 217.39 97.0651 217.778 96.6621C218.166 96.2592 218.816 96.2434 219.219 96.6305C222.806 100.051 222.766 101.363 222.252 102.193C221.793 102.927 220.85 103.125 219.995 103.125L219.979 103.117Z" fill="#DDF0F1"/>
<path d="M243.454 107.778C243.454 107.778 243.423 107.778 243.407 107.778C240.533 107.636 237.738 107.004 235.102 105.89C231.848 104.515 228.871 102.382 226.488 99.7276C226.115 99.3089 226.147 98.6689 226.567 98.2897C226.986 97.9105 227.628 97.95 228.008 98.3687C230.193 100.802 232.924 102.754 235.901 104.018C238.015 104.91 240.24 105.471 242.536 105.677C242.568 104.895 242.52 103.796 242.109 102.904C241.958 102.58 241.736 102.098 241.269 101.632C241.127 101.497 241.016 101.41 240.763 101.213L240.549 101.047C239.947 100.581 239.464 100.186 239.147 99.9251C238.712 99.5696 238.649 98.9297 239.005 98.4951C239.361 98.0606 240.002 97.9974 240.438 98.3529C240.747 98.6057 241.222 98.9929 241.808 99.4432L242.014 99.6091C242.362 99.8777 242.504 99.9962 242.694 100.178C243.439 100.905 243.795 101.687 243.969 102.058C244.832 103.947 244.571 106.254 244.468 106.917C244.389 107.415 243.961 107.778 243.462 107.778H243.454Z" fill="#DDF0F1"/>
<path d="M248.807 89.8754C248.735 89.8754 248.664 89.8754 248.593 89.8517C247.722 89.67 246.796 89.4171 245.782 89.0932C245.244 88.9194 244.951 88.3506 245.125 87.8133C245.299 87.2761 245.869 86.9838 246.408 87.1576C247.358 87.4578 248.213 87.6948 249.02 87.8607C249.575 87.9792 249.923 88.5165 249.804 89.0695C249.701 89.5515 249.282 89.8754 248.807 89.8754Z" fill="#DDF0F1"/>
<path d="M251.657 90.3496C250.723 90.3496 249.67 90.1837 248.514 89.836C247.975 89.678 247.667 89.1092 247.833 88.5719C247.991 88.0347 248.561 87.7266 249.1 87.8925C251.617 88.643 253.145 88.3033 253.502 87.6713C253.834 87.0866 253.367 85.7198 251.578 84.116C251.158 83.7367 251.127 83.0968 251.499 82.6781C251.879 82.2593 252.52 82.2277 252.94 82.599C255.331 84.748 256.209 87.0155 255.275 88.6667C254.65 89.7728 253.367 90.3496 251.657 90.3496Z" fill="#DDF0F1"/>
<path d="M249.741 82.7647C249.559 82.7647 249.377 82.7173 249.21 82.6146C247.223 81.4058 245.165 80.276 243.082 79.2569C235.664 75.6305 227.636 73.2129 219.203 72.0831C218.649 72.012 218.253 71.4984 218.333 70.9375C218.412 70.3844 218.918 69.9894 219.481 70.0684C228.126 71.2298 236.368 73.7106 243.985 77.4318C246.123 78.4747 248.244 79.6361 250.279 80.8844C250.762 81.1767 250.913 81.8009 250.62 82.2828C250.43 82.5988 250.089 82.7726 249.749 82.7726L249.741 82.7647Z" fill="#DDF0F1"/>
<path d="M206.132 72.731C205.665 72.731 205.245 72.415 205.142 71.941C205.016 71.3958 205.364 70.8507 205.91 70.7243C207.557 70.3529 209.251 70.0764 210.93 69.9184C212.537 69.7683 214.168 69.713 215.791 69.7683C216.171 69.7762 216.488 69.792 216.717 69.8078C217.28 69.8394 217.707 70.3134 217.683 70.8744C217.66 71.4353 217.169 71.862 216.615 71.8383C216.401 71.8304 216.1 71.8146 215.736 71.7988C214.2 71.7514 212.648 71.7988 211.128 71.9489C209.528 72.099 207.929 72.3518 206.369 72.7073C206.29 72.7231 206.219 72.731 206.14 72.731H206.132Z" fill="#DDF0F1"/>
<path d="M222.291 73.4658C222.07 73.4658 221.856 73.3315 221.769 73.1102C221.658 72.8179 221.8 72.494 222.093 72.3834C222.236 72.3281 222.442 72.257 222.687 72.178C223.621 71.8777 224.603 71.7039 225.601 71.6644C226.369 71.6328 227.153 71.6723 227.921 71.7987C228.229 71.8461 228.435 72.1385 228.388 72.4387C228.34 72.7468 228.047 72.9443 227.746 72.9048C227.058 72.7942 226.353 72.7547 225.664 72.7863C224.769 72.8258 223.883 72.9838 223.043 73.2525C222.822 73.3236 222.64 73.3947 222.513 73.4421C222.45 73.4658 222.378 73.4816 222.315 73.4816L222.291 73.4658Z" fill="#DDF0F1"/>
<path d="M227.327 75.1566C227.066 75.1566 226.836 74.9749 226.78 74.7142C226.717 74.414 226.907 74.1138 227.208 74.0506C227.343 74.0189 227.548 73.9795 227.794 73.932C228.712 73.7582 229.67 73.6397 230.644 73.5765C231.396 73.5291 232.148 73.5133 232.885 73.537C233.194 73.5449 233.439 73.8056 233.431 74.1138C233.423 74.4219 233.146 74.6431 232.853 74.6589C232.148 74.6352 231.436 74.651 230.715 74.6905C229.797 74.7458 228.879 74.8643 228.008 75.0302C227.778 75.0776 227.58 75.1171 227.453 75.1408C227.414 75.1487 227.374 75.1566 227.335 75.1566H227.327Z" fill="#DDF0F1"/>
<path d="M233.605 77.4952C233.36 77.4952 233.138 77.3372 233.067 77.0923C232.98 76.7921 233.154 76.4839 233.447 76.397C233.589 76.3575 233.787 76.3022 234.041 76.239C234.967 76.0099 235.933 75.8677 236.915 75.8203C237.675 75.7808 238.443 75.7887 239.187 75.8598C239.496 75.8835 239.725 76.16 239.694 76.4681C239.662 76.7763 239.385 77.0054 239.084 76.9738C238.387 76.9106 237.675 76.9027 236.97 76.9422C236.06 76.9896 235.157 77.1239 234.302 77.3372C234.072 77.3925 233.882 77.4478 233.756 77.4794C233.7 77.4952 233.653 77.5031 233.597 77.5031L233.605 77.4952Z" fill="#DDF0F1"/>
<path d="M238.197 102.279C238.11 102.279 238.015 102.256 237.928 102.208L233.914 100.051C233.645 99.9012 233.542 99.5615 233.685 99.2929C233.835 99.0243 234.175 98.9216 234.445 99.0638L238.459 101.221C238.728 101.371 238.831 101.71 238.688 101.979C238.585 102.169 238.395 102.271 238.197 102.271V102.279Z" fill="#DDF0F1"/>
<path d="M265.877 111.547C265.623 111.547 265.37 111.436 265.204 111.215C264.23 109.935 263.462 108.521 262.939 107.02C262.235 105.021 261.577 103.125 262.44 101.292C263.327 99.4193 265.259 98.7319 267.31 98.013C268.988 97.4204 270.754 97.1202 272.551 97.1123C273.018 97.1123 273.39 97.4836 273.39 97.9498C273.39 98.4159 273.018 98.7872 272.551 98.7951C270.944 98.7951 269.368 99.0717 267.872 99.601C266.011 100.257 264.547 100.77 263.961 102.011C263.391 103.227 263.889 104.657 264.523 106.475C264.99 107.81 265.671 109.066 266.542 110.212C266.827 110.583 266.748 111.104 266.383 111.389C266.233 111.507 266.051 111.563 265.877 111.563V111.547Z" fill="#DDF0F1"/>
</g>
<defs>
<clipPath id="clip0_1754_12158">
<rect width="376.513" height="120.759" fill="white"/>
</clipPath>
</defs>
</svg>
