<svg width="110" height="46" viewBox="0 0 110 46" fill="none" xmlns="http://www.w3.org/2000/svg">
<g filter="url(#filter0_d_2043_12158)">
<path d="M7.01643 22.8369L6.98436 22.8684C7.01643 22.8369 7.01643 22.8369 7.01643 22.8055V22.648C7.36921 20.7901 8.04269 18.9637 8.71617 17.1687C9.42173 15.2793 10.0952 13.4214 10.9932 11.6264C11.827 9.92597 12.7891 8.25699 13.8795 6.71397C14.8417 5.29691 15.9962 3.75389 17.4714 2.80919C17.9204 2.68323 18.3694 2.21088 18.9467 2.30534C19.524 2.39982 19.524 2.99813 19.3957 3.56495C19.556 3.12409 19.6522 2.65174 19.2674 2.33684C18.7543 1.95895 17.7601 2.55727 17.3432 2.84068C17.1507 2.90366 16.9583 3.02962 16.798 3.15558C16.8942 3.06111 17.0225 2.96664 17.1828 2.87217L17.0225 2.93515L17.4714 2.68323C17.9846 2.39982 19.1391 1.77001 19.524 2.58876C19.8126 3.25005 19.3636 4.35221 19.1391 4.98201C18.7222 6.05268 18.2091 7.06036 17.6639 8.06805C17.7601 7.84762 18.1449 6.99738 18.1449 6.99738C17.9204 6.96589 16.8942 9.29617 16.7017 9.35915H16.7338C16.6055 9.45362 16.5093 9.54809 16.5093 9.57958C16.4452 9.95746 16.8942 9.86299 17.1507 9.8315C18.2411 9.70554 19.6522 8.79232 20.3578 8.00507C21.1275 7.15483 21.4161 5.86374 21.4161 4.73009V4.6986C21.3841 2.55727 19.8767 -0.150889 17.279 0.00656133C15.8358 0.0695428 14.4889 1.45511 13.5588 2.39982C12.8853 3.15558 12.2439 3.97433 11.6667 4.79307C11.4101 5.17095 11.1535 5.51734 10.929 5.89523C10.6725 6.24162 10.1593 6.77695 10.0311 7.18632C10.0311 7.18632 10.1914 6.99738 10.3197 6.87142C9.96693 7.40676 9.64622 7.97358 9.32551 8.50891C9.29344 8.47742 9.51794 8.03656 9.51794 8.03656C9.2293 7.97358 7.91441 10.5558 7.75406 10.8392C7.17679 11.8784 6.66366 12.9175 6.31088 14.0197C5.92603 15.2478 5.4129 16.413 5.02806 17.6096C4.83563 18.2079 4.64321 18.7747 4.51493 19.373C4.45079 19.6564 4.38665 19.9084 4.35458 20.1918C4.35458 20.2233 4.29043 20.7271 4.35458 20.6641C4.29043 20.8846 4.29043 21.168 4.25836 21.3884C4.25836 21.3884 4.25836 20.8531 4.29043 20.7901C4.16215 20.9475 4.25836 21.5459 4.22629 21.6088C4.06594 22.8055 3.80938 24.0651 4.22629 25.2302C4.77149 26.8362 6.11846 28.1588 7.5937 29.009C8.3634 29.4814 9.38966 30.0167 10.3518 29.9537C11.4742 29.8907 12.5646 28.9775 13.3985 28.3162C15.8358 26.3009 18.0487 23.4668 18.4656 20.2548C18.4977 20.0343 18.6581 18.9322 18.2732 18.9007C17.9204 18.8692 17.6639 19.6249 17.5356 19.8139C16.5735 21.3569 15.451 22.8055 14.2002 24.128C12.9174 25.5136 11.3139 26.9937 9.35758 27.4345C9.10102 27.4975 8.81239 27.529 8.52375 27.529C8.1389 27.4975 7.78613 27.403 7.49749 27.1196C7.33714 26.9622 7.17679 26.4268 6.98436 26.3324C6.98436 26.1749 6.95229 26.0175 6.92022 25.923L6.82401 25.734C6.79194 24.7893 6.82401 23.9076 6.98436 22.9314V22.8999C6.98436 22.8684 7.01643 22.8684 7.01643 22.8369ZM12.6609 7.43825C11.4101 9.45362 10.3518 11.532 9.29344 13.6733C8.6841 14.9329 8.07476 16.224 7.5937 17.5781C8.26719 15.4682 9.06895 13.4529 10.0311 11.4375C11.1856 9.01276 12.725 6.65099 14.553 4.6986C13.8154 5.58033 13.174 6.58801 12.6609 7.43825ZM15.9641 3.97433C15.5151 4.41519 15.0982 4.91903 14.7134 5.39138C15.3227 4.60413 15.9641 3.81688 16.7659 3.18707C16.4773 3.43899 16.1886 3.75389 15.9641 3.97433ZM19.2353 4.22625C19.2995 4.03731 19.3636 3.81688 19.3957 3.56495C19.3315 3.84837 19.2033 4.13178 19.2033 4.35221C19.2353 4.28923 19.2353 4.25774 19.2353 4.22625Z" fill="white"/>
<path d="M34.7582 17.5151C34.7582 17.5151 34.7903 17.5466 34.7582 17.4836C34.5979 17.2632 34.3734 17.4206 34.1489 17.4836C33.2188 17.6726 32.2567 17.893 31.2946 18.0504C31.6474 16.9168 32.0002 15.7202 32.1284 14.555C32.1926 14.1142 32.2247 13.6418 32.1284 13.201C32.0643 12.9175 31.9681 12.6341 31.8077 12.3822C31.8077 12.3822 31.4229 11.9099 31.5191 12.1618L31.487 12.1303L31.3587 11.8784L31.487 12.0043C31.5191 11.8154 30.9739 11.469 30.9739 11.469C30.1721 10.6817 29.0817 10.0834 27.9913 10.6817C27.3179 11.0596 26.7727 11.6894 26.3237 12.3192C26.1633 12.5397 26.003 12.7916 25.8747 13.0435C25.7464 13.2954 25.554 14.1142 25.3616 14.2401C25.2012 14.3661 24.7201 14.3976 24.4956 14.5235C24.1749 14.6495 23.8863 14.807 23.6297 14.9959C23.0204 15.3738 22.5393 15.9091 22.0904 16.4444C21.3207 17.4521 20.9358 18.5858 20.3906 19.5935C19.3644 21.5144 20.4868 24.0336 22.379 24.9468C22.9883 25.2302 23.6939 25.3562 24.3353 25.2932C25.0088 25.1987 25.6502 24.8523 26.1633 24.4744C26.6444 24.128 27.7027 23.4982 27.8951 22.9629C27.8951 22.9314 27.831 22.9629 27.7348 23.0574L28.6648 21.9867C28.6969 22.0182 28.4403 22.3331 28.4403 22.3331C28.6648 22.4276 29.8194 20.7586 29.9476 20.6326C30.1721 20.2548 30.3966 19.8454 30.6532 19.4675C30.8777 19.1841 30.8135 19.2156 31.1343 19.0896C31.1022 19.1211 31.5191 18.9951 31.5832 18.9951C31.936 18.9322 35.6883 18.6802 34.7582 17.5151ZM23.6618 23.8761H23.6297C20.9679 24.254 24.0467 18.7117 24.1108 18.3968L23.9184 18.6802C24.3994 17.7355 24.8484 16.9798 25.0729 16.7279C25.4257 18.3024 27.1575 18.9007 28.5686 19.0896C27.6386 20.916 25.9068 23.4668 23.6618 23.8761ZM29.9797 15.1533C29.7552 16.0351 29.5628 17.2002 29.0817 17.9875C28.9214 18.3024 29.0176 18.2079 28.6969 18.2709C28.5045 18.3339 28.0876 18.2709 27.8951 18.2394C27.5424 18.2079 27.1254 18.1449 26.8689 17.9245C26.4199 17.5466 26.484 16.9483 26.5482 16.413C26.6123 15.8776 26.7727 15.3738 26.9651 14.8699C27.0613 14.681 27.6706 13.6733 27.5744 13.4844C27.5424 13.3899 27.1896 13.9567 27.1575 13.9882C27.3499 13.6418 27.5424 13.4529 27.7027 13.2324C27.6706 13.2324 27.7027 13.201 27.7348 13.138V13.1695L27.7668 13.1065C27.7668 13.1065 27.7668 13.075 27.7989 13.075C28.28 12.4452 29.4666 11.0281 30.108 12.0043C30.5891 12.8231 30.1401 14.3661 29.9797 15.1533ZM27.7668 13.1065L27.7989 13.075C27.7989 13.1065 27.7668 13.1065 27.7668 13.1065Z" fill="white"/>
<path d="M51.487 17.6726V17.6411C51.2946 16.6019 49.8514 18.3339 49.659 18.4913C48.729 19.499 47.8631 20.6011 47.0292 21.7033C46.1954 22.8369 45.3936 23.9706 44.5277 25.1042C44.1108 25.6711 43.6939 26.2064 43.2128 26.7102C43.0525 26.8992 42.6676 27.4345 42.379 27.4345C41.2565 27.4345 42.1224 22.9944 42.2507 22.3016C42.4431 21.0735 42.5393 19.436 43.3411 18.4598C43.5335 18.2079 45.7143 15.4682 45.7143 15.4682C45.6502 15.4368 45.3936 15.7517 45.2333 15.9406L46.6123 14.1142L46.7085 13.9882L46.9651 13.6418C46.9972 13.6733 46.9651 13.7363 46.933 13.7993L47.2217 13.4844L48.0555 12.4137C48.6648 11.5635 49.2421 10.6502 49.7873 9.76852C50.6532 8.31997 51.8398 6.24162 51.1984 4.47817C50.7173 3.18707 48.9535 2.93515 47.7669 3.37601C46.9009 3.69091 46.1633 4.35221 45.554 5.04499C45.2333 5.45437 44.9126 5.89523 44.6239 6.36758C44.5277 6.49354 44.1108 7.50123 44.0146 7.62719H44.0467C43.8542 7.97358 43.6618 8.31997 43.5335 8.66636C43.5977 8.41444 43.758 7.9106 43.8863 7.81613C43.6298 8.00507 43.4053 8.91829 43.3411 9.01275C42.1224 11.6264 41.0641 14.2716 40.2944 17.0428C39.4285 16.0666 38.0495 14.3976 36.5422 14.9959C35.2914 15.4997 34.3614 16.7908 33.7199 17.9245C33.1427 18.9322 32.9823 19.9713 32.5654 20.9475C31.8278 22.6165 31.475 26.0489 33.9765 26.5528C34.7462 26.7102 35.4518 26.2379 36.0611 25.8285C37.1515 25.0413 38.1778 24.128 39.1399 23.1833C38.9795 24.8523 38.6267 27.3715 40.0058 28.6941C41.7055 30.3946 43.4053 28.0958 44.4315 26.8362C45.7464 25.1987 46.7727 23.3723 48.0876 21.7978C48.729 21.042 49.3704 20.2862 50.0439 19.5935C50.557 19.0896 51.5833 18.4598 51.487 17.6726ZM39.6851 19.7509C39.653 19.8454 39.653 19.9084 39.653 19.9084C39.5247 20.6641 39.5247 21.3254 38.9795 21.8608C38.4985 22.3646 37.9853 22.8369 37.4722 23.3093C36.9911 23.7502 35.8366 25.0413 35.099 24.9783C34.201 24.8838 34.8745 22.8684 35.3235 21.6403C34.8424 22.8999 34.0727 24.9468 35.1311 25.0098C35.4197 25.0413 35.9007 24.7893 36.3177 24.4429C35.9328 24.7893 35.2914 25.2617 34.9066 25.0728C34.1689 24.7578 34.8103 22.9629 34.9386 22.4591C35.3555 21.0105 35.9649 19.625 36.6704 18.3024C37.0232 17.6411 37.5363 16.5704 38.2098 16.5074L38.0495 16.6019C38.0815 16.5704 38.1136 16.5704 38.1457 16.5704C38.3702 16.5074 38.5947 16.6649 38.755 16.7908C39.1719 17.0742 39.4285 17.6096 39.7171 18.0189C40.0378 18.5228 39.8134 19.0581 39.6851 19.625V19.7509ZM44.8484 12.4767C44.8484 12.4452 44.8484 12.3822 44.8805 12.3507V12.3192C44.9126 12.2248 44.9446 12.1933 44.9446 12.1933V12.1618C45.6823 10.1464 46.484 8.13103 47.6386 6.3046C47.9272 5.83225 48.761 4.3837 49.4987 4.79307C49.7873 4.95052 49.8514 5.35989 49.8514 5.64331C49.9797 7.53272 48.4403 9.76852 47.4782 11.28C46.3557 13.0435 45.105 14.7755 43.7901 16.3815L44.4957 15.6572L45.1371 14.8699L43.5015 16.9483L43.277 17.2317L43.1487 17.3577C43.1808 17.1687 43.3411 16.9798 43.5015 16.7593C43.4373 16.8223 43.3732 16.8853 43.3411 16.9483C43.758 15.5942 44.207 14.2401 44.6881 12.886C44.656 12.9175 44.6881 12.8546 44.7201 12.7286L44.8164 12.5711C44.8164 12.5397 44.8164 12.5082 44.8484 12.4767ZM42.1545 15.0589C42.0904 15.2163 41.8979 15.9406 41.8017 16.0351C41.8017 16.0666 41.7697 16.098 41.7376 16.098C41.9942 15.7831 41.8338 15.3738 41.9621 14.9959C42.0262 14.807 42.3469 14.4606 42.4111 14.2086C42.4111 14.4606 42.2507 14.9014 42.1545 15.0589ZM37.0553 23.7817C37.857 23.0889 38.6267 22.3646 39.3644 21.6088C39.3002 22.0182 38.306 22.711 37.9533 23.0259C37.5363 23.4353 37.0553 23.8446 36.5742 24.2225H36.5422L37.0553 23.7817ZM42.7318 12.1933C42.6035 12.5711 42.4431 12.9175 42.2507 13.2639C42.4111 12.7916 42.5073 12.3192 42.7318 11.8784C42.9242 11.532 43.1487 11.0911 43.309 10.6817C43.1487 11.1856 42.8921 11.7209 42.7318 12.1933ZM44.8164 12.5711L44.6881 12.886C44.6881 12.8546 44.7201 12.7916 44.7201 12.7286L44.8164 12.5711ZM37.8891 16.7279C37.7608 16.8223 37.6646 16.9483 37.6326 16.9483C37.6967 16.9483 37.7929 16.8223 37.8891 16.7279ZM38.7871 16.6649C38.8512 16.6964 38.9154 16.7279 38.9795 16.7908L38.7871 16.6649ZM45.1371 16.098C45.1371 16.0666 45.1691 16.0351 45.2012 16.0036C45.1691 16.0666 45.1371 16.098 45.1371 16.098ZM45.2012 16.0036L45.2333 15.9406C45.2333 15.9721 45.2012 16.0036 45.2012 16.0036Z" fill="white"/>
<path d="M61.4154 17.5781C61.4154 17.6096 61.4154 17.6096 61.3833 17.5781V17.5466C60.8702 16.6964 60.1967 17.8615 59.9081 18.2709C59.3629 18.9951 58.8497 19.6879 58.2725 20.3492C57.7914 20.916 57.2783 21.4829 56.8934 22.0812C56.8934 22.1442 56.8293 22.3016 56.8293 22.3016C56.701 22.4906 56.5086 22.648 56.3482 22.8369C56.0596 23.1204 55.771 23.4353 55.4503 23.7187C54.9692 24.1595 52.2753 26.6473 51.9225 25.0413C51.7301 24.254 51.9866 23.2778 52.147 22.522C52.2432 22.1127 52.3394 21.7348 52.4036 21.3254C52.4677 21.0105 52.3715 20.6956 52.5318 20.3807C52.6281 20.1918 52.6601 20.2233 52.8846 20.1603L53.4298 19.9713C53.7826 19.8454 54.1354 19.7194 54.4561 19.5305C54.9371 19.2471 55.3861 18.9007 55.803 18.5543C56.7972 17.7355 57.8556 16.7593 58.2725 15.5312C58.497 14.8384 58.529 14.0827 58.0801 13.4844C57.6631 12.949 56.9576 12.6656 56.3162 12.5397C54.5844 12.2248 53.2695 13.201 52.2753 14.492C51.0566 15.9721 50.1907 17.7985 49.7738 19.6564C49.5493 20.5697 49.421 21.4829 49.2606 22.4276C49.1003 23.3723 49.0041 24.254 49.5172 25.1357C49.4851 24.8208 49.421 24.5374 49.421 24.254C49.421 24.0966 49.4851 23.9391 49.4851 23.8131C49.4851 23.7502 49.421 23.5612 49.421 23.4668C49.421 23.1833 49.4851 22.9629 49.5493 22.6795C49.5813 22.3961 49.5493 22.1127 49.5813 21.8293C49.6134 21.5144 49.7417 21.2624 49.87 20.979C49.9662 20.7271 49.9983 20.5067 50.0945 20.2548C50.1907 20.0343 50.2548 19.7824 50.351 19.5305C50.3831 19.373 50.5435 19.1841 50.6397 18.9951C50.5435 19.2786 50.351 19.5305 50.2869 19.7824C50.1907 20.1603 50.2548 20.5697 50.2228 20.9475C50.1586 21.3569 50.0303 21.7663 49.9662 22.2071C49.9021 22.6165 49.7096 22.9944 49.6455 23.4038C49.5813 23.7817 49.4531 24.0651 49.4851 24.4429C49.4851 24.6634 49.5172 24.8838 49.5493 25.0728C49.5813 25.3247 49.7417 25.4821 49.9021 25.6711C50.4473 26.3009 51.1849 26.8047 52.0187 27.0251C52.596 27.1826 53.1091 27.1511 53.6543 26.8677C54.424 26.4583 55.0975 25.8285 55.6748 25.2302C56.22 24.6319 56.6369 23.9706 57.1179 23.3408C57.5669 22.774 58.1121 22.2386 58.5611 21.6718L60.2929 19.4675L61.2871 18.1764C61.4475 17.9875 61.5437 17.83 61.4154 17.5781ZM53.4619 17.9245C53.494 17.8615 53.494 17.83 53.494 17.83C53.975 16.8223 54.3278 15.7517 55.0013 14.7755L55.5785 14.0197C55.7068 13.8622 55.9313 13.5788 56.1558 13.5159C56.6369 13.4214 56.7652 14.2401 56.7331 14.555L56.6048 15.2163C56.5727 15.4053 56.6369 15.5312 56.6048 15.6887C56.5407 15.8776 56.3803 15.9721 56.2841 16.1295L55.7389 16.8223C55.0013 17.6726 54.0712 18.3968 53.045 18.9322C53.2053 18.5858 53.3015 18.2394 53.4619 17.9245Z" fill="white"/>
<path d="M78.7831 8.35146C78.6548 7.34378 77.0834 6.58801 76.2175 7.18632C75.5119 7.65868 74.8705 8.94977 74.3574 9.70554L71.2145 14.3661C70.7334 15.0904 70.2523 15.8146 69.7392 16.5074C69.6109 16.7279 68.3922 18.5858 68.3922 18.5858C68.5205 18.6173 68.8092 18.1764 68.8733 18.1134C68.0074 19.31 66.8849 20.5697 65.8266 21.7663C65.4738 22.2071 63.3572 24.9468 62.5875 24.6004C62.3309 24.4744 62.2668 24.0651 62.2347 23.8446C61.9781 22.1757 62.6195 20.5067 62.812 18.9007L62.6837 19.2156L62.8761 18.4283C62.8761 18.5228 62.844 18.6173 62.844 18.7117L62.8761 18.5228L62.7799 19.4675C63.2289 17.5781 63.8703 15.7517 64.6079 13.9882C64.8003 13.5473 66.6604 8.98127 67.0453 8.57189C66.9811 8.60338 66.8849 8.72934 66.7887 8.8553C67.3981 7.75315 68.0395 6.71397 68.7771 5.70629C68.6167 5.95821 68.3281 6.43056 68.3281 6.43056C68.4564 6.46205 69.7392 4.73009 69.7392 4.54115C69.7392 4.50966 69.643 4.57264 69.5468 4.63562C69.8675 4.22625 70.092 4.00582 69.8354 3.31303C69.4506 2.52578 68.3281 1.54958 67.3981 2.02193C67.2056 2.14789 67.0774 2.30535 66.9491 2.4628C66.2756 3.31303 65.7304 4.41519 65.2814 5.35989C65.121 5.73778 64.9928 5.80076 64.7362 6.08417C64.3193 6.55652 64.0948 7.18632 63.8061 7.72166C63.2289 8.8553 62.7799 10.0519 62.2668 11.2171C61.7536 12.2877 61.3367 13.3899 60.9839 14.5235C60.8236 14.9644 60.6953 15.4053 60.567 15.8461C60.4387 16.287 59.9897 17.1057 60.0539 17.5781L60.2463 17.1687C60.086 17.704 59.9577 18.2709 59.8294 18.8377C59.7973 18.8377 59.8615 18.4283 59.8615 18.4283C59.7332 18.4283 59.4446 19.8139 59.3804 20.0028C59.2521 20.6641 59.1559 21.3254 59.0918 22.0182C59.0597 22.7425 59.0918 23.4038 59.4446 24.0651C60.118 25.2302 61.3367 26.3638 62.6516 26.7732C62.8761 26.8362 63.1327 26.8992 63.3572 26.8677C63.5817 26.8362 63.8061 26.7417 63.9665 26.5843C64.0948 26.5213 64.6079 25.986 64.2551 26.2379L64.8645 25.6711C64.8645 25.6711 64.5758 26.0175 64.4796 26.0804C64.64 26.0175 64.9928 25.5451 64.9928 25.5451C66.0511 24.4115 67.1094 23.3093 68.0715 22.0812C69.0657 20.7586 69.9637 19.31 70.8617 17.893C70.6051 18.6488 70.541 19.4045 70.3165 20.1603C70.1882 20.5697 70.0599 20.979 69.9637 21.3884C69.8996 21.5458 69.8354 22.3016 69.8996 22.2386C69.8996 22.3331 69.8996 22.3961 69.8675 22.4591C69.8675 22.4276 69.8675 22.3961 69.8354 22.3646C69.7392 22.3961 69.7392 23.3408 69.7071 23.4982C69.5788 23.9391 69.3864 24.3485 69.3223 24.8523C69.1619 26.1749 69.2581 27.7179 70.092 28.8516C70.6051 29.5444 71.3748 29.9222 72.2407 29.9852C73.1708 30.0167 73.6839 29.5129 74.1649 28.8201C74.4857 28.3477 74.7743 27.9384 74.9667 27.403C75.1271 26.9622 75.4478 26.1119 75.2553 25.6711C75.1271 25.3877 75.0629 25.3562 74.8064 25.4821C74.4536 25.6081 74.0367 26.3638 73.8122 26.6473C73.4915 26.9937 72.8501 27.8754 72.3049 27.9384C71.9841 27.9698 72.0483 27.9069 71.9841 27.529C71.9521 27.3086 71.9521 25.8285 71.9841 25.797C71.8879 25.923 71.8559 26.0489 71.8238 26.1749C71.9521 25.1357 72.4011 23.8761 72.7218 22.774C73.1066 21.4829 73.3952 20.1918 73.748 18.9007C74.1329 17.5781 74.646 16.2555 75.1912 14.9959C75.3195 14.7125 76.7627 11.595 76.9872 11.3115C76.7627 11.469 75.6081 13.8622 75.2233 14.6495C75.993 12.8546 76.8909 11.1226 78.0134 9.48511C78.0455 9.48511 77.6927 10.0204 77.7569 10.0204C77.8531 10.0834 78.6227 8.91828 78.5586 8.8868C78.5265 8.8868 78.4945 8.88679 78.4624 8.91828C78.6228 8.76083 78.8152 8.66636 78.7831 8.35146ZM70.4127 23.3093C70.1241 24.6004 69.8033 26.3324 70.0599 27.6235C69.7713 26.1749 69.8675 24.5374 70.1241 23.0889C70.3165 21.8922 70.6692 20.7901 71.0862 19.6879C70.7334 20.9475 70.7013 22.0497 70.4127 23.3093ZM65.0569 11.343C65.9549 9.23319 67.2377 7.31229 68.5847 5.48585C67.2377 7.37527 66.1473 9.42213 65.1852 11.532C64.4476 13.2009 63.7741 14.807 63.293 16.4759C63.3892 16.0351 63.4854 15.5942 63.6458 15.1533C64.0306 13.8622 64.5438 12.6026 65.0569 11.343ZM64.3193 14.3976C64.8965 12.8546 65.57 11.3115 66.3397 9.80001C65.6342 11.2486 64.6721 13.5159 64.3193 14.3976ZM74.4856 16.4759C74.3894 16.7593 74.2612 17.0428 74.1329 17.2947L74.7101 15.8461L74.4856 16.4759Z" fill="white"/>
<path d="M95.2521 17.5466C95.0597 17.5781 93.392 18.0819 93.4882 18.3339C93.4882 18.3653 93.5524 18.3968 93.5844 18.3968C93.0392 18.6173 92.3337 18.6488 91.7885 18.9951C91.1791 19.4045 90.6019 19.8139 89.9605 20.1603C90.5377 19.1841 91.0829 18.1449 91.4357 17.1057C91.564 16.7279 92.3016 14.3976 91.8205 14.1457C91.7564 14.1142 91.7243 14.3976 91.6923 14.555C91.7243 13.2954 91.3074 11.3745 89.5756 11.2486C88.5173 11.1856 87.5231 12.4767 86.9458 13.1695C85.6309 14.807 84.4764 16.5704 83.3218 18.2709C83.0011 18.7432 79.7941 23.8446 79.7941 23.8446C79.7941 23.8446 80.0186 23.5297 80.3072 23.1204C80.0186 23.5927 79.7299 24.0966 79.4734 24.6004C79.6017 24.128 80.8203 20.3807 81.59 18.1764C81.6542 18.0819 81.6862 17.956 81.7183 17.8615L81.9107 17.3262V17.3577C82.1994 16.5074 82.488 15.6572 82.7446 14.7755C82.7446 14.8699 82.6163 15.3423 82.6484 15.3423C82.8408 15.3738 83.0974 14.0512 82.9691 14.0512L82.8729 14.2086C82.9691 13.7363 83.1294 13.5159 82.8408 12.9805C82.6163 12.5082 82.2314 12.0673 81.6862 11.9413C80.6279 11.6579 80.1148 12.5082 80.1789 13.3269C80.1789 13.4529 80.3393 13.5159 80.3393 13.6418C80.3393 13.7993 80.1789 14.0827 80.1469 14.2086C79.9224 14.8699 79.762 15.4997 79.5054 16.1295C79.3772 16.4759 78.1906 19.7509 78.1906 19.7509C78.2547 19.7194 78.2868 19.6564 78.3188 19.5935C78.2226 19.8769 78.1264 20.1603 77.9981 20.4437C77.9661 20.4122 78.0943 20.1918 78.0302 20.1918C77.7095 20.1288 76.9077 22.774 76.8436 23.0259C76.7153 23.6242 76.555 24.191 76.3305 24.7893C76.2342 25.1042 76.106 25.4191 76.0098 25.7655C76.0098 25.797 75.8494 26.5528 76.0098 26.2694C75.9777 26.3638 75.9456 26.4268 75.9456 26.4898C75.9456 26.4583 75.9135 26.4268 75.9135 26.3953C75.8173 26.4268 75.7532 27.0881 75.7532 27.1196C75.6249 27.466 75.4646 27.7179 75.3042 28.0328C74.8873 29.0405 74.6628 30.1427 74.5024 31.2133C74.2459 32.8508 73.4762 35.3071 74.31 36.8186C74.5986 37.3539 75.4966 38.4561 76.2022 37.7948C76.5229 37.4799 76.5229 36.7556 76.555 36.3777C76.7474 35.3386 76.9077 34.2679 77.1322 33.2287L77.4209 31.7802C77.4529 31.7172 77.7095 30.552 77.6133 30.5835C77.5491 30.6465 77.485 30.741 77.4529 30.8355C77.6133 30.3316 77.8378 29.8593 78.0302 29.3239C78.2868 28.5682 78.4792 27.8439 78.864 27.1511C79.313 26.4583 79.6979 25.7026 80.1148 25.0098C80.4355 24.4429 80.7241 23.7187 81.0769 23.2463C81.1731 23.1204 81.3655 23.0574 81.5259 22.9314C81.8466 22.585 82.0711 22.1127 82.3277 21.7348C82.8087 20.979 83.2256 20.2233 83.7388 19.5305C83.9633 19.2156 86.5289 15.6887 86.7855 15.4682C86.7213 15.4997 86.6572 15.5312 86.593 15.5942C86.8496 15.2793 87.1382 14.9959 87.3948 14.744C87.4269 14.7755 87.2024 14.9644 87.2345 14.9959C87.2986 15.0274 88.7738 13.8937 89.0304 13.8622C89.736 13.7363 89.4794 15.0589 89.3832 15.4053C89.2228 16.1295 88.8059 16.8223 88.4531 17.4521C88.2607 17.7985 88.0683 18.1134 87.9079 18.4598C87.8759 18.4913 87.6193 19.0896 87.7155 19.0266L87.5231 19.31C87.5872 19.2156 87.6193 19.0896 87.6193 19.0896C87.491 19.0896 87.3307 19.6249 87.2986 19.7194C87.1062 20.0343 86.8496 20.2862 86.593 20.5382C85.9196 21.2939 85.3102 22.0812 84.6367 22.8055C84.1236 23.3408 83.4501 24.2855 82.6804 24.4744C82.1352 24.6004 81.7183 24.317 82.007 25.1672C82.1994 25.7655 82.9049 27.1511 83.6746 27.1511C84.3802 27.1511 85.2461 26.1119 85.663 25.6711C86.1441 25.1357 86.6893 24.6319 87.2024 24.0651C87.3307 23.8761 88.8059 22.1442 89.0304 22.0497H88.9983C89.319 21.8922 89.6397 22.0182 90.0887 21.7033C90.3453 21.5144 90.4736 21.3254 90.7622 21.1365C90.9867 21.0105 91.0829 20.8531 91.1791 20.7586C91.1791 20.7586 91.1791 20.7901 91.2112 20.7901C91.5319 20.4752 91.9809 20.5697 92.3978 20.2862C92.9109 19.9398 93.5524 19.499 94.0014 19.0896C94.5786 18.5858 95.3804 18.3024 95.6369 17.4521C95.5087 17.4836 95.3483 17.4836 95.2521 17.5466ZM78.832 20.7586V20.7901C78.7999 21.1995 78.5113 21.6718 78.3509 22.0497C78.1264 22.648 77.934 23.2463 77.7416 23.8446C77.3247 25.1042 76.8436 26.3638 76.3305 27.5605C75.9135 28.5682 75.5287 29.6703 75.2401 30.7725C75.5928 29.2295 76.1701 27.7179 76.6191 26.2694C77.036 24.9468 77.6774 23.6557 78.1906 22.3646C78.2547 22.2071 78.864 20.9475 78.7999 20.6956C78.832 20.7271 78.832 20.7586 78.832 20.7586ZM80.2431 21.7033C80.1469 22.0812 80.0506 22.4276 79.9224 22.7425C80.0186 22.4276 80.1148 22.0497 80.2431 21.7033ZM84.6367 16.5389L84.0274 17.4206C84.2198 17.1372 84.4122 16.8223 84.6367 16.5389ZM89.8642 20.3492C89.8963 20.2548 90.0567 20.2233 90.1529 20.1603L89.8642 20.3492ZM82.1994 16.6649C82.1673 16.6964 82.1352 16.7908 82.1032 16.9168L82.1994 16.6649ZM83.6426 17.9875V17.956C83.6746 17.9245 83.6746 17.9245 83.6746 17.893C83.7067 17.8615 83.6746 17.9245 83.6426 17.9875ZM81.9749 17.2002C81.9749 17.2632 81.9428 17.2947 81.9107 17.3262L81.9749 17.2002ZM75.1759 31.0559C75.1759 31.0244 75.1759 31.0244 75.208 30.9929C75.208 31.0244 75.208 31.0244 75.1759 31.0559ZM80.4355 21.3254C80.4355 21.3569 80.4034 21.3569 80.4034 21.3569L80.4355 21.3254Z" fill="white"/>
<path d="M105.993 17.956C105.897 17.5151 105.64 17.4521 105.319 17.5781C104.71 17.8615 104.101 18.4913 103.523 18.8692C102.208 19.6879 100.894 20.3492 99.4824 21.042C99.4824 21.0105 99.4503 20.9475 99.4183 20.8531C99.4503 21.0105 99.4183 21.0735 99.3862 21.105C99.0655 19.7509 98.7448 18.3968 98.4882 17.0113C98.6165 17.6096 98.9051 18.6173 99.1296 19.4675C98.841 18.1449 98.4882 16.5074 98.5203 16.5074C98.4561 16.5389 98.4562 16.6019 98.4562 16.6649C98.392 16.287 98.2958 15.8146 98.3599 15.4053C98.392 14.9329 98.6486 14.5235 98.8089 14.0827C98.7769 14.3031 98.7127 14.5865 98.7127 14.5865C98.9051 14.618 99.0334 13.4529 99.0334 13.3269C99.0013 13.138 98.5844 12.5397 98.5844 12.6971C97.7185 11.9099 96.0188 13.6418 95.7622 14.3976C95.5698 14.9014 95.5698 15.4368 95.6019 15.9721C95.6339 16.5074 95.7943 16.9798 95.9546 17.4836C96.0509 17.8615 95.9226 18.1134 95.9546 18.5228C96.0188 19.1526 96.2433 19.7824 96.3716 20.3807C96.4998 20.8531 96.9168 21.7978 96.8205 22.2386C96.7564 22.6795 95.7943 23.0574 95.3774 23.3093C94.8322 23.6557 94.287 24.0651 93.7418 24.4744C92.7797 25.1987 91.7534 26.1119 91.3686 27.2771C91.3044 27.4345 91.0799 28.1273 91.3044 28.2533C91.3365 28.2847 91.4327 27.7494 91.4648 27.6864C91.0478 29.7648 93.1324 30.7725 95.0887 30.804C97.3016 30.8669 98.841 29.6073 99.6107 27.6549C99.9314 26.8047 100.028 25.923 99.9955 25.0413C99.9955 24.4429 99.9314 23.8761 99.8352 23.3093C99.771 22.8055 99.7069 22.8369 100.06 22.5535C100.316 22.3646 100.701 22.2386 100.958 22.1127C101.984 21.5773 102.914 20.9475 103.844 20.2862C104.517 19.8139 106.121 18.9951 105.993 17.9875V17.956ZM93.0362 28.7886C92.2024 28.5367 93.0362 27.2456 93.3249 26.8362C93.8059 26.2064 94.5115 25.734 95.1529 25.2932L96.115 24.6634C96.2112 24.6004 96.8205 24.128 96.6281 24.191L97.013 23.9706L96.7885 24.1595C96.8526 24.128 96.9488 24.0966 97.013 24.0336C97.045 24.7893 97.045 25.5451 96.8205 26.3009C96.7885 26.4268 96.1791 27.6864 95.9226 27.9384L96.0829 27.8124C95.7943 28.1588 95.4736 28.4422 95.0887 28.6626C95.0887 28.6311 95.3774 28.4422 95.3453 28.4107L94.4473 28.7571C93.9983 28.8516 93.4852 28.946 93.0362 28.7886ZM97.0771 29.7018C96.2433 30.0482 95.4415 30.2057 94.5756 30.2371C96.1471 30.1427 97.7827 29.3869 98.7127 28.0958C98.3599 28.7886 97.911 29.3239 97.0771 29.7018ZM99.4183 20.7586C99.3862 20.5382 99.3221 20.2233 99.2258 19.8769C99.29 20.2233 99.3541 20.5697 99.4183 20.7586ZM99.8352 24.0336C99.8031 24.0021 99.8031 23.9391 99.8031 23.8761C99.8031 23.9391 99.8352 24.0021 99.8352 24.0336Z" fill="white"/>
</g>
<defs>
<filter id="filter0_d_2043_12158" x="0" y="0" width="110" height="46" filterUnits="userSpaceOnUse" color-interpolation-filters="sRGB">
<feFlood flood-opacity="0" result="BackgroundImageFix"/>
<feColorMatrix in="SourceAlpha" type="matrix" values="0 0 0 0 0 0 0 0 0 0 0 0 0 0 0 0 0 0 127 0" result="hardAlpha"/>
<feOffset dy="4"/>
<feGaussianBlur stdDeviation="2"/>
<feComposite in2="hardAlpha" operator="out"/>
<feColorMatrix type="matrix" values="0 0 0 0 0 0 0 0 0 0 0 0 0 0 0 0 0 0 0.25 0"/>
<feBlend mode="normal" in2="BackgroundImageFix" result="effect1_dropShadow_2043_12158"/>
<feBlend mode="normal" in="SourceGraphic" in2="effect1_dropShadow_2043_12158" result="shape"/>
</filter>
</defs>
</svg>
