<svg width="301" height="138" viewBox="0 0 301 138" fill="none" xmlns="http://www.w3.org/2000/svg">
<g clip-path="url(#clip0_278_40636)">
<path d="M63.9465 15.3347C63.6847 15.3347 63.4338 15.1882 63.3139 14.9387C62.9376 14.163 62.7903 13.3873 62.8667 12.6388C63.2648 8.8092 69.2363 6.89984 73.599 5.50579C78.2016 4.0358 83.077 3.18961 88.0832 2.99433C88.454 2.96721 88.7976 3.2764 88.8139 3.66695C88.8303 4.05207 88.5249 4.37753 88.1377 4.39381C83.2569 4.58366 78.5125 5.40273 74.0298 6.83475C70.4905 7.96843 64.5627 9.86152 64.2628 12.7852C64.2137 13.2788 64.3173 13.7996 64.5791 14.342C64.7481 14.6892 64.6009 15.1068 64.2519 15.275C64.1537 15.3238 64.0501 15.3455 63.9465 15.3455V15.3347Z" fill="#408F95"/>
<path d="M142.601 19.6144C142.601 19.6144 142.546 19.6144 142.519 19.6144C141.39 19.4842 140.261 19.251 139.165 18.9147C137.709 18.4699 136.624 17.9274 136.166 17.6996L136.013 17.6237C131.045 15.2261 125.919 13.013 120.782 11.0548C116.054 9.25395 112.313 7.82736 107.284 6.57977C101.978 5.26708 96.4813 4.45886 90.9516 4.18764C90.5644 4.16594 90.2645 3.84049 90.2863 3.45536C90.3081 3.07023 90.6298 2.7719 91.0225 2.79359C96.6449 3.07023 102.229 3.8893 107.628 5.22911C112.743 6.4984 116.512 7.93584 121.289 9.75299C126.464 11.7274 131.628 13.9514 136.629 16.3652L136.798 16.4466C137.267 16.6798 138.243 17.168 139.585 17.5803C140.599 17.8895 141.641 18.1064 142.688 18.2258C143.075 18.2692 143.348 18.6163 143.304 18.996C143.266 19.354 142.961 19.6144 142.606 19.6144H142.601Z" fill="#408F95"/>
<path d="M76.9255 27.7075C76.8164 27.7075 76.7073 27.6804 76.6037 27.6316C75.3985 27.0078 73.5989 26.0531 71.892 25.0333C71.4393 24.7621 70.5941 24.2631 69.5034 23.5308C69.1707 23.3084 68.8108 23.0643 68.44 22.7931C67.1093 21.8492 65.8223 20.824 64.6062 19.75C64.5735 19.7175 64.5408 19.6849 64.5135 19.647C64.4535 19.571 64.3608 19.4571 64.2409 19.3161C63.0084 17.8298 61.8468 16.2839 62.3322 15.1773C62.4849 14.8248 62.8612 14.3962 63.7664 14.3474C64.1591 14.3203 64.4863 14.6186 64.5081 15.0038C64.5299 15.3889 64.2354 15.7198 63.8482 15.7415C63.7337 15.7469 63.6628 15.7632 63.6192 15.774C63.6192 16.0235 63.8755 16.6799 65.3261 18.4265C65.4352 18.5567 65.5224 18.6652 65.5879 18.7465C66.7549 19.7717 67.9873 20.7481 69.258 21.654C69.6234 21.9143 69.9669 22.1476 70.2887 22.37C71.3466 23.0806 72.1701 23.5687 72.6118 23.8345C74.2915 24.8326 76.0584 25.7764 77.2472 26.3894C77.5908 26.5684 77.7271 26.9861 77.5471 27.3332C77.4217 27.5719 77.1763 27.7129 76.9255 27.7129V27.7075Z" fill="#408F95"/>
<path d="M104.885 31.781C98.0247 31.781 91.437 31.0107 91.3552 30.9999C87.2161 30.4846 83.0388 29.7252 78.9487 28.7434C78.5724 28.6511 78.338 28.2769 78.4307 27.9026C78.5234 27.5283 78.8996 27.2951 79.2759 27.3873C83.3169 28.3582 87.4397 29.1068 91.5243 29.6113C91.6115 29.6221 100.888 30.707 108.806 30.2839C111.26 30.1537 113.752 29.8553 116.206 29.3889C117.302 29.1827 117.897 29.0363 120.389 28.4342L123.405 27.7019C124.392 27.4632 125.253 27.2462 126.017 27.0564C128.296 26.4868 129.802 26.1071 131.263 26.0041C133.428 25.8522 135.637 26.0366 137.818 26.5574C138.194 26.6441 138.429 27.0239 138.336 27.3981C138.249 27.7724 137.873 28.0057 137.491 27.9134C135.446 27.4307 133.384 27.2571 131.361 27.3981C130.02 27.4903 128.64 27.8375 126.361 28.4125C125.592 28.6078 124.725 28.8247 123.737 29.0634L120.722 29.7957C118.262 30.3924 117.602 30.5551 116.468 30.7666C113.954 31.2385 111.402 31.5477 108.882 31.6833C107.568 31.7539 106.221 31.781 104.885 31.781Z" fill="#408F95"/>
<path d="M144.809 19.6631C144.509 19.6631 144.231 19.4678 144.138 19.1695C144.024 18.8006 144.231 18.4101 144.602 18.2961C146.238 17.7971 154.767 15.2477 161.797 14.2171C165.227 13.7126 167.741 13.6638 170.478 14.0435C171.373 14.1682 172.267 14.3418 173.14 14.5534C173.516 14.6456 173.745 15.0253 173.652 15.3996C173.56 15.7738 173.183 16.0071 172.801 15.9094C171.978 15.7087 171.127 15.546 170.277 15.4267C167.681 15.0633 165.281 15.1121 161.993 15.5948C155.067 16.6146 146.625 19.1315 145.006 19.6305C144.935 19.6522 144.869 19.6631 144.798 19.6631H144.809Z" fill="#408F95"/>
<path d="M165.009 45.0493C164.959 45.0493 164.91 45.0493 164.861 45.033C161.72 44.3604 156.376 41.773 154.424 39.9884C152.738 38.7354 151.391 37.7427 150.246 36.8966C146.282 33.9729 144.64 32.7687 139.432 28.4075C139.138 28.158 139.1 27.7186 139.345 27.4257C139.596 27.1328 140.037 27.0948 140.332 27.3389C145.507 31.6675 147.138 32.8717 151.081 35.7737C152.237 36.6253 153.595 37.6234 155.296 38.8927C155.318 38.909 155.334 38.9253 155.356 38.9415C157.112 40.5688 162.244 43.0423 165.161 43.6661C165.543 43.7475 165.783 44.1163 165.701 44.496C165.63 44.8215 165.341 45.0493 165.014 45.0493H165.009Z" fill="#408F95"/>
<path d="M165.009 45.0493C164.823 45.0493 164.632 44.9734 164.496 44.8269C162.669 42.8904 160.324 39.6304 159.544 35.0957C159.31 33.7396 158.765 30.5664 160.046 26.9592C161.219 23.6667 163.264 21.7627 165.63 19.555C167.708 17.6185 170.069 15.9587 172.654 14.6135C172.998 14.4345 173.423 14.5647 173.603 14.9064C173.783 15.2481 173.652 15.6712 173.309 15.8502C170.838 17.1358 168.581 18.7251 166.596 20.5748C164.272 22.7391 162.435 24.4532 161.377 27.4257C160.215 30.6911 160.717 33.6148 160.935 34.8624C161.655 39.0554 163.831 42.0768 165.527 43.8722C165.794 44.1543 165.778 44.5937 165.494 44.8595C165.358 44.9842 165.183 45.0493 165.014 45.0493H165.009Z" fill="#408F95"/>
<path d="M155.209 23.2272C155.002 23.2272 154.8 23.1404 154.664 22.9668C154.418 22.6685 154.467 22.2291 154.767 21.985C155.961 21.0249 157.27 20.2058 158.655 19.5603C160.324 18.7792 162.097 18.2422 163.923 17.9602C164.305 17.9005 164.665 18.1609 164.725 18.546C164.785 18.9257 164.523 19.2837 164.136 19.3434C162.44 19.6037 160.799 20.1028 159.25 20.8296C157.968 21.4317 156.752 22.1857 155.645 23.0807C155.514 23.1838 155.362 23.238 155.203 23.238L155.209 23.2272Z" fill="#408F95"/>
<path d="M158.083 38.3882C157.936 38.3882 157.783 38.3393 157.652 38.2417C156.136 37.0755 153.442 34.564 152.482 30.8429C152.188 29.693 151.566 27.2954 152.651 24.8491C152.804 24.5073 152.984 24.171 153.186 23.8564C153.398 23.531 153.829 23.4387 154.156 23.6503C154.484 23.8618 154.576 24.2904 154.364 24.6158C154.2 24.8653 154.053 25.1366 153.933 25.4132C153.044 27.4202 153.562 29.4218 153.84 30.5012C154.696 33.8209 157.134 36.0882 158.508 37.1406C158.814 37.3738 158.874 37.8132 158.634 38.1224C158.497 38.3014 158.29 38.3936 158.077 38.3936L158.083 38.3882Z" fill="#408F95"/>
<path d="M88.8902 23.3951C88.743 23.3951 88.5958 23.3951 88.4431 23.3842C85.2528 23.2486 82.9951 21.719 81.9317 20.8185C81.6372 20.569 81.5991 20.1296 81.8499 19.8367C82.1008 19.5438 82.5425 19.5058 82.837 19.7554C83.764 20.5419 85.7327 21.8708 88.4976 21.9902C91.2734 22.1041 93.1602 20.9487 94.4091 20.1785C95.0907 19.7554 95.3525 19.5004 95.4398 19.3865C95.2325 19.1533 94.3382 18.7464 91.437 18.2311C88.8302 17.7701 86.0872 17.6562 83.2842 17.8948C82.897 17.9219 82.5589 17.6453 82.5261 17.2602C82.4934 16.8751 82.777 16.5387 83.1642 16.5062C86.0872 16.2567 88.9557 16.376 91.6824 16.8588C94.3491 17.3307 96.754 17.8786 96.8686 19.3214C96.9231 19.9778 96.405 20.5907 95.1453 21.3664C93.8965 22.1366 91.846 23.3951 88.8848 23.3951H88.8902Z" fill="#408F95"/>
<path d="M76.5546 24.4096C76.3092 24.4096 76.0692 24.2794 75.9383 24.0516C75.7475 23.7153 75.8729 23.2868 76.211 23.1024C78.3651 21.9144 80.1593 20.3251 81.5499 18.394C82.2861 17.3688 82.9023 16.2514 83.3713 15.0689C83.5131 14.7109 83.9221 14.5374 84.282 14.6784C84.642 14.8194 84.8165 15.2262 84.6747 15.5842C84.1566 16.8698 83.4913 18.0903 82.6896 19.2023C81.1791 21.3069 79.2267 23.0318 76.8927 24.3228C76.7836 24.3825 76.6691 24.4096 76.5546 24.4096Z" fill="#408F95"/>
<path d="M70.1032 10.5503C70.2068 9.94277 70.7849 9.53594 71.3902 9.63901C72.001 9.74207 72.41 10.317 72.3064 10.9191C72.2028 11.5267 71.6247 11.9335 71.0194 11.8304C70.4086 11.7274 69.9996 11.1524 70.1032 10.5503Z" fill="#408F95"/>
<path d="M101.569 36.8803C100.342 36.864 99.148 36.7664 97.9701 36.5874C96.3559 36.3433 94.7526 35.9419 93.2093 35.394C87.5378 33.387 84.4348 31.6567 79.2977 28.7927C78.9596 28.6028 78.8396 28.1797 79.0305 27.8434C79.2214 27.5071 79.6467 27.3878 79.9848 27.5776C85.231 30.5013 88.1213 32.1123 93.6837 34.0814C95.1453 34.5967 96.6558 34.9764 98.1828 35.2096C99.2953 35.3778 100.424 35.47 101.548 35.4863C102.829 35.4374 103.445 35.2639 103.723 35.1391C103.38 34.9059 102.502 34.4502 100.304 33.7613C99.9333 33.6474 99.7316 33.2514 99.8461 32.888C99.9606 32.5192 100.359 32.313 100.724 32.4324C104.258 33.5389 105.452 34.2983 105.289 35.3235C105.081 36.6037 103.064 36.8261 101.564 36.8857L101.569 36.8803Z" fill="#408F95"/>
<path d="M103.712 33.8315C103.276 33.8315 102.862 33.8098 102.469 33.7881C96.8357 33.441 92.2876 32.2476 92.0967 32.1934C89.9754 31.6292 87.8485 30.9404 85.7762 30.1484C85.4163 30.0074 85.2364 29.606 85.3727 29.248C85.5145 28.89 85.918 28.711 86.278 28.8466C88.3066 29.6222 90.3844 30.2949 92.4566 30.8481C92.6421 30.897 97.0539 32.0578 102.551 32.3941C103.816 32.47 105.179 32.5026 106.777 31.9384C107.644 31.6347 108.468 31.1899 109.22 30.6203C109.531 30.3871 109.967 30.4467 110.202 30.7559C110.436 31.0651 110.376 31.4991 110.066 31.7323C109.199 32.3886 108.25 32.8985 107.246 33.2511C105.943 33.7122 104.76 33.8315 103.707 33.8315H103.712Z" fill="#408F95"/>
<path d="M126.884 36.8798C125.052 36.8798 123.23 36.7008 121.425 36.3428C117.439 35.5455 113.589 33.8422 110.289 31.4176C109.978 31.1897 109.913 30.7504 110.142 30.4412C110.371 30.132 110.813 30.0669 111.124 30.2947C114.259 32.6001 117.913 34.2219 121.698 34.9759C124.544 35.5455 127.451 35.6377 130.341 35.2634C130.232 34.3304 129.916 32.676 129.043 31.4827C128.793 31.1409 128.378 30.5714 127.647 30.1103C127.457 29.9855 127.309 29.915 126.911 29.7198L126.633 29.5841C125.837 29.1882 125.193 28.8573 124.768 28.6349C124.424 28.4559 124.294 28.0328 124.474 27.6911C124.653 27.3493 125.079 27.2191 125.422 27.3981C125.842 27.6205 126.475 27.946 127.26 28.3311L127.533 28.4667C127.953 28.6729 128.144 28.7651 128.405 28.9332C129.36 29.5407 129.894 30.2676 130.178 30.6582C131.536 32.5024 131.765 35.079 131.803 35.8221C131.819 36.1801 131.563 36.4947 131.208 36.549C129.769 36.7714 128.324 36.8853 126.878 36.8853L126.884 36.8798Z" fill="#408F95"/>
<path d="M133.003 14.8521C131.972 14.8521 130.876 14.7816 129.654 14.6514C129.267 14.6081 128.989 14.2663 129.033 13.8812C129.076 13.4961 129.42 13.214 129.807 13.2628C130.985 13.3876 132.032 13.4527 133.014 13.4581C133.401 13.4581 133.712 13.7727 133.712 14.1578C133.712 14.543 133.395 14.8521 133.008 14.8521H133.003Z" fill="#408F95"/>
<path d="M133.624 6.927C133.553 6.927 133.477 6.91615 133.406 6.89445C132.621 6.63409 131.836 6.36829 131.05 6.09708C128.885 5.35395 126.644 4.5837 124.321 4.07381C114.21 2.02884 104.361 1.1501 95.0579 1.46471C94.6761 1.47556 94.3435 1.17723 94.3326 0.792099C94.3217 0.406972 94.6216 0.0815135 95.0088 0.0706649C104.416 -0.24937 114.379 0.634794 124.61 2.70688C127.026 3.23846 129.3 4.01957 131.503 4.77897C132.283 5.04476 133.063 5.31598 133.842 5.57092C134.213 5.69026 134.41 6.08623 134.29 6.44966C134.191 6.74257 133.919 6.93242 133.624 6.93242V6.927Z" fill="#408F95"/>
<path d="M80.061 5.2941C79.7938 5.2941 79.5375 5.14222 79.423 4.88728C79.2649 4.5347 79.423 4.12245 79.772 3.96515C81.5553 3.15692 83.404 2.46261 85.2745 1.89306C87.6903 1.15535 90.1825 0.618344 92.6911 0.292886C93.0783 0.244067 93.4273 0.509858 93.4764 0.894984C93.5255 1.28011 93.2583 1.62727 92.8711 1.67609C90.4443 1.9907 88.023 2.51143 85.6835 3.22744C83.873 3.78072 82.0733 4.45333 80.3501 5.23444C80.2574 5.27783 80.1592 5.29953 80.061 5.29953V5.2941Z" fill="#408F95"/>
<path d="M93.9674 3.3903C93.7383 3.3903 93.5093 3.27639 93.3729 3.07027C93.1657 2.74481 93.2584 2.31086 93.5856 2.10474C93.7329 2.01252 93.951 1.87692 94.2182 1.72504C95.2216 1.16091 96.3069 0.732386 97.4412 0.444897C98.3192 0.2225 99.2244 0.0923164 100.135 0.0543462C100.522 0.0380733 100.85 0.336411 100.866 0.721537C100.882 1.10666 100.582 1.43212 100.195 1.4484C99.3771 1.48094 98.57 1.60028 97.7847 1.79555C96.7704 2.05049 95.7997 2.43562 94.9053 2.93466C94.6654 3.07027 94.4745 3.1896 94.3382 3.27097C94.2237 3.34691 94.0928 3.37945 93.9619 3.37945L93.9674 3.3903Z" fill="#408F95"/>
<path d="M103.745 4.00306C103.516 4.00306 103.287 3.88915 103.156 3.68303C102.949 3.35757 103.042 2.92905 103.369 2.7175C103.516 2.62529 103.734 2.48968 104.002 2.3378C105.005 1.77367 106.09 1.34515 107.23 1.05766C108.108 0.835263 109.013 0.70508 109.924 0.66711C110.311 0.645412 110.638 0.949174 110.655 1.3343C110.671 1.71943 110.371 2.04489 109.984 2.06116C109.166 2.0937 108.359 2.21304 107.574 2.40831C106.559 2.66326 105.589 3.04838 104.694 3.54742C104.454 3.68303 104.263 3.80236 104.127 3.88373C104.013 3.95967 103.876 3.99221 103.751 3.99221L103.745 4.00306Z" fill="#408F95"/>
<path d="M112.765 5.27262C112.536 5.27262 112.307 5.15871 112.171 4.95259C111.964 4.62713 112.056 4.19861 112.383 3.98706C112.531 3.89485 112.749 3.75924 113.016 3.60736C114.025 3.04323 115.11 2.61471 116.244 2.32722C117.122 2.10482 118.028 1.97464 118.938 1.93667C119.326 1.9204 119.653 2.21873 119.669 2.60386C119.686 2.98899 119.386 3.31445 118.998 3.33072C118.18 3.36327 117.373 3.4826 116.588 3.67788C115.574 3.93282 114.603 4.31795 113.709 4.81698C113.469 4.95259 113.278 5.07192 113.141 5.15329C113.027 5.22923 112.896 5.26178 112.765 5.26178V5.27262Z" fill="#408F95"/>
<path d="M126.17 34.0705H126.153C123.754 34.0108 121.474 33.4738 119.386 32.4649C118.475 32.0255 117.602 31.4993 116.79 30.8972C116.479 30.664 116.414 30.2301 116.648 29.9209C116.883 29.6117 117.319 29.5466 117.63 29.7798C118.371 30.3331 119.173 30.8159 119.996 31.2119C121.905 32.1286 123.988 32.6222 126.186 32.6764C126.573 32.6873 126.879 33.0073 126.873 33.3924C126.862 33.7721 126.551 34.0759 126.17 34.0759V34.0705Z" fill="#408F95"/>
<path d="M124.904 31.2548C124.823 31.2548 124.741 31.2385 124.664 31.2114L120.667 29.7577C120.302 29.6275 120.116 29.2261 120.247 28.8627C120.378 28.4993 120.787 28.3148 121.147 28.445L125.144 29.8987C125.51 30.0289 125.695 30.4303 125.564 30.7937C125.461 31.0758 125.193 31.2548 124.904 31.2548Z" fill="#408F95"/>
<path d="M134.862 14.7867C134.486 14.7867 134.17 14.4884 134.159 14.1087C134.148 13.7235 134.453 13.4035 134.84 13.3926C137.485 13.3167 138.614 12.8068 138.8 11.5809C138.298 9.90481 137.011 8.54331 134.873 7.4259C134.53 7.2469 134.399 6.8238 134.579 6.48207C134.759 6.14034 135.184 6.01016 135.528 6.18916C138.085 7.52354 139.612 9.2105 140.19 11.3423C140.212 11.4236 140.217 11.5104 140.212 11.5918C139.918 14.6402 136.389 14.7433 134.884 14.7867C134.879 14.7867 134.868 14.7867 134.862 14.7867Z" fill="#408F95"/>
<path d="M163.896 128.67C163.673 128.67 163.455 128.562 163.318 128.367C163.002 127.906 162.828 127.417 162.8 126.918C162.675 124.467 166.078 122.774 168.564 121.537C171.133 120.257 173.92 119.324 176.843 118.76C177.224 118.69 177.59 118.934 177.666 119.313C177.743 119.693 177.492 120.057 177.11 120.133C174.312 120.675 171.651 121.565 169.192 122.785C167.294 123.729 164.125 125.307 164.202 126.848C164.213 127.086 164.305 127.331 164.474 127.575C164.693 127.895 164.611 128.329 164.294 128.546C164.174 128.627 164.033 128.67 163.896 128.67Z" fill="#408F95"/>
<path d="M173.374 134.968C173.309 134.968 173.238 134.957 173.173 134.935C171.869 134.539 170.582 134.084 169.35 133.579C168.81 133.357 168.074 133.053 167.119 132.576C166.252 132.136 165.396 131.653 164.589 131.133C164.551 131.106 164.513 131.078 164.48 131.046C164.442 131.008 164.376 130.954 164.3 130.883C163.384 130.07 162.506 129.202 162.729 128.361C162.795 128.117 163.007 127.688 163.711 127.542C164.087 127.46 164.464 127.699 164.545 128.079C164.611 128.377 164.469 128.67 164.224 128.822C164.371 129.017 164.665 129.337 165.238 129.842C165.303 129.901 165.363 129.95 165.407 129.994C166.16 130.476 166.95 130.927 167.757 131.333C168.663 131.789 169.372 132.082 169.89 132.293C171.078 132.782 172.322 133.226 173.582 133.606C173.952 133.72 174.16 134.111 174.051 134.479C173.958 134.783 173.68 134.973 173.38 134.973L173.374 134.968Z" fill="#408F95"/>
<path d="M179.466 135.364C177.606 135.364 175.736 135.288 173.882 135.13C173.494 135.098 173.211 134.761 173.244 134.376C173.276 133.991 173.62 133.709 174.002 133.742C176.428 133.942 178.882 134.013 181.298 133.942C181.347 133.942 186.822 133.747 191.365 132.798C192.767 132.505 194.179 132.114 195.553 131.626C196.164 131.409 196.497 131.274 197.893 130.699L199.578 130.004C200.052 129.809 200.472 129.63 200.86 129.467C202.081 128.952 202.965 128.578 204.022 128.307C205.462 127.932 206.984 127.759 208.554 127.797C208.941 127.807 209.247 128.128 209.241 128.513C209.23 128.898 208.92 129.202 208.522 129.196C207.082 129.164 205.691 129.321 204.377 129.657C203.417 129.907 202.577 130.259 201.41 130.753C201.018 130.921 200.592 131.1 200.112 131.295L198.427 131.99C197.042 132.559 196.671 132.711 196.022 132.939C194.588 133.443 193.116 133.856 191.654 134.159C186.986 135.13 181.571 135.326 181.342 135.331C180.72 135.347 180.093 135.358 179.471 135.358L179.466 135.364Z" fill="#408F95"/>
<path d="M209.225 124.146C209.225 124.146 209.209 124.146 209.198 124.146C208.805 124.13 208.407 124.092 208.02 124.038C207.098 123.902 206.406 123.68 206.106 123.582L206.024 123.555C202.926 122.606 199.752 121.776 196.595 121.098C193.688 120.474 191.392 119.98 188.371 119.704C185.181 119.411 181.931 119.432 178.708 119.769C178.321 119.807 177.977 119.53 177.939 119.145C177.901 118.76 178.179 118.418 178.566 118.38C181.882 118.038 185.225 118.017 188.502 118.315C191.61 118.597 193.945 119.102 196.895 119.736C200.096 120.425 203.308 121.26 206.444 122.226L206.547 122.258C206.809 122.345 207.425 122.541 208.232 122.66C208.549 122.709 208.87 122.736 209.187 122.752C209.705 122.66 210.223 122.53 210.725 122.362C211.335 122.161 211.766 121.955 211.93 121.879C213.593 121.103 217.421 119.682 220.742 118.727C222.618 118.185 224.058 117.87 225.852 117.843C226.392 117.832 226.943 117.854 227.477 117.903C227.865 117.935 228.148 118.277 228.115 118.662C228.083 119.047 227.739 119.329 227.352 119.297C226.861 119.253 226.365 119.237 225.869 119.243C224.238 119.264 222.897 119.563 221.135 120.072C217.541 121.109 213.888 122.513 212.546 123.137C212.344 123.229 211.859 123.457 211.172 123.685C210.577 123.88 209.967 124.032 209.35 124.141C209.312 124.146 209.274 124.152 209.23 124.152L209.225 124.146Z" fill="#408F95"/>
<path d="M225.389 136.953C225.296 136.953 225.198 136.931 225.105 136.893L217.361 133.482C215.938 132.771 214.558 132.012 213.228 131.214C212.23 130.618 211.226 129.977 210.261 129.327C209.939 129.11 209.858 128.676 210.076 128.356C210.294 128.036 210.73 127.954 211.052 128.171C212.001 128.811 212.977 129.435 213.953 130.021C215.256 130.802 216.609 131.545 217.967 132.223L225.678 135.619C226.032 135.776 226.19 136.188 226.038 136.541C225.923 136.801 225.667 136.959 225.394 136.959L225.389 136.953Z" fill="#408F95"/>
<path d="M225.389 136.953C225.187 136.953 224.991 136.867 224.854 136.704C223.436 135.033 222.335 133.189 221.577 131.225C220.939 129.576 220.437 128.274 220.65 126.566C220.89 124.635 221.904 123.355 223.186 121.733L223.295 121.592C224.347 120.257 225.59 119.064 226.992 118.039C227.303 117.811 227.745 117.876 227.974 118.185C228.203 118.494 228.137 118.934 227.826 119.162C226.528 120.116 225.372 121.223 224.402 122.454L224.293 122.595C223.104 124.103 222.242 125.193 222.046 126.739C221.877 128.101 222.28 129.142 222.891 130.721C223.595 132.538 224.62 134.247 225.934 135.803C226.185 136.096 226.147 136.541 225.852 136.785C225.721 136.894 225.558 136.948 225.4 136.948L225.389 136.953Z" fill="#408F95"/>
<path d="M178.266 131.203C176.657 131.203 175.414 130.601 174.77 130.211C174.443 130.01 174.34 129.576 174.541 129.251C174.743 128.925 175.174 128.822 175.507 129.023C176.085 129.375 177.284 129.945 178.822 129.777C180.36 129.609 181.309 128.8 181.942 128.263C182.034 128.187 182.105 128.117 182.165 128.063C181.789 127.976 181.14 127.922 180.218 127.9C178.681 127.862 177.099 128.041 175.518 128.421C175.141 128.513 174.76 128.28 174.667 127.905C174.574 127.531 174.809 127.151 175.185 127.059C176.886 126.647 178.593 126.457 180.251 126.495C182.029 126.538 183.518 126.658 183.763 127.688C183.91 128.318 183.387 128.865 182.852 129.321C182.182 129.891 180.938 130.943 178.975 131.16C178.73 131.187 178.495 131.198 178.266 131.198V131.203Z" fill="#408F95"/>
<path d="M172.055 132.825C171.848 132.825 171.64 132.733 171.498 132.554C171.259 132.25 171.319 131.811 171.624 131.572C172.736 130.715 173.609 129.663 174.225 128.453C174.552 127.813 174.798 127.13 174.961 126.419C175.049 126.045 175.425 125.812 175.801 125.898C176.178 125.985 176.412 126.36 176.325 126.734C176.134 127.553 175.85 128.339 175.474 129.083C174.765 130.482 173.756 131.692 172.48 132.679C172.355 132.777 172.202 132.825 172.049 132.825H172.055Z" fill="#408F95"/>
<path d="M167.774 126.408C167.774 126.408 167.763 126.408 167.752 126.408C167.005 126.397 166.399 125.779 166.41 125.036C166.421 124.287 167.021 123.69 167.79 123.701C168.155 123.701 168.493 123.853 168.744 124.114C168.995 124.374 169.132 124.716 169.126 125.074C169.115 125.811 168.504 126.408 167.768 126.408H167.774ZM167.73 125.052C167.73 125.052 167.746 125.09 167.774 125.095C167.795 125.095 167.817 125.074 167.817 125.052H167.73ZM167.73 125.052H167.817C167.817 125.052 167.79 124.992 167.774 125.009C167.752 125.009 167.73 125.025 167.73 125.052Z" fill="#408F95"/>
<path d="M185.661 138C184.685 138 183.708 137.908 182.749 137.723C179.242 137.056 177.273 136.324 174.012 135.109C173.647 134.973 173.467 134.572 173.603 134.208C173.74 133.845 174.143 133.666 174.509 133.801C177.813 135.033 179.629 135.705 183.016 136.351C183.894 136.519 184.766 136.6 185.683 136.6C186.332 136.6 186.986 136.552 187.629 136.465C188.028 136.41 188.393 136.286 188.606 136.183C188.333 135.933 187.651 135.478 186.255 134.881C185.901 134.729 185.732 134.317 185.89 133.964C186.043 133.612 186.457 133.443 186.811 133.601C189.953 134.94 190.242 135.798 190.111 136.454C189.904 137.479 188.311 137.783 187.831 137.848C187.117 137.946 186.364 137.994 185.672 138H185.661Z" fill="#408F95"/>
<path d="M200.047 135.782C199.796 135.782 199.545 135.776 199.294 135.765C196.862 135.657 194.424 134.995 192.248 133.856C191.905 133.677 191.774 133.254 191.954 132.912C192.134 132.57 192.559 132.44 192.903 132.619C194.899 133.661 197.129 134.268 199.36 134.366C200.936 134.436 202.512 134.263 204.044 133.851C203.848 133.254 203.532 132.592 203.101 132.164C202.926 131.99 202.67 131.73 202.25 131.551C202.125 131.496 202.032 131.469 201.819 131.399L201.645 131.344C201.143 131.187 200.739 131.052 200.467 130.959C200.101 130.835 199.905 130.439 200.03 130.07C200.156 129.706 200.554 129.511 200.925 129.636C201.187 129.728 201.585 129.858 202.07 130.016L202.245 130.07C202.534 130.162 202.654 130.2 202.823 130.276C203.477 130.563 203.897 130.981 204.099 131.182C205.113 132.196 205.495 133.742 205.587 134.192C205.658 134.545 205.457 134.892 205.113 135C203.466 135.521 201.765 135.782 200.052 135.782H200.047Z" fill="#408F95"/>
<path d="M202.119 122.411C201.748 122.411 201.437 122.118 201.416 121.744C201.399 121.358 201.699 121.033 202.086 121.011C202.774 120.979 203.379 120.925 203.941 120.838C204.322 120.783 204.682 121.044 204.737 121.424C204.791 121.803 204.53 122.161 204.148 122.215C203.537 122.308 202.883 122.367 202.152 122.4C202.141 122.4 202.13 122.4 202.119 122.4V122.411Z" fill="#408F95"/>
<path d="M204.044 122.232C203.679 122.232 203.368 121.949 203.346 121.581C203.319 121.196 203.613 120.865 204.001 120.838C205.806 120.724 206.711 120.138 206.787 119.644C206.858 119.189 206.231 118.424 204.688 117.811C204.328 117.67 204.153 117.263 204.295 116.905C204.437 116.547 204.846 116.373 205.206 116.514C207.267 117.328 208.38 118.576 208.172 119.861C207.96 121.196 206.433 122.08 204.088 122.226C204.072 122.226 204.055 122.226 204.044 122.226V122.232Z" fill="#408F95"/>
<path d="M180.742 117.827C180.42 117.827 180.131 117.605 180.06 117.285C179.973 116.91 180.213 116.536 180.589 116.449C186.452 115.131 192.368 114.757 198.182 115.337C199.812 115.5 201.459 115.739 203.073 116.053C203.455 116.129 203.701 116.493 203.63 116.872C203.553 117.252 203.188 117.496 202.806 117.426C201.236 117.122 199.632 116.889 198.04 116.726C192.379 116.162 186.61 116.525 180.9 117.811C180.845 117.822 180.796 117.827 180.747 117.827H180.742Z" fill="#408F95"/>
<path d="M172.371 121.391C172.142 121.391 171.918 121.277 171.782 121.076C171.569 120.751 171.662 120.322 171.984 120.111C172.96 119.476 173.985 118.896 175.032 118.397C176.03 117.914 177.077 117.491 178.135 117.138C178.381 117.057 178.593 116.986 178.741 116.943C179.106 116.829 179.504 117.035 179.619 117.399C179.733 117.768 179.526 118.158 179.16 118.272C179.019 118.315 178.822 118.38 178.588 118.456C177.584 118.793 176.597 119.194 175.648 119.65C174.656 120.127 173.685 120.675 172.758 121.277C172.638 121.353 172.507 121.391 172.376 121.391H172.371Z" fill="#408F95"/>
<path d="M183.092 117.984C182.983 117.984 182.88 117.941 182.803 117.854C182.661 117.697 182.678 117.453 182.836 117.312C182.912 117.246 183.027 117.149 183.169 117.035C183.703 116.617 184.292 116.276 184.925 116.01C185.41 115.804 185.928 115.646 186.451 115.543C186.659 115.5 186.866 115.635 186.904 115.847C186.942 116.059 186.811 116.259 186.599 116.297C186.124 116.389 185.661 116.53 185.224 116.715C184.657 116.954 184.123 117.268 183.643 117.637C183.518 117.735 183.414 117.827 183.343 117.887C183.272 117.952 183.179 117.984 183.087 117.984H183.092Z" fill="#408F95"/>
<path d="M186.746 117.87C186.621 117.87 186.495 117.805 186.419 117.691C186.304 117.512 186.353 117.274 186.533 117.16C186.615 117.106 186.735 117.03 186.882 116.943C187.433 116.612 188.028 116.303 188.633 116.037C189.107 115.826 189.587 115.641 190.073 115.478C190.274 115.413 190.492 115.522 190.563 115.722C190.629 115.923 190.52 116.14 190.318 116.211C189.86 116.363 189.396 116.542 188.949 116.742C188.371 116.997 187.809 117.29 187.28 117.605C187.139 117.686 187.024 117.762 186.948 117.811C186.882 117.854 186.811 117.87 186.741 117.87H186.746Z" fill="#408F95"/>
<path d="M191.365 117.876C191.245 117.876 191.131 117.821 191.054 117.718C190.929 117.55 190.961 117.306 191.136 117.181C191.218 117.122 191.332 117.035 191.48 116.937C192.025 116.568 192.614 116.248 193.236 115.977C193.715 115.771 194.212 115.592 194.713 115.456C194.921 115.397 195.133 115.521 195.188 115.728C195.242 115.934 195.122 116.145 194.915 116.199C194.452 116.324 193.988 116.487 193.541 116.682C192.963 116.932 192.418 117.23 191.91 117.572C191.774 117.664 191.665 117.74 191.594 117.794C191.523 117.843 191.447 117.87 191.365 117.87V117.876Z" fill="#408F95"/>
<path d="M200.292 132.728C200.292 132.728 200.254 132.728 200.238 132.728L197.124 132.299C196.911 132.272 196.764 132.077 196.797 131.865C196.824 131.654 197.026 131.507 197.233 131.54L200.347 131.968C200.559 131.995 200.707 132.191 200.674 132.402C200.647 132.592 200.483 132.733 200.292 132.733V132.728Z" fill="#408F95"/>
<path d="M220.317 132.093C220.214 132.093 220.105 132.066 220.006 132.001C219.068 131.409 218.234 130.682 217.536 129.842C216.598 128.719 215.72 127.661 215.835 126.272C215.955 124.857 217.04 123.956 218.19 123.002C219.134 122.221 220.197 121.602 221.359 121.174C221.659 121.06 221.991 121.212 222.106 121.51C222.22 121.808 222.068 122.139 221.768 122.253C220.732 122.638 219.777 123.191 218.938 123.886C217.896 124.748 217.072 125.432 216.991 126.37C216.914 127.287 217.58 128.09 218.425 129.104C219.047 129.853 219.788 130.498 220.628 131.03C220.901 131.198 220.977 131.556 220.808 131.827C220.699 132.001 220.508 132.093 220.317 132.093Z" fill="#408F95"/>
<path d="M237.49 108.47C237.174 108.47 236.89 108.259 236.808 107.939C236.672 107.396 236.677 106.881 236.83 106.403C237.572 104.06 241.356 103.653 244.116 103.36C246.973 103.051 249.913 103.143 252.847 103.626C253.228 103.691 253.49 104.049 253.425 104.429C253.359 104.809 253.005 105.069 252.618 105.004C249.809 104.537 246.995 104.456 244.268 104.749C242.163 104.977 238.635 105.357 238.172 106.827C238.101 107.054 238.101 107.315 238.172 107.602C238.264 107.976 238.035 108.356 237.659 108.448C237.604 108.465 237.544 108.47 237.49 108.47Z" fill="#408F95"/>
<path d="M244.165 117.653C244.018 117.653 243.865 117.605 243.739 117.512C242.654 116.693 241.613 115.82 240.631 114.914C240.2 114.518 239.611 113.976 238.891 113.2C238.232 112.49 237.604 111.741 237.026 110.971C236.999 110.933 236.977 110.895 236.955 110.851C236.934 110.803 236.895 110.732 236.846 110.64C236.268 109.56 235.75 108.443 236.257 107.727C236.405 107.521 236.754 107.195 237.463 107.298C237.844 107.353 238.112 107.711 238.057 108.09C238.013 108.394 237.779 108.622 237.495 108.676C237.561 108.91 237.73 109.311 238.09 109.989C238.133 110.065 238.166 110.135 238.193 110.184C238.733 110.9 239.317 111.595 239.928 112.251C240.609 112.989 241.176 113.509 241.591 113.889C242.534 114.762 243.549 115.603 244.596 116.4C244.906 116.634 244.961 117.073 244.727 117.377C244.59 117.556 244.378 117.653 244.17 117.653H244.165Z" fill="#408F95"/>
<path d="M279.138 124.439C279.05 124.439 278.963 124.423 278.876 124.39C277.54 123.859 276.176 123.522 274.829 123.387C273.842 123.289 272.926 123.327 271.661 123.387C271.236 123.408 270.772 123.425 270.259 123.446L268.433 123.511C266.938 123.566 266.54 123.582 265.853 123.566C264.332 123.539 262.81 123.414 261.332 123.191C256.62 122.486 251.472 120.788 251.254 120.712C248.92 119.926 246.592 118.988 244.334 117.935C243.985 117.772 243.832 117.355 243.996 117.008C244.159 116.66 244.579 116.509 244.928 116.671C247.137 117.707 249.411 118.619 251.696 119.389C251.745 119.405 256.942 121.119 261.534 121.808C262.952 122.02 264.413 122.139 265.869 122.166C266.518 122.177 266.873 122.166 268.378 122.112L270.21 122.047C270.717 122.031 271.176 122.009 271.601 121.987C272.926 121.927 273.886 121.884 274.971 121.993C276.449 122.139 277.938 122.508 279.399 123.088C279.759 123.229 279.934 123.636 279.792 123.994C279.683 124.265 279.421 124.434 279.138 124.434V124.439Z" fill="#408F95"/>
<path d="M300.296 121.7C300.193 121.7 300.095 121.678 299.997 121.635C299.555 121.423 299.091 121.233 298.628 121.071C297.09 120.523 295.732 120.338 293.9 120.203C290.17 119.926 286.249 119.98 284.776 120.1C284.553 120.116 284.013 120.165 283.293 120.138C282.671 120.116 282.044 120.046 281.428 119.932C281.379 119.921 281.33 119.91 281.286 119.888C280.921 119.736 280.566 119.563 280.223 119.378C279.405 118.934 278.837 118.483 278.592 118.288L278.521 118.234C275.947 116.27 273.264 114.393 270.543 112.663C268.04 111.068 266.06 109.81 263.322 108.503C260.432 107.125 257.378 106.018 254.243 105.21C253.866 105.112 253.643 104.733 253.741 104.358C253.839 103.984 254.221 103.762 254.597 103.859C257.825 104.689 260.967 105.828 263.933 107.244C266.747 108.589 268.76 109.864 271.301 111.486C274.055 113.238 276.776 115.137 279.377 117.127L279.465 117.192C279.683 117.361 280.184 117.762 280.899 118.152C281.177 118.304 281.466 118.445 281.76 118.57C282.278 118.662 282.813 118.722 283.342 118.738C283.98 118.76 284.46 118.722 284.64 118.706C286.472 118.554 290.557 118.554 294.003 118.809C295.956 118.955 297.412 119.151 299.102 119.753C299.615 119.932 300.117 120.143 300.602 120.371C300.951 120.539 301.098 120.951 300.935 121.304C300.815 121.554 300.564 121.7 300.302 121.7H300.296Z" fill="#408F95"/>
<path d="M292.225 137.55C292.051 137.55 291.871 137.484 291.735 137.349L285.671 131.469C284.585 130.308 283.56 129.12 282.589 127.911C281.859 126.999 281.15 126.061 280.468 125.112C280.244 124.797 280.321 124.363 280.632 124.141C280.948 123.918 281.384 123.994 281.608 124.303C282.273 125.231 282.966 126.153 283.68 127.043C284.629 128.225 285.632 129.386 286.668 130.498L292.705 136.356C292.984 136.627 292.989 137.067 292.716 137.343C292.58 137.484 292.395 137.555 292.215 137.555L292.225 137.55Z" fill="#408F95"/>
<path d="M292.226 137.55C291.937 137.55 291.669 137.371 291.566 137.089C290.824 135.033 290.437 132.918 290.415 130.813C290.393 129.045 290.382 127.651 291.179 126.126C292.084 124.401 293.48 123.55 295.247 122.476L295.399 122.384C296.85 121.499 298.437 120.81 300.111 120.333C300.482 120.225 300.875 120.442 300.978 120.811C301.087 121.179 300.869 121.57 300.498 121.673C298.944 122.112 297.477 122.752 296.136 123.571L295.983 123.664C294.336 124.667 293.147 125.389 292.427 126.772C291.789 127.987 291.806 129.104 291.822 130.797C291.844 132.744 292.204 134.702 292.891 136.617C293.022 136.98 292.831 137.382 292.466 137.512C292.389 137.539 292.307 137.555 292.231 137.555L292.226 137.55Z" fill="#408F95"/>
<path d="M252.012 116.172C251.543 116.172 251.036 116.118 250.502 115.988C248.593 115.511 247.426 114.312 246.897 113.634C246.657 113.33 246.712 112.891 247.017 112.652C247.322 112.413 247.764 112.468 248.004 112.771C248.424 113.303 249.346 114.252 250.845 114.626C252.345 115.001 253.523 114.572 254.297 114.29C254.412 114.247 254.505 114.214 254.581 114.176C254.259 113.965 253.665 113.688 252.809 113.352C251.385 112.788 249.842 112.402 248.222 112.213C247.835 112.169 247.562 111.822 247.606 111.437C247.65 111.052 247.999 110.775 248.386 110.824C250.125 111.03 251.794 111.442 253.332 112.055C254.984 112.712 256.337 113.341 256.206 114.388C256.13 115.028 255.443 115.359 254.777 115.597C254.183 115.814 253.218 116.167 252.007 116.167L252.012 116.172Z" fill="#408F95"/>
<path d="M243.679 115.191C243.379 115.191 243.101 115.001 243.009 114.702C242.894 114.334 243.096 113.943 243.467 113.829C244.808 113.412 245.997 112.728 247 111.806C247.529 111.318 248.004 110.764 248.407 110.157C248.62 109.837 249.056 109.745 249.378 109.956C249.7 110.168 249.793 110.602 249.58 110.922C249.116 111.621 248.571 112.262 247.96 112.826C246.804 113.889 245.435 114.675 243.892 115.158C243.821 115.18 243.75 115.191 243.679 115.191Z" fill="#408F95"/>
<path d="M242.147 107.732C241.978 107.732 241.814 107.7 241.656 107.64C240.958 107.369 240.609 106.582 240.882 105.888C241.155 105.194 241.945 104.846 242.643 105.118C243.341 105.389 243.69 106.175 243.418 106.87C243.287 107.206 243.031 107.472 242.698 107.618C242.523 107.694 242.338 107.732 242.153 107.732H242.147ZM242.103 106.365C242.093 106.387 242.103 106.414 242.131 106.42C242.147 106.425 242.18 106.414 242.185 106.392L242.103 106.36V106.365ZM242.103 106.365L242.185 106.398C242.185 106.398 242.185 106.349 242.158 106.344C242.136 106.338 242.109 106.349 242.103 106.371V106.365Z" fill="#408F95"/>
<path d="M257.52 125.443C257.067 125.443 256.653 125.367 256.451 125.323C255.753 125.172 255.061 124.971 254.395 124.721C253.474 124.385 252.585 123.951 251.745 123.447C248.691 121.608 247.104 120.235 244.47 117.968C244.176 117.713 244.143 117.274 244.399 116.981C244.656 116.688 245.097 116.655 245.392 116.91C248.058 119.205 249.525 120.474 252.476 122.253C253.239 122.714 254.052 123.105 254.886 123.414C255.491 123.636 256.124 123.821 256.757 123.962C257.149 124.049 257.536 124.06 257.771 124.032C257.607 123.702 257.122 123.04 256.026 121.998C255.748 121.733 255.737 121.288 256.004 121.011C256.271 120.734 256.718 120.724 256.997 120.989C259.467 123.338 259.44 124.239 259.085 124.808C258.769 125.313 258.12 125.448 257.531 125.448L257.52 125.443Z" fill="#408F95"/>
<path d="M273.69 128.643C273.69 128.643 273.668 128.643 273.657 128.643C271.677 128.545 269.752 128.111 267.936 127.346C265.695 126.403 263.644 124.938 262.003 123.115C261.747 122.828 261.768 122.389 262.057 122.128C262.347 121.868 262.788 121.895 263.05 122.182C264.555 123.853 266.437 125.193 268.487 126.061C269.943 126.674 271.475 127.059 273.057 127.2C273.079 126.663 273.046 125.909 272.762 125.296C272.659 125.074 272.506 124.743 272.184 124.423C272.086 124.33 272.01 124.271 271.835 124.135L271.688 124.021C271.274 123.701 270.941 123.43 270.723 123.251C270.423 123.007 270.379 122.568 270.625 122.269C270.87 121.971 271.312 121.927 271.612 122.172C271.825 122.345 272.152 122.611 272.555 122.92L272.697 123.034C272.937 123.218 273.035 123.3 273.166 123.425C273.679 123.924 273.924 124.461 274.044 124.716C274.638 126.012 274.458 127.596 274.388 128.052C274.333 128.393 274.039 128.643 273.695 128.643H273.69Z" fill="#408F95"/>
<path d="M277.376 116.352C277.327 116.352 277.278 116.352 277.229 116.335C276.629 116.211 275.991 116.037 275.293 115.815C274.922 115.695 274.72 115.305 274.84 114.936C274.96 114.567 275.353 114.366 275.723 114.486C276.378 114.692 276.967 114.854 277.523 114.968C277.905 115.05 278.145 115.419 278.063 115.798C277.992 116.129 277.703 116.352 277.376 116.352Z" fill="#408F95"/>
<path d="M279.339 116.677C278.696 116.677 277.97 116.563 277.174 116.324C276.803 116.216 276.591 115.825 276.705 115.456C276.814 115.087 277.207 114.876 277.578 114.99C279.312 115.505 280.364 115.272 280.61 114.838C280.839 114.437 280.517 113.498 279.285 112.397C278.996 112.137 278.974 111.697 279.23 111.41C279.492 111.122 279.934 111.101 280.223 111.356C281.869 112.831 282.475 114.388 281.831 115.521C281.4 116.281 280.517 116.677 279.339 116.677Z" fill="#408F95"/>
<path d="M278.019 111.469C277.894 111.469 277.769 111.437 277.654 111.366C276.285 110.536 274.867 109.761 273.433 109.061C268.323 106.571 262.794 104.911 256.986 104.136C256.604 104.087 256.331 103.734 256.386 103.349C256.44 102.969 256.789 102.698 257.177 102.753C263.132 103.55 268.809 105.253 274.055 107.808C275.527 108.524 276.989 109.321 278.39 110.178C278.723 110.379 278.827 110.808 278.625 111.139C278.494 111.355 278.259 111.475 278.025 111.475L278.019 111.469Z" fill="#408F95"/>
<path d="M247.982 104.581C247.661 104.581 247.372 104.364 247.301 104.038C247.213 103.664 247.453 103.29 247.83 103.203C248.964 102.948 250.131 102.758 251.287 102.65C252.394 102.547 253.518 102.509 254.635 102.547C254.897 102.552 255.115 102.563 255.274 102.574C255.661 102.595 255.955 102.921 255.939 103.306C255.922 103.691 255.584 103.984 255.203 103.968C255.055 103.962 254.848 103.952 254.597 103.941C253.539 103.908 252.47 103.941 251.423 104.044C250.322 104.147 249.22 104.32 248.146 104.564C248.091 104.575 248.042 104.581 247.988 104.581H247.982Z" fill="#408F95"/>
<path d="M259.113 105.085C258.96 105.085 258.813 104.993 258.753 104.841C258.676 104.64 258.774 104.418 258.976 104.342C259.074 104.304 259.216 104.255 259.385 104.201C260.029 103.995 260.705 103.876 261.392 103.848C261.921 103.827 262.461 103.854 262.99 103.941C263.203 103.973 263.344 104.174 263.312 104.38C263.279 104.592 263.077 104.727 262.87 104.7C262.396 104.624 261.91 104.597 261.436 104.619C260.819 104.646 260.209 104.754 259.631 104.939C259.478 104.988 259.353 105.036 259.265 105.069C259.222 105.085 259.173 105.096 259.129 105.096L259.113 105.085Z" fill="#408F95"/>
<path d="M262.581 106.246C262.401 106.246 262.243 106.121 262.205 105.942C262.161 105.736 262.292 105.53 262.499 105.487C262.592 105.465 262.734 105.438 262.903 105.405C263.535 105.286 264.195 105.204 264.866 105.161C265.384 105.129 265.902 105.118 266.409 105.134C266.622 105.139 266.791 105.318 266.786 105.53C266.78 105.741 266.589 105.893 266.387 105.904C265.902 105.888 265.411 105.899 264.915 105.926C264.282 105.964 263.65 106.045 263.05 106.159C262.892 106.192 262.755 106.219 262.668 106.235C262.641 106.241 262.614 106.246 262.586 106.246H262.581Z" fill="#408F95"/>
<path d="M266.905 107.852C266.736 107.852 266.584 107.743 266.535 107.575C266.475 107.369 266.595 107.157 266.796 107.098C266.894 107.071 267.031 107.033 267.205 106.989C267.843 106.832 268.509 106.734 269.185 106.702C269.708 106.675 270.237 106.68 270.75 106.729C270.963 106.745 271.121 106.935 271.099 107.147C271.077 107.358 270.886 107.515 270.679 107.494C270.199 107.45 269.708 107.445 269.223 107.472C268.596 107.505 267.974 107.597 267.385 107.743C267.227 107.781 267.096 107.819 267.009 107.841C266.971 107.852 266.938 107.857 266.9 107.857L266.905 107.852Z" fill="#408F95"/>
<path d="M270.068 124.868C270.008 124.868 269.943 124.852 269.883 124.819L267.118 123.338C266.933 123.235 266.862 123.002 266.96 122.817C267.064 122.633 267.298 122.563 267.483 122.66L270.248 124.141C270.434 124.244 270.505 124.477 270.407 124.662C270.336 124.792 270.205 124.862 270.068 124.862V124.868Z" fill="#408F95"/>
<path d="M289.133 131.231C288.959 131.231 288.784 131.155 288.67 131.003C287.999 130.124 287.47 129.153 287.11 128.122C286.625 126.75 286.172 125.448 286.767 124.19C287.377 122.904 288.708 122.432 290.121 121.939C291.277 121.532 292.493 121.326 293.731 121.32C294.052 121.32 294.309 121.575 294.309 121.895C294.309 122.215 294.052 122.47 293.731 122.476C292.624 122.476 291.538 122.666 290.508 123.029C289.226 123.479 288.217 123.832 287.814 124.683C287.421 125.519 287.765 126.501 288.201 127.748C288.523 128.665 288.992 129.527 289.592 130.314C289.788 130.569 289.733 130.927 289.483 131.122C289.379 131.203 289.253 131.241 289.133 131.241V131.231Z" fill="#408F95"/>
<path d="M159.365 61.5171C159.119 61.5171 158.874 61.3977 158.726 61.1808C158.301 60.5678 158.072 59.9223 158.039 59.2606C157.87 55.9626 162.566 53.6301 165.99 51.9269C169.573 50.1477 173.456 48.8459 177.524 48.0593C177.944 47.978 178.348 48.2492 178.43 48.6669C178.511 49.0845 178.239 49.4859 177.819 49.5673C173.887 50.3267 170.135 51.5851 166.683 53.2992C163.984 54.6445 159.468 56.8901 159.583 59.1846C159.599 59.5535 159.741 59.9332 160.003 60.3129C160.243 60.6654 160.155 61.1428 159.801 61.3815C159.67 61.4737 159.517 61.5171 159.365 61.5171Z" fill="#408F95"/>
<path d="M172.627 70.3319C172.551 70.3319 172.475 70.3211 172.404 70.2994C170.588 69.7515 168.794 69.1115 167.07 68.4063C166.318 68.0971 165.287 67.674 163.962 67.0068C162.751 66.3993 161.568 65.7213 160.433 64.9944C160.39 64.9673 160.352 64.9347 160.313 64.9022C160.259 64.8479 160.166 64.7666 160.057 64.6689C158.819 63.5732 157.636 62.4124 157.919 61.3438C157.996 61.0509 158.258 60.5302 159.13 60.3458C159.545 60.259 159.959 60.5193 160.046 60.937C160.134 61.3384 159.883 61.7344 159.49 61.8375C159.637 62.1087 160.057 62.6023 161.082 63.519C161.181 63.6058 161.262 63.6817 161.328 63.736C162.397 64.4194 163.515 65.0541 164.654 65.629C165.925 66.2691 166.923 66.6814 167.654 66.9797C169.328 67.6686 171.078 68.287 172.845 68.824C173.254 68.9487 173.483 69.3772 173.358 69.7841C173.254 70.115 172.949 70.3319 172.616 70.3319H172.627Z" fill="#408F95"/>
<path d="M181.151 70.8849C178.555 70.8849 175.943 70.7764 173.353 70.5594C172.927 70.5215 172.611 70.1526 172.649 69.7295C172.682 69.3064 173.058 68.9918 173.483 69.0298C176.892 69.3173 180.333 69.4095 183.72 69.3118C183.79 69.3118 191.469 69.0352 197.849 67.7062C199.823 67.294 201.808 66.7407 203.739 66.0627C204.601 65.7589 205.064 65.5691 207.016 64.7663L209.383 63.7953C210.043 63.5241 210.632 63.2746 211.177 63.0467C212.884 62.3253 214.117 61.81 215.584 61.4249C217.58 60.9041 219.69 60.6709 221.871 60.7197C222.297 60.7306 222.635 61.0831 222.624 61.5062C222.613 61.9293 222.242 62.2548 221.833 62.2548C219.799 62.206 217.83 62.4284 215.976 62.9111C214.618 63.2637 213.43 63.7682 211.783 64.4571C211.237 64.6903 210.643 64.9398 209.978 65.211L207.611 66.182C205.68 66.9794 205.162 67.1909 204.257 67.5055C202.261 68.2053 200.211 68.7802 198.166 69.2033C191.649 70.5594 183.845 70.8361 183.763 70.8415C182.896 70.8686 182.024 70.8795 181.146 70.8795L181.151 70.8849Z" fill="#408F95"/>
<path d="M222.82 55.1869C222.82 55.1869 222.798 55.1869 222.787 55.1869C222.242 55.1652 221.697 55.1164 221.162 55.035C219.886 54.8506 218.926 54.5414 218.517 54.4058L218.397 54.3679C214.051 53.0335 209.607 51.8781 205.178 50.9234C201.105 50.0447 197.882 49.3558 193.639 48.9652C189.162 48.5584 184.592 48.5855 180.066 49.052C179.64 49.1008 179.258 48.7917 179.215 48.3686C179.171 47.9455 179.477 47.5658 179.902 47.5224C184.526 47.045 189.195 47.0179 193.775 47.4302C198.111 47.8261 201.372 48.5259 205.5 49.4154C209.972 50.3756 214.466 51.5472 218.85 52.8924L218.992 52.9358C219.363 53.0552 220.235 53.3372 221.38 53.5054C221.839 53.5705 222.302 53.6193 222.766 53.6356C223.513 53.5054 224.254 53.321 224.974 53.0823C225.836 52.7948 226.452 52.5073 226.687 52.3988C229.004 51.3194 234.354 49.3341 238.989 47.9997C241.602 47.2457 243.598 46.8064 246.084 46.7738C246.837 46.763 247.595 46.7901 248.337 46.8552C248.762 46.8931 249.078 47.2674 249.04 47.6905C249.002 48.1136 248.631 48.4282 248.2 48.3903C247.508 48.3306 246.804 48.3089 246.101 48.3143C243.794 48.3469 241.902 48.7645 239.415 49.4805C234.37 50.9343 229.239 52.9087 227.357 53.782C227.079 53.9122 226.403 54.2268 225.454 54.5414C224.631 54.8126 223.785 55.0242 222.935 55.1706C222.891 55.1761 222.847 55.1815 222.804 55.1815L222.82 55.1869Z" fill="#408F95"/>
<path d="M245.452 73.1145C245.348 73.1145 245.239 73.0928 245.141 73.0494L234.3 68.276C232.326 67.2887 230.395 66.2256 228.53 65.1136C227.129 64.2728 225.732 63.3832 224.385 62.472C224.031 62.2333 223.944 61.7559 224.184 61.4034C224.424 61.0508 224.904 60.9586 225.258 61.2027C226.583 62.0977 227.952 62.971 229.332 63.7955C231.164 64.8912 233.056 65.9327 234.965 66.8873L245.768 71.6445C246.161 71.8181 246.335 72.2683 246.161 72.6588C246.035 72.9463 245.752 73.1145 245.452 73.1145Z" fill="#408F95"/>
<path d="M245.452 73.1145C245.234 73.1145 245.015 73.0223 244.863 72.8433C242.894 70.5217 241.362 67.9614 240.309 65.233C239.426 62.9493 238.733 61.1485 239.022 58.8106C239.355 56.1635 240.756 54.3898 242.529 52.1441L242.681 51.9488C244.143 50.0991 245.866 48.4393 247.818 47.0127C248.162 46.7632 248.647 46.8337 248.898 47.1754C249.149 47.5172 249.078 47.9999 248.735 48.2494C246.897 49.5947 245.272 51.1569 243.898 52.8981L243.745 53.0934C242.054 55.2305 240.833 56.7765 240.555 59.0004C240.309 60.9532 240.882 62.434 241.749 64.6797C242.741 67.2508 244.187 69.6646 246.046 71.8506C246.319 72.1761 246.281 72.6589 245.953 72.9355C245.806 73.0548 245.632 73.1145 245.457 73.1145H245.452Z" fill="#408F95"/>
<path d="M179.477 65.0645C177.273 65.0645 175.572 64.2401 174.694 63.703C174.329 63.4806 174.22 63.0087 174.443 62.6453C174.667 62.2819 175.141 62.168 175.507 62.3958C176.341 62.9057 178.07 63.7247 180.278 63.4806C182.492 63.2366 183.856 62.0757 184.761 61.3109C185.05 61.0668 185.225 60.8878 185.328 60.7685C184.963 60.6275 184.112 60.4864 182.22 60.4376C180.055 60.3888 177.819 60.6329 175.583 61.1753C175.168 61.2784 174.749 61.0234 174.65 60.6112C174.547 60.1989 174.803 59.7813 175.218 59.6836C177.584 59.1086 179.957 58.8483 182.258 58.9025C184.57 58.9568 186.67 59.1141 186.981 60.4105C187.128 61.0289 186.779 61.631 185.77 62.488C184.788 63.3233 183.141 64.7174 180.453 65.0157C180.12 65.0537 179.793 65.07 179.482 65.07L179.477 65.0645Z" fill="#408F95"/>
<path d="M170.778 67.3377C170.549 67.3377 170.32 67.2346 170.168 67.0393C169.906 66.703 169.966 66.2203 170.304 65.9599C171.885 64.7394 173.129 63.2477 174.007 61.5228C174.47 60.6115 174.825 59.6351 175.059 58.6316C175.158 58.2194 175.572 57.959 175.986 58.0567C176.401 58.1543 176.663 58.5665 176.564 58.9788C176.303 60.1071 175.905 61.1973 175.387 62.2171C174.41 64.1482 173.02 65.8134 171.253 67.1749C171.111 67.2834 170.948 67.3377 170.778 67.3377Z" fill="#408F95"/>
<path d="M164.791 58.3495C164.791 58.3495 164.774 58.3495 164.763 58.3495C163.831 58.3386 163.078 57.5684 163.095 56.6408C163.106 55.7187 163.864 54.981 164.791 54.981C164.796 54.981 164.807 54.981 164.813 54.981C165.745 54.9918 166.498 55.7621 166.481 56.6896C166.47 57.6118 165.712 58.3495 164.785 58.3495H164.791ZM164.791 56.516C164.709 56.516 164.644 56.5811 164.644 56.6625C164.644 56.7113 164.665 56.7493 164.687 56.7656C164.709 56.7873 164.742 56.809 164.791 56.809C164.867 56.809 164.938 56.7439 164.943 56.6625C164.943 56.5811 164.878 56.516 164.796 56.5106L164.791 56.516Z" fill="#408F95"/>
<path d="M189.833 74.5791C188.48 74.5791 187.122 74.4489 185.792 74.1994C180.9 73.2664 178.152 72.2466 173.593 70.5488C173.194 70.4024 172.993 69.9576 173.14 69.5616C173.293 69.1656 173.734 68.9649 174.132 69.1114C178.768 70.8363 181.32 71.7856 186.081 72.6914C187.313 72.9247 188.578 73.044 189.827 73.044H189.849C190.765 73.044 191.692 72.9789 192.603 72.8488C193.372 72.7403 194.032 72.4745 194.266 72.2955C194.043 72.0026 193.154 71.2703 190.733 70.2342C190.34 70.0661 190.16 69.6159 190.329 69.2253C190.498 68.8348 190.951 68.6558 191.343 68.8239C195.624 70.6519 195.995 71.7964 195.837 72.5884C195.57 73.9228 193.274 74.3133 192.821 74.3784C191.84 74.514 190.842 74.5845 189.855 74.59H189.827L189.833 74.5791Z" fill="#408F95"/>
<path d="M209.972 71.4709C209.623 71.4709 209.274 71.4655 208.925 71.4492C205.549 71.2973 202.168 70.3806 199.153 68.8021C198.776 68.6069 198.629 68.1404 198.831 67.7661C199.027 67.3918 199.496 67.2454 199.872 67.4461C202.692 68.9215 205.849 69.7731 208.996 69.9195C211.303 70.0226 213.599 69.7568 215.829 69.133C215.605 68.3899 215.164 67.2508 214.395 66.4805C214.155 66.2419 213.762 65.8459 213.141 65.5747C212.977 65.5042 212.852 65.4608 212.513 65.3577L212.273 65.2818C211.575 65.0594 211.008 64.8695 210.632 64.7393C210.228 64.6037 210.016 64.1644 210.152 63.763C210.294 63.3616 210.73 63.15 211.134 63.2856C211.505 63.4104 212.055 63.6002 212.742 63.8172L212.982 63.8931C213.348 64.0071 213.528 64.0667 213.773 64.1698C214.657 64.5603 215.202 65.1028 215.491 65.3903C216.871 66.768 217.394 68.8835 217.52 69.4965C217.601 69.8816 217.372 70.2667 216.996 70.386C214.711 71.1075 212.35 71.4763 209.978 71.4763L209.972 71.4709Z" fill="#408F95"/>
<path d="M212.873 52.7516C212.464 52.7516 212.121 52.4315 212.099 52.0193C212.077 51.5962 212.41 51.2382 212.835 51.2165C213.8 51.1731 214.657 51.0917 215.453 50.9778C215.873 50.9127 216.271 51.2056 216.331 51.6233C216.396 52.041 216.102 52.4369 215.682 52.4966C214.837 52.6214 213.926 52.7082 212.906 52.7516C212.895 52.7516 212.884 52.7516 212.868 52.7516H212.873Z" fill="#408F95"/>
<path d="M215.567 52.5021C215.164 52.5021 214.826 52.1875 214.798 51.7807C214.771 51.3576 215.093 50.9887 215.518 50.9616C218.174 50.7935 219.488 49.9147 219.614 49.1174C219.723 48.4285 218.986 47.2894 216.543 46.3293C216.145 46.1719 215.954 45.7272 216.107 45.3312C216.265 44.9352 216.712 44.7399 217.11 44.8972C219.897 45.9929 221.402 47.6636 221.135 49.356C220.857 51.1189 218.79 52.2906 215.611 52.4967C215.594 52.4967 215.578 52.4967 215.562 52.4967L215.567 52.5021Z" fill="#408F95"/>
<path d="M182.945 46.3346C182.591 46.3346 182.274 46.0905 182.192 45.7379C182.1 45.3256 182.362 44.9134 182.776 44.8212C190.962 42.9823 199.223 42.4616 207.338 43.2698C209.618 43.4977 211.913 43.834 214.171 44.2679C214.591 44.3493 214.864 44.7507 214.782 45.1683C214.7 45.586 214.297 45.8572 213.877 45.7759C211.668 45.3473 209.421 45.0165 207.185 44.7941C199.24 44.0021 191.142 44.512 183.12 46.3183C183.06 46.3291 183.005 46.34 182.951 46.34L182.945 46.3346Z" fill="#408F95"/>
<path d="M171.226 51.3247C170.975 51.3247 170.724 51.2 170.577 50.9776C170.342 50.625 170.44 50.1476 170.8 49.9144C172.158 49.0302 173.587 48.2274 175.043 47.5277C176.439 46.8551 177.89 46.2693 179.362 45.7757C179.706 45.6617 180 45.5695 180.207 45.5044C180.611 45.3743 181.047 45.6021 181.173 46.0089C181.298 46.4157 181.075 46.8442 180.666 46.969C180.469 47.0287 180.191 47.1209 179.858 47.2294C178.446 47.7013 177.055 48.2708 175.719 48.9109C174.318 49.5835 172.949 50.3538 171.651 51.2C171.52 51.2868 171.373 51.3247 171.231 51.3247H171.226Z" fill="#408F95"/>
<path d="M186.042 47.3759C185.884 47.3759 185.721 47.3108 185.606 47.1807C185.394 46.942 185.415 46.5786 185.655 46.367C185.764 46.2694 185.922 46.1338 186.124 45.9765C186.871 45.3906 187.7 44.9079 188.589 44.5336C189.276 44.2461 189.996 44.0237 190.738 43.8772C191.049 43.8122 191.354 44.0183 191.42 44.3329C191.48 44.6475 191.278 44.9458 190.961 45.0109C190.302 45.1411 189.658 45.3364 189.042 45.5968C188.246 45.9331 187.504 46.367 186.839 46.8877C186.659 47.0288 186.517 47.1481 186.419 47.2349C186.31 47.3325 186.173 47.3814 186.037 47.3814L186.042 47.3759Z" fill="#408F95"/>
<path d="M191.354 46.6436C191.163 46.6436 190.978 46.5514 190.863 46.3778C190.689 46.1121 190.771 45.754 191.038 45.5805C191.152 45.5045 191.321 45.4015 191.529 45.2767C192.303 44.8102 193.127 44.3817 193.988 44.002C194.648 43.7091 195.33 43.4433 196.006 43.2209C196.311 43.1178 196.639 43.2806 196.742 43.5843C196.846 43.8881 196.682 44.2135 196.377 44.3166C195.733 44.5281 195.09 44.7831 194.463 45.0597C193.65 45.4232 192.865 45.8246 192.134 46.2694C191.938 46.3887 191.78 46.4863 191.67 46.5568C191.572 46.6165 191.463 46.6491 191.36 46.6491L191.354 46.6436Z" fill="#408F95"/>
<path d="M197.816 46.6546C197.636 46.6546 197.462 46.5732 197.347 46.4214C197.157 46.1664 197.211 45.803 197.467 45.6131C197.582 45.5318 197.746 45.4124 197.947 45.2714C198.711 44.7561 199.54 44.3059 200.412 43.9262C201.088 43.6333 201.786 43.3892 202.485 43.1993C202.795 43.1179 203.112 43.2969 203.199 43.6007C203.286 43.9099 203.101 44.2245 202.795 44.3113C202.146 44.4903 201.503 44.7181 200.881 44.9839C200.074 45.3311 199.311 45.7542 198.607 46.2261C198.416 46.3508 198.269 46.4647 198.165 46.5407C198.062 46.6166 197.942 46.6546 197.822 46.6546H197.816Z" fill="#408F95"/>
<path d="M210.31 67.4459C210.31 67.4459 210.256 67.4459 210.228 67.4405L205.871 66.8384C205.555 66.795 205.331 66.5021 205.375 66.1875C205.418 65.8729 205.713 65.6505 206.029 65.6939L210.386 66.296C210.703 66.3394 210.926 66.6323 210.883 66.9469C210.845 67.2344 210.594 67.4459 210.31 67.4459Z" fill="#408F95"/>
<path d="M238.351 66.2851C238.248 66.2851 238.139 66.258 238.041 66.1929C236.748 65.3738 235.597 64.3758 234.632 63.2149C233.356 61.6799 232.151 60.2316 232.304 58.3873C232.462 56.4996 233.951 55.2683 235.521 53.9611C236.819 52.8816 238.286 52.0354 239.884 51.4388C240.184 51.3249 240.516 51.4767 240.631 51.7751C240.745 52.0734 240.593 52.4043 240.293 52.5182C238.815 53.0715 237.463 53.8526 236.263 54.8452C234.763 56.0928 233.58 57.0746 233.46 58.4795C233.345 59.8573 234.305 61.0127 235.521 62.4772C236.41 63.5458 237.463 64.4625 238.657 65.2165C238.93 65.3847 239.006 65.7427 238.837 66.0139C238.728 66.1875 238.537 66.2797 238.346 66.2797L238.351 66.2851Z" fill="#408F95"/>
<path d="M66.406 78.1533C66.1224 78.1533 65.8552 77.9798 65.7516 77.7031C65.5498 77.1824 65.5007 76.6671 65.5934 76.1735C66.057 73.7596 69.7653 72.9189 72.4702 72.3005C75.2732 71.6604 78.2017 71.4109 81.1738 71.5465C81.561 71.5628 81.8609 71.8937 81.8445 72.2788C81.8282 72.6639 81.501 72.9514 81.1083 72.946C78.2617 72.8104 75.4641 73.0545 72.7865 73.662C70.7196 74.1339 67.2622 74.9205 66.9731 76.4338C66.9295 76.6671 66.9622 76.9274 67.0658 77.2041C67.2022 77.5621 67.0222 77.9689 66.6568 78.1045C66.575 78.1371 66.4932 78.1479 66.406 78.1479V78.1533Z" fill="#408F95"/>
<path d="M74.1171 86.496C73.9972 86.496 73.8717 86.4635 73.7627 86.3984C72.5902 85.7095 71.4504 84.9609 70.3707 84.1798C69.9017 83.8381 69.2527 83.3716 68.4402 82.6773C67.6985 82.0481 66.9896 81.3755 66.3242 80.6812C66.2915 80.6486 66.2643 80.6106 66.237 80.5727C66.2097 80.5293 66.1606 80.4588 66.1006 80.3774C65.4026 79.3685 64.7537 78.3216 65.1736 77.5568C65.2935 77.3344 65.5989 76.9655 66.3188 76.9926C66.706 77.0035 67.0114 77.3235 67.0005 77.7086C66.9896 78.0124 66.7878 78.2673 66.5097 78.3541C66.6024 78.5819 66.815 78.9562 67.2513 79.5854C67.3004 79.656 67.344 79.7211 67.3767 79.7699C67.993 80.4154 68.6583 81.0392 69.3454 81.6196C70.1198 82.2759 70.736 82.7261 71.1887 83.0516C72.2303 83.8056 73.3319 84.527 74.4662 85.1942C74.7988 85.3895 74.9079 85.818 74.7116 86.1489C74.5807 86.3713 74.3462 86.4906 74.1062 86.4906L74.1171 86.496Z" fill="#408F95"/>
<path d="M92.9696 90.0112C92.6097 90.0112 92.2552 90.0058 91.9008 89.995C87.1345 89.8431 81.8283 88.7582 81.6048 88.7094C79.1889 88.1995 76.773 87.5432 74.4063 86.7566C74.0409 86.6319 73.8391 86.2413 73.9646 85.8725C74.09 85.509 74.4826 85.3083 74.8534 85.4331C77.1657 86.2034 79.5379 86.8434 81.8938 87.3425C81.9429 87.3533 87.309 88.449 91.9498 88.6009C93.3841 88.6497 94.851 88.6009 96.2962 88.449C96.9451 88.3839 97.2996 88.3297 98.7938 88.0964L100.593 87.8198C101.095 87.7439 101.548 87.6679 101.962 87.6028C103.271 87.3913 104.22 87.234 105.311 87.2177C106.794 87.1906 108.321 87.3859 109.837 87.7873C110.213 87.8849 110.431 88.27 110.333 88.6443C110.235 89.0186 109.848 89.2355 109.472 89.1379C108.081 88.7691 106.69 88.5901 105.332 88.6118C104.34 88.628 103.435 88.7745 102.186 88.9806C101.766 89.0511 101.308 89.1216 100.801 89.203L99.0065 89.4796C97.5232 89.7075 97.1196 89.7726 96.438 89.8376C95.2873 89.9516 94.1257 90.0112 92.9751 90.0112H92.9696Z" fill="#408F95"/>
<path d="M112.329 84.4404C112.046 84.4404 111.757 84.4296 111.473 84.4133C111.424 84.4133 111.375 84.4025 111.331 84.3862C110.955 84.2777 110.579 84.1475 110.213 84.0011C109.346 83.6539 108.73 83.2742 108.463 83.1115L108.392 83.0681C105.605 81.4137 102.72 79.8677 99.8136 78.4628C97.136 77.1719 95.0256 76.1521 92.1516 75.1757C89.1195 74.1451 85.9566 73.402 82.7445 72.9626C82.3628 72.9084 82.0901 72.5612 82.1446 72.1761C82.1992 71.7964 82.5482 71.5197 82.9354 71.5794C86.2401 72.0242 89.4904 72.789 92.6097 73.8522C95.56 74.8557 97.7086 75.8917 100.424 77.2044C103.369 78.6256 106.292 80.1932 109.112 81.8639L109.204 81.9181C109.439 82.0646 109.99 82.4009 110.742 82.7047C111.037 82.824 111.342 82.9271 111.647 83.0193C112.176 83.0518 112.711 83.0464 113.234 83.003C113.878 82.9488 114.347 82.8565 114.521 82.8186C116.321 82.4551 120.378 81.9778 123.83 81.8259C125.783 81.7446 127.255 81.7717 129 82.1677C129.529 82.287 130.053 82.4389 130.565 82.607C130.931 82.7318 131.127 83.1278 131.007 83.4912C130.882 83.8546 130.484 84.0499 130.118 83.9306C129.655 83.7733 129.175 83.6377 128.689 83.5292C127.097 83.1657 125.728 83.1386 123.89 83.22C120.155 83.3827 116.267 83.8872 114.816 84.1801C114.603 84.2235 114.074 84.332 113.349 84.3916C113.011 84.4187 112.667 84.435 112.329 84.435V84.4404Z" fill="#408F95"/>
<path d="M124.185 100.653C124.038 100.653 123.885 100.605 123.759 100.507L117.046 95.3702C115.836 94.345 114.674 93.2818 113.567 92.1915C112.738 91.3725 111.915 90.5208 111.129 89.6584C110.868 89.3709 110.889 88.9315 111.178 88.6711C111.468 88.4108 111.909 88.4325 112.171 88.72C112.94 89.5662 113.742 90.3961 114.554 91.1989C115.634 92.262 116.774 93.3035 117.93 94.2853L124.616 99.4004C124.921 99.6337 124.981 100.073 124.747 100.382C124.61 100.561 124.397 100.653 124.19 100.653H124.185Z" fill="#408F95"/>
<path d="M124.19 100.654C123.934 100.654 123.683 100.513 123.563 100.269C122.581 98.3104 121.949 96.26 121.676 94.1716C121.447 92.4196 121.267 91.0364 121.883 89.4254C122.576 87.6082 123.863 86.5993 125.493 85.3246L125.635 85.2161C126.971 84.1692 128.466 83.3013 130.074 82.6287C130.434 82.4768 130.843 82.645 130.99 83.003C131.138 83.361 130.974 83.7678 130.614 83.9143C129.125 84.5326 127.74 85.3408 126.502 86.3064L126.361 86.4149C124.845 87.6028 123.748 88.4598 123.192 89.9135C122.701 91.1937 122.849 92.3057 123.067 93.9818C123.318 95.9128 123.907 97.8168 124.817 99.6339C124.992 99.9811 124.85 100.399 124.501 100.572C124.403 100.621 124.294 100.648 124.19 100.648V100.654Z" fill="#408F95"/>
<path d="M81.0974 84.1528C80.841 84.1528 80.5738 84.1365 80.3012 84.1039C78.3488 83.8544 77.0455 82.7967 76.4402 82.1892C76.1675 81.9125 76.1675 81.4731 76.4456 81.2019C76.7237 80.9307 77.1655 80.9307 77.4381 81.2074C77.918 81.6901 78.9433 82.5255 80.4811 82.7207C82.0135 82.9214 83.1315 82.3573 83.8731 81.983C83.9822 81.9288 84.0694 81.88 84.1403 81.842C83.7968 81.6684 83.1751 81.4677 82.2862 81.2291C80.8029 80.8331 79.2268 80.6324 77.5963 80.6324C77.2091 80.6324 76.8928 80.3178 76.8928 79.9326C76.8928 79.5475 77.2091 79.2329 77.5963 79.2329C79.3523 79.2329 81.0483 79.4499 82.6516 79.8784C84.3694 80.3395 85.7873 80.8005 85.7818 81.8637C85.7818 82.5038 85.1656 82.8997 84.5057 83.2306C83.8295 83.5669 82.657 84.1582 81.0974 84.1582V84.1528Z" fill="#408F95"/>
<path d="M73.3428 84.1095C73.0756 84.1095 72.8192 83.9576 72.6993 83.6973C72.5411 83.3447 72.6993 82.9324 73.0537 82.7751C74.3353 82.2001 75.4369 81.3865 76.3203 80.3559C76.7893 79.808 77.1929 79.2005 77.5201 78.555C77.6946 78.2078 78.1145 78.0722 78.4635 78.2458C78.8125 78.4194 78.9489 78.8371 78.7743 79.1842C78.3981 79.9328 77.9291 80.6325 77.3892 81.2672C76.3694 82.4605 75.1042 83.3989 73.6263 84.0553C73.5336 84.0987 73.4355 84.1149 73.3373 84.1149L73.3428 84.1095Z" fill="#408F95"/>
<path d="M70.8669 76.8842C70.7524 76.8842 70.6378 76.8679 70.5233 76.8408C69.798 76.6564 69.3563 75.9132 69.5472 75.1918C69.6399 74.8392 69.858 74.5463 70.1743 74.3673C70.4906 74.1829 70.856 74.1341 71.205 74.2209C71.5595 74.3131 71.8539 74.53 72.0394 74.8447C72.2248 75.1538 72.2739 75.5227 72.1866 75.8698C72.0939 76.217 71.8758 76.5153 71.5595 76.6943C71.3468 76.8191 71.1123 76.8842 70.8723 76.8842H70.8669ZM70.8669 75.4901C70.8669 75.4901 70.8287 75.5064 70.8232 75.5227C70.8232 75.5444 70.8342 75.5715 70.856 75.5769C70.8832 75.5824 70.9051 75.5661 70.9105 75.5444C70.916 75.5227 70.9051 75.4956 70.8778 75.4901C70.8778 75.4901 70.8778 75.4901 70.8723 75.4901H70.8669Z" fill="#408F95"/>
<path d="M87.8323 92.7017C87.6087 92.7017 87.4233 92.6854 87.3033 92.6746C86.5944 92.6041 85.88 92.4847 85.1874 92.3166C84.2385 92.0887 83.3005 91.7633 82.4062 91.3619C79.1614 89.8919 77.4218 88.7148 74.5369 86.7675C74.2152 86.5505 74.1334 86.1166 74.3515 85.7965C74.5697 85.4765 75.0059 85.3951 75.3277 85.6121C78.2453 87.5811 79.854 88.666 82.9897 90.0926C83.8023 90.4614 84.6584 90.7544 85.5201 90.9605C86.1472 91.1124 86.7962 91.2208 87.4397 91.2859C87.8378 91.3239 88.225 91.2914 88.454 91.2426C88.2522 90.9334 87.6905 90.3313 86.4799 89.4254C86.169 89.1922 86.109 88.7582 86.3381 88.449C86.5726 88.1398 87.0089 88.0802 87.3197 88.308C90.0518 90.3475 90.1282 91.248 89.8446 91.8555C89.512 92.5715 88.5085 92.7017 87.8269 92.7017H87.8323Z" fill="#408F95"/>
<path d="M103.609 94.0086C102.028 94.0086 100.468 93.7862 98.9465 93.3468C96.607 92.6688 94.3984 91.4537 92.5551 89.8373C92.2661 89.5824 92.2388 89.143 92.4952 88.8501C92.7515 88.5626 93.1932 88.5355 93.4877 88.7904C95.1782 90.2712 97.2014 91.3832 99.3446 92.007C100.866 92.4464 102.437 92.6471 104.018 92.6091C103.98 92.0775 103.855 91.3236 103.506 90.7486C103.38 90.5425 103.189 90.2278 102.824 89.9512C102.715 89.8698 102.633 89.821 102.442 89.7071L102.284 89.6149C101.837 89.3437 101.471 89.1159 101.231 88.964C100.904 88.7579 100.812 88.3239 101.019 87.9985C101.226 87.673 101.662 87.5808 101.99 87.7869C102.224 87.9388 102.573 88.1558 103.015 88.4215L103.167 88.5138C103.424 88.6711 103.533 88.7362 103.68 88.8446C104.253 89.2786 104.558 89.7831 104.705 90.0271C105.452 91.253 105.452 92.8424 105.436 93.298C105.425 93.656 105.142 93.9435 104.782 93.9706C104.389 93.9977 104.002 94.0086 103.609 94.0086Z" fill="#408F95"/>
<path d="M106.947 81.3321C106.947 81.3321 106.903 81.3321 106.881 81.3321C106.265 81.2779 105.616 81.1802 104.896 81.0446C104.514 80.9687 104.269 80.6053 104.34 80.2255C104.416 79.8458 104.787 79.6018 105.163 79.6723C105.84 79.8025 106.439 79.8892 107.007 79.9435C107.394 79.976 107.677 80.3178 107.645 80.7029C107.612 81.0663 107.306 81.3375 106.947 81.3375V81.3321Z" fill="#408F95"/>
<path d="M108.304 81.4625C107.846 81.4625 107.35 81.4191 106.821 81.3269C106.439 81.2618 106.183 80.8984 106.254 80.5187C106.319 80.139 106.685 79.884 107.067 79.9546C108.85 80.2692 109.864 79.9112 110.06 79.4555C110.24 79.0324 109.815 78.1374 108.457 77.1827C108.141 76.9603 108.065 76.5264 108.288 76.2118C108.512 75.8972 108.948 75.8212 109.264 76.0436C111.075 77.3183 111.855 78.7938 111.353 79.9925C110.949 80.9526 109.848 81.4679 108.304 81.4679V81.4625Z" fill="#408F95"/>
<path d="M107.007 76.4123C106.908 76.4123 106.81 76.3907 106.712 76.3473C105.256 75.6801 103.756 75.078 102.246 74.5518C96.8797 72.675 91.1863 71.6715 85.3294 71.5739C84.9422 71.5684 84.6313 71.2484 84.6368 70.8633C84.6422 70.4782 84.9749 70.169 85.3512 70.1744C91.3608 70.272 97.2014 71.3026 102.709 73.2283C104.258 73.7707 105.801 74.3891 107.296 75.0725C107.65 75.2353 107.803 75.6475 107.639 76.0001C107.519 76.255 107.268 76.4069 107.001 76.4069L107.007 76.4123Z" fill="#408F95"/>
<path d="M76.3693 73.0712C76.0803 73.0712 75.8076 72.8922 75.7095 72.6047C75.5786 72.2413 75.7695 71.8399 76.1348 71.7151C77.231 71.3246 78.3653 71.0099 79.505 70.7659C80.5903 70.5326 81.7082 70.3699 82.8207 70.2722C83.0825 70.2505 83.3006 70.2343 83.4533 70.2234C83.8459 70.1963 84.1731 70.4892 84.2004 70.8743C84.2222 71.2595 83.9332 71.5903 83.546 71.6175C83.3988 71.6283 83.1915 71.6392 82.9461 71.6609C81.8936 71.7531 80.8357 71.9104 79.805 72.1328C78.7252 72.3606 77.6509 72.6644 76.6093 73.0332C76.5329 73.0603 76.4511 73.0712 76.3748 73.0712H76.3693Z" fill="#408F95"/>
<path d="M87.516 72.2737C87.3797 72.2737 87.2433 72.1978 87.1725 72.0676C87.0743 71.8778 87.1452 71.6499 87.336 71.5469C87.4288 71.4981 87.5596 71.433 87.7287 71.357C88.3449 71.0804 88.9993 70.8797 89.681 70.7712C90.2045 70.6844 90.739 70.6573 91.2789 70.679C91.4915 70.6898 91.6551 70.8688 91.6497 71.0804C91.6388 71.2919 91.4643 71.4547 91.2461 71.4492C90.7662 71.4275 90.2809 71.4547 89.8064 71.5306C89.1957 71.6282 88.6067 71.8072 88.0504 72.0568C87.9032 72.1219 87.7832 72.1815 87.7014 72.2249C87.6414 72.2575 87.5815 72.2683 87.5215 72.2683L87.516 72.2737Z" fill="#408F95"/>
<path d="M91.099 73.0167C90.9408 73.0167 90.7881 72.9191 90.7336 72.7564C90.6627 72.5557 90.7718 72.3387 90.9735 72.2682C91.0662 72.2356 91.2026 72.1922 91.3662 72.138C91.9824 71.9481 92.6259 71.7854 93.2858 71.6661C93.7929 71.5739 94.311 71.5033 94.8182 71.46C95.0254 71.4383 95.2163 71.601 95.2381 71.8125C95.2544 72.0241 95.0963 72.2085 94.8836 72.2302C94.4037 72.2736 93.9129 72.3387 93.4276 72.4255C92.8004 72.5394 92.1842 72.6913 91.6007 72.8703C91.4425 72.9191 91.3171 72.9625 91.2298 72.9896C91.1862 73.0059 91.148 73.0113 91.1044 73.0113L91.099 73.0167Z" fill="#408F95"/>
<path d="M95.5817 74.1125C95.429 74.1125 95.2872 74.0258 95.2273 73.8793C95.1455 73.684 95.2382 73.4562 95.4345 73.3748C95.5272 73.3369 95.6635 73.2826 95.8271 73.223C96.4434 72.9951 97.0923 72.8216 97.7576 72.7022C98.2757 72.6154 98.7992 72.5612 99.3173 72.5449C99.53 72.5449 99.7099 72.7076 99.7154 72.9192C99.7209 73.1307 99.5518 73.3097 99.3391 73.3152C98.8592 73.3314 98.3684 73.3803 97.8885 73.4616C97.2668 73.5701 96.667 73.7328 96.0943 73.9444C95.9417 73.9986 95.8162 74.0529 95.7344 74.0854C95.6853 74.1071 95.6363 74.118 95.5872 74.118L95.5817 74.1125Z" fill="#408F95"/>
<path d="M100.73 90.6405C100.681 90.6405 100.632 90.6297 100.588 90.6134L97.6649 89.4635C97.4686 89.3875 97.3705 89.1597 97.4468 88.9644C97.5232 88.7692 97.7522 88.6715 97.9485 88.7475L100.872 89.8974C101.068 89.9733 101.166 90.2012 101.09 90.3964C101.03 90.5483 100.882 90.6405 100.73 90.6405Z" fill="#408F95"/>
<path d="M120.384 94.7355C120.231 94.7355 120.078 94.6759 119.964 94.5565C119.189 93.7592 118.557 92.8587 118.077 91.8769C117.433 90.5697 116.828 89.3329 117.275 88.0094C117.728 86.6587 118.998 86.0404 120.345 85.384C121.447 84.847 122.625 84.4998 123.857 84.348C124.179 84.31 124.463 84.5324 124.501 84.8524C124.539 85.167 124.316 85.4545 123.994 85.4925C122.898 85.6227 121.84 85.9373 120.858 86.4146C119.642 87.0113 118.677 87.4778 118.377 88.3728C118.082 89.2461 118.54 90.1845 119.124 91.367C119.549 92.2403 120.116 93.0431 120.804 93.7537C121.027 93.9815 121.016 94.3504 120.787 94.5674C120.673 94.6759 120.531 94.7301 120.384 94.7301V94.7355Z" fill="#408F95"/>
<path d="M17.2491 12.7741C17.1401 12.7741 17.031 12.747 16.9274 12.6982C14.397 11.3963 11.7466 10.4579 9.05813 9.90464C6.98038 9.47612 3.51203 8.76011 2.61222 10.0186C2.47588 10.2138 2.39408 10.4633 2.37227 10.7563C2.345 11.1414 2.00689 11.4289 1.62515 11.4072C1.23796 11.3801 0.943478 11.0492 0.970745 10.664C1.00892 10.1053 1.17797 9.61716 1.467 9.21033C2.89579 7.20876 6.62046 7.97901 9.3417 8.53772C12.1557 9.11812 14.9205 10.0999 17.5709 11.4614C17.9144 11.6404 18.0508 12.0581 17.8708 12.3998C17.7454 12.6385 17.5 12.7795 17.2491 12.7795V12.7741Z" fill="#408F95"/>
<path d="M5.1916 22.1854C4.96801 22.1854 4.74987 22.0823 4.61354 21.8871C3.8337 20.7751 3.11385 19.6251 2.45945 18.4643C2.17587 17.9599 1.78323 17.2655 1.33605 16.3C0.927043 15.4213 0.561666 14.5154 0.245369 13.6041C0.229009 13.5607 0.218102 13.5173 0.212649 13.4685C0.207195 13.4143 0.190835 13.3329 0.174475 13.2299C-0.0382073 12.0257 -0.190902 10.8052 0.512585 10.279C0.714361 10.1271 1.15063 9.92102 1.79413 10.2411C2.14315 10.4092 2.28494 10.8323 2.11588 11.174C1.97955 11.4453 1.68506 11.5971 1.40149 11.5592C1.39603 11.8033 1.42876 12.2372 1.55964 12.9858C1.576 13.0726 1.5869 13.1485 1.59781 13.2082C1.89229 14.0544 2.2304 14.8951 2.61214 15.7088C3.03751 16.6255 3.41379 17.2872 3.68646 17.7754C4.31905 18.8928 5.01709 20.0048 5.76966 21.0843C5.99324 21.3989 5.91144 21.8382 5.59515 22.0552C5.47517 22.142 5.33338 22.18 5.19705 22.18L5.1916 22.1854Z" fill="#408F95"/>
<path d="M36.3795 39.3264C36.2213 39.3264 36.0632 39.2721 35.9323 39.1636C34.8253 38.2524 33.631 37.5147 32.393 36.9722C31.4878 36.5762 30.6043 36.3376 29.3773 36.0067C28.9683 35.8928 28.5211 35.7734 28.0249 35.6324L26.2689 35.1388C24.8292 34.732 24.442 34.6235 23.7876 34.4011C22.3479 33.9129 20.9409 33.3271 19.5994 32.6653C15.3294 30.5553 10.9612 27.3658 10.7758 27.2301C8.79621 25.7656 6.87117 24.1654 5.04973 22.473C4.76616 22.2072 4.7498 21.7679 5.01701 21.4858C5.28423 21.2037 5.72595 21.1875 6.00953 21.4533C7.79279 23.1077 9.67421 24.6753 11.6102 26.1073C11.6538 26.1399 16.071 29.3565 20.2265 31.4123C21.5135 32.0469 22.8605 32.6056 24.2402 33.0776C24.8565 33.2837 25.2 33.3813 26.6452 33.7881L28.4012 34.2818C28.892 34.4228 29.3337 34.5421 29.7427 34.6506C31.0242 34.9978 31.9459 35.2527 32.9493 35.6867C34.3126 36.2779 35.616 37.0861 36.8212 38.0788C37.1211 38.3229 37.1593 38.7622 36.9139 39.0606C36.7776 39.2287 36.5758 39.3155 36.374 39.3155L36.3795 39.3264Z" fill="#408F95"/>
<path d="M57.3643 43.183C57.1898 43.183 57.0207 43.1179 56.8844 42.9931C56.5245 42.6568 56.1482 42.3368 55.7555 42.0384C54.4631 41.0512 53.2252 40.46 51.5237 39.7711C48.0553 38.3716 44.3143 37.2216 42.8746 36.8853C42.6619 36.8365 42.133 36.7118 41.4513 36.4677C40.8623 36.2561 40.2897 36.0012 39.7389 35.7028C39.6953 35.6811 39.6571 35.654 39.6189 35.6215C39.3245 35.3665 39.0354 35.0953 38.7628 34.8078C38.1247 34.1352 37.7157 33.5331 37.5466 33.2727L37.4976 33.2022C35.6598 30.5497 33.6802 27.9406 31.6243 25.4617C29.7265 23.1781 28.2377 21.3772 26.04 19.2997C23.7168 17.1083 21.1537 15.1176 18.4161 13.3926C18.0889 13.1865 17.9908 12.7526 18.198 12.4271C18.4052 12.1016 18.8415 12.004 19.1687 12.2101C21.9827 13.9839 24.6221 16.0288 27.0107 18.2854C29.2684 20.4225 30.7899 22.2505 32.7095 24.5667C34.7981 27.0836 36.7995 29.7198 38.6591 32.4103L38.7191 32.4971C38.8718 32.7249 39.2317 33.2565 39.788 33.8477C40.0061 34.081 40.2406 34.3034 40.4806 34.5095C40.9441 34.759 41.4349 34.976 41.9312 35.155C42.5365 35.3719 43 35.4804 43.18 35.5238C44.9687 35.9415 48.857 37.1837 52.0581 38.4801C53.8687 39.2124 55.1938 39.847 56.6172 40.9319C57.048 41.2628 57.4624 41.6153 57.8551 41.9788C58.1387 42.2446 58.1496 42.6839 57.8823 42.966C57.746 43.1124 57.5606 43.183 57.3697 43.183H57.3643Z" fill="#408F95"/>
<path d="M44.7887 55.7996C44.5378 55.7996 44.2924 55.664 44.167 55.4253L40.2133 47.9777C39.5425 46.5403 38.9317 45.0974 38.3809 43.6491C37.9665 42.5643 37.5793 41.4523 37.2303 40.3349C37.1158 39.966 37.3175 39.5755 37.6884 39.4615C38.0592 39.3476 38.4518 39.5483 38.5664 39.9172C38.9099 41.0075 39.2917 42.0978 39.6952 43.1555C40.2351 44.5713 40.8295 45.987 41.473 47.3594L45.4104 54.7744C45.5903 55.1161 45.4594 55.5392 45.1159 55.7182C45.0123 55.7725 44.8977 55.7996 44.7887 55.7996Z" fill="#408F95"/>
<path d="M44.7832 55.7998C44.4069 55.7998 44.0961 55.5015 44.0797 55.1218C44.0088 52.9358 44.2924 50.8094 44.9196 48.797C45.4485 47.1101 45.863 45.7757 47.0955 44.5715C48.4861 43.2046 50.0785 42.8249 52.0962 42.3421L52.2707 42.2987C53.9231 41.9027 55.6464 41.7291 57.386 41.7888C57.7732 41.7997 58.0786 42.1251 58.0622 42.5102C58.0513 42.8954 57.735 43.2046 57.3369 43.1829C55.7227 43.1286 54.1303 43.2859 52.5979 43.6548L52.4234 43.6982C50.5475 44.1484 49.195 44.4739 48.0771 45.5696C47.0955 46.5297 46.7628 47.5983 46.2611 49.2147C45.6776 51.0752 45.4158 53.0497 45.4867 55.0784C45.4976 55.4635 45.1977 55.789 44.805 55.7998C44.7996 55.7998 44.7887 55.7998 44.7832 55.7998Z" fill="#408F95"/>
<path d="M15.1003 23.4602C14.1787 23.4602 12.8645 23.3355 11.5229 22.5001C9.85418 21.4641 9.11252 19.9615 8.81804 19.1587C8.68716 18.7953 8.87257 18.3939 9.23795 18.2637C9.60333 18.1335 10.0069 18.318 10.1378 18.6814C10.3723 19.316 10.9558 20.504 12.27 21.3176C13.5788 22.1313 14.8331 22.0824 15.662 22.0499C15.782 22.0499 15.8802 22.0391 15.962 22.0282C15.7166 21.7299 15.2421 21.2851 14.5332 20.6992C13.3498 19.7229 12.0028 18.8875 10.5195 18.2149C10.165 18.0522 10.0123 17.6399 10.1759 17.2874C10.3341 16.9348 10.754 16.7829 11.1085 16.9456C12.7009 17.6725 14.1569 18.5729 15.433 19.6252C16.8018 20.7535 17.8979 21.7678 17.4508 22.7279C17.1781 23.3138 16.4255 23.4168 15.7166 23.444C15.5421 23.4494 15.3348 23.4602 15.1058 23.4602H15.1003Z" fill="#408F95"/>
<path d="M5.57883 19.6901C5.54611 19.6901 5.51884 19.6901 5.48612 19.6901C5.09893 19.6901 4.78809 19.3701 4.78809 18.9849C4.78809 18.5998 5.10438 18.2906 5.49157 18.2906C5.51884 18.2906 5.55156 18.2906 5.57883 18.2906C6.95308 18.2906 8.26735 18.0086 9.48346 17.4444C10.1379 17.1407 10.7596 16.7555 11.3322 16.3053C11.6375 16.0612 12.0793 16.1101 12.3192 16.4138C12.5592 16.7176 12.5155 17.1569 12.2102 17.3956C11.5503 17.9218 10.8359 18.3611 10.0779 18.7137C8.67635 19.3592 7.16577 19.6901 5.58428 19.6901H5.57883Z" fill="#408F95"/>
<path d="M6.53326 12.1558C6.23333 12.1558 5.92794 12.0581 5.67708 11.852C5.39351 11.6242 5.219 11.2987 5.18082 10.9407C5.14265 10.5827 5.25172 10.2301 5.48076 9.94808C5.7098 9.66602 6.03701 9.49244 6.39693 9.45447C6.75685 9.4165 7.11132 9.51956 7.3949 9.75281C7.67848 9.98063 7.85299 10.3061 7.89116 10.6641C7.92933 11.0221 7.82026 11.3747 7.59122 11.6567C7.32401 11.9876 6.93136 12.1558 6.53326 12.1558ZM6.53326 10.7617C6.53326 10.7617 6.506 10.7617 6.50054 10.778C6.48964 10.7943 6.48964 10.8268 6.506 10.8377C6.52236 10.8539 6.55508 10.8485 6.56598 10.8322C6.57689 10.816 6.57689 10.7834 6.56053 10.7726C6.55508 10.7672 6.54417 10.7617 6.53326 10.7617Z" fill="#408F95"/>
<path d="M16.1148 33.7932C15.3895 33.7932 14.5933 33.3755 14.2988 33.2019C13.6826 32.8439 13.0882 32.4425 12.5265 32.0032C11.7576 31.4011 11.0377 30.7176 10.3942 29.9799C8.06015 27.2949 6.96947 25.5103 5.1644 22.5432C4.96263 22.2123 5.07169 21.7837 5.3989 21.583C5.73155 21.3823 6.16237 21.4908 6.36415 21.8163C8.19103 24.8159 9.19991 26.4704 11.4576 29.0632C12.0411 29.7358 12.6955 30.3542 13.3936 30.902C13.9007 31.3034 14.4461 31.6669 15.0078 31.9923C15.3568 32.193 15.7167 32.3232 15.9512 32.372C15.8967 32.0086 15.6404 31.2275 14.9151 29.9039C14.7297 29.5676 14.8551 29.1391 15.1986 28.9547C15.5368 28.7703 15.9676 28.895 16.153 29.2368C17.7836 32.2256 17.4782 33.0717 16.9655 33.5111C16.7256 33.7118 16.4311 33.7878 16.1203 33.7878L16.1148 33.7932Z" fill="#408F95"/>
<path d="M29.8955 41.6585C29.8137 41.6585 29.7319 41.6422 29.6501 41.6151C27.796 40.9208 26.1 39.9173 24.6112 38.6317C22.768 37.0478 21.2683 35.0245 20.2703 32.7951C20.1122 32.4426 20.2703 32.0303 20.6248 31.873C20.9793 31.7157 21.3937 31.873 21.5519 32.2256C22.468 34.276 23.8423 36.1257 25.5274 37.574C26.7217 38.6046 28.0632 39.4345 29.5247 40.0583C29.7101 39.5538 29.9119 38.827 29.8356 38.1544C29.8083 37.9157 29.7647 37.5523 29.552 37.1454C29.4865 37.0261 29.432 36.9502 29.3066 36.7657L29.203 36.6139C28.9085 36.1799 28.674 35.8219 28.5213 35.5832C28.3141 35.2578 28.4068 34.8238 28.734 34.6177C29.0612 34.4116 29.492 34.5038 29.7047 34.8293C29.8519 35.0625 30.081 35.4097 30.37 35.8328L30.4736 35.9846C30.6427 36.2342 30.7136 36.3372 30.7954 36.5C31.1335 37.1346 31.1989 37.715 31.2316 37.9971C31.3952 39.4128 30.7354 40.8611 30.5281 41.2733C30.4082 41.5174 30.1573 41.6585 29.901 41.6585H29.8955Z" fill="#408F95"/>
<path d="M37.1975 31.0921C37.0775 31.0921 36.9575 31.065 36.8485 30.9999C36.314 30.6961 35.7632 30.3381 35.1634 29.915C34.8471 29.6926 34.7762 29.2533 34.9998 28.9387C35.2234 28.6241 35.6651 28.5535 35.9814 28.7759C36.5376 29.1719 37.0502 29.5028 37.5465 29.7849C37.8846 29.9747 37.9991 30.4032 37.8083 30.7395C37.6774 30.9619 37.4429 31.0921 37.1975 31.0921Z" fill="#408F95"/>
<path d="M39.9623 32.1714C39.0571 32.1714 37.9609 31.7646 36.7994 30.9672C36.4776 30.7502 36.4013 30.3109 36.6194 29.9963C36.8375 29.6762 37.2793 29.6003 37.5956 29.8173C39.0843 30.837 40.1587 30.9401 40.524 30.5984C40.8621 30.2838 40.8512 29.2965 40.0169 27.8699C39.8205 27.5391 39.9351 27.1105 40.2732 26.9153C40.6058 26.72 41.0367 26.8339 41.233 27.1702C42.3455 29.0796 42.4382 30.7448 41.4784 31.6236C41.0803 31.987 40.5622 32.1714 39.9623 32.1714Z" fill="#408F95"/>
<path d="M39.319 26.6442C39.1227 26.6442 38.9263 26.5629 38.7846 26.4001C37.7375 25.1905 36.6305 24.0189 35.4798 22.9177C31.3898 18.9851 26.6344 15.7197 21.3501 13.2028C21.001 13.0346 20.8538 12.617 21.0174 12.2698C21.1865 11.9226 21.6009 11.7762 21.9554 11.9389C27.3761 14.5155 32.2568 17.8731 36.456 21.9088C37.6339 23.0425 38.7791 24.2467 39.848 25.4889C40.0988 25.7818 40.0661 26.2211 39.7716 26.4761C39.6407 26.59 39.4771 26.6442 39.3135 26.6442H39.319Z" fill="#408F95"/>
<path d="M19.9539 12.541C19.8721 12.541 19.7849 12.5248 19.7031 12.4922C19.5667 12.438 19.3704 12.3675 19.1359 12.2861C18.1379 11.9335 17.1127 11.6406 16.082 11.4128C15.0022 11.1741 13.9006 11.006 12.7991 10.9083C12.4119 10.8758 12.1283 10.534 12.161 10.1489C12.1937 9.76379 12.5318 9.48173 12.9245 9.51427C14.0861 9.61734 15.2476 9.79634 16.3874 10.0459C17.4726 10.2845 18.5524 10.5937 19.6049 10.968C19.8503 11.0548 20.0575 11.1307 20.2048 11.1904C20.5647 11.326 20.7501 11.7328 20.6083 12.0908C20.4993 12.3675 20.2375 12.541 19.9539 12.541Z" fill="#408F95"/>
<path d="M26.9451 15.5732C26.8852 15.5732 26.8252 15.5569 26.7706 15.5298C26.3398 15.3128 25.8926 15.1392 25.4291 15.009C24.8347 14.8463 24.2184 14.7649 23.6131 14.7595C23.4495 14.7595 23.3132 14.7595 23.2259 14.7704C23.0023 14.7812 22.8278 14.6185 22.8169 14.4069C22.806 14.1954 22.9696 14.011 23.1823 14.0001C23.2859 13.9947 23.4386 13.9893 23.6186 13.9893C24.2948 13.9893 24.9765 14.0815 25.6363 14.2659C26.1489 14.4069 26.6507 14.6022 27.1251 14.8409C27.316 14.9385 27.3923 15.1718 27.2942 15.3562C27.2233 15.4918 27.0924 15.5677 26.9506 15.5677L26.9451 15.5732Z" fill="#408F95"/>
<path d="M29.8792 17.7807C29.8355 17.7807 29.7919 17.7752 29.7483 17.759C29.2902 17.5962 28.8212 17.4552 28.3413 17.3305C27.7251 17.1731 27.1034 17.0592 26.4926 16.9779C26.329 16.9562 26.1981 16.9453 26.1054 16.9345C25.8927 16.9128 25.7346 16.7284 25.7564 16.5168C25.7782 16.3053 25.9691 16.1534 26.1763 16.1697C26.2745 16.1805 26.4163 16.1913 26.5853 16.213C27.2234 16.2944 27.8778 16.4192 28.5267 16.5819C29.0284 16.7067 29.5247 16.8585 30.0046 17.0321C30.2064 17.1026 30.31 17.325 30.2391 17.5257C30.1846 17.683 30.0319 17.7807 29.8737 17.7807H29.8792Z" fill="#408F95"/>
<path d="M33.5055 20.6123C33.4565 20.6123 33.4074 20.6015 33.3528 20.5798C32.9057 20.3899 32.4421 20.238 31.9731 20.1133C31.3624 19.956 30.7461 19.8529 30.1408 19.8095C29.9772 19.7987 29.8463 19.7933 29.7536 19.7878C29.5409 19.7824 29.3719 19.6034 29.3773 19.3919C29.3828 19.1803 29.5573 19.0176 29.7754 19.0176C29.8736 19.0176 30.0208 19.0284 30.1953 19.0393C30.8497 19.0881 31.5151 19.1966 32.1695 19.3702C32.6712 19.5003 33.1729 19.6685 33.6528 19.8746C33.8491 19.956 33.9418 20.1838 33.86 20.3791C33.8 20.5255 33.6528 20.6123 33.5055 20.6123Z" fill="#408F95"/>
<path d="M27.5179 36.9447C27.4143 36.9447 27.3161 36.9068 27.2398 36.8254L25.0639 34.5689C24.9167 34.417 24.9221 34.1729 25.0748 34.0265C25.2275 33.88 25.4729 33.8854 25.6201 34.0373L27.796 36.2938C27.9433 36.4457 27.9378 36.6898 27.7851 36.8363C27.7088 36.9068 27.6161 36.9447 27.5179 36.9447Z" fill="#408F95"/>
<path d="M43.7581 48.835C43.5181 48.835 43.2945 48.6886 43.2127 48.4499C42.8419 47.403 42.6456 46.3236 42.6183 45.2333C42.5856 43.7741 42.5474 42.4018 43.5072 41.382C44.4834 40.346 45.8958 40.308 47.3955 40.2646C48.6225 40.2321 49.8386 40.4056 51.022 40.7799C51.3274 40.8775 51.4964 41.203 51.3983 41.5068C51.3001 41.8105 50.9729 41.9787 50.6675 41.881C49.615 41.5447 48.5189 41.3929 47.4282 41.42C46.0703 41.4579 45.0015 41.4851 44.3525 42.174C43.7199 42.8466 43.7472 43.888 43.7744 45.2061C43.7963 46.1771 43.9762 47.1426 44.3034 48.0702C44.407 48.3685 44.2489 48.6994 43.9489 48.8025C43.8835 48.8242 43.8181 48.835 43.7581 48.835Z" fill="#408F95"/>
</g>
<defs>
<clipPath id="clip0_278_40636">
<rect width="301" height="138" fill="white"/>
</clipPath>
</defs>
</svg>
