<svg width="301" height="138" viewBox="0 0 301 138" fill="none" xmlns="http://www.w3.org/2000/svg">
<g clip-path="url(#clip0_2638_34362)">
<path d="M63.947 15.3345C63.6852 15.3345 63.4343 15.1881 63.3144 14.9386C62.9381 14.1629 62.7908 13.3872 62.8672 12.6386C63.2653 8.80908 69.2367 6.89972 73.5995 5.50567C78.2021 4.03568 83.0775 3.18949 88.0837 2.99421C88.4545 2.96709 88.7981 3.27628 88.8144 3.66683C88.8308 4.05195 88.5254 4.37741 88.1382 4.39368C83.2574 4.58354 78.513 5.40261 74.0303 6.83463C70.491 7.96831 64.5632 9.86139 64.2632 12.7851C64.2142 13.2787 64.3178 13.7994 64.5795 14.3419C64.7486 14.689 64.6014 15.1067 64.2523 15.2749C64.1542 15.3237 64.0506 15.3454 63.947 15.3454V15.3345Z" fill="#408F95"/>
<path d="M142.601 19.6144C142.601 19.6144 142.546 19.6144 142.519 19.6144C141.39 19.4842 140.261 19.251 139.165 18.9147C137.709 18.4699 136.624 17.9274 136.166 17.6996L136.013 17.6237C131.045 15.2261 125.919 13.013 120.782 11.0548C116.054 9.25395 112.313 7.82736 107.284 6.57977C101.978 5.26708 96.4813 4.45886 90.9516 4.18764C90.5644 4.16594 90.2645 3.84049 90.2863 3.45536C90.3081 3.07023 90.6298 2.7719 91.0225 2.79359C96.6449 3.07023 102.229 3.8893 107.628 5.22911C112.743 6.4984 116.512 7.93584 121.289 9.75299C126.464 11.7274 131.628 13.9514 136.629 16.3652L136.798 16.4466C137.267 16.6798 138.243 17.168 139.585 17.5803C140.599 17.8895 141.641 18.1064 142.688 18.2258C143.075 18.2692 143.348 18.6163 143.304 18.996C143.266 19.354 142.961 19.6144 142.606 19.6144H142.601Z" fill="#408F95"/>
<path d="M76.9259 27.7074C76.8169 27.7074 76.7078 27.6803 76.6042 27.6314C75.399 27.0076 73.5994 26.053 71.8925 25.0332C71.4398 24.762 70.5946 24.2629 69.5039 23.5307C69.1712 23.3083 68.8113 23.0642 68.4405 22.793C67.1098 21.8491 65.8228 20.8239 64.6067 19.7499C64.574 19.7174 64.5413 19.6848 64.514 19.6468C64.454 19.5709 64.3613 19.457 64.2414 19.316C63.0089 17.8297 61.8473 16.2838 62.3327 15.1772C62.4854 14.8246 62.8616 14.3961 63.7669 14.3473C64.1596 14.3202 64.4868 14.6185 64.5086 15.0036C64.5304 15.3888 64.2359 15.7196 63.8487 15.7413C63.7342 15.7468 63.6633 15.763 63.6197 15.7739C63.6197 16.0234 63.876 16.6797 65.3266 18.4264C65.4356 18.5566 65.5229 18.665 65.5883 18.7464C66.7554 19.7716 67.9878 20.748 69.2585 21.6538C69.6239 21.9142 69.9674 22.1475 70.2892 22.3699C71.3471 23.0804 72.1706 23.5686 72.6123 23.8344C74.292 24.8325 76.0589 25.7763 77.2477 26.3893C77.5913 26.5683 77.7276 26.9859 77.5476 27.3331C77.4222 27.5718 77.1768 27.7128 76.9259 27.7128V27.7074Z" fill="#408F95"/>
<path d="M104.886 31.7811C98.0254 31.7811 91.4377 31.0108 91.3559 31C87.2168 30.4847 83.0395 29.7253 78.9495 28.7435C78.5732 28.6513 78.3387 28.277 78.4314 27.9027C78.5241 27.5284 78.9004 27.2952 79.2767 27.3874C83.3176 28.3584 87.4404 29.1069 91.525 29.6114C91.6122 29.6222 100.888 30.7071 108.807 30.284C111.261 30.1538 113.753 29.8555 116.207 29.389C117.303 29.1829 117.898 29.0364 120.39 28.4343L123.406 27.702C124.393 27.4633 125.254 27.2464 126.018 27.0565C128.297 26.487 129.802 26.1073 131.264 26.0042C133.429 25.8523 135.637 26.0367 137.819 26.5575C138.195 26.6443 138.43 27.024 138.337 27.3983C138.25 27.7725 137.873 28.0058 137.492 27.9136C135.447 27.4308 133.385 27.2572 131.362 27.3983C130.02 27.4905 128.641 27.8376 126.361 28.4126C125.592 28.6079 124.725 28.8248 123.738 29.0635L120.722 29.7958C118.263 30.3925 117.603 30.5552 116.469 30.7668C113.955 31.2387 111.403 31.5479 108.883 31.6835C107.569 31.754 106.222 31.7811 104.886 31.7811Z" fill="#408F95"/>
<path d="M144.81 19.6632C144.51 19.6632 144.232 19.4679 144.139 19.1696C144.024 18.8007 144.232 18.4102 144.602 18.2963C146.239 17.7972 154.768 15.2478 161.797 14.2172C165.227 13.7127 167.741 13.6639 170.479 14.0436C171.373 14.1684 172.268 14.3419 173.14 14.5535C173.516 14.6457 173.745 15.0254 173.653 15.3997C173.56 15.774 173.184 16.0072 172.802 15.9096C171.979 15.7089 171.128 15.5461 170.277 15.4268C167.681 15.0634 165.282 15.1122 161.993 15.595C155.068 16.6147 146.626 19.1316 145.006 19.6306C144.935 19.6523 144.87 19.6632 144.799 19.6632H144.81Z" fill="#408F95"/>
<path d="M165.009 45.0489C164.96 45.0489 164.911 45.0489 164.862 45.0327C161.72 44.36 156.376 41.7727 154.424 39.9881C152.739 38.735 151.392 37.7424 150.246 36.8962C146.282 33.9725 144.64 32.7683 139.432 28.4071C139.138 28.1576 139.1 27.7183 139.345 27.4253C139.596 27.1324 140.038 27.0945 140.332 27.3386C145.507 31.6672 147.138 32.8713 151.081 35.7734C152.237 36.625 153.595 37.623 155.296 38.8923C155.318 38.9086 155.334 38.9249 155.356 38.9412C157.112 40.5685 162.244 43.0419 165.162 43.6657C165.543 43.7471 165.783 44.116 165.701 44.4957C165.631 44.8211 165.341 45.0489 165.014 45.0489H165.009Z" fill="#408F95"/>
<path d="M165.01 45.0489C164.824 45.0489 164.633 44.973 164.497 44.8265C162.67 42.8901 160.325 39.63 159.545 35.0953C159.311 33.7392 158.765 30.566 160.047 26.9589C161.22 23.6663 163.265 21.7624 165.631 19.5547C167.709 17.6182 170.07 15.9583 172.655 14.6131C172.999 14.4341 173.424 14.5643 173.604 14.906C173.784 15.2478 173.653 15.6708 173.31 15.8499C170.839 17.1354 168.582 18.7247 166.597 20.5744C164.273 22.7387 162.436 24.4528 161.378 27.4253C160.216 30.6908 160.718 33.6145 160.936 34.8621C161.656 39.0551 163.832 42.0764 165.528 43.8719C165.795 44.1539 165.779 44.5933 165.495 44.8591C165.359 44.9838 165.184 45.0489 165.015 45.0489H165.01Z" fill="#408F95"/>
<path d="M155.21 23.2269C155.003 23.2269 154.801 23.1401 154.665 22.9666C154.419 22.6682 154.468 22.2289 154.768 21.9848C155.962 21.0247 157.271 20.2056 158.656 19.5601C160.325 18.779 162.097 18.242 163.924 17.9599C164.306 17.9003 164.666 18.1606 164.726 18.5457C164.786 18.9255 164.524 19.2835 164.137 19.3431C162.441 19.6035 160.8 20.1025 159.251 20.8294C157.969 21.4315 156.753 22.1855 155.646 23.0805C155.515 23.1835 155.363 23.2378 155.204 23.2378L155.21 23.2269Z" fill="#408F95"/>
<path d="M158.084 38.3879C157.936 38.3879 157.784 38.3391 157.653 38.2415C156.137 37.0752 153.443 34.5638 152.483 30.8427C152.188 29.6927 151.567 27.2952 152.652 24.8488C152.805 24.5071 152.985 24.1708 153.186 23.8562C153.399 23.5307 153.83 23.4385 154.157 23.65C154.484 23.8616 154.577 24.2901 154.364 24.6156C154.201 24.8651 154.054 25.1363 153.934 25.4129C153.045 27.4199 153.563 29.4215 153.841 30.501C154.697 33.8206 157.135 36.088 158.509 37.1403C158.814 37.3736 158.874 37.8129 158.634 38.1221C158.498 38.3011 158.291 38.3933 158.078 38.3933L158.084 38.3879Z" fill="#408F95"/>
<path d="M88.891 23.3951C88.7437 23.3951 88.5965 23.3951 88.4438 23.3842C85.2536 23.2486 82.9959 21.719 81.9324 20.8185C81.638 20.569 81.5998 20.1296 81.8506 19.8367C82.1015 19.5438 82.5432 19.5058 82.8377 19.7554C83.7648 20.5419 85.7335 21.8708 88.4983 21.9902C91.2741 22.1041 93.161 20.9487 94.4098 20.1785C95.0915 19.7554 95.3532 19.5004 95.4405 19.3865C95.2333 19.1533 94.3389 18.7464 91.4377 18.2311C88.831 17.7701 86.0879 17.6562 83.2849 17.8948C82.8977 17.9219 82.5596 17.6453 82.5269 17.2602C82.4941 16.8751 82.7777 16.5387 83.1649 16.5062C86.0879 16.2567 88.9564 16.376 91.6831 16.8588C94.3498 17.3307 96.7548 17.8786 96.8693 19.3214C96.9238 19.9778 96.4057 20.5907 95.146 21.3664C93.8972 22.1366 91.8467 23.3951 88.8855 23.3951H88.891Z" fill="#408F95"/>
<path d="M76.5553 24.4095C76.3099 24.4095 76.07 24.2793 75.9391 24.0515C75.7482 23.7152 75.8736 23.2867 76.2117 23.1022C78.3658 21.9143 80.16 20.325 81.5506 18.3939C82.2868 17.3687 82.9031 16.2513 83.3721 15.0688C83.5138 14.7108 83.9228 14.5372 84.2828 14.6783C84.6427 14.8193 84.8172 15.2261 84.6754 15.5841C84.1573 16.8697 83.492 18.0902 82.6904 19.2021C81.1798 21.3068 79.2275 23.0317 76.8934 24.3227C76.7844 24.3824 76.6698 24.4095 76.5553 24.4095Z" fill="#408F95"/>
<path d="M70.1039 10.5503C70.2075 9.94277 70.7856 9.53594 71.3909 9.63901C72.0017 9.74207 72.4107 10.317 72.3071 10.9191C72.2035 11.5267 71.6254 11.9335 71.0201 11.8304C70.4093 11.7274 70.0003 11.1524 70.1039 10.5503Z" fill="#408F95"/>
<path d="M101.57 36.8799C100.343 36.8637 99.1488 36.766 97.9708 36.587C96.3566 36.3429 94.7533 35.9415 93.21 35.3937C87.5385 33.3867 84.4355 31.6563 79.2984 28.7923C78.9603 28.6024 78.8403 28.1793 79.0312 27.843C79.2221 27.5067 79.6474 27.3874 79.9856 27.5772C85.2317 30.5009 88.122 32.112 93.6845 34.081C95.146 34.5963 96.6566 34.976 98.1835 35.2093C99.296 35.3774 100.425 35.4696 101.548 35.4859C102.83 35.4371 103.446 35.2635 103.724 35.1387C103.381 34.9055 102.503 34.4498 100.305 33.761C99.9341 33.647 99.7323 33.2511 99.8468 32.8876C99.9613 32.5188 100.359 32.3127 100.725 32.432C104.259 33.5386 105.453 34.298 105.289 35.3232C105.082 36.6033 103.064 36.8257 101.565 36.8854L101.57 36.8799Z" fill="#408F95"/>
<path d="M103.713 33.8315C103.277 33.8315 102.863 33.8098 102.47 33.7881C96.8367 33.441 92.2886 32.2476 92.0977 32.1934C89.9763 31.6292 87.8495 30.9404 85.7772 30.1484C85.4173 30.0074 85.2373 29.606 85.3737 29.248C85.5155 28.89 85.919 28.711 86.2789 28.8466C88.3076 29.6222 90.3853 30.2949 92.4576 30.8481C92.643 30.897 97.0548 32.0578 102.552 32.3941C103.817 32.47 105.18 32.5026 106.778 31.9384C107.645 31.6347 108.469 31.1899 109.221 30.6203C109.532 30.3871 109.968 30.4467 110.203 30.7559C110.437 31.0651 110.377 31.4991 110.067 31.7323C109.2 32.3886 108.251 32.8985 107.247 33.2511C105.944 33.7122 104.76 33.8315 103.708 33.8315H103.713Z" fill="#408F95"/>
<path d="M126.884 36.88C125.052 36.88 123.231 36.701 121.426 36.343C117.439 35.5456 113.589 33.8424 110.29 31.4177C109.979 31.1899 109.913 30.7505 110.143 30.4413C110.372 30.1321 110.813 30.067 111.124 30.2948C114.26 32.6002 117.914 34.2221 121.698 34.976C124.545 35.5456 127.452 35.6378 130.342 35.2635C130.233 34.3305 129.917 32.6761 129.044 31.4828C128.793 31.141 128.379 30.5715 127.648 30.1104C127.457 29.9857 127.31 29.9151 126.912 29.7199L126.634 29.5843C125.837 29.1883 125.194 28.8574 124.768 28.635C124.425 28.456 124.294 28.0329 124.474 27.6912C124.654 27.3494 125.079 27.2193 125.423 27.3983C125.843 27.6207 126.475 27.9461 127.261 28.3312L127.533 28.4669C127.953 28.673 128.144 28.7652 128.406 28.9333C129.36 29.5409 129.895 30.2677 130.178 30.6583C131.536 32.5025 131.765 35.0791 131.803 35.8222C131.82 36.1802 131.563 36.4948 131.209 36.5491C129.769 36.7715 128.324 36.8854 126.879 36.8854L126.884 36.88Z" fill="#408F95"/>
<path d="M133.003 14.8518C131.972 14.8518 130.876 14.7813 129.655 14.6511C129.267 14.6077 128.989 14.266 129.033 13.8808C129.076 13.4957 129.42 13.2136 129.807 13.2625C130.985 13.3872 132.032 13.4523 133.014 13.4577C133.401 13.4577 133.712 13.7723 133.712 14.1575C133.712 14.5426 133.396 14.8518 133.008 14.8518H133.003Z" fill="#408F95"/>
<path d="M133.625 6.92688C133.554 6.92688 133.478 6.91603 133.407 6.89433C132.622 6.63396 131.836 6.36817 131.051 6.09696C128.886 5.35383 126.645 4.58357 124.322 4.07369C114.211 2.02872 104.362 1.14998 95.0586 1.46459C94.6769 1.47544 94.3442 1.1771 94.3333 0.791977C94.3224 0.40685 94.6223 0.0813914 95.0095 0.0705428C104.417 -0.249492 114.38 0.634672 124.611 2.70676C127.026 3.23834 129.3 4.01944 131.504 4.77885C132.283 5.04464 133.063 5.31586 133.843 5.5708C134.214 5.69013 134.41 6.08611 134.29 6.44954C134.192 6.74245 133.919 6.9323 133.625 6.9323V6.92688Z" fill="#408F95"/>
<path d="M80.0618 5.2941C79.7946 5.2941 79.5383 5.14222 79.4237 4.88728C79.2656 4.5347 79.4237 4.12245 79.7727 3.96515C81.556 3.15692 83.4047 2.46261 85.2752 1.89306C87.6911 1.15535 90.1833 0.618344 92.6918 0.292886C93.079 0.244067 93.428 0.509858 93.4771 0.894984C93.5262 1.28011 93.259 1.62727 92.8718 1.67609C90.445 1.9907 88.0237 2.51143 85.6842 3.22744C83.8737 3.78072 82.0741 4.45333 80.3508 5.23444C80.2581 5.27783 80.1599 5.29953 80.0618 5.29953V5.2941Z" fill="#408F95"/>
<path d="M93.9674 3.39018C93.7383 3.39018 93.5093 3.27627 93.3729 3.07014C93.1657 2.74468 93.2584 2.31074 93.5856 2.10462C93.7329 2.0124 93.951 1.87679 94.2182 1.72491C95.2216 1.16078 96.3069 0.732263 97.4412 0.444775C98.3192 0.222378 99.2244 0.0921943 100.135 0.0542241C100.522 0.0379512 100.85 0.336289 100.866 0.721415C100.882 1.10654 100.582 1.432 100.195 1.44827C99.3771 1.48082 98.57 1.60015 97.7847 1.79543C96.7704 2.05037 95.7997 2.4355 94.9053 2.93454C94.6654 3.07014 94.4745 3.18948 94.3382 3.27084C94.2237 3.34678 94.0928 3.37933 93.9619 3.37933L93.9674 3.39018Z" fill="#408F95"/>
<path d="M103.746 4.00319C103.517 4.00319 103.288 3.88927 103.157 3.68315C102.95 3.35769 103.043 2.92917 103.37 2.71762C103.517 2.62541 103.735 2.4898 104.002 2.33792C105.006 1.77379 106.091 1.34527 107.231 1.05778C108.109 0.835386 109.014 0.705202 109.925 0.667232C110.312 0.645535 110.639 0.949296 110.656 1.33442C110.672 1.71955 110.372 2.04501 109.985 2.06128C109.167 2.09383 108.36 2.21316 107.574 2.40844C106.56 2.66338 105.589 3.04851 104.695 3.54754C104.455 3.68315 104.264 3.80249 104.128 3.88385C104.013 3.95979 103.877 3.99234 103.752 3.99234L103.746 4.00319Z" fill="#408F95"/>
<path d="M112.765 5.2725C112.536 5.2725 112.307 5.15859 112.171 4.95247C111.964 4.62701 112.056 4.19849 112.383 3.98694C112.531 3.89473 112.749 3.75912 113.016 3.60724C114.025 3.04311 115.11 2.61459 116.244 2.3271C117.122 2.1047 118.028 1.97452 118.938 1.93655C119.326 1.92028 119.653 2.21861 119.669 2.60374C119.686 2.98887 119.386 3.31432 118.998 3.3306C118.18 3.36314 117.373 3.48248 116.588 3.67775C115.574 3.9327 114.603 4.31782 113.709 4.81686C113.469 4.95247 113.278 5.0718 113.141 5.15317C113.027 5.22911 112.896 5.26165 112.765 5.26165V5.2725Z" fill="#408F95"/>
<path d="M126.17 34.0701H126.154C123.755 34.0104 121.475 33.4734 119.386 32.4645C118.476 32.0251 117.603 31.499 116.791 30.8969C116.48 30.6636 116.414 30.2297 116.649 29.9205C116.883 29.6113 117.32 29.5462 117.63 29.7795C118.372 30.3328 119.174 30.8155 119.997 31.2115C121.906 32.1282 123.989 32.6218 126.187 32.6761C126.574 32.6869 126.879 33.0069 126.874 33.3921C126.863 33.7718 126.552 34.0755 126.17 34.0755V34.0701Z" fill="#408F95"/>
<path d="M124.905 31.2549C124.823 31.2549 124.742 31.2387 124.665 31.2115L120.668 29.7578C120.303 29.6276 120.117 29.2262 120.248 28.8628C120.379 28.4994 120.788 28.3149 121.148 28.4451L125.145 29.8989C125.51 30.029 125.696 30.4304 125.565 30.7939C125.461 31.0759 125.194 31.2549 124.905 31.2549Z" fill="#408F95"/>
<path d="M134.863 14.7867C134.487 14.7867 134.17 14.4884 134.159 14.1087C134.149 13.7235 134.454 13.4035 134.841 13.3926C137.486 13.3167 138.615 12.8068 138.8 11.5809C138.299 9.90481 137.012 8.54331 134.874 7.4259C134.53 7.2469 134.399 6.8238 134.579 6.48207C134.759 6.14034 135.185 6.01016 135.528 6.18916C138.086 7.52354 139.613 9.2105 140.191 11.3423C140.213 11.4236 140.218 11.5104 140.213 11.5918C139.918 14.6402 136.39 14.7433 134.885 14.7867C134.879 14.7867 134.868 14.7867 134.863 14.7867Z" fill="#408F95"/>
<path d="M163.896 128.67C163.673 128.67 163.455 128.562 163.318 128.366C163.002 127.905 162.828 127.417 162.8 126.918C162.675 124.466 166.078 122.774 168.564 121.537C171.133 120.257 173.92 119.324 176.843 118.76C177.224 118.689 177.59 118.934 177.666 119.313C177.743 119.693 177.492 120.056 177.11 120.132C174.312 120.675 171.651 121.564 169.192 122.785C167.294 123.729 164.125 125.307 164.202 126.848C164.213 127.086 164.305 127.33 164.474 127.574C164.693 127.894 164.611 128.328 164.294 128.545C164.174 128.627 164.033 128.67 163.896 128.67Z" fill="#408F95"/>
<path d="M173.375 134.968C173.309 134.968 173.238 134.957 173.173 134.935C171.869 134.539 170.582 134.084 169.35 133.579C168.81 133.357 168.074 133.053 167.12 132.576C166.252 132.136 165.396 131.654 164.589 131.133C164.551 131.106 164.513 131.079 164.48 131.046C164.442 131.008 164.377 130.954 164.3 130.883C163.384 130.07 162.506 129.202 162.73 128.361C162.795 128.117 163.008 127.688 163.711 127.542C164.087 127.461 164.464 127.699 164.546 128.079C164.611 128.377 164.469 128.67 164.224 128.822C164.371 129.017 164.666 129.337 165.238 129.842C165.304 129.901 165.364 129.95 165.407 129.994C166.16 130.476 166.951 130.927 167.758 131.333C168.663 131.789 169.372 132.082 169.89 132.294C171.079 132.782 172.322 133.227 173.582 133.606C173.953 133.72 174.16 134.111 174.051 134.48C173.958 134.783 173.68 134.973 173.38 134.973L173.375 134.968Z" fill="#408F95"/>
<path d="M179.466 135.364C177.606 135.364 175.736 135.288 173.882 135.131C173.495 135.098 173.211 134.762 173.244 134.377C173.277 133.991 173.62 133.709 174.002 133.742C176.429 133.943 178.883 134.013 181.298 133.943C181.348 133.943 186.823 133.747 191.365 132.798C192.767 132.505 194.179 132.115 195.554 131.626C196.164 131.409 196.497 131.274 197.893 130.699L199.578 130.005C200.053 129.809 200.473 129.63 200.86 129.468C202.081 128.952 202.965 128.578 204.023 128.307C205.462 127.932 206.984 127.759 208.554 127.797C208.942 127.808 209.247 128.128 209.242 128.513C209.231 128.898 208.92 129.202 208.522 129.196C207.082 129.164 205.691 129.321 204.377 129.657C203.417 129.907 202.578 130.26 201.411 130.753C201.018 130.921 200.593 131.1 200.113 131.296L198.428 131.99C197.042 132.559 196.672 132.711 196.023 132.939C194.588 133.444 193.116 133.856 191.654 134.16C186.986 135.131 181.571 135.326 181.342 135.331C180.72 135.348 180.093 135.358 179.472 135.358L179.466 135.364Z" fill="#408F95"/>
<path d="M209.225 124.146C209.225 124.146 209.209 124.146 209.198 124.146C208.805 124.13 208.407 124.092 208.02 124.038C207.098 123.902 206.406 123.68 206.106 123.582L206.024 123.555C202.926 122.606 199.753 121.776 196.595 121.098C193.688 120.474 191.393 119.98 188.371 119.704C185.181 119.411 181.931 119.433 178.708 119.769C178.321 119.807 177.977 119.53 177.939 119.145C177.901 118.76 178.179 118.418 178.566 118.38C181.882 118.038 185.225 118.017 188.502 118.315C191.611 118.597 193.945 119.102 196.895 119.736C200.096 120.425 203.308 121.261 206.444 122.226L206.548 122.259C206.809 122.345 207.426 122.541 208.233 122.66C208.549 122.709 208.871 122.736 209.187 122.752C209.705 122.66 210.223 122.53 210.725 122.362C211.336 122.161 211.766 121.955 211.93 121.879C213.593 121.103 217.422 119.682 220.743 118.727C222.619 118.185 224.058 117.87 225.853 117.843C226.392 117.832 226.943 117.854 227.478 117.903C227.865 117.935 228.148 118.277 228.116 118.662C228.083 119.047 227.739 119.329 227.352 119.297C226.861 119.254 226.365 119.237 225.869 119.243C224.238 119.264 222.897 119.563 221.135 120.073C217.542 121.109 213.888 122.514 212.546 123.137C212.344 123.23 211.859 123.457 211.172 123.685C210.578 123.88 209.967 124.032 209.351 124.141C209.312 124.146 209.274 124.152 209.231 124.152L209.225 124.146Z" fill="#408F95"/>
<path d="M225.389 136.953C225.297 136.953 225.198 136.931 225.106 136.893L217.362 133.482C215.939 132.771 214.559 132.012 213.228 131.214C212.23 130.618 211.227 129.977 210.262 129.327C209.94 129.11 209.858 128.676 210.076 128.356C210.294 128.036 210.731 127.954 211.052 128.171C212.001 128.811 212.977 129.435 213.953 130.021C215.257 130.802 216.609 131.545 217.967 132.223L225.678 135.619C226.033 135.776 226.191 136.188 226.038 136.541C225.924 136.801 225.667 136.959 225.395 136.959L225.389 136.953Z" fill="#408F95"/>
<path d="M225.389 136.953C225.187 136.953 224.991 136.866 224.855 136.704C223.437 135.033 222.335 133.189 221.577 131.225C220.939 129.576 220.437 128.274 220.65 126.566C220.89 124.634 221.904 123.354 223.186 121.732L223.295 121.591C224.348 120.257 225.591 119.064 226.992 118.039C227.303 117.811 227.745 117.876 227.974 118.185C228.203 118.494 228.138 118.934 227.827 119.161C226.529 120.116 225.373 121.223 224.402 122.454L224.293 122.595C223.104 124.103 222.243 125.193 222.046 126.739C221.877 128.101 222.281 129.142 222.892 130.721C223.595 132.538 224.62 134.246 225.935 135.803C226.185 136.096 226.147 136.541 225.853 136.785C225.722 136.893 225.558 136.948 225.4 136.948L225.389 136.953Z" fill="#408F95"/>
<path d="M178.266 131.203C176.658 131.203 175.414 130.601 174.771 130.211C174.443 130.01 174.34 129.576 174.542 129.251C174.743 128.925 175.174 128.822 175.507 129.023C176.085 129.375 177.285 129.945 178.823 129.777C180.36 129.609 181.309 128.8 181.942 128.263C182.035 128.187 182.105 128.117 182.165 128.063C181.789 127.976 181.14 127.922 180.219 127.9C178.681 127.862 177.099 128.041 175.518 128.421C175.142 128.513 174.76 128.28 174.667 127.905C174.574 127.531 174.809 127.151 175.185 127.059C176.887 126.647 178.593 126.457 180.251 126.495C182.029 126.538 183.518 126.658 183.763 127.688C183.911 128.318 183.387 128.865 182.853 129.321C182.182 129.891 180.938 130.943 178.975 131.16C178.73 131.187 178.495 131.198 178.266 131.198V131.203Z" fill="#408F95"/>
<path d="M172.054 132.825C171.847 132.825 171.64 132.733 171.498 132.554C171.258 132.25 171.318 131.811 171.624 131.572C172.736 130.715 173.609 129.663 174.225 128.453C174.552 127.813 174.798 127.13 174.961 126.419C175.048 126.045 175.425 125.812 175.801 125.898C176.177 125.985 176.412 126.359 176.324 126.734C176.134 127.553 175.85 128.339 175.474 129.082C174.765 130.482 173.756 131.692 172.48 132.679C172.354 132.776 172.202 132.825 172.049 132.825H172.054Z" fill="#408F95"/>
<path d="M167.774 126.408C167.774 126.408 167.763 126.408 167.752 126.408C167.005 126.397 166.399 125.779 166.41 125.036C166.421 124.287 167.021 123.691 167.79 123.702C168.155 123.702 168.493 123.853 168.744 124.114C168.995 124.374 169.132 124.716 169.126 125.074C169.115 125.812 168.504 126.408 167.768 126.408H167.774ZM167.73 125.052C167.73 125.052 167.746 125.09 167.774 125.096C167.795 125.096 167.817 125.074 167.817 125.052H167.73ZM167.73 125.052H167.817C167.817 125.052 167.79 124.993 167.774 125.009C167.752 125.009 167.73 125.025 167.73 125.052Z" fill="#408F95"/>
<path d="M185.662 138C184.685 138 183.709 137.908 182.749 137.723C179.243 137.056 177.274 136.324 174.013 135.109C173.648 134.973 173.468 134.572 173.604 134.208C173.74 133.845 174.144 133.666 174.509 133.802C177.814 135.033 179.63 135.706 183.017 136.351C183.895 136.519 184.767 136.601 185.683 136.601C186.332 136.601 186.987 136.552 187.63 136.465C188.028 136.411 188.394 136.286 188.606 136.183C188.334 135.933 187.652 135.478 186.256 134.881C185.901 134.729 185.732 134.317 185.891 133.964C186.043 133.612 186.458 133.444 186.812 133.601C189.953 134.941 190.242 135.798 190.111 136.454C189.904 137.479 188.312 137.783 187.832 137.848C187.118 137.946 186.365 137.995 185.672 138H185.662Z" fill="#408F95"/>
<path d="M200.048 135.781C199.797 135.781 199.546 135.776 199.295 135.765C196.863 135.657 194.425 134.995 192.249 133.856C191.906 133.677 191.775 133.254 191.955 132.912C192.135 132.57 192.56 132.44 192.904 132.619C194.9 133.661 197.13 134.268 199.36 134.366C200.936 134.436 202.512 134.263 204.045 133.85C203.849 133.254 203.532 132.592 203.101 132.163C202.927 131.99 202.671 131.729 202.251 131.55C202.125 131.496 202.033 131.469 201.82 131.399L201.645 131.344C201.144 131.187 200.74 131.051 200.467 130.959C200.102 130.834 199.906 130.439 200.031 130.07C200.157 129.706 200.555 129.511 200.926 129.636C201.187 129.728 201.585 129.858 202.071 130.015L202.245 130.07C202.534 130.162 202.654 130.2 202.823 130.276C203.478 130.563 203.898 130.981 204.099 131.182C205.114 132.196 205.495 133.742 205.588 134.192C205.659 134.545 205.457 134.892 205.114 135C203.467 135.521 201.765 135.781 200.053 135.781H200.048Z" fill="#408F95"/>
<path d="M202.119 122.411C201.748 122.411 201.437 122.118 201.416 121.743C201.399 121.358 201.699 121.033 202.086 121.011C202.774 120.978 203.379 120.924 203.941 120.837C204.322 120.783 204.682 121.044 204.737 121.423C204.791 121.803 204.53 122.161 204.148 122.215C203.537 122.307 202.883 122.367 202.152 122.4C202.141 122.4 202.13 122.4 202.119 122.4V122.411Z" fill="#408F95"/>
<path d="M204.045 122.232C203.679 122.232 203.368 121.949 203.346 121.581C203.319 121.196 203.614 120.865 204.001 120.838C205.806 120.724 206.711 120.138 206.788 119.644C206.858 119.189 206.231 118.424 204.688 117.811C204.328 117.67 204.154 117.263 204.295 116.905C204.437 116.547 204.846 116.373 205.206 116.514C207.267 117.328 208.38 118.576 208.173 119.861C207.96 121.196 206.433 122.08 204.088 122.226C204.072 122.226 204.055 122.226 204.045 122.226V122.232Z" fill="#408F95"/>
<path d="M180.743 117.827C180.421 117.827 180.132 117.605 180.061 117.285C179.974 116.91 180.214 116.536 180.59 116.449C186.452 115.131 192.369 114.757 198.183 115.337C199.813 115.5 201.46 115.739 203.074 116.053C203.456 116.129 203.701 116.493 203.63 116.872C203.554 117.252 203.189 117.496 202.807 117.426C201.236 117.122 199.633 116.889 198.041 116.726C192.38 116.162 186.61 116.525 180.901 117.811C180.846 117.822 180.797 117.827 180.748 117.827H180.743Z" fill="#408F95"/>
<path d="M172.371 121.391C172.142 121.391 171.919 121.277 171.783 121.076C171.57 120.751 171.663 120.322 171.984 120.111C172.96 119.476 173.986 118.896 175.033 118.396C176.031 117.914 177.078 117.491 178.136 117.138C178.381 117.057 178.594 116.986 178.741 116.943C179.106 116.829 179.505 117.035 179.619 117.398C179.734 117.767 179.526 118.158 179.161 118.272C179.019 118.315 178.823 118.38 178.588 118.456C177.585 118.792 176.598 119.194 175.649 119.65C174.656 120.127 173.686 120.675 172.759 121.277C172.639 121.353 172.508 121.391 172.377 121.391H172.371Z" fill="#408F95"/>
<path d="M183.093 117.984C182.984 117.984 182.88 117.941 182.804 117.854C182.662 117.697 182.678 117.453 182.837 117.312C182.913 117.247 183.027 117.149 183.169 117.035C183.704 116.617 184.293 116.276 184.925 116.01C185.411 115.804 185.929 115.646 186.452 115.543C186.659 115.5 186.867 115.636 186.905 115.847C186.943 116.059 186.812 116.259 186.599 116.297C186.125 116.39 185.661 116.531 185.225 116.715C184.658 116.954 184.124 117.268 183.644 117.637C183.518 117.735 183.415 117.827 183.344 117.887C183.273 117.952 183.18 117.984 183.087 117.984H183.093Z" fill="#408F95"/>
<path d="M186.746 117.87C186.621 117.87 186.495 117.805 186.419 117.691C186.305 117.512 186.354 117.274 186.534 117.16C186.615 117.106 186.735 117.03 186.883 116.943C187.433 116.612 188.028 116.303 188.633 116.037C189.108 115.825 189.587 115.641 190.073 115.478C190.275 115.413 190.493 115.522 190.564 115.722C190.629 115.923 190.52 116.14 190.318 116.211C189.86 116.362 189.397 116.541 188.949 116.742C188.371 116.997 187.81 117.29 187.281 117.605C187.139 117.686 187.024 117.762 186.948 117.811C186.883 117.854 186.812 117.87 186.741 117.87H186.746Z" fill="#408F95"/>
<path d="M191.365 117.876C191.245 117.876 191.131 117.822 191.054 117.719C190.929 117.55 190.961 117.306 191.136 117.182C191.218 117.122 191.332 117.035 191.48 116.937C192.025 116.569 192.614 116.249 193.236 115.977C193.715 115.771 194.212 115.592 194.713 115.457C194.921 115.397 195.133 115.522 195.188 115.728C195.242 115.934 195.122 116.145 194.915 116.2C194.452 116.324 193.988 116.487 193.541 116.682C192.963 116.932 192.418 117.23 191.91 117.572C191.774 117.664 191.665 117.74 191.594 117.794C191.523 117.843 191.447 117.87 191.365 117.87V117.876Z" fill="#408F95"/>
<path d="M200.292 132.728C200.292 132.728 200.254 132.728 200.238 132.728L197.124 132.299C196.911 132.272 196.764 132.077 196.797 131.865C196.824 131.654 197.026 131.507 197.233 131.54L200.347 131.968C200.559 131.995 200.707 132.191 200.674 132.402C200.647 132.592 200.483 132.733 200.292 132.733V132.728Z" fill="#408F95"/>
<path d="M220.317 132.093C220.213 132.093 220.104 132.066 220.006 132.001C219.068 131.409 218.234 130.683 217.536 129.842C216.598 128.719 215.72 127.661 215.834 126.273C215.954 124.857 217.04 123.956 218.19 123.002C219.134 122.221 220.197 121.602 221.359 121.174C221.659 121.06 221.991 121.212 222.106 121.51C222.22 121.808 222.068 122.139 221.768 122.253C220.731 122.638 219.777 123.192 218.937 123.886C217.896 124.748 217.072 125.432 216.99 126.37C216.914 127.287 217.579 128.09 218.425 129.104C219.046 129.853 219.788 130.498 220.628 131.03C220.901 131.198 220.977 131.556 220.808 131.827C220.699 132.001 220.508 132.093 220.317 132.093Z" fill="#408F95"/>
<path d="M237.489 108.47C237.173 108.47 236.889 108.258 236.808 107.938C236.671 107.396 236.677 106.881 236.829 106.403C237.571 104.06 241.356 103.653 244.115 103.36C246.973 103.051 249.912 103.143 252.846 103.626C253.228 103.691 253.49 104.049 253.424 104.429C253.359 104.809 253.004 105.069 252.617 105.004C249.809 104.537 246.995 104.456 244.268 104.749C242.163 104.977 238.635 105.356 238.171 106.826C238.1 107.054 238.1 107.315 238.171 107.602C238.264 107.976 238.035 108.356 237.658 108.448C237.604 108.465 237.544 108.47 237.489 108.47Z" fill="#408F95"/>
<path d="M244.164 117.653C244.017 117.653 243.864 117.605 243.739 117.512C242.654 116.693 241.612 115.82 240.631 114.914C240.2 114.518 239.611 113.976 238.891 113.2C238.231 112.489 237.604 111.741 237.026 110.971C236.999 110.933 236.977 110.895 236.955 110.851C236.933 110.802 236.895 110.732 236.846 110.64C236.268 109.56 235.75 108.443 236.257 107.727C236.404 107.521 236.753 107.195 237.462 107.298C237.844 107.353 238.111 107.711 238.057 108.09C238.013 108.394 237.778 108.622 237.495 108.676C237.56 108.909 237.729 109.311 238.089 109.989C238.133 110.065 238.166 110.135 238.193 110.184C238.733 110.9 239.316 111.594 239.927 112.251C240.609 112.988 241.176 113.509 241.59 113.889C242.534 114.762 243.548 115.603 244.595 116.4C244.906 116.634 244.961 117.073 244.726 117.377C244.59 117.556 244.377 117.653 244.17 117.653H244.164Z" fill="#408F95"/>
<path d="M279.137 124.439C279.05 124.439 278.963 124.423 278.875 124.39C277.539 123.859 276.176 123.522 274.829 123.387C273.842 123.289 272.926 123.327 271.66 123.387C271.235 123.409 270.772 123.425 270.259 123.447L268.432 123.512C266.938 123.566 266.54 123.582 265.853 123.566C264.331 123.539 262.81 123.414 261.332 123.192C256.62 122.486 251.472 120.789 251.254 120.713C248.92 119.926 246.591 118.988 244.334 117.935C243.984 117.773 243.832 117.355 243.995 117.008C244.159 116.661 244.579 116.509 244.928 116.672C247.137 117.708 249.411 118.619 251.696 119.389C251.745 119.405 256.942 121.119 261.533 121.808C262.951 122.02 264.413 122.139 265.869 122.166C266.518 122.177 266.872 122.166 268.378 122.112L270.21 122.047C270.717 122.031 271.175 122.009 271.6 121.987C272.926 121.928 273.885 121.884 274.971 121.993C276.449 122.139 277.937 122.508 279.399 123.089C279.759 123.23 279.933 123.636 279.791 123.994C279.682 124.266 279.421 124.434 279.137 124.434V124.439Z" fill="#408F95"/>
<path d="M300.296 121.7C300.193 121.7 300.095 121.678 299.997 121.635C299.555 121.423 299.091 121.233 298.628 121.071C297.09 120.523 295.732 120.338 293.9 120.203C290.17 119.926 286.249 119.98 284.776 120.1C284.553 120.116 284.013 120.165 283.293 120.138C282.671 120.116 282.044 120.045 281.428 119.932C281.379 119.921 281.33 119.91 281.286 119.888C280.921 119.736 280.566 119.563 280.223 119.378C279.405 118.933 278.837 118.483 278.592 118.288L278.521 118.234C275.947 116.27 273.264 114.393 270.543 112.663C268.04 111.068 266.06 109.81 263.322 108.502C260.432 107.125 257.378 106.018 254.243 105.21C253.866 105.112 253.643 104.733 253.741 104.358C253.839 103.984 254.221 103.762 254.597 103.859C257.825 104.689 260.967 105.828 263.933 107.244C266.747 108.589 268.76 109.864 271.301 111.486C274.055 113.238 276.776 115.136 279.377 117.127L279.465 117.192C279.683 117.36 280.184 117.762 280.899 118.152C281.177 118.304 281.466 118.445 281.76 118.57C282.278 118.662 282.813 118.722 283.342 118.738C283.98 118.76 284.46 118.722 284.64 118.706C286.472 118.554 290.557 118.554 294.003 118.809C295.956 118.955 297.412 119.15 299.102 119.753C299.615 119.932 300.117 120.143 300.602 120.371C300.951 120.539 301.098 120.951 300.935 121.304C300.815 121.553 300.564 121.7 300.302 121.7H300.296Z" fill="#408F95"/>
<path d="M292.225 137.55C292.05 137.55 291.871 137.485 291.734 137.349L285.67 131.469C284.585 130.308 283.56 129.12 282.589 127.911C281.858 126.999 281.149 126.061 280.467 125.112C280.244 124.797 280.32 124.363 280.631 124.141C280.947 123.918 281.384 123.994 281.607 124.304C282.273 125.231 282.965 126.153 283.68 127.043C284.628 128.225 285.632 129.386 286.668 130.498L292.705 136.356C292.983 136.628 292.988 137.067 292.716 137.344C292.579 137.485 292.394 137.555 292.214 137.555L292.225 137.55Z" fill="#408F95"/>
<path d="M292.225 137.55C291.936 137.55 291.669 137.371 291.565 137.089C290.824 135.033 290.436 132.917 290.415 130.813C290.393 129.044 290.382 127.65 291.178 126.126C292.083 124.401 293.479 123.55 295.246 122.476L295.399 122.383C296.85 121.499 298.437 120.81 300.111 120.333C300.482 120.224 300.874 120.441 300.978 120.81C301.087 121.179 300.869 121.57 300.498 121.673C298.944 122.112 297.477 122.752 296.135 123.571L295.983 123.663C294.336 124.667 293.147 125.388 292.427 126.772C291.789 127.987 291.805 129.104 291.822 130.796C291.843 132.744 292.203 134.702 292.89 136.617C293.021 136.98 292.83 137.382 292.465 137.512C292.389 137.539 292.307 137.555 292.231 137.555L292.225 137.55Z" fill="#408F95"/>
<path d="M252.012 116.173C251.543 116.173 251.036 116.118 250.501 115.988C248.593 115.511 247.426 114.312 246.897 113.634C246.657 113.33 246.711 112.891 247.017 112.652C247.322 112.414 247.764 112.468 248.004 112.772C248.424 113.303 249.345 114.252 250.845 114.627C252.345 115.001 253.523 114.572 254.297 114.29C254.412 114.247 254.504 114.214 254.581 114.176C254.259 113.965 253.664 113.688 252.808 113.352C251.385 112.788 249.842 112.403 248.222 112.213C247.835 112.169 247.562 111.822 247.606 111.437C247.649 111.052 247.998 110.775 248.386 110.824C250.125 111.03 251.794 111.443 253.332 112.056C254.984 112.712 256.337 113.341 256.206 114.388C256.129 115.028 255.442 115.359 254.777 115.598C254.183 115.815 253.217 116.167 252.007 116.167L252.012 116.173Z" fill="#408F95"/>
<path d="M243.679 115.191C243.379 115.191 243.101 115.001 243.009 114.702C242.894 114.334 243.096 113.943 243.467 113.829C244.808 113.412 245.997 112.728 247 111.806C247.529 111.318 248.004 110.764 248.407 110.157C248.62 109.837 249.056 109.745 249.378 109.956C249.7 110.168 249.793 110.602 249.58 110.922C249.116 111.621 248.571 112.262 247.96 112.826C246.804 113.889 245.435 114.675 243.892 115.158C243.821 115.18 243.75 115.191 243.679 115.191Z" fill="#408F95"/>
<path d="M242.147 107.732C241.978 107.732 241.814 107.7 241.656 107.64C240.958 107.369 240.609 106.582 240.882 105.888C241.155 105.194 241.945 104.847 242.643 105.118C243.341 105.389 243.69 106.176 243.418 106.87C243.287 107.206 243.031 107.472 242.698 107.618C242.523 107.694 242.338 107.732 242.153 107.732H242.147ZM242.103 106.365C242.093 106.387 242.103 106.414 242.131 106.42C242.147 106.425 242.18 106.414 242.185 106.393L242.103 106.36V106.365ZM242.103 106.365L242.185 106.398C242.185 106.398 242.185 106.349 242.158 106.344C242.136 106.338 242.109 106.349 242.103 106.371V106.365Z" fill="#408F95"/>
<path d="M257.519 125.443C257.067 125.443 256.652 125.367 256.451 125.323C255.752 125.172 255.06 124.971 254.395 124.721C253.473 124.385 252.584 123.951 251.744 123.447C248.69 121.608 247.103 120.235 244.469 117.968C244.175 117.713 244.142 117.274 244.399 116.981C244.655 116.688 245.097 116.655 245.391 116.91C248.058 119.205 249.525 120.474 252.475 122.253C253.238 122.714 254.051 123.105 254.885 123.414C255.491 123.636 256.123 123.821 256.756 123.962C257.149 124.049 257.536 124.06 257.77 124.032C257.607 123.702 257.121 123.04 256.025 121.998C255.747 121.733 255.736 121.288 256.003 121.011C256.271 120.734 256.718 120.724 256.996 120.989C259.466 123.338 259.439 124.239 259.084 124.808C258.768 125.313 258.119 125.448 257.53 125.448L257.519 125.443Z" fill="#408F95"/>
<path d="M273.689 128.643C273.689 128.643 273.667 128.643 273.656 128.643C271.677 128.545 269.752 128.111 267.936 127.347C265.694 126.403 263.644 124.938 262.002 123.116C261.746 122.828 261.768 122.389 262.057 122.128C262.346 121.868 262.788 121.895 263.049 122.183C264.555 123.853 266.436 125.193 268.487 126.061C269.943 126.674 271.475 127.059 273.056 127.2C273.078 126.663 273.046 125.909 272.762 125.296C272.658 125.074 272.506 124.743 272.184 124.423C272.086 124.331 272.009 124.271 271.835 124.135L271.688 124.022C271.273 123.701 270.941 123.43 270.722 123.251C270.422 123.007 270.379 122.568 270.624 122.269C270.87 121.971 271.311 121.928 271.611 122.172C271.824 122.345 272.151 122.611 272.555 122.92L272.697 123.034C272.936 123.219 273.035 123.3 273.166 123.425C273.678 123.924 273.924 124.461 274.044 124.716C274.638 126.012 274.458 127.596 274.387 128.052C274.333 128.394 274.038 128.643 273.695 128.643H273.689Z" fill="#408F95"/>
<path d="M277.375 116.352C277.326 116.352 277.277 116.352 277.228 116.335C276.628 116.211 275.99 116.037 275.292 115.815C274.921 115.695 274.719 115.305 274.839 114.936C274.959 114.567 275.352 114.366 275.723 114.486C276.377 114.692 276.966 114.854 277.522 114.968C277.904 115.05 278.144 115.419 278.062 115.798C277.991 116.129 277.702 116.352 277.375 116.352Z" fill="#408F95"/>
<path d="M279.339 116.677C278.695 116.677 277.97 116.563 277.174 116.324C276.803 116.216 276.59 115.825 276.705 115.457C276.814 115.088 277.207 114.876 277.577 114.99C279.312 115.505 280.364 115.272 280.609 114.838C280.839 114.437 280.517 113.498 279.284 112.397C278.995 112.137 278.973 111.697 279.23 111.41C279.492 111.123 279.933 111.101 280.222 111.356C281.869 112.831 282.475 114.388 281.831 115.522C281.4 116.281 280.517 116.677 279.339 116.677Z" fill="#408F95"/>
<path d="M278.019 111.47C277.894 111.47 277.769 111.437 277.654 111.367C276.285 110.537 274.867 109.761 273.433 109.061C268.323 106.571 262.794 104.912 256.986 104.136C256.604 104.087 256.331 103.735 256.386 103.349C256.44 102.97 256.789 102.699 257.177 102.753C263.132 103.55 268.809 105.253 274.055 107.808C275.527 108.524 276.989 109.322 278.39 110.179C278.723 110.379 278.827 110.808 278.625 111.139C278.494 111.356 278.259 111.475 278.025 111.475L278.019 111.47Z" fill="#408F95"/>
<path d="M247.982 104.581C247.66 104.581 247.371 104.364 247.3 104.038C247.213 103.664 247.453 103.29 247.829 103.203C248.963 102.948 250.13 102.758 251.287 102.65C252.394 102.547 253.517 102.509 254.635 102.547C254.897 102.552 255.115 102.563 255.273 102.574C255.66 102.595 255.955 102.921 255.938 103.306C255.922 103.691 255.584 103.984 255.202 103.968C255.055 103.962 254.848 103.952 254.597 103.941C253.539 103.908 252.47 103.941 251.423 104.044C250.321 104.147 249.22 104.32 248.145 104.564C248.091 104.575 248.042 104.581 247.987 104.581H247.982Z" fill="#408F95"/>
<path d="M259.112 105.085C258.96 105.085 258.812 104.993 258.752 104.841C258.676 104.64 258.774 104.418 258.976 104.342C259.074 104.304 259.216 104.255 259.385 104.201C260.029 103.995 260.705 103.876 261.392 103.848C261.921 103.827 262.461 103.854 262.99 103.941C263.202 103.973 263.344 104.174 263.311 104.38C263.279 104.592 263.077 104.727 262.87 104.7C262.395 104.624 261.91 104.597 261.435 104.619C260.819 104.646 260.208 104.754 259.63 104.939C259.478 104.988 259.352 105.036 259.265 105.069C259.221 105.085 259.172 105.096 259.129 105.096L259.112 105.085Z" fill="#408F95"/>
<path d="M262.58 106.246C262.4 106.246 262.242 106.121 262.204 105.942C262.16 105.736 262.291 105.53 262.498 105.487C262.591 105.465 262.733 105.438 262.902 105.405C263.534 105.286 264.194 105.205 264.865 105.161C265.383 105.129 265.901 105.118 266.408 105.134C266.621 105.139 266.79 105.318 266.785 105.53C266.779 105.742 266.588 105.893 266.386 105.904C265.901 105.888 265.41 105.899 264.914 105.926C264.281 105.964 263.649 106.045 263.049 106.159C262.891 106.192 262.754 106.219 262.667 106.235C262.64 106.241 262.613 106.246 262.585 106.246H262.58Z" fill="#408F95"/>
<path d="M266.905 107.852C266.736 107.852 266.583 107.743 266.534 107.575C266.474 107.369 266.594 107.157 266.796 107.098C266.894 107.071 267.03 107.033 267.205 106.989C267.843 106.832 268.508 106.734 269.184 106.702C269.708 106.675 270.237 106.68 270.75 106.729C270.962 106.745 271.12 106.935 271.099 107.146C271.077 107.358 270.886 107.515 270.679 107.494C270.199 107.45 269.708 107.445 269.223 107.472C268.595 107.504 267.974 107.597 267.385 107.743C267.227 107.781 267.096 107.819 267.008 107.841C266.97 107.852 266.938 107.857 266.899 107.857L266.905 107.852Z" fill="#408F95"/>
<path d="M270.068 124.868C270.008 124.868 269.942 124.851 269.882 124.819L267.117 123.338C266.932 123.235 266.861 123.002 266.959 122.817C267.063 122.633 267.297 122.562 267.483 122.66L270.248 124.141C270.433 124.244 270.504 124.477 270.406 124.662C270.335 124.792 270.204 124.862 270.068 124.862V124.868Z" fill="#408F95"/>
<path d="M289.133 131.23C288.959 131.23 288.784 131.154 288.67 131.003C287.999 130.124 287.47 129.153 287.11 128.122C286.625 126.75 286.172 125.448 286.766 124.19C287.377 122.904 288.708 122.432 290.12 121.939C291.276 121.532 292.493 121.326 293.73 121.32C294.052 121.32 294.309 121.575 294.309 121.895C294.309 122.215 294.052 122.47 293.73 122.476C292.623 122.476 291.538 122.665 290.508 123.029C289.226 123.479 288.217 123.832 287.814 124.683C287.421 125.519 287.764 126.5 288.201 127.748C288.522 128.665 288.991 129.527 289.591 130.314C289.788 130.569 289.733 130.927 289.482 131.122C289.379 131.203 289.253 131.241 289.133 131.241V131.23Z" fill="#408F95"/>
<path d="M159.365 61.5171C159.119 61.5171 158.874 61.3977 158.727 61.1808C158.301 60.5678 158.072 59.9223 158.04 59.2606C157.871 55.9626 162.566 53.6301 165.991 51.9269C169.574 50.1477 173.456 48.8459 177.525 48.0593C177.944 47.978 178.348 48.2492 178.43 48.6669C178.512 49.0845 178.239 49.4859 177.819 49.5673C173.887 50.3267 170.135 51.5851 166.683 53.2992C163.984 54.6445 159.468 56.8901 159.583 59.1846C159.599 59.5535 159.741 59.9332 160.003 60.3129C160.243 60.6654 160.156 61.1428 159.801 61.3815C159.67 61.4737 159.517 61.5171 159.365 61.5171Z" fill="#408F95"/>
<path d="M172.627 70.3316C172.551 70.3316 172.475 70.3207 172.404 70.299C170.588 69.7512 168.794 69.1111 167.07 68.4059C166.318 68.0967 165.287 67.6736 163.962 67.0065C162.751 66.3989 161.568 65.7209 160.433 64.994C160.39 64.9669 160.352 64.9344 160.313 64.9018C160.259 64.8476 160.166 64.7662 160.057 64.6686C158.819 63.5729 157.636 62.4121 157.919 61.3435C157.996 61.0506 158.258 60.5298 159.13 60.3454C159.545 60.2586 159.959 60.519 160.046 60.9366C160.134 61.338 159.883 61.734 159.49 61.8371C159.637 62.1083 160.057 62.6019 161.082 63.5186C161.181 63.6054 161.262 63.6814 161.328 63.7356C162.397 64.4191 163.515 65.0537 164.654 65.6287C165.925 66.2688 166.923 66.681 167.654 66.9793C169.328 67.6682 171.078 68.2866 172.845 68.8236C173.254 68.9484 173.483 69.3769 173.358 69.7837C173.254 70.1146 172.949 70.3316 172.616 70.3316H172.627Z" fill="#408F95"/>
<path d="M181.15 70.8849C178.555 70.8849 175.942 70.7764 173.352 70.5594C172.927 70.5215 172.61 70.1526 172.649 69.7295C172.681 69.3064 173.058 68.9918 173.483 69.0298C176.891 69.3173 180.332 69.4095 183.719 69.3118C183.79 69.3118 191.468 69.0352 197.849 67.7062C199.823 67.294 201.808 66.7407 203.738 66.0627C204.6 65.7589 205.064 65.5691 207.016 64.7663L209.383 63.7953C210.043 63.5241 210.632 63.2746 211.177 63.0467C212.884 62.3253 214.116 61.81 215.583 61.4249C217.579 60.9041 219.69 60.6709 221.871 60.7197C222.296 60.7306 222.634 61.0831 222.624 61.5062C222.613 61.9293 222.242 62.2548 221.833 62.2548C219.799 62.206 217.83 62.4284 215.976 62.9111C214.618 63.2637 213.429 63.7682 211.782 64.4571C211.237 64.6903 210.642 64.9398 209.977 65.211L207.61 66.182C205.68 66.9794 205.162 67.1909 204.256 67.5055C202.261 68.2053 200.21 68.7802 198.165 69.2033C191.648 70.5594 183.844 70.8361 183.763 70.8415C182.896 70.8686 182.023 70.8795 181.145 70.8795L181.15 70.8849Z" fill="#408F95"/>
<path d="M222.82 55.1869C222.82 55.1869 222.799 55.1869 222.788 55.1869C222.242 55.1652 221.697 55.1164 221.163 55.035C219.886 54.8506 218.927 54.5414 218.518 54.4058L218.398 54.3679C214.051 53.0335 209.607 51.8781 205.179 50.9234C201.105 50.0447 197.882 49.3558 193.639 48.9652C189.162 48.5584 184.592 48.5855 180.066 49.052C179.64 49.1008 179.259 48.7917 179.215 48.3686C179.171 47.9455 179.477 47.5658 179.902 47.5224C184.527 47.045 189.195 47.0179 193.776 47.4302C198.111 47.8261 201.372 48.5259 205.5 49.4154C209.972 50.3756 214.466 51.5472 218.85 52.8924L218.992 52.9358C219.363 53.0552 220.236 53.3372 221.381 53.5054C221.839 53.5705 222.302 53.6193 222.766 53.6356C223.513 53.5054 224.255 53.321 224.975 53.0823C225.836 52.7948 226.452 52.5073 226.687 52.3988C229.005 51.3194 234.354 49.3341 238.99 47.9997C241.602 47.2457 243.598 46.8064 246.085 46.7738C246.837 46.763 247.595 46.7901 248.337 46.8552C248.762 46.8931 249.078 47.2674 249.04 47.6905C249.002 48.1136 248.631 48.4282 248.201 48.3903C247.508 48.3306 246.804 48.3089 246.101 48.3143C243.794 48.3469 241.902 48.7645 239.415 49.4805C234.371 50.9343 229.239 52.9087 227.358 53.782C227.08 53.9122 226.403 54.2268 225.454 54.5414C224.631 54.8126 223.786 55.0242 222.935 55.1706C222.891 55.1761 222.848 55.1815 222.804 55.1815L222.82 55.1869Z" fill="#408F95"/>
<path d="M245.452 73.1143C245.349 73.1143 245.239 73.0926 245.141 73.0492L234.3 68.2759C232.326 67.2886 230.395 66.2255 228.53 65.1135C227.129 64.2727 225.733 63.3831 224.386 62.4718C224.031 62.2332 223.944 61.7558 224.184 61.4032C224.424 61.0507 224.904 60.9584 225.258 61.2025C226.583 62.0976 227.952 62.9709 229.332 63.7954C231.164 64.8911 233.057 65.9325 234.965 66.8872L245.768 71.6444C246.161 71.8179 246.336 72.2681 246.161 72.6587C246.036 72.9462 245.752 73.1143 245.452 73.1143Z" fill="#408F95"/>
<path d="M245.452 73.1143C245.234 73.1143 245.016 73.022 244.863 72.843C242.895 70.5214 241.362 67.9612 240.31 65.2327C239.426 62.9491 238.734 61.1482 239.023 58.8103C239.355 56.1633 240.757 54.3895 242.529 52.1439L242.682 51.9486C244.143 50.0989 245.867 48.4391 247.819 47.0125C248.163 46.7629 248.648 46.8335 248.899 47.1752C249.15 47.5169 249.079 47.9997 248.735 48.2492C246.897 49.5944 245.272 51.1566 243.898 52.8978L243.745 53.0931C242.055 55.2303 240.833 56.7762 240.555 59.0002C240.31 60.9529 240.882 62.4338 241.749 64.6795C242.742 67.2506 244.187 69.6644 246.047 71.8504C246.319 72.1759 246.281 72.6586 245.954 72.9353C245.807 73.0546 245.632 73.1143 245.458 73.1143H245.452Z" fill="#408F95"/>
<path d="M179.476 65.0645C177.273 65.0645 175.572 64.2401 174.694 63.703C174.328 63.4806 174.219 63.0087 174.443 62.6453C174.667 62.2819 175.141 62.168 175.506 62.3958C176.341 62.9057 178.069 63.7247 180.278 63.4806C182.492 63.2366 183.855 62.0757 184.761 61.3109C185.05 61.0668 185.224 60.8878 185.328 60.7685C184.963 60.6275 184.112 60.4864 182.219 60.4376C180.054 60.3888 177.819 60.6329 175.583 61.1753C175.168 61.2784 174.748 61.0234 174.65 60.6112C174.547 60.1989 174.803 59.7813 175.217 59.6836C177.584 59.1086 179.956 58.8483 182.258 58.9025C184.57 58.9568 186.669 59.1141 186.98 60.4105C187.128 61.0289 186.779 61.631 185.77 62.488C184.788 63.3233 183.141 64.7174 180.453 65.0157C180.12 65.0537 179.793 65.07 179.482 65.07L179.476 65.0645Z" fill="#408F95"/>
<path d="M170.778 67.3374C170.549 67.3374 170.32 67.2344 170.168 67.0391C169.906 66.7028 169.966 66.22 170.304 65.9596C171.885 64.7392 173.129 63.2475 174.007 61.5226C174.47 60.6113 174.825 59.6349 175.059 58.6314C175.158 58.2191 175.572 57.9588 175.986 58.0564C176.401 58.1541 176.663 58.5663 176.564 58.9786C176.303 60.1068 175.905 61.1971 175.387 62.2169C174.41 64.1479 173.02 65.8132 171.253 67.1747C171.111 67.2832 170.948 67.3374 170.778 67.3374Z" fill="#408F95"/>
<path d="M164.791 58.3493C164.791 58.3493 164.775 58.3493 164.764 58.3493C163.831 58.3385 163.079 57.5682 163.095 56.6407C163.106 55.7185 163.864 54.9808 164.791 54.9808C164.796 54.9808 164.807 54.9808 164.813 54.9808C165.745 54.9917 166.498 55.7619 166.482 56.6895C166.471 57.6116 165.713 58.3493 164.786 58.3493H164.791ZM164.791 56.5159C164.709 56.5159 164.644 56.581 164.644 56.6624C164.644 56.7112 164.666 56.7492 164.687 56.7654C164.709 56.7871 164.742 56.8088 164.791 56.8088C164.867 56.8088 164.938 56.7437 164.944 56.6624C164.944 56.581 164.878 56.5159 164.796 56.5105L164.791 56.5159Z" fill="#408F95"/>
<path d="M189.833 74.5789C188.48 74.5789 187.122 74.4487 185.792 74.1992C180.9 73.2662 178.152 72.2464 173.593 70.5486C173.194 70.4021 172.993 69.9573 173.14 69.5614C173.293 69.1654 173.734 68.9647 174.132 69.1112C178.768 70.8361 181.32 71.7853 186.081 72.6912C187.313 72.9244 188.578 73.0438 189.827 73.0438H189.849C190.765 73.0438 191.692 72.9787 192.603 72.8485C193.372 72.74 194.032 72.4742 194.266 72.2952C194.043 72.0023 193.154 71.27 190.733 70.234C190.34 70.0658 190.16 69.6156 190.329 69.2251C190.498 68.8345 190.951 68.6555 191.343 68.8237C195.624 70.6517 195.995 71.7962 195.837 72.5881C195.57 73.9225 193.274 74.3131 192.821 74.3782C191.84 74.5138 190.842 74.5843 189.855 74.5897H189.827L189.833 74.5789Z" fill="#408F95"/>
<path d="M209.972 71.4707C209.623 71.4707 209.274 71.4652 208.925 71.449C205.549 71.2971 202.168 70.3804 199.153 68.8019C198.776 68.6066 198.629 68.1401 198.831 67.7659C199.027 67.3916 199.496 67.2451 199.872 67.4458C202.692 68.9212 205.849 69.7728 208.996 69.9193C211.303 70.0224 213.599 69.7566 215.829 69.1328C215.605 68.3897 215.164 67.2505 214.395 66.4803C214.155 66.2416 213.762 65.8456 213.141 65.5744C212.977 65.5039 212.852 65.4605 212.513 65.3575L212.273 65.2815C211.575 65.0591 211.008 64.8693 210.632 64.7391C210.228 64.6035 210.016 64.1641 210.152 63.7627C210.294 63.3613 210.73 63.1498 211.134 63.2854C211.505 63.4101 212.055 63.6 212.742 63.817L212.982 63.8929C213.348 64.0068 213.528 64.0665 213.773 64.1695C214.657 64.5601 215.202 65.1025 215.491 65.39C216.871 66.7678 217.394 68.8833 217.52 69.4962C217.601 69.8813 217.372 70.2665 216.996 70.3858C214.711 71.1072 212.35 71.4761 209.978 71.4761L209.972 71.4707Z" fill="#408F95"/>
<path d="M212.873 52.7514C212.464 52.7514 212.12 52.4314 212.099 52.0192C212.077 51.5961 212.41 51.2381 212.835 51.2164C213.8 51.173 214.656 51.0916 215.453 50.9777C215.872 50.9126 216.271 51.2055 216.331 51.6232C216.396 52.0409 216.101 52.4368 215.682 52.4965C214.836 52.6213 213.926 52.708 212.906 52.7514C212.895 52.7514 212.884 52.7514 212.868 52.7514H212.873Z" fill="#408F95"/>
<path d="M215.567 52.5019C215.164 52.5019 214.826 52.1873 214.798 51.7804C214.771 51.3573 215.093 50.9885 215.518 50.9614C218.174 50.7932 219.488 49.9145 219.614 49.1171C219.723 48.4282 218.987 47.2891 216.544 46.329C216.145 46.1717 215.955 45.7269 216.107 45.3309C216.265 44.935 216.713 44.7397 217.111 44.897C219.897 45.9927 221.403 47.6634 221.135 49.3558C220.857 51.1187 218.79 52.2903 215.611 52.4965C215.595 52.4965 215.578 52.4965 215.562 52.4965L215.567 52.5019Z" fill="#408F95"/>
<path d="M182.945 46.3344C182.591 46.3344 182.274 46.0904 182.192 45.7378C182.1 45.3255 182.362 44.9133 182.776 44.8211C190.962 42.9822 199.223 42.4615 207.338 43.2697C209.618 43.4975 211.913 43.8338 214.171 44.2678C214.591 44.3492 214.864 44.7505 214.782 45.1682C214.7 45.5859 214.297 45.8571 213.877 45.7757C211.668 45.3472 209.421 45.0163 207.185 44.7939C199.24 44.002 191.142 44.5119 183.12 46.3182C183.06 46.329 183.005 46.3399 182.951 46.3399L182.945 46.3344Z" fill="#408F95"/>
<path d="M171.225 51.3248C170.975 51.3248 170.724 51.2001 170.576 50.9777C170.342 50.6251 170.44 50.1478 170.8 49.9145C172.158 49.0304 173.587 48.2276 175.043 47.5278C176.439 46.8552 177.889 46.2694 179.362 45.7758C179.705 45.6619 180 45.5696 180.207 45.5046C180.611 45.3744 181.047 45.6022 181.172 46.009C181.298 46.4158 181.074 46.8444 180.665 46.9691C180.469 47.0288 180.191 47.121 179.858 47.2295C178.446 47.7014 177.055 48.271 175.719 48.911C174.318 49.5836 172.949 50.3539 171.651 51.2001C171.52 51.2869 171.373 51.3248 171.231 51.3248H171.225Z" fill="#408F95"/>
<path d="M186.042 47.3759C185.884 47.3759 185.721 47.3108 185.606 47.1807C185.394 46.942 185.415 46.5786 185.655 46.367C185.764 46.2694 185.922 46.1338 186.124 45.9765C186.871 45.3906 187.7 44.9079 188.589 44.5336C189.276 44.2461 189.996 44.0237 190.738 43.8772C191.049 43.8122 191.354 44.0183 191.42 44.3329C191.48 44.6475 191.278 44.9458 190.961 45.0109C190.302 45.1411 189.658 45.3364 189.042 45.5968C188.246 45.9331 187.504 46.367 186.839 46.8877C186.659 47.0288 186.517 47.1481 186.419 47.2349C186.31 47.3325 186.173 47.3814 186.037 47.3814L186.042 47.3759Z" fill="#408F95"/>
<path d="M191.354 46.6436C191.164 46.6436 190.978 46.5514 190.864 46.3778C190.689 46.1121 190.771 45.754 191.038 45.5805C191.153 45.5045 191.322 45.4015 191.529 45.2767C192.303 44.8102 193.127 44.3817 193.988 44.002C194.648 43.7091 195.33 43.4433 196.006 43.2209C196.312 43.1178 196.639 43.2806 196.742 43.5843C196.846 43.8881 196.682 44.2135 196.377 44.3166C195.733 44.5281 195.09 44.7831 194.463 45.0597C193.65 45.4232 192.865 45.8246 192.134 46.2694C191.938 46.3887 191.78 46.4863 191.671 46.5568C191.573 46.6165 191.463 46.6491 191.36 46.6491L191.354 46.6436Z" fill="#408F95"/>
<path d="M197.816 46.6545C197.636 46.6545 197.462 46.5731 197.347 46.4212C197.157 46.1663 197.211 45.8029 197.467 45.613C197.582 45.5316 197.746 45.4123 197.947 45.2713C198.711 44.756 199.54 44.3057 200.412 43.926C201.088 43.6331 201.786 43.389 202.485 43.1992C202.795 43.1178 203.112 43.2968 203.199 43.6006C203.286 43.9098 203.101 44.2244 202.795 44.3112C202.146 44.4902 201.503 44.718 200.881 44.9838C200.074 45.3309 199.311 45.754 198.607 46.226C198.416 46.3507 198.269 46.4646 198.165 46.5406C198.062 46.6165 197.942 46.6545 197.822 46.6545H197.816Z" fill="#408F95"/>
<path d="M210.31 67.4458C210.31 67.4458 210.255 67.4458 210.228 67.4404L205.871 66.8383C205.555 66.7949 205.331 66.502 205.375 66.1874C205.418 65.8728 205.713 65.6504 206.029 65.6938L210.386 66.2959C210.703 66.3393 210.926 66.6322 210.883 66.9468C210.844 67.2343 210.593 67.4458 210.31 67.4458Z" fill="#408F95"/>
<path d="M238.352 66.2851C238.248 66.2851 238.139 66.258 238.041 66.1929C236.749 65.3738 235.598 64.3758 234.633 63.2149C233.357 61.6799 232.151 60.2316 232.304 58.3873C232.462 56.4996 233.951 55.2683 235.522 53.9611C236.82 52.8816 238.287 52.0354 239.884 51.4388C240.184 51.3249 240.517 51.4767 240.631 51.7751C240.746 52.0734 240.593 52.4043 240.293 52.5182C238.815 53.0715 237.463 53.8526 236.263 54.8452C234.764 56.0928 233.58 57.0746 233.46 58.4795C233.346 59.8573 234.306 61.0127 235.522 62.4772C236.411 63.5458 237.463 64.4625 238.657 65.2165C238.93 65.3847 239.006 65.7427 238.837 66.0139C238.728 66.1875 238.537 66.2797 238.346 66.2797L238.352 66.2851Z" fill="#408F95"/>
<path d="M66.4065 78.1536C66.1229 78.1536 65.8557 77.98 65.7521 77.7034C65.5503 77.1826 65.5012 76.6673 65.5939 76.1737C66.0575 73.7599 69.7658 72.9191 72.4706 72.3007C75.2737 71.6607 78.2022 71.4112 81.1743 71.5468C81.5615 71.563 81.8614 71.8939 81.845 72.2791C81.8287 72.6642 81.5015 72.9517 81.1088 72.9462C78.2621 72.8106 75.4646 73.0547 72.7869 73.6623C70.7201 74.1342 67.2627 74.9207 66.9736 76.4341C66.93 76.6673 66.9627 76.9277 67.0663 77.2043C67.2027 77.5623 67.0227 77.9692 66.6573 78.1048C66.5755 78.1373 66.4937 78.1482 66.4065 78.1482V78.1536Z" fill="#408F95"/>
<path d="M74.1174 86.4962C73.9974 86.4962 73.872 86.4636 73.7629 86.3985C72.5904 85.7096 71.4507 84.9611 70.3709 84.18C69.9019 83.8382 69.253 83.3717 68.4404 82.6774C67.6987 82.0482 66.9898 81.3756 66.3245 80.6813C66.2918 80.6487 66.2645 80.6108 66.2372 80.5728C66.21 80.5294 66.1609 80.4589 66.1009 80.3775C65.4029 79.3686 64.7539 78.3217 65.1738 77.5569C65.2938 77.3345 65.5992 76.9656 66.319 76.9927C66.7062 77.0036 67.0116 77.3236 67.0007 77.7088C66.9898 78.0125 66.788 78.2675 66.5099 78.3542C66.6026 78.5821 66.8153 78.9564 67.2516 79.5856C67.3006 79.6561 67.3443 79.7212 67.377 79.77C67.9932 80.4155 68.6585 81.0393 69.3457 81.6197C70.12 82.276 70.7363 82.7262 71.1889 83.0517C72.2305 83.8057 73.3321 84.5271 74.4664 85.1943C74.7991 85.3896 74.9081 85.8181 74.7118 86.149C74.5809 86.3714 74.3464 86.4907 74.1065 86.4907L74.1174 86.4962Z" fill="#408F95"/>
<path d="M92.9701 90.0111C92.6102 90.0111 92.2557 90.0057 91.9012 89.9948C87.135 89.8429 81.8288 88.7581 81.6052 88.7093C79.1894 88.1994 76.7735 87.543 74.4068 86.7565C74.0414 86.6318 73.8396 86.2412 73.965 85.8723C74.0905 85.5089 74.4831 85.3082 74.8539 85.433C77.1662 86.2032 79.5384 86.8433 81.8943 87.3423C81.9433 87.3532 87.3095 88.4489 91.9503 88.6008C93.3846 88.6496 94.8515 88.6008 96.2967 88.4489C96.9456 88.3838 97.3001 88.3296 98.7943 88.0963L100.594 87.8197C101.096 87.7437 101.548 87.6678 101.963 87.6027C103.272 87.3912 104.22 87.2338 105.311 87.2176C106.794 87.1905 108.321 87.3857 109.837 87.7871C110.214 87.8848 110.432 88.2699 110.334 88.6442C110.236 89.0185 109.848 89.2354 109.472 89.1378C108.081 88.7689 106.691 88.5899 105.333 88.6116C104.34 88.6279 103.435 88.7744 102.186 88.9805C101.766 89.051 101.308 89.1215 100.801 89.2029L99.007 89.4795C97.5237 89.7073 97.1201 89.7724 96.4385 89.8375C95.2878 89.9514 94.1262 90.0111 92.9756 90.0111H92.9701Z" fill="#408F95"/>
<path d="M112.329 84.4403C112.046 84.4403 111.757 84.4295 111.473 84.4132C111.424 84.4132 111.375 84.4024 111.331 84.3861C110.955 84.2776 110.579 84.1474 110.213 84.001C109.346 83.6538 108.73 83.2741 108.463 83.1114L108.392 83.068C105.605 81.4136 102.72 79.8676 99.8136 78.4627C97.136 77.1717 95.0256 76.152 92.1516 75.1756C89.1195 74.145 85.9566 73.4018 82.7445 72.9625C82.3628 72.9082 82.0901 72.5611 82.1446 72.1759C82.1992 71.7962 82.5482 71.5196 82.9354 71.5793C86.2401 72.0241 89.4904 72.7889 92.6097 73.8521C95.56 74.8556 97.7086 75.8916 100.424 77.2043C103.369 78.6255 106.292 80.1931 109.112 81.8638L109.204 81.918C109.439 82.0645 109.99 82.4008 110.742 82.7045C111.037 82.8239 111.342 82.9269 111.647 83.0192C112.176 83.0517 112.711 83.0463 113.234 83.0029C113.878 82.9486 114.347 82.8564 114.521 82.8184C116.321 82.455 120.378 81.9777 123.83 81.8258C125.783 81.7444 127.255 81.7716 129 82.1675C129.529 82.2869 130.053 82.4387 130.565 82.6069C130.931 82.7317 131.127 83.1276 131.007 83.4911C130.882 83.8545 130.484 84.0498 130.118 83.9304C129.655 83.7731 129.175 83.6375 128.689 83.529C127.097 83.1656 125.728 83.1385 123.89 83.2199C120.155 83.3826 116.267 83.887 114.816 84.18C114.603 84.2234 114.074 84.3318 113.349 84.3915C113.011 84.4186 112.667 84.4349 112.329 84.4349V84.4403Z" fill="#408F95"/>
<path d="M124.185 100.654C124.037 100.654 123.885 100.605 123.759 100.507L117.046 95.3703C115.835 94.3451 114.674 93.2819 113.567 92.1917C112.738 91.3726 111.914 90.521 111.129 89.6585C110.867 89.371 110.889 88.9316 111.178 88.6713C111.467 88.4109 111.909 88.4326 112.171 88.7201C112.94 89.5663 113.741 90.3962 114.554 91.199C115.634 92.2622 116.773 93.3036 117.93 94.2854L124.615 99.4006C124.921 99.6338 124.981 100.073 124.746 100.382C124.61 100.561 124.397 100.654 124.19 100.654H124.185Z" fill="#408F95"/>
<path d="M124.19 100.654C123.934 100.654 123.683 100.513 123.563 100.268C122.582 98.3103 121.949 96.2599 121.676 94.1715C121.447 92.4195 121.267 91.0363 121.884 89.4252C122.576 87.6081 123.863 86.5992 125.494 85.3245L125.636 85.216C126.972 84.1691 128.466 83.3012 130.075 82.6286C130.434 82.4767 130.843 82.6448 130.991 83.0028C131.138 83.3609 130.974 83.7677 130.614 83.9141C129.126 84.5325 127.741 85.3407 126.503 86.3063L126.361 86.4147C124.845 87.6027 123.749 88.4597 123.192 89.9134C122.702 91.1936 122.849 92.3055 123.067 93.9817C123.318 95.9127 123.907 97.8166 124.817 99.6338C124.992 99.9809 124.85 100.399 124.501 100.572C124.403 100.621 124.294 100.648 124.19 100.648V100.654Z" fill="#408F95"/>
<path d="M81.0974 84.1529C80.841 84.1529 80.5738 84.1366 80.3012 84.1041C78.3488 83.8545 77.0455 82.7968 76.4402 82.1893C76.1675 81.9126 76.1675 81.4733 76.4456 81.2021C76.7237 80.9308 77.1655 80.9308 77.4381 81.2075C77.918 81.6902 78.9433 82.5256 80.4811 82.7209C82.0135 82.9216 83.1315 82.3574 83.8731 81.9832C83.9822 81.9289 84.0694 81.8801 84.1403 81.8421C83.7968 81.6685 83.1751 81.4678 82.2862 81.2292C80.8029 80.8332 79.2268 80.6325 77.5963 80.6325C77.2091 80.6325 76.8928 80.3179 76.8928 79.9328C76.8928 79.5476 77.2091 79.233 77.5963 79.233C79.3523 79.233 81.0483 79.45 82.6516 79.8785C84.3694 80.3396 85.7873 80.8007 85.7818 81.8638C85.7818 82.5039 85.1656 82.8999 84.5057 83.2308C83.8295 83.5671 82.657 84.1583 81.0974 84.1583V84.1529Z" fill="#408F95"/>
<path d="M73.3425 84.1095C73.0753 84.1095 72.819 83.9576 72.699 83.6973C72.5409 83.3447 72.699 82.9324 73.0535 82.7751C74.335 82.2001 75.4366 81.3865 76.3201 80.3559C76.7891 79.808 77.1926 79.2005 77.5198 78.555C77.6943 78.2078 78.1142 78.0722 78.4633 78.2458C78.8123 78.4194 78.9486 78.8371 78.7741 79.1842C78.3978 79.9328 77.9288 80.6325 77.3889 81.2672C76.3692 82.4605 75.104 83.3989 73.6261 84.0553C73.5334 84.0987 73.4352 84.1149 73.3371 84.1149L73.3425 84.1095Z" fill="#408F95"/>
<path d="M70.8671 76.8843C70.7526 76.8843 70.6381 76.868 70.5236 76.8409C69.7983 76.6565 69.3565 75.9134 69.5474 75.1919C69.6401 74.8393 69.8582 74.5464 70.1745 74.3674C70.4908 74.183 70.8562 74.1342 71.2052 74.221C71.5597 74.3132 71.8542 74.5302 72.0396 74.8448C72.225 75.154 72.2741 75.5228 72.1868 75.87C72.0941 76.2171 71.876 76.5155 71.5597 76.6945C71.347 76.8192 71.1125 76.8843 70.8726 76.8843H70.8671ZM70.8671 75.4903C70.8671 75.4903 70.8289 75.5065 70.8235 75.5228C70.8235 75.5445 70.8344 75.5716 70.8562 75.5771C70.8835 75.5825 70.9053 75.5662 70.9107 75.5445C70.9162 75.5228 70.9053 75.4957 70.878 75.4903C70.878 75.4903 70.878 75.4903 70.8726 75.4903H70.8671Z" fill="#408F95"/>
<path d="M87.8323 92.7016C87.6087 92.7016 87.4233 92.6853 87.3033 92.6744C86.5944 92.6039 85.88 92.4846 85.1874 92.3164C84.2385 92.0886 83.3005 91.7632 82.4062 91.3618C79.1614 89.8918 77.4218 88.7147 74.5369 86.7674C74.2152 86.5504 74.1334 86.1164 74.3515 85.7964C74.5697 85.4764 75.0059 85.395 75.3277 85.612C78.2453 87.581 79.854 88.6659 82.9897 90.0925C83.8023 90.4613 84.6584 90.7542 85.5201 90.9604C86.1472 91.1122 86.7962 91.2207 87.4397 91.2858C87.8378 91.3238 88.225 91.2912 88.454 91.2424C88.2522 90.9332 87.6905 90.3311 86.4799 89.4253C86.169 89.192 86.109 88.7581 86.3381 88.4489C86.5726 88.1397 87.0089 88.0801 87.3197 88.3079C90.0518 90.3474 90.1282 91.2478 89.8446 91.8554C89.512 92.5714 88.5085 92.7016 87.8269 92.7016H87.8323Z" fill="#408F95"/>
<path d="M103.609 94.0088C102.028 94.0088 100.468 93.7864 98.9465 93.3471C96.607 92.669 94.3984 91.454 92.5551 89.8375C92.2661 89.5826 92.2388 89.1432 92.4952 88.8503C92.7515 88.5628 93.1932 88.5357 93.4877 88.7906C95.1782 90.2715 97.2014 91.3835 99.3446 92.0073C100.866 92.4466 102.437 92.6473 104.018 92.6094C103.98 92.0778 103.855 91.3238 103.506 90.7488C103.38 90.5427 103.189 90.2281 102.824 89.9515C102.715 89.8701 102.633 89.8213 102.442 89.7074L102.284 89.6151C101.837 89.3439 101.471 89.1161 101.231 88.9642C100.904 88.7581 100.812 88.3242 101.019 87.9987C101.226 87.6732 101.662 87.581 101.99 87.7871C102.224 87.939 102.573 88.156 103.015 88.4218L103.167 88.514C103.424 88.6713 103.533 88.7364 103.68 88.8449C104.253 89.2788 104.558 89.7833 104.705 90.0274C105.452 91.2533 105.452 92.8426 105.436 93.2983C105.425 93.6563 105.142 93.9437 104.782 93.9709C104.389 93.998 104.002 94.0088 103.609 94.0088Z" fill="#408F95"/>
<path d="M106.947 81.3322C106.947 81.3322 106.903 81.3322 106.882 81.3322C106.265 81.278 105.616 81.1804 104.897 81.0447C104.515 80.9688 104.269 80.6054 104.34 80.2257C104.417 79.846 104.787 79.6019 105.164 79.6724C105.84 79.8026 106.44 79.8894 107.007 79.9436C107.394 79.9762 107.678 80.3179 107.645 80.703C107.612 81.0664 107.307 81.3377 106.947 81.3377V81.3322Z" fill="#408F95"/>
<path d="M108.304 81.4624C107.846 81.4624 107.35 81.419 106.821 81.3268C106.439 81.2617 106.183 80.8983 106.254 80.5186C106.319 80.1389 106.685 79.8839 107.067 79.9544C108.85 80.269 109.864 79.911 110.06 79.4554C110.24 79.0323 109.815 78.1373 108.457 77.1826C108.141 76.9602 108.065 76.5263 108.288 76.2117C108.512 75.8971 108.948 75.8211 109.264 76.0435C111.075 77.3182 111.855 78.7936 111.353 79.9924C110.949 80.9525 109.848 81.4678 108.304 81.4678V81.4624Z" fill="#408F95"/>
<path d="M107.007 76.4123C106.908 76.4123 106.81 76.3907 106.712 76.3473C105.256 75.6801 103.756 75.078 102.246 74.5518C96.8797 72.675 91.1863 71.6715 85.3294 71.5739C84.9422 71.5684 84.6313 71.2484 84.6368 70.8633C84.6422 70.4782 84.9749 70.169 85.3512 70.1744C91.3608 70.272 97.2014 71.3026 102.709 73.2283C104.258 73.7707 105.801 74.3891 107.296 75.0725C107.65 75.2353 107.803 75.6475 107.639 76.0001C107.519 76.255 107.268 76.4069 107.001 76.4069L107.007 76.4123Z" fill="#408F95"/>
<path d="M76.3701 73.0709C76.081 73.0709 75.8084 72.8919 75.7102 72.6045C75.5793 72.241 75.7702 71.8396 76.1356 71.7149C77.2317 71.3243 78.366 71.0097 79.5058 70.7656C80.591 70.5324 81.7089 70.3696 82.8214 70.272C83.0832 70.2503 83.3013 70.234 83.454 70.2232C83.8467 70.1961 84.1739 70.489 84.2011 70.8741C84.223 71.2592 83.9339 71.5901 83.5467 71.6172C83.3995 71.6281 83.1923 71.6389 82.9469 71.6606C81.8944 71.7528 80.8364 71.9101 79.8057 72.1325C78.7259 72.3604 77.6516 72.6641 76.61 73.033C76.5337 73.0601 76.4519 73.0709 76.3755 73.0709H76.3701Z" fill="#408F95"/>
<path d="M87.5165 72.2736C87.3802 72.2736 87.2438 72.1977 87.1729 72.0675C87.0748 71.8776 87.1457 71.6498 87.3365 71.5468C87.4292 71.4979 87.5601 71.4329 87.7292 71.3569C88.3454 71.0803 88.9998 70.8796 89.6815 70.7711C90.205 70.6843 90.7395 70.6572 91.2793 70.6789C91.492 70.6897 91.6556 70.8687 91.6502 71.0803C91.6393 71.2918 91.4648 71.4545 91.2466 71.4491C90.7667 71.4274 90.2814 71.4545 89.8069 71.5305C89.1961 71.6281 88.6072 71.8071 88.0509 72.0566C87.9037 72.1217 87.7837 72.1814 87.7019 72.2248C87.6419 72.2573 87.5819 72.2682 87.522 72.2682L87.5165 72.2736Z" fill="#408F95"/>
<path d="M91.099 73.0167C90.9408 73.0167 90.7881 72.9191 90.7336 72.7564C90.6627 72.5557 90.7718 72.3387 90.9735 72.2682C91.0662 72.2356 91.2026 72.1922 91.3662 72.138C91.9824 71.9481 92.6259 71.7854 93.2858 71.6661C93.7929 71.5739 94.311 71.5033 94.8182 71.46C95.0254 71.4383 95.2163 71.601 95.2381 71.8125C95.2544 72.0241 95.0963 72.2085 94.8836 72.2302C94.4037 72.2736 93.9129 72.3387 93.4276 72.4255C92.8004 72.5394 92.1842 72.6913 91.6007 72.8703C91.4425 72.9191 91.3171 72.9625 91.2298 72.9896C91.1862 73.0059 91.148 73.0113 91.1044 73.0113L91.099 73.0167Z" fill="#408F95"/>
<path d="M95.5815 74.1124C95.4288 74.1124 95.287 74.0256 95.227 73.8792C95.1452 73.6839 95.2379 73.4561 95.4342 73.3747C95.5269 73.3367 95.6633 73.2825 95.8269 73.2228C96.4431 72.995 97.0921 72.8214 97.7574 72.7021C98.2755 72.6153 98.799 72.5611 99.3171 72.5448C99.5297 72.5448 99.7097 72.7075 99.7152 72.9191C99.7206 73.1306 99.5516 73.3096 99.3389 73.3151C98.859 73.3313 98.3682 73.3801 97.8883 73.4615C97.2666 73.57 96.6667 73.7327 96.0941 73.9443C95.9414 73.9985 95.816 74.0528 95.7342 74.0853C95.6851 74.107 95.636 74.1178 95.5869 74.1178L95.5815 74.1124Z" fill="#408F95"/>
<path d="M100.73 90.6403C100.681 90.6403 100.632 90.6295 100.588 90.6132L97.6649 89.4632C97.4686 89.3873 97.3705 89.1595 97.4468 88.9642C97.5232 88.7689 97.7522 88.6713 97.9485 88.7472L100.872 89.8972C101.068 89.9731 101.166 90.2009 101.09 90.3962C101.03 90.5481 100.882 90.6403 100.73 90.6403Z" fill="#408F95"/>
<path d="M120.384 94.7356C120.231 94.7356 120.078 94.676 119.964 94.5567C119.189 93.7593 118.557 92.8588 118.077 91.877C117.433 90.5698 116.828 89.333 117.275 88.0095C117.728 86.6588 118.998 86.0405 120.345 85.3841C121.447 84.8471 122.625 84.5 123.857 84.3481C124.179 84.3101 124.463 84.5325 124.501 84.8525C124.539 85.1672 124.316 85.4547 123.994 85.4926C122.898 85.6228 121.84 85.9374 120.858 86.4148C119.642 87.0114 118.677 87.4779 118.377 88.3729C118.082 89.2462 118.54 90.1847 119.124 91.3672C119.549 92.2405 120.116 93.0433 120.804 93.7538C121.027 93.9817 121.016 94.3505 120.787 94.5675C120.673 94.676 120.531 94.7302 120.384 94.7302V94.7356Z" fill="#408F95"/>
<path d="M17.2489 12.7742C17.1398 12.7742 17.0307 12.7471 16.9271 12.6983C14.3968 11.3965 11.7464 10.458 9.05788 9.90477C6.98014 9.47625 3.51178 8.76024 2.61197 10.0187C2.47564 10.214 2.39384 10.4635 2.37202 10.7564C2.34476 11.1415 2.00665 11.429 1.62491 11.4073C1.23772 11.3802 0.943234 11.0493 0.970501 10.6642C1.00867 10.1055 1.17773 9.61728 1.46676 9.21045C2.89555 7.20888 6.62022 7.97913 9.34146 8.53784C12.1554 9.11824 14.9203 10.1 17.5706 11.4615C17.9142 11.6405 18.0505 12.0582 17.8706 12.4C17.7451 12.6386 17.4997 12.7797 17.2489 12.7797V12.7742Z" fill="#408F95"/>
<path d="M5.19135 22.1854C4.96776 22.1854 4.74963 22.0823 4.61329 21.8871C3.83346 20.7751 3.11361 19.6251 2.4592 18.4643C2.17563 17.9599 1.78298 17.2655 1.3358 16.3C0.926799 15.4213 0.561422 14.5154 0.245125 13.6041C0.228765 13.5607 0.217858 13.5173 0.212405 13.4685C0.206951 13.4143 0.190591 13.3329 0.174231 13.2299C-0.0384515 12.0257 -0.191146 10.8052 0.512341 10.279C0.714117 10.1271 1.15039 9.92102 1.79389 10.2411C2.14291 10.4092 2.28469 10.8323 2.11564 11.174C1.9793 11.4453 1.68482 11.5971 1.40124 11.5592C1.39579 11.8033 1.42851 12.2372 1.55939 12.9858C1.57575 13.0726 1.58666 13.1485 1.59757 13.2082C1.89205 14.0544 2.23016 14.8951 2.6119 15.7088C3.03726 16.6255 3.41355 17.2872 3.68622 17.7754C4.31881 18.8928 5.01684 20.0048 5.76941 21.0843C5.993 21.3989 5.9112 21.8382 5.5949 22.0552C5.47493 22.142 5.33314 22.18 5.19681 22.18L5.19135 22.1854Z" fill="#408F95"/>
<path d="M36.3792 39.3262C36.2211 39.3262 36.0629 39.272 35.932 39.1635C34.825 38.2522 33.6307 37.5145 32.3928 36.9721C31.4875 36.5761 30.6041 36.3374 29.3771 36.0066C28.9681 35.8927 28.5209 35.7733 28.0246 35.6323L26.2686 35.1387C24.8289 34.7319 24.4418 34.6234 23.7873 34.401C22.3476 33.9128 20.9407 33.327 19.5991 32.6652C15.3291 30.5551 10.961 27.3656 10.7756 27.23C8.79597 25.7655 6.87092 24.1653 5.04949 22.4729C4.76591 22.2071 4.74955 21.7677 5.01677 21.4857C5.28398 21.2036 5.72571 21.1873 6.00929 21.4531C7.79255 23.1075 9.67397 24.6752 11.6099 26.1072C11.6535 26.1397 16.0708 29.3564 20.2263 31.4122C21.5133 32.0468 22.8603 32.6055 24.24 33.0774C24.8562 33.2836 25.1998 33.3812 26.6449 33.788L28.4009 34.2816C28.8917 34.4227 29.3334 34.542 29.7425 34.6505C31.024 34.9976 31.9456 35.2526 32.949 35.6865C34.3124 36.2778 35.6158 37.086 36.821 38.0787C37.1209 38.3227 37.1591 38.7621 36.9137 39.0605C36.7773 39.2286 36.5755 39.3154 36.3738 39.3154L36.3792 39.3262Z" fill="#408F95"/>
<path d="M57.3638 43.183C57.1893 43.183 57.0202 43.1179 56.8839 42.9931C56.524 42.6568 56.1477 42.3368 55.755 42.0384C54.4626 41.0512 53.2247 40.46 51.5232 39.7711C48.0548 38.3716 44.3138 37.2216 42.8741 36.8853C42.6614 36.8365 42.1325 36.7118 41.4508 36.4677C40.8618 36.2561 40.2892 36.0012 39.7384 35.7028C39.6948 35.6811 39.6566 35.654 39.6185 35.6215C39.324 35.3665 39.0349 35.0953 38.7623 34.8078C38.1242 34.1352 37.7152 33.5331 37.5462 33.2727L37.4971 33.2022C35.6593 30.5497 33.6797 27.9406 31.6238 25.4617C29.726 23.1781 28.2372 21.3772 26.0395 19.2997C23.7164 17.1083 21.1533 15.1176 18.4157 13.3926C18.0885 13.1865 17.9903 12.7526 18.1975 12.4271C18.4048 12.1016 18.841 12.004 19.1682 12.2101C21.9822 13.9839 24.6216 16.0288 27.0102 18.2854C29.2679 20.4225 30.7894 22.2505 32.709 24.5667C34.7976 27.0836 36.799 29.7198 38.6587 32.4103L38.7186 32.4971C38.8713 32.7249 39.2313 33.2565 39.7875 33.8477C40.0056 34.081 40.2401 34.3034 40.4801 34.5095C40.9436 34.759 41.4344 34.976 41.9307 35.155C42.536 35.3719 42.9996 35.4804 43.1795 35.5238C44.9682 35.9415 48.8565 37.1837 52.0576 38.4801C53.8682 39.2124 55.1933 39.847 56.6167 40.9319C57.0475 41.2628 57.4619 41.6153 57.8546 41.9788C58.1382 42.2446 58.1491 42.6839 57.8819 42.966C57.7455 43.1124 57.5601 43.183 57.3692 43.183H57.3638Z" fill="#408F95"/>
<path d="M44.7887 55.8C44.5378 55.8 44.2924 55.6643 44.167 55.4257L40.2133 47.9781C39.5425 46.5406 38.9317 45.0978 38.3809 43.6495C37.9665 42.5646 37.5793 41.4526 37.2303 40.3352C37.1158 39.9664 37.3175 39.5758 37.6884 39.4619C38.0592 39.348 38.4518 39.5487 38.5664 39.9176C38.9099 41.0078 39.2917 42.0981 39.6952 43.1559C40.2351 44.5716 40.8295 45.9874 41.473 47.3597L45.4104 54.7748C45.5903 55.1165 45.4594 55.5396 45.1159 55.7186C45.0123 55.7728 44.8977 55.8 44.7887 55.8Z" fill="#408F95"/>
<path d="M44.7835 55.7999C44.4072 55.7999 44.0963 55.5016 44.08 55.1219C44.0091 52.9359 44.2927 50.8096 44.9198 48.7972C45.4488 47.1102 45.8632 45.7758 47.0957 44.5716C48.4863 43.2047 50.0787 42.825 52.0965 42.3422L52.271 42.2988C53.9234 41.9028 55.6466 41.7293 57.3863 41.7889C57.7734 41.7998 58.0788 42.1252 58.0625 42.5104C58.0516 42.8955 57.7353 43.2047 57.3372 43.183C55.723 43.1287 54.1306 43.286 52.5982 43.6549L52.4237 43.6983C50.5477 44.1485 49.1953 44.474 48.0773 45.5697C47.0957 46.5298 46.763 47.5984 46.2613 49.2148C45.6778 51.0754 45.4161 53.0498 45.487 55.0785C45.4979 55.4636 45.1979 55.7891 44.8053 55.7999C44.7998 55.7999 44.7889 55.7999 44.7835 55.7999Z" fill="#408F95"/>
<path d="M15.1006 23.4601C14.179 23.4601 12.8647 23.3353 11.5232 22.5C9.85443 21.464 9.11277 19.9614 8.81828 19.1586C8.6874 18.7952 8.87282 18.3938 9.23819 18.2636C9.60357 18.1334 10.0071 18.3179 10.138 18.6813C10.3725 19.3159 10.956 20.5039 12.2703 21.3175C13.5791 22.1311 14.8334 22.0823 15.6623 22.0498C15.7823 22.0498 15.8804 22.0389 15.9622 22.0281C15.7168 21.7297 15.2424 21.285 14.5334 20.6991C13.3501 19.7227 12.0031 18.8874 10.5197 18.2148C10.1653 18.0521 10.0126 17.6398 10.1762 17.2872C10.3343 16.9347 10.7542 16.7828 11.1087 16.9455C12.7011 17.6724 14.1572 18.5728 15.4332 19.6251C16.802 20.7534 17.8982 21.7677 17.451 22.7278C17.1783 23.3136 16.4258 23.4167 15.7168 23.4438C15.5423 23.4493 15.3351 23.4601 15.106 23.4601H15.1006Z" fill="#408F95"/>
<path d="M5.57883 19.6902C5.54611 19.6902 5.51884 19.6902 5.48612 19.6902C5.09893 19.6902 4.78809 19.3702 4.78809 18.9851C4.78809 18.5999 5.10438 18.2907 5.49157 18.2907C5.51884 18.2907 5.55156 18.2907 5.57883 18.2907C6.95308 18.2907 8.26735 18.0087 9.48346 17.4446C10.1379 17.1408 10.7596 16.7557 11.3322 16.3054C11.6375 16.0614 12.0793 16.1102 12.3192 16.4139C12.5592 16.7177 12.5155 17.1571 12.2102 17.3957C11.5503 17.9219 10.8359 18.3613 10.0779 18.7138C8.67635 19.3593 7.16577 19.6902 5.58428 19.6902H5.57883Z" fill="#408F95"/>
<path d="M6.53278 12.1559C6.23284 12.1559 5.92745 12.0583 5.67659 11.8521C5.39302 11.6243 5.21851 11.2989 5.18033 10.9409C5.14216 10.5829 5.25123 10.2303 5.48027 9.94821C5.70931 9.66614 6.03652 9.49256 6.39644 9.45459C6.75636 9.41662 7.11084 9.51968 7.39441 9.75293C7.67799 9.98075 7.8525 10.3062 7.89067 10.6642C7.92884 11.0222 7.81978 11.3748 7.59073 11.6569C7.32352 11.9877 6.93087 12.1559 6.53278 12.1559ZM6.53278 10.7619C6.53278 10.7619 6.50551 10.7619 6.50006 10.7781C6.48915 10.7944 6.48915 10.8269 6.50551 10.8378C6.52187 10.8541 6.55459 10.8486 6.5655 10.8324C6.5764 10.8161 6.5764 10.7836 6.56004 10.7727C6.55459 10.7673 6.54368 10.7619 6.53278 10.7619Z" fill="#408F95"/>
<path d="M16.1146 33.7934C15.3893 33.7934 14.5931 33.3758 14.2986 33.2022C13.6824 32.8442 13.0879 32.4428 12.5262 32.0034C11.7573 31.4013 11.0375 30.7178 10.394 29.9801C8.05991 27.2951 6.96923 25.5105 5.16416 22.5434C4.96238 22.2125 5.07145 21.784 5.39865 21.5833C5.73131 21.3826 6.16213 21.4911 6.3639 21.8165C8.19079 24.8162 9.19967 26.4706 11.4574 29.0634C12.0409 29.736 12.6953 30.3544 13.3933 30.9023C13.9005 31.3037 14.4458 31.6671 15.0075 31.9926C15.3565 32.1933 15.7165 32.3234 15.951 32.3723C15.8964 32.0088 15.6401 31.2277 14.9148 29.9042C14.7294 29.5679 14.8548 29.1394 15.1984 28.9549C15.5365 28.7705 15.9673 28.8953 16.1527 29.237C17.7833 32.2258 17.4779 33.072 16.9653 33.5114C16.7253 33.7121 16.4309 33.788 16.12 33.788L16.1146 33.7934Z" fill="#408F95"/>
<path d="M29.8955 41.6587C29.8137 41.6587 29.7319 41.6424 29.6501 41.6153C27.796 40.921 26.1 39.9175 24.6112 38.632C22.768 37.0481 21.2683 35.0248 20.2703 32.7954C20.1122 32.4428 20.2703 32.0306 20.6248 31.8733C20.9793 31.716 21.3937 31.8733 21.5519 32.2258C22.468 34.2762 23.8423 36.1259 25.5274 37.5742C26.7217 38.6048 28.0632 39.4348 29.5247 40.0585C29.7101 39.5541 29.9119 38.8272 29.8356 38.1546C29.8083 37.9159 29.7647 37.5525 29.552 37.1457C29.4865 37.0264 29.432 36.9504 29.3066 36.766L29.203 36.6141C28.9085 36.1802 28.674 35.8222 28.5213 35.5835C28.3141 35.258 28.4068 34.8241 28.734 34.618C29.0612 34.4118 29.492 34.504 29.7047 34.8295C29.8519 35.0628 30.081 35.4099 30.37 35.833L30.4736 35.9849C30.6427 36.2344 30.7136 36.3375 30.7954 36.5002C31.1335 37.1348 31.1989 37.7152 31.2316 37.9973C31.3952 39.4131 30.7354 40.8613 30.5281 41.2736C30.4082 41.5177 30.1573 41.6587 29.901 41.6587H29.8955Z" fill="#408F95"/>
<path d="M37.197 31.0921C37.077 31.0921 36.9571 31.065 36.848 30.9999C36.3136 30.6961 35.7628 30.3381 35.1629 29.915C34.8466 29.6926 34.7757 29.2533 34.9993 28.9387C35.2229 28.6241 35.6646 28.5535 35.9809 28.7759C36.5371 29.1719 37.0498 29.5028 37.546 29.7849C37.8841 29.9747 37.9986 30.4032 37.8078 30.7395C37.6769 30.9619 37.4424 31.0921 37.197 31.0921Z" fill="#408F95"/>
<path d="M39.9618 32.1715C39.0566 32.1715 37.9605 31.7647 36.7989 30.9673C36.4771 30.7504 36.4008 30.311 36.6189 29.9964C36.8371 29.6764 37.2788 29.6004 37.5951 29.8174C39.0839 30.8372 40.1582 30.9402 40.5235 30.5985C40.8617 30.2839 40.8507 29.2967 40.0164 27.8701C39.8201 27.5392 39.9346 27.1107 40.2727 26.9154C40.6053 26.7201 41.0362 26.834 41.2325 27.1703C42.345 29.0797 42.4377 30.7449 41.4779 31.6237C41.0798 31.9871 40.5617 32.1715 39.9618 32.1715Z" fill="#408F95"/>
<path d="M39.3185 26.6442C39.1222 26.6442 38.9259 26.5629 38.7841 26.4001C37.737 25.1905 36.63 24.0189 35.4793 22.9177C31.3893 18.9851 26.6339 15.7197 21.3496 13.2028C21.0006 13.0346 20.8533 12.617 21.0169 12.2698C21.186 11.9226 21.6004 11.7762 21.9549 11.9389C27.3756 14.5155 32.2564 17.8731 36.4555 21.9088C37.6334 23.0425 38.7786 24.2467 39.8475 25.4889C40.0983 25.7818 40.0656 26.2211 39.7711 26.4761C39.6402 26.59 39.4766 26.6442 39.313 26.6442H39.3185Z" fill="#408F95"/>
<path d="M19.9537 12.541C19.8719 12.541 19.7846 12.5248 19.7028 12.4922C19.5665 12.438 19.3702 12.3675 19.1357 12.2861C18.1377 11.9335 17.1125 11.6406 16.0818 11.4128C15.002 11.1741 13.9004 11.006 12.7988 10.9083C12.4116 10.8758 12.1281 10.534 12.1608 10.1489C12.1935 9.76379 12.5316 9.48173 12.9242 9.51427C14.0858 9.61734 15.2474 9.79634 16.3872 10.0459C17.4724 10.2845 18.5521 10.5937 19.6047 10.968C19.8501 11.0548 20.0573 11.1307 20.2045 11.1904C20.5644 11.326 20.7499 11.7328 20.6081 12.0908C20.499 12.3675 20.2372 12.541 19.9537 12.541Z" fill="#408F95"/>
<path d="M26.9451 15.5732C26.8852 15.5732 26.8252 15.5569 26.7706 15.5298C26.3398 15.3128 25.8926 15.1392 25.4291 15.009C24.8347 14.8463 24.2184 14.7649 23.6131 14.7595C23.4495 14.7595 23.3132 14.7595 23.2259 14.7704C23.0023 14.7812 22.8278 14.6185 22.8169 14.4069C22.806 14.1954 22.9696 14.011 23.1823 14.0001C23.2859 13.9947 23.4386 13.9893 23.6186 13.9893C24.2948 13.9893 24.9765 14.0815 25.6363 14.2659C26.1489 14.4069 26.6507 14.6022 27.1251 14.8409C27.316 14.9385 27.3923 15.1718 27.2942 15.3562C27.2233 15.4918 27.0924 15.5677 26.9506 15.5677L26.9451 15.5732Z" fill="#408F95"/>
<path d="M29.8787 17.7809C29.8351 17.7809 29.7914 17.7755 29.7478 17.7592C29.2897 17.5965 28.8207 17.4555 28.3408 17.3307C27.7246 17.1734 27.1029 17.0595 26.4921 16.9781C26.3285 16.9564 26.1976 16.9456 26.1049 16.9347C25.8923 16.913 25.7341 16.7286 25.7559 16.5171C25.7777 16.3055 25.9686 16.1536 26.1758 16.1699C26.274 16.1807 26.4158 16.1916 26.5848 16.2133C27.2229 16.2947 27.8773 16.4194 28.5262 16.5821C29.028 16.7069 29.5242 16.8588 30.0041 17.0324C30.2059 17.1029 30.3095 17.3253 30.2386 17.526C30.1841 17.6833 30.0314 17.7809 29.8732 17.7809H29.8787Z" fill="#408F95"/>
<path d="M33.5053 20.6123C33.4562 20.6123 33.4071 20.6015 33.3526 20.5798C32.9054 20.3899 32.4419 20.238 31.9729 20.1133C31.3621 19.956 30.7459 19.8529 30.1406 19.8095C29.977 19.7987 29.8461 19.7933 29.7534 19.7878C29.5407 19.7824 29.3716 19.6034 29.3771 19.3919C29.3825 19.1803 29.557 19.0176 29.7752 19.0176C29.8733 19.0176 30.0206 19.0284 30.1951 19.0393C30.8495 19.0881 31.5148 19.1966 32.1692 19.3702C32.6709 19.5003 33.1726 19.6685 33.6525 19.8746C33.8489 19.956 33.9416 20.1838 33.8598 20.3791C33.7998 20.5255 33.6525 20.6123 33.5053 20.6123Z" fill="#408F95"/>
<path d="M27.5172 36.945C27.4136 36.945 27.3154 36.907 27.2391 36.8256L25.0632 34.5691C24.9159 34.4173 24.9214 34.1732 25.0741 34.0267C25.2268 33.8802 25.4722 33.8857 25.6194 34.0376L27.7953 36.2941C27.9426 36.4459 27.9371 36.69 27.7844 36.8365C27.7081 36.907 27.6153 36.945 27.5172 36.945Z" fill="#408F95"/>
<path d="M43.7576 48.835C43.5176 48.835 43.2941 48.6886 43.2123 48.4499C42.8414 47.403 42.6451 46.3236 42.6178 45.2333C42.5851 43.7741 42.5469 42.4018 43.5067 41.382C44.4829 40.346 45.8953 40.308 47.395 40.2646C48.622 40.2321 49.8381 40.4056 51.0215 40.7799C51.3269 40.8775 51.496 41.203 51.3978 41.5068C51.2996 41.8105 50.9724 41.9787 50.667 41.881C49.6145 41.5447 48.5184 41.3929 47.4277 41.42C46.0698 41.4579 45.001 41.4851 44.352 42.174C43.7194 42.8466 43.7467 43.888 43.774 45.2061C43.7958 46.1771 43.9757 47.1426 44.3029 48.0702C44.4065 48.3685 44.2484 48.6994 43.9485 48.8025C43.883 48.8242 43.8176 48.835 43.7576 48.835Z" fill="#408F95"/>
</g>
<defs>
<clipPath id="clip0_2638_34362">
<rect width="301" height="138" fill="white"/>
</clipPath>
</defs>
</svg>
