<svg width="24" height="22" viewBox="0 0 24 22" fill="none" xmlns="http://www.w3.org/2000/svg">
<g filter="url(#filter0_ddd_2065_8200)">
<path d="M12 5.5C11.11 5.5 10.24 5.76392 9.49993 6.25839C8.75991 6.75285 8.18314 7.45566 7.84254 8.27792C7.50195 9.10019 7.41283 10.005 7.58647 10.8779C7.7601 11.7508 8.18868 12.5526 8.81802 13.182C9.44736 13.8113 10.2492 14.2399 11.1221 14.4135C11.995 14.5872 12.8998 14.4981 13.7221 14.1575C14.5443 13.8169 15.2471 13.2401 15.7416 12.5001C16.2361 11.76 16.5 10.89 16.5 10C16.4988 8.80691 16.0243 7.66303 15.1806 6.81939C14.337 5.97575 13.1931 5.50124 12 5.5ZM12 13C11.4067 13 10.8266 12.8241 10.3333 12.4944C9.83994 12.1648 9.45542 11.6962 9.22836 11.1481C9.0013 10.5999 8.94189 9.99667 9.05764 9.41473C9.1734 8.83279 9.45912 8.29824 9.87868 7.87868C10.2982 7.45912 10.8328 7.1734 11.4147 7.05764C11.9967 6.94189 12.5999 7.0013 13.1481 7.22836C13.6962 7.45542 14.1648 7.83994 14.4944 8.33329C14.8241 8.82664 15 9.40666 15 10C15 10.7956 14.6839 11.5587 14.1213 12.1213C13.5587 12.6839 12.7956 13 12 13ZM16.5 0.25H7.5C6.10807 0.251489 4.77358 0.805091 3.78933 1.78933C2.80509 2.77358 2.25149 4.10807 2.25 5.5V14.5C2.25149 15.8919 2.80509 17.2264 3.78933 18.2107C4.77358 19.1949 6.10807 19.7485 7.5 19.75H16.5C17.8919 19.7485 19.2264 19.1949 20.2107 18.2107C21.1949 17.2264 21.7485 15.8919 21.75 14.5V5.5C21.7485 4.10807 21.1949 2.77358 20.2107 1.78933C19.2264 0.805091 17.8919 0.251489 16.5 0.25ZM20.25 14.5C20.25 15.4946 19.8549 16.4484 19.1516 17.1516C18.4484 17.8549 17.4946 18.25 16.5 18.25H7.5C6.50544 18.25 5.55161 17.8549 4.84835 17.1516C4.14509 16.4484 3.75 15.4946 3.75 14.5V5.5C3.75 4.50544 4.14509 3.55161 4.84835 2.84835C5.55161 2.14509 6.50544 1.75 7.5 1.75H16.5C17.4946 1.75 18.4484 2.14509 19.1516 2.84835C19.8549 3.55161 20.25 4.50544 20.25 5.5V14.5ZM18 5.125C18 5.3475 17.934 5.56501 17.8104 5.75002C17.6868 5.93502 17.5111 6.07922 17.3055 6.16436C17.1 6.24951 16.8738 6.27179 16.6555 6.22838C16.4373 6.18498 16.2368 6.07783 16.0795 5.9205C15.9222 5.76316 15.815 5.56271 15.7716 5.34448C15.7282 5.12625 15.7505 4.90005 15.8356 4.69448C15.9208 4.48891 16.065 4.31321 16.25 4.1896C16.435 4.06598 16.6525 4 16.875 4C17.1734 4 17.4595 4.11853 17.6705 4.3295C17.8815 4.54048 18 4.82663 18 5.125Z" fill="white"/>
</g>
<defs>
<filter id="filter0_ddd_2065_8200" x="-1.75" y="0.25" width="27.5" height="27.5" filterUnits="userSpaceOnUse" color-interpolation-filters="sRGB">
<feFlood flood-opacity="0" result="BackgroundImageFix"/>
<feColorMatrix in="SourceAlpha" type="matrix" values="0 0 0 0 0 0 0 0 0 0 0 0 0 0 0 0 0 0 127 0" result="hardAlpha"/>
<feOffset dy="4"/>
<feGaussianBlur stdDeviation="2"/>
<feComposite in2="hardAlpha" operator="out"/>
<feColorMatrix type="matrix" values="0 0 0 0 0 0 0 0 0 0 0 0 0 0 0 0 0 0 0.25 0"/>
<feBlend mode="normal" in2="BackgroundImageFix" result="effect1_dropShadow_2065_8200"/>
<feColorMatrix in="SourceAlpha" type="matrix" values="0 0 0 0 0 0 0 0 0 0 0 0 0 0 0 0 0 0 127 0" result="hardAlpha"/>
<feOffset dy="4"/>
<feGaussianBlur stdDeviation="2"/>
<feComposite in2="hardAlpha" operator="out"/>
<feColorMatrix type="matrix" values="0 0 0 0 0 0 0 0 0 0 0 0 0 0 0 0 0 0 0.25 0"/>
<feBlend mode="normal" in2="effect1_dropShadow_2065_8200" result="effect2_dropShadow_2065_8200"/>
<feColorMatrix in="SourceAlpha" type="matrix" values="0 0 0 0 0 0 0 0 0 0 0 0 0 0 0 0 0 0 127 0" result="hardAlpha"/>
<feOffset dy="4"/>
<feGaussianBlur stdDeviation="2"/>
<feComposite in2="hardAlpha" operator="out"/>
<feColorMatrix type="matrix" values="0 0 0 0 0 0 0 0 0 0 0 0 0 0 0 0 0 0 0.25 0"/>
<feBlend mode="normal" in2="effect2_dropShadow_2065_8200" result="effect3_dropShadow_2065_8200"/>
<feBlend mode="normal" in="SourceGraphic" in2="effect3_dropShadow_2065_8200" result="shape"/>
</filter>
</defs>
</svg>
