<svg width="128" height="53" viewBox="0 0 128 53" fill="none" xmlns="http://www.w3.org/2000/svg">
<g filter="url(#filter0_d_306_8065)">
<path d="M7.54875 27.0438L7.51101 27.081C7.54875 27.0438 7.54875 27.0438 7.54875 27.0065V26.82C7.96378 24.6198 8.75611 22.457 9.54844 20.3314C10.3785 18.0939 11.1708 15.8937 12.2273 13.7682C13.2083 11.7544 14.3402 9.77802 15.623 7.95076C16.7549 6.27266 18.1132 4.4454 19.8488 3.32667C20.377 3.17751 20.9052 2.61814 21.5843 2.73001C22.2635 2.84189 22.2635 3.55042 22.1126 4.22166C22.3012 3.69958 22.4144 3.14022 21.9616 2.76731C21.358 2.31981 20.1883 3.02834 19.6978 3.36396C19.4715 3.43854 19.2451 3.58771 19.0564 3.73687C19.1696 3.625 19.3205 3.51313 19.5092 3.40125L19.3205 3.47584L19.8488 3.17751C20.4524 2.84189 21.8107 2.09607 22.2635 3.06563C22.6031 3.84875 22.0748 5.15393 21.8107 5.89975C21.3202 7.16764 20.7165 8.36096 20.0751 9.55427C20.1883 9.29323 20.6411 8.28638 20.6411 8.28638C20.377 8.24908 19.1696 11.0086 18.9432 11.0832H18.981C18.83 11.1951 18.7169 11.3069 18.7169 11.3442C18.6414 11.7917 19.1696 11.6799 19.4715 11.6426C20.7543 11.4934 22.4144 10.412 23.2445 9.47969C24.15 8.47283 24.4896 6.9439 24.4896 5.60142V5.56413C24.4518 3.02834 22.6785 -0.178685 19.6224 0.00777C17.9245 0.0823533 16.3399 1.72316 15.2457 2.84189C14.4534 3.73687 13.6987 4.70644 13.0196 5.676C12.7178 6.1235 12.4159 6.5337 12.1518 6.98119C11.85 7.39139 11.2463 8.02534 11.0954 8.51012C11.0954 8.51012 11.284 8.28638 11.4349 8.13721C11.0199 8.77116 10.6426 9.4424 10.2653 10.0763C10.2276 10.0391 10.4917 9.51698 10.4917 9.51698C10.1521 9.4424 8.60519 12.5003 8.41654 12.8359C7.7374 14.0665 7.13371 15.2971 6.71868 16.6023C6.26592 18.0566 5.66224 19.4364 5.20948 20.8534C4.9831 21.562 4.75672 22.2332 4.6058 22.9417C4.53034 23.2774 4.45488 23.5757 4.41715 23.9113C4.41715 23.9486 4.34169 24.5453 4.41715 24.4707C4.34169 24.7317 4.34169 25.0673 4.30396 25.3284C4.30396 25.3284 4.30396 24.6944 4.34169 24.6198C4.19077 24.8063 4.30396 25.5148 4.26623 25.5894C4.07758 27.0065 3.77574 28.4981 4.26623 29.8779C4.90764 31.7797 6.4923 33.3459 8.22789 34.3528C9.13341 34.9122 10.3408 35.5461 11.4727 35.4715C12.7932 35.3969 14.076 34.3155 15.057 33.5324C17.9245 31.1458 20.5279 27.7896 21.0184 23.9859C21.0561 23.7249 21.2448 22.4197 20.792 22.3824C20.377 22.3451 20.0751 23.2401 19.9242 23.4638C18.7923 25.2911 17.4718 27.0065 16.0003 28.5727C14.4911 30.2135 12.6046 31.9662 10.303 32.4882C10.0012 32.5628 9.66163 32.6001 9.32206 32.6001C8.8693 32.5628 8.45427 32.451 8.1147 32.1153C7.92605 31.9289 7.7374 31.2949 7.51101 31.1831C7.51101 30.9966 7.47329 30.8101 7.43555 30.6983L7.32236 30.4745C7.28463 29.3558 7.32236 28.3116 7.51101 27.1556V27.1183C7.51101 27.081 7.54875 27.081 7.54875 27.0438ZM14.1892 8.80845C12.7178 11.1951 11.4727 13.6563 10.2276 16.1921C9.51071 17.6837 8.79384 19.2126 8.22789 20.8162C9.02022 18.3177 9.96347 15.931 11.0954 13.5444C12.4537 10.673 14.2647 7.87617 16.4153 5.56413C15.5475 6.60828 14.7929 7.80159 14.1892 8.80845ZM18.0754 4.70644C17.5472 5.22851 17.0567 5.82517 16.604 6.38453C17.3208 5.45226 18.0754 4.51998 19.0187 3.77416C18.6791 4.07249 18.3396 4.4454 18.0754 4.70644ZM21.9239 5.00477C21.9994 4.78102 22.0748 4.51998 22.1126 4.22166C22.0371 4.55727 21.8862 4.89289 21.8862 5.15393C21.9239 5.07935 21.9239 5.04206 21.9239 5.00477Z" fill="white"/>
<path d="M40.1862 20.7416C40.1862 20.7416 40.2239 20.7789 40.1862 20.7043C39.9975 20.4432 39.7334 20.6297 39.4693 20.7043C38.3751 20.928 37.2432 21.1891 36.1113 21.3755C36.5263 20.033 36.9414 18.616 37.0923 17.2362C37.1677 16.7141 37.2055 16.1548 37.0923 15.6327C37.0168 15.2971 36.9036 14.9615 36.715 14.6631C36.715 14.6631 36.2622 14.1038 36.3754 14.4021L36.3377 14.3648L36.1868 14.0665L36.3377 14.2156C36.3754 13.9919 35.734 13.5817 35.734 13.5817C34.7908 12.6494 33.5079 11.9409 32.2251 12.6494C31.4328 13.0969 30.7914 13.8427 30.2631 14.5886C30.0745 14.8496 29.8858 15.1479 29.7349 15.4462C29.584 15.7446 29.3576 16.7141 29.1312 16.8633C28.9426 17.0125 28.3766 17.0498 28.1125 17.1989C27.7352 17.3481 27.3957 17.5345 27.0938 17.7583C26.3769 18.2058 25.811 18.8397 25.2828 19.4737C24.3772 20.667 23.9245 22.0095 23.2831 23.2028C22.0757 25.4775 23.3963 28.4608 25.6223 29.5423C26.3392 29.8779 27.1693 30.027 27.9239 29.9524C28.7162 29.8406 29.4708 29.4304 30.0745 28.9829C30.6404 28.5727 31.8855 27.8269 32.1119 27.1929C32.1119 27.1556 32.0365 27.1929 31.9233 27.3048L33.0174 26.0369C33.0552 26.0742 32.7533 26.4471 32.7533 26.4471C33.0174 26.559 34.3757 24.5825 34.5266 24.4334C34.7908 23.9859 35.0549 23.5011 35.3567 23.0536C35.6208 22.718 35.5454 22.7553 35.9227 22.6061C35.8849 22.6434 36.3754 22.4942 36.4509 22.4942C36.8659 22.4197 41.2803 22.1213 40.1862 20.7416ZM27.1315 28.2744H27.0938C23.9622 28.7218 27.5843 22.1586 27.6598 21.7857L27.4334 22.1213C27.9993 21.0026 28.5276 20.1076 28.7917 19.8093C29.2067 21.6738 31.2441 22.3824 32.9042 22.6061C31.8101 24.769 29.7726 27.7896 27.1315 28.2744ZM34.5644 17.9447C34.3003 18.9889 34.0739 20.3687 33.5079 21.3009C33.3193 21.6738 33.4325 21.562 33.0552 21.6366C32.8288 21.7111 32.3383 21.6366 32.1119 21.5993C31.6969 21.562 31.2064 21.4874 30.9046 21.2264C30.3763 20.7789 30.4518 20.0703 30.5273 19.4364C30.6027 18.8024 30.7914 18.2058 31.0177 17.6091C31.1309 17.3854 31.8478 16.1921 31.7346 15.9683C31.6969 15.8565 31.2819 16.5277 31.2441 16.565C31.4705 16.1548 31.6969 15.931 31.8855 15.67C31.8478 15.67 31.8855 15.6327 31.9233 15.5581V15.5954L31.961 15.5208C31.961 15.5208 31.961 15.4835 31.9987 15.4835C32.5647 14.7377 33.9607 13.0596 34.7153 14.2156C35.2812 15.1852 34.753 17.0125 34.5644 17.9447ZM31.961 15.5208L31.9987 15.4835C31.9987 15.5208 31.961 15.5208 31.961 15.5208Z" fill="white"/>
<path d="M59.8671 20.928V20.8907C59.6407 19.6601 57.9429 21.7111 57.7165 21.8976C56.6223 23.0909 55.6036 24.3961 54.6226 25.7013C53.6416 27.0438 52.6984 28.3862 51.6797 29.7287C51.1892 30.3999 50.6987 31.0339 50.1327 31.6305C49.9441 31.8543 49.4913 32.4882 49.1518 32.4882C47.8312 32.4882 48.8499 27.2302 49.0008 26.4098C49.2272 24.9555 49.3404 23.0163 50.2837 21.8603C50.51 21.562 53.0757 18.3177 53.0757 18.3177C53.0002 18.2804 52.6984 18.6533 52.5097 18.877L54.1321 16.7141L54.2453 16.565H54.2831H54.2453L54.5472 16.1548C54.5849 16.1921 54.5472 16.2667 54.5094 16.3412L54.849 15.9683L55.83 14.7004C56.5469 13.6936 57.226 12.6121 57.8674 11.568C58.8861 9.8526 60.2821 7.39139 59.5275 5.30309C58.9616 3.77416 56.8864 3.47584 55.4904 3.99791C54.4717 4.37082 53.6039 5.15393 52.887 5.97433C52.5097 6.45912 52.1324 6.98119 51.7929 7.54055C51.6797 7.68972 51.1892 8.88303 51.076 9.0322H51.1137C50.8873 9.4424 50.661 9.8526 50.51 10.2628C50.5855 9.96447 50.7742 9.36781 50.9251 9.25594C50.6232 9.47969 50.3591 10.5611 50.2837 10.673C48.8499 13.7682 47.6048 16.9006 46.6993 20.1822C45.6806 19.0262 44.0582 17.0498 42.2849 17.7583C40.8134 18.3549 39.7192 19.8839 38.9646 21.2264C38.2855 22.4197 38.0969 23.6503 37.6064 24.8063C36.7386 26.7827 36.3235 30.8474 39.2665 31.4441C40.172 31.6305 41.0021 31.0712 41.7189 30.5864C43.0018 29.6541 44.2091 28.5727 45.341 27.454C45.1524 29.4304 44.7373 32.4137 46.3597 33.9799C48.3594 35.9936 50.3591 33.2714 51.5665 31.7797C53.1134 29.8406 54.3208 27.6777 55.8677 25.8132C56.6223 24.9182 57.3769 24.0232 58.1693 23.2028C58.7729 22.6061 59.9803 21.8603 59.8671 20.928ZM45.9824 23.3892C45.9447 23.5011 45.9447 23.5757 45.9447 23.5757C45.7938 24.4707 45.7938 25.2538 45.1524 25.8877C44.5864 26.4844 43.9827 27.0438 43.3791 27.6031C42.8131 28.1252 41.4548 29.6541 40.587 29.5795C39.5306 29.4677 40.3229 27.081 40.8511 25.6267C40.2852 27.1183 39.3797 29.5423 40.6248 29.6168C40.9643 29.6541 41.5303 29.3558 42.0208 28.9456C41.568 29.3558 40.8134 29.9152 40.3607 29.6914C39.4929 29.3185 40.2475 27.1929 40.3984 26.5963C40.8889 24.8809 41.6057 23.2401 42.4358 21.6739C42.8508 20.8907 43.4545 19.6228 44.2469 19.5483L44.0582 19.6601C44.0959 19.6228 44.1337 19.6228 44.1714 19.6228C44.4355 19.5483 44.6996 19.7347 44.8883 19.8839C45.3788 20.2195 45.6806 20.8534 46.0202 21.3382C46.3975 21.9349 46.1334 22.5688 45.9824 23.2401V23.3892ZM52.057 14.775C52.057 14.7377 52.057 14.6631 52.0947 14.6258V14.5886C52.1324 14.4767 52.1702 14.4394 52.1702 14.4394V14.4021C53.038 12.0155 53.9812 9.62885 55.3395 7.46597C55.6791 6.90661 56.6601 5.19122 57.5278 5.676C57.8674 5.86246 57.9429 6.34724 57.9429 6.68286C58.0938 8.92032 56.2827 11.568 55.1508 13.358C53.8303 15.4462 52.3588 17.4973 50.8119 19.3991L51.642 18.5414L52.3966 17.6091L50.4723 20.0703L50.2082 20.406L50.0573 20.5551C50.095 20.3314 50.2837 20.1076 50.4723 19.8466C50.3969 19.9212 50.3214 19.9958 50.2837 20.0703C50.7742 18.4668 51.3024 16.8633 51.8683 15.2598C51.8306 15.2971 51.8683 15.2225 51.9061 15.0733L52.0192 14.8869C52.0192 14.8496 52.0193 14.8123 52.057 14.775ZM48.8877 17.8329C48.8122 18.0193 48.5858 18.877 48.4726 18.9889C48.4726 19.0262 48.4349 19.0635 48.3972 19.0635C48.699 18.6906 48.5104 18.2058 48.6613 17.7583C48.7367 17.5345 49.114 17.1243 49.1895 16.826C49.1895 17.1243 49.0008 17.6464 48.8877 17.8329ZM42.8886 28.1625C43.8318 27.3421 44.7373 26.4844 45.6051 25.5894C45.5297 26.0742 44.36 26.8946 43.945 27.2675C43.4545 27.7523 42.8886 28.2371 42.3226 28.6846H42.2849L42.8886 28.1625ZM49.5668 14.4394C49.4159 14.8869 49.2272 15.2971 49.0008 15.7073C49.1895 15.1479 49.3027 14.5886 49.5668 14.0665C49.7932 13.6563 50.0573 13.1342 50.2459 12.6494C50.0573 13.2461 49.7554 13.88 49.5668 14.4394ZM52.0192 14.8869L51.8683 15.2598C51.8683 15.2225 51.9061 15.1479 51.9061 15.0733L52.0192 14.8869ZM43.8696 19.8093C43.7186 19.9212 43.6054 20.0703 43.5677 20.0703C43.6432 20.0703 43.7564 19.9212 43.8696 19.8093ZM44.926 19.7347C45.0015 19.772 45.0769 19.8093 45.1524 19.8839L44.926 19.7347ZM52.3966 19.0635C52.3966 19.0262 52.4343 18.9889 52.472 18.9516C52.4343 19.0262 52.3966 19.0635 52.3966 19.0635ZM52.472 18.9516L52.5097 18.877C52.5097 18.9143 52.472 18.9516 52.472 18.9516Z" fill="white"/>
<path d="M71.5475 20.8162C71.5475 20.8534 71.5475 20.8534 71.5098 20.8162V20.7789C70.9061 19.772 70.1138 21.1518 69.7742 21.6366C69.1328 22.4943 68.5291 23.3147 67.85 24.0978C67.284 24.769 66.6803 25.4402 66.2276 26.1488C66.2276 26.2234 66.1521 26.4098 66.1521 26.4098C66.0012 26.6336 65.7748 26.82 65.5862 27.0438C65.2466 27.3794 64.907 27.7523 64.5297 28.0879C63.9638 28.61 60.7944 31.556 60.3794 29.6541C60.153 28.7218 60.4549 27.5658 60.6435 26.6708C60.7567 26.1861 60.8699 25.7386 60.9454 25.2538C61.0208 24.8809 60.9076 24.508 61.0963 24.1351C61.2095 23.9113 61.2472 23.9486 61.5113 23.874L62.1527 23.6503C62.5678 23.5011 62.9828 23.3519 63.3601 23.1282C63.926 22.7926 64.4543 22.3824 64.9448 21.9722C66.1144 21.0026 67.3595 19.8466 67.85 18.3922C68.1141 17.5718 68.1518 16.6769 67.6236 15.9683C67.1331 15.3344 66.303 14.9988 65.5484 14.8496C63.511 14.4767 61.9641 15.6327 60.7944 17.1616C59.3607 18.9143 58.342 21.0772 57.8515 23.2774C57.5874 24.3588 57.4365 25.4402 57.2478 26.559C57.0592 27.6777 56.946 28.7219 57.5497 29.766C57.5119 29.3931 57.4365 29.0575 57.4365 28.7218C57.4365 28.5354 57.5119 28.3489 57.5119 28.1998C57.5119 28.1252 57.4365 27.9014 57.4365 27.7896C57.4365 27.454 57.5119 27.1929 57.5874 26.8573C57.6251 26.5217 57.5874 26.1861 57.6251 25.8504C57.6628 25.4775 57.8138 25.1792 57.9647 24.8436C58.0779 24.5453 58.1156 24.2842 58.2288 23.9859C58.342 23.7249 58.4174 23.4265 58.5306 23.1282C58.5684 22.9417 58.757 22.718 58.8702 22.4942C58.757 22.8299 58.5306 23.1282 58.4552 23.4265C58.342 23.874 58.4174 24.3588 58.3797 24.8063C58.3043 25.2911 58.1533 25.7759 58.0779 26.2979C58.0024 26.7827 57.776 27.2302 57.7006 27.715C57.6251 28.1625 57.4742 28.4981 57.5119 28.9456C57.5119 29.2066 57.5497 29.4677 57.5874 29.6914C57.6251 29.9897 57.8138 30.1762 58.0024 30.3999C58.6438 31.1458 59.5116 31.7424 60.4926 32.0035C61.1717 32.1899 61.7754 32.1526 62.4168 31.817C63.3224 31.3322 64.1147 30.5864 64.7938 29.8779C65.4352 29.1693 65.9257 28.3862 66.4917 27.6404C67.0199 26.9692 67.6613 26.3352 68.1895 25.664L70.227 23.0536L71.3966 21.5247C71.5853 21.3009 71.6984 21.1145 71.5475 20.8162ZM62.1905 21.2264C62.2282 21.1518 62.2282 21.1145 62.2282 21.1145C62.7941 19.9212 63.2092 18.6533 64.0015 17.4973L64.6806 16.6023C64.8316 16.4158 65.0957 16.0802 65.3598 16.0056C65.9257 15.8937 66.0767 16.8633 66.0389 17.2362L65.888 18.0193C65.8503 18.2431 65.9257 18.3922 65.888 18.5787C65.8125 18.8024 65.6239 18.9143 65.5107 19.1008L64.8693 19.9212C64.0015 20.928 62.9073 21.7857 61.7 22.4197C61.8886 22.0095 62.0018 21.5993 62.1905 21.2264Z" fill="white"/>
<path d="M91.9801 9.88989C91.8292 8.69658 89.9804 7.80159 88.9617 8.51012C88.1317 9.06949 87.3771 10.5984 86.7734 11.4934L83.0758 17.0125C82.5099 17.8702 81.9439 18.7279 81.3402 19.5483C81.1893 19.8093 79.7556 22.0095 79.7556 22.0095C79.9065 22.0468 80.2461 21.5247 80.3215 21.4501C79.3028 22.8672 77.9823 24.3588 76.7372 25.7759C76.3221 26.2979 73.832 29.5423 72.9264 29.1321C72.6246 28.9829 72.5491 28.4981 72.5114 28.2371C72.2096 26.2606 72.9642 24.2842 73.1905 22.3824L73.0396 22.7553L73.266 21.823C73.266 21.9349 73.2283 22.0468 73.2283 22.1586L73.266 21.9349L73.1528 23.0536C73.681 20.8162 74.4356 18.6533 75.3034 16.565C75.5298 16.0429 77.7182 10.6357 78.1709 10.1509C78.0955 10.1882 77.9823 10.3374 77.8691 10.4865C78.5859 9.18136 79.3406 7.95076 80.2083 6.75744C80.0197 7.05577 79.6801 7.61514 79.6801 7.61514C79.831 7.65243 81.3402 5.60142 81.3402 5.37768C81.3402 5.34038 81.2271 5.41497 81.1139 5.48955C81.4912 5.00477 81.7553 4.74373 81.4534 3.92333C81.0007 2.99105 79.6801 1.83503 78.5859 2.39439C78.3596 2.54356 78.2086 2.73001 78.0577 2.91647C77.2654 3.92333 76.624 5.22851 76.0958 6.34724C75.9071 6.79474 75.7562 6.86932 75.4544 7.20494C74.9639 7.7643 74.6997 8.51012 74.3602 9.14407C73.681 10.4865 73.1528 11.9036 72.5491 13.2834C71.9454 14.5513 71.455 15.8565 71.0399 17.1989C70.8513 17.721 70.7004 18.2431 70.5494 18.7652C70.3985 19.2872 69.8703 20.2568 69.9458 20.8162L70.1721 20.3314C69.9835 20.9653 69.8326 21.6366 69.6816 22.3078C69.6439 22.3078 69.7194 21.823 69.7194 21.823C69.5685 21.823 69.2289 23.4638 69.1534 23.6876C69.0025 24.4707 68.8893 25.2538 68.8139 26.0742C68.7761 26.9319 68.8139 27.715 69.2289 28.4981C70.0212 29.8779 71.455 31.2203 73.0019 31.7051C73.266 31.7797 73.5678 31.8543 73.832 31.817C74.0961 31.7797 74.3602 31.6678 74.5488 31.4814C74.6998 31.4068 75.3034 30.7729 74.8884 31.0712L75.6053 30.3999C75.6053 30.3999 75.2657 30.8101 75.1525 30.8847C75.3412 30.8101 75.7562 30.2508 75.7562 30.2508C77.0013 28.9083 78.2464 27.6031 79.3783 26.1488C80.5479 24.5825 81.6044 22.8672 82.6608 21.1891C82.359 22.0841 82.2835 22.979 82.0194 23.874C81.8685 24.3588 81.7175 24.8436 81.6044 25.3284C81.5289 25.5148 81.4534 26.4098 81.5289 26.3352C81.5289 26.4471 81.5289 26.5217 81.4912 26.5963C81.4912 26.559 81.4912 26.5217 81.4534 26.4844C81.3402 26.5217 81.3402 27.6404 81.3025 27.8269C81.1516 28.3489 80.9252 28.8337 80.8498 29.4304C80.6611 30.9966 80.7743 32.8239 81.7553 34.1663C82.359 34.9867 83.2645 35.4342 84.2832 35.5088C85.3774 35.5461 85.981 34.9494 86.547 34.129C86.9243 33.5697 87.2639 33.0849 87.4902 32.4509C87.6789 31.9289 88.0562 30.922 87.8298 30.3999C87.6789 30.0643 87.6034 30.027 87.3016 30.1762C86.8866 30.3254 86.3961 31.2203 86.132 31.556C85.7547 31.9662 85.0001 33.0103 84.3587 33.0849C83.9814 33.1222 84.0568 33.0476 83.9814 32.6001C83.9436 32.3391 83.9436 30.5864 83.9814 30.5491C83.8682 30.6983 83.8304 30.8474 83.7927 30.9966C83.9436 29.766 84.4718 28.2744 84.8491 26.9692C85.3019 25.4402 85.6415 23.9113 86.0565 22.3824C86.5093 20.8162 87.1129 19.2499 87.7544 17.7583C87.9053 17.4227 89.6031 13.7309 89.8672 13.3952C89.6031 13.5817 88.2449 16.4158 87.7921 17.3481C88.6976 15.2225 89.7541 13.1715 91.0746 11.2324C91.1123 11.2324 90.6973 11.8663 90.7728 11.8663C90.886 11.9409 91.7915 10.5611 91.716 10.5238C91.6783 10.5238 91.6406 10.5238 91.6028 10.5611C91.7915 10.3747 92.0179 10.2628 91.9801 9.88989ZM82.1326 27.6031C81.793 29.1321 81.4157 31.1831 81.7175 32.712C81.378 30.9966 81.4912 29.0575 81.793 27.3421C82.0194 25.925 82.4344 24.6198 82.9249 23.3147C82.5099 24.8063 82.4721 26.1115 82.1326 27.6031ZM75.8316 13.4325C76.8881 10.934 78.3973 8.65929 79.982 6.49641C78.3973 8.73387 77.1145 11.1578 75.9826 13.6563C75.1148 15.6327 74.3224 17.5345 73.7565 19.511C73.8697 18.9889 73.9829 18.4668 74.1715 17.9447C74.6243 16.4158 75.228 14.9242 75.8316 13.4325ZM74.9639 17.0498C75.643 15.2225 76.4353 13.3952 77.3409 11.6053C76.5108 13.3207 75.3789 16.0056 74.9639 17.0498ZM86.9243 19.511C86.8111 19.8466 86.6602 20.1822 86.5093 20.4805L87.1884 18.7652L86.9243 19.511ZM77.8691 10.5238V10.4865V10.5238ZM80.6988 5.60142C80.6988 5.63871 80.6611 5.676 80.6234 5.676C80.6611 5.676 80.6988 5.63871 80.6988 5.60142Z" fill="white"/>
<path d="M111.355 20.7789C111.129 20.8162 109.167 21.4128 109.28 21.7111C109.28 21.7484 109.356 21.7857 109.393 21.7857C108.752 22.0468 107.922 22.084 107.281 22.4942C106.564 22.979 105.885 23.4638 105.13 23.874C105.809 22.718 106.451 21.4874 106.866 20.2568C107.016 19.8093 107.884 17.0498 107.318 16.7514C107.243 16.7141 107.205 17.0498 107.167 17.2362C107.205 15.7446 106.715 13.4698 104.677 13.3207C103.432 13.2461 102.262 14.775 101.583 15.5954C100.036 17.5345 98.6781 19.6228 97.3198 21.6366C96.9425 22.1959 93.1695 28.2371 93.1695 28.2371C93.1695 28.2371 93.4336 27.8642 93.7732 27.3794C93.4336 27.9387 93.094 28.5354 92.7922 29.1321C92.9431 28.5727 94.3769 24.1351 95.2824 21.5247C95.3579 21.4128 95.3956 21.2636 95.4333 21.1518L95.6597 20.5178V20.5551C95.9993 19.5483 96.3388 18.5414 96.6407 17.4973C96.6407 17.6091 96.4898 18.1685 96.5275 18.1685C96.7539 18.2058 97.0557 16.6396 96.9048 16.6396L96.7916 16.826C96.9048 16.2667 97.0934 16.0056 96.7539 15.3717C96.4898 14.8123 96.037 14.2902 95.3956 14.1411C94.1505 13.8054 93.5468 14.8123 93.6223 15.7819C93.6223 15.931 93.8109 16.0056 93.8109 16.1548C93.8109 16.3412 93.6223 16.6769 93.5845 16.826C93.3204 17.6091 93.1318 18.3549 92.8299 19.1008C92.679 19.511 91.283 23.3892 91.283 23.3892C91.3585 23.3519 91.3962 23.2774 91.4339 23.2028C91.3207 23.5384 91.2076 23.874 91.0566 24.2096C91.0189 24.1723 91.1698 23.9113 91.0944 23.9113C90.7171 23.8367 89.7738 26.9692 89.6983 27.2675C89.5474 27.976 89.3588 28.6473 89.0947 29.3558C88.9815 29.7287 88.8306 30.1016 88.7174 30.5118C88.7174 30.5491 88.5287 31.4441 88.7174 31.1085C88.6796 31.2203 88.6419 31.2949 88.6419 31.3695C88.6419 31.3322 88.6042 31.2949 88.6042 31.2576C88.491 31.2949 88.4155 32.078 88.4155 32.1153C88.2646 32.5255 88.076 32.8239 87.8873 33.1968C87.3968 34.3901 87.1327 35.6953 86.944 36.9632C86.6422 38.9023 85.7367 41.811 86.7177 43.601C87.0572 44.2349 88.1137 45.5401 88.9437 44.757C89.321 44.3841 89.321 43.5264 89.3588 43.0789C89.5852 41.8483 89.7738 40.5804 90.0379 39.3498L90.3775 37.6344C90.4152 37.5598 90.7171 36.18 90.6039 36.2173C90.5284 36.2919 90.4529 36.4038 90.4152 36.5157C90.6039 35.919 90.868 35.3596 91.0944 34.7257C91.3962 33.8307 91.6226 32.973 92.0753 32.1526C92.6036 31.3322 93.0563 30.4372 93.5468 29.6168C93.9241 28.9456 94.2637 28.0879 94.6787 27.5285C94.7919 27.3794 95.0183 27.3048 95.2069 27.1556C95.5842 26.7454 95.8483 26.1861 96.1502 25.7386C96.7161 24.8436 97.2066 23.9486 97.8103 23.1282C98.0744 22.7553 101.093 18.5787 101.395 18.3177C101.319 18.3549 101.244 18.3922 101.168 18.4668C101.47 18.0939 101.81 17.7583 102.112 17.46C102.149 17.4973 101.885 17.721 101.923 17.7583C101.998 17.7956 103.734 16.4531 104.036 16.4158C104.866 16.2667 104.564 17.8329 104.451 18.2431C104.262 19.1008 103.772 19.9212 103.357 20.667C103.13 21.0772 102.904 21.4501 102.715 21.8603C102.677 21.8976 102.376 22.6061 102.489 22.5315L102.262 22.8672C102.338 22.7553 102.376 22.6061 102.376 22.6061C102.225 22.6061 102.036 23.2401 101.998 23.3519C101.772 23.7249 101.47 24.0232 101.168 24.3215C100.376 25.2165 99.6591 26.1488 98.8668 27.0065C98.2631 27.6404 97.4707 28.7591 96.5652 28.9829C95.9238 29.1321 95.4333 28.7964 95.7729 29.8033C95.9993 30.5118 96.8293 32.1526 97.7348 32.1526C98.5649 32.1526 99.5836 30.922 100.074 30.3999C100.64 29.766 101.281 29.1693 101.885 28.4981C102.036 28.2744 103.772 26.2234 104.036 26.1115H103.998C104.375 25.925 104.753 26.0742 105.281 25.7013C105.583 25.4775 105.734 25.2538 106.073 25.03C106.337 24.8809 106.451 24.6944 106.564 24.5825C106.564 24.5825 106.564 24.6198 106.601 24.6198C106.979 24.2469 107.507 24.3588 107.997 24.0232C108.601 23.613 109.356 23.0909 109.884 22.6061C110.563 22.0095 111.506 21.6738 111.808 20.667C111.657 20.7043 111.469 20.7043 111.355 20.7789ZM92.0376 24.5825V24.6198C91.9999 25.1046 91.6603 25.664 91.4717 26.1115C91.2075 26.82 90.9812 27.5285 90.7548 28.2371C90.2643 29.7287 89.6983 31.2203 89.0947 32.6374C88.6042 33.8307 88.1514 35.1359 87.8118 36.4411C88.2269 34.6138 88.906 32.8239 89.4342 31.1085C89.9247 29.5422 90.6793 28.0133 91.283 26.4844C91.3585 26.2979 92.0753 24.8063 91.9999 24.508C92.0376 24.5453 92.0376 24.5825 92.0376 24.5825ZM93.6977 25.7013C93.5845 26.1488 93.4713 26.559 93.3204 26.9319C93.4336 26.559 93.5468 26.1115 93.6977 25.7013ZM98.8668 19.5856L98.1499 20.6297C98.3763 20.2941 98.6026 19.9212 98.8668 19.5856ZM105.017 24.0978C105.054 23.9859 105.243 23.9486 105.356 23.874L105.017 24.0978ZM95.9993 19.7347C95.9615 19.772 95.9238 19.8839 95.8861 20.033L95.9993 19.7347ZM95.7352 20.3687L95.8861 20.033L95.7352 20.3687ZM97.6971 21.3009V21.2636C97.7349 21.2264 97.7348 21.2264 97.7348 21.1891C97.7726 21.1518 97.7349 21.2264 97.6971 21.3009ZM95.7352 20.3687C95.7352 20.4432 95.6974 20.4805 95.6597 20.5178L95.7352 20.3687ZM87.7364 36.7767C87.7364 36.7394 87.7364 36.7394 87.7741 36.7021C87.7741 36.7394 87.7741 36.7394 87.7364 36.7767ZM93.9241 25.2538C93.9241 25.2911 93.8864 25.2911 93.8864 25.2911L93.9241 25.2538Z" fill="white"/>
<path d="M123.991 21.2636C123.878 20.7416 123.576 20.667 123.199 20.8162C122.482 21.1518 121.765 21.8976 121.086 22.3451C119.539 23.3147 117.992 24.0978 116.332 24.9182C116.332 24.8809 116.295 24.8063 116.257 24.6944C116.295 24.8809 116.257 24.9555 116.219 24.9927C115.842 23.3892 115.464 21.7857 115.163 20.1449C115.314 20.8534 115.653 22.0468 115.917 23.0536C115.578 21.4874 115.163 19.5483 115.2 19.5483C115.125 19.5856 115.125 19.6601 115.125 19.7347C115.049 19.2872 114.936 18.7279 115.012 18.2431C115.049 17.6837 115.351 17.1989 115.54 16.6769C115.502 16.9379 115.427 17.2735 115.427 17.2735C115.653 17.3108 115.804 15.931 115.804 15.7819C115.766 15.5581 115.276 14.8496 115.276 15.036C114.257 14.1038 112.257 16.1548 111.956 17.0498C111.729 17.6464 111.729 18.2804 111.767 18.9143C111.805 19.5483 111.993 20.1076 112.182 20.7043C112.295 21.1518 112.144 21.4501 112.182 21.9349C112.257 22.6807 112.522 23.4265 112.672 24.1351C112.823 24.6944 113.314 25.8132 113.201 26.3352C113.125 26.8573 111.993 27.3048 111.503 27.6031C110.861 28.0133 110.22 28.4981 109.579 28.9829C108.447 29.8406 107.239 30.922 106.787 32.3018C106.711 32.4882 106.447 33.3086 106.711 33.4578C106.749 33.4951 106.862 32.8611 106.9 32.7866C106.409 35.2478 108.862 36.4411 111.163 36.4784C113.767 36.553 115.578 35.0613 116.483 32.7493C116.86 31.7424 116.974 30.6983 116.936 29.6541C116.936 28.9456 116.86 28.2744 116.747 27.6031C116.672 27.0065 116.596 27.0438 117.011 26.7081C117.313 26.4844 117.766 26.3352 118.068 26.1861C119.275 25.5521 120.369 24.8063 121.464 24.0232C122.256 23.4638 124.142 22.4943 123.991 21.3009V21.2636ZM108.748 34.0918C107.768 33.7934 108.748 32.2645 109.088 31.7797C109.654 31.0339 110.484 30.4745 111.239 29.9524L112.371 29.2066C112.484 29.1321 113.201 28.5727 112.974 28.6473L113.427 28.3862L113.163 28.61C113.238 28.5727 113.352 28.5354 113.427 28.4608C113.465 29.3558 113.465 30.2508 113.201 31.1458C113.163 31.2949 112.446 32.7866 112.144 33.0849L112.333 32.9357C111.993 33.3459 111.616 33.6816 111.163 33.9426C111.163 33.9053 111.503 33.6816 111.465 33.6443L110.409 34.0545C109.88 34.1663 109.277 34.2782 108.748 34.0918ZM113.502 35.1732C112.522 35.5834 111.578 35.7699 110.56 35.8071C112.408 35.6953 114.333 34.8003 115.427 33.2714C115.012 34.0918 114.483 34.7257 113.502 35.1732ZM116.257 24.5825C116.219 24.3215 116.144 23.9486 116.03 23.5384C116.106 23.9486 116.181 24.3588 116.257 24.5825ZM116.747 28.4608C116.71 28.4235 116.71 28.3489 116.71 28.2744C116.71 28.3489 116.747 28.4235 116.747 28.4608Z" fill="white"/>
</g>
<defs>
<filter id="filter0_d_306_8065" x="0" y="0" width="128" height="53" filterUnits="userSpaceOnUse" color-interpolation-filters="sRGB">
<feFlood flood-opacity="0" result="BackgroundImageFix"/>
<feColorMatrix in="SourceAlpha" type="matrix" values="0 0 0 0 0 0 0 0 0 0 0 0 0 0 0 0 0 0 127 0" result="hardAlpha"/>
<feOffset dy="4"/>
<feGaussianBlur stdDeviation="2"/>
<feComposite in2="hardAlpha" operator="out"/>
<feColorMatrix type="matrix" values="0 0 0 0 0 0 0 0 0 0 0 0 0 0 0 0 0 0 0.25 0"/>
<feBlend mode="normal" in2="BackgroundImageFix" result="effect1_dropShadow_306_8065"/>
<feBlend mode="normal" in="SourceGraphic" in2="effect1_dropShadow_306_8065" result="shape"/>
</filter>
</defs>
</svg>
