<svg width="120" height="55" viewBox="0 0 120 55" fill="none" xmlns="http://www.w3.org/2000/svg">
<g clip-path="url(#clip0_2638_39119)">
<path d="M94.5061 6.11159C94.6104 6.11159 94.7104 6.05322 94.7583 5.95377C94.9083 5.64463 94.967 5.33548 94.9366 5.03714C94.7778 3.51087 92.3972 2.74989 90.6579 2.19429C88.823 1.60843 86.8793 1.27118 84.8835 1.19335C84.7356 1.18254 84.5987 1.30577 84.5921 1.46142C84.5856 1.61491 84.7074 1.74462 84.8617 1.75111C86.8076 1.82678 88.699 2.15322 90.4861 2.72395C91.8971 3.17578 94.2604 3.93027 94.38 5.09551C94.3995 5.29224 94.3582 5.49978 94.2539 5.71597C94.1865 5.85433 94.2452 6.02079 94.3843 6.08781C94.4235 6.10727 94.4648 6.11591 94.5061 6.11591V6.11159Z" fill="#408F95"/>
<path d="M63.1492 7.8173C63.1492 7.8173 63.1709 7.8173 63.1818 7.8173C63.6318 7.76542 64.0819 7.67246 64.5189 7.53842C65.0994 7.36115 65.532 7.14496 65.7146 7.05416L65.7755 7.0239C67.7561 6.06835 69.7998 5.18631 71.8478 4.40588C73.7327 3.68814 75.2242 3.11957 77.2287 2.62234C79.3441 2.09917 81.5356 1.77705 83.7402 1.66896C83.8945 1.66031 84.0141 1.5306 84.0054 1.37711C83.9967 1.22361 83.8684 1.10471 83.7119 1.11336C81.4704 1.22361 79.2441 1.55006 77.0917 2.08404C75.0524 2.58991 73.5501 3.16281 71.6456 3.88703C69.5824 4.67395 67.5235 5.56031 65.5298 6.52234L65.4624 6.55477C65.2755 6.64773 64.8863 6.8423 64.3515 7.0066C63.9471 7.12983 63.5318 7.2163 63.1144 7.26386C62.96 7.28116 62.8513 7.41952 62.8687 7.57085C62.8839 7.71353 63.0057 7.8173 63.147 7.8173H63.1492Z" fill="#408F95"/>
<path d="M89.3319 11.0428C89.3754 11.0428 89.4188 11.032 89.4602 11.0126C89.9406 10.7639 90.6581 10.3835 91.3386 9.97702C91.519 9.86893 91.856 9.67004 92.2908 9.37819C92.4235 9.28955 92.567 9.19227 92.7148 9.08417C93.2453 8.70801 93.7584 8.29942 94.2432 7.87137C94.2562 7.8584 94.2693 7.84543 94.2802 7.83029C94.3041 7.80003 94.341 7.75463 94.3889 7.69842C94.8802 7.10607 95.3433 6.48994 95.1498 6.04892C95.0889 5.90839 94.9389 5.73761 94.578 5.71815C94.4215 5.70734 94.291 5.82624 94.2823 5.97974C94.2736 6.13323 94.391 6.2651 94.5454 6.27375C94.5911 6.27591 94.6193 6.2824 94.6367 6.28672C94.6367 6.38617 94.5345 6.64775 93.9562 7.34387C93.9127 7.39576 93.8779 7.439 93.8519 7.47142C93.3866 7.88002 92.8952 8.26915 92.3887 8.63018C92.243 8.73395 92.106 8.82691 91.9778 8.91555C91.556 9.19875 91.2277 9.39332 91.0516 9.49925C90.382 9.89703 89.6776 10.2732 89.2036 10.5175C89.0666 10.5888 89.0123 10.7553 89.084 10.8937C89.134 10.9888 89.2319 11.045 89.3319 11.045V11.0428Z" fill="#408F95"/>
<path d="M78.1851 12.6664C80.9201 12.6664 83.5464 12.3594 83.579 12.3551C85.2292 12.1497 86.8945 11.847 88.5251 11.4558C88.6751 11.419 88.7686 11.2698 88.7317 11.1207C88.6947 10.9715 88.5447 10.8785 88.3947 10.9153C86.7837 11.3023 85.14 11.6006 83.5116 11.8016C83.4768 11.806 79.7787 12.2383 76.6219 12.0697C75.6435 12.0178 74.65 11.8989 73.6716 11.713C73.2346 11.6309 72.9976 11.5725 72.0041 11.3325L70.8018 11.0407C70.4083 10.9456 70.0648 10.8591 69.7604 10.7834C68.8516 10.5564 68.2516 10.4051 67.6689 10.364C66.8058 10.3035 65.9253 10.377 65.0556 10.5845C64.9056 10.6191 64.8121 10.7704 64.8491 10.9196C64.8839 11.0688 65.0339 11.1617 65.1861 11.125C66.0014 10.9326 66.8232 10.8634 67.6298 10.9196C68.1646 10.9564 68.7146 11.0947 69.6234 11.3239C69.93 11.4017 70.2757 11.4882 70.6692 11.5833L71.8714 11.8752C72.852 12.113 73.115 12.1778 73.5673 12.2621C74.5695 12.4502 75.587 12.5734 76.5914 12.6275C77.1154 12.6556 77.6524 12.6664 78.1851 12.6664Z" fill="#408F95"/>
<path d="M62.2684 7.83678C62.3879 7.83678 62.4988 7.75895 62.5358 7.64005C62.5814 7.49304 62.4988 7.33738 62.351 7.29199C61.6987 7.09309 58.2984 6.07702 55.496 5.66626C54.1285 5.46521 53.1262 5.44575 52.0348 5.59708C51.6783 5.64681 51.3217 5.71599 50.9739 5.8003C50.8238 5.83705 50.7325 5.98838 50.7695 6.13755C50.8065 6.28672 50.9565 6.37968 51.1087 6.34077C51.4369 6.26078 51.7761 6.19592 52.1153 6.14836C53.1501 6.00351 54.1067 6.02297 55.4177 6.21538C58.1789 6.62181 61.5444 7.62491 62.1901 7.8238C62.2184 7.83245 62.2444 7.83678 62.2727 7.83678H62.2684Z" fill="#408F95"/>
<path d="M54.2155 17.9543C54.235 17.9543 54.2546 17.9543 54.2742 17.9478C55.5265 17.6798 57.6571 16.6486 58.4354 15.9373C59.1072 15.4379 59.6442 15.0423 60.1008 14.705C61.6814 13.5398 62.3358 13.0599 64.412 11.3217C64.5294 11.2223 64.5447 11.0472 64.4468 10.9304C64.3468 10.8137 64.1707 10.7985 64.0533 10.8958C61.9901 12.621 61.34 13.1009 59.7681 14.2575C59.3072 14.5969 58.7659 14.9947 58.0876 15.5006C58.0789 15.5071 58.0723 15.5136 58.0636 15.5201C57.3636 16.1686 55.3177 17.1544 54.1546 17.403C54.0024 17.4355 53.9067 17.5825 53.9393 17.7338C53.9676 17.8635 54.0828 17.9543 54.2133 17.9543H54.2155Z" fill="#408F95"/>
<path d="M54.2159 17.9543C54.2898 17.9543 54.3659 17.9241 54.4202 17.8657C55.1485 17.0939 56.0834 15.7946 56.3943 13.9873C56.4878 13.4468 56.7052 12.1822 56.1943 10.7445C55.7269 9.43226 54.9116 8.67344 53.968 7.79357C53.1397 7.02178 52.1983 6.36025 51.1677 5.82411C51.0308 5.75277 50.8612 5.80465 50.7895 5.94085C50.7177 6.07704 50.7699 6.24567 50.9069 6.31701C51.8917 6.82937 52.7918 7.4628 53.5832 8.2C54.5094 9.06258 55.242 9.74573 55.6638 10.9304C56.1269 12.2319 55.9269 13.3971 55.8399 13.8943C55.5529 15.5655 54.6855 16.7696 54.0093 17.4852C53.9028 17.5976 53.9093 17.7727 54.0224 17.8787C54.0767 17.9284 54.1463 17.9543 54.2137 17.9543H54.2159Z" fill="#408F95"/>
<path d="M58.1225 9.2571C58.2051 9.2571 58.2855 9.22251 58.3399 9.15333C58.4377 9.03443 58.4181 8.85932 58.2986 8.76204C57.8224 8.37939 57.3007 8.05294 56.7484 7.79568C56.0831 7.48437 55.3766 7.27035 54.6482 7.15793C54.496 7.13415 54.3526 7.23792 54.3286 7.39141C54.3047 7.54274 54.4091 7.68543 54.5634 7.70921C55.2396 7.81298 55.894 8.01187 56.5114 8.30156C57.0224 8.54153 57.5072 8.84202 57.9485 9.19873C58.0007 9.23981 58.0616 9.26143 58.1246 9.26143L58.1225 9.2571Z" fill="#408F95"/>
<path d="M56.9767 15.2995C57.0354 15.2995 57.0962 15.2801 57.1484 15.2412C57.7528 14.7764 58.8268 13.7754 59.2095 12.2924C59.3269 11.8341 59.5747 10.8785 59.1421 9.90351C59.0812 9.76731 59.0095 9.63327 58.929 9.50789C58.8442 9.37817 58.6725 9.34142 58.542 9.42574C58.4116 9.51005 58.3746 9.68084 58.4594 9.81055C58.5246 9.90999 58.5833 10.0181 58.6312 10.1283C58.9855 10.9282 58.779 11.726 58.6681 12.1562C58.3268 13.4792 57.355 14.3829 56.8071 14.8023C56.6853 14.8953 56.6614 15.0704 56.7571 15.1936C56.8114 15.2649 56.894 15.3017 56.9788 15.3017L56.9767 15.2995Z" fill="#408F95"/>
<path d="M84.5621 9.32412C84.6208 9.32412 84.6795 9.32412 84.7404 9.3198C86.0122 9.26575 86.9123 8.65611 87.3362 8.29724C87.4536 8.19779 87.4689 8.02268 87.3689 7.90594C87.2688 7.7892 87.0927 7.77406 86.9753 7.87351C86.6057 8.18698 85.8209 8.71664 84.7186 8.7642C83.612 8.8096 82.8597 8.34912 82.3619 8.04214C82.0901 7.87351 81.9858 7.7719 81.951 7.7265C82.0336 7.63354 82.3901 7.4714 83.5468 7.26603C84.586 7.08227 85.6796 7.03687 86.7971 7.13199C86.9514 7.1428 87.0862 7.03254 87.0993 6.87905C87.1123 6.72556 86.9993 6.59152 86.8449 6.57855C85.6796 6.47911 84.536 6.52667 83.4489 6.71907C82.3858 6.90716 81.427 7.1255 81.3814 7.70056C81.3596 7.96215 81.5662 8.20644 82.0684 8.51558C82.5662 8.82257 83.3837 9.32412 84.5642 9.32412H84.5621Z" fill="#408F95"/>
<path d="M89.4799 9.72842C89.5777 9.72842 89.6734 9.67653 89.7256 9.58573C89.8017 9.4517 89.7517 9.28091 89.6169 9.20741C88.7581 8.73396 88.0428 8.10053 87.4884 7.33091C87.1949 6.92232 86.9492 6.47697 86.7623 6.00569C86.7057 5.863 86.5427 5.79382 86.3992 5.85003C86.2557 5.90624 86.1861 6.06838 86.2426 6.21106C86.4492 6.72343 86.7144 7.20985 87.034 7.65303C87.6362 8.49183 88.4146 9.1793 89.3451 9.69383C89.3886 9.71761 89.4342 9.72842 89.4799 9.72842Z" fill="#408F95"/>
<path d="M92.0517 4.20482C92.0104 3.96269 91.7799 3.80055 91.5386 3.84163C91.2951 3.8827 91.1321 4.11186 91.1734 4.35183C91.2147 4.59396 91.4451 4.75609 91.6865 4.71502C91.93 4.67394 92.093 4.44479 92.0517 4.20482Z" fill="#408F95"/>
<path d="M79.507 14.6985C79.9962 14.6921 80.4723 14.6531 80.9419 14.5818C81.5855 14.4845 82.2247 14.3245 82.8399 14.1062C85.101 13.3063 86.3381 12.6167 88.3861 11.4752C88.5209 11.3995 88.5687 11.2309 88.4926 11.0969C88.4165 10.9628 88.2469 10.9153 88.1121 10.9909C86.0207 12.1562 84.8684 12.7983 82.6508 13.583C82.0681 13.7884 81.4659 13.9397 80.8571 14.0327C80.4136 14.0997 79.9636 14.1365 79.5157 14.1429C79.0048 14.1235 78.7591 14.0543 78.6482 14.0046C78.7852 13.9116 79.1352 13.73 80.0114 13.4555C80.1593 13.4101 80.2397 13.2523 80.194 13.1074C80.1484 12.9604 79.9897 12.8783 79.844 12.9258C78.4352 13.3668 77.9591 13.6695 78.0243 14.0781C78.1069 14.5883 78.9113 14.6769 79.5092 14.7007L79.507 14.6985Z" fill="#408F95"/>
<path d="M78.6527 13.4836C78.8267 13.4836 78.9919 13.4749 79.1484 13.4663C81.3943 13.3279 83.2075 12.8523 83.2836 12.8307C84.1293 12.6059 84.9772 12.3313 85.8034 12.0157C85.9469 11.9595 86.0186 11.7995 85.9643 11.6568C85.9077 11.5141 85.7469 11.4428 85.6034 11.4968C84.7946 11.806 83.9663 12.074 83.1401 12.2945C83.0662 12.314 81.3073 12.7766 79.1158 12.9107C78.6114 12.9409 78.0679 12.9539 77.4309 12.7291C77.0852 12.608 76.7569 12.4307 76.4569 12.2037C76.333 12.1108 76.159 12.1346 76.0655 12.2578C75.9721 12.381 75.996 12.554 76.1199 12.6469C76.4656 12.9085 76.8439 13.1117 77.2439 13.2522C77.7635 13.436 78.2353 13.4836 78.6549 13.4836H78.6527Z" fill="#408F95"/>
<path d="M69.4151 14.6986C70.1456 14.6986 70.8717 14.6272 71.5913 14.4845C73.1806 14.1667 74.7155 13.4879 76.0309 12.5216C76.1548 12.4308 76.1809 12.2557 76.0896 12.1324C75.9983 12.0092 75.8222 11.9833 75.6982 12.0741C74.4481 12.9929 72.9915 13.6393 71.4826 13.9398C70.3477 14.1667 69.1889 14.2035 68.0367 14.0543C68.0801 13.6825 68.2062 13.0231 68.5541 12.5475C68.6541 12.4113 68.8193 12.1843 69.1107 12.0006C69.1868 11.9508 69.2455 11.9227 69.4042 11.8449L69.5151 11.7909C69.8325 11.633 70.089 11.5012 70.2586 11.4125C70.3956 11.3412 70.4478 11.1726 70.376 11.0364C70.3043 10.9002 70.1347 10.8483 69.9977 10.9196C69.8303 11.0083 69.5781 11.138 69.265 11.2915L69.1563 11.3455C68.9889 11.4277 68.9128 11.4644 68.8085 11.5314C68.428 11.7736 68.2149 12.0633 68.1019 12.2189C67.5605 12.9539 67.4692 13.9808 67.454 14.277C67.4475 14.4197 67.5497 14.5451 67.691 14.5667C68.2649 14.6553 68.8411 14.7007 69.4172 14.7007L69.4151 14.6986Z" fill="#408F95"/>
<path d="M66.9755 5.91919C67.3864 5.91919 67.8234 5.89108 68.3104 5.8392C68.4648 5.8219 68.5757 5.68571 68.5583 5.53221C68.5409 5.37872 68.4039 5.2663 68.2495 5.28576C67.7799 5.33548 67.3625 5.36143 66.9712 5.36359C66.8168 5.36359 66.6929 5.48898 66.6929 5.64247C66.6929 5.79596 66.819 5.91919 66.9733 5.91919H66.9755Z" fill="#408F95"/>
<path d="M66.7275 2.76072C66.7558 2.76072 66.7862 2.7564 66.8145 2.74775C67.1275 2.64398 67.4406 2.53805 67.7537 2.42996C68.6168 2.13378 69.5104 1.8268 70.4365 1.62358C74.4673 0.808558 78.3938 0.458336 82.1028 0.583724C82.255 0.588048 82.3876 0.469145 82.392 0.315653C82.3963 0.16216 82.2767 0.0324483 82.1224 0.0281246C78.372 -0.0994254 74.3999 0.252959 70.3213 1.07879C69.3582 1.29065 68.4516 1.60196 67.5732 1.90462C67.2623 2.01055 66.9514 2.11865 66.6405 2.22026C66.4927 2.26782 66.4144 2.42563 66.4623 2.57048C66.5014 2.68722 66.6101 2.76288 66.7275 2.76288V2.76072Z" fill="#408F95"/>
<path d="M88.082 2.10998C88.1885 2.10998 88.2907 2.04945 88.3364 1.94784C88.3994 1.80732 88.3364 1.64302 88.1972 1.58033C87.4863 1.25821 86.7493 0.981489 86.0035 0.754493C85.0404 0.460479 84.0468 0.246455 83.0467 0.116743C82.8924 0.0972862 82.7532 0.203218 82.7337 0.35671C82.7141 0.510202 82.8206 0.648562 82.975 0.668018C83.9425 0.793407 84.9078 1.00095 85.8405 1.28631C86.5623 1.50682 87.2797 1.77489 87.9668 2.0862C88.0037 2.1035 88.0428 2.11214 88.082 2.11214V2.10998Z" fill="#408F95"/>
<path d="M82.5379 1.35116C82.6292 1.35116 82.7205 1.30576 82.7749 1.22361C82.8575 1.0939 82.8206 0.920951 82.6901 0.8388C82.6314 0.802049 82.5444 0.748002 82.4379 0.68747C82.0379 0.462636 81.6052 0.291849 81.153 0.17727C80.803 0.0886333 80.4421 0.0367485 80.079 0.0216155C79.9246 0.0151299 79.7942 0.134032 79.7877 0.287525C79.7811 0.441017 79.9007 0.570729 80.0551 0.577215C80.3812 0.590186 80.703 0.637747 81.016 0.715574C81.4204 0.817182 81.8074 0.970674 82.164 1.16957C82.2596 1.22361 82.3357 1.27117 82.3901 1.3036C82.4357 1.33387 82.4879 1.34684 82.5401 1.34684L82.5379 1.35116Z" fill="#408F95"/>
<path d="M78.6397 1.59549C78.731 1.59549 78.8223 1.55009 78.8745 1.46794C78.9571 1.33822 78.9202 1.16744 78.7897 1.08312C78.731 1.04637 78.644 0.992326 78.5375 0.931793C78.1375 0.706959 77.7048 0.536172 77.2504 0.421593C76.9004 0.332957 76.5395 0.281072 76.1764 0.265939C76.0221 0.257292 75.8916 0.378356 75.8851 0.531848C75.8786 0.685341 75.9982 0.815053 76.1525 0.821538C76.4786 0.834509 76.8004 0.88207 77.1135 0.959898C77.5179 1.06151 77.9049 1.215 78.2614 1.41389C78.3571 1.46794 78.4332 1.5155 78.4875 1.54792C78.5332 1.57819 78.5875 1.59116 78.6375 1.59116L78.6397 1.59549Z" fill="#408F95"/>
<path d="M75.0438 2.10135C75.1351 2.10135 75.2264 2.05595 75.2808 1.9738C75.3634 1.84408 75.3264 1.6733 75.196 1.58898C75.1373 1.55223 75.0503 1.49819 74.9438 1.43765C74.5416 1.21282 74.1089 1.04203 73.6567 0.927453C73.3067 0.838816 72.9458 0.786932 72.5827 0.771799C72.4283 0.765313 72.2979 0.884216 72.2914 1.03771C72.2848 1.1912 72.4044 1.32091 72.5588 1.3274C72.8849 1.34037 73.2067 1.38793 73.5197 1.46576C73.9241 1.56736 74.3111 1.72086 74.6677 1.91975C74.7633 1.9738 74.8394 2.02136 74.8938 2.05378C74.9394 2.08405 74.9916 2.09702 75.0438 2.09702V2.10135Z" fill="#408F95"/>
<path d="M69.6996 13.5787H69.7061C70.6627 13.5549 71.5715 13.3409 72.4042 12.9388C72.7672 12.7637 73.1151 12.554 73.439 12.314C73.563 12.2211 73.5891 12.0481 73.4956 11.9249C73.4021 11.8017 73.2282 11.7757 73.1042 11.8687C72.8085 12.0892 72.489 12.2816 72.1607 12.4394C71.3997 12.8048 70.5692 13.0015 69.693 13.0231C69.5387 13.0274 69.4169 13.155 69.4191 13.3085C69.4235 13.4598 69.5474 13.5809 69.6996 13.5809V13.5787Z" fill="#408F95"/>
<path d="M70.2042 12.4567C70.2368 12.4567 70.2695 12.4502 70.2999 12.4394L71.8935 11.86C72.0392 11.8082 72.1131 11.6482 72.0609 11.5033C72.0087 11.3585 71.8457 11.285 71.7022 11.3369L70.1086 11.9162C69.9629 11.9681 69.889 12.1281 69.9412 12.273C69.9825 12.3854 70.089 12.4567 70.2042 12.4567Z" fill="#408F95"/>
<path d="M66.2341 5.89324C66.3841 5.89324 66.5102 5.77434 66.5145 5.62301C66.5189 5.46951 66.3971 5.34196 66.2428 5.33764C65.1883 5.30738 64.7383 5.10416 64.6644 4.61558C64.8644 3.94756 65.3775 3.40493 66.2297 2.95959C66.3667 2.88825 66.4189 2.71962 66.3471 2.58343C66.2754 2.44723 66.1058 2.39534 65.9688 2.46668C64.9492 2.9985 64.3404 3.67084 64.11 4.52046C64.1013 4.55288 64.0991 4.58747 64.1013 4.6199C64.2187 5.83487 65.6253 5.87595 66.2254 5.89324C66.2276 5.89324 66.2319 5.89324 66.2341 5.89324Z" fill="#408F95"/>
<path d="M54.6593 51.2816C54.7485 51.2816 54.8354 51.2383 54.8898 51.1605C55.0159 50.9768 55.0854 50.7822 55.0963 50.5833C55.1463 49.6061 53.7897 48.9316 52.7983 48.4387C51.7743 47.9285 50.6633 47.5567 49.498 47.3319C49.3458 47.3038 49.2001 47.401 49.1697 47.5524C49.1392 47.7037 49.2393 47.8485 49.3915 47.8788C50.5068 48.095 51.5677 48.4495 52.5483 48.936C53.3048 49.3121 54.568 49.9412 54.5376 50.5552C54.5332 50.6503 54.4963 50.7476 54.4289 50.8449C54.3419 50.9724 54.3745 51.1454 54.5006 51.2319C54.5484 51.2643 54.605 51.2816 54.6593 51.2816Z" fill="#408F95"/>
<path d="M50.8808 53.7915C50.9068 53.7915 50.9351 53.7872 50.9612 53.7785C51.4808 53.6207 51.9939 53.4391 52.4853 53.2381C52.7005 53.1494 52.994 53.0284 53.3745 52.8381C53.7201 52.663 54.0615 52.4706 54.3833 52.2631C54.3985 52.2522 54.4137 52.2414 54.4267 52.2285C54.442 52.2133 54.468 52.1917 54.4985 52.1636C54.8637 51.8393 55.2138 51.4934 55.1246 51.1583C55.0985 51.0611 55.0137 50.8903 54.7333 50.8319C54.5833 50.7995 54.4333 50.8946 54.4006 51.0459C54.3746 51.1648 54.4311 51.2816 54.5289 51.3421C54.4702 51.4199 54.3528 51.5475 54.1245 51.7485C54.0984 51.7723 54.0745 51.7918 54.0571 51.8091C53.7571 52.0015 53.4419 52.1809 53.1201 52.343C52.7592 52.5246 52.4766 52.6414 52.27 52.7257C51.7961 52.9203 51.3004 53.0975 50.7981 53.2489C50.6503 53.2943 50.5677 53.4499 50.6112 53.5969C50.6481 53.718 50.759 53.7937 50.8786 53.7937L50.8808 53.7915Z" fill="#408F95"/>
<path d="M48.4524 53.9493C49.1938 53.9493 49.9395 53.919 50.6787 53.8563C50.833 53.8434 50.9461 53.7093 50.9331 53.5558C50.92 53.4023 50.783 53.2899 50.6309 53.3029C49.6634 53.3829 48.685 53.411 47.7219 53.3829C47.7023 53.3829 45.5195 53.3051 43.7085 52.9267C43.1497 52.81 42.5866 52.6543 42.0388 52.4598C41.7953 52.3733 41.6627 52.3193 41.1061 52.0901L40.4343 51.8134C40.2451 51.7355 40.0777 51.6642 39.9234 51.5993C39.4364 51.394 39.0842 51.2448 38.6624 51.1367C38.0884 50.9875 37.4818 50.9184 36.8557 50.9335C36.7013 50.9378 36.5796 51.0654 36.5818 51.2189C36.5861 51.3724 36.71 51.4934 36.8687 51.4913C37.4427 51.4783 37.9971 51.541 38.5211 51.675C38.9037 51.7745 39.2385 51.915 39.7038 52.1117C39.8603 52.1787 40.0299 52.2501 40.2212 52.3279L40.893 52.6046C41.4452 52.8316 41.5931 52.8921 41.8518 52.9829C42.4236 53.184 43.0106 53.3483 43.5933 53.4694C45.4543 53.8563 47.6132 53.9342 47.7045 53.9363C47.9524 53.9428 48.2024 53.9471 48.4502 53.9471L48.4524 53.9493Z" fill="#408F95"/>
<path d="M36.5882 49.4786C36.5882 49.4786 36.5948 49.4786 36.5991 49.4786C36.7556 49.4721 36.9144 49.457 37.0687 49.4353C37.4361 49.3813 37.7123 49.2927 37.8318 49.2537L37.8644 49.2429C39.0993 48.8646 40.3647 48.5338 41.6235 48.2636C42.7823 48.015 43.6976 47.8183 44.902 47.708C46.1739 47.5913 47.4697 47.5999 48.7546 47.7339C48.9089 47.7491 49.0459 47.6388 49.0611 47.4853C49.0763 47.3318 48.9654 47.1956 48.8111 47.1805C47.4892 47.0443 46.1565 47.0357 44.8499 47.1546C43.6106 47.267 42.6801 47.468 41.5039 47.721C40.2277 47.9955 38.9471 48.3285 37.697 48.7133L37.6557 48.7262C37.5514 48.7608 37.3057 48.8387 36.9839 48.8862C36.8578 48.9057 36.7296 48.9165 36.6035 48.923C36.3969 48.8862 36.1904 48.8343 35.9904 48.7673C35.7469 48.6873 35.5751 48.6052 35.5099 48.5749C34.8468 48.2658 33.3206 47.6994 31.9965 47.3189C31.2486 47.1027 30.6747 46.9773 29.9594 46.9665C29.7441 46.9622 29.5246 46.9708 29.3115 46.9903C29.1571 47.0032 29.0441 47.1394 29.0571 47.2929C29.0702 47.4464 29.2071 47.5588 29.3615 47.5459C29.5572 47.5286 29.755 47.5221 29.9529 47.5242C30.6029 47.5329 31.1377 47.6518 31.84 47.855C33.2727 48.2679 34.7294 48.8278 35.2642 49.0765C35.3446 49.1132 35.5381 49.204 35.8121 49.2948C36.0491 49.3726 36.2926 49.4332 36.5382 49.4764C36.5534 49.4786 36.5687 49.4807 36.5861 49.4807L36.5882 49.4786Z" fill="#408F95"/>
<path d="M30.1443 54.5827C30.1813 54.5827 30.2204 54.5741 30.2574 54.559L33.3446 53.1991C33.912 52.9159 34.4621 52.6133 34.9926 52.2955C35.3904 52.0577 35.7905 51.8026 36.1753 51.5432C36.3036 51.4567 36.3362 51.2837 36.2492 51.1562C36.1622 51.0286 35.9883 50.9962 35.86 51.0827C35.4817 51.3378 35.0926 51.5864 34.7034 51.8199C34.1838 52.1312 33.6446 52.4274 33.1033 52.6976L30.0291 54.0509C29.8878 54.1136 29.8247 54.2779 29.8856 54.4184C29.9312 54.5222 30.0334 54.5849 30.1421 54.5849L30.1443 54.5827Z" fill="#408F95"/>
<path d="M30.1442 54.5828C30.2246 54.5828 30.3029 54.5482 30.3572 54.4833C30.9225 53.8175 31.3616 53.0824 31.6639 52.2998C31.9182 51.6426 32.1182 51.1238 32.0335 50.4428C31.9378 49.6732 31.5334 49.163 31.0225 48.5166L30.979 48.4604C30.5594 47.9285 30.0637 47.4529 29.505 47.0443C29.381 46.9535 29.2049 46.9795 29.1136 47.1027C29.0223 47.2259 29.0484 47.401 29.1723 47.4918C29.6898 47.8723 30.1507 48.3134 30.5377 48.8041L30.5811 48.8603C31.0551 49.4613 31.3986 49.8958 31.4769 50.512C31.5443 51.0546 31.3834 51.4697 31.1399 52.0988C30.8594 52.823 30.4507 53.504 29.9267 54.1244C29.8267 54.2412 29.8419 54.4185 29.9593 54.5157C30.0115 54.559 30.0767 54.5806 30.1398 54.5806L30.1442 54.5828Z" fill="#408F95"/>
<path d="M48.9305 52.2912C49.5719 52.2912 50.0676 52.0512 50.3241 51.8956C50.4546 51.8156 50.4959 51.6426 50.4154 51.5129C50.335 51.3832 50.1632 51.3421 50.0306 51.4221C49.8001 51.5626 49.3218 51.7896 48.7087 51.7226C48.0956 51.6556 47.7173 51.3335 47.4652 51.1194C47.4282 51.0892 47.3999 51.0611 47.376 51.0395C47.526 51.0049 47.7847 50.9832 48.1522 50.9746C48.7653 50.9595 49.3958 51.0308 50.0263 51.1821C50.1763 51.2189 50.3285 51.1259 50.3654 50.9768C50.4024 50.8276 50.3089 50.6763 50.1589 50.6395C49.4806 50.4752 48.8001 50.3995 48.1391 50.4147C47.4304 50.432 46.8368 50.4795 46.739 50.8903C46.6803 51.1411 46.889 51.3594 47.1021 51.541C47.3695 51.768 47.8652 52.1874 48.6479 52.2739C48.7457 52.2847 48.8392 52.289 48.9305 52.289V52.2912Z" fill="#408F95"/>
<path d="M51.4069 52.9375C51.4895 52.9375 51.5721 52.9008 51.6286 52.8294C51.7243 52.7084 51.7004 52.5333 51.5786 52.4381C51.1351 52.0966 50.7872 51.6772 50.5416 51.1951C50.4111 50.94 50.3133 50.6676 50.2481 50.3844C50.2133 50.2352 50.0633 50.1423 49.9133 50.1768C49.7632 50.2114 49.6698 50.3606 49.7045 50.5098C49.7806 50.8362 49.8937 51.1497 50.0437 51.4459C50.3263 52.0036 50.7285 52.4857 51.2373 52.8792C51.2873 52.9181 51.3482 52.9375 51.409 52.9375H51.4069Z" fill="#408F95"/>
<path d="M53.1136 50.3801C53.1136 50.3801 53.118 50.3801 53.1223 50.3801C53.4202 50.3758 53.6615 50.1293 53.6572 49.8331C53.6528 49.5348 53.4137 49.297 53.1071 49.3013C52.9615 49.3013 52.8267 49.3619 52.7266 49.4656C52.6266 49.5694 52.5723 49.7056 52.5745 49.8483C52.5788 50.1423 52.8223 50.3801 53.1158 50.3801H53.1136ZM53.131 49.8396C53.131 49.8396 53.1245 49.8548 53.1136 49.8569C53.1049 49.8569 53.0962 49.8483 53.0962 49.8396H53.131ZM53.131 49.8396H53.0962C53.0962 49.8396 53.1071 49.8159 53.1136 49.8223C53.1223 49.8223 53.131 49.8288 53.131 49.8396Z" fill="#408F95"/>
<path d="M45.9825 55C46.3717 55 46.7609 54.9633 47.1435 54.8897C48.5415 54.6238 49.3263 54.332 50.6264 53.8477C50.7721 53.7937 50.8438 53.6337 50.7895 53.4889C50.7351 53.344 50.5742 53.2727 50.4286 53.3267C49.1111 53.8175 48.3871 54.0855 47.037 54.3428C46.6869 54.4098 46.3391 54.4422 45.9738 54.4422C45.7151 54.4422 45.4542 54.4228 45.1977 54.3882C45.039 54.3666 44.8933 54.3169 44.8085 54.2758C44.9172 54.1763 45.189 53.9947 45.7455 53.7569C45.8869 53.6964 45.9543 53.5321 45.8912 53.3916C45.8303 53.2511 45.6651 53.184 45.5238 53.2467C44.2715 53.7807 44.1563 54.1223 44.2085 54.3839C44.2911 54.7925 44.9259 54.9135 45.1172 54.9395C45.402 54.9784 45.7021 54.9978 45.9782 55H45.9825Z" fill="#408F95"/>
<path d="M40.2473 54.1158C40.3473 54.1158 40.4473 54.1136 40.5473 54.1093C41.517 54.0661 42.4888 53.8023 43.3563 53.3483C43.4933 53.277 43.5454 53.1083 43.4737 52.9722C43.4019 52.836 43.2324 52.7841 43.0954 52.8554C42.2997 53.2705 41.4105 53.5126 40.5212 53.5515C39.8929 53.5796 39.2646 53.5105 38.6537 53.3462C38.7319 53.1083 38.8581 52.8446 39.0298 52.6738C39.0994 52.6046 39.2016 52.5009 39.369 52.4295C39.419 52.4079 39.4559 52.3971 39.5407 52.369L39.6103 52.3474C39.8103 52.2847 39.9712 52.2306 40.0799 52.1939C40.2256 52.1442 40.3038 51.9863 40.2538 51.8393C40.2038 51.6945 40.0451 51.6167 39.8973 51.6664C39.7929 51.7031 39.6342 51.755 39.4407 51.8177L39.3711 51.8393C39.2559 51.8761 39.2081 51.8912 39.1407 51.9215C38.8798 52.0361 38.7124 52.2025 38.6319 52.2825C38.2276 52.6868 38.0754 53.3029 38.0384 53.4824C38.0101 53.6229 38.0906 53.7612 38.2276 53.8045C38.8841 54.012 39.5625 54.1158 40.2451 54.1158H40.2473Z" fill="#408F95"/>
<path d="M39.4209 48.7868C39.5688 48.7868 39.6927 48.67 39.7014 48.5209C39.7079 48.3674 39.5883 48.2377 39.434 48.229C39.16 48.216 38.9187 48.1944 38.6948 48.1598C38.5426 48.1382 38.3991 48.242 38.3774 48.3933C38.3556 48.5446 38.46 48.6873 38.6122 48.7089C38.8557 48.7457 39.1166 48.7695 39.4079 48.7824C39.4122 48.7824 39.4166 48.7824 39.4209 48.7824V48.7868Z" fill="#408F95"/>
<path d="M38.6536 48.7154C38.7993 48.7154 38.9232 48.603 38.9319 48.456C38.9428 48.3025 38.8254 48.1706 38.671 48.1598C37.9514 48.1144 37.5905 47.881 37.5601 47.6842C37.5318 47.5026 37.7818 47.1978 38.3971 46.9535C38.5406 46.8973 38.6102 46.7352 38.5536 46.5925C38.4971 46.4498 38.334 46.3806 38.1905 46.4368C37.3687 46.7611 36.9252 47.2583 37.0078 47.7707C37.0926 48.3025 37.7014 48.6549 38.6362 48.7133C38.6428 48.7133 38.6493 48.7133 38.6536 48.7133V48.7154Z" fill="#408F95"/>
<path d="M47.9437 46.96C48.072 46.96 48.1872 46.8714 48.2155 46.7438C48.2503 46.5947 48.1546 46.4455 48.0046 46.4109C45.6675 45.8856 43.3085 45.7364 40.9909 45.9677C40.3409 46.0326 39.6843 46.1277 39.0408 46.2531C38.8886 46.2833 38.7907 46.4282 38.819 46.5795C38.8494 46.7309 38.9951 46.8281 39.1473 46.8C39.7734 46.679 40.4126 46.586 41.0475 46.5212C43.3042 46.2963 45.6044 46.4412 47.8807 46.9535C47.9024 46.9579 47.922 46.96 47.9416 46.96H47.9437Z" fill="#408F95"/>
<path d="M51.2806 48.3803C51.3719 48.3803 51.461 48.3349 51.5154 48.2549C51.6002 48.1252 51.5632 47.9544 51.4349 47.8701C51.0458 47.6172 50.637 47.3859 50.2196 47.187C49.8217 46.9946 49.4043 46.826 48.9825 46.6854C48.8847 46.653 48.7999 46.6249 48.7412 46.6076C48.5955 46.5622 48.4368 46.6444 48.3912 46.7892C48.3455 46.9362 48.4281 47.0919 48.5738 47.1373C48.6303 47.1546 48.7086 47.1805 48.8021 47.2108C49.2021 47.3448 49.5956 47.5048 49.9739 47.6864C50.3696 47.8766 50.7566 48.095 51.1262 48.3349C51.174 48.3652 51.2262 48.3803 51.2784 48.3803H51.2806Z" fill="#408F95"/>
<path d="M47.0063 47.0227C47.0498 47.0227 47.0911 47.0054 47.1215 46.9708C47.1781 46.9081 47.1715 46.8108 47.1085 46.7546C47.0781 46.7287 47.0324 46.6898 46.9759 46.6444C46.7628 46.4779 46.528 46.3417 46.2758 46.2358C46.0823 46.1536 45.8758 46.0909 45.6671 46.0499C45.5844 46.0326 45.5018 46.0866 45.4866 46.1709C45.4714 46.2552 45.5236 46.3352 45.6084 46.3504C45.7975 46.3871 45.9823 46.4433 46.1562 46.5168C46.3823 46.6119 46.5954 46.7373 46.7867 46.8843C46.8367 46.9232 46.878 46.96 46.9063 46.9838C46.9346 47.0097 46.9715 47.0227 47.0085 47.0227H47.0063Z" fill="#408F95"/>
<path d="M45.5501 46.9773C45.6001 46.9773 45.6501 46.9514 45.6805 46.906C45.7262 46.8346 45.7066 46.7395 45.6349 46.6941C45.6023 46.6725 45.5544 46.6422 45.4957 46.6076C45.2761 46.4758 45.0392 46.3525 44.7978 46.2466C44.6087 46.1623 44.4174 46.0888 44.2239 46.0239C44.1434 45.998 44.0565 46.0412 44.0282 46.1212C44.0021 46.2012 44.0456 46.2877 44.126 46.3158C44.3087 46.3763 44.4934 46.4477 44.6717 46.5277C44.9022 46.6293 45.1261 46.746 45.337 46.8714C45.3935 46.9038 45.4392 46.9341 45.4696 46.9535C45.4957 46.9708 45.524 46.9773 45.5522 46.9773H45.5501Z" fill="#408F95"/>
<path d="M43.7082 46.9795C43.756 46.9795 43.8017 46.9579 43.8321 46.9168C43.8821 46.8498 43.8691 46.7525 43.7995 46.7028C43.7669 46.679 43.7213 46.6444 43.6626 46.6055C43.4451 46.4585 43.2103 46.3309 42.9625 46.2228C42.7712 46.1407 42.5733 46.0693 42.3733 46.0153C42.2907 45.9915 42.2059 46.0412 42.1842 46.1234C42.1624 46.2055 42.2103 46.2899 42.2929 46.3115C42.4777 46.3612 42.6625 46.426 42.8407 46.5039C43.0712 46.6033 43.2886 46.7222 43.4908 46.8584C43.5452 46.8952 43.5886 46.9254 43.6169 46.9471C43.6452 46.9665 43.6756 46.9773 43.7082 46.9773V46.9795Z" fill="#408F95"/>
<path d="M40.1495 52.8987C40.1495 52.8987 40.1647 52.8987 40.1712 52.8987L41.4127 52.7279C41.4974 52.7171 41.5562 52.6392 41.5431 52.5549C41.5322 52.4706 41.4518 52.4122 41.3692 52.4252L40.1278 52.596C40.043 52.6068 39.9843 52.6846 39.9973 52.7689C40.0082 52.8446 40.0734 52.9008 40.1495 52.9008V52.8987Z" fill="#408F95"/>
<path d="M32.1659 52.6457C32.2072 52.6457 32.2507 52.6349 32.2898 52.609C32.6638 52.3733 32.9964 52.0837 33.2747 51.7486C33.6486 51.3011 33.9987 50.8795 33.953 50.3261C33.9052 49.7618 33.4725 49.4029 33.0138 49.0225C32.6377 48.7111 32.2137 48.4647 31.7506 48.2939C31.6311 48.2485 31.4984 48.309 31.4528 48.4279C31.4071 48.5468 31.468 48.6787 31.5876 48.7241C32.0007 48.8776 32.3811 49.0981 32.7159 49.3748C33.1312 49.7186 33.4595 49.991 33.4921 50.365C33.5225 50.7303 33.2573 51.0503 32.9203 51.4546C32.6725 51.7529 32.3768 52.0102 32.042 52.222C31.9333 52.289 31.9028 52.4317 31.9702 52.5398C32.0137 52.609 32.0898 52.6457 32.1659 52.6457Z" fill="#408F95"/>
<path d="M25.3196 43.2308C25.4457 43.2308 25.5588 43.1465 25.5914 43.019C25.6458 42.8028 25.6436 42.5974 25.5827 42.4072C25.287 41.4732 23.7782 41.3111 22.6781 41.1944C21.5389 41.0711 20.367 41.1079 19.1974 41.3003C19.0452 41.3262 18.9408 41.4689 18.9669 41.6203C18.993 41.7716 19.1343 41.8753 19.2887 41.8494C20.4083 41.6635 21.5302 41.6311 22.6172 41.7478C23.4564 41.8386 24.8631 41.9899 25.0479 42.5758C25.0761 42.6666 25.0761 42.7704 25.0479 42.8849C25.0109 43.0341 25.1022 43.1854 25.2523 43.2222C25.274 43.2287 25.2979 43.2308 25.3196 43.2308Z" fill="#408F95"/>
<path d="M22.6584 46.8909C22.7171 46.8909 22.778 46.8714 22.828 46.8347C23.2606 46.5082 23.6759 46.1602 24.0672 45.7991C24.239 45.6413 24.4738 45.4251 24.7608 45.116C25.0239 44.8328 25.2739 44.5345 25.5043 44.2275C25.5152 44.2123 25.5239 44.1972 25.5326 44.1799C25.5413 44.1604 25.5565 44.1323 25.5761 44.0956C25.8065 43.6654 26.0131 43.22 25.8109 42.9347C25.7522 42.8525 25.613 42.7228 25.3304 42.7639C25.1782 42.7855 25.0717 42.9282 25.0934 43.0795C25.1108 43.2006 25.2043 43.2914 25.3174 43.313C25.2913 43.406 25.2239 43.5659 25.0804 43.8362C25.063 43.8664 25.0499 43.8945 25.0391 43.914C24.8238 44.1994 24.5912 44.4761 24.3477 44.7377C24.0759 45.0317 23.8498 45.2392 23.6846 45.3906C23.3085 45.7386 22.9041 46.0737 22.4867 46.3915C22.3627 46.4845 22.341 46.6596 22.4345 46.7806C22.4888 46.852 22.5736 46.8909 22.6563 46.8909H22.6584Z" fill="#408F95"/>
<path d="M8.7158 49.5954C8.75058 49.5954 8.78536 49.5889 8.82015 49.5759C9.35281 49.364 9.89634 49.23 10.4333 49.1759C10.8269 49.137 11.1921 49.1522 11.6965 49.1759C11.8661 49.1846 12.0509 49.1911 12.2552 49.1997L12.9836 49.2257C13.5793 49.2473 13.738 49.2538 14.0119 49.2473C14.6185 49.2365 15.2251 49.1868 15.8143 49.0981C17.6927 48.8171 19.7451 48.1404 19.832 48.1101C20.7625 47.7967 21.6909 47.4227 22.591 47.0033C22.7301 46.9384 22.791 46.772 22.7258 46.6336C22.6605 46.4952 22.4931 46.4347 22.354 46.4996C21.4735 46.9125 20.5669 47.2757 19.6559 47.5827C19.6363 47.5891 17.5644 48.2723 15.7338 48.5468C15.1686 48.6312 14.5859 48.6787 14.0054 48.6895C13.7467 48.6939 13.6054 48.6895 13.0053 48.6679L12.2748 48.642C12.0726 48.6355 11.89 48.6268 11.7204 48.6182C11.1921 48.5944 10.8095 48.5771 10.3768 48.6203C9.78763 48.6787 9.19409 48.8257 8.61143 49.057C8.46794 49.1133 8.39837 49.2754 8.4549 49.4181C8.49838 49.5262 8.60274 49.5932 8.7158 49.5932V49.5954Z" fill="#408F95"/>
<path d="M0.280522 48.5036C0.32183 48.5036 0.360961 48.495 0.400095 48.4777C0.576198 48.3934 0.761 48.3177 0.945799 48.2528C1.5589 48.0345 2.10025 47.961 2.83075 47.907C4.31784 47.7967 5.88102 47.8183 6.46803 47.8659C6.55717 47.8724 6.77241 47.8918 7.05939 47.881C7.30724 47.8724 7.55726 47.8443 7.80294 47.7989C7.8225 47.7945 7.84207 47.7902 7.85947 47.7816C8.00513 47.721 8.14645 47.6518 8.28342 47.5783C8.60954 47.4011 8.83564 47.2216 8.93348 47.1438L8.96173 47.1222C9.98791 46.3396 11.0576 45.5916 12.1425 44.902C13.1404 44.2664 13.9296 43.7648 15.021 43.2438C16.1733 42.6947 17.3908 42.2537 18.6409 41.9316C18.7909 41.8926 18.88 41.7413 18.8409 41.5921C18.8018 41.443 18.6496 41.3543 18.4996 41.3933C17.2125 41.724 15.9602 42.178 14.7775 42.7423C13.6556 43.2784 12.8534 43.7864 11.8403 44.4328C10.7423 45.1311 9.65745 45.8878 8.6204 46.6812L8.58561 46.7071C8.49865 46.7741 8.29863 46.9341 8.01382 47.0898C7.90294 47.1503 7.78772 47.2065 7.67032 47.2562C7.46378 47.293 7.25071 47.3168 7.03982 47.3232C6.78545 47.3319 6.59413 47.3168 6.52238 47.3103C5.79188 47.2497 4.16348 47.2497 2.78944 47.3513C2.01111 47.4097 1.43063 47.4875 0.756652 47.7275C0.552286 47.7989 0.352268 47.8832 0.158772 47.974C0.0196293 48.041 -0.0390817 48.2053 0.0261416 48.3458C0.073972 48.4453 0.173988 48.5036 0.278346 48.5036H0.280522Z" fill="#408F95"/>
<path d="M3.49816 54.8206C3.56773 54.8206 3.63947 54.7947 3.69382 54.7406L6.11143 52.3971C6.54408 51.9345 6.95281 51.4611 7.33981 50.979C7.63114 50.6158 7.91377 50.2418 8.18554 49.8634C8.27468 49.738 8.24424 49.5651 8.12032 49.4765C7.99422 49.3878 7.82028 49.4181 7.73114 49.5413C7.4659 49.911 7.18979 50.2785 6.90498 50.6331C6.52669 51.1043 6.12666 51.567 5.71358 52.0102L3.30683 54.345C3.19595 54.4531 3.19378 54.6282 3.30248 54.7384C3.35683 54.7947 3.43075 54.8228 3.5025 54.8228L3.49816 54.8206Z" fill="#408F95"/>
<path d="M3.49781 54.8206C3.61304 54.8206 3.71956 54.7493 3.76087 54.6368C4.05655 53.8175 4.21092 52.9744 4.21962 52.1356C4.22832 51.4308 4.23266 50.8752 3.91524 50.2677C3.55434 49.5802 2.99776 49.2408 2.29335 48.8128L2.23248 48.776C1.65417 48.4236 1.0215 48.1491 0.354045 47.9588C0.206206 47.9156 0.0496774 48.0021 0.00836929 48.1491C-0.0351129 48.2961 0.0518393 48.4518 0.199679 48.4928C0.8193 48.6679 1.40414 48.923 1.93897 49.2495L1.99985 49.2862C2.65643 49.6862 3.13039 49.9737 3.41737 50.525C3.67174 51.0092 3.66522 51.4546 3.65869 52.1291C3.65 52.9052 3.5065 53.6856 3.23256 54.4488C3.18039 54.5936 3.25649 54.7536 3.40215 54.8055C3.43259 54.8163 3.4652 54.8228 3.49564 54.8228L3.49781 54.8206Z" fill="#408F95"/>
<path d="M19.5299 46.3007C19.7169 46.3007 19.9191 46.2791 20.1321 46.2272C20.8931 46.0369 21.3583 45.5592 21.5692 45.2889C21.6649 45.1679 21.6431 44.9928 21.5214 44.8976C21.3996 44.8025 21.2235 44.8241 21.1279 44.9452C20.9605 45.1571 20.593 45.5354 19.9952 45.6846C19.3973 45.8337 18.9277 45.6629 18.6189 45.5505C18.5733 45.5332 18.5363 45.5203 18.5059 45.5051C18.6342 45.4208 18.8711 45.3106 19.2125 45.1765C19.7799 44.9517 20.3952 44.7982 21.0409 44.7225C21.1953 44.7052 21.304 44.5669 21.2866 44.4134C21.2692 44.2599 21.13 44.1496 20.9757 44.1691C20.2821 44.2512 19.6169 44.4156 19.0038 44.6598C18.345 44.9214 17.8058 45.1722 17.858 45.5894C17.8884 45.8445 18.1624 45.9764 18.4276 46.0715C18.6646 46.158 19.0494 46.2985 19.5321 46.2985L19.5299 46.3007Z" fill="#408F95"/>
<path d="M22.8521 45.9094C22.9717 45.9094 23.0826 45.8337 23.1196 45.7148C23.1652 45.5678 23.0848 45.4121 22.9369 45.3668C22.4021 45.2003 21.9281 44.9279 21.5281 44.5604C21.3172 44.3658 21.1281 44.1453 20.9672 43.9032C20.8824 43.7756 20.7085 43.7389 20.5802 43.8232C20.4519 43.9075 20.415 44.0804 20.4997 44.208C20.6845 44.4869 20.902 44.742 21.1455 44.9668C21.6064 45.3905 22.1521 45.704 22.7673 45.8964C22.7956 45.9051 22.8239 45.9094 22.8521 45.9094Z" fill="#408F95"/>
<path d="M23.463 42.9368C23.5304 42.9368 23.5956 42.9238 23.6587 42.9C23.937 42.7919 24.0761 42.4785 23.9674 42.2017C23.8587 41.925 23.5434 41.7867 23.2652 41.8948C22.9869 42.0029 22.8477 42.3163 22.9564 42.593C23.0086 42.7271 23.1108 42.833 23.2434 42.8914C23.313 42.9216 23.3869 42.9368 23.4608 42.9368H23.463ZM23.4804 42.392C23.4847 42.4006 23.4804 42.4114 23.4695 42.4136C23.463 42.4158 23.45 42.4114 23.4478 42.4028L23.4804 42.3898V42.392ZM23.4804 42.392L23.4478 42.405C23.4478 42.405 23.4478 42.3855 23.4587 42.3833C23.4674 42.3812 23.4782 42.3855 23.4804 42.3942V42.392Z" fill="#408F95"/>
<path d="M17.3339 49.9953C17.5144 49.9953 17.6796 49.965 17.7601 49.9477C18.0384 49.8872 18.3145 49.8072 18.5797 49.7078C18.9471 49.5737 19.3015 49.4008 19.6363 49.1997C20.8538 48.4668 21.4865 47.9199 22.5366 47.0162C22.654 46.9146 22.667 46.7395 22.5648 46.6228C22.4627 46.506 22.2866 46.4931 22.1692 46.5947C21.106 47.5091 20.5212 48.015 19.345 48.7241C19.0406 48.9079 18.7167 49.0635 18.384 49.1868C18.1427 49.2754 17.8905 49.3489 17.6383 49.4051C17.4818 49.4397 17.3274 49.444 17.2339 49.4332C17.2992 49.3013 17.4926 49.0376 17.9296 48.6225C18.0405 48.5166 18.0449 48.3393 17.9383 48.229C17.8318 48.1188 17.6535 48.1145 17.5427 48.2204C16.5578 49.1565 16.5687 49.5154 16.71 49.7423C16.8361 49.9434 17.0948 49.9975 17.3296 49.9975L17.3339 49.9953Z" fill="#408F95"/>
<path d="M10.888 51.2708C10.888 51.2708 10.8967 51.2708 10.901 51.2708C11.6902 51.2319 12.4577 51.0589 13.1817 50.7541C14.0752 50.3779 14.8927 49.7942 15.5471 49.0678C15.6493 48.9532 15.6406 48.7781 15.5254 48.6744C15.4101 48.5706 15.234 48.5814 15.1297 48.696C14.5296 49.3618 13.7796 49.8958 12.9621 50.2417C12.3816 50.486 11.7707 50.6395 11.1402 50.6957C11.1315 50.4817 11.1445 50.1812 11.2576 49.9369C11.2989 49.8483 11.3598 49.7164 11.488 49.5888C11.5272 49.5521 11.5576 49.5283 11.6272 49.4743L11.6859 49.4289C11.8511 49.3013 11.9837 49.1932 12.0707 49.1219C12.1903 49.0246 12.2077 48.8495 12.1098 48.7306C12.012 48.6117 11.8359 48.5944 11.7163 48.6917C11.6315 48.7608 11.5011 48.8668 11.3402 48.99L11.2837 49.0354C11.188 49.1089 11.1489 49.1413 11.0967 49.1911C10.8923 49.3899 10.7945 49.604 10.7467 49.7056C10.5097 50.2223 10.5814 50.8535 10.6097 51.0351C10.6314 51.1713 10.7488 51.2708 10.8858 51.2708H10.888Z" fill="#408F95"/>
<path d="M9.41811 46.372C9.43768 46.372 9.45725 46.372 9.47682 46.3655C9.71597 46.3158 9.97034 46.2466 10.2486 46.158C10.3965 46.1104 10.4769 45.9548 10.4291 45.8078C10.3812 45.6608 10.2247 45.5808 10.0769 45.6283C9.81597 45.7105 9.58117 45.7754 9.35941 45.8208C9.20723 45.8532 9.11156 46.0002 9.14417 46.1515C9.17243 46.2834 9.28766 46.372 9.41811 46.372Z" fill="#408F95"/>
<path d="M8.63529 46.5018C8.89183 46.5018 9.18098 46.4564 9.4984 46.3612C9.64624 46.318 9.73104 46.1623 9.68538 46.0153C9.6419 45.8683 9.48536 45.784 9.33752 45.8294C8.64616 46.0348 8.22655 45.9418 8.12872 45.7689C8.03741 45.6089 8.16568 45.2349 8.65702 44.796C8.77225 44.6923 8.78094 44.5172 8.67876 44.4026C8.5744 44.288 8.39831 44.2794 8.28308 44.381C7.6265 44.969 7.38517 45.5894 7.64172 46.0413C7.81347 46.3439 8.16568 46.5018 8.63529 46.5018Z" fill="#408F95"/>
<path d="M9.1616 44.4263C9.21161 44.4263 9.26161 44.4134 9.30726 44.3853C9.85297 44.0545 10.4182 43.7453 10.99 43.4665C13.0272 42.4742 15.2317 41.8126 17.5471 41.5035C17.6993 41.484 17.808 41.3435 17.7863 41.19C17.7646 41.0387 17.6254 40.9306 17.4711 40.9522C15.0969 41.27 12.8337 41.9488 10.7422 42.9671C10.1552 43.2524 9.57251 43.5702 9.01377 43.9118C8.88114 43.9918 8.83983 44.1626 8.92027 44.2945C8.97245 44.3809 9.06594 44.4285 9.15943 44.4285L9.1616 44.4263Z" fill="#408F95"/>
<path d="M21.1366 41.6808C21.2649 41.6808 21.3801 41.5943 21.4084 41.4646C21.4432 41.3154 21.3475 41.1662 21.1975 41.1316C20.7453 41.03 20.28 40.9544 19.8191 40.9111C19.3778 40.8701 18.9299 40.8549 18.4842 40.8701C18.3798 40.8722 18.2929 40.8765 18.2298 40.8809C18.0755 40.8895 17.9581 41.0192 17.9646 41.1727C17.9711 41.3262 18.1059 41.443 18.2581 41.4365C18.3168 41.4343 18.3994 41.43 18.4994 41.4257C18.9212 41.4127 19.3473 41.4257 19.7648 41.4667C20.2039 41.5078 20.6431 41.577 21.0714 41.6743C21.0931 41.6786 21.1127 41.6808 21.1344 41.6808H21.1366Z" fill="#408F95"/>
<path d="M16.6992 41.8818C16.7601 41.8818 16.8188 41.845 16.8427 41.7845C16.8732 41.7045 16.834 41.6159 16.7536 41.5856C16.7144 41.5705 16.6579 41.551 16.5905 41.5294C16.334 41.4473 16.0644 41.3997 15.7905 41.3889C15.5796 41.3802 15.3643 41.391 15.1534 41.4256C15.0687 41.4386 15.0121 41.5186 15.0252 41.6007C15.0382 41.6851 15.1187 41.7391 15.2013 41.7283C15.3904 41.698 15.5839 41.6872 15.7731 41.6959C16.0187 41.7067 16.2622 41.7499 16.4927 41.8234C16.5536 41.8429 16.6036 41.8623 16.6384 41.8753C16.6557 41.8818 16.6753 41.8861 16.6927 41.8861L16.6992 41.8818Z" fill="#408F95"/>
<path d="M15.3164 42.3445C15.3881 42.3445 15.4512 42.2948 15.4664 42.2234C15.4838 42.1413 15.4316 42.0591 15.349 42.0418C15.312 42.0332 15.2555 42.0224 15.1881 42.0094C14.9359 41.9618 14.6728 41.9294 14.4054 41.9121C14.1989 41.8991 13.9923 41.8948 13.7901 41.9013C13.7054 41.9035 13.638 41.9748 13.6401 42.0591C13.6423 42.1434 13.7184 42.204 13.7988 42.2083C13.9923 42.2018 14.188 42.2061 14.3859 42.2169C14.638 42.2321 14.8902 42.2645 15.1294 42.3099C15.1924 42.3229 15.2468 42.3337 15.2816 42.3402C15.2925 42.3423 15.3033 42.3445 15.3142 42.3445H15.3164Z" fill="#408F95"/>
<path d="M13.5926 42.9844C13.66 42.9844 13.7208 42.9411 13.7404 42.8741C13.7643 42.792 13.7165 42.7077 13.636 42.6839C13.5969 42.6731 13.5426 42.6579 13.473 42.6406C13.2186 42.5779 12.9534 42.539 12.6838 42.5261C12.4751 42.5153 12.2642 42.5174 12.0598 42.5369C11.975 42.5434 11.912 42.619 11.9207 42.7033C11.9294 42.7876 12.0055 42.8503 12.0881 42.8417C12.2794 42.8244 12.4751 42.8222 12.6686 42.833C12.9186 42.846 13.1664 42.8828 13.4012 42.9411C13.4643 42.9563 13.5165 42.9714 13.5513 42.9801C13.5665 42.9844 13.5795 42.9865 13.5947 42.9865L13.5926 42.9844Z" fill="#408F95"/>
<path d="M12.3315 49.7661C12.3554 49.7661 12.3815 49.7596 12.4054 49.7467L13.5077 49.1565C13.5816 49.1154 13.6099 49.0224 13.5708 48.9489C13.5295 48.8754 13.436 48.8473 13.3621 48.8862L12.2598 49.4764C12.1859 49.5175 12.1576 49.6105 12.1967 49.684C12.225 49.7358 12.2772 49.7639 12.3315 49.7639V49.7661Z" fill="#408F95"/>
<path d="M4.73069 52.302C4.80026 52.302 4.86983 52.2718 4.91549 52.2112C5.1829 51.861 5.3938 51.474 5.53729 51.0633C5.73079 50.5163 5.91124 49.9975 5.67426 49.4959C5.43076 48.9836 4.90027 48.7955 4.33718 48.5987C3.87627 48.4366 3.39144 48.3545 2.89792 48.3523C2.76965 48.3523 2.66746 48.4539 2.66746 48.5815C2.66746 48.709 2.76965 48.8106 2.89792 48.8128C3.33926 48.8128 3.77191 48.8884 4.18281 49.0333C4.69373 49.2127 5.09594 49.3532 5.25682 49.6927C5.41336 50.0256 5.2764 50.4169 5.10247 50.9141C4.9742 51.2795 4.78721 51.6232 4.54806 51.9367C4.46979 52.0383 4.49154 52.181 4.59155 52.2588C4.63285 52.2912 4.68286 52.3063 4.73069 52.3063V52.302Z" fill="#408F95"/>
<path d="M56.466 24.5177C56.5638 24.5177 56.6617 24.4701 56.7204 24.3837C56.89 24.1394 56.9813 23.8821 56.9943 23.6184C57.0617 22.304 55.1898 21.3744 53.8245 20.6955C52.3961 19.9864 50.8481 19.4676 49.2262 19.1541C49.0588 19.1217 48.8979 19.2298 48.8653 19.3963C48.8327 19.5627 48.9414 19.7227 49.1088 19.7551C50.6764 20.0578 52.1721 20.5593 53.5484 21.2425C54.6245 21.7786 56.4247 22.6736 56.379 23.5881C56.3725 23.7351 56.316 23.8864 56.2116 24.0378C56.116 24.1783 56.1508 24.3685 56.2921 24.4637C56.3443 24.5004 56.4051 24.5177 56.466 24.5177Z" fill="#408F95"/>
<path d="M51.1786 28.0307C51.209 28.0307 51.2394 28.0264 51.2677 28.0177C51.9917 27.7994 52.707 27.5443 53.394 27.2632C53.694 27.14 54.1049 26.9714 54.6332 26.7055C55.1159 26.4633 55.5877 26.1931 56.0399 25.9034C56.0573 25.8926 56.0725 25.8796 56.0877 25.8667C56.1094 25.8451 56.1464 25.8126 56.1899 25.7737C56.6834 25.337 57.1552 24.8744 57.0421 24.4485C57.0117 24.3318 56.9073 24.1242 56.5595 24.0507C56.3943 24.0161 56.229 24.1199 56.1942 24.2864C56.1594 24.4463 56.2595 24.6041 56.416 24.6452C56.3573 24.7533 56.1899 24.95 55.7812 25.3154C55.742 25.35 55.7094 25.3803 55.6833 25.4019C55.2572 25.6743 54.8115 25.9272 54.3571 26.1564C53.8505 26.4115 53.4527 26.5758 53.1614 26.6947C52.4939 26.9692 51.796 27.2157 51.0916 27.4297C50.9285 27.4794 50.8372 27.6502 50.8872 27.8124C50.9285 27.9442 51.0503 28.0307 51.1829 28.0307H51.1786Z" fill="#408F95"/>
<path d="M47.7802 28.2512C48.8151 28.2512 49.8565 28.208 50.8892 28.1215C51.0588 28.1064 51.1849 27.9594 51.1697 27.7908C51.1566 27.6221 51.0066 27.4968 50.837 27.5119C49.4782 27.6265 48.1063 27.6632 46.7562 27.6243C46.7279 27.6243 43.6668 27.5141 41.1231 26.9844C40.3361 26.8201 39.5447 26.5996 38.7751 26.3293C38.4315 26.2083 38.2467 26.1326 37.4684 25.8127L36.5248 25.4257C36.2618 25.3176 36.027 25.2182 35.8096 25.1274C35.1291 24.8398 34.6377 24.6344 34.0529 24.481C33.2572 24.2734 32.4158 24.1805 31.5461 24.1999C31.3766 24.2042 31.2418 24.3448 31.2461 24.5134C31.2505 24.682 31.3983 24.8117 31.5614 24.8117C32.3723 24.7923 33.1572 24.8809 33.8963 25.0733C34.4377 25.2138 34.9117 25.4149 35.5682 25.6894C35.7856 25.7824 36.0226 25.8818 36.2879 25.9899L37.2314 26.3769C38.0011 26.6947 38.2076 26.779 38.5685 26.9044C39.3642 27.1833 40.1817 27.4124 40.997 27.5811C43.5951 28.1215 46.7062 28.2318 46.7388 28.234C47.0845 28.2448 47.4324 28.2491 47.7824 28.2491L47.7802 28.2512Z" fill="#408F95"/>
<path d="M31.1679 21.9948C31.1679 21.9948 31.1766 21.9948 31.1809 21.9948C31.3983 21.9861 31.6157 21.9667 31.8288 21.9343C32.3375 21.8608 32.7202 21.7375 32.8832 21.6835L32.9311 21.6683C34.6638 21.1365 36.4357 20.676 38.2011 20.2956C39.8252 19.9453 41.1101 19.6708 42.8015 19.5151C44.5865 19.353 46.4084 19.3638 48.2129 19.5497C48.3825 19.5692 48.5347 19.4459 48.5521 19.2773C48.5695 19.1087 48.4477 18.9574 48.2781 18.9401C46.4345 18.7498 44.5734 18.739 42.7472 18.9033C41.0188 19.0611 39.7187 19.34 38.0729 19.6946C36.2901 20.0772 34.4986 20.5442 32.7506 21.0803L32.6941 21.0976C32.5463 21.1452 32.1984 21.2576 31.7418 21.3246C31.5592 21.3506 31.3744 21.37 31.1896 21.3765C30.8918 21.3246 30.5961 21.2511 30.3091 21.156C29.9656 21.0414 29.7199 20.9268 29.6264 20.8836C28.7024 20.4534 26.5696 19.6621 24.7216 19.1303C23.6802 18.8298 22.8845 18.6547 21.8931 18.6417C21.5931 18.6374 21.2909 18.6482 20.9952 18.6742C20.8256 18.6893 20.6995 18.8385 20.7148 19.0071C20.73 19.1757 20.8778 19.3011 21.0496 19.286C21.3257 19.2622 21.6061 19.2535 21.8866 19.2557C22.8063 19.2687 23.5607 19.4351 24.5521 19.7205C26.5631 20.2999 28.6089 21.0868 29.359 21.4349C29.4699 21.4867 29.7395 21.6121 30.1178 21.7375C30.4461 21.8456 30.7831 21.9299 31.1222 21.9883C31.1396 21.9905 31.157 21.9926 31.1744 21.9926L31.1679 21.9948Z" fill="#408F95"/>
<path d="M22.1453 29.1398C22.1866 29.1398 22.2301 29.1311 22.2693 29.1138L26.5914 27.2114C27.3784 26.8179 28.1481 26.3942 28.8916 25.951C29.4503 25.6159 30.0069 25.2614 30.5439 24.8982C30.6852 24.8031 30.72 24.6128 30.6244 24.4723C30.5287 24.3318 30.3374 24.295 30.1961 24.3923C29.6678 24.749 29.1221 25.0971 28.572 25.4257C27.8415 25.8624 27.0871 26.2775 26.3262 26.658L22.0192 28.5539C21.8627 28.6231 21.7931 28.8025 21.8627 28.9582C21.9127 29.0728 22.0258 29.1398 22.1453 29.1398Z" fill="#408F95"/>
<path d="M22.1455 29.1397C22.2325 29.1397 22.3194 29.103 22.3803 29.0316C23.1652 28.1064 23.7761 27.086 24.1957 25.9986C24.5479 25.0884 24.824 24.3707 24.7088 23.4389C24.5762 22.3839 24.0174 21.677 23.3108 20.782L23.25 20.7041C22.6673 19.9669 21.9803 19.3054 21.202 18.7368C21.065 18.6374 20.8715 18.6655 20.7715 18.8017C20.6715 18.9379 20.6997 19.1303 20.8367 19.2298C21.5694 19.7659 22.2173 20.3885 22.7651 21.0825L22.826 21.1603C23.5 22.0121 23.987 22.6282 24.0979 23.5146C24.1957 24.2928 23.9674 24.883 23.6217 25.778C23.2261 26.8028 22.6499 27.7648 21.9085 28.636C21.7998 28.7657 21.8151 28.9581 21.9455 29.0684C22.0042 29.116 22.0738 29.1397 22.1433 29.1397H22.1455Z" fill="#408F95"/>
<path d="M48.4481 25.9316C49.3265 25.9316 50.0048 25.603 50.3548 25.3889C50.5005 25.3003 50.544 25.1122 50.4548 24.9674C50.3657 24.8225 50.1765 24.7771 50.0309 24.8679C49.6982 25.0712 49.009 25.3976 48.1285 25.3003C47.2458 25.203 46.7023 24.7404 46.3414 24.4356C46.2262 24.3383 46.1566 24.2669 46.1153 24.2194C46.261 24.1632 46.6001 24.107 47.3545 24.0875C48.2177 24.068 49.109 24.1653 50.0004 24.3815C50.1657 24.4226 50.3331 24.321 50.3722 24.1567C50.4135 23.9924 50.3113 23.8259 50.1461 23.787C49.2025 23.5578 48.2568 23.4541 47.3393 23.4757C46.4175 23.4973 45.5805 23.56 45.4565 24.0767C45.3978 24.3231 45.537 24.5631 45.9392 24.9047C46.3305 25.2376 46.9871 25.7932 48.0589 25.9121C48.1916 25.9273 48.322 25.9337 48.4459 25.9337L48.4481 25.9316Z" fill="#408F95"/>
<path d="M51.9157 26.8374C52.007 26.8374 52.0983 26.7963 52.1592 26.7185C52.2636 26.5844 52.2397 26.392 52.1049 26.2883C51.4744 25.8018 50.9787 25.2073 50.6287 24.5199C50.4439 24.1567 50.3025 23.7675 50.209 23.3676C50.1699 23.2033 50.0047 23.0995 49.8395 23.1384C49.6742 23.1773 49.5699 23.3416 49.609 23.5059C49.7134 23.9556 49.8721 24.3901 50.0786 24.7966C50.4678 25.5662 51.0222 26.2299 51.7266 26.7725C51.7831 26.8158 51.8483 26.8374 51.9157 26.8374Z" fill="#408F95"/>
<path d="M54.3028 23.2552C54.3028 23.2552 54.3093 23.2552 54.3136 23.2552C54.6854 23.2509 54.9854 22.9439 54.9789 22.5742C54.9746 22.2067 54.6724 21.9127 54.3028 21.9127C54.3006 21.9127 54.2962 21.9127 54.2941 21.9127C53.9223 21.917 53.6223 22.224 53.6288 22.5936C53.6331 22.9612 53.9353 23.2552 54.3049 23.2552H54.3028ZM54.3028 22.5245C54.3354 22.5245 54.3615 22.5504 54.3615 22.5828C54.3615 22.6023 54.3528 22.6174 54.3441 22.6239C54.3354 22.6326 54.3223 22.6412 54.3028 22.6412C54.2723 22.6412 54.2441 22.6153 54.2419 22.5828C54.2419 22.5504 54.268 22.5245 54.3006 22.5223L54.3028 22.5245Z" fill="#408F95"/>
<path d="M44.319 29.7235C44.8582 29.7235 45.3996 29.6716 45.93 29.5721C47.8802 29.2003 48.976 28.7939 50.7935 28.1172C50.9522 28.0588 51.0327 27.8815 50.974 27.7237C50.9131 27.5659 50.737 27.4859 50.5783 27.5443C48.7303 28.2318 47.7128 28.6101 45.8148 28.9711C45.3235 29.0641 44.8191 29.1116 44.3212 29.1116H44.3125C43.9472 29.1116 43.5777 29.0857 43.2146 29.0338C42.908 28.9906 42.645 28.8847 42.5515 28.8133C42.6406 28.6966 42.995 28.4047 43.9603 27.9918C44.1168 27.9248 44.1886 27.7453 44.1212 27.5897C44.0538 27.434 43.8733 27.3627 43.7168 27.4297C42.0101 28.1583 41.8623 28.6144 41.9253 28.9301C42.0319 29.4619 42.9472 29.6175 43.1276 29.6435C43.519 29.6975 43.9168 29.7256 44.3103 29.7278H44.3212L44.319 29.7235Z" fill="#408F95"/>
<path d="M36.2902 28.4847C36.4294 28.4847 36.5685 28.4825 36.7077 28.4761C38.0534 28.4155 39.4014 28.0502 40.6037 27.4211C40.7537 27.3432 40.8124 27.1573 40.7319 27.0082C40.6537 26.859 40.4667 26.8006 40.3167 26.8806C39.1927 27.4686 37.9339 27.808 36.6794 27.8664C35.7597 27.9075 34.8444 27.8016 33.9552 27.5529C34.0444 27.2568 34.2205 26.8028 34.527 26.4958C34.6227 26.4007 34.7792 26.2429 35.0271 26.1348C35.0923 26.1067 35.1423 26.0894 35.2771 26.0483L35.3728 26.018C35.651 25.9294 35.8772 25.8537 36.0272 25.8018C36.188 25.7478 36.2728 25.5727 36.2185 25.4127C36.162 25.2527 35.988 25.1684 35.8271 25.2225C35.6793 25.2722 35.4597 25.3478 35.1858 25.4343L35.0901 25.4646C34.9445 25.51 34.8727 25.5338 34.7749 25.5748C34.4227 25.7305 34.2053 25.9467 34.09 26.0613C33.54 26.6104 33.3313 27.4535 33.2813 27.6978C33.2487 27.8513 33.34 28.0048 33.49 28.0523C34.4009 28.3399 35.3423 28.4869 36.2881 28.4869L36.2902 28.4847Z" fill="#408F95"/>
<path d="M35.1337 21.0241C35.2968 21.0241 35.4338 20.8966 35.4425 20.7323C35.4512 20.5637 35.3185 20.421 35.149 20.4123C34.7641 20.395 34.4228 20.3626 34.1054 20.3172C33.938 20.2913 33.7793 20.408 33.7554 20.5745C33.7293 20.7409 33.8467 20.8988 34.0141 20.9225C34.3511 20.9723 34.7141 21.0068 35.1207 21.0241C35.125 21.0241 35.1294 21.0241 35.1359 21.0241H35.1337Z" fill="#408F95"/>
<path d="M34.0595 20.9247C34.2204 20.9247 34.3552 20.7993 34.3661 20.6372C34.3769 20.4686 34.2487 20.3215 34.0791 20.3107C33.0203 20.2437 32.4963 19.8935 32.4463 19.5757C32.4028 19.3011 32.6963 18.8472 33.6703 18.4645C33.8291 18.4018 33.9051 18.2245 33.8443 18.0667C33.7812 17.9089 33.6029 17.8311 33.4442 17.8938C32.3333 18.3305 31.7332 18.9963 31.8397 19.6708C31.9506 20.3734 32.7746 20.8404 34.0421 20.9225C34.0486 20.9225 34.0552 20.9225 34.0617 20.9225L34.0595 20.9247Z" fill="#408F95"/>
<path d="M47.0651 18.4666C47.2064 18.4666 47.3325 18.3694 47.3651 18.2288C47.4021 18.0645 47.2977 17.9002 47.1325 17.8635C43.8691 17.1306 40.5754 16.9231 37.3403 17.2452C36.4315 17.336 35.5162 17.47 34.6161 17.643C34.4487 17.6754 34.34 17.8354 34.3726 18.0018C34.4052 18.1683 34.5661 18.2764 34.7335 18.244C35.6141 18.0732 36.5098 17.9413 37.4012 17.8527C40.5688 17.537 43.7974 17.7403 46.9955 18.4602C47.0194 18.4645 47.0412 18.4688 47.0629 18.4688L47.0651 18.4666Z" fill="#408F95"/>
<path d="M51.7374 20.4556C51.8374 20.4556 51.9374 20.4058 51.9961 20.3172C52.0896 20.1767 52.0505 19.9864 51.907 19.8935C51.3656 19.5411 50.796 19.2211 50.2155 18.9423C49.659 18.6742 49.0807 18.4407 48.4936 18.244C48.3567 18.1986 48.2393 18.1618 48.1567 18.1359C47.9958 18.084 47.8218 18.1748 47.7718 18.3369C47.7218 18.4991 47.811 18.6699 47.974 18.7196C48.0523 18.7434 48.1632 18.7801 48.2958 18.8234C48.8589 19.0114 49.4133 19.2384 49.946 19.4935C50.5047 19.7616 51.0504 20.0686 51.5678 20.4058C51.62 20.4404 51.6787 20.4556 51.7352 20.4556H51.7374Z" fill="#408F95"/>
<path d="M45.8303 18.8817C45.8933 18.8817 45.9585 18.8558 46.0042 18.8039C46.089 18.7088 46.0803 18.5639 45.9846 18.4796C45.9412 18.4407 45.8781 18.3867 45.7977 18.324C45.4998 18.0905 45.1693 17.8981 44.815 17.7489C44.541 17.6343 44.254 17.5457 43.9584 17.4873C43.8344 17.4614 43.7127 17.5435 43.6866 17.6689C43.6627 17.7943 43.7431 17.9132 43.8692 17.9392C44.1323 17.991 44.3888 18.0689 44.6345 18.1726C44.9519 18.3067 45.2476 18.4796 45.5129 18.6872C45.5846 18.7434 45.6411 18.7909 45.6803 18.8255C45.7237 18.8644 45.7781 18.8839 45.8324 18.8839L45.8303 18.8817Z" fill="#408F95"/>
<path d="M43.7129 18.5898C43.789 18.5898 43.8629 18.5531 43.9086 18.4839C43.9782 18.378 43.9455 18.2353 43.839 18.1661C43.7934 18.1359 43.726 18.0948 43.6433 18.0451C43.3346 17.8591 43.0063 17.6884 42.6628 17.537C42.3998 17.4203 42.128 17.3144 41.8584 17.2257C41.7366 17.1846 41.6062 17.2495 41.5649 17.3706C41.5236 17.4916 41.5888 17.6213 41.7106 17.6624C41.9671 17.7467 42.2236 17.8483 42.4737 17.9586C42.7976 18.1034 43.1107 18.2634 43.402 18.4407C43.4803 18.4882 43.5433 18.5272 43.5868 18.5553C43.6259 18.579 43.6694 18.592 43.7107 18.592L43.7129 18.5898Z" fill="#408F95"/>
<path d="M41.1362 18.5942C41.208 18.5942 41.2775 18.5618 41.3232 18.5013C41.3993 18.3997 41.3775 18.2548 41.2754 18.1791C41.2297 18.1467 41.1645 18.0992 41.084 18.0429C40.7797 17.8376 40.4492 17.6581 40.1013 17.5068C39.8317 17.3901 39.5535 17.2928 39.2752 17.2171C39.1513 17.1847 39.0252 17.256 38.9904 17.3771C38.9556 17.5003 39.0295 17.6257 39.1513 17.6603C39.41 17.7316 39.6665 17.8224 39.9144 17.9284C40.2361 18.0667 40.5405 18.2353 40.821 18.4234C40.8971 18.4732 40.9558 18.5186 40.9971 18.5488C41.0384 18.5791 41.0862 18.5942 41.134 18.5942H41.1362Z" fill="#408F95"/>
<path d="M36.1553 26.8806C36.1553 26.8806 36.177 26.8806 36.1879 26.8785L37.925 26.6385C38.0511 26.6212 38.1402 26.5044 38.1228 26.3791C38.1054 26.2537 37.988 26.165 37.8619 26.1823L36.1248 26.4223C35.9987 26.4396 35.9096 26.5563 35.927 26.6817C35.9422 26.7963 36.0422 26.8806 36.1553 26.8806Z" fill="#408F95"/>
<path d="M24.9763 26.418C25.0176 26.418 25.0611 26.4072 25.1002 26.3812C25.6155 26.0548 26.0742 25.657 26.459 25.1943C26.9677 24.5825 27.4482 24.0053 27.3873 23.2703C27.3243 22.518 26.7308 22.0272 26.1046 21.5062C25.5872 21.076 25.0024 20.7387 24.3653 20.5009C24.2458 20.4555 24.1131 20.5161 24.0675 20.635C24.0218 20.7539 24.0827 20.8857 24.2023 20.9311C24.7915 21.1517 25.3306 21.463 25.8089 21.8586C26.4068 22.3558 26.8786 22.7471 26.9264 23.307C26.9721 23.8562 26.5895 24.3166 26.1046 24.9003C25.7502 25.3262 25.3306 25.6916 24.8545 25.9921C24.7458 26.0591 24.7154 26.2018 24.7828 26.3099C24.8263 26.379 24.9023 26.4158 24.9784 26.4158L24.9763 26.418Z" fill="#408F95"/>
<path d="M93.5262 31.1481C93.6393 31.1481 93.7458 31.079 93.7871 30.9687C93.8676 30.7612 93.8871 30.5558 93.8502 30.3591C93.6654 29.397 92.187 29.0619 91.1086 28.8155C89.9911 28.5604 88.8236 28.4609 87.6388 28.515C87.4844 28.5215 87.3648 28.6534 87.3713 28.8068C87.3779 28.9603 87.5083 29.0749 87.6648 29.0728C88.7997 29.0187 89.915 29.116 90.9825 29.3581C91.8065 29.5462 93.1849 29.8597 93.3001 30.4628C93.3175 30.5558 93.3045 30.6596 93.2632 30.7698C93.2088 30.9125 93.2806 31.0746 93.4262 31.1287C93.4588 31.1417 93.4915 31.146 93.5262 31.146V31.1481Z" fill="#408F95"/>
<path d="M90.4518 34.4731C90.4997 34.4731 90.5497 34.4601 90.5931 34.4342C91.0606 34.1596 91.515 33.8613 91.9454 33.55C92.1324 33.4138 92.3911 33.2279 92.7151 32.9511C93.0108 32.7004 93.2934 32.4323 93.5586 32.1556C93.5717 32.1426 93.5825 32.1275 93.5934 32.1123C93.6043 32.095 93.6239 32.0669 93.6478 32.0345C93.9261 31.6324 94.1848 31.2152 94.0174 30.9103C93.9695 30.8217 93.8478 30.6747 93.5608 30.6855C93.4064 30.6898 93.2847 30.8174 93.289 30.9709C93.2934 31.0919 93.3738 31.1935 93.4847 31.2281C93.4478 31.3189 93.363 31.4681 93.189 31.7189C93.1695 31.747 93.1521 31.7729 93.139 31.7924C92.8934 32.0496 92.6281 32.2983 92.3542 32.5296C92.0455 32.7912 91.7998 32.9706 91.6193 33.1003C91.2041 33.4008 90.7649 33.6883 90.3127 33.9542C90.1801 34.0321 90.1366 34.2029 90.2148 34.3347C90.267 34.4234 90.3605 34.4709 90.4562 34.4709L90.4518 34.4731Z" fill="#408F95"/>
<path d="M82.9357 35.874C83.0792 35.874 83.2205 35.8718 83.3618 35.8675C85.262 35.807 87.3774 35.3746 87.4665 35.3552C88.4297 35.1519 89.3928 34.8904 90.3364 34.5769C90.482 34.5272 90.5625 34.3715 90.5125 34.2245C90.4625 34.0797 90.3059 33.9997 90.1581 34.0494C89.2363 34.3564 88.2905 34.6115 87.3513 34.8104C87.3317 34.8147 85.1924 35.2514 83.3423 35.3119C82.7705 35.3314 82.1856 35.3119 81.6095 35.2514C81.3508 35.2254 81.2095 35.2038 80.6137 35.1109L79.8963 35.0006C79.6963 34.9703 79.5158 34.9401 79.3506 34.9141C78.8288 34.8298 78.4505 34.7671 78.0157 34.7606C77.4243 34.7498 76.8156 34.8277 76.2112 34.9876C76.0612 35.0266 75.9742 35.1801 76.0133 35.3292C76.0525 35.4784 76.2068 35.5649 76.3568 35.5259C76.9112 35.3789 77.4656 35.3076 78.007 35.3162C78.4027 35.3227 78.7636 35.3811 79.2615 35.4633C79.4289 35.4914 79.6115 35.5195 79.8137 35.5519L80.529 35.6621C81.1203 35.7529 81.2812 35.7789 81.553 35.8048C82.0117 35.8502 82.4748 35.874 82.9335 35.874H82.9357Z" fill="#408F95"/>
<path d="M75.2179 33.6537C75.331 33.6537 75.4462 33.6494 75.5593 33.6429C75.5788 33.6429 75.5984 33.6386 75.6158 33.6321C75.7658 33.5889 75.9158 33.537 76.0615 33.4786C76.4072 33.3403 76.6528 33.1889 76.7594 33.1241L76.7876 33.1068C77.8986 32.4474 79.0487 31.8313 80.2075 31.2714C81.275 30.7568 82.1164 30.3504 83.2621 29.9613C84.4709 29.5505 85.7319 29.2543 87.0125 29.0792C87.1647 29.0576 87.2734 28.9192 87.2516 28.7658C87.2299 28.6144 87.0907 28.5042 86.9364 28.528C85.6189 28.7052 84.3231 29.01 83.0795 29.4338C81.9033 29.8337 81.0467 30.2466 79.964 30.7698C78.79 31.3362 77.6247 31.961 76.5007 32.6268L76.4637 32.6485C76.3702 32.7068 76.1506 32.8409 75.8506 32.9619C75.7332 33.0095 75.6114 33.0506 75.4897 33.0873C75.2788 33.1003 75.0657 33.0981 74.857 33.0808C74.6005 33.0592 74.4135 33.0225 74.3439 33.0073C73.6265 32.8625 72.0089 32.6722 70.6327 32.6117C69.8544 32.5793 69.2674 32.5901 68.5717 32.7479C68.3608 32.7955 68.1521 32.856 67.9477 32.923C67.802 32.9727 67.7238 33.1306 67.7716 33.2754C67.8216 33.4202 67.9803 33.4981 68.126 33.4505C68.3108 33.3878 68.5021 33.3338 68.6956 33.2905C69.3304 33.1457 69.8761 33.1349 70.6088 33.1673C72.0981 33.2322 73.6482 33.4332 74.2265 33.55C74.3113 33.5673 74.5222 33.6105 74.8114 33.6343C74.9462 33.6451 75.0831 33.6516 75.2179 33.6516V33.6537Z" fill="#408F95"/>
<path d="M70.4913 40.1156C70.55 40.1156 70.6109 40.0961 70.6609 40.0572L73.3372 38.0099C73.8199 37.6013 74.283 37.1776 74.7243 36.7431C75.0548 36.4166 75.3831 36.0772 75.6961 35.7335C75.8005 35.6189 75.7918 35.4438 75.6766 35.34C75.5613 35.2362 75.3852 35.2449 75.2809 35.3595C74.9743 35.6967 74.6547 36.0275 74.3308 36.3474C73.9003 36.7712 73.4459 37.1862 72.985 37.5775L70.3196 39.6162C70.1978 39.7091 70.1739 39.8842 70.2674 40.0075C70.3217 40.0788 70.4065 40.1156 70.4891 40.1156H70.4913Z" fill="#408F95"/>
<path d="M70.4893 40.1156C70.5915 40.1156 70.6915 40.0594 70.7393 39.9621C71.1307 39.1817 71.3829 38.3645 71.4916 37.5322C71.5829 36.8339 71.6546 36.2826 71.4089 35.6405C71.1328 34.9163 70.6197 34.5142 69.9697 34.0062L69.9132 33.9629C69.3805 33.5457 68.7848 33.1998 68.1434 32.9317C67.9999 32.8712 67.8369 32.9382 67.7782 33.0809C67.7195 33.2236 67.7847 33.3857 67.9282 33.4441C68.5217 33.6905 69.074 34.0126 69.5675 34.3975L69.624 34.4407C70.2284 34.9141 70.6654 35.2557 70.8872 35.8351C71.0828 36.3453 71.0241 36.7885 70.9372 37.4565C70.8372 38.2261 70.6024 38.9849 70.2393 39.7092C70.1697 39.8475 70.2262 40.014 70.3654 40.0832C70.4045 40.1026 70.448 40.1134 70.4893 40.1134V40.1156Z" fill="#408F95"/>
<path d="M87.669 33.5392C87.7712 33.5392 87.8777 33.5327 87.9864 33.5197C88.7647 33.4203 89.2843 32.9987 89.5257 32.7566C89.6344 32.6463 89.6344 32.4712 89.5235 32.3631C89.4126 32.255 89.2365 32.255 89.1278 32.3653C88.9365 32.5577 88.5278 32.8906 87.9147 32.9684C87.3037 33.0484 86.858 32.8236 86.5624 32.6744C86.5189 32.6528 86.4841 32.6334 86.4558 32.6182C86.5928 32.549 86.8406 32.4691 87.195 32.3739C87.7864 32.2161 88.4147 32.1361 89.0648 32.1361C89.2191 32.1361 89.3452 32.0107 89.3452 31.8572C89.3452 31.7038 89.2191 31.5784 89.0648 31.5784C88.3647 31.5784 87.6886 31.6648 87.0494 31.8356C86.3645 32.0194 85.7992 32.2031 85.8014 32.6269C85.8014 32.882 86.0471 33.0398 86.3102 33.1717C86.5798 33.3057 87.0472 33.5413 87.669 33.5413V33.5392Z" fill="#408F95"/>
<path d="M90.7605 33.5219C90.867 33.5219 90.9692 33.4613 91.0171 33.3576C91.0801 33.2171 91.0171 33.0527 90.8757 32.9901C90.3648 32.7609 89.9257 32.4366 89.5734 32.0259C89.3865 31.8075 89.2256 31.5654 89.0951 31.3081C89.0256 31.1698 88.8582 31.1157 88.719 31.1849C88.5799 31.2541 88.5255 31.4205 88.5951 31.5589C88.7451 31.8572 88.9321 32.1361 89.1473 32.3891C89.5539 32.8647 90.0583 33.2387 90.6475 33.5003C90.6844 33.5176 90.7236 33.524 90.7627 33.524L90.7605 33.5219Z" fill="#408F95"/>
<path d="M91.7476 30.6423C91.7933 30.6423 91.839 30.6358 91.8846 30.625C92.1738 30.5515 92.3499 30.2553 92.2738 29.9678C92.2368 29.8273 92.1499 29.7105 92.0238 29.6392C91.8977 29.5657 91.752 29.5462 91.6128 29.5808C91.4715 29.6176 91.3541 29.704 91.2802 29.8294C91.2063 29.9527 91.1867 30.0997 91.2215 30.238C91.2585 30.3764 91.3454 30.4953 91.4715 30.5666C91.5563 30.6163 91.6498 30.6423 91.7455 30.6423H91.7476ZM91.7476 30.0867C91.7476 30.0867 91.7629 30.0932 91.765 30.0997C91.765 30.1083 91.7607 30.1191 91.752 30.1213C91.7411 30.1234 91.7324 30.117 91.7302 30.1083C91.7281 30.0997 91.7324 30.0888 91.7433 30.0867C91.7433 30.0867 91.7433 30.0867 91.7455 30.0867H91.7476Z" fill="#408F95"/>
<path d="M84.9842 36.9463C85.0733 36.9463 85.1472 36.9398 85.1951 36.9355C85.4777 36.9074 85.7625 36.8598 86.0386 36.7928C86.4169 36.702 86.7909 36.5723 87.1474 36.4123C88.441 35.8264 89.1346 35.3573 90.2847 34.5812C90.4129 34.4947 90.4455 34.3218 90.3586 34.1942C90.2716 34.0667 90.0977 34.0342 89.9694 34.1207C88.8063 34.9055 88.1649 35.3378 86.9148 35.9064C86.5908 36.0534 86.2495 36.1702 85.906 36.2523C85.656 36.3128 85.3973 36.3561 85.1407 36.382C84.982 36.3971 84.8276 36.3842 84.7363 36.3647C84.8168 36.2415 85.0407 36.0015 85.5234 35.6405C85.6473 35.5475 85.6712 35.3746 85.5799 35.2514C85.4864 35.1281 85.3125 35.1044 85.1885 35.1952C84.0993 36.008 84.0689 36.3669 84.1819 36.609C84.3145 36.8944 84.7146 36.9463 84.9863 36.9463H84.9842Z" fill="#408F95"/>
<path d="M78.6944 37.4673C79.3249 37.4673 79.9467 37.3786 80.5532 37.2035C81.4859 36.9333 82.3665 36.449 83.1013 35.8048C83.2165 35.7032 83.2274 35.5281 83.1252 35.4113C83.023 35.2968 82.8469 35.286 82.7295 35.3876C82.0556 35.9777 81.249 36.4209 80.3945 36.6695C79.788 36.8447 79.1618 36.9246 78.5313 36.9095C78.5465 36.6976 78.5965 36.3971 78.7357 36.168C78.7857 36.0858 78.8618 35.9605 79.0075 35.8502C79.0509 35.8178 79.0835 35.7983 79.1596 35.7529L79.2227 35.7162C79.401 35.6081 79.5466 35.5173 79.6423 35.4567C79.7727 35.3746 79.8097 35.2016 79.7271 35.0719C79.6445 34.9422 79.4705 34.9055 79.3401 34.9876C79.2466 35.0481 79.1075 35.1346 78.9314 35.2406L78.8705 35.2773C78.7683 35.34 78.7248 35.3659 78.6661 35.4092C78.4378 35.5821 78.3161 35.7832 78.2574 35.8805C77.9595 36.369 77.9595 37.0025 77.9661 37.1841C77.9704 37.3268 78.0835 37.4413 78.227 37.4521C78.3835 37.4629 78.5378 37.4673 78.6944 37.4673Z" fill="#408F95"/>
<path d="M77.3636 32.415C77.3636 32.415 77.381 32.415 77.3897 32.415C77.6354 32.3934 77.8941 32.3545 78.1811 32.3004C78.3333 32.2702 78.4311 32.1253 78.4029 31.974C78.3724 31.8227 78.2246 31.7254 78.0746 31.7535C77.805 31.8054 77.5658 31.84 77.3397 31.8616C77.1854 31.8746 77.0723 32.0107 77.0853 32.1642C77.0984 32.3091 77.2201 32.4172 77.3636 32.4172V32.415Z" fill="#408F95"/>
<path d="M76.8224 32.4669C77.005 32.4669 77.2028 32.4496 77.4137 32.4129C77.5659 32.3869 77.6681 32.2421 77.6398 32.0907C77.6137 31.9394 77.4681 31.8378 77.3159 31.8659C76.605 31.9913 76.2006 31.8486 76.1223 31.667C76.0506 31.4984 76.2201 31.1417 76.7615 30.7612C76.8876 30.6726 76.918 30.4996 76.8289 30.3742C76.7397 30.2488 76.5658 30.2186 76.4397 30.3072C75.7179 30.8152 75.407 31.4033 75.607 31.881C75.7679 32.2637 76.2071 32.4691 76.8224 32.4691V32.4669Z" fill="#408F95"/>
<path d="M77.3396 30.4542C77.3787 30.4542 77.4179 30.4455 77.457 30.4282C78.0375 30.1623 78.6354 29.9224 79.2376 29.7127C81.3769 28.9647 83.6467 28.5647 85.9817 28.5258C86.136 28.5236 86.26 28.3961 86.2578 28.2426C86.2556 28.0891 86.123 27.9659 85.973 27.968C83.5771 28.007 81.2486 28.4177 79.0528 29.1852C78.4353 29.4014 77.8201 29.6478 77.2244 29.9202C77.083 29.9851 77.0222 30.1494 77.0874 30.2899C77.1352 30.3915 77.2352 30.452 77.3418 30.452L77.3396 30.4542Z" fill="#408F95"/>
<path d="M89.554 29.1225C89.6692 29.1225 89.7779 29.0511 89.817 28.9366C89.8692 28.7917 89.7931 28.6317 89.6475 28.582C89.2105 28.4264 88.7583 28.301 88.3039 28.2037C87.8712 28.1107 87.4255 28.0459 86.982 28.007C86.8776 27.9983 86.7907 27.9918 86.7298 27.9875C86.5733 27.9767 86.4428 28.0934 86.432 28.2469C86.4233 28.4004 86.5385 28.5323 86.6928 28.5431C86.7516 28.5474 86.8342 28.5518 86.932 28.5604C87.3516 28.5972 87.7734 28.6598 88.1843 28.7485C88.6148 28.8393 89.0431 28.9603 89.4583 29.1074C89.4888 29.1182 89.5214 29.1225 89.5518 29.1225H89.554Z" fill="#408F95"/>
<path d="M85.1101 28.8047C85.1645 28.8047 85.2188 28.7744 85.2471 28.7225C85.2862 28.6469 85.258 28.5561 85.1819 28.515C85.1449 28.4955 85.0927 28.4696 85.0253 28.4393C84.7797 28.3291 84.5188 28.2491 84.247 28.2058C84.0383 28.1713 83.8252 28.1604 83.61 28.1691C83.5252 28.1734 83.46 28.2448 83.4622 28.3291C83.4665 28.4134 83.5361 28.4782 83.623 28.4761C83.8144 28.4674 84.0079 28.4782 84.197 28.5085C84.4405 28.5474 84.6753 28.6188 84.8971 28.7182C84.9558 28.7442 85.0036 28.7679 85.0362 28.7852C85.0601 28.7982 85.084 28.8025 85.108 28.8025L85.1101 28.8047Z" fill="#408F95"/>
<path d="M83.6816 29.1008C83.7447 29.1008 83.8056 29.0619 83.8273 28.9971C83.8556 28.9171 83.8121 28.8306 83.7316 28.8025C83.6947 28.7895 83.6403 28.7722 83.5751 28.7506C83.3294 28.675 83.0729 28.6101 82.8098 28.5625C82.6076 28.5258 82.4011 28.4977 82.1989 28.4804C82.1163 28.4717 82.0402 28.5366 82.0315 28.6209C82.025 28.7052 82.088 28.7787 82.1728 28.7874C82.3641 28.8047 82.5598 28.8306 82.7533 28.8652C83.0033 28.9106 83.249 28.9711 83.4816 29.0425C83.5447 29.0619 83.5947 29.0792 83.6295 29.09C83.6469 29.0965 83.6621 29.0987 83.6795 29.0987L83.6816 29.1008Z" fill="#408F95"/>
<path d="M81.8947 29.5376C81.9555 29.5376 82.0121 29.503 82.036 29.4446C82.0686 29.3668 82.0316 29.276 81.9534 29.2435C81.9164 29.2284 81.8621 29.2068 81.7968 29.183C81.5512 29.0922 81.2924 29.023 81.0272 28.9755C80.8207 28.9409 80.612 28.9193 80.4054 28.9128C80.3206 28.9128 80.2489 28.9776 80.2467 29.0619C80.2445 29.1463 80.3119 29.2176 80.3967 29.2198C80.588 29.2263 80.7837 29.2457 80.975 29.2781C81.2229 29.3214 81.462 29.3862 81.6903 29.4705C81.7512 29.4922 81.8012 29.5138 81.8338 29.5267C81.8534 29.5354 81.8729 29.5397 81.8925 29.5397L81.8947 29.5376Z" fill="#408F95"/>
<path d="M79.842 36.1248C79.8616 36.1248 79.8811 36.1204 79.8985 36.1139L81.0638 35.6556C81.1421 35.6254 81.1812 35.5346 81.1508 35.4567C81.1204 35.3789 81.0291 35.34 80.9508 35.3703L79.7855 35.8286C79.7072 35.8588 79.6681 35.9496 79.6985 36.0275C79.7224 36.088 79.7811 36.1248 79.842 36.1248Z" fill="#408F95"/>
<path d="M72.0064 37.7569C72.0673 37.7569 72.1282 37.7332 72.1739 37.6856C72.4826 37.3678 72.7348 37.0089 72.9261 36.6176C73.1826 36.0966 73.424 35.6037 73.2457 35.0762C73.0652 34.5379 72.5587 34.2915 72.0217 34.0299C71.5825 33.8159 71.1129 33.6775 70.6215 33.617C70.4933 33.6018 70.3802 33.6905 70.365 33.818C70.3498 33.9434 70.4389 34.058 70.5672 34.0731C71.0042 34.125 71.426 34.2504 71.8173 34.4406C72.3021 34.6785 72.6869 34.8644 72.8065 35.2211C72.9239 35.5691 72.7413 35.9431 72.5087 36.4144C72.3391 36.7625 72.113 37.0824 71.839 37.3656C71.7499 37.4564 71.7542 37.6035 71.8456 37.6899C71.8912 37.7332 71.9477 37.7548 72.0064 37.7548V37.7569Z" fill="#408F95"/>
<path d="M113.123 5.09122C113.167 5.09122 113.21 5.08041 113.252 5.06096C114.26 4.54211 115.317 4.16811 116.389 3.9476C117.217 3.77681 118.6 3.49144 118.959 3.99299C119.013 4.07082 119.046 4.17027 119.054 4.28701C119.065 4.4405 119.2 4.55508 119.352 4.54643C119.507 4.53562 119.624 4.40375 119.613 4.25026C119.598 4.02758 119.53 3.83302 119.415 3.67088C118.846 2.87315 117.361 3.18013 116.276 3.40281C115.154 3.63412 114.052 4.02542 112.995 4.56805C112.858 4.63939 112.804 4.80586 112.876 4.94205C112.926 5.03718 113.023 5.09338 113.123 5.09338V5.09122Z" fill="#408F95"/>
<path d="M117.93 8.84204C118.019 8.84204 118.106 8.80097 118.161 8.72314C118.472 8.27996 118.759 7.82164 119.019 7.359C119.133 7.15795 119.289 6.88123 119.467 6.49642C119.63 6.1462 119.776 5.78517 119.902 5.42197C119.909 5.40468 119.913 5.38738 119.915 5.36793C119.917 5.34631 119.924 5.31388 119.93 5.2728C120.015 4.79287 120.076 4.30645 119.796 4.09675C119.715 4.03622 119.541 3.95407 119.285 4.08162C119.146 4.14863 119.089 4.31726 119.156 4.45346C119.211 4.56155 119.328 4.62208 119.441 4.60695C119.443 4.70423 119.43 4.87718 119.378 5.17552C119.372 5.21011 119.367 5.24038 119.363 5.26416C119.246 5.60141 119.111 5.9365 118.959 6.26078C118.789 6.62613 118.639 6.88988 118.53 7.08445C118.278 7.52979 118 7.97297 117.7 8.40318C117.611 8.52857 117.643 8.70368 117.769 8.79016C117.817 8.82475 117.874 8.83988 117.928 8.83988L117.93 8.84204Z" fill="#408F95"/>
<path d="M105.496 15.6736C105.559 15.6736 105.622 15.652 105.675 15.6087C106.116 15.2455 106.592 14.9515 107.086 14.7353C107.447 14.5775 107.799 14.4824 108.288 14.3505C108.451 14.3051 108.629 14.2576 108.827 14.2013L109.527 14.0046C110.101 13.8425 110.256 13.7992 110.516 13.7106C111.09 13.516 111.651 13.2825 112.186 13.0188C113.888 12.1778 115.63 10.9067 115.704 10.8526C116.493 10.2689 117.261 9.63116 117.987 8.95666C118.1 8.85073 118.106 8.67562 118 8.5632C117.893 8.45078 117.717 8.4443 117.604 8.55023C116.893 9.2096 116.143 9.83438 115.371 10.4051C115.354 10.4181 113.593 11.7001 111.936 12.5194C111.423 12.7723 110.886 12.995 110.336 13.1831C110.09 13.2653 109.953 13.3042 109.377 13.4663L108.677 13.663C108.481 13.7192 108.305 13.7668 108.142 13.81C107.631 13.9484 107.264 14.05 106.864 14.223C106.32 14.4586 105.801 14.7807 105.32 15.1763C105.201 15.2736 105.185 15.4487 105.283 15.5676C105.338 15.6347 105.418 15.6692 105.499 15.6692L105.496 15.6736Z" fill="#408F95"/>
<path d="M97.1303 17.2106C97.1999 17.2106 97.2673 17.1847 97.3216 17.135C97.4651 17.0009 97.6151 16.8734 97.7717 16.7545C98.2869 16.361 98.7805 16.1254 99.4588 15.8508C100.842 15.293 102.333 14.8347 102.907 14.7007C102.992 14.6812 103.203 14.6315 103.474 14.5342C103.709 14.4499 103.937 14.3483 104.157 14.2294C104.174 14.2208 104.19 14.21 104.205 14.197C104.322 14.0954 104.437 13.9873 104.546 13.8727C104.801 13.6046 104.964 13.3647 105.031 13.2609L105.051 13.2328C105.783 12.1756 106.572 11.1358 107.392 10.1478C108.149 9.23767 108.742 8.51993 109.618 7.69193C110.545 6.81854 111.566 6.02514 112.658 5.33766C112.788 5.25551 112.827 5.08256 112.745 4.95285C112.662 4.82314 112.488 4.78423 112.358 4.86638C111.236 5.57331 110.184 6.38833 109.231 7.28766C108.331 8.13944 107.725 8.86799 106.959 9.7911C106.127 10.7942 105.329 11.8449 104.588 12.9172L104.564 12.9517C104.503 13.0425 104.359 13.2544 104.137 13.4901C104.051 13.583 103.957 13.6717 103.861 13.7538C103.677 13.8532 103.481 13.9397 103.283 14.0111C103.042 14.0975 102.857 14.1408 102.785 14.1581C102.072 14.3245 100.522 14.8196 99.2457 15.3363C98.5239 15.6281 97.9956 15.8811 97.4282 16.3134C97.2564 16.4453 97.0912 16.5858 96.9346 16.7307C96.8216 16.8366 96.8172 17.0117 96.9238 17.1241C96.9781 17.1825 97.052 17.2106 97.1281 17.2106H97.1303Z" fill="#408F95"/>
<path d="M102.144 22.2391C102.244 22.2391 102.342 22.1851 102.392 22.09L103.968 19.1217C104.235 18.5488 104.479 17.9738 104.698 17.3966C104.864 16.9642 105.018 16.521 105.157 16.0757C105.203 15.9287 105.122 15.773 104.975 15.7276C104.827 15.6822 104.67 15.7622 104.624 15.9092C104.488 16.3437 104.335 16.7783 104.174 17.1998C103.959 17.7641 103.722 18.3283 103.466 18.8753L101.896 21.8305C101.824 21.9667 101.876 22.1354 102.013 22.2067C102.055 22.2283 102.1 22.2391 102.144 22.2391Z" fill="#408F95"/>
<path d="M102.146 22.2391C102.296 22.2391 102.42 22.1202 102.427 21.9689C102.455 21.0977 102.342 20.2502 102.092 19.4482C101.881 18.7758 101.716 18.244 101.225 17.7641C100.67 17.2193 100.035 17.0679 99.231 16.8755L99.1614 16.8582C98.5026 16.7004 97.8156 16.6312 97.1221 16.655C96.9677 16.6593 96.846 16.7891 96.8525 16.9426C96.8568 17.096 96.9829 17.2193 97.1416 17.2106C97.7852 17.189 98.42 17.2517 99.031 17.3987L99.1005 17.416C99.8484 17.5954 100.388 17.7251 100.833 18.1618C101.225 18.5445 101.357 18.9704 101.557 19.6146C101.79 20.3561 101.894 21.1431 101.866 21.9516C101.862 22.1051 101.981 22.2348 102.138 22.2391C102.14 22.2391 102.144 22.2391 102.146 22.2391Z" fill="#408F95"/>
<path d="M113.98 9.35007C114.347 9.35007 114.871 9.30034 115.406 8.96742C116.071 8.5545 116.367 7.95566 116.484 7.63571C116.536 7.49086 116.463 7.33088 116.317 7.279C116.171 7.22711 116.01 7.30062 115.958 7.44546C115.865 7.6984 115.632 8.17185 115.108 8.49613C114.586 8.82041 114.086 8.80095 113.756 8.78798C113.708 8.78798 113.669 8.78366 113.636 8.77933C113.734 8.66043 113.923 8.48316 114.206 8.24968C114.678 7.86054 115.215 7.52761 115.806 7.25954C115.947 7.19469 116.008 7.03039 115.943 6.88986C115.88 6.74934 115.712 6.68881 115.571 6.75367C114.936 7.04336 114.356 7.40223 113.847 7.82163C113.301 8.2713 112.864 8.67557 113.043 9.05822C113.151 9.2917 113.451 9.33277 113.734 9.34358C113.804 9.34574 113.886 9.35007 113.978 9.35007H113.98Z" fill="#408F95"/>
<path d="M117.776 7.84759C117.789 7.84759 117.8 7.84759 117.813 7.84759C117.967 7.84759 118.091 7.72004 118.091 7.56655C118.091 7.41306 117.965 7.28983 117.811 7.28983C117.8 7.28983 117.787 7.28983 117.776 7.28983C117.228 7.28983 116.704 7.17741 116.219 6.95258C115.959 6.83152 115.711 6.67802 115.482 6.49859C115.361 6.40131 115.185 6.42076 115.089 6.54183C114.993 6.66289 115.011 6.838 115.132 6.93312C115.395 7.14283 115.68 7.31794 115.982 7.45846C116.541 7.71572 117.143 7.84759 117.774 7.84759H117.776Z" fill="#408F95"/>
<path d="M117.395 4.84475C117.515 4.84475 117.637 4.80584 117.737 4.72369C117.85 4.63289 117.919 4.50318 117.935 4.36049C117.95 4.21781 117.906 4.07729 117.815 3.96487C117.724 3.85245 117.593 3.78328 117.45 3.76814C117.306 3.75301 117.165 3.79408 117.052 3.88704C116.939 3.97784 116.869 4.10755 116.854 4.25024C116.839 4.39292 116.882 4.53344 116.974 4.64586C117.08 4.77773 117.237 4.84475 117.395 4.84475ZM117.395 4.28915C117.395 4.28915 117.406 4.28915 117.408 4.29564C117.413 4.30212 117.413 4.31509 117.406 4.31942C117.4 4.3259 117.387 4.32374 117.382 4.31726C117.378 4.31077 117.378 4.2978 117.384 4.29348C117.387 4.29131 117.391 4.28915 117.395 4.28915Z" fill="#408F95"/>
<path d="M113.575 13.4684C113.864 13.4684 114.182 13.302 114.299 13.2328C114.545 13.0901 114.782 12.9301 115.006 12.755C115.312 12.515 115.599 12.2426 115.856 11.9486C116.786 10.8785 117.221 10.1673 117.941 8.98472C118.021 8.85284 117.978 8.68206 117.847 8.60207C117.715 8.52208 117.543 8.56532 117.463 8.69503C116.734 9.89054 116.332 10.5499 115.432 11.5833C115.199 11.8514 114.938 12.0978 114.66 12.3162C114.458 12.4761 114.241 12.621 114.017 12.7507C113.878 12.8307 113.734 12.8826 113.641 12.902C113.662 12.7572 113.764 12.4459 114.054 11.9184C114.128 11.7843 114.078 11.6135 113.941 11.54C113.806 11.4665 113.634 11.5163 113.56 11.6525C112.91 12.8436 113.032 13.1809 113.236 13.356C113.332 13.436 113.449 13.4663 113.573 13.4663L113.575 13.4684Z" fill="#408F95"/>
<path d="M108.082 16.6031C108.114 16.6031 108.147 16.5967 108.179 16.5859C108.919 16.3091 109.595 15.9092 110.188 15.3968C110.923 14.7656 111.521 13.9592 111.919 13.0707C111.982 12.9301 111.919 12.7658 111.778 12.7031C111.636 12.6405 111.471 12.7031 111.408 12.8437C111.043 13.6609 110.495 14.398 109.823 14.9753C109.347 15.386 108.812 15.7168 108.229 15.9654C108.156 15.7643 108.075 15.4747 108.106 15.2066C108.116 15.1115 108.134 14.9666 108.219 14.8045C108.245 14.7569 108.266 14.7267 108.316 14.6531L108.358 14.5926C108.475 14.4197 108.569 14.277 108.629 14.1819C108.712 14.0521 108.675 13.8792 108.545 13.797C108.414 13.7149 108.242 13.7516 108.158 13.8814C108.099 13.9743 108.008 14.1127 107.892 14.2813L107.851 14.3418C107.784 14.4413 107.755 14.4824 107.723 14.5472C107.588 14.8002 107.562 15.0315 107.549 15.1439C107.484 15.7081 107.747 16.2854 107.829 16.4497C107.877 16.5469 107.977 16.6031 108.079 16.6031H108.082Z" fill="#408F95"/>
<path d="M105.171 12.3918C105.218 12.3918 105.266 12.381 105.31 12.3551C105.523 12.234 105.742 12.0913 105.982 11.9227C106.108 11.8341 106.136 11.659 106.047 11.5336C105.958 11.4082 105.782 11.3801 105.655 11.4687C105.434 11.6265 105.229 11.7584 105.031 11.8708C104.897 11.9465 104.851 12.1173 104.927 12.2513C104.979 12.3399 105.073 12.3918 105.171 12.3918Z" fill="#408F95"/>
<path d="M104.068 12.822C104.429 12.822 104.866 12.6599 105.329 12.3421C105.457 12.2556 105.488 12.0805 105.401 11.9551C105.314 11.8276 105.138 11.7973 105.012 11.8838C104.418 12.2902 103.99 12.3313 103.844 12.1951C103.709 12.0697 103.714 11.6762 104.046 11.1077C104.125 10.9758 104.079 10.805 103.944 10.7272C103.812 10.6494 103.64 10.6948 103.562 10.8288C103.118 11.5898 103.081 12.2535 103.464 12.6037C103.622 12.7485 103.829 12.822 104.068 12.822Z" fill="#408F95"/>
<path d="M104.325 10.6191C104.403 10.6191 104.481 10.5867 104.538 10.5219C104.955 10.0398 105.396 9.57279 105.855 9.13394C107.486 7.56658 109.382 6.26514 111.488 5.26204C111.627 5.19502 111.686 5.02855 111.621 4.8902C111.553 4.75184 111.388 4.69347 111.247 4.75832C109.086 5.78521 107.14 7.1234 105.466 8.73183C104.996 9.18366 104.54 9.66359 104.114 10.1587C104.014 10.2754 104.027 10.4505 104.144 10.5521C104.196 10.5975 104.262 10.6191 104.327 10.6191H104.325Z" fill="#408F95"/>
<path d="M112.045 4.99823C112.078 4.99823 112.112 4.99175 112.145 4.97878C112.199 4.95716 112.278 4.92905 112.371 4.89662C112.769 4.7561 113.178 4.63936 113.589 4.54856C114.019 4.45344 114.458 4.38642 114.897 4.34751C115.052 4.33454 115.165 4.19834 115.152 4.04485C115.139 3.89136 115.004 3.77894 114.847 3.79191C114.384 3.83299 113.921 3.90433 113.467 4.00377C113.034 4.0989 112.604 4.22212 112.184 4.37129C112.086 4.40588 112.004 4.43615 111.945 4.45993C111.802 4.51397 111.728 4.67611 111.784 4.8188C111.828 4.92905 111.932 4.99823 112.045 4.99823Z" fill="#408F95"/>
<path d="M109.258 6.20676C109.282 6.20676 109.306 6.20028 109.327 6.18947C109.499 6.103 109.677 6.03382 109.862 5.98193C110.099 5.91707 110.345 5.88465 110.586 5.88248C110.651 5.88248 110.706 5.88248 110.741 5.88681C110.83 5.89113 110.899 5.82628 110.904 5.74196C110.908 5.65765 110.843 5.58415 110.758 5.57982C110.717 5.57766 110.656 5.5755 110.584 5.5755C110.314 5.5755 110.043 5.61225 109.78 5.68576C109.575 5.74196 109.375 5.81979 109.186 5.91491C109.11 5.95383 109.08 6.04679 109.119 6.12029C109.147 6.17434 109.199 6.2046 109.256 6.2046L109.258 6.20676Z" fill="#408F95"/>
<path d="M108.088 7.08664C108.105 7.08664 108.123 7.08448 108.14 7.07799C108.323 7.01314 108.51 6.95693 108.701 6.90721C108.947 6.84451 109.195 6.79911 109.438 6.76669C109.503 6.75804 109.556 6.75371 109.592 6.74939C109.677 6.74074 109.74 6.66724 109.732 6.58293C109.723 6.49861 109.647 6.43808 109.564 6.44457C109.525 6.44889 109.469 6.45321 109.401 6.46186C109.147 6.49429 108.886 6.54401 108.627 6.60887C108.427 6.65859 108.229 6.71912 108.038 6.7883C107.958 6.81641 107.916 6.90505 107.945 6.98503C107.966 7.04773 108.027 7.08664 108.09 7.08664H108.088Z" fill="#408F95"/>
<path d="M106.642 8.21512C106.662 8.21512 106.681 8.21079 106.703 8.20215C106.881 8.12648 107.066 8.06595 107.253 8.01623C107.497 7.95353 107.742 7.91246 107.984 7.89516C108.049 7.89084 108.101 7.88868 108.138 7.88651C108.223 7.88435 108.29 7.81301 108.288 7.7287C108.286 7.64438 108.216 7.57953 108.129 7.57953C108.09 7.57953 108.031 7.58385 107.962 7.58818C107.701 7.60763 107.436 7.65087 107.175 7.72005C106.975 7.77193 106.775 7.83895 106.584 7.9211C106.505 7.95353 106.468 8.04433 106.501 8.12216C106.525 8.18053 106.584 8.21512 106.642 8.21512Z" fill="#408F95"/>
<path d="M109.029 14.7245C109.071 14.7245 109.11 14.7093 109.14 14.6769L110.008 13.7776C110.066 13.717 110.064 13.6198 110.003 13.5614C109.942 13.503 109.845 13.5052 109.786 13.5657L108.918 14.465C108.86 14.5256 108.862 14.6229 108.923 14.6812C108.953 14.7093 108.99 14.7245 109.029 14.7245Z" fill="#408F95"/>
<path d="M102.555 19.4633C102.651 19.4633 102.74 19.4049 102.772 19.3098C102.92 18.8926 102.998 18.4624 103.009 18.0278C103.022 17.4463 103.037 16.8993 102.655 16.4929C102.266 16.08 101.703 16.0649 101.105 16.0476C100.616 16.0346 100.131 16.1038 99.6589 16.2529C99.5372 16.2918 99.4698 16.4216 99.5089 16.5426C99.548 16.6637 99.6785 16.7307 99.8002 16.6918C100.22 16.5578 100.657 16.4972 101.092 16.508C101.633 16.5232 102.059 16.534 102.318 16.8085C102.57 17.0766 102.559 17.4917 102.548 18.017C102.54 18.404 102.468 18.7888 102.337 19.1585C102.296 19.2774 102.359 19.4093 102.479 19.4503C102.505 19.459 102.531 19.4633 102.555 19.4633Z" fill="#408F95"/>
</g>
<defs>
<clipPath id="clip0_2638_39119">
<rect width="120" height="55" fill="white" transform="matrix(-1 0 0 1 120 0)"/>
</clipPath>
</defs>
</svg>
